<svg xmlns="http://www.w3.org/2000/svg" width="1176.379" height="1027.463" viewBox="0 0 1176.379 1027.463">
  <path id="Differenzmenge_2" data-name="Differenzmenge 2" d="M-3180,10957.964c-68.388,0-136.377-5.187-207.852-15.858-17.436-2.6-35.482-5.6-53.637-8.908-17.893-3.261-36.429-6.92-55.093-10.875-36.706-7.78-74.7-16.824-116.15-27.647-20.169-5.424-39.923-11.34-58.714-17.583-18.769-6.236-37.077-12.966-54.418-20s-34.179-14.569-50.043-22.384-31.215-16.141-45.591-24.728V9931.5h595.6a678.82,678.82,0,0,0,36.771,75.4,662.764,662.764,0,0,0,45.864,70.2,606.917,606.917,0,0,0,53.972,62.773,528.006,528.006,0,0,0,61.093,53.124c8.825,6.9,18.242,13.746,28.789,20.938,9.405,6.414,19.522,12.969,30.928,20.037,21.273,13.187,43.848,26.167,65.68,38.721l.07.042c18.794,10.807,38.229,21.981,57.166,33.476,21.135,12.831,38.974,24.465,54.534,35.565a463.089,463.089,0,0,1,48.56,39.33c7.568,7.111,14.638,14.384,21.013,21.614a262.346,262.346,0,0,1,18.292,23.2c13.345,19.125,25.383,41.771,36.8,69.232,9.175,22.138,13.95,45.909,17.743,68.3,4.392,25.964,2.546,52.255.47,74.859-1.784,19.074-6.454,39.154-14.275,61.389a380.124,380.124,0,0,1-35.423,74.96,369.245,369.245,0,0,1-39.582,53.071c-13.171,14.581-29.31,28.9-49.34,43.774-12.459,9.257-26.858,17.882-44.02,26.369a420.525,420.525,0,0,1-59.588,24.515,428.587,428.587,0,0,1-50.8,12.346c-27.508,5.171-79.286,14.425-98.867,16.309-23.964,2.3-47.809,4.05-70.874,5.191C-3134.066,10957.379-3157.308,10957.961-3180,10957.964Z" transform="translate(3821.999 -9931.001)" fill="#f6f9ff" stroke="rgba(0,0,0,0)" stroke-miterlimit="10" stroke-width="1"/>
</svg>
