<svg xmlns="http://www.w3.org/2000/svg" width="1405.343" height="910.511" viewBox="0 0 1405.343 910.511">
  <g id="Gruppe_3606" data-name="Gruppe 3606" transform="translate(-234.957 -197.275)">
    <g id="Gruppe_2062" data-name="Gruppe 2062" transform="translate(116.293 96.75)">
      <path id="Pfad_4411" data-name="Pfad 4411" d="M1805.908,704.544c29.067,20.645,41.794,49.969,47.461,62.474,20.167,44.509,15.339,88.137,12.923,109.969-12.158,109.856-110.019,248.963-228.958,290.417-55.352,19.292-89.588-15.995-179.321-1.175-12.193,2.014-44.326,7.894-90.179,13.123-31.528,3.6-55.729,5.307-67.325,6.054-53.208,3.423-79.811,5.135-108.358,1.568a301.374,301.374,0,0,1-95.81-29.087c-36.205-18.181-100.8-50.615-129.793-126.694-24.953-65.465-19.358-151.284,22.923-212.451,11.422-14.469,29.645-33.652,55.99-46.6,49.5-24.324,85.2-5.762,110.663-34.957,16.726-19.178,6.891-33.577,21.514-60.38,23.489-43.054,78.972-61.091,115.88-61.746,90.2-1.6,93.281,100.192,185.6,117.451,82.5,15.423,138.458-54.943,254.565-50.405C1751.712,682.813,1779.292,685.641,1805.908,704.544Z" transform="translate(-541.309 -370.151)" fill="#e1e6ff"/>
      <path id="Pfad_4412" data-name="Pfad 4412" d="M1630.523,828.515c42.3,44.165,104.1-4.035,150.322,37.06,34.21,30.419,38.3,90.574,33.172,126.912-17.473,123.864-180.228,241.955-328.25,255.536-94.906,8.708-139.362-78.5-208.6-49.008-50.846,21.655-55.7,71.384-114.962,81.473-6.506,1.107-63.366,9.979-100.687-23.242-23.854-21.233-22.615-44.78-53.08-58.231-18.08-7.982-15.209-4.42-43.729-8.763-109.924-27.628-247.009-135.542-231.315-269.2C749.943,780.088,925.384,704.695,936.214,700.21c111.685-46.253,218.256-14.773,243.721-7.251,108.888,32.164,140.938,95.9,204.818,71.323,53.073-20.417,67.509-78.473,122.521-80.542,36.383-1.368,63.769,22.759,72.274,31.107C1619.811,754.363,1598.913,795.508,1630.523,828.515Z" transform="translate(-420.16 -407.655)" fill="none" stroke="#fff" stroke-miterlimit="10" stroke-width="8"/>
      <path id="Pfad_4143" data-name="Pfad 4143" d="M1532.087,499.446,1129.322,1328.44h586.569l-96.656-805.286Z" transform="translate(-544.386 -317.404)" fill="#fff2cc" opacity="0.46"/>
      <path id="Pfad_4144" data-name="Pfad 4144" d="M1262.294,924.313h-26.477V973.44H1203.6V924.313H1092.58l143.236-187.259V895.283h26.477Zm-58.7-29.03V827.334l-51.36,67.949Z" transform="translate(-539.24 -355.216)" fill="#fff"/>
      <path id="Pfad_4145" data-name="Pfad 4145" d="M1432.112,758.186c31.914,17.032,49.886,58.13,49.886,106.748,0,64.121-31.262,115.162-84.537,115.162-24.761,0-44.755-10.9-59.1-28.942Zm-225.854,33.626q.222.52.514,1.113" transform="translate(-551.068 -356.601)" fill="#7b75ff"/>
      <path id="Pfad_4146" data-name="Pfad 4146" d="M1696.313,924.313h-26.478V973.44h-32.22V924.313H1526.6l143.235-187.259V895.283h26.478Zm-58.7-29.03V827.334l-51.361,67.949Z" transform="translate(-588.215 -355.216)" fill="#7b75ff"/>
      <path id="Pfad_4158" data-name="Pfad 4158" d="M1634,434.8l119.167,97.654a602.194,602.194,0,0,1-136.718-17.034,602.209,602.209,0,0,1-133.4-49.785Z" transform="translate(-584.301 -310.109)" fill="#7b75ff"/>
      <path id="Pfad_4159" data-name="Pfad 4159" d="M1587.183,443.543c10.229-25.106,36.231-39.581,61.321-35.208,28.083,4.894,48.82,32.323,45.429,62.728a133.8,133.8,0,0,1-106.749-27.521Z" transform="translate(-596.051 -307.036)" fill="#fff2cc"/>
      <path id="Pfad_4160" data-name="Pfad 4160" d="M1429.666,785.025c-6.236-4.341-15.568-7.946-24.1-7.946-34.453,0-49.765,38.919-49.765,83.262,0,19.394,5.381,39.523,11.56,54.04l-16.323,32.943c-16.706-21.014-25.754-51.725-25.754-86.221,0-64.121,31.263-115.163,84.857-115.163a72.7,72.7,0,0,1,34.652,8.416Z" transform="translate(-563.498 -353.219)" fill="#fff"/>
    </g>
    <g id="Gruppe_3027" data-name="Gruppe 3027" transform="translate(107.387 56.891)">
      <rect id="Rechteck_348-2" data-name="Rechteck 348-2" width="19.278" height="19.404" transform="translate(127.57 304.221) rotate(-45)" fill="#e1e6ff"/>
      <rect id="Rechteck_349-2" data-name="Rechteck 349-2" width="19.278" height="19.404" transform="translate(251.703 291.779) rotate(-45)" fill="#9cb0fc"/>
      <rect id="Rechteck_350-2" data-name="Rechteck 350-2" width="23.417" height="23.569" transform="translate(347.482 369.061) rotate(-45)" fill="#7b75ff"/>
      <rect id="Rechteck_351-2" data-name="Rechteck 351-2" width="23.417" height="23.569" transform="translate(340.87 195.877) rotate(-45)" fill="#e1e6ff"/>
      <rect id="Rechteck_351-2-2" data-name="Rechteck 351-2" width="11.634" height="11.71" transform="translate(157.191 397.479) rotate(-45)" fill="#fff"/>
      <rect id="Rechteck_351-2-3" data-name="Rechteck 351-2" width="11.634" height="11.71" transform="translate(305.523 370.678) rotate(-45)" fill="#fff"/>
      <rect id="Rechteck_351-2-4" data-name="Rechteck 351-2" width="11.634" height="11.71" transform="translate(249.127 430.559) rotate(-45)" fill="#fff"/>
      <rect id="Rechteck_351-2-5" data-name="Rechteck 351-2" width="11.634" height="11.71" transform="translate(376.289 468.363) rotate(-45)" fill="#fff"/>
      <rect id="Rechteck_351-2-6" data-name="Rechteck 351-2" width="11.634" height="11.71" transform="translate(445.357 261.494) rotate(-45)" fill="#fff"/>
    </g>
    <g id="Gruppe_3028" data-name="Gruppe 3028" transform="translate(-73 -47)">
      <rect id="Rechteck_351-2-7" data-name="Rechteck 351-2" width="11.71" height="11.634" transform="translate(1607.959 514.814) rotate(-45)" fill="#fff"/>
      <rect id="Rechteck_351-2-8" data-name="Rechteck 351-2" width="11.71" height="11.634" transform="translate(1561.561 504.934) rotate(-45)" fill="#fff"/>
      <rect id="Rechteck_351-2-9" data-name="Rechteck 351-2" width="11.71" height="11.634" transform="translate(1588.723 417.129) rotate(-45)" fill="#fff"/>
      <rect id="Rechteck_351-2-10" data-name="Rechteck 351-2" width="11.71" height="11.634" transform="translate(1696.793 491.998) rotate(-45)" fill="#fff"/>
    </g>
    <path id="Pfad_7169" data-name="Pfad 7169" d="M76.99,9H74.17L69.19,23.82,62.77,8.64,56.35,23.79,51.4,9H48.58l7.47,21.78L62.8,14.91l6.72,15.87Zm3.6,4.38a1.7,1.7,0,1,0-1.71-1.71A1.69,1.69,0,0,0,80.59,13.38ZM79.33,30h2.52V16.47l-2.52.45Zm9.39-11.31V16.5l-2.4.39V30h2.52V23.25c0-2.91,1.53-4.32,4.44-4.32V16.47A4.968,4.968,0,0,0,88.72,18.69Zm19.32-8.16h.33V8.19h-.36c-3.3,0-5.28,1.92-5.28,5.28v3.24h-1.5l-.42,2.22h1.92V30h2.55V18.93h2.94V16.71h-2.94V13.62C105.28,11.55,106.27,10.53,108.04,10.53Zm5.97,3a1.575,1.575,0,1,0-1.59-1.59A1.581,1.581,0,0,0,114.01,13.53Zm5.64,0a1.575,1.575,0,1,0,0-3.15,1.575,1.575,0,1,0,0,3.15Zm.48,3.36v7.35a3.41,3.41,0,0,1-3.45,3.75c-1.86,0-3.15-1.2-3.15-3.51V16.47l-2.52.42v7.86c0,3.51,2.1,5.55,5.13,5.55a5.25,5.25,0,0,0,4.11-1.83v1.56h2.4V16.47Zm13.56-.51a5.119,5.119,0,0,0-4.11,1.89V8.22l-2.52.42V30h2.52V22.47a3.486,3.486,0,0,1,3.54-3.78c1.89,0,3.21,1.23,3.21,3.51V30h2.52V21.96C138.85,18.45,136.69,16.38,133.69,16.38Zm11.73,2.31V16.5l-2.4.39V30h2.52V23.25c0-2.91,1.53-4.32,4.44-4.32V16.47A4.968,4.968,0,0,0,145.42,18.69Zm13.17,9.45a4.578,4.578,0,0,1-4.32-2.67l10.56-3.42a6.206,6.206,0,0,0-6.36-5.67,6.976,6.976,0,1,0,.09,13.95,8.512,8.512,0,0,0,5.91-2.43l-.9-2.16A6.583,6.583,0,0,1,158.59,28.14Zm-.12-9.6a3.755,3.755,0,0,1,3.57,2.19l-8.22,2.67A4.685,4.685,0,0,1,158.47,18.54Zm16.29-2.16a5.3,5.3,0,0,0-4.2,1.89V16.5l-2.4.39V30h2.52V22.47a3.5,3.5,0,0,1,3.54-3.81c1.89,0,3.21,1.23,3.21,3.54V30h2.52V21.96C179.95,18.45,177.82,16.38,174.76,16.38ZM190.78,30h4.83c6.27,0,10.98-4.5,10.98-10.5S201.88,9,195.61,9h-4.83Zm2.7-2.55V11.55h2.1a7.954,7.954,0,1,1,0,15.9Zm18.27-14.07a1.7,1.7,0,1,0-1.71-1.71A1.69,1.69,0,0,0,211.75,13.38ZM210.49,30h2.52V16.47l-2.52.45Zm13.02.33a8.3,8.3,0,0,0,3.63-.87l-.39-2.37a6.381,6.381,0,0,1-3.18.96,4.586,4.586,0,0,1-4.62-4.71,4.543,4.543,0,0,1,4.62-4.68,6.191,6.191,0,0,1,3.03.87l.42-2.31a7.931,7.931,0,0,0-3.51-.84,6.976,6.976,0,1,0,0,13.95Zm13.53-13.95a5.119,5.119,0,0,0-4.11,1.89V8.22l-2.52.42V30h2.52V22.47a3.486,3.486,0,0,1,3.54-3.78c1.89,0,3.21,1.23,3.21,3.51V30h2.52V21.96C242.2,18.45,240.04,16.38,237.04,16.38Zm27.03-.03H252.28l-.51,3.36h6.03L251.26,30H263.2l.51-3.39h-6.09Zm11.37.24v7.47a2.517,2.517,0,0,1-2.55,2.76,2.324,2.324,0,0,1-2.37-2.61V16.08l-4.08.51v8.13c0,3.45,1.83,5.64,5.04,5.64a5.314,5.314,0,0,0,4.08-1.74v1.41h3.99V16.08Zm11.52,1.8V16.11l-3.84.48V30h4.08V23.73c0-2.76,1.47-3.99,4.14-3.99V16.08C289.18,16.08,287.77,16.86,286.96,18.39Zm9.81-4.47a2.072,2.072,0,1,0,0-4.14,2.071,2.071,0,1,0,0,4.14Zm6.18,0a2.072,2.072,0,1,0,0-4.14,2.071,2.071,0,1,0,0,4.14Zm-.63,2.67v7.47a2.517,2.517,0,0,1-2.55,2.76,2.324,2.324,0,0,1-2.37-2.61V16.08l-4.08.51v8.13c0,3.45,1.83,5.64,5.04,5.64a5.314,5.314,0,0,0,4.08-1.74v1.41h3.99V16.08Zm14.28,13.8a8.532,8.532,0,0,0,3.69-.84l-.51-3.51a6.092,6.092,0,0,1-2.94.84,3.721,3.721,0,1,1-.03-7.44,5.964,5.964,0,0,1,2.79.78l.57-3.51a9.21,9.21,0,0,0-3.6-.75,7.221,7.221,0,1,0,.03,14.43ZM336.1,30l-5.22-7.11,4.95-6.54h-4.71l-4.17,5.85V8.28l-4.08.51V30h4.08V23.67L331.27,30Zm18.66,0-.12-2.52V20.82c0-2.79-1.74-4.38-5.1-4.38a9.822,9.822,0,0,0-3.03.48l-.42,2.19a9.841,9.841,0,0,1,3.24-.6c2.13,0,2.85.84,2.85,2.52v.72a4.9,4.9,0,1,0-3.15,8.58,5.08,5.08,0,0,0,3.33-1.2l.09.87Zm-5.37-1.71a2.837,2.837,0,1,1,0-5.67,2.838,2.838,0,1,1,0,5.67Zm18.3-11.4v7.35a3.41,3.41,0,0,1-3.45,3.75c-1.86,0-3.15-1.2-3.15-3.51V16.47l-2.52.42v7.86c0,3.51,2.1,5.55,5.13,5.55a5.25,5.25,0,0,0,4.11-1.83v1.56h2.4V16.47Zm13.02-6.36h.33V8.19h-.36c-3.3,0-5.28,1.92-5.28,5.28v3.24h-1.5l-.42,2.22h1.92V30h2.55V18.93h2.94V16.71h-2.94V13.62C377.95,11.55,378.94,10.53,380.71,10.53Zm19.77-1.89v9.9a6.01,6.01,0,0,0-4.71-2.16,6.852,6.852,0,0,0-6.78,6.96,6.833,6.833,0,0,0,6.78,6.96,6.045,6.045,0,0,0,4.77-2.22V30H403V8.22Zm-4.41,19.41a4.574,4.574,0,0,1-4.56-4.71,4.577,4.577,0,1,1,4.56,4.71Zm17.4.09a4.578,4.578,0,0,1-4.32-2.67l10.56-3.42a6.206,6.206,0,0,0-6.36-5.67,6.976,6.976,0,1,0,.09,13.95,8.512,8.512,0,0,0,5.91-2.43l-.9-2.16A6.583,6.583,0,0,1,413.47,28.14Zm-.12-9.6a3.755,3.755,0,0,1,3.57,2.19L408.7,23.4A4.685,4.685,0,0,1,413.35,18.54Zm16.29-2.16a5.3,5.3,0,0,0-4.2,1.89V16.5l-2.4.39V30h2.52V22.47a3.5,3.5,0,0,1,3.54-3.81c1.89,0,3.21,1.23,3.21,3.54V30h2.52V21.96C434.83,18.45,432.7,16.38,429.64,16.38Zm18.06,2.31V16.5l-2.4.39V30h2.52V23.25c0-2.91,1.53-4.32,4.44-4.32V16.47A4.968,4.968,0,0,0,447.7,18.69Zm8.7-5.31a1.7,1.7,0,1,0-1.71-1.71A1.69,1.69,0,0,0,456.4,13.38ZM455.14,30h2.52V16.47l-2.52.45Zm13.02.33a8.3,8.3,0,0,0,3.63-.87l-.39-2.37a6.381,6.381,0,0,1-3.18.96,4.586,4.586,0,0,1-4.62-4.71,4.543,4.543,0,0,1,4.62-4.68,6.192,6.192,0,0,1,3.03.87l.42-2.31a7.931,7.931,0,0,0-3.51-.84,6.976,6.976,0,1,0,0,13.95Zm13.53-13.95a5.119,5.119,0,0,0-4.11,1.89V8.22l-2.52.42V30h2.52V22.47a3.486,3.486,0,0,1,3.54-3.78c1.89,0,3.21,1.23,3.21,3.51V30h2.52V21.96C486.85,18.45,484.69,16.38,481.69,16.38Zm15.96,2.55V16.71h-3.78V12.45l-2.52,1.41v2.85h-1.59l-.42,2.22h2.01v7.2a3.746,3.746,0,0,0,4.02,4.11,5.665,5.665,0,0,0,2.28-.45V27.54a5.3,5.3,0,0,1-1.89.42,1.8,1.8,0,0,1-1.89-2.04V18.93Zm4.53-5.55a1.7,1.7,0,1,0-1.71-1.71A1.69,1.69,0,0,0,502.18,13.38ZM500.92,30h2.52V16.47l-2.52.45Zm19.23-13.92-6.84.27c-3.9.15-6.39,2.73-6.39,5.91a5.618,5.618,0,0,0,3,4.98,6.587,6.587,0,0,0-1.02.84l1.05,1.8a3.971,3.971,0,0,1,3.21-1.65,3.377,3.377,0,1,1,.03,6.75,3.564,3.564,0,0,1-3.6-3.39l-2.16.99a5.637,5.637,0,0,0,5.76,4.59,5.564,5.564,0,0,0,5.85-5.49,5.165,5.165,0,0,0-2.52-4.47,5.634,5.634,0,0,0,2.94-4.92,5.378,5.378,0,0,0-1.95-4.17l2.22.18Zm-6.96,9.96a3.726,3.726,0,0,1-3.9-3.72,3.886,3.886,0,0,1,7.77,0A3.7,3.7,0,0,1,513.19,26.04Zm16.17,2.1a4.578,4.578,0,0,1-4.32-2.67l10.56-3.42a6.206,6.206,0,0,0-6.36-5.67,6.976,6.976,0,1,0,.09,13.95,8.512,8.512,0,0,0,5.91-2.43l-.9-2.16A6.583,6.583,0,0,1,529.36,28.14Zm-.12-9.6a3.755,3.755,0,0,1,3.57,2.19l-8.22,2.67A4.685,4.685,0,0,1,529.24,18.54Zm16.29-2.16a5.3,5.3,0,0,0-4.2,1.89V16.5l-2.4.39V30h2.52V22.47a3.5,3.5,0,0,1,3.54-3.81c1.89,0,3.21,1.23,3.21,3.54V30h2.52V21.96C550.72,18.45,548.59,16.38,545.53,16.38ZM588.1,9h-4.5l-3.96,11.82L573.67,8.64,567.7,20.79,563.71,9h-4.47l7.68,21.9,6.75-13.56,6.72,13.56Zm6.63,18.3a3.9,3.9,0,0,1-3.36-1.65l9.96-3.21a6.647,6.647,0,0,0-6.84-6.48,7.22,7.22,0,1,0,.21,14.43,9.779,9.779,0,0,0,6.18-2.28l-1.17-3A7.451,7.451,0,0,1,594.73,27.3Zm-.21-8.28a3.141,3.141,0,0,1,2.82,1.56l-6.63,2.16A3.854,3.854,0,0,1,594.52,19.02Zm22.86-3.42-7.35.3c-4.5.21-6.9,3.06-6.9,6.21a5.8,5.8,0,0,0,3.09,5.13l.81,2.4a3.827,3.827,0,0,1,2.79-1.29,2.736,2.736,0,1,1,.06,5.46,3.162,3.162,0,0,1-3.15-2.79l-2.88,1.74a6.015,6.015,0,0,0,6.06,4.23c3.81,0,6.36-2.67,6.36-5.82a5.137,5.137,0,0,0-2.19-4.29,5.714,5.714,0,0,0,2.52-4.74,5.3,5.3,0,0,0-1.56-3.81l1.89.12Zm-7.5,3.51a2.985,2.985,0,0,1,3.06,3,3.045,3.045,0,1,1-3.06-3Zm12.33,11.16a1.98,1.98,0,1,0-2.01-1.98A1.992,1.992,0,0,0,622.21,30.27Z" transform="translate(630 793)" fill="#6c63ff"/>
    <path id="Pfad_7168" data-name="Pfad 7168" d="M248.224,14.4,239.1,34.9l-9.12-20.5h-7.536L239.1,49.2l16.608-34.8Zm17.184,29.28a6.238,6.238,0,0,1-5.376-2.64L275.968,35.9c-.576-6.624-5.232-10.368-10.944-10.368A11.469,11.469,0,0,0,253.264,37.1c0,6.48,5.136,11.52,12.1,11.52a15.647,15.647,0,0,0,9.888-3.648l-1.872-4.8C270.592,42.672,267.9,43.68,265.408,43.68Zm-.336-13.248a5.025,5.025,0,0,1,4.512,2.5l-10.608,3.456C259.312,32.928,261.76,30.432,265.072,30.432Zm21.312-1.008V25.776l-6.144.768V48h6.528V37.968c0-4.416,2.352-6.384,6.624-6.384V25.728C289.936,25.728,287.68,26.976,286.384,29.424ZM297.136,48h6.576V13.248l-6.576.816Zm30.576,0-.192-3.936V33.552c0-5.28-3.408-7.872-9.6-7.872a22.315,22.315,0,0,0-5.712.768L311.44,31.2a16.439,16.439,0,0,1,5.232-.912c3.552,0,4.752,1.248,4.752,3.648V34.7a9.184,9.184,0,0,0-4.992-1.584c-4.848,0-8.352,3.36-8.352,7.728a7.865,7.865,0,0,0,8.16,7.776,8.2,8.2,0,0,0,5.568-2.064L322,48Zm-9.792-3.888a3.413,3.413,0,1,1,0-6.816,3.419,3.419,0,1,1,0,6.816Zm28.944-17.568V38.5c0,2.688-1.68,4.416-4.08,4.416-2.256,0-3.792-1.536-3.792-4.176V25.728l-6.528.816V39.552c0,5.52,2.928,9.024,8.064,9.024a8.5,8.5,0,0,0,6.528-2.784v2.256h6.384V25.728Zm24.528-7.488h.576V13.344H371.2c-6.672,0-10.416,3.456-10.416,9.744V26.16h-2.592l-.816,5.28h3.408V48h6.528V31.44h4.512V26.16h-4.512V23.328C367.312,20.544,368.752,19.056,371.392,19.056Zm14.4,24.624a6.238,6.238,0,0,1-5.376-2.64L396.352,35.9c-.576-6.624-5.232-10.368-10.944-10.368A11.469,11.469,0,0,0,373.648,37.1c0,6.48,5.136,11.52,12.1,11.52a15.647,15.647,0,0,0,9.888-3.648l-1.872-4.8C390.976,42.672,388.288,43.68,385.792,43.68Zm-.336-13.248a5.025,5.025,0,0,1,4.512,2.5L379.36,36.384C379.7,32.928,382.144,30.432,385.456,30.432Zm28.128-4.848a8.639,8.639,0,0,0-6.624,2.784V25.776l-6.336.768V48h6.528V35.664c0-2.736,1.728-4.464,4.176-4.464,2.3,0,3.888,1.536,3.888,4.224V48h6.576V34.608C421.792,29.088,418.768,25.584,413.584,25.584Zm17.664,11.424h5.616l.048-2.064c.144-5.088,6.768-5.568,6.768-12.288,0-5.376-4.176-8.832-9.552-8.832-5.9,0-9.936,4.224-9.5,9.888l5.9.336c-.24-2.976,1.344-4.608,3.5-4.608a3.288,3.288,0,0,1,3.456,3.408c0,4.32-6.72,4.9-6.336,11.856Zm2.928,11.52a4.18,4.18,0,1,0-4.368-4.176A4.212,4.212,0,0,0,434.176,48.528Z" transform="translate(630 732)" fill="#6c63ff"/>
  </g>
</svg>
