<svg xmlns="http://www.w3.org/2000/svg" width="32.891" height="30.427" viewBox="0 0 32.891 30.427">
  <path id="Pfad_5409" data-name="Pfad 5409" d="M1692.1,1038.331a7.763,7.763,0,0,1-12.4,0,8.67,8.67,0,0,0-8.745,8.573,8.562,8.562,0,0,0,1.96,5.407c.08.1,3.911,4.379,11.385,12.727a2.167,2.167,0,0,0,1.611.72h0a2.165,2.165,0,0,0,1.612-.722l11.4-12.768a8.491,8.491,0,0,0,1.925-5.363,8.67,8.67,0,0,0-8.745-8.573" transform="translate(-1669.454 -1036.831)" fill="#ff696e" stroke="#ff696e" stroke-linejoin="round" stroke-width="3" fill-rule="evenodd"/>
</svg>
