<svg xmlns="http://www.w3.org/2000/svg" xmlns:xlink="http://www.w3.org/1999/xlink" width="29.891" height="27.427" viewBox="0 0 29.891 27.427">
  <defs>
    <clipPath id="clip-path">
      <path id="Pfad_487" data-name="Pfad 487" d="M1692.1,1038.331a7.763,7.763,0,0,1-12.4,0,8.67,8.67,0,0,0-8.745,8.573,8.562,8.562,0,0,0,1.96,5.407c.08.1,3.911,4.379,11.385,12.727a2.167,2.167,0,0,0,1.611.72h0a2.165,2.165,0,0,0,1.612-.722l11.4-12.768a8.491,8.491,0,0,0,1.925-5.363,8.67,8.67,0,0,0-8.745-8.573m-12.4,1.93c1.832,0,3.864,1.209,5.438,3.236a1.019,1.019,0,0,0,1.525,0c1.573-2.027,3.605-3.236,5.437-3.236a6.739,6.739,0,0,1,6.816,6.643,6.428,6.428,0,0,1-1.462,4.109l-11.37,12.737a.235.235,0,0,1-.346,0c-7.4-8.265-11.224-12.541-11.363-12.7a6.471,6.471,0,0,1-1.49-4.143,6.738,6.738,0,0,1,6.815-6.643" transform="translate(-1670.954 -1038.331)" fill="none" clip-rule="evenodd"/>
    </clipPath>
    <clipPath id="clip-path-2">
      <rect id="Rechteck_103" data-name="Rechteck 103" width="41.141" height="41.141" fill="none"/>
    </clipPath>
  </defs>
  <g id="Gruppe_1588" data-name="Gruppe 1588" transform="translate(0)">
    <g id="Gruppe_1551" data-name="Gruppe 1551" clip-path="url(#clip-path)">
      <g id="Gruppe_1550" data-name="Gruppe 1550" transform="translate(-5.143 -6.857)">
        <g id="Gruppe_1549" data-name="Gruppe 1549" clip-path="url(#clip-path-2)">
          <rect id="Rechteck_102" data-name="Rechteck 102" width="47.032" height="44.569" transform="translate(-3.428 -1.714)" fill="#ff696e"/>
        </g>
      </g>
    </g>
  </g>
</svg>
