<svg width="60" height="60" viewBox="0 0 60 60" fill="none" xmlns="http://www.w3.org/2000/svg">
<path d="M0 30C0 13.4315 13.4315 0 30 0V0C46.5685 0 60 13.4315 60 30V30C60 46.5685 46.5685 60 30 60V60C13.4315 60 0 46.5685 0 30V30Z" fill="#FF696E"/>
<path fill-rule="evenodd" clip-rule="evenodd" d="M34.8398 19.4985C32.6429 19.4985 30.9245 20.9256 29.9997 21.9115C29.0747 20.9256 27.3562 19.4985 25.16 19.4985C21.3954 19.4985 18.333 22.5005 18.333 26.1902C18.333 27.7081 18.876 29.2065 19.8633 30.4105C19.9258 30.4857 22.9161 33.8282 28.7506 40.3446C29.0707 40.7015 29.5294 40.9063 30.0081 40.9063H30.0092C30.4892 40.9063 30.9485 40.7001 31.2675 40.3428L40.1638 30.3766C41.133 29.1936 41.6668 27.7066 41.6668 26.1902C41.6668 22.5005 38.6047 19.4985 34.8398 19.4985" fill="#FBFDFF"/>
<path d="M34.8398 19.4985C32.6429 19.4985 30.9245 20.9256 29.9997 21.9115C29.0747 20.9256 27.3562 19.4985 25.16 19.4985C21.3954 19.4985 18.333 22.5005 18.333 26.1902C18.333 27.7081 18.876 29.2065 19.8633 30.4105C19.9258 30.4857 22.9161 33.8282 28.7506 40.3446C29.0707 40.7015 29.5294 40.9063 30.0081 40.9063H30.0092C30.4892 40.9063 30.9485 40.7001 31.2675 40.3428L40.1638 30.3766C41.133 29.1936 41.6668 27.7066 41.6668 26.1902C41.6668 22.5005 38.6047 19.4985 34.8398 19.4985" stroke="#FF696E" stroke-width="2" stroke-linejoin="round"/>
<path d="M30 58.5C14.2599 58.5 1.5 45.7401 1.5 30H-1.5C-1.5 47.397 12.603 61.5 30 61.5V58.5ZM58.5 30C58.5 45.7401 45.7401 58.5 30 58.5V61.5C47.397 61.5 61.5 47.397 61.5 30H58.5ZM30 1.5C45.7401 1.5 58.5 14.2599 58.5 30H61.5C61.5 12.603 47.397 -1.5 30 -1.5V1.5ZM30 -1.5C12.603 -1.5 -1.5 12.603 -1.5 30H1.5C1.5 14.2599 14.2599 1.5 30 1.5V-1.5Z" fill="#FF696E"/>
</svg>
