<svg width="60" height="60" viewBox="0 0 60 60" fill="none" xmlns="http://www.w3.org/2000/svg">
<path fill-rule="evenodd" clip-rule="evenodd" d="M34.8398 19.4985C32.6429 19.4985 30.9245 20.9256 29.9997 21.9115C29.0747 20.9256 27.3562 19.4985 25.16 19.4985C21.3954 19.4985 18.333 22.5005 18.333 26.1902C18.333 27.7081 18.876 29.2065 19.8633 30.4105C19.9258 30.4857 22.9161 33.8282 28.7506 40.3446C29.0707 40.7015 29.5294 40.9063 30.0081 40.9063H30.0092C30.4892 40.9063 30.9485 40.7001 31.2675 40.3428L40.1638 30.3766C41.133 29.1936 41.6668 27.7066 41.6668 26.1902C41.6668 22.5005 38.6047 19.4985 34.8398 19.4985" fill="#FBFDFF"/>
<path d="M34.8398 19.4985C32.6429 19.4985 30.9245 20.9256 29.9997 21.9115C29.0747 20.9256 27.3562 19.4985 25.16 19.4985C21.3954 19.4985 18.333 22.5005 18.333 26.1902C18.333 27.7081 18.876 29.2065 19.8633 30.4105C19.9258 30.4857 22.9161 33.8282 28.7506 40.3446C29.0707 40.7015 29.5294 40.9063 30.0081 40.9063H30.0092C30.4892 40.9063 30.9485 40.7001 31.2675 40.3428L40.1638 30.3766C41.133 29.1936 41.6668 27.7066 41.6668 26.1902C41.6668 22.5005 38.6047 19.4985 34.8398 19.4985" stroke="#FF696E" stroke-width="2" stroke-linejoin="round"/>
<path d="M30 57.5C14.8122 57.5 2.5 45.1878 2.5 30H-2.5C-2.5 47.9493 12.0507 62.5 30 62.5V57.5ZM57.5 30C57.5 45.1878 45.1878 57.5 30 57.5V62.5C47.9493 62.5 62.5 47.9493 62.5 30H57.5ZM30 2.5C45.1878 2.5 57.5 14.8122 57.5 30H62.5C62.5 12.0507 47.9493 -2.5 30 -2.5V2.5ZM30 -2.5C12.0507 -2.5 -2.5 12.0507 -2.5 30H2.5C2.5 14.8122 14.8122 2.5 30 2.5V-2.5Z" fill="#FF696E"/>
</svg>
