<svg width="24" height="24" viewBox="0 0 24 24" fill="none" xmlns="http://www.w3.org/2000/svg">
<path d="M6 12L6 22" stroke="#FF696E" stroke-width="2" stroke-linecap="round" stroke-linejoin="round"/>
<path d="M18 2L18 12" stroke="#FF696E" stroke-width="2" stroke-linecap="round" stroke-linejoin="round"/>
<path d="M6 2L6 5" stroke="#FF696E" stroke-width="2" stroke-linecap="round" stroke-linejoin="round"/>
<path d="M18 19L18 22" stroke="#FF696E" stroke-width="2" stroke-linecap="round" stroke-linejoin="round"/>
<path d="M3 9C3 8.20435 3.31607 7.44129 3.87868 6.87868C4.44129 6.31607 5.20435 6 6 6C6.79565 6 7.55871 6.31607 8.12132 6.87868C8.68393 7.44129 9 8.20435 9 9C9 9.79565 8.68393 10.5587 8.12132 11.1213C7.55871 11.6839 6.79565 12 6 12C5.20435 12 4.44129 11.6839 3.87868 11.1213C3.31607 10.5587 3 9.79565 3 9V9Z" stroke="#FF696E" stroke-width="2" stroke-linecap="round" stroke-linejoin="round"/>
<path d="M15 15C15 14.2044 15.3161 13.4413 15.8787 12.8787C16.4413 12.3161 17.2044 12 18 12C18.7956 12 19.5587 12.3161 20.1213 12.8787C20.6839 13.4413 21 14.2044 21 15C21 15.7956 20.6839 16.5587 20.1213 17.1213C19.5587 17.6839 18.7956 18 18 18C17.2044 18 16.4413 17.6839 15.8787 17.1213C15.3161 16.5587 15 15.7956 15 15V15Z" stroke="#FF696E" stroke-width="2" stroke-linecap="round" stroke-linejoin="round"/>
</svg>
