<svg width="24" height="24" viewBox="0 0 24 24" fill="none" xmlns="http://www.w3.org/2000/svg">
<path d="M6.00085 12L6.00085 22" stroke="#FAFCFF" stroke-width="2" stroke-linecap="round" stroke-linejoin="round"/>
<path d="M18.0009 2L18.0009 12" stroke="#FAFCFF" stroke-width="2" stroke-linecap="round" stroke-linejoin="round"/>
<path d="M6.00085 2L6.00085 5" stroke="#FAFCFF" stroke-width="2" stroke-linecap="round" stroke-linejoin="round"/>
<path d="M18.0009 19L18.0009 22" stroke="#FAFCFF" stroke-width="2" stroke-linecap="round" stroke-linejoin="round"/>
<path d="M3.00085 9C3.00085 8.20435 3.31693 7.44129 3.87953 6.87868C4.44214 6.31607 5.20521 6 6.00085 6C6.7965 6 7.55957 6.31607 8.12217 6.87868C8.68478 7.44129 9.00085 8.20435 9.00085 9C9.00085 9.79565 8.68478 10.5587 8.12217 11.1213C7.55957 11.6839 6.7965 12 6.00085 12C5.20521 12 4.44214 11.6839 3.87953 11.1213C3.31693 10.5587 3.00085 9.79565 3.00085 9V9Z" stroke="#FAFCFF" stroke-width="2" stroke-linecap="round" stroke-linejoin="round"/>
<path d="M15.0009 15C15.0009 14.2044 15.3169 13.4413 15.8795 12.8787C16.4421 12.3161 17.2052 12 18.0009 12C18.7965 12 19.5596 12.3161 20.1222 12.8787C20.6848 13.4413 21.0009 14.2044 21.0009 15C21.0009 15.7956 20.6848 16.5587 20.1222 17.1213C19.5596 17.6839 18.7965 18 18.0009 18C17.2052 18 16.4421 17.6839 15.8795 17.1213C15.3169 16.5587 15.0009 15.7956 15.0009 15V15Z" stroke="#FAFCFF" stroke-width="2" stroke-linecap="round" stroke-linejoin="round"/>
</svg>
