<svg xmlns="http://www.w3.org/2000/svg" width="384.047" height="621.18" viewBox="0 0 384.047 621.18">
  <g id="Gruppe_2049" data-name="Gruppe 2049" transform="translate(-357.215 -899.868)">
    <path id="Pfad_4129" data-name="Pfad 4129" d="M563.283,1295c-1.453,16.787,31.371,33.337,73.314,36.967s78.575-23.822,78.575-23.822-31.371-33.337-73.314-36.967S564.735,1278.218,563.283,1295Z" fill="#5d5cb0"/>
    <path id="Pfad_4130" data-name="Pfad 4130" d="M593.46,1220.723c1.6,16.335,35.98,26.34,76.794,22.348s71.008-36.805,71.008-36.805-35.98-26.34-76.794-22.348S591.863,1204.388,593.46,1220.723Z" fill="#5d5cb0"/>
    <path id="Pfad_4131" data-name="Pfad 4131" d="M608.6,1145.225c5.07,13.029,35.571,13.321,68.126.651s49.763-46.531,49.763-46.531-35.571-13.32-68.125-.651S603.527,1132.2,608.6,1145.225Z" fill="#5d5cb0"/>
    <path id="Pfad_4132" data-name="Pfad 4132" d="M615.61,1069.412c6.959,10.143,33.147,4.268,58.49-13.121s33.288-49.853,33.288-49.853-33.147-4.268-58.491,13.121S608.65,1059.268,615.61,1069.412Z" fill="#5d5cb0"/>
    <path id="Pfad_4133" data-name="Pfad 4133" d="M530.287,1341.753c-12.625,11.159-45.461-5.368-73.342-36.912s-27.624-77.321-27.624-77.321,45.461,5.368,73.342,36.912S542.912,1330.594,530.287,1341.753Z" fill="#5d5cb0"/>
    <path id="Pfad_4134" data-name="Pfad 4134" d="M498.724,1382.711c1.451-19.416,41.954-32.218,90.468-28.594s85.214,41.718,85.214,41.718-41.954,32.218-90.467,28.594S497.274,1402.127,498.724,1382.711Z" fill="#5d5cb0"/>
    <path id="Pfad_4135" data-name="Pfad 4135" d="M421.923,1458.868c4.367-22.155,52.783-31.273,108.143-20.364s92.331,59.87,92.331,59.87-52.783,31.273-108.142,20.364S417.557,1481.024,421.923,1458.868Z" fill="#5d5cb0"/>
    <path id="Pfad_4136" data-name="Pfad 4136" d="M455.824,1423.789c-16.205,10.793-51.2-13.282-78.17-53.772s-19.486-92.856-19.486-92.856,51.2,13.282,78.17,53.772S472.029,1413,455.824,1423.789Z" fill="#5d5cb0"/>
    <path id="Pfad_4137" data-name="Pfad 4137" d="M576.366,1260.674c-10.756,12.4-44.586.66-75.562-26.214s-36.61-71.109-36.61-71.109,44.586-.66,75.561,26.215S587.121,1248.277,576.366,1260.674Z" fill="#5d5cb0"/>
    <path id="Pfad_4138" data-name="Pfad 4138" d="M603.959,1187.266c-8.172,11.345-37.774,3.989-66.119-16.428s-36.527-57.509-36.527-57.509,37.774-3.989,66.119,16.428S612.13,1175.922,603.959,1187.266Z" fill="#5d5cb0"/>
    <path id="Pfad_4139" data-name="Pfad 4139" d="M610.554,1102.151c-6.622,10.366-32.988,5.357-58.891-11.19s-34.909-48.73-34.909-48.73,32.988-5.357,58.891,11.19S617.176,1091.784,610.554,1102.151Z" fill="#5d5cb0"/>
    <path id="Pfad_4140" data-name="Pfad 4140" d="M604.547,1005.137c11.635-1.8,17.422-26.822,12.927-55.892s-29.205-49.377-29.205-49.377-17.421,26.823-12.926,55.892S592.913,1006.936,604.547,1005.137Z" fill="#5d5cb0"/>
    <path id="Pfad_4141" data-name="Pfad 4141" d="M604.95,1037.174c6.589-9.756-7.831-31.011-32.207-47.474s-56.067-12.145-56.067-12.145,7.831,31.011,32.207,47.474S598.361,1046.929,604.95,1037.174Z" fill="#5d5cb0"/>
    <path id="Pfad_4142" data-name="Pfad 4142" d="M602.9,1003.174a411.842,411.842,0,0,1,3.518,158.994c-24.141,140.14-110.462,226.294-136.142,250.928a466.466,466.466,0,0,1-79.556,61.291" fill="none" stroke="#5d5cb0" stroke-linecap="round" stroke-linejoin="round" stroke-width="8"/>
  </g>
</svg>
