<svg xmlns="http://www.w3.org/2000/svg" width="500.432" height="358.718" viewBox="0 0 500.432 358.718">
  <g id="Gruppe_414" data-name="Gruppe 414" transform="translate(-480.431 -1241.282)">
    <path id="Pfad_2633" data-name="Pfad 2633" d="M701.422,1447.94c-12.087,8.294-5.086,39.5,15.639,69.7s59.412,39.667,59.412,39.667,5.085-39.5-15.642-69.706S713.509,1439.645,701.422,1447.94Z" fill="#9eadff"/>
    <path id="Pfad_2634" data-name="Pfad 2634" d="M768.027,1427.2c-10.1,10.1,2.163,38.736,27.388,63.971s63.96,27.41,63.96,27.41-2.163-38.738-27.387-63.973S778.126,1417.106,768.027,1427.2Z" fill="#9eadff"/>
    <path id="Pfad_2635" data-name="Pfad 2635" d="M827.143,1395.681c-5.958,10.606,10.693,31.273,37.187,46.16s58.767,7.754,58.767,7.754-10.691-31.269-37.189-46.157S833.1,1385.074,827.143,1395.681Z" fill="#9eadff"/>
    <path id="Pfad_2636" data-name="Pfad 2636" d="M881.984,1358.525c-2.976,10.281,15.436,24.641,41.127,32.074s51.9-5.153,51.9-5.153-15.442-24.642-41.13-32.076S884.958,1348.244,881.984,1358.525Z" fill="#9eadff"/>
    <path id="Pfad_2637" data-name="Pfad 2637" d="M651.769,1451.574c-14.475-2.324-21.5-33.526-15.691-69.691s36.726-61.274,36.726-61.274,21.5,33.527,15.692,69.692S666.245,1453.9,651.769,1451.574Z" fill="#9eadff"/>
    <path id="Pfad_2638" data-name="Pfad 2638" d="M606.8,1452.978c13.853-9.748,44.829,10.41,69.186,45.03s19.018,80.328,19.018,80.328-44.831-10.412-69.187-45.027S592.951,1462.726,606.8,1452.978Z" fill="#9eadff"/>
    <path id="Pfad_2639" data-name="Pfad 2639" d="M513.189,1443.408c17.307-9.3,50.177,18.213,73.417,61.454S597.351,1600,597.351,1600s-50.176-18.212-73.416-61.454S495.883,1452.709,513.189,1443.408Z" fill="#9eadff"/>
    <path id="Pfad_2640" data-name="Pfad 2640" d="M555.495,1446.824c-16.206-4.934-19.35-41.757-7.023-82.25s51.663-64.383,51.663-64.383,19.352,41.759,7.023,82.249S571.7,1451.757,555.495,1446.824Z" fill="#9eadff"/>
    <path id="Pfad_2641" data-name="Pfad 2641" d="M731.728,1437.775c-14.278-.386-25.069-29.609-24.109-65.277s27.585-63.885,27.585-63.885,25.069,29.609,24.109,65.276S746,1438.158,731.728,1437.775Z" fill="#9eadff"/>
    <path id="Pfad_2642" data-name="Pfad 2642" d="M796.317,1415.782c-12.139.772-23.544-23.191-25.472-53.524s18.489-56.318,18.489-56.318,23.544,23.191,25.472,53.524S808.459,1415.011,796.317,1415.782Z" fill="#9eadff"/>
    <path id="Pfad_2643" data-name="Pfad 2643" d="M857.181,1373.207c-10.627,1.274-21.821-19.218-25-45.771s13.48-50.381,13.48-50.381,21.82,19.219,25,45.77S867.808,1371.934,857.181,1373.207Z" fill="#9eadff"/>
    <path id="Pfad_2644" data-name="Pfad 2644" d="M919.084,1315.589c7.635,6.828,27.653-3.1,44.712-22.177s17.067-46.906,17.067-46.906-27.654,3.1-44.713,22.178S911.449,1308.761,919.084,1315.589Z" fill="#9eadff"/>
    <path id="Pfad_2645" data-name="Pfad 2645" d="M897.768,1333.553c10.2-.958,16.523-22.391,14.128-47.871s-22.8-44.4-22.8-44.4-16.522,22.392-14.128,47.871S887.57,1334.512,897.768,1333.553Z" fill="#9eadff"/>
    <path id="Pfad_2646" data-name="Pfad 2646" d="M919.494,1313.4a358.333,358.333,0,0,1-104.945,90.176c-107.547,61.169-213.143,50.719-243.883,47.061A405.869,405.869,0,0,1,485.522,1431" fill="none" stroke="#9eadff" stroke-linecap="round" stroke-linejoin="round" stroke-width="8"/>
  </g>
</svg>
