<svg width="28" height="28" viewBox="0 0 28 28" fill="none" xmlns="http://www.w3.org/2000/svg">
<path fill-rule="evenodd" clip-rule="evenodd" d="M18.8402 3.49848C16.6432 3.49848 14.9248 4.92559 14.0001 5.91146C13.0751 4.92559 11.3566 3.49848 9.16034 3.49848C5.39579 3.49848 2.33337 6.50048 2.33337 10.1902C2.33337 11.7081 2.87635 13.2065 3.86368 14.4105C3.92619 14.4857 6.91648 17.8282 12.751 24.3446C13.0711 24.7015 13.5298 24.9063 14.0085 24.9063H14.0095C14.4896 24.9063 14.9488 24.7001 15.2679 24.3428L24.1641 14.3766C25.1334 13.1936 25.6672 11.7066 25.6672 10.1902C25.6672 6.50048 22.605 3.49848 18.8402 3.49848" fill="#FAFCFF"/>
<path d="M18.8402 3.49848C16.6432 3.49848 14.9248 4.92559 14.0001 5.91146C13.0751 4.92559 11.3566 3.49848 9.16034 3.49848C5.39579 3.49848 2.33337 6.50048 2.33337 10.1902C2.33337 11.7081 2.87635 13.2065 3.86368 14.4105C3.92619 14.4857 6.91648 17.8282 12.751 24.3446C13.0711 24.7015 13.5298 24.9063 14.0085 24.9063H14.0095C14.4896 24.9063 14.9488 24.7001 15.2679 24.3428L24.1641 14.3766C25.1334 13.1936 25.6672 11.7066 25.6672 10.1902C25.6672 6.50048 22.605 3.49848 18.8402 3.49848" stroke="#FAFCFF" stroke-width="2" stroke-linejoin="round"/>
</svg>
