<svg width="32" height="32" viewBox="0 0 32 32" fill="none" xmlns="http://www.w3.org/2000/svg">
<path fill-rule="evenodd" clip-rule="evenodd" d="M1 11.1822C1 6.18347 5.14156 2.1521 10.1924 2.1521C12.7088 2.1521 14.7185 3.48388 16 4.64597C17.2814 3.48381 19.2911 2.1521 21.8082 2.1521C26.8594 2.1521 31.0006 6.1835 31.0006 11.1822C31.0006 13.235 30.2786 15.243 28.9704 16.8396C28.9615 16.8505 28.9523 16.8612 28.9429 16.8717L18.2674 28.8312L18.2673 28.8313C17.6951 29.4722 16.8728 29.8415 16.0114 29.8415H16.0101C15.1514 29.8415 14.3303 29.4748 13.7567 28.8351L13.7561 28.8345C6.77025 21.0321 3.15808 16.9948 3.06749 16.8859L3.06311 16.8806L3.06313 16.8806C1.73567 15.2619 1 13.2411 1 11.1822ZM10.1924 4.1521C6.20826 4.1521 3 7.32553 3 11.1822C3 12.7639 3.56581 14.3369 4.60499 15.6067C4.60593 15.6077 4.61448 15.6173 4.63246 15.6376C4.65855 15.667 4.70448 15.7188 4.77576 15.7988C4.89424 15.9318 5.06753 16.126 5.29562 16.3814C5.75171 16.892 6.42587 17.646 7.31665 18.6417C9.09806 20.6329 11.7452 23.5903 15.2456 27.4998C15.4402 27.7167 15.72 27.8415 16.0101 27.8415H16.0114C16.3021 27.8415 16.5819 27.7159 16.7754 27.4994C16.7754 27.4993 16.7754 27.4993 16.7755 27.4992L27.4364 15.5562C28.4461 14.3164 29.0006 12.7619 29.0006 11.1822C29.0006 7.32551 25.7926 4.1521 21.8082 4.1521C19.599 4.1521 17.7868 5.60448 16.7294 6.7318C16.5404 6.93332 16.2764 7.04765 16.0001 7.04767C15.7238 7.04769 15.4599 6.9334 15.2708 6.73191C14.2129 5.60442 12.4006 4.1521 10.1924 4.1521Z" fill="#FF696E"/>
</svg>
