<svg width="30" height="28" viewBox="0 0 30 28" fill="none" xmlns="http://www.w3.org/2000/svg">
<path fill-rule="evenodd" clip-rule="evenodd" d="M20.8082 1.15247C18.1718 1.15247 16.1097 2.865 15.0001 4.04804C13.89 2.865 11.8278 1.15247 9.19236 1.15247C4.6749 1.15247 0.999991 4.75487 0.999991 9.18256C0.999991 11.0041 1.65157 12.8021 2.83637 14.2469C2.91138 14.3371 6.49973 18.3481 13.5011 26.1678C13.8852 26.5961 14.4357 26.8418 15.0101 26.8418H15.0114C15.5875 26.8418 16.1385 26.5944 16.5214 26.1657L27.1969 14.2062C28.36 12.7867 29.0006 11.0022 29.0006 9.18256C29.0006 4.75487 25.326 1.15247 20.8082 1.15247" fill="white"/>
<path d="M20.8082 1.15247C18.1718 1.15247 16.1097 2.865 15.0001 4.04804C13.89 2.865 11.8278 1.15247 9.19236 1.15247C4.6749 1.15247 0.999991 4.75487 0.999991 9.18256C0.999991 11.0041 1.65157 12.8021 2.83637 14.2469C2.91138 14.3371 6.49973 18.3481 13.5011 26.1678C13.8852 26.5961 14.4357 26.8418 15.0101 26.8418H15.0114C15.5875 26.8418 16.1385 26.5944 16.5214 26.1657L27.1969 14.2062C28.36 12.7867 29.0006 11.0022 29.0006 9.18256C29.0006 4.75487 25.326 1.15247 20.8082 1.15247" stroke="#FF696E" stroke-width="2" stroke-linejoin="round"/>
</svg>
