<svg width="24" height="24" viewBox="0 0 24 24" fill="none" xmlns="http://www.w3.org/2000/svg">
<path fill-rule="evenodd" clip-rule="evenodd" d="M16.1487 2.99872C14.2656 2.99872 12.7927 4.22196 12 5.06699C11.2072 4.22196 9.73417 2.99872 7.8517 2.99872C4.62494 2.99872 2 5.57186 2 8.7345C2 10.0356 2.46541 11.3199 3.3117 12.3519C3.36528 12.4163 5.92838 15.2813 10.9294 20.8668C11.2037 21.1728 11.597 21.3483 12.0072 21.3483C12.4187 21.3483 12.8132 21.1715 13.0867 20.8653L20.7121 12.3228C21.5428 11.3089 22.0004 10.0343 22.0004 8.7345C22.0004 5.57186 19.3757 2.99872 16.1487 2.99872Z" stroke="#FF696E" stroke-width="2" stroke-linejoin="round"/>
</svg>
