<svg id="Gruppe_1980" data-name="Gruppe 1980" xmlns="http://www.w3.org/2000/svg" xmlns:xlink="http://www.w3.org/1999/xlink" width="30" height="27.527" viewBox="0 0 30 27.527">
  <defs>
    <clipPath id="clip-path">
      <path id="Pfad_487" data-name="Pfad 487" d="M1692.176,1038.331a7.791,7.791,0,0,1-12.445,0,8.7,8.7,0,0,0-8.777,8.6,8.6,8.6,0,0,0,1.968,5.427c.08.1,3.925,4.395,11.426,12.774a2.176,2.176,0,0,0,1.617.722h0a2.173,2.173,0,0,0,1.618-.724l11.438-12.815a8.522,8.522,0,0,0,1.933-5.383,8.7,8.7,0,0,0-8.778-8.6" transform="translate(-1670.954 -1038.331)" fill="#fff" clip-rule="evenodd"/>
    </clipPath>
    <clipPath id="clip-path-2">
      <rect id="Rechteck_103" data-name="Rechteck 103" width="41.291" height="41.291" fill="#fff"/>
    </clipPath>
  </defs>
  <g id="Gruppe_1551" data-name="Gruppe 1551" clip-path="url(#clip-path)">
    <g id="Gruppe_1550" data-name="Gruppe 1550" transform="translate(-5.161 -6.882)">
      <g id="Gruppe_1549" data-name="Gruppe 1549" clip-path="url(#clip-path-2)">
        <rect id="Rechteck_102" data-name="Rechteck 102" width="47.204" height="44.732" transform="translate(-3.441 -1.72)" fill="#fff"/>
      </g>
    </g>
  </g>
</svg>
