<svg width="24" height="24" viewBox="0 0 24 24" fill="none" xmlns="http://www.w3.org/2000/svg">
<path fill-rule="evenodd" clip-rule="evenodd" d="M16.1487 2.9987C14.2656 2.9987 12.7927 4.22193 12 5.06696C11.2072 4.22193 9.73417 2.9987 7.85169 2.9987C4.62493 2.9987 1.99999 5.57184 1.99999 8.73447C1.99999 10.0355 2.46541 11.3199 3.31169 12.3518C3.36527 12.4163 5.92838 15.2813 10.9294 20.8668C11.2037 21.1727 11.5969 21.3482 12.0072 21.3482H12.0081C12.4196 21.3482 12.8132 21.1715 13.0867 20.8653L20.7121 12.3228C21.5428 11.3088 22.0004 10.0342 22.0004 8.73447C22.0004 5.57184 19.3757 2.9987 16.1487 2.9987" fill="#FF696E"/>
<path d="M16.1487 2.9987C14.2656 2.9987 12.7927 4.22193 12 5.06696C11.2072 4.22193 9.73417 2.9987 7.85169 2.9987C4.62493 2.9987 1.99999 5.57184 1.99999 8.73447C1.99999 10.0355 2.46541 11.3199 3.31169 12.3518C3.36527 12.4163 5.92838 15.2813 10.9294 20.8668C11.2037 21.1727 11.5969 21.3482 12.0072 21.3482H12.0081C12.4196 21.3482 12.8132 21.1715 13.0867 20.8653L20.7121 12.3228C21.5428 11.3088 22.0004 10.0342 22.0004 8.73447C22.0004 5.57184 19.3757 2.9987 16.1487 2.9987" stroke="#FF696E" stroke-width="2" stroke-linejoin="round"/>
</svg>
