<svg xmlns="http://www.w3.org/2000/svg" xmlns:xlink="http://www.w3.org/1999/xlink" width="2281.854" height="1391.48" viewBox="0 0 2281.854 1391.48">
  <defs>
    <clipPath id="clip-path">
      <path id="Pfad_484" data-name="Pfad 484" d="M-168.519,1055.694q4.473-.179,8.947-.42C-53.859,1049.552,17,1009.5,99.111,946.2c143.664-110.745,265.644-154.444,434.16-54.553,235.256,139.453,477.064-28.226,523.376-192.989,39.128-174.738-5.147-314.922,83.941-415.356,82.878-93.434,198.373-59.9,263.6-169.921,89.071-161.52-21.628-381.663-21.628-381.663H-480.131a.138.138,0,0,0-.059,0C-649.825-225.238-779.346,40.2-818.055,185.686-901.262,498.414-773.978,855.6-471.127,994.9-376.718,1038.328-272.412,1059.839-168.519,1055.694Z" transform="translate(477.439 219.754)" fill="#f6f9ff"/>
    </clipPath>
    <clipPath id="clip-path-2">
      <rect id="Rechteck_524" data-name="Rechteck 524" width="1723.752" height="851.662" fill="none"/>
    </clipPath>
    <clipPath id="clip-path-3">
      <rect id="Rechteck_526" data-name="Rechteck 526" width="1540.973" height="851.662" fill="none"/>
    </clipPath>
    <linearGradient id="linear-gradient" x1="-0.418" y1="2.039" x2="0.617" y2="2.039" gradientUnits="objectBoundingBox">
      <stop offset="0" stop-color="#ff92aa"/>
      <stop offset="0.312" stop-color="#ff96ae"/>
      <stop offset="0.674" stop-color="#ffa4ba"/>
      <stop offset="1" stop-color="#ffb8cb"/>
    </linearGradient>
    <linearGradient id="linear-gradient-2" x1="0.436" y1="0.089" x2="0.913" y2="0.54" gradientUnits="objectBoundingBox">
      <stop offset="0" stop-color="#034bcb"/>
      <stop offset="0.312" stop-color="#095bce"/>
      <stop offset="0.674" stop-color="#0a7fe4"/>
      <stop offset="1" stop-color="#0f83e6"/>
    </linearGradient>
    <linearGradient id="linear-gradient-3" x1="0.468" y1="0.032" x2="0.908" y2="0.623" gradientUnits="objectBoundingBox">
      <stop offset="0" stop-color="#8695eb"/>
      <stop offset="1" stop-color="#9eadff"/>
    </linearGradient>
    <filter id="Pfad_2647" x="1270.483" y="564.012" width="138.273" height="138.397" filterUnits="userSpaceOnUse">
      <feOffset dx="8" dy="8" input="SourceAlpha"/>
      <feGaussianBlur stdDeviation="20" result="blur"/>
      <feFlood flood-color="#6c63ff" flood-opacity="0.078"/>
      <feComposite operator="in" in2="blur"/>
      <feComposite in="SourceGraphic"/>
    </filter>
    <filter id="Pfad_2648" x="1253.459" y="566.102" width="156.707" height="165.283" filterUnits="userSpaceOnUse">
      <feOffset dx="8" dy="8" input="SourceAlpha"/>
      <feGaussianBlur stdDeviation="20" result="blur-2"/>
      <feFlood flood-color="#6c63ff" flood-opacity="0.102"/>
      <feComposite operator="in" in2="blur-2"/>
      <feComposite in="SourceGraphic"/>
    </filter>
    <linearGradient id="linear-gradient-4" x1="0.5" y1="0" x2="0.5" y2="1" xlink:href="#linear-gradient-3"/>
    <filter id="Pfad_2649" x="1244.106" y="571.404" width="166.934" height="149.044" filterUnits="userSpaceOnUse">
      <feOffset dx="8" dy="8" input="SourceAlpha"/>
      <feGaussianBlur stdDeviation="20" result="blur-3"/>
      <feFlood flood-color="#6c63ff" flood-opacity="0.078"/>
      <feComposite operator="in" in2="blur-3"/>
      <feComposite in="SourceGraphic"/>
    </filter>
    <linearGradient id="linear-gradient-5" x1="0.468" y1="0.032" x2="0.908" y2="0.623" gradientUnits="objectBoundingBox">
      <stop offset="0" stop-color="#3bb5ac"/>
      <stop offset="1" stop-color="#48c3b9"/>
    </linearGradient>
  </defs>
  <g id="Gruppe_2068" data-name="Gruppe 2068" transform="translate(365.561 0.004)">
    <g id="Gruppe_maskieren_5" data-name="Gruppe maskieren 5" transform="translate(0 48.524)" clip-path="url(#clip-path)">
      <g id="Gruppe_1985" data-name="Gruppe 1985" transform="translate(234.231 -52.899)">
        <path id="Pfad_4415" data-name="Pfad 4415" d="M0,0,377-48.524h1921.29l9.542,1330.011H0Z" transform="translate(-611.231 52.899)" fill="#fafaff"/>
        <g id="Gruppe_826" data-name="Gruppe 826" transform="translate(133.749 -4.719)">
          <g id="Gruppe_1986" data-name="Gruppe 1986" transform="translate(0)">
            <g id="Gruppe_1997" data-name="Gruppe 1997" transform="translate(490.164 412.277)">
              <path id="Pfad_3865" data-name="Pfad 3865" d="M2990.322,1752.838l21.026-420.955c-30.342-23.05-79.061-43.8-96.517-48.252-54.344-13.869-105.19-2.327-141.931,6.342-10.162,2.4-18.369,4.657-25.947,6.844-133.064,38.4-137.467,121.678-209.249,146.109-24.726,7.839-104.164,4.8-129.533,21.839-60.4,40.574-50.821,76.251-83.279,107.914-41.421,40.408-250.029,27.35-248.182,53.5,6.386,90.407,115.032,110.554,133.685,126.662q171.643.372,343.251.417,218.323.056,436.675-.417" transform="translate(-2076.699 -1237.185)" fill="#e3eaff"/>
              <path id="Pfad_3866" data-name="Pfad 3866" d="M4427.094,1298.644l.613.094c6.117.945,25.264,3.9,27.826,8.933,1,1.955-.8,3.661-1.876,4.646-11.437,10.486-49.525,7.558-75.316,18.585-5.722,2.446-7.945,4.9-8,7.287-.356,14.456,92.054,28.55,181.024,39.066-.232,8.164-.25,16.653,0,25.441q.149,5.294.417,10.427a457.427,457.427,0,0,1-144.889-20.684,449.609,449.609,0,0,1-55.561-21.58s-26.2-12.751-26.427-25.886c-.062-3.519-.181-10.234,9.688-16.328,12.617-7.79,35.521-10.838,62.814-14.469,16.862-2.244,32.025-2.606,33.126-5.575.686-1.848-4.3-3.79-7.188-4.912-5.415-2.107-11.208-2.931-19.375-3.85-7.741-.871-17.979-1.869-30.313-2.655a233.151,233.151,0,0,1,53.439,1.46" transform="translate(-3637.739 -1252.731)" fill="#fff"/>
            </g>
            <path id="Pfad_3870" data-name="Pfad 3870" d="M4498.207,2249.766c-1.785,2.81,2.46,8.7,9.483,13.162s15.945,2.986,15.945,2.986-2.461-8.7-9.482-13.163-14.162-5.8-15.946-2.985" transform="translate(-3376.41 -1443.836)" fill="#9898ea"/>
            <path id="Pfad_3871" data-name="Pfad 3871" d="M4540.193,2212.585c-1.208,3.009,3.907,7.9,11.426,10.917s15.8.02,15.8.02-3.906-7.9-11.425-10.917-14.595-3.028-15.8-.02" transform="translate(-3406.336 -1416.927)" fill="#9898ea"/>
            <path id="Pfad_3872" data-name="Pfad 3872" d="M4573.343,2168.087c-.3,2.746,5.022,5.577,11.883,6.323s12.965-3.622,12.965-3.622-5.021-5.577-11.883-6.323-12.666.875-12.964,3.622" transform="translate(-3429.952 -1384.283)" fill="#9898ea"/>
            <path id="Pfad_3873" data-name="Pfad 3873" d="M4601.295,2119.766c.3,2.412,5.422,3.77,11.45,3.031s10.379-5.706,10.379-5.706-5.422-3.769-11.451-3.031-10.674,3.294-10.378,5.706" transform="translate(-3449.765 -1348.613)" fill="#9898ea"/>
            <path id="Pfad_3874" data-name="Pfad 3874" d="M4440.253,2200c-3.23.805-7.48-5.084-9.495-13.156s2.2-16.072,2.2-16.072,7.48,5.085,9.495,13.156,1.026,15.267-2.2,16.073" transform="translate(-3328.501 -1388.883)" fill="#9898ea"/>
            <path id="Pfad_3875" data-name="Pfad 3875" d="M4431.774,2281.686c2.023-3.272,10.291-1.824,18.465,3.232s11.136,15.08,11.136,15.08-10.292,1.824-18.465-3.232-13.16-11.809-11.136-15.08" transform="translate(-3329.288 -1466.264)" fill="#9898ea"/>
            <path id="Pfad_3876" data-name="Pfad 3876" d="M4360.86,2304.121c2.784-3.486,12.1-.672,20.814,6.286s10.729,18.91,10.729,18.91-12.1.672-20.813-6.286-13.514-15.424-10.729-18.91" transform="translate(-3278.778 -1482.348)" fill="#9898ea"/>
            <path id="Pfad_3877" data-name="Pfad 3877" d="M4372.454,2213c-3.824.415-7.765-6.995-8.8-16.551s5.046-18.055,5.046-18.055,7.766,7,8.8,16.551-1.221,17.638-5.046,18.055" transform="translate(-3281.234 -1394.285)" fill="#9898ea"/>
            <path id="Pfad_3878" data-name="Pfad 3878" d="M4488.2,2170.34c-3.016,1.193-7.875-3.947-10.857-11.482s.063-15.8.063-15.8,7.875,3.947,10.856,11.482,2.953,14.609-.062,15.8" transform="translate(-3360.982 -1369.235)" fill="#9898ea"/>
            <path id="Pfad_3879" data-name="Pfad 3879" d="M4528.546,2146.87c-2.467,1.244-6.986-2.743-10.094-8.906s-1.163-13.411-1.163-13.411,6.986,2.743,10.095,8.907,3.628,12.167,1.162,13.411" transform="translate(-3389.799 -1356.119)" fill="#9898ea"/>
            <path id="Pfad_3880" data-name="Pfad 3880" d="M4560.56,2105.632c-2.106,1.214-6.27-2.067-9.3-7.329s-1.679-11.724-1.679-11.724,6.27,2.067,9.3,7.329,3.784,10.511,1.679,11.724" transform="translate(-3412.9 -1329.201)" fill="#9898ea"/>
            <path id="Pfad_3881" data-name="Pfad 3881" d="M4610.277,2043.183c2.2.745,5.5-3.116,7.36-8.62s-.62-11.318-.62-11.318-5.5,3.116-7.36,8.62-1.583,10.573.621,11.318" transform="translate(-3454.828 -1284.306)" fill="#9898ea"/>
            <path id="Pfad_3882" data-name="Pfad 3882" d="M4579.628,2066.1c2.044-1.109,1.454-6.15-1.318-11.259s-8.721-7.24-8.721-7.24-1.454,6.15,1.318,11.258,6.677,8.35,8.721,7.24" transform="translate(-3427.029 -1301.574)" fill="#9898ea"/>
            <path id="Pfad_3883" data-name="Pfad 3883" d="M4419.28,2090.03a81.375,81.375,0,0,1-13.874,28.193c-17,22.365-39.989,29.6-46.736,31.58a92.125,92.125,0,0,1-19.532,3.494" transform="translate(-3263.942 -1331.647)" fill="none" stroke="#9898ea" stroke-miterlimit="10" stroke-width="8.868"/>
            <rect id="Rechteck_519" data-name="Rechteck 519" width="30.416" height="30.416" transform="translate(1051.436 798.855)" fill="#e1e6ff"/>
            <g id="Gruppe_2007" data-name="Gruppe 2007" transform="translate(406.975 472.152)">
              <path id="Pfad_3868" data-name="Pfad 3868" d="M3609.543,1958.953c-50.786-111.654-94.173-138.5-123.758-143.188-40.922-6.485-56.514,29.254-110.4,31.09-53.53,1.824-61.514-41.886-128.722-56.862-44.726-9.966-125.229.58-157.934,12.515-69.849,25.49-160.235,87.476-147.308,161.828,194.844-2,473.28-3.381,668.124-5.382" transform="translate(-2940.174 -1634.96)" fill="#e3eaff"/>
              <g id="Gruppe_2006" data-name="Gruppe 2006" transform="translate(274.852 51.238)">
                <rect id="Rechteck_492" data-name="Rechteck 492" width="34.488" height="192.286" transform="translate(0.013 49.225)" fill="#9898ea"/>
                <rect id="Rechteck_493" data-name="Rechteck 493" width="309.745" height="192.172" transform="translate(21.647 49.339)" fill="#fff"/>
                <path id="Pfad_3898" data-name="Pfad 3898" d="M3630.284,1663.994H3298.993v-17.167a11.909,11.909,0,0,1,11.909-11.909h305.567a13.814,13.814,0,0,1,13.814,13.814Z" transform="translate(-3298.993 -1614.757)" fill="#fff2cc"/>
                <path id="Pfad_3899" data-name="Pfad 3899" d="M3320.75,1664.333h-21.756v-18.349a10.878,10.878,0,1,1,21.756,0Z" transform="translate(-3298.993 -1614.888)" fill="#5d5cb0"/>
                <rect id="Rechteck_494" data-name="Rechteck 494" width="30.932" height="30.931" transform="translate(117.58 75.236)" fill="#e1e6ff"/>
                <rect id="Rechteck_495" data-name="Rechteck 495" width="30.932" height="30.931" transform="translate(159.135 75.236)" fill="#e1e6ff"/>
                <rect id="Rechteck_496" data-name="Rechteck 496" width="30.932" height="30.931" transform="translate(200.69 75.236)" fill="#e1e6ff"/>
                <rect id="Rechteck_497" data-name="Rechteck 497" width="30.932" height="30.931" transform="translate(242.246 75.236)" fill="#e1e6ff"/>
                <rect id="Rechteck_498" data-name="Rechteck 498" width="30.932" height="30.931" transform="translate(283.801 75.236)" fill="#fc6681"/>
                <rect id="Rechteck_499" data-name="Rechteck 499" width="30.932" height="30.931" transform="translate(34.468 114.091)" fill="#e1e6ff"/>
                <rect id="Rechteck_500" data-name="Rechteck 500" width="30.932" height="30.931" transform="translate(76.024 114.091)" fill="#e1e6ff"/>
                <rect id="Rechteck_501" data-name="Rechteck 501" width="30.932" height="30.931" transform="translate(117.58 114.091)" fill="#e1e6ff"/>
                <rect id="Rechteck_502" data-name="Rechteck 502" width="30.932" height="30.931" transform="translate(159.135 114.091)" fill="#e1e6ff"/>
                <rect id="Rechteck_503" data-name="Rechteck 503" width="30.932" height="30.931" transform="translate(200.69 114.091)" fill="#fc6681"/>
                <rect id="Rechteck_504" data-name="Rechteck 504" width="30.932" height="30.931" transform="translate(242.246 114.091)" fill="#e1e6ff"/>
                <rect id="Rechteck_505" data-name="Rechteck 505" width="30.932" height="30.931" transform="translate(283.801 114.091)" fill="#e1e6ff"/>
                <rect id="Rechteck_506" data-name="Rechteck 506" width="30.932" height="30.932" transform="translate(34.468 154.071)" fill="#e1e6ff"/>
                <rect id="Rechteck_507" data-name="Rechteck 507" width="30.932" height="30.932" transform="translate(76.024 154.071)" fill="#e1e6ff"/>
                <rect id="Rechteck_508" data-name="Rechteck 508" width="30.932" height="30.932" transform="translate(117.58 154.071)" fill="#fc6681"/>
                <rect id="Rechteck_509" data-name="Rechteck 509" width="30.932" height="30.932" transform="translate(159.135 154.071)" fill="#e1e6ff"/>
                <rect id="Rechteck_511" data-name="Rechteck 511" width="72.376" height="73.438" transform="translate(200.802 154.071)" fill="#e1e6ff"/>
                <rect id="Rechteck_512" data-name="Rechteck 512" width="30.932" height="30.932" transform="translate(283.801 154.071)" fill="#e1e6ff"/>
                <rect id="Rechteck_513" data-name="Rechteck 513" width="30.932" height="30.932" transform="translate(34.468 196.07)" fill="#e1e6ff"/>
                <rect id="Rechteck_514" data-name="Rechteck 514" width="30.932" height="30.932" transform="translate(76.024 196.07)" fill="#e1e6ff"/>
                <rect id="Rechteck_515" data-name="Rechteck 515" width="30.932" height="30.932" transform="translate(117.58 196.07)" fill="#e1e6ff"/>
                <rect id="Rechteck_516" data-name="Rechteck 516" width="30.932" height="30.932" transform="translate(159.135 196.07)" fill="#e1e6ff"/>
                <path id="Pfad_3900" data-name="Pfad 3900" d="M3432.888,1662.326a8.683,8.683,0,1,1-8.683-8.683,8.683,8.683,0,0,1,8.683,8.683" transform="translate(-3381.02 -1627.937)" fill="#5d5cb0"/>
                <path id="Pfad_3901" data-name="Pfad 3901" d="M3893.153,1663.882a8.683,8.683,0,1,1-8.683-8.683,8.683,8.683,0,0,1,8.683,8.683" transform="translate(-3705.01 -1629.033)" fill="#5d5cb0"/>
                <path id="Pfad_3902" data-name="Pfad 3902" d="M4139.65,1663.883a8.684,8.684,0,1,1-8.684-8.683,8.684,8.684,0,0,1,8.684,8.683" transform="translate(-3878.524 -1629.033)" fill="#5d5cb0"/>
                <path id="Pfad_3903" data-name="Pfad 3903" d="M3664.475,1663.883a8.683,8.683,0,1,1-8.683-8.683,8.683,8.683,0,0,1,8.683,8.683" transform="translate(-3544.038 -1629.033)" fill="#5d5cb0"/>
                <path id="Pfad_3904" data-name="Pfad 3904" d="M4351.255,1665.367a8.683,8.683,0,1,1-8.683-8.683,8.683,8.683,0,0,1,8.683,8.683" transform="translate(-4027.478 -1630.078)" fill="#5d5cb0"/>
                <path id="Pfad_3905" data-name="Pfad 3905" d="M3430.867,1603.3h-2.66a5.278,5.278,0,0,1-5.263-5.263v-25.954a5.278,5.278,0,0,1,5.263-5.263h2.66a5.278,5.278,0,0,1,5.263,5.263v25.954a5.278,5.278,0,0,1-5.263,5.263" transform="translate(-3386.245 -1566.822)" fill="#9898ea"/>
                <path id="Pfad_3906" data-name="Pfad 3906" d="M3662.439,1603.3h-2.66a5.278,5.278,0,0,1-5.263-5.263v-25.954a5.278,5.278,0,0,1,5.263-5.263h2.66a5.278,5.278,0,0,1,5.263,5.263v25.954a5.278,5.278,0,0,1-5.263,5.263" transform="translate(-3549.253 -1566.822)" fill="#9898ea"/>
                <path id="Pfad_3907" data-name="Pfad 3907" d="M3891.042,1603.3h-2.659a5.278,5.278,0,0,1-5.263-5.263v-25.954a5.278,5.278,0,0,1,5.263-5.263h2.659a5.278,5.278,0,0,1,5.263,5.263v25.954a5.278,5.278,0,0,1-5.263,5.263" transform="translate(-3710.172 -1566.822)" fill="#9898ea"/>
                <path id="Pfad_3908" data-name="Pfad 3908" d="M4137.458,1603.3h-2.66a5.278,5.278,0,0,1-5.263-5.263v-25.954a5.278,5.278,0,0,1,5.263-5.263h2.66a5.278,5.278,0,0,1,5.263,5.263v25.954a5.278,5.278,0,0,1-5.263,5.263" transform="translate(-3883.629 -1566.822)" fill="#9898ea"/>
                <path id="Pfad_3909" data-name="Pfad 3909" d="M4348.991,1603.3h-2.66a5.279,5.279,0,0,1-5.263-5.263v-25.954a5.278,5.278,0,0,1,5.263-5.263h2.66a5.277,5.277,0,0,1,5.262,5.263v25.954a5.278,5.278,0,0,1-5.262,5.263" transform="translate(-4032.531 -1566.822)" fill="#9898ea"/>
                <rect id="Rechteck_520" data-name="Rechteck 520" width="309.636" height="16.921" transform="translate(21.756 49.225)" fill="#fc6681"/>
              </g>
              <path id="Pfad_3910" data-name="Pfad 3910" d="M3288.1,1443.348l3.139,5.74,5.74,3.14a1.262,1.262,0,0,1,0,2.215l-5.74,3.14-3.139,5.74a1.262,1.262,0,0,1-2.215,0l-3.14-5.74-5.74-3.14a1.262,1.262,0,0,1,0-2.215l5.74-3.14,3.14-5.74a1.262,1.262,0,0,1,2.215,0" transform="translate(-3001.495 -1442.692)" fill="#e1e6ff"/>
              <path id="Pfad_3911" data-name="Pfad 3911" d="M3211.78,1736.325l2.183,3.992,3.993,2.184a.878.878,0,0,1,0,1.54l-3.993,2.183-2.183,3.993a.878.878,0,0,1-1.54,0l-2.183-3.993-3.992-2.183a.877.877,0,0,1,0-1.54l3.992-2.184,2.183-3.992a.878.878,0,0,1,1.54,0" transform="translate(-2975.437 -1650.513)" fill="#fff2cc"/>
            </g>
            <path id="Pfad_3912" data-name="Pfad 3912" d="M4624.966,1898.129l2.184,3.992,3.992,2.183a.878.878,0,0,1,0,1.541l-3.992,2.183-2.184,3.992a.878.878,0,0,1-1.54,0l-2.184-3.992-3.992-2.183a.878.878,0,0,1,0-1.541l3.992-2.183,2.184-3.992a.878.878,0,0,1,1.54,0" transform="translate(-3460.76 -1195.292)" fill="#9eadff"/>
            <path id="Pfad_3913" data-name="Pfad 3913" d="M4501.174,1675.324l3.139,5.74,5.74,3.14a1.262,1.262,0,0,1,0,2.215l-5.74,3.14-3.139,5.74a1.262,1.262,0,0,1-2.215,0l-3.14-5.74-5.74-3.14a1.262,1.262,0,0,1,0-2.215l5.74-3.14,3.14-5.74a1.262,1.262,0,0,1,2.215,0" transform="translate(-3370.472 -1037.213)" fill="#f3f6ff"/>
            <path id="Pfad_3917" data-name="Pfad 3917" d="M3838.592,2910.808q-1.5,1.251-2.969,2.484" transform="translate(-2907.019 -1913.465)" fill="#9eadff"/>
            <g id="Gruppe_1998" data-name="Gruppe 1998" transform="translate(508.304 546.959)">
              <path id="Pfad_3916" data-name="Pfad 3916" d="M3276.927,2145.733h-749.9V1991.785a229.725,229.725,0,0,1,36.108-73.173c14.472-19.705,49.815-66.4,121.7-94.08,36.038-13.879,65.327-17.465,88.265-19.861,41.045-4.289,53.381.126,85.957,1.8,16.8.864,28.972.643,42.724.291,55.277-1.415,87.078-2.229,118.122-19.861,14.819-8.417,23.389-17.146,33.451-27.178,57.094-56.93,86.776-73.794,132.685-99.348,28.079-15.629,78.47-26.006,104.429-31.6Z" transform="translate(-2527.031 -1608.387)" fill="#b3c2ff"/>
              <path id="Pfad_3933" data-name="Pfad 3933" d="M2883.446,2290.657l-1.033.157c-10.289,1.59-42.493,6.566-46.8,15.026-1.675,3.289,1.347,6.158,3.155,7.815,19.238,17.638,83.3,12.712,126.683,31.26,9.7,4.146,13.352,8.483,13.463,12.258.8,27.354-201.429,54.946-380.251,74.585a457.446,457.446,0,0,0,249.41,36.7c23.388-6.1,107.3-28.557,162.816-56.335,0,0,44.062-21.448,44.451-43.542.1-5.918.3-17.214-16.3-27.464-21.221-13.1-59.748-18.23-105.657-24.339-28.362-3.773-53.867-4.384-55.72-9.378-1.153-3.109,7.237-6.374,12.091-8.261,9.108-3.544,18.853-4.93,32.59-6.476,13.022-1.465,30.061-4.427,50.808-5.749-18.282-1.541-52.069-1.964-89.706,3.74" transform="translate(-2577.805 -2089.234)" fill="#fff"/>
            </g>
            <g id="Gruppe_1987" data-name="Gruppe 1987">
              <path id="Pfad_3931" data-name="Pfad 3931" d="M-709.677,2446.86c12.993-7.917,109.038-151.553,257.385-213.321s211.035,13.58,337.1-27.291,127.945-102.3,206.219-136.889c124.049-54.813,241.219-44.208,389.312,4.655,33.677,11.112,68.529,29.948,138.234,67.619,99.389,53.714,132.623,82.807,189.947,114.952,56.773,31.836,184.952,79.354,306.66,98.89v321.074H0S-292,2776.2-443.743,2709.1-709.677,2446.86-709.677,2446.86Z" transform="translate(0 -1335.601)" fill="#d7e0ff"/>
              <path id="Pfad_3932" data-name="Pfad 3932" d="M1184.132,2534.129c-125.13-6.921-228.235-9.243-398.619-50.094-123.529-29.617-243.979-61.988-293.861-85.176-18.737-8.71-17.857-15.273-17.924-20.486-.054-4.208,6.035-11.086,17.924-16.169,52.251-22.341,129.417-16.408,152.589-37.653,2.177-2,5.817-5.452,3.8-9.413-5.191-10.19-43.981-16.184-56.373-18.1l-1.244-.189c-45.333-6.87-86.248-4.815-108.268-2.959,24.99,1.593,45.731,3.615,61.416,5.379,16.546,1.862,28.284,3.531,39.255,7.8,5.846,2.274,15.952,6.207,14.563,9.951-2.231,6.015-32.952,6.75-67.114,11.3-55.3,7.358-101.7,13.532-127.263,29.316-20,12.346-19.754,25.952-19.628,33.081.5,28.441,42.085,47.513,53.541,52.445,5.556,2.078,159.016,83.952,345.818,147.193s401.389,105.772,401.389,105.772" transform="translate(-240.785 -1531.118)" fill="#fbfdff"/>
              <rect id="Rechteck_521" data-name="Rechteck 521" width="1837.183" height="1015.371" fill="none"/>
              <g id="Gruppe_3523" data-name="Gruppe 3523" transform="translate(-831.613 6161.153)">
                <g id="Gruppe_3520" data-name="Gruppe 3520" transform="translate(1102.363 -5325.482)">
                  <g id="Gruppe_3190" data-name="Gruppe 3190" transform="translate(57.101 82.827)">
                    <path id="Pfad_6399" data-name="Pfad 6399" d="M1111.284,1202.3s2.15,22.832-1.966,23.283c-4.074.447-9.027-16.759-10.25-21.159C1100.015,1203.842,1111.284,1202.3,1111.284,1202.3Z" transform="translate(-1099.067 -1202.298)" fill="#ff92aa"/>
                  </g>
                  <path id="Pfad_6400" data-name="Pfad 6400" d="M901.889,918.423c.322-.755,3.039-7.029,4.594-6.51,2.023.675-1.768,11.572,1.686,21.524a22.423,22.423,0,0,0,8.717,11.142,38.129,38.129,0,0,1,65.947,3.91,69.458,69.458,0,0,0,4.413-16.635c1.437-10.661-.378-16.341.407-16.5,1.628-.328,13.224,23.338,4.167,42.094a32.9,32.9,0,0,1-5.583,8.117c-.64,21.59-18.429,38.383-38.443,38.083-17.953-.27-33.979-14.237-36.877-33.254a31.887,31.887,0,0,1-6.3-6.79C894.95,949.57,897.019,929.819,901.889,918.423Z" transform="translate(-897.799 -911.448)" fill="#ff92aa"/>
                  <path id="Pfad_6401" data-name="Pfad 6401" d="M1084.453,1077.509c.408-.015,1.066,5.64-.689,9.763-.691,1.624-1.285,1.9-1.663,1.933-.477.038-1.008-.288-1.675-1.208-2.253-3.106-1.4-6.583-2.343-6.877-1.468-.458-4.253,7.025-6.266,6.664-1.712-.307-1.317-6.56-3.06-6.894-1.968-.377-4.112,7.283-6.633,7.014-2.228-.237-2.553-6.43-4.683-6.575-2.066-.142-2.879,5.6-5.71,5.96-3.243.41-5.54-6.7-7.023-6.274-2.013.578-3.771,15.4,5.164,23.456,6.423,5.793,17.286,7.118,21.1,3.032,2.272-2.434.028-5.018,2.57-9.627,2.721-4.933,6.415-4.146,9.192-8.925C1085.928,1083.458,1084.033,1077.524,1084.453,1077.509Z" transform="translate(-1001.863 -1030.085)" fill="#fff" stroke="#fff" stroke-miterlimit="10" stroke-width="3"/>
                  <path id="Pfad_6402" data-name="Pfad 6402" d="M1076.338,1046c-.049,1.039-2.439,1.956-3.824,2.238a7.641,7.641,0,0,1-3.228-.08c-3.853-.932-7.039-4.975-6.306-6.256C1064.168,1039.821,1076.451,1043.6,1076.338,1046Z" transform="translate(-1016.042 -1004.147)" fill="#e1e6ff"/>
                  <path id="Pfad_6403" data-name="Pfad 6403" d="M1157.731,1030.882c.771.2,1.257,3.226-.254,5.414-1.029,1.491-2.989,2.6-3.543,2.13C1152.882,1037.53,1156.458,1030.548,1157.731,1030.882Z" transform="translate(-1081.13 -996.678)" fill="#e1e6ff"/>
                  <path id="Pfad_6404" data-name="Pfad 6404" d="M1199.595,913.19c2.814-.585,8.3,7.367,6.262,10.471-1.254,1.906-5.519,2.239-7.811.255C1194.525,920.869,1197.194,913.69,1199.595,913.19Z" transform="translate(-1111.647 -912.363)" fill="#ff92aa"/>
                  <g id="Gruppe_3191" data-name="Gruppe 3191" transform="translate(33.499 83.491)">
                    <path id="Pfad_6405" data-name="Pfad 6405" d="M1029.631,1207.988s-7.892,21.531-11.8,20.167c-3.869-1.352-.929-19.013-.138-23.511C1018.8,1204.527,1029.631,1207.988,1029.631,1207.988Z" transform="translate(-1015.876 -1204.64)" fill="#ff92aa"/>
                  </g>
                  <path id="Pfad_6406" data-name="Pfad 6406" d="M923.105,910.382c2.814-.586,8.3,7.367,6.262,10.471-1.255,1.906-5.519,2.239-7.811.255C918.035,918.06,920.7,910.881,923.105,910.382Z" transform="translate(-913.599 -910.351)" fill="#ff92aa"/>
                </g>
                <path id="Pfad_7114" data-name="Pfad 7114" d="M1056.425,1018.664a29.356,29.356,0,0,1,16.9,8.264" transform="translate(90.941 -6313.417)" fill="none" stroke="#fff" stroke-linecap="round" stroke-linejoin="round" stroke-width="2"/>
                <path id="Pfad_7115" data-name="Pfad 7115" d="M1147.777,1004.577a29.357,29.357,0,0,1,10.779-15.417" transform="translate(25.506 -6292.284)" fill="none" stroke="#fff" stroke-linecap="round" stroke-linejoin="round" stroke-width="2"/>
              </g>
            </g>
            <g id="Gruppe_2001" data-name="Gruppe 2001" transform="matrix(0.883, -0.469, 0.469, 0.883, 344.636, 422.77)">
              <g id="Gruppe_1994" data-name="Gruppe 1994" transform="translate(0 0)">
                <path id="Pfad_3858" data-name="Pfad 3858" d="M81.746,40.873A40.873,40.873,0,1,1,40.873,0,40.873,40.873,0,0,1,81.746,40.873" transform="translate(0)" fill="#fff2cc"/>
              </g>
            </g>
            <path id="Pfad_3918" data-name="Pfad 3918" d="M4462.573,2691.712l-7.663-385.3a952.572,952.572,0,0,0-207.812,49.218c-114.277,41.154-193.437,94.7-246.922,131.387a1293.153,1293.153,0,0,0-136.569,107.867l43.437,96.824Z" transform="translate(-3203.947 -1393.645)" fill="#9eadff"/>
          </g>
        </g>
        <g id="Gruppe_830" data-name="Gruppe 830" transform="translate(0 149.894)">
          <g id="Gruppe_829" data-name="Gruppe 829" clip-path="url(#clip-path-2)">
            <g id="Gruppe_1984" data-name="Gruppe 1984" transform="translate(243.486 336.435)">
              <path id="Pfad_3990" data-name="Pfad 3990" d="M4633.46,887.371a4.24,4.24,0,0,1,5.307,2.778,18.814,18.814,0,0,0,6.49,9.3c5.109,3.937,10.884,4.39,14.677,4.687a40.029,40.029,0,0,0,24.685-6.445c7.991-5.488,10.809-12.471,13.342-18.749a50.271,50.271,0,0,0,3.668-18.307,4.229,4.229,0,0,1,.54-2.021c.515-.919,1.342-2.356,2.242-3.747,1.711-2.647,2.955-4.044,3.964-3.992,2.582.134,4,10.268,4.263,13.419.53,6.23-.318,21.606-23.458,45.614a4.259,4.259,0,0,0-1.2,3.014q.065,4.74.132,9.479a4.234,4.234,0,0,0,4.665,4.157,27.651,27.651,0,0,0,15.07-6.6,40.674,40.674,0,0,0,11.764-17.443,4.242,4.242,0,0,1,5.046-2.7l.085.022a4.233,4.233,0,0,1,2.884,5.673,57.269,57.269,0,0,1-3.049,6.432c-1.615,2.92-6.709,11.522-15.206,17.531a34.621,34.621,0,0,1-17.167,6.426,4.222,4.222,0,0,0-3.845,4.273q.436,31.157.871,62.314a4.235,4.235,0,0,1-4.131,4.293l-15.3.373a4.235,4.235,0,0,1-4.334-4.417l3.619-83.7a4.237,4.237,0,0,0-4.046-4.413c-1.727-.081-3.668-.239-5.772-.523a59.431,59.431,0,0,1-14.01-3.516c-8.652-3.724-13.151-12.071-15.247-17.39a4.228,4.228,0,0,1,2.68-5.577l.77-.241" transform="translate(-4535.041 -734.111)" fill="#4c4981"/>
              <path id="Pfad_3991" data-name="Pfad 3991" d="M4456.474,449.973c9.521.352,28.48,1.053,45.954,13.01,18.843,12.894,17.506,26.253,36.046,32.985,11.964,4.344,17.665.648,25.546,7.3,8.018,6.768,11.735,18.709,9.922,29.231-2.077,12.059-10.9,19.239-14.826,22.437-10.6,8.629-16.208,5.445-26.262,14.047-8.188,7-5.679,10.148-14.1,19.542-10.875,12.125-24.094,16.966-33.714,20.49-12.962,4.747-21.206,7.766-31.547,5.654-11.325-2.312-12.75-8.243-23.085-8.531-8.646-.241-9.522,3.856-24.311,7.461-9.367,2.283-16.8,4.1-25.615,1.6-2.769-.783-14.553-4.118-19.542-14.1-4.586-9.177.6-15.887-5.653-25.4a30.385,30.385,0,0,0-7.89-7.812c-8.523-6.384-13.926-5.288-19.685-8.6-11.062-6.369-15.268-24.311-12.6-38.2.28-1.461,3.368-16.377,16.2-25.476,5.8-4.111,11.575-5.609,22.067-8.329,9.821-2.546,13.513-2.341,19.03-3.552,17.289-3.8,20.22-14.411,36.39-23.819,18.9-10.993,38.558-10.266,47.682-9.929" transform="translate(-4311.475 -449.821)" fill="#d7e0ff"/>
              <path id="Pfad_3992" data-name="Pfad 3992" d="M5007.928,906.5c-5.066,16.425-28.807,20.445-34.005,21.326-16.14,2.733-18.1-3.815-43.934-2.6-11.3.53-15.1,1.98-21.187-.769-9.016-4.075-17.311-14.786-16.569-26.754.91-14.688,14.988-24.155,25.561-26.527,12.343-2.769,15.344,5.157,31.885,3.51,13.872-1.381,15.621-7.34,27.291-6.487,3.688.269,15.543,1.743,23.938,11.792.867,1.037,11.019,13.55,7.02,26.512" transform="translate(-4721.095 -746.329)" fill="#d7e0ff"/>
              <path id="Pfad_3993" data-name="Pfad 3993" d="M4304.728,886.933a36.233,36.233,0,0,1,18-27.178c7.456-4.135,15.182-4.431,19.04-4.578,7.8-.3,9.238,1.223,19.915,1.653a83.957,83.957,0,0,0,16.914-1.172c11.45-1.836,11.932-2.547,17.016-2.416,2.471.063,12.243.315,20.515,7.18,11.37,9.436,11.346,24.265,11.342,27.353a32.5,32.5,0,0,1-3.336,15.344c-5.9,11.549-17.658,15.719-20.681,16.678-14.473,4.594-18.843-4.052-32.44,1.074-8.578,3.234-9.42,7.649-19.441,9.836a33.78,33.78,0,0,1-16.833-.236c-8.335-2.381-13.336-7.628-16.542-11.076-4.887-5.259-15.244-16.4-13.472-32.462" transform="translate(-4304.526 -735.78)" fill="#9eadff"/>
              <path id="Pfad_3994" data-name="Pfad 3994" d="M4558.529,625.663c-8.187,7-5.678,10.148-14.1,19.542-10.874,12.125-24.093,16.966-33.713,20.489-12.963,4.747-21.206,7.766-31.547,5.654-11.325-2.313-12.75-8.242-23.086-8.531-8.646-.241-9.522,3.856-24.31,7.461-9.366,2.283-16.8,4.1-25.616,1.6-2.768-.783-14.551-4.118-19.542-14.1-4.586-9.177.6-15.887-5.653-25.4a30.39,30.39,0,0,0-7.89-7.812c-8.523-6.384-13.926-5.288-19.685-8.6-7.638-4.4-12-14.313-13.1-24.6a35.891,35.891,0,0,0-8.98,4.573c-12.833,9.1-15.92,24.015-16.2,25.476-2.665,13.892,1.542,31.833,12.6,38.2,5.758,3.316,11.161,2.22,19.685,8.6a30.4,30.4,0,0,1,7.89,7.812c6.257,9.509,1.067,16.22,5.652,25.4,4.99,9.986,16.774,13.32,19.542,14.1,8.817,2.5,16.249.683,25.616-1.6,14.788-3.605,15.665-7.7,24.311-7.461,10.336.289,11.761,6.218,23.086,8.531,10.341,2.112,18.584-.907,31.547-5.654,9.621-3.523,22.84-8.364,33.714-20.489,8.426-9.394,5.917-12.538,14.1-19.542,10.055-8.6,15.661-5.418,26.263-14.047,3.929-3.2,12.749-10.378,14.826-22.437a33.285,33.285,0,0,0-.928-14.716c-4.543,1.591-8.8,2.69-14.485,7.55" transform="translate(-4311.474 -550.152)" fill="#9eadff"/>
              <path id="Pfad_3995" data-name="Pfad 3995" d="M4994.464,915.814c-16.14,2.733-18.1-3.816-43.935-2.6-11.3.531-15.1,1.981-21.187-.769-9.016-4.075-17.31-14.786-16.568-26.754.041-.654.138-1.286.229-1.919-9.6,3.758-19.993,12.479-20.77,25.028-.741,11.968,7.553,22.679,16.569,26.754,6.083,2.75,9.886,1.3,21.188.769,25.831-1.213,27.794,5.336,43.934,2.6,5.2-.88,28.938-4.9,34.005-21.326a20.971,20.971,0,0,0,.89-5.517,76.729,76.729,0,0,1-14.354,3.735" transform="translate(-4721.096 -757.43)" fill="#9eadff"/>
            </g>
          </g>
        </g>
        <g id="Gruppe_832" data-name="Gruppe 832" transform="translate(0 149.894)">
          <g id="Gruppe_831" data-name="Gruppe 831" clip-path="url(#clip-path-3)">
            <g id="Gruppe_1988" data-name="Gruppe 1988" transform="translate(1068.688 152.966)">
              <path id="Pfad_4070" data-name="Pfad 4070" d="M3879.375,335.216h-93.841a16.474,16.474,0,1,1,0-32.949h93.841a16.474,16.474,0,1,1,0,32.949" transform="translate(-3769.059 -286.835)" fill="#fff"/>
              <path id="Pfad_4071" data-name="Pfad 4071" d="M3903.121,275.121h-20.854a12.929,12.929,0,1,1,0-25.858h20.854a12.929,12.929,0,1,1,0,25.858" transform="translate(-3840.144 -249.263)" fill="#fff"/>
            </g>
            <path id="Vereinigungsmenge_1" data-name="Vereinigungsmenge 1" d="M24.929,73.206a24.929,24.929,0,0,1,0-49.857H44.547A19.561,19.561,0,0,1,63.74,0H95.295a19.561,19.561,0,0,1,19.194,23.349h52.437a24.929,24.929,0,1,1,0,49.857Z" transform="translate(53.368 153.153)" fill="#fff" stroke="rgba(0,0,0,0)" stroke-miterlimit="10" stroke-width="1"/>
          </g>
        </g>
        <rect id="Rechteck_527" data-name="Rechteck 527" width="1540.975" height="851.661" transform="translate(0 149.895)" fill="none"/>
        <path id="Pfad_4167" data-name="Pfad 4167" d="M10.786.682l1.835,5.047,4.268,3.26a1.036,1.036,0,0,1-.275,1.8L11.567,12.62l-3.26,4.268a1.036,1.036,0,0,1-1.8-.275L4.676,11.567.408,8.307a1.035,1.035,0,0,1,.275-1.8L5.729,4.675,8.989.407a1.036,1.036,0,0,1,1.8.275" transform="matrix(0.883, -0.469, 0.469, 0.883, 636.098, 578.151)" fill="#9eadff"/>
        <path id="Pfad_4168" data-name="Pfad 4168" d="M12.859.813,15.047,6.83l5.088,3.886a1.235,1.235,0,0,1-.328,2.143L13.79,15.046,9.9,20.135a1.235,1.235,0,0,1-2.142-.328L5.574,13.79.486,9.9A1.235,1.235,0,0,1,.813,7.761L6.83,5.574,10.716.486a1.235,1.235,0,0,1,2.142.328" transform="translate(561.135 658.053)" fill="#6c63ff" opacity="0.3"/>
        <g id="Gruppe_2065" data-name="Gruppe 2065" transform="translate(-161.021 501.86)">
          <path id="Pfad_4070-2" data-name="Pfad 4070" d="M3879.375,335.216h-93.841a16.474,16.474,0,1,1,0-32.949h93.841a16.474,16.474,0,1,1,0,32.949" transform="translate(-3769.059 -286.835)" fill="#fff"/>
          <path id="Pfad_4071-2" data-name="Pfad 4071" d="M3903.121,275.121h-20.854a12.929,12.929,0,1,1,0-25.858h20.854a12.929,12.929,0,1,1,0,25.858" transform="translate(-3840.144 -249.263)" fill="#fff"/>
        </g>
      </g>
    </g>
    <path id="Pfad_489" data-name="Pfad 489" d="M1144.522,1038.217a5.056,5.056,0,0,1-8.075,0,5.646,5.646,0,0,0-5.7,5.583,5.579,5.579,0,0,0,1.276,3.522c.052.063,2.547,2.851,7.414,8.288a1.412,1.412,0,0,0,1.049.469h0a1.413,1.413,0,0,0,1.05-.47l7.421-8.316a5.528,5.528,0,0,0,1.254-3.493,5.646,5.646,0,0,0-5.7-5.583m-8.075,1.257a4.83,4.83,0,0,1,3.541,2.108.663.663,0,0,0,.993,0,4.831,4.831,0,0,1,3.541-2.108,4.388,4.388,0,0,1,4.438,4.326,4.184,4.184,0,0,1-.952,2.676l-7.4,8.295a.154.154,0,0,1-.226,0c-4.818-5.383-7.31-8.167-7.4-8.273a4.213,4.213,0,0,1-.97-2.7,4.388,4.388,0,0,1,4.438-4.326" transform="translate(411.528 -294.646)" fill="none" fill-rule="evenodd"/>
    <path id="Pfad_489-2" data-name="Pfad 489" d="M1143.709,1038.217a4.757,4.757,0,0,1-7.6,0,5.313,5.313,0,0,0-5.36,5.254,5.25,5.25,0,0,0,1.2,3.314c.049.059,2.4,2.683,6.977,7.8a1.329,1.329,0,0,0,.987.441h0a1.329,1.329,0,0,0,.988-.443l6.983-7.825a5.2,5.2,0,0,0,1.18-3.287,5.313,5.313,0,0,0-5.36-5.254m-7.6,1.183a4.545,4.545,0,0,1,3.332,1.984.624.624,0,0,0,.934,0,4.546,4.546,0,0,1,3.333-1.984,4.129,4.129,0,0,1,4.177,4.071,3.937,3.937,0,0,1-.9,2.518l-6.968,7.806a.144.144,0,0,1-.212,0c-4.534-5.065-6.879-7.686-6.964-7.785a3.964,3.964,0,0,1-.913-2.539,4.129,4.129,0,0,1,4.177-4.071" transform="translate(421.157 -399.773)" fill="none" fill-rule="evenodd"/>
    <g id="Gruppe_1990" data-name="Gruppe 1990" transform="translate(200 1092.854)">
      <path id="Pfad_4013" data-name="Pfad 4013" d="M2309.289,2389.057q-1.079-8.239-2.48-15.946l-19.134-31.182a84.959,84.959,0,0,0-4.252,19.843c-.741,8.156-.272,16.308,3.189,32.6.645,3.034.5,10.155-.386,10.351-23.487,5.164-45.262,81.671-37.276,85.044,1.57.663,3.324-1.908,12.678-12.426,16.628-18.7,30.069-31.918,39.415-41.648,3.694-.663,9.105-40.082,8.248-46.636" transform="translate(-2247.267 -2207.721)" fill="#f2d899"/>
      <path id="Pfad_4014" data-name="Pfad 4014" d="M2402.3,2251.866a58.054,58.054,0,0,0-10.276,9.922,59.666,59.666,0,0,0-10.219,19.063l-.015.049c-.244.771-1.188,4.2,2.084,9.59,4.888,8.053,11.98,8.62,14.882,15.945a15.89,15.89,0,0,1,1.063,6.378c13.2-10.692,24.4-17.559,30.473-20.552a102.016,102.016,0,0,1,14.174-5.67c1.611-.481,2.963-.832,3.9-1.063q-.283-3.749-.686-7.626c-.8-7.67-1.907-14.941-3.212-21.784l-42.166-4.252" transform="translate(-2342.398 -2143.877)" fill="#fff2cc"/>
      <path id="Pfad_4015" data-name="Pfad 4015" d="M2455.6,1993.741l5.184,12.959-17.818,2.592q-1.135-9.234-2.268-18.467Z" transform="translate(-2384.382 -1958.836)" fill="#9898ea"/>
      <path id="Pfad_4016" data-name="Pfad 4016" d="M2312.613,2063.218a78.662,78.662,0,0,0-12.89,8.45c-13.234,10.646-26.2,27.139-22.88,31.595,2.152,2.885,10.638.062,25.754-4.966a199.455,199.455,0,0,0,19.843-7.8l-9.827-27.284" transform="translate(-2267.858 -2010.152)" fill="#9898ea"/>
      <path id="Pfad_4017" data-name="Pfad 4017" d="M2291.9,2168.822c4.139,1.508,5.051,5.318,9.213,13.465,8.711,17.052,16.772,23.956,14.61,26.518-1.435,1.7-6.08-.036-8.876-1.108-16.766-6.429-34.039-23.864-30.043-33.245,2.08-4.883,9.9-7.523,15.1-5.63" transform="translate(-2267.789 -2084.575)" fill="#9898ea"/>
      <path id="Pfad_4018" data-name="Pfad 4018" d="M2389.287,2042.614a39.864,39.864,0,0,0,2.835,19.488c5.912,13.731,18.654,19.039,17.363,28.348a12.151,12.151,0,0,1-3.189,6.378,69.821,69.821,0,0,0,27.284,8.15,68.863,68.863,0,0,0,17.008-.709q-.37-3.878-.709-7.8-1.341-15.494-2.126-30.473a8.9,8.9,0,0,0,2.48-3.189c2.179-4.862-1.056-10.641-2.834-13.819-2.326-4.156-3.643-4.441-6.378-9.213a45.746,45.746,0,0,1-3.543-7.8,81.644,81.644,0,0,0-36.5,4.961,78.187,78.187,0,0,0-11.694,5.669" transform="translate(-2347.815 -1987.777)" fill="#5d5cb0"/>
      <path id="Pfad_4019" data-name="Pfad 4019" d="M2414.869,1923.742c2.453,1.725,6.42,4.44,12.046,4.755,2.851.16,7.051.383,9.51-2.219,3.883-4.11.739-12.436-1.268-17.752-1.851-4.9-2.961-7.843-6.023-10.144-5.6-4.205-15.873-4.893-20.922,1.268-4.187,5.108-2.809,12.252-.951,16.167,1.835,3.866,4.78,5.936,7.608,7.925" transform="translate(-2359.408 -1890.999)" fill="#9898ea"/>
      <path id="Pfad_4020" data-name="Pfad 4020" d="M2409.434,1898.537c-1.812-1.16-4.554-1.377-5.607-.179-1.462,1.662.375,6.648,3.888,8.747a8.175,8.175,0,0,0,3.655,1.106c.921,3.374.081,5.224-.415,6.021-2.6,4.187-10.906,3.769-16.2.972-7.733-4.088-8.677-13.13-8.748-13.931a18.812,18.812,0,0,1,8.1-16.847c3.553-2.411,6.98-2.7,13.283-3.24a66.8,66.8,0,0,1,16.523.648,18.107,18.107,0,0,1-7.127,8.747,17.691,17.691,0,0,1-7.451,2.592l4.453,7.782-.968.484-.968.484a5.852,5.852,0,0,0-2.418-3.386" transform="translate(-2345.566 -1880.946)" fill="#fc6681"/>
      <path id="Pfad_4021" data-name="Pfad 4021" d="M2508.282,1949.581a9.487,9.487,0,0,0,1.669,1.1c4.994,2.68,10.545,1.671,18.6-.287,8.077-1.964,13.109-3.792,23.172-7.45,4.091-1.487,6.671-2.5,8.088-5.263,1.936-3.778.551-8.583-1.077-12.63-7.229-17.97-26.792-39.816-30.535-36.988-1.525,1.152,1.2,9.279,6.653,25.533,1.34,3.994,2.551,7.362,3.485,9.889-3.64.741-9,1.772-15.537,2.811-12.89,2.047-15.944,1.868-17.99,4.957-3.178,4.8-1.471,14.147,3.472,18.33" transform="translate(-2428.685 -1885.814)" fill="#9898ea"/>
      <path id="Pfad_4022" data-name="Pfad 4022" d="M2493.111,1933.185h0a1.215,1.215,0,0,0-.658,1.581l.923,2.239a1.211,1.211,0,1,0,2.239-.923l-.923-2.239a1.215,1.215,0,0,0-1.581-.658" transform="translate(-2421.005 -1917.913)" fill="#5d5cb0"/>
      <path id="Pfad_4023" data-name="Pfad 4023" d="M2469.98,2352.457c-.447-4.863-.706-7.325-2.48-8.858-7.277-6.288-35.363,4.227-45.356,24.449-1.908,3.863-2.082,44.2-4.177,46.232-17.27,16.734,4.406,93.271,12.973,91.944,1.684-.261,1.826-3.371,4.257-17.234,6.548-37.328,30.657-106.736,31.239-108.54a68.975,68.975,0,0,0,3.544-27.993" transform="translate(-2363.665 -2207.617)" fill="#fff2cc"/>
    </g>
    <g id="Gruppe_2009" data-name="Gruppe 2009" transform="translate(1430.775 388.816)">
      <g id="Gruppe_2003" data-name="Gruppe 2003" transform="translate(0 40)">
        <path id="Pfad_4054" data-name="Pfad 4054" d="M4148.8,1273.094c-6.188,6.921-14.555,18.773-15.488,34.19-.288,4.764-.628,10.389,1.891,11.539,4.76,2.175,20.3-11.369,20.438-27.4.08-8.93-4.64-15.593-6.841-18.325" transform="translate(-4078.534 -1248.823)" fill="#9898ea"/>
        <path id="Pfad_4055" data-name="Pfad 4055" d="M4129.4,1271.293a38.031,38.031,0,0,0-4.781,5.759c-1.73,2.559-2.773,4.1-3.166,6.278a12.446,12.446,0,0,0,2.021,8.634,26.009,26.009,0,0,1-18.636,18.643q5.341.173,11.044.645,2.279.193,4.491.428s8.341.964,13.063,3.414c.267.138.509.272.845.476,1.012.619,6.406,3.916,6.457,8.926.051,4.952-5.154,8.036-5.371,8.16,1.621.007,6.3-.184,9.35-3.565,1.029-1.14,1.941-2.719,2.823-6.9a49.58,49.58,0,0,0,1.035-12.517c-.269-4.854.667-12.134,6.32-22.4a10.77,10.77,0,0,0,.069-11.3c-3.08-4.995-8.913-5.06-9.229-5.058q-14.523,12.832-17.549,10.533-2.06-1.566,1.215-10.153" transform="translate(-4058.488 -1247.277)" fill="#fff2cc"/>
        <path id="Pfad_4056" data-name="Pfad 4056" d="M4237.82,1287.468a6.383,6.383,0,0,1,3.346.174c4.112,1.578,4.666,9.392,6.088,23.02.868,8.314,1.3,12.471,1.585,14.261,3.056,19.311,12.3,32.143,10.711,33.093-.708.422-2.9-1.9-5.589-4.747a65.262,65.262,0,0,1-5.638-7.151c-.372-.52-2.945-4.122-4.483-6.571-6.215-9.895-9.384-23.01-10.782-28.937-2.346-9.958-2.375-14.382-.589-17.951.62-1.237,2.23-4.457,5.35-5.19" transform="translate(-4148.064 -1258.908)" fill="#9898ea"/>
        <path id="Pfad_4057" data-name="Pfad 4057" d="M4238.833,1291.31c.965-8.283-3.77-14.67-8.077-15.2-4.624-.566-11.409,5.3-11.427,14.651a30.618,30.618,0,0,1,19.5.546" transform="translate(-4139.646 -1250.937)" fill="#fff2cc"/>
        <path id="Pfad_4058" data-name="Pfad 4058" d="M4040.887,1352.214c-3.176,5.117-22.983,3.248-35.175-6.942-9.073-7.583-14.877-20.567-10.91-24.492,4.472-4.425,21.122,2.9,31.428,10.905,6.351,4.931,17.6,15.79,14.657,20.529" transform="translate(-3979.588 -1281.679)" fill="#5d5cb0"/>
        <path id="Pfad_4059" data-name="Pfad 4059" d="M3963.571,1319.963c5.107-.019,11.435,12.741,9.692,23.213-.464,2.785-1.757,5.389-4.345,10.6a88.4,88.4,0,0,1-11.419,17.479c-5.836,6.967-8.755,10.451-10.156,9.992-6.106-2,5.24-61.239,16.229-61.28" transform="translate(-3945.629 -1282.046)" fill="#5d5cb0"/>
        <path id="Pfad_4060" data-name="Pfad 4060" d="M4120.829,1386.263c-3.211,5.452-23.008,3.189-35.131-7.91-9.021-8.26-14.737-22.276-10.743-26.44,4.5-4.693,21.1,3.391,31.356,12.117,6.317,5.377,17.492,17.183,14.518,22.233" transform="translate(-4036.386 -1303.717)" fill="#4c4981"/>
        <path id="Pfad_4061" data-name="Pfad 4061" d="M4043.778,1350.66c5.107.045,11.348,13.829,9.535,25.05-.482,2.984-1.794,5.763-4.418,11.321a94.916,94.916,0,0,1-11.539,18.619c-5.884,7.405-8.827,11.108-10.225,10.6-6.092-2.229,5.657-65.685,16.647-65.586" transform="translate(-4002.221 -1303.807)" fill="#4c4981"/>
        <path id="Pfad_4062" data-name="Pfad 4062" d="M4187.138,1206.693a7.861,7.861,0,0,1-2.87-1.572,5.034,5.034,0,0,1-1.656-2.473c-1.3-4.756,5.749-11.739,13.029-12.685,1.471-.191,5.638-.733,8.581,2.128a8.762,8.762,0,0,1,1.6,10.3,12.609,12.609,0,0,1-3.832,4.147c-2.2,1.5-7.967,2.273-14.857.154" transform="translate(-4113.506 -1189.776)" fill="#9898ea"/>
        <path id="Pfad_4063" data-name="Pfad 4063" d="M4186.033,1234.351l-1.4,6.008c-.589.2-1.211.434-1.857.712q-.582.251-1.11.512-4.618,10.267-2.353,12.12,3.272,2.677,20.923-12.22l-3.542-.672q-.1-5.906-.191-11.811l-10.467,5.351" transform="translate(-4110.749 -1217.566)" fill="#9898ea"/>
        <path id="Pfad_4064" data-name="Pfad 4064" d="M4228.457,1206.7c3.052-2.425,3.887-3.383,4.507-4.77a9.12,9.12,0,0,0-1.461-9.526c-2.777-3.023-6.968-2.72-8.447-2.613a14.85,14.85,0,0,0-2.734.467Z" transform="translate(-4140.348 -1189.729)" fill="#fc6681"/>
        <path id="Pfad_4065" data-name="Pfad 4065" d="M4244.931,1235.808a3.32,3.32,0,1,1-4.672.473,3.32,3.32,0,0,1,4.672-.473" transform="translate(-4153.951 -1221.863)" fill="#fc6681"/>
        <path id="Pfad_4066" data-name="Pfad 4066" d="M4254.41,1259.713a7.738,7.738,0,1,1-.7-5.682,9.029,9.029,0,0,1,.7,5.682" transform="translate(-4160.756 -1232.727)" fill="#fc6681"/>
        <path id="Pfad_4067" data-name="Pfad 4067" d="M4261.844,1248.413a7.737,7.737,0,1,1-3.451-4.568,9.032,9.032,0,0,1,3.451,4.568" transform="translate(-4163.333 -1227.344)" fill="#fc6681"/>
        <path id="Pfad_4068" data-name="Pfad 4068" d="M4233.167,1223.941c.772,1.455-.233,3.5-2.248,4.572s-4.273.759-5.046-.7.233-3.5,2.247-4.572,4.272-.758,5.046.7" transform="translate(-4144.1 -1213.036)" fill="#9898ea"/>
        <path id="Pfad_4069" data-name="Pfad 4069" d="M4206.9,1203.661a1.152,1.152,0,0,1-.976-.562c-.391-.746.362-1.653,1.151-2.442a.548.548,0,1,1,.774.774,4.193,4.193,0,0,0-.905,1.133,7.748,7.748,0,0,0,3.034-.474.548.548,0,0,1,.286,1.057,9.947,9.947,0,0,1-3.364.513m.015-1h0Z" transform="translate(-4130.071 -1197.362)" fill="#5d5cb0"/>
      </g>
    </g>
    <g id="Gruppe_1989" data-name="Gruppe 1989" transform="translate(911.353 1027)">
      <path id="Pfad_4001" data-name="Pfad 4001" d="M2468.227,1257.067c-11.109,4.843-39.257-20.924-45.574-51.763-4.7-22.95,2.2-51.108,13.07-53.071,12.258-2.213,28.907,28.985,34.992,54.042,3.749,15.439,7.8,46.306-2.488,50.793" transform="translate(-2328.51 -1112.972)" fill="#5d5cb0"/>
      <path id="Pfad_4002" data-name="Pfad 4002" d="M2286.213,1151.326c7.867,5.813,2.047,34.2-13.382,49.558-4.1,4.084-9.261,6.918-19.578,12.586a181.825,181.825,0,0,1-38.824,15.894c-17.449,4.865-26.174,7.3-27.766,4.932-6.94-10.306,82.621-95.479,99.551-82.97" transform="translate(-2174.102 -1111.627)" fill="#5d5cb0"/>
      <path id="Pfad_4003" data-name="Pfad 4003" d="M2608.438,1133.512a83.275,83.275,0,0,1-25.293-25.39c-19.242-31.084-10.928-70.07-15.423-70.273-.51-.023-1.435.442-4.108,7.394-3.665,9.531-7.733,20.112-7.684,34.875.013,3.787.348,23.3,13.244,44.374a97.212,97.212,0,0,0,23.094,25.728Z" transform="translate(-2417.115 -1037.848)" fill="#5d5cb0"/>
      <path id="Pfad_4004" data-name="Pfad 4004" d="M2727.843,1364.81a83.257,83.257,0,0,1,27.834,22.576c22.419,28.877,18.271,68.522,22.763,68.25.51-.031,1.379-.591,3.3-7.786,2.637-9.865,5.565-20.816,3.956-35.492-2.4-21.885-13.25-36.616-17.858-42.726a95.325,95.325,0,0,0-24.454-22.68,17.882,17.882,0,0,0-8.17,3.3c-6.771,5.028-7.309,13.253-7.374,14.563" transform="translate(-2530.133 -1241.057)" fill="#9898ea"/>
      <path id="Pfad_4005" data-name="Pfad 4005" d="M2466.15,1356.294c-7.756,9.311-44.472-1.1-63.948-25.827-14.494-18.4-20.957-46.666-12.119-53.3,9.964-7.476,38.836,12.943,55.512,32.609,10.275,12.119,27.74,37.891,20.555,46.514" transform="translate(-2305.439 -1194.143)" fill="#9898ea"/>
      <path id="Pfad_4006" data-name="Pfad 4006" d="M2308.447,1274.778c9.639,1.667,17.167,29.651,10.264,50.3-1.835,5.49-5.175,10.337-11.854,20.029a181.822,181.822,0,0,1-27.573,31.618c-13.414,12.174-20.121,18.261-22.6,16.861-10.825-6.1,31.027-122.392,51.768-118.8" transform="translate(-2219.227 -1193.556)" fill="#9898ea"/>
      <path id="Pfad_4007" data-name="Pfad 4007" d="M2696.931,1257c-3.618-1.848-4.693-3.91-5.074-5.187-2.025-6.779,7.865-17.021,18.276-18.613,2.1-.322,8.061-1.233,12.375,2.774a13.079,13.079,0,0,1,3.175,13.456c-.729,2.054-1.813,3.519-5.9,7.335-3.062,2.857-7.291,6.582-12.662,10.676q2.108,1.063,4.226,2.141,2.339,1.191,4.655,2.383c-1.754.323-4.35.74-7.516,1.012-8.689.746-16.81,1.444-20.483-3.117a9.256,9.256,0,0,1-1.9-5.513c.083-.326,3.266-5.744,3.266-5.744q.3.174.61.358c.736.443,1.424.9,2.066,1.355l4.889-3.317" transform="translate(-2502.691 -1166.065)" fill="#9898ea"/>
      <path id="Pfad_4008" data-name="Pfad 4008" d="M2730.163,1217.333c-6.267-1.1-9.766-6.639-8.69-10.859,1.018-3.993,6.029-6.4,9.762-5.768,2.925.5,2.748,2.679,8.783,7.81,3.109,2.644,4.289,3.045,7.965,6.427,3.194,2.939,4.16,4.344,4.588,5.31.028.064.12.286.19.488,1.7,4.916-4.746,12.206-5.122,12.622a25.441,25.441,0,0,1-9.3,6.459,5.73,5.73,0,0,1-6.295-.407c.745.041,7.057.3,9.947-3.99.463-.688,2.176-3.232,1.053-5.531a4.77,4.77,0,0,0-4.246-2.436,5.316,5.316,0,0,0-4.774,3.189q-1.931-6.656-3.864-13.312" transform="translate(-2525.819 -1144.847)" fill="#4c4981"/>
      <path id="Pfad_4009" data-name="Pfad 4009" d="M2727.055,1259.645c-1.514,1.495-1.714,2.21-1.527,2.574.228.441,1.248.788,5.327-.292" transform="translate(-2528.572 -1183.661)" fill="none" stroke="#5d5cb0" stroke-linecap="round" stroke-linejoin="round" stroke-width="1"/>
      <path id="Pfad_4010" data-name="Pfad 4010" d="M2269.059,1555.528c1.827,1.1,5.8,3.524,6.74,7.58a3.063,3.063,0,0,1,.071.551c.216,4.825-7.23,5.373-11.957,12.763-6.278,9.813-1.9,22.525-5.586,23.452-.286.072-1.064.184-2.558-.977-4.746-3.69-5.4-11.428-4.917-21.657a165.466,165.466,0,0,1,4.83-32.363,80.163,80.163,0,0,0,13.377,10.652" transform="translate(-2216.466 -1371.175)" fill="#9898ea"/>
      <path id="Pfad_4011" data-name="Pfad 4011" d="M2181.973,1353.45c1.2,1.763,3.816,5.615,2.984,9.694a2.941,2.941,0,0,1-.165.53c-1.806,4.479-8.807,1.886-16.177,6.646-9.784,6.32-11.082,19.7-14.819,19.015-.29-.053-1.044-.274-1.921-1.951-2.785-5.327-.163-12.637,4.52-21.743a165.486,165.486,0,0,1,17.832-27.436,80.206,80.206,0,0,0,7.746,15.245" transform="translate(-2150.734 -1235.306)" fill="#5d5cb0"/>
      <path id="Pfad_4012" data-name="Pfad 4012" d="M2596.157,1306.923c-10.183-2.214-19.889,1.206-24.232,8.278a18.511,18.511,0,0,0-2.4,11.414q-6.769-.837-13.765-1.572-6.046-.634-11.944-1.155c5.125,5.766,9.238,10.869,12.308,14.843,8.756,11.335,10.167,14.977,10.937,17.594,1.01,3.432,3.236,11.005-.637,17.886a17.725,17.725,0,0,1-4.984,5.555,74.406,74.406,0,0,0,16.177-3.665c21.672-7.55,34.358-23.369,39.96-31.55-.494-.622-5.242-6.818-3.025-14.6a16.588,16.588,0,0,1,7.908-9.753c-15.788,1.775-27.182-.61-28.767-5.871-.363-1.207-.506-3.543,2.464-7.408" transform="translate(-2409.151 -1214.302)" fill="#fff2cc"/>
    </g>
    <g id="Gruppe_2021" data-name="Gruppe 2021" transform="matrix(0.848, 0.53, -0.53, 0.848, 1019.105, 924.625)">
      <g id="Gruppe_2019" data-name="Gruppe 2019" transform="translate(11.747 0)">
        <g id="Group_22" data-name="Group 22" transform="translate(0 0)">
          <g id="Group_2" data-name="Group 2" transform="translate(0 0)">
            <path id="Rectangle_80" data-name="Rectangle 80" d="M4.22,0H35.586a4.22,4.22,0,0,1,4.22,4.22V75.908a4.22,4.22,0,0,1-4.22,4.22H4.22A4.22,4.22,0,0,1,0,75.908V4.22A4.22,4.22,0,0,1,4.22,0Z" fill="#edeffc"/>
            <path id="Path_176" data-name="Path 176" d="M31.733,0H27.167V.544a2.59,2.59,0,0,1-2.6,2.577H10.041A2.59,2.59,0,0,1,7.437.544V0H3.161A3.146,3.146,0,0,0,0,3.13V72.79a3.146,3.146,0,0,0,3.161,3.13H31.733a3.146,3.146,0,0,0,3.162-3.13V3.135A3.114,3.114,0,0,0,33.97.919,3.178,3.178,0,0,0,31.733,0Z" transform="translate(2.533 2.107)" fill="#fbfdff"/>
          </g>
        </g>
      </g>
      <g id="Gruppe_2020" data-name="Gruppe 2020" transform="translate(0 51.277) rotate(-53)" style="isolation: isolate">
        <g id="Gruppe_419" data-name="Gruppe 419" transform="matrix(0.999, 0.035, -0.035, 0.999, 1.477, 0)">
          <path id="Pfad_2647-2" data-name="Pfad 2647" d="M0,3.157a11.166,11.166,0,0,1,5.683.848,7.9,7.9,0,0,1,3.341,2.42A8.14,8.14,0,0,1,10.531,10.7a11.661,11.661,0,0,1-.525,5.085c.239-.276,4.552-5.3,5.357-8.687a5.749,5.749,0,0,0,.089-2.69A5.623,5.623,0,0,0,14.32,2.114,5.829,5.829,0,0,0,12.1.46,6.381,6.381,0,0,0,9.514,0a7.889,7.889,0,0,0-3.14.78C4.946,1.407,2.929,2.205,0,3.157Z" transform="translate(32.54 0)" fill="url(#linear-gradient)"/>
          <path id="Pfad_2648-2" data-name="Pfad 2648" d="M27.859,0a1.38,1.38,0,0,1-.252.1,18.568,18.568,0,0,0-4,1.986,8.961,8.961,0,0,0-2.508,3.4,18.036,18.036,0,0,0-1.511,3.767c-.968,3.379-2.019,6.734-2.963,10.121-.7,2.518-.676,2.164-2.3,7.474-.876,2.867-2.109,6.982-3.546,12.06L6.216,37.775,0,42.252C5.043,29,7.1,22.716,7.974,19.488A57.41,57.41,0,0,1,10.466,12.5a16.41,16.41,0,0,1,2.57-4.863,15.742,15.742,0,0,1,4.041-3.331,31.235,31.235,0,0,1,5.09-2.493c1.434-.6,2.358-.911,2.915-1.085A23.249,23.249,0,0,1,27.859,0Z" transform="translate(13.226 0.083)" fill="#ff92aa"/>
          <path id="Pfad_2649-2" data-name="Pfad 2649" d="M47.5,0a1.383,1.383,0,0,0-.156.222,18.566,18.566,0,0,1-2.848,3.444,8.962,8.962,0,0,1-3.884,1.665,18.033,18.033,0,0,1-4.012.611c-3.511.171-7.018.428-10.53.573-2.612.108-2.262.164-7.8.53-2.992.2-7.279.458-12.551.7q.032,2.351.065,4.7L0,17.473c14.05-1.884,20.641-2.45,23.983-2.563a57.415,57.415,0,0,0,7.371-.831,16.41,16.41,0,0,0,5.321-1.391A15.742,15.742,0,0,0,40.84,9.514a31.234,31.234,0,0,0,3.589-4.386c.914-1.258,1.425-2.088,1.722-2.59A23.258,23.258,0,0,0,47.5,0Z" transform="translate(0 8.174)" fill="#ffb8cb"/>
        </g>
      </g>
    </g>
    <g id="Gruppe_2026" data-name="Gruppe 2026" transform="translate(928.803 772.41) rotate(-41)">
      <g id="Gruppe_2025" data-name="Gruppe 2025" transform="translate(7.789 0)">
        <g id="Gruppe_2022" data-name="Gruppe 2022" transform="translate(0 0)">
          <g id="Gruppe_2019-2" data-name="Gruppe 2019" transform="translate(0 0)">
            <path id="Rectangle_80-2" data-name="Rectangle 80" d="M4.22,0H35.586a4.22,4.22,0,0,1,4.22,4.22V75.908a4.22,4.22,0,0,1-4.22,4.22H4.22A4.22,4.22,0,0,1,0,75.908V4.22A4.22,4.22,0,0,1,4.22,0Z" fill="#edeffc"/>
            <path id="Path_176-2" data-name="Path 176" d="M31.733,0H27.167V.544a2.59,2.59,0,0,1-2.6,2.577H10.041A2.59,2.59,0,0,1,7.437.544V0H3.161A3.146,3.146,0,0,0,0,3.13V72.79a3.146,3.146,0,0,0,3.161,3.13H31.733a3.146,3.146,0,0,0,3.162-3.13V3.135A3.113,3.113,0,0,0,33.97.919,3.178,3.178,0,0,0,31.733,0Z" transform="translate(2.533 2.106)" fill="#fbfdff"/>
          </g>
        </g>
      </g>
      <g id="Gruppe_738" data-name="Gruppe 738" transform="translate(0 47.233) rotate(-54)" style="isolation: isolate">
        <g id="Gruppe_419-2" data-name="Gruppe 419" transform="matrix(0.999, 0.035, -0.035, 0.999, 1.337, 0)">
          <path id="Pfad_2647-3" data-name="Pfad 2647" d="M0,2.857a10.105,10.105,0,0,1,5.143.768,7.147,7.147,0,0,1,3.024,2.19A7.367,7.367,0,0,1,9.531,9.681a10.553,10.553,0,0,1-.475,4.6c.216-.249,4.12-4.8,4.848-7.862a5.2,5.2,0,0,0,.08-2.434,5.089,5.089,0,0,0-1.025-2.073,5.275,5.275,0,0,0-2.011-1.5A5.775,5.775,0,0,0,8.61,0,7.14,7.14,0,0,0,5.768.708C4.476,1.274,2.65,2,0,2.857Z" transform="translate(29.448 0)" fill="url(#linear-gradient-2)"/>
          <path id="Pfad_2648-3" data-name="Pfad 2648" d="M25.213,0a1.249,1.249,0,0,1-.228.092,16.8,16.8,0,0,0-3.623,1.8,8.11,8.11,0,0,0-2.27,3.078,16.322,16.322,0,0,0-1.367,3.409c-.876,3.058-1.827,6.095-2.682,9.159-.635,2.279-.612,1.959-2.08,6.764-.793,2.595-1.908,6.319-3.209,10.914L5.625,34.186,0,38.238c4.564-11.99,6.425-17.68,7.216-20.6a51.956,51.956,0,0,1,2.256-6.322,14.851,14.851,0,0,1,2.325-4.4A14.246,14.246,0,0,1,15.454,3.9a28.268,28.268,0,0,1,4.607-2.256C21.359,1.1,22.2.819,22.7.662A21.04,21.04,0,0,1,25.213,0Z" transform="translate(11.969 0.075)" fill="#0654cc"/>
          <path id="Pfad_2649-3" data-name="Pfad 2649" d="M42.983,0a1.253,1.253,0,0,0-.141.2,16.8,16.8,0,0,1-2.578,3.117A8.111,8.111,0,0,1,36.75,4.824a16.319,16.319,0,0,1-3.631.553c-3.177.154-6.351.387-9.529.519-2.364.1-2.047.148-7.06.48-2.707.179-6.588.415-11.359.631q.029,2.128.059,4.255L0,15.813c12.715-1.7,18.68-2.217,21.7-2.32a51.962,51.962,0,0,0,6.67-.752,14.851,14.851,0,0,0,4.816-1.259A14.246,14.246,0,0,0,36.96,8.61a28.266,28.266,0,0,0,3.248-3.97C41.036,3.5,41.5,2.751,41.767,2.3A21.048,21.048,0,0,0,42.983,0Z" transform="translate(0 7.397)" fill="#0f83e6"/>
        </g>
      </g>
    </g>
    <g id="Gruppe_2027" data-name="Gruppe 2027" transform="matrix(0.829, 0.559, -0.559, 0.829, 955.135, 588.435)">
      <g id="Gruppe_2025-2" data-name="Gruppe 2025" transform="translate(9.414 0)">
        <g id="Gruppe_2022-2" data-name="Gruppe 2022" transform="translate(0 0)">
          <g id="Gruppe_2019-3" data-name="Gruppe 2019" transform="translate(0 0)">
            <path id="Rectangle_80-3" data-name="Rectangle 80" d="M4.22,0H35.586a4.22,4.22,0,0,1,4.22,4.22V75.908a4.22,4.22,0,0,1-4.22,4.22H4.22A4.22,4.22,0,0,1,0,75.908V4.22A4.22,4.22,0,0,1,4.22,0Z" fill="#edeffc"/>
            <path id="Path_176-3" data-name="Path 176" d="M31.733,0H27.167V.544a2.59,2.59,0,0,1-2.6,2.577H10.041A2.59,2.59,0,0,1,7.437.544V0H3.161A3.146,3.146,0,0,0,0,3.13V72.79a3.146,3.146,0,0,0,3.161,3.13H31.733a3.146,3.146,0,0,0,3.162-3.13V3.135A3.114,3.114,0,0,0,33.97.919,3.178,3.178,0,0,0,31.733,0Z" transform="translate(2.533 2.106)" fill="#fbfdff"/>
          </g>
        </g>
      </g>
      <g id="Gruppe_738-2" data-name="Gruppe 738" transform="translate(0 50.47) rotate(-54)" style="isolation: isolate">
        <g id="Gruppe_419-3" data-name="Gruppe 419" transform="matrix(0.999, 0.035, -0.035, 0.999, 1.371, 0)">
          <g transform="matrix(0.95, 0.31, -0.31, 0.95, -1035.82, -998.78)" filter="url(#Pfad_2647)">
            <path id="Pfad_2647-4" data-name="Pfad 2647" d="M0,2.93a10.363,10.363,0,0,1,5.274.787,7.329,7.329,0,0,1,3.1,2.246,7.555,7.555,0,0,1,1.4,3.965,10.822,10.822,0,0,1-.487,4.719c.222-.256,4.225-4.921,4.972-8.062a5.336,5.336,0,0,0,.083-2.5A5.219,5.219,0,0,0,13.29,1.962,5.409,5.409,0,0,0,11.227.426,5.922,5.922,0,0,0,8.829,0,7.322,7.322,0,0,0,5.915.726C4.59,1.306,2.718,2.046,0,2.93Z" transform="matrix(0.95, -0.31, 0.31, 0.95, 1322.48, 620.48)" fill="url(#linear-gradient-3)"/>
          </g>
          <g transform="matrix(0.95, 0.31, -0.31, 0.95, -1035.82, -998.78)" filter="url(#Pfad_2648)">
            <path id="Pfad_2648-4" data-name="Pfad 2648" d="M25.855,0A1.28,1.28,0,0,1,25.622.1,17.233,17.233,0,0,0,21.906,1.94,8.317,8.317,0,0,0,19.579,5.1a16.738,16.738,0,0,0-1.4,3.5c-.9,3.136-1.874,6.25-2.75,9.393-.651,2.337-.628,2.009-2.133,6.937C12.481,27.582,11.337,31.4,10,36.113L5.769,35.058,0,39.213c4.68-12.3,6.589-18.131,7.4-21.126A53.281,53.281,0,0,1,9.714,11.6,15.229,15.229,0,0,1,12.1,7.09,14.61,14.61,0,0,1,15.848,4a28.989,28.989,0,0,1,4.724-2.313C21.9,1.126,22.761.84,23.277.679A21.577,21.577,0,0,1,25.855,0Z" transform="matrix(0.95, -0.31, 0.31, 0.95, 1305.46, 626.09)" fill="#8695eb"/>
          </g>
          <g transform="matrix(0.95, 0.31, -0.31, 0.95, -1035.82, -998.78)" filter="url(#Pfad_2649)">
            <path id="Pfad_2649-4" data-name="Pfad 2649" d="M44.079,0a1.283,1.283,0,0,0-.145.206,17.231,17.231,0,0,1-2.643,3.2,8.317,8.317,0,0,1-3.6,1.545,16.735,16.735,0,0,1-3.724.567c-3.258.158-6.513.4-9.772.532-2.424.1-2.1.152-7.24.492-2.776.184-6.756.425-11.648.647q.03,2.182.06,4.364L0,16.216c13.039-1.748,19.156-2.273,22.258-2.379a53.285,53.285,0,0,0,6.84-.771,15.23,15.23,0,0,0,4.938-1.291A14.61,14.61,0,0,0,37.9,8.83a28.986,28.986,0,0,0,3.331-4.071c.849-1.168,1.323-1.938,1.6-2.4A21.585,21.585,0,0,0,44.079,0Z" transform="matrix(0.95, -0.31, 0.31, 0.95, 1296.11, 637.03)" fill="url(#linear-gradient-4)"/>
          </g>
        </g>
      </g>
    </g>
    <g id="Gruppe_2028" data-name="Gruppe 2028" transform="translate(921.479 840.559) rotate(8)">
      <g id="Gruppe_2025-3" data-name="Gruppe 2025" transform="translate(0 0)">
        <g id="Gruppe_2022-3" data-name="Gruppe 2022" transform="translate(6.458 0)">
          <g id="Gruppe_2019-4" data-name="Gruppe 2019" transform="translate(0 0)">
            <path id="Rectangle_80-4" data-name="Rectangle 80" d="M4.22,0H35.586a4.22,4.22,0,0,1,4.22,4.22V75.908a4.22,4.22,0,0,1-4.22,4.22H4.22A4.22,4.22,0,0,1,0,75.908V4.22A4.22,4.22,0,0,1,4.22,0Z" fill="#edeffc"/>
            <path id="Path_176-4" data-name="Path 176" d="M31.733,0H27.167V.544a2.59,2.59,0,0,1-2.6,2.577H10.041A2.59,2.59,0,0,1,7.437.544V0H3.161A3.146,3.146,0,0,0,0,3.13V72.79a3.146,3.146,0,0,0,3.161,3.13H31.733a3.146,3.146,0,0,0,3.162-3.13V3.135A3.113,3.113,0,0,0,33.97.919,3.178,3.178,0,0,0,31.733,0Z" transform="translate(2.533 2.106)" fill="#fbfdff"/>
          </g>
        </g>
        <g id="Gruppe_738-3" data-name="Gruppe 738" transform="translate(0 50.773) rotate(-54)" style="isolation: isolate">
          <g id="Gruppe_419-4" data-name="Gruppe 419" transform="matrix(0.999, 0.035, -0.035, 0.999, 1.272, 0)">
            <path id="Pfad_2647-5" data-name="Pfad 2647" d="M0,2.718a9.611,9.611,0,0,1,4.892.73A6.8,6.8,0,0,1,7.768,5.53a7.007,7.007,0,0,1,1.3,3.677,10.037,10.037,0,0,1-.452,4.377c.206-.237,3.918-4.564,4.611-7.478A4.949,4.949,0,0,0,13.3,3.792a4.84,4.84,0,0,0-.975-1.972A5.017,5.017,0,0,0,10.413.4,5.493,5.493,0,0,0,8.189,0a6.791,6.791,0,0,0-2.7.671C4.257,1.211,2.521,1.9,0,2.718Z" transform="translate(28.008 0)" fill="url(#linear-gradient-5)"/>
            <path id="Pfad_2648-5" data-name="Pfad 2648" d="M23.98,0a1.188,1.188,0,0,1-.217.087A15.983,15.983,0,0,0,20.317,1.8a7.714,7.714,0,0,0-2.159,2.927,15.525,15.525,0,0,0-1.3,3.242c-.833,2.909-1.738,5.8-2.55,8.711-.6,2.167-.582,1.863-1.978,6.433-.754,2.468-1.815,6.01-3.052,10.38L5.35,32.515,0,36.368c4.341-11.4,6.111-16.816,6.863-19.594a49.416,49.416,0,0,1,2.146-6.013,14.125,14.125,0,0,1,2.212-4.186A13.55,13.55,0,0,1,14.7,3.709,26.885,26.885,0,0,1,19.08,1.563c1.234-.519,2.03-.784,2.509-.934A20.012,20.012,0,0,1,23.98,0Z" transform="translate(11.384 0.071)" fill="rgba(49,178,168,0.95)"/>
            <path id="Pfad_2649-5" data-name="Pfad 2649" d="M40.882,0a1.191,1.191,0,0,0-.134.191A15.98,15.98,0,0,1,38.3,3.155a7.714,7.714,0,0,1-3.343,1.433,15.521,15.521,0,0,1-3.454.526c-3.022.147-6.04.368-9.064.493-2.248.093-1.947.141-6.715.457-2.575.17-6.265.394-10.8.6q.028,2.024.056,4.047L0,15.04c12.093-1.621,17.767-2.109,20.643-2.207a49.42,49.42,0,0,0,6.344-.715,14.125,14.125,0,0,0,4.58-1.2,13.55,13.55,0,0,0,3.586-2.731,26.883,26.883,0,0,0,3.09-3.775c.787-1.083,1.227-1.8,1.482-2.229A20.019,20.019,0,0,0,40.882,0Z" transform="translate(0 7.036)" fill="rgba(63,192,182,0.95)"/>
          </g>
        </g>
      </g>
    </g>
    <g id="Gruppe_2066" data-name="Gruppe 2066" transform="translate(200 770.643)">
      <path id="Pfad_4074" data-name="Pfad 4074" d="M3814.959,2584.692c.5,3.777-6.745,7.851-16.182,9.1s-17.991-4.576-17.991-4.576,6.744-7.851,16.181-9.1,17.492.8,17.992,4.576" transform="translate(-3773.85 -2495.698)" fill="#9eadff"/>
      <path id="Pfad_4075" data-name="Pfad 4075" d="M3785.633,2508.2c-.194,3.706-7.857,6.318-17.117,5.834s-16.415-7.587-16.415-7.587,7.856-6.317,17.116-5.833,16.609,3.88,16.416,7.586" transform="translate(-3752.101 -2435.679)" fill="#9eadff"/>
      <path id="Pfad_4076" data-name="Pfad 4076" d="M3788.474,2427.882c-1.012,2.995-7.9,3.373-15.381.844s-11.717-10-11.717-10,7.9-3.373,15.381-.845,12.729,7.006,11.717,10" transform="translate(-3759.134 -2372.255)" fill="#9eadff"/>
      <path id="Pfad_4077" data-name="Pfad 4077" d="M3796.66,2349.3c-1.468,2.362-7.443,1.3-13.346-2.365s-8.029-10.92-8.029-10.92,7.443-1.3,13.346,2.365,9.5,8.558,8.029,10.92" transform="translate(-3769.678 -2310.727)" fill="#9eadff"/>
      <path id="Pfad_4078" data-name="Pfad 4078" d="M3950.963,2558.313c2.966,2.391,10.214-1.677,16.189-9.088s5.448-17.747,5.448-17.747-10.214,1.678-16.188,9.088-8.414,15.357-5.448,17.747" transform="translate(-3901.922 -2459.097)" fill="#9eadff"/>
      <path id="Pfad_4079" data-name="Pfad 4079" d="M3862.127,2660.933c-.527-4.371-9.807-6.848-20.728-5.532s-18.82,10.3-18.82,10.3,9.806,6.848,20.727,5.532,19.347-5.924,18.821-10.3" transform="translate(-3805.538 -2552.788)" fill="#9eadff"/>
      <path id="Pfad_4080" data-name="Pfad 4080" d="M3920.382,2731.483c-1.213-4.959-12.242-6.523-24.635-3.493s-20.242,14.468-20.242,14.468,12.242,6.524,24.635,3.493,21.456-9.509,20.242-14.468" transform="translate(-3845.666 -2606.921)" fill="#9eadff"/>
      <path id="Pfad_4081" data-name="Pfad 4081" d="M4021.488,2608.957c3.771,2.271,11.429-3.524,17.105-12.946s3.451-21.174,3.451-21.174-11.43,3.525-17.106,12.946-7.221,18.9-3.45,21.174" transform="translate(-3954.788 -2491.972)" fill="#9eadff"/>
      <path id="Pfad_4082" data-name="Pfad 4082" d="M3905.767,2496.14c2.556,2.69,10.077-.308,16.8-6.695s7.541-16.436,7.541-16.436-10.077.307-16.8,6.695-10.1,13.746-7.54,16.436" transform="translate(-3867.963 -2414.765)" fill="#9eadff"/>
      <path id="Pfad_4083" data-name="Pfad 4083" d="M3877.828,2445.555c1.962,2.479,8.573.514,14.766-4.388s7.663-13.363,7.663-13.363-8.573-.515-14.766,4.387-9.624,10.885-7.662,13.364" transform="translate(-3847.009 -2380.479)" fill="#9eadff"/>
      <path id="Pfad_4084" data-name="Pfad 4084" d="M3868.529,2376.331c1.6,2.274,7.506.873,13.188-3.13s7.387-11.364,7.387-11.364-7.506-.872-13.187,3.13-8.988,9.091-7.387,11.365" transform="translate(-3840.071 -2330.413)" fill="#9eadff"/>
      <path id="Pfad_4085" data-name="Pfad 4085" d="M3859.8,2256.07c-2.646-.287-4.21-5.88-3.492-12.493s6.091-11.451,6.091-11.451,4.209,5.88,3.491,12.492-3.444,11.74-6.091,11.452" transform="translate(-3830.983 -2232.126)" fill="#9eadff"/>
      <path id="Pfad_4086" data-name="Pfad 4086" d="M3870.96,2315.913c-1.589-2.136,1.45-7.085,6.788-11.053s12.54-3.317,12.54-3.317-1.452,7.084-6.789,11.052-10.952,5.453-12.539,3.317" transform="translate(-3841.9 -2284.729)" fill="#9eadff"/>
      <path id="Pfad_4087" data-name="Pfad 4087" d="M3868.492,2329.25a93.119,93.119,0,0,0,.833,35.948c6.887,31.407,27.267,49.983,33.319,55.284a105.459,105.459,0,0,0,18.6,13.03" transform="translate(-3839.318 -2305.767)" fill="none" stroke="#9eadff" stroke-linecap="round" stroke-linejoin="round" stroke-width="4"/>
    </g>
    <g id="Gruppe_2067" data-name="Gruppe 2067" transform="translate(308.311 767.1) rotate(56)">
      <g id="Gruppe_2005" data-name="Gruppe 2005" transform="translate(0 0)">
        <path id="Pfad_3884" data-name="Pfad 3884" d="M22.866,1.226c1.755,2.527-1.942,8.13-8.257,12.514S0,17.1,0,17.1,1.941,8.973,8.256,4.588,21.111-1.3,22.866,1.226" transform="translate(26.167 59.098)" fill="#5d5cb0"/>
        <path id="Pfad_3885" data-name="Pfad 3885" d="M24.726,1.881c1.23,2.733-3.307,7.44-10.135,10.514S0,13.014,0,13.014,3.307,5.574,10.135,2.5,23.5-.851,24.726,1.881" transform="translate(12.781 49.417)" fill="#5d5cb0"/>
        <path id="Pfad_3886" data-name="Pfad 3886" d="M22.841,3.165c.38,2.524-4.425,5.34-10.732,6.29S0,6.6,0,6.6,4.425,1.264,10.732.314,22.461.64,22.841,3.165" transform="translate(5.411 37.55)" fill="#5d5cb0"/>
        <path id="Pfad_3887" data-name="Pfad 3887" d="M20.257,4.912C20.076,7.151,15.394,8.6,9.8,8.146S0,3.272,0,3.272,4.863-.414,10.456.039s9.982,2.635,9.8,4.874" transform="translate(0 24.428)" fill="#5d5cb0"/>
        <path id="Pfad_3888" data-name="Pfad 3888" d="M3.329,27.264c3.013.621,6.714-4.979,8.265-12.508S8.948,0,8.948,0,2.234,4.979.682,12.508.315,26.643,3.329,27.264" transform="translate(55.176 37.468)" fill="#5d5cb0"/>
        <path id="Pfad_3889" data-name="Pfad 3889" d="M26.637,1.459C24.643-1.485,17.064.166,9.709,5.146S0,19.493,0,19.493s9.572,1.293,16.927-3.686,11.7-11.4,9.71-14.347" transform="translate(40.587 66.895)" fill="#5d5cb0"/>
        <path id="Pfad_3890" data-name="Pfad 3890" d="M28.169,1.24c-2.7-3.113-11.2-.161-18.98,6.6S0,25.7,0,25.7s11.2.161,18.98-6.6S30.872,4.353,28.169,1.24" transform="translate(58.138 72.204)" fill="#5d5cb0"/>
        <path id="Pfad_3891" data-name="Pfad 3891" d="M5.436,32.1c3.547.238,6.9-6.754,7.5-15.617S7.589,0,7.589,0,.685,6.754.091,15.617,1.889,31.857,5.436,32.1" transform="translate(72.315 38.87)" fill="#5d5cb0"/>
        <path id="Pfad_3892" data-name="Pfad 3892" d="M2.331,25.6c2.829.987,7.122-3.945,9.588-11.015S11.261,0,11.261,0,4.139,3.944,1.673,11.015-.5,24.616,2.331,25.6" transform="translate(41.512 30.471)" fill="#5d5cb0"/>
        <path id="Pfad_3893" data-name="Pfad 3893" d="M1.591,21.034c2.324,1.055,6.346-2.8,8.982-8.607S11.136,0,11.136,0,4.79,2.8,2.154,8.607-.734,19.979,1.591,21.034" transform="translate(31.214 25.918)" fill="#5d5cb0"/>
        <path id="Pfad_3894" data-name="Pfad 3894" d="M1.221,18.011c1.991,1.041,5.712-2.148,8.313-7.121S10.638,0,10.638,0,4.926,2.148,2.326,7.121s-3.095,9.849-1.1,10.889" transform="translate(22.81 16.057)" fill="#5d5cb0"/>
        <path id="Pfad_3895" data-name="Pfad 3895" d="M7.944,18.154c-2.006.772-5.2-2.667-7.123-7.68S.963,0,.963,0s5.2,2.667,7.123,7.68,1.864,9.7-.142,10.475" transform="translate(8.228 0)" fill="#5d5cb0"/>
        <path id="Pfad_3896" data-name="Pfad 3896" d="M1.244,17.46c-1.93-.947-1.576-5.623.791-10.445S9.813,0,9.813,0s1.576,5.623-.79,10.445S3.174,18.407,1.244,17.46" transform="translate(17.773 5.806)" fill="#5d5cb0"/>
      </g>
      <path id="Pfad_3897" data-name="Pfad 3897" d="M0,0A75.2,75.2,0,0,0,13.882,25.505C30.433,45.512,51.931,51.32,58.236,52.889A85.2,85.2,0,0,0,76.4,55.373" transform="translate(16.254 17.694)" fill="none" stroke="#5d5cb0" stroke-linecap="round" stroke-linejoin="round" stroke-width="2"/>
    </g>
  </g>
</svg>
