<svg xmlns="http://www.w3.org/2000/svg" xmlns:xlink="http://www.w3.org/1999/xlink" viewBox="0 0 2281.9 1391.5"><defs><style>.a,.am,.an,.g,.s,.z{fill:none;}.b{clip-path:url(#a);}.c{fill:#fafaff;}.d{fill:#e3eaff;}.e{fill:#fff;}.f{fill:#9898ea;}.g{stroke:#9898ea;stroke-width:8.87px;}.g,.r{stroke-miterlimit:10;}.h{fill:#e1e6ff;}.i{fill:#fff2cc;}.j{fill:#5d5cb0;}.k{fill:#fc6681;}.l{fill:#9eadff;}.m{fill:#f3f6ff;}.n{fill:#b3c2ff;}.o{fill:#d7e0ff;}.p{fill:#fbfdff;}.q{fill:#ff92aa;}.r,.v{fill:#4c4981;}.r{stroke:#4b4980;stroke-width:3px;}.s{stroke:#fff;stroke-width:2px;}.am,.an,.s,.z{stroke-linecap:round;stroke-linejoin:round;}.t{fill:#eb7083;}.u{clip-path:url(#b);}.w{clip-path:url(#c);}.x{fill:#6c63ff;isolation:isolate;opacity:0.3;}.y{fill:#f2d899;}.an,.z{stroke:#5d5cb0;}.aa{fill:#edeffc;}.ab{fill:url(#d);}.ac{fill:#ffb8cb;}.ad{fill:url(#e);}.ae{fill:#0654cc;}.af{fill:#0f83e6;}.ag{fill:url(#f);}.ah{fill:#8695eb;}.ai{fill:url(#g);}.aj{fill:url(#h);}.ak{fill:url(#i);}.al{fill:url(#j);}.am{stroke:#9eadff;stroke-width:4px;}.an{stroke-width:2px;}</style><clipPath id="a"><path class="a" d="M674.5,1324l8.9-.4c105.7-5.8,176.6-45.8,258.7-109.1,143.7-110.8,265.7-154.5,434.2-54.6,235.2,139.5,477-28.2,523.3-193,39.2-174.7-5.1-314.9,84-415.3,82.9-93.4,198.4-59.9,263.6-169.9C2336.3,220.1,2225.6,0,2225.6,0H362.8C193.2,43,63.7,308.5,24.9,454c-83.2,312.7,44.1,669.9,347,809.2C466.3,1306.6,570.6,1328.1,674.5,1324Z"/></clipPath><clipPath id="b"><rect class="a" x="599.8" y="145.5" width="1723.8" height="851.66"/></clipPath><clipPath id="c"><rect class="a" x="599.8" y="145.5" width="1541" height="851.66"/></clipPath><linearGradient id="d" x1="-34.88" y1="1430.25" x2="-33.85" y2="1430.25" gradientTransform="matrix(14.72, -5.06, -5.14, -14.92, 9243.78, 22134.02)" gradientUnits="userSpaceOnUse"><stop offset="0" stop-color="#ff92aa"/><stop offset="0.31" stop-color="#ff96ae"/><stop offset="0.67" stop-color="#ffa4ba"/><stop offset="1" stop-color="#ffb8cb"/></linearGradient><linearGradient id="e" x1="32.3" y1="1440.79" x2="32.78" y2="1440.34" gradientTransform="matrix(-0.74, -14.07, -14.26, 0.75, 21893.96, 152.21)" gradientUnits="userSpaceOnUse"><stop offset="0" stop-color="#034bcb"/><stop offset="0.31" stop-color="#095bce"/><stop offset="0.67" stop-color="#0a7fe4"/><stop offset="1" stop-color="#0f83e6"/></linearGradient><linearGradient id="f" x1="-37.59" y1="1433.09" x2="-37.15" y2="1432.5" gradientTransform="matrix(13.72, -4.46, -4.52, -13.91, 8318, 20382.01)" gradientUnits="userSpaceOnUse"><stop offset="0" stop-color="#8695eb"/><stop offset="1" stop-color="#9eadff"/></linearGradient><linearGradient id="g" x1="-11.28" y1="1429.2" x2="-11.28" y2="1428.2" gradientTransform="matrix(41.84, -13.6, -5, -15.39, 8935.93, 22476.95)" xlink:href="#f"/><linearGradient id="h" x1="-16.64" y1="1449.91" x2="-16.2" y2="1449.32" gradientTransform="matrix(9.64, -9.31, -9.43, -9.77, 15143.16, 14879.07)" gradientUnits="userSpaceOnUse"><stop offset="0" stop-color="#3bb5ac"/><stop offset="1" stop-color="#48c3b9"/></linearGradient><linearGradient id="i" x1="1301.71" y1="886.83" x2="1319.02" y2="886.83" gradientTransform="matrix(1, 0, 0, 1, 0, 0)" xlink:href="#h"/><linearGradient id="j" x1="1293.91" y1="886.21" x2="1316.71" y2="886.21" gradientTransform="matrix(1, 0, 0, 1, 0, 0)" xlink:href="#h"/></defs><g class="b"><path class="c" d="M-11.4,48.5,365.6,0H2286.8l9.6,1330H-11.4Z"/><path class="d" d="M2137.3,918.8l21.1-420.9c-30.4-23.1-79.1-43.8-96.6-48.3-54.3-13.8-105.2-2.3-141.9,6.4-10.2,2.4-18.4,4.6-25.9,6.8-133.1,38.4-137.5,121.7-209.3,146.1-24.7,7.9-104.2,4.8-129.5,21.9-60.4,40.5-50.8,76.2-83.3,107.9-41.4,40.4-250,27.3-248.2,53.5,6.4,90.4,115,110.5,133.7,126.6q171.6.5,343.2.5,218.4,0,436.7-.5"/><path class="e" d="M2013.1,449.1h.6c6.1.9,25.2,3.9,27.8,8.9,1,2-.8,3.7-1.9,4.7-11.4,10.5-49.5,7.5-75.3,18.6-5.7,2.4-7.9,4.9-8,7.2-.4,14.5,92.1,28.6,181,39.1q-.3,12.3,0,25.5c.1,3.5.3,7,.4,10.4a458.5,458.5,0,0,1-144.8-20.7,456.8,456.8,0,0,1-55.6-21.6s-26.2-12.7-26.4-25.9c-.1-3.5-.2-10.2,9.7-16.3,12.6-7.8,35.5-10.8,62.8-14.5,16.8-2.2,32-2.6,33.1-5.5s-4.3-3.8-7.2-5c-5.4-2.1-11.2-2.9-19.4-3.8s-17.9-1.9-30.3-2.7a239.4,239.4,0,0,1,53.5,1.5"/><path class="f" d="M1855.3,796.8c-1.8,2.9,2.5,8.7,9.5,13.2s16,3,16,3-2.5-8.7-9.5-13.2-14.2-5.8-16-3"/><path class="f" d="M1867.4,786.6c-1.2,3,3.9,7.9,11.4,10.9s15.8,0,15.8,0-3.9-7.9-11.4-10.9-14.6-3-15.8,0"/><path class="f" d="M1876.9,774.7c-.3,2.8,5.1,5.6,11.9,6.3s13-3.6,13-3.6-5-5.6-11.9-6.3-12.7.9-13,3.6"/><path class="f" d="M1885.1,762.1c.3,2.4,5.4,3.7,11.4,3s10.4-5.7,10.4-5.7-5.4-3.8-11.5-3-10.6,3.3-10.3,5.7"/><path class="f" d="M1845.3,802c-3.2.8-7.5-5.1-9.5-13.1s2.2-16.1,2.2-16.1,7.5,5.1,9.5,13.2,1,15.2-2.2,16"/><path class="f" d="M1836,806.3c2-3.2,10.3-1.8,18.5,3.3s11.1,15,11.1,15-10.3,1.9-18.4-3.2-13.2-11.8-11.2-15.1"/><path class="f" d="M1815.6,812.7c2.8-3.5,12.1-.7,20.8,6.3s10.8,18.9,10.8,18.9-12.1.7-20.9-6.3-13.5-15.4-10.7-18.9"/><path class="f" d="M1824.8,809.6c-3.9.4-7.8-7-8.8-16.5s5-18.1,5-18.1,7.8,7,8.8,16.6-1.2,17.6-5,18"/><path class="f" d="M1860.8,792c-3.1,1.2-7.9-3.9-10.9-11.5s.1-15.8.1-15.8,7.8,4,10.8,11.5,3,14.6,0,15.8"/><path class="f" d="M1872.3,781.7c-2.5,1.2-7-2.8-10.1-8.9s-1.2-13.5-1.2-13.5,7,2.8,10.1,9,3.7,12.1,1.2,13.4"/><path class="f" d="M1881.2,767.3c-2.1,1.3-6.3-2-9.3-7.3s-1.7-11.7-1.7-11.7,6.3,2.1,9.3,7.3,3.8,10.5,1.7,11.7"/><path class="f" d="M1889,749.8c2.2.7,5.5-3.1,7.3-8.6s-.6-11.3-.6-11.3-5.5,3.1-7.3,8.6-1.6,10.5.6,11.3"/><path class="f" d="M1886.1,755.4c2.1-1.1,1.5-6.1-1.3-11.2s-8.7-7.3-8.7-7.3-1.5,6.2,1.3,11.3,6.7,8.3,8.7,7.2"/><path class="g" d="M1888.9,749.3a82.6,82.6,0,0,1-13.9,28.2c-17,22.4-40,29.6-46.7,31.6a99.4,99.4,0,0,1-19.6,3.5"/><rect class="h" x="1785" y="789.8" width="30.4" height="30.42"/><path class="d" d="M1809.9,787.1c-50.8-111.7-94.2-138.5-123.8-143.2-40.9-6.5-56.5,29.2-110.4,31.1s-61.5-41.9-128.7-56.9c-44.7-10-125.2.6-157.9,12.5-69.9,25.5-160.3,87.5-147.3,161.8,194.8-2,473.2-3.3,668.1-5.3"/><rect class="f" x="1415.4" y="563.5" width="34.5" height="192.29"/><rect class="e" x="1437" y="563.6" width="309.7" height="192.17"/><path class="i" d="M1746.7,563.5H1415.4V546.4a11.9,11.9,0,0,1,11.9-11.9h305.5a13.8,13.8,0,0,1,13.9,13.8Z"/><path class="j" d="M1437.1,563.7h-21.7V545.4a10.9,10.9,0,1,1,21.7,0Z"/><rect class="h" x="1532.9" y="589.5" width="30.9" height="30.93"/><rect class="h" x="1574.5" y="589.5" width="30.9" height="30.93"/><rect class="h" x="1616.1" y="589.5" width="30.9" height="30.93"/><rect class="h" x="1657.6" y="589.5" width="30.9" height="30.93"/><rect class="k" x="1699.2" y="589.5" width="30.9" height="30.93"/><rect class="h" x="1449.8" y="628.4" width="30.9" height="30.93"/><rect class="h" x="1491.4" y="628.4" width="30.9" height="30.93"/><rect class="h" x="1532.9" y="628.4" width="30.9" height="30.93"/><rect class="h" x="1574.5" y="628.4" width="30.9" height="30.93"/><rect class="k" x="1616.1" y="628.4" width="30.9" height="30.93"/><rect class="h" x="1657.6" y="628.4" width="30.9" height="30.93"/><rect class="h" x="1699.2" y="628.4" width="30.9" height="30.93"/><rect class="h" x="1449.8" y="668.4" width="30.9" height="30.93"/><rect class="h" x="1491.4" y="668.4" width="30.9" height="30.93"/><rect class="k" x="1532.9" y="668.4" width="30.9" height="30.93"/><rect class="h" x="1574.5" y="668.4" width="30.9" height="30.93"/><rect class="h" x="1616.2" y="668.4" width="72.4" height="73.44"/><rect class="h" x="1699.2" y="668.4" width="30.9" height="30.93"/><rect class="h" x="1449.8" y="710.4" width="30.9" height="30.93"/><rect class="h" x="1491.4" y="710.4" width="30.9" height="30.93"/><rect class="h" x="1532.9" y="710.4" width="30.9" height="30.93"/><rect class="h" x="1574.5" y="710.4" width="30.9" height="30.93"/><path class="j" d="M1467.2,548.7a8.7,8.7,0,1,1-8.7-8.7,8.7,8.7,0,0,1,8.7,8.7h0"/><path class="j" d="M1603.5,549.2a8.7,8.7,0,1,1-8.7-8.7,8.7,8.7,0,0,1,8.7,8.7h0"/><path class="j" d="M1676.5,549.2a8.7,8.7,0,1,1-8.7-8.7h0a8.7,8.7,0,0,1,8.7,8.7"/><path class="j" d="M1535.8,549.2a8.7,8.7,0,1,1-8.7-8.7,8.7,8.7,0,0,1,8.7,8.7h0"/><path class="j" d="M1739.1,549.6a8.7,8.7,0,1,1-8.6-8.7,8.6,8.6,0,0,1,8.6,8.7h0"/><path class="f" d="M1460,550.8h-2.7a5.2,5.2,0,0,1-5.2-5.3V519.6a5.2,5.2,0,0,1,5.2-5.3h2.7a5.2,5.2,0,0,1,5.2,5.3v25.9a5.2,5.2,0,0,1-5.2,5.3"/><path class="f" d="M1528.6,550.8h-2.7a5.3,5.3,0,0,1-5.3-5.3V519.6a5.3,5.3,0,0,1,5.3-5.3h2.7a5.2,5.2,0,0,1,5.2,5.3v25.9a5.2,5.2,0,0,1-5.2,5.3"/><path class="f" d="M1596.2,550.8h-2.6a5.3,5.3,0,0,1-5.3-5.3V519.6a5.3,5.3,0,0,1,5.3-5.3h2.6a5.3,5.3,0,0,1,5.3,5.3v25.9a5.3,5.3,0,0,1-5.3,5.3"/><path class="f" d="M1669.2,550.8h-2.7a5.2,5.2,0,0,1-5.2-5.3V519.6a5.2,5.2,0,0,1,5.2-5.3h2.7a5.4,5.4,0,0,1,5.3,5.3v25.9a5.4,5.4,0,0,1-5.3,5.3"/><path class="f" d="M1731.8,550.8h-2.6a5.3,5.3,0,0,1-5.3-5.3V519.6a5.3,5.3,0,0,1,5.3-5.3h2.6a5.3,5.3,0,0,1,5.3,5.3v25.9a5.3,5.3,0,0,1-5.3,5.3"/><rect class="k" x="1437.1" y="563.5" width="309.6" height="16.92"/><path class="h" d="M1427.1,463.7l3.2,5.8,5.7,3.1a1.3,1.3,0,0,1,.5,1.7,1.2,1.2,0,0,1-.5.5l-5.7,3.2-3.2,5.7a1.3,1.3,0,0,1-1.7.5,1.2,1.2,0,0,1-.5-.5l-3.1-5.7-5.8-3.2a1.3,1.3,0,0,1-.5-1.7,1.2,1.2,0,0,1,.5-.5l5.8-3.1,3.1-5.8a1.3,1.3,0,0,1,1.7-.5,1.2,1.2,0,0,1,.5.5"/><path class="i" d="M1376.9,548.9l2.1,4,4,2.2a.8.8,0,0,1,.4,1.1l-.4.4-4,2.2-2.1,4a.9.9,0,0,1-1.2.3l-.4-.3-2.2-4-4-2.2a.9.9,0,0,1-.3-1.2l.3-.3,4-2.2,2.2-4a1,1,0,0,1,1.2-.4.8.8,0,0,1,.4.4"/><path class="l" d="M1897.7,693.8l2.2,3.9,4,2.2a1,1,0,0,1,.4,1.2.8.8,0,0,1-.4.4l-4,2.1-2.2,4a.8.8,0,0,1-1.1.4.8.8,0,0,1-.4-.4l-2.2-4-4-2.1a.9.9,0,0,1-.3-1.2l.3-.4,4-2.2,2.2-3.9a.9.9,0,0,1,1.2-.4c.1.1.3.2.3.4"/><path class="m" d="M1864.2,629l3.2,5.8,5.7,3.1a1.3,1.3,0,0,1,0,2.2l-5.7,3.2-3.2,5.7a1.3,1.3,0,0,1-1.7.5,1.2,1.2,0,0,1-.5-.5l-3.1-5.7-5.8-3.2a1.3,1.3,0,0,1-.5-1.7l.5-.5,5.8-3.1,3.1-5.8a1.3,1.3,0,0,1,1.7-.5,1.2,1.2,0,0,1,.5.5"/><path class="l" d="M1665.1,988.3l-3,2.4"/><path class="n" d="M1991.7,1075.2H1241.8V921.3a229.6,229.6,0,0,1,36.1-73.2c14.5-19.7,49.9-66.4,121.7-94.1,36.1-13.9,65.4-17.4,88.3-19.8,41.1-4.3,53.4.1,86,1.8,16.8.8,28.9.6,42.7.2,55.3-1.4,87.1-2.2,118.1-19.8,14.8-8.4,23.4-17.2,33.5-27.2,57.1-56.9,86.7-73.8,132.6-99.3,28.1-15.7,78.5-26,104.5-31.6Z"/><path class="e" d="M1547.5,739.3l-1,.2c-10.3,1.5-42.5,6.5-46.8,15-1.7,3.3,1.3,6.1,3.1,7.8,19.2,17.6,83.3,12.7,126.7,31.3,9.7,4.1,13.3,8.4,13.5,12.2.8,27.4-201.5,55-380.3,74.6a457.7,457.7,0,0,0,249.4,36.7c23.4-6.1,107.3-28.6,162.8-56.3,0,0,44.1-21.5,44.5-43.6.1-5.9.3-17.2-16.3-27.4-21.2-13.1-59.8-18.3-105.7-24.4-28.3-3.8-53.8-4.4-55.7-9.4-1.2-3.1,7.2-6.3,12.1-8.2,9.1-3.6,18.8-5,32.6-6.5s30-4.4,50.8-5.7c-18.3-1.6-52.1-2-89.7,3.7"/><path class="o" d="M23.9,1102.2c13-7.9,109-151.6,257.3-213.3s211.1,13.5,337.1-27.3,128-102.3,206.3-136.9c124-54.8,241.2-44.2,389.3,4.6,33.7,11.1,68.5,30,138.2,67.6,99.4,53.8,132.6,82.9,190,115s184.9,79.4,306.6,98.9v321.1H733.5s-292,99.6-443.7,32.5S23.9,1102.2,23.9,1102.2Z"/><path class="p" d="M1676.9,993.9c-125.1-6.9-228.3-9.2-398.6-50.1-123.6-29.6-244-62-293.9-85.1-18.7-8.8-17.9-15.3-17.9-20.5s6-11.1,17.9-16.2c52.3-22.3,129.4-16.4,152.6-37.7,2.2-2,5.8-5.4,3.8-9.4-5.2-10.2-44-16.2-56.4-18.1l-1.2-.2c-45.4-6.8-86.3-4.8-108.3-2.9,25,1.6,45.7,3.6,61.4,5.4s28.3,3.5,39.3,7.8c5.8,2.2,15.9,6.2,14.5,9.9-2.2,6-32.9,6.8-67.1,11.3-55.3,7.4-101.7,13.5-127.2,29.3-20,12.4-19.8,26-19.7,33.1.5,28.5,42.1,47.5,53.6,52.5,5.5,2,159,83.9,345.8,147.1s401.4,105.8,401.4,105.8"/><rect class="a" x="733.5" y="-9.1" width="1837.2" height="1015.37"/><path class="q" d="M1073.6,909.4s2.2,22.8-2,23.3-9-16.8-10.2-21.2C1062.3,911,1073.6,909.4,1073.6,909.4Z"/><path class="q" d="M1008.4,833.6c.3-.8,3-7.1,4.6-6.6s-1.8,11.6,1.7,21.6a22.1,22.1,0,0,0,8.7,11.1,38.1,38.1,0,0,1,65.9,3.9,63.6,63.6,0,0,0,4.4-16.6c1.5-10.7-.3-16.4.4-16.5s13.3,23.3,4.2,42.1a30.1,30.1,0,0,1-5.6,8.1c-.6,21.6-18.4,38.4-38.4,38.1-18-.3-34-14.3-36.9-33.3a31.4,31.4,0,0,1-6.3-6.8C1001.4,864.7,1003.5,845,1008.4,833.6Z"/><path class="r" d="M1086.9,874c.4,0,1,5.6-.7,9.8-.7,1.6-1.3,1.9-1.7,1.9s-1-.3-1.6-1.2c-2.3-3.1-1.4-6.6-2.4-6.9s-4.2,7-6.3,6.7-1.3-6.6-3-6.9-4.1,7.3-6.7,7-2.5-6.4-4.6-6.6-2.9,5.6-5.7,6-5.6-6.7-7.1-6.3-3.7,15.4,5.2,23.5c6.4,5.8,17.3,7.1,21.1,3,2.3-2.4,0-5,2.6-9.6s6.4-4.2,9.2-8.9S1086.5,874,1086.9,874Z"/><path class="h" d="M1064.6,868.4c-.1,1.1-2.5,2-3.8,2.3a7.4,7.4,0,0,1-3.3-.1c-3.8-.9-7-5-6.3-6.3S1064.7,866,1064.6,868.4Z"/><path class="h" d="M1080.9,860.8c.8.2,1.2,3.2-.3,5.4s-3,2.6-3.5,2.1S1079.6,860.5,1080.9,860.8Z"/><path class="q" d="M1092.2,827.4c2.9-.6,8.3,7.4,6.3,10.5s-5.5,2.2-7.8.2S1089.8,827.9,1092.2,827.4Z"/><path class="q" d="M1051.5,913.4s-7.8,21.6-11.8,20.2-.9-19-.1-23.5C1040.7,910,1051.5,913.4,1051.5,913.4Z"/><path class="q" d="M1013.8,826.6c2.8-.6,8.3,7.4,6.3,10.5s-5.6,2.2-7.9.2S1011.4,827.1,1013.8,826.6Z"/><path class="s" d="M1049.3,857.3a28.9,28.9,0,0,1,16.9,8.3"/><path class="s" d="M1075.2,864.4a29.8,29.8,0,0,1,10.8-15.5"/><path class="t" d="M1079.7,895.5c9.4.3,18.6,6.3,21.8,14.5.5,1.4,2,5.4.6,6.6s-9.7-7.1-23.7-11.2c-9-2.7-14.8-1.5-15.1-3.3S1071.2,895.3,1079.7,895.5Z"/><path class="i" d="M1169.5,411.4a40.9,40.9,0,1,1-55.2-16.9,40.9,40.9,0,0,1,55.2,16.9h0"/><path class="l" d="M1992.2,1289l-7.7-385.3a951.1,951.1,0,0,0-207.8,49.2c-114.3,41.2-193.4,94.7-246.9,131.4a1279.6,1279.6,0,0,0-136.6,107.9l43.4,96.8Z"/><g class="u"><path class="v" d="M941.7,635.2A4.3,4.3,0,0,1,947,638a19.1,19.1,0,0,0,6.5,9.3c5.1,3.9,10.9,4.4,14.7,4.7a40.2,40.2,0,0,0,24.7-6.5c7.9-5.4,10.8-12.4,13.3-18.7a51.9,51.9,0,0,0,3.7-18.3,4.6,4.6,0,0,1,.5-2,43.7,43.7,0,0,1,2.2-3.8c1.8-2.6,3-4,4-4,2.6.2,4,10.3,4.3,13.4.5,6.3-.3,21.7-23.5,45.7a4.1,4.1,0,0,0-1.2,3c.1,3.1.1,6.3.1,9.5a4.2,4.2,0,0,0,4.3,4.1h.4a27.6,27.6,0,0,0,15.1-6.6,40.4,40.4,0,0,0,11.7-17.4,4.3,4.3,0,0,1,5.1-2.7h.1a4.2,4.2,0,0,1,3,5.1c0,.2-.1.4-.1.6a53.8,53.8,0,0,1-3.1,6.4c-1.6,2.9-6.7,11.5-15.2,17.5a33.5,33.5,0,0,1-17.2,6.4,4.2,4.2,0,0,0-3.8,4.3l.9,62.3a4.2,4.2,0,0,1-4.2,4.3L978,755a4.2,4.2,0,0,1-4.3-4.1v-.3l3.6-83.7a4.2,4.2,0,0,0-4-4.4l-5.8-.6a52.3,52.3,0,0,1-14-3.5c-8.7-3.7-13.2-12-15.3-17.4a4.3,4.3,0,0,1,2.4-5.4h.3l.8-.3"/><path class="o" d="M988.3,482.1c9.5.4,28.5,1.1,45.9,13s17.5,26.3,36.1,33c11.9,4.4,17.6.7,25.5,7.3s11.8,18.7,9.9,29.2c-2,12.1-10.9,19.3-14.8,22.5-10.6,8.6-16.2,5.4-26.2,14-8.2,7-5.7,10.2-14.1,19.6-10.9,12.1-24.1,16.9-33.8,20.5-12.9,4.7-21.2,7.7-31.5,5.6s-12.8-8.2-23.1-8.5c-8.6-.3-9.5,3.8-24.3,7.4-9.4,2.3-16.8,4.1-25.6,1.6-2.8-.7-14.6-4.1-19.6-14.1s.6-15.8-5.6-25.4a30.8,30.8,0,0,0-7.9-7.8c-8.5-6.4-13.9-5.3-19.7-8.6-11.1-6.3-15.3-24.3-12.6-38.2.3-1.4,3.4-16.3,16.2-25.4,5.8-4.2,11.6-5.7,22.1-8.4s13.5-2.3,19-3.5c17.3-3.8,20.2-14.4,36.4-23.8,18.9-11,38.6-10.3,47.7-10"/><path class="o" d="M1130.1,642.1c-5.1,16.5-28.8,20.5-34,21.4-16.1,2.7-18.1-3.9-43.9-2.6-11.3.5-15.1,1.9-21.2-.8-9-4.1-17.3-14.8-16.6-26.8.9-14.7,15-24.1,25.6-26.5,12.3-2.8,15.3,5.2,31.9,3.5,13.8-1.4,15.6-7.3,27.2-6.5,3.7.3,15.6,1.8,24,11.8.9,1.1,11,13.6,7,26.5"/><path class="l" d="M843.5,633.1a36,36,0,0,1,18-27.2c7.4-4.1,15.2-4.4,19-4.5,7.8-.3,9.3,1.2,19.9,1.6a79.2,79.2,0,0,0,16.9-1.2c11.5-1.8,12-2.5,17.1-2.4,2.4.1,12.2.3,20.5,7.2,11.3,9.4,11.3,24.3,11.3,27.4a32.5,32.5,0,0,1-3.3,15.3C957,660.8,945.2,665,942.2,666c-14.5,4.6-18.8-4.1-32.4,1.1-8.6,3.2-9.5,7.6-19.5,9.8a34.1,34.1,0,0,1-16.8-.2c-8.3-2.4-13.3-7.7-16.6-11.1-4.8-5.3-15.2-16.4-13.4-32.5"/><path class="l" d="M1090.3,557.5c-8.2,7-5.6,10.1-14.1,19.5-10.8,12.1-24.1,17-33.7,20.5-12.9,4.8-21.2,7.8-31.5,5.7s-12.8-8.3-23.1-8.6c-8.7-.2-9.5,3.9-24.3,7.5-9.4,2.3-16.8,4.1-25.6,1.6-2.8-.8-14.6-4.1-19.6-14.1s.6-15.9-5.6-25.4a30.8,30.8,0,0,0-7.9-7.8c-8.6-6.4-14-5.3-19.7-8.6-7.7-4.4-12-14.3-13.1-24.6a37.9,37.9,0,0,0-9,4.5c-12.8,9.1-15.9,24.1-16.2,25.5-2.7,13.9,1.5,31.9,12.6,38.2,5.8,3.3,11.2,2.2,19.7,8.6a30.8,30.8,0,0,1,7.9,7.8c6.2,9.5,1,16.3,5.6,25.4s16.8,13.4,19.6,14.1c8.8,2.5,16.2.7,25.6-1.6,14.8-3.6,15.7-7.7,24.3-7.4,10.3.3,11.8,6.2,23.1,8.5s18.6-.9,31.5-5.6c9.7-3.6,22.9-8.4,33.8-20.5,8.4-9.4,5.9-12.6,14.1-19.6,10-8.6,15.6-5.4,26.2-14,3.9-3.2,12.8-10.4,14.8-22.5a33.2,33.2,0,0,0-.9-14.7c-4.5,1.6-8.8,2.7-14.5,7.6"/><path class="l" d="M1116.6,640.3c-16.1,2.8-18.1-3.8-43.9-2.6-11.3.6-15.1,2-21.2-.7-9-4.1-17.3-14.8-16.5-26.8a12.3,12.3,0,0,1,.2-1.9c-9.6,3.8-20,12.5-20.8,25s7.6,22.7,16.6,26.8c6.1,2.7,9.9,1.3,21.2.8,25.8-1.3,27.8,5.3,43.9,2.6,5.2-.9,28.9-4.9,34-21.4a25.3,25.3,0,0,0,.9-5.5,72.5,72.5,0,0,1-14.4,3.7"/></g><g class="w"><path class="e" d="M1778.8,346.9H1685a16.5,16.5,0,0,1,0-33h93.8a16.5,16.5,0,0,1,0,33"/><path class="e" d="M1731.5,324.4h-20.9a13,13,0,0,1,0-25.9h20.9a13,13,0,0,1,0,25.9"/><path class="e" d="M678.1,371.9a25,25,0,0,1,0-49.9h19.6a19.6,19.6,0,0,1,15.4-23,24.3,24.3,0,0,1,3.8-.3h31.6A19.5,19.5,0,0,1,768,318.2a15.8,15.8,0,0,1-.4,3.8h52.5a25,25,0,0,1,.3,49.9H678.1Z"/></g><rect class="a" x="599.8" y="145.5" width="1541" height="851.66"/><path class="l" d="M1245.7,569.3l4,3.6,5.3.9a1,1,0,0,1,.9,1.2c-.1.2-.1.4-.3.5l-3.6,4-.9,5.3a1,1,0,0,1-1.1.9l-.6-.3-4-3.6-5.3-.9a1,1,0,0,1-.8-1.2c0-.2.1-.3.2-.5l3.6-4,.9-5.3a1,1,0,0,1,1.2-.8l.5.2"/><path class="x" d="M1173.8,654.5l2.2,6,5.1,3.9a1.2,1.2,0,0,1,.2,1.7c-.2.2-.3.4-.6.4l-6,2.2-3.9,5.1a1.2,1.2,0,0,1-1.7.3l-.4-.6-2.2-6-5.1-3.9a1.2,1.2,0,0,1-.2-1.7,1.2,1.2,0,0,1,.5-.5l6.1-2.1,3.8-5.1a1.3,1.3,0,0,1,1.8-.3l.4.6"/><path class="e" d="M549.1,545.9H455.2a16.5,16.5,0,0,1,0-33h93.9a16.5,16.5,0,0,1,0,33"/><path class="e" d="M501.7,523.4H480.9a13,13,0,0,1,0-25.9h20.8a13,13,0,1,1,0,25.9"/></g><path class="a" d="M1921.6,743.6a5.1,5.1,0,0,1-7.1,1,9.4,9.4,0,0,1-1-1,5.6,5.6,0,0,0-5.7,5.6,5.8,5.8,0,0,0,1.3,3.5c.1,0,2.6,2.8,7.4,8.3a1.5,1.5,0,0,0,1.1.4h0a1.2,1.2,0,0,0,1-.4l7.4-8.3a5.3,5.3,0,0,0,1.3-3.5,5.6,5.6,0,0,0-5.7-5.6m-8.1,1.2a5,5,0,0,1,3.6,2.1.6.6,0,0,0,.9.1h.1a5,5,0,0,1,3.5-2.1,4.4,4.4,0,0,1,4.4,4.4,4.1,4.1,0,0,1-.9,2.6l-7.4,8.3c-.1.1-.2.1-.2,0h0c-4.9-5.4-7.4-8.1-7.4-8.2a4.1,4.1,0,0,1-1-2.7,4.4,4.4,0,0,1,4.4-4.4"/><path class="y" d="M627.6,1274.2c-.7-5.5-1.6-10.8-2.5-15.9L606,1227.1a84.4,84.4,0,0,0-4.3,19.8c-.7,8.2-.3,16.3,3.2,32.6.6,3,.5,10.2-.4,10.4-23.5,5.1-45.2,81.6-37.3,85,1.6.7,3.4-1.9,12.7-12.4,16.6-18.7,30.1-31.9,39.4-41.7,3.7-.6,9.1-40,8.3-46.6"/><path class="i" d="M625.5,1200.9a53.7,53.7,0,0,0-10.3,9.9,58.3,58.3,0,0,0-10.2,19h0c-.3.8-1.2,4.2,2,9.6,4.9,8,12,8.6,14.9,15.9a15.7,15.7,0,0,1,1.1,6.4c13.2-10.7,24.4-17.6,30.5-20.6a100.9,100.9,0,0,1,14.1-5.6l3.9-1.1c-.2-2.5-.4-5-.7-7.6-.8-7.7-1.9-15-3.2-21.8l-42.1-4.2"/><path class="f" d="M636.8,1127.8l5.2,12.9-17.9,2.6c-.7-6.1-1.5-12.3-2.2-18.4Z"/><path class="f" d="M610.3,1145.9a77.7,77.7,0,0,0-12.9,8.5c-13.2,10.6-26.2,27.1-22.9,31.6,2.2,2.9,10.7,0,25.8-5a176.9,176.9,0,0,0,19.8-7.8l-9.8-27.3"/><path class="f" d="M589.7,1177.1c4.1,1.5,5,5.3,9.2,13.5,8.7,17,16.8,23.9,14.6,26.5s-6.1,0-8.9-1.1c-16.8-6.4-34-23.9-30-33.3,2.1-4.8,9.9-7.5,15.1-5.6"/><path class="j" d="M607,1147.7a39.6,39.6,0,0,0,2.9,19.5c5.9,13.7,18.6,19,17.3,28.3a11.8,11.8,0,0,1-3.2,6.4,71.4,71.4,0,0,0,27.3,8.2,74.3,74.3,0,0,0,17-.7c-.2-2.6-.5-5.2-.7-7.8-.9-10.4-1.6-20.5-2.1-30.5a9.6,9.6,0,0,0,2.5-3.2c2.2-4.9-1.1-10.7-2.9-13.8s-3.6-4.5-6.3-9.2a45.8,45.8,0,0,1-3.6-7.8,81.2,81.2,0,0,0-36.5,4.9,90.2,90.2,0,0,0-11.7,5.7"/><path class="f" d="M621,1125.6c2.5,1.7,6.4,4.4,12.1,4.8,2.8.1,7,.3,9.5-2.3s.7-12.4-1.3-17.7-3-7.9-6-10.2c-5.6-4.2-15.9-4.8-20.9,1.3s-2.8,12.3-1,16.2,4.8,5.9,7.6,7.9"/><path class="k" d="M629.4,1110.5c-1.8-1.2-4.5-1.4-5.6-.2s.4,6.6,3.9,8.7a7,7,0,0,0,3.7,1.1c.9,3.4,0,5.3-.5,6-2.6,4.2-10.9,3.8-16.2,1-7.7-4.1-8.6-13.1-8.7-13.9a18.8,18.8,0,0,1,8.1-16.9c3.6-2.4,7-2.7,13.3-3.2a65.2,65.2,0,0,1,16.5.6,18.6,18.6,0,0,1-7.1,8.8,18.2,18.2,0,0,1-7.5,2.6l4.5,7.8-1,.5-1,.4a5.3,5.3,0,0,0-2.4-3.3"/><path class="f" d="M645.2,1156.6a5.7,5.7,0,0,0,1.6,1.1c5,2.7,10.6,1.7,18.6-.3s13.1-3.8,23.2-7.4c4.1-1.5,6.7-2.5,8.1-5.3s.5-8.6-1.1-12.6c-7.2-18-26.8-39.8-30.5-37-1.6,1.2,1.2,9.3,6.6,25.5l3.5,9.9c-3.6.8-9,1.8-15.5,2.8-12.9,2.1-16,1.9-18,5-3.2,4.8-1.5,14.1,3.5,18.3"/><path class="j" d="M637.7,1108.1h0a1.3,1.3,0,0,0-.7,1.6l.9,2.3a1.2,1.2,0,0,0,1.6.6,1.2,1.2,0,0,0,.7-1.5h0l-1-2.2a1.2,1.2,0,0,0-1.5-.7"/><path class="i" d="M671.9,1237.7c-.5-4.9-.7-7.3-2.5-8.9-7.3-6.2-35.4,4.3-45.4,24.5-1.9,3.9-2,44.2-4.1,46.2-17.3,16.8,4.4,93.3,12.9,92,1.7-.3,1.9-3.4,4.3-17.3,6.5-37.3,30.6-106.7,31.2-108.5a70,70,0,0,0,3.6-28"/><path class="f" d="M1867.2,452.9c-6.2,7-15.2,19-16.1,34.4-.3,4.7-.6,10.4,1.9,11.5,4.8,2.2,20.3-11.3,20.4-27.4"/><path class="i" d="M1867.2,452.8a44.1,44.1,0,0,0-4.7,5.8c-1.8,2.6-2.8,4.1-3.2,6.3a12.4,12.4,0,0,0,2,8.6,26.2,26.2,0,0,1-18.6,18.7l11,.6,4.5.4c2.2.3,8.4,1,13.1,3.4l.8.5c1,.6,6.4,3.9,6.5,8.9s-5.2,8.1-5.4,8.2c1.6,0,6.3-.2,9.4-3.6,1-1.1,1.9-2.7,2.8-6.9a47.7,47.7,0,0,0,1-12.5c-.2-4.8.7-12.1,6.3-22.4a10.7,10.7,0,0,0,.1-11.3c-3.1-5-8.9-5-9.2-5-9.7,8.5-15.6,12-17.6,10.5s-.9-4.4,1.2-10.2"/><path class="f" d="M1886.1,457.4a5.3,5.3,0,0,1,3.3.2c4.1,1.5,4.7,9.3,6.1,23,.9,8.3,1.3,12.4,1.6,14.2,3.1,19.3,12.3,32.2,10.7,33.1s-2.9-1.9-5.6-4.7a77.2,77.2,0,0,1-5.6-7.2c-.4-.5-3-4.1-4.5-6.5-6.2-9.9-9.4-23-10.8-29-2.3-9.9-2.3-14.4-.6-17.9.7-1.3,2.3-4.5,5.4-5.2"/><path class="i" d="M1895.5,469.2c1-8.3-3.8-14.7-8.1-15.2s-11.4,5.3-11.4,14.6a31,31,0,0,1,19.5.6"/><path class="j" d="M1857.6,499.4c-3.1,5.1-23,3.2-35.1-7-9.1-7.6-14.9-20.6-11-24.5s21.2,2.9,31.5,10.9c6.3,5,17.6,15.8,14.6,20.6"/><path class="j" d="M1814.3,466.7c5.1,0,11.4,12.8,9.7,23.3-.5,2.7-1.8,5.3-4.4,10.6a87,87,0,0,1-11.4,17.4c-5.8,7-8.8,10.5-10.2,10-6.1-2,5.3-61.2,16.3-61.3"/><path class="v" d="M1880.8,511.4c-3.2,5.4-23,3.2-35.2-7.9-9-8.3-14.7-22.3-10.7-26.5s21.1,3.4,31.4,12.1c6.3,5.4,17.5,17.2,14.5,22.3"/><path class="v" d="M1837.9,475.7c5.1,0,11.3,13.8,9.5,25-.5,3-1.8,5.8-4.4,11.3a96.9,96.9,0,0,1-11.5,18.7c-5.9,7.4-8.9,11.1-10.3,10.6-6-2.3,5.7-65.7,16.7-65.6"/><path class="f" d="M1870,445.7a7.3,7.3,0,0,1-2.9-1.5,5.3,5.3,0,0,1-1.7-2.5c-1.3-4.8,5.8-11.7,13.1-12.7,1.4-.2,5.6-.7,8.5,2.1a8.7,8.7,0,0,1,1.6,10.3,11.8,11.8,0,0,1-3.8,4.2c-2.2,1.5-7.9,2.3-14.8.1"/><path class="f" d="M1871.6,445.6l-1.4,6-1.8.7-1.1.5c-3.1,6.9-3.9,10.9-2.4,12.2s9.2-2.3,20.9-12.3l-3.5-.6c-.1-4-.2-7.9-.2-11.8l-10.5,5.3"/><path class="k" d="M1883.1,447.9a3.4,3.4,0,0,1-.5-4.7l.4-.3-6.7-13.5a12.8,12.8,0,0,1,2.7-.5c1.5-.1,5.7-.4,8.5,2.6a9.1,9.1,0,0,1,1.5,9.5,7.2,7.2,0,0,1-1.4,2,3.3,3.3,0,0,1-.1,4.7,3.2,3.2,0,0,1-4.4.2Z"/><path class="f" d="M1885.4,439.7c.8,1.5-.2,3.5-2.2,4.6s-4.3.8-5.1-.7.2-3.5,2.3-4.6,4.2-.7,5,.7"/><path class="j" d="M1873.2,435.1a1.2,1.2,0,0,1-1-.5c-.4-.8.3-1.7,1.1-2.5a.6.6,0,0,1,.9.8h-.1a3.1,3.1,0,0,0-.9,1.1,7.5,7.5,0,0,0,3-.4.6.6,0,0,1,.7.4c.1.2-.1.5-.4.6a9.5,9.5,0,0,1-3.3.5m0-1Z"/><path class="j" d="M1416.6,1171.1c-11.1,4.8-39.2-20.9-45.5-51.8-4.7-22.9,2.2-51.1,13-53,12.3-2.2,28.9,29,35,54,3.8,15.4,7.8,46.3-2.5,50.8"/><path class="j" d="M1389,1066.7c7.9,5.8,2.1,34.2-13.4,49.6-4.1,4-9.2,6.9-19.5,12.6a182.5,182.5,0,0,1-38.9,15.8c-17.4,4.9-26.1,7.3-27.7,5-7-10.3,82.6-95.5,99.5-83"/><path class="j" d="M1468.2,1122.7a85.1,85.1,0,0,1-25.3-25.4c-19.2-31.1-10.9-70.1-15.4-70.3-.5,0-1.4.5-4.1,7.4-3.7,9.5-7.7,20.1-7.7,34.9,0,3.8.4,23.3,13.3,44.4a97.6,97.6,0,0,0,23.1,25.7Z"/><path class="f" d="M1474.6,1150.8a84.6,84.6,0,0,1,27.9,22.5c22.4,28.9,18.2,68.6,22.7,68.3.5,0,1.4-.6,3.3-7.8,2.7-9.9,5.6-20.8,4-35.5-2.4-21.9-13.3-36.6-17.9-42.7a94.2,94.2,0,0,0-24.4-22.7,17.4,17.4,0,0,0-8.2,3.3c-6.8,5-7.3,13.3-7.4,14.6"/><path class="f" d="M1437.6,1189.2c-7.7,9.3-44.4-1.1-63.9-25.9-14.5-18.4-21-46.6-12.1-53.3s38.8,13,55.5,32.6c10.2,12.2,27.7,37.9,20.5,46.6"/><path class="f" d="M1366.1,1108.2c9.7,1.7,17.2,29.7,10.3,50.3-1.8,5.5-5.2,10.4-11.9,20.1a187.9,187.9,0,0,1-27.5,31.6c-13.4,12.2-20.2,18.2-22.6,16.8-10.9-6.1,31-122.4,51.7-118.8"/><path class="f" d="M1471.2,1117.9c-3.7-1.8-4.7-3.9-5.1-5.1-2-6.8,7.8-17.1,18.3-18.7,2.1-.3,8-1.2,12.3,2.8a13,13,0,0,1,3.2,13.5c-.7,2-1.8,3.5-5.9,7.3a160.9,160.9,0,0,1-12.7,10.7l4.3,2.1,4.6,2.4c-1.7.3-4.3.7-7.5,1-8.7.8-16.8,1.5-20.5-3.1a9.2,9.2,0,0,1-1.9-5.5c.1-.3,3.3-5.8,3.3-5.8l.6.4,2.1,1.4,4.9-3.4"/><path class="v" d="M1481.3,1099.5c-6.3-1.1-9.8-6.6-8.7-10.9s6-6.4,9.7-5.7,2.8,2.6,8.8,7.8c3.1,2.6,4.3,3,8,6.4s4.1,4.3,4.6,5.3l.2.5c1.7,4.9-4.8,12.2-5.2,12.6a24.5,24.5,0,0,1-9.3,6.5,5.8,5.8,0,0,1-6.3-.4c.8,0,7.1.3,10-4,.4-.7,2.2-3.2,1-5.5a4.7,4.7,0,0,0-4.2-2.5,5.4,5.4,0,0,0-4.8,3.2c-1.3-4.4-2.6-8.9-3.8-13.3"/><path class="z" d="M1475.4,1103c-1.5,1.5-1.7,2.2-1.5,2.6s1.2.8,5.3-.3"/><path class="f" d="M1329.5,1211.4c1.8,1.1,5.8,3.5,6.7,7.5a1.3,1.3,0,0,1,.1.6c.2,4.8-7.2,5.4-11.9,12.8-6.3,9.8-1.9,22.5-5.6,23.4-.3.1-1.1.2-2.6-1-4.7-3.7-5.4-11.4-4.9-21.6a169,169,0,0,1,4.8-32.4,86.2,86.2,0,0,0,13.4,10.7"/><path class="j" d="M1308.2,1145.2c1.1,1.7,3.8,5.6,2.9,9.6,0,.2-.1.4-.1.6-1.8,4.5-8.8,1.9-16.2,6.6-9.8,6.3-11.1,19.7-14.8,19-.3,0-1.1-.2-1.9-1.9-2.8-5.3-.2-12.7,4.5-21.8a164.9,164.9,0,0,1,17.8-27.4,76.1,76.1,0,0,0,7.8,15.3"/><path class="i" d="M1463.9,1119.6c-10.2-2.2-19.9,1.2-24.2,8.3a18.4,18.4,0,0,0-2.4,11.4l-13.8-1.6-11.9-1.1c5.1,5.8,9.2,10.9,12.3,14.8,8.7,11.4,10.2,15,10.9,17.6s3.3,11-.6,17.9a19.2,19.2,0,0,1-5,5.6,76,76,0,0,0,16.2-3.7c21.6-7.5,34.3-23.4,39.9-31.5-.5-.7-5.2-6.9-3-14.6a16.8,16.8,0,0,1,7.9-9.8c-15.8,1.8-27.2-.6-28.7-5.9-.4-1.2-.6-3.5,2.4-7.4"/><path class="aa" d="M1398.2,933.1l26.6,16.6a4.1,4.1,0,0,1,1.3,5.8h0l-38,60.8a4.2,4.2,0,0,1-5.8,1.4h0l-26.6-16.7a4.3,4.3,0,0,1-1.3-5.8h0l38-60.8a4.3,4.3,0,0,1,5.8-1.3Z"/><path class="p" d="M1422.6,950.8l-3.9-2.4-.3.4a2.6,2.6,0,0,1-3.6.9l-12.3-7.7a2.6,2.6,0,0,1-.8-3.6h0l.3-.5-3.7-2.2a3.1,3.1,0,0,0-4.3.9l-36.9,59.1a3.1,3.1,0,0,0,1,4.3l24.2,15.2a3.2,3.2,0,0,0,4.4-1h0l36.9-59.1a3.1,3.1,0,0,0,.4-2.3A3.2,3.2,0,0,0,1422.6,950.8Z"/><path class="ab" d="M1390.6,960a12.6,12.6,0,0,1,5.7-1.1,7.4,7.4,0,0,1,6.8,4.8,11.8,11.8,0,0,1,1.1,5c.2-.4,2.6-6.5,2.3-10a7.9,7.9,0,0,0-.8-2.6,6.6,6.6,0,0,0-1.9-1.8,7.9,7.9,0,0,0-2.6-.8,7.5,7.5,0,0,0-2.6.4,8,8,0,0,0-2.7,1.8C1394.8,956.7,1393.1,958.1,1390.6,960Z"/><path class="q" d="M1397.7,954.3c0,.1-.1.1-.2.2a18.8,18.8,0,0,0-3.1,3.2,8.2,8.2,0,0,0-1.3,4,17.9,17.9,0,0,0-.2,4c.2,3.5.3,7.1.5,10.6s.1,2.2.3,7.8c.1,3,.2,7.3.5,12.5l-4.6.4-4.5,6.3c.5-14.2.4-20.8.2-24.1a45.6,45.6,0,0,1,.1-7.4,14.7,14.7,0,0,1,.8-5.5,17.9,17.9,0,0,1,2.7-4.4,30.2,30.2,0,0,1,4-4,29.5,29.5,0,0,1,2.4-2Z"/><path class="ac" d="M1406.4,959.9a.3.3,0,0,1-.1.2,15,15,0,0,1-1.5,4.2,7.9,7.9,0,0,1-3.2,2.8,17,17,0,0,1-3.5,1.9l-9.8,4-7.2,3-11.7,4.8c.6,1.4,1.1,2.9,1.6,4.4l-3.8,6.6c12.7-6.3,18.7-9,21.8-10.2a51.6,51.6,0,0,0,6.7-3.2,13.2,13.2,0,0,0,7.5-7.4,33.9,33.9,0,0,0,2-5.3c.4-1.5.7-2.4.8-3A27,27,0,0,0,1406.4,959.9Z"/><path class="aa" d="M1303.4,764.5l23.7-20.5a4.1,4.1,0,0,1,5.9.4h0l47.1,54.1a4.2,4.2,0,0,1-.4,5.9h0L1356,825a4.3,4.3,0,0,1-6-.4h0l-47-54.1a4.4,4.4,0,0,1,.4-6Z"/><path class="p" d="M1327.5,746.4l-3.5,3,.4.4a2.7,2.7,0,0,1-.3,3.7l-10.9,9.5a2.8,2.8,0,0,1-3.7-.2h0l-.4-.4-3.2,2.8a3.1,3.1,0,0,0-.3,4.4l45.7,52.6a3.1,3.1,0,0,0,4.4.3l21.6-18.8a3.1,3.1,0,0,0,.3-4.4h0l-45.7-52.6a3.3,3.3,0,0,0-2.1-1.1A3.6,3.6,0,0,0,1327.5,746.4Z"/><path class="ad" d="M1326.5,777.2a11.4,11.4,0,0,1,.5-5.2,6.6,6.6,0,0,1,2.1-3.1,7.6,7.6,0,0,1,3.8-1.6,10.3,10.3,0,0,1,4.6.3c-.3-.3-5-3.9-8.1-4.5a5.3,5.3,0,0,0-2.5.1,5.6,5.6,0,0,0-2,1.1,6,6,0,0,0-1.4,2.1,8.5,8.5,0,0,0-.3,2.3,6.6,6.6,0,0,0,.9,2.8A54.5,54.5,0,0,1,1326.5,777.2Z"/><path class="ae" d="M1323.4,769.6c0,.1,0,.2.1.2a15.8,15.8,0,0,0,2,3.6,8.5,8.5,0,0,0,3.1,2.1,15.7,15.7,0,0,0,3.5,1.1c3.1.8,6.2,1.6,9.3,2.2l6.9,1.8,11,2.6-.8,4.2,4.4,5.4c-12.3-3.9-18-5.5-21-6.1a47.5,47.5,0,0,1-6.4-2,12.4,12.4,0,0,1-4.5-2.1,10.7,10.7,0,0,1-3.2-3.5,27.6,27.6,0,0,1-2.5-4.4,16.8,16.8,0,0,1-1.1-2.6A10.4,10.4,0,0,1,1323.4,769.6Z"/><path class="af" d="M1330.4,763.4c0,.1.1.1.2.2a12.2,12.2,0,0,1,3.2,2.4,7.3,7.3,0,0,1,1.7,3.4,23.3,23.3,0,0,1,.8,3.6c.3,3.2.7,6.3,1,9.5s.2,2,.8,7c.3,2.7.8,6.6,1.2,11.3l4.3-.3,4.8,5c-2.4-12.6-3.2-18.5-3.4-21.5s-.6-4.5-1.1-6.6a16,16,0,0,0-1.6-4.8,14.8,14.8,0,0,0-3-3.6,31.9,31.9,0,0,0-4.2-3,24.2,24.2,0,0,0-2.4-1.5Z"/><path class="aa" d="M1332,596.1l26,17.5a4.3,4.3,0,0,1,1.1,5.9h0l-40,59.4a4.3,4.3,0,0,1-5.9,1.1h0l-26-17.5a4.3,4.3,0,0,1-1.1-5.9h0l40-59.4a4.3,4.3,0,0,1,5.9-1.1Z"/><path class="p" d="M1355.7,614.6l-3.8-2.5-.3.4a2.6,2.6,0,0,1-3.6.7l-12-8.1a2.6,2.6,0,0,1-.7-3.6h0l.3-.5-3.6-2.4a3.1,3.1,0,0,0-4.3.9l-39,57.7a3.3,3.3,0,0,0,.9,4.4l23.7,15.9a3.1,3.1,0,0,0,4.4-.8h0l38.9-57.7a3.4,3.4,0,0,0,.5-2.4A3.5,3.5,0,0,0,1355.7,614.6Z"/><path class="ag" d="M1321.7,624.5a11.4,11.4,0,0,1,5.2-.9,7.4,7.4,0,0,1,3.6,1.2,7,7,0,0,1,2.6,3.3,11,11,0,0,1,1,4.7c.1-.4,2.5-6,2.2-9.2a4,4,0,0,0-.7-2.4,4.4,4.4,0,0,0-1.6-1.7,4.6,4.6,0,0,0-2.5-.8,5,5,0,0,0-2.4.3,6.7,6.7,0,0,0-2.5,1.6C1325.5,621.5,1324,622.8,1321.7,624.5Z"/><path class="ah" d="M1328.3,619.3l-.2.2a16.4,16.4,0,0,0-3,2.9,8.1,8.1,0,0,0-1.2,3.7,15.9,15.9,0,0,0-.2,3.8c.1,3.2.1,6.5.3,9.7s0,2.1.1,7.3c0,2.7.1,6.7.3,11.6l-4.4.3-4.2,5.7c.7-13.1.7-19.2.6-22.3a39.8,39.8,0,0,1,.2-6.9,16.9,16.9,0,0,1,.8-5,15.9,15.9,0,0,1,2.6-4.1,32.4,32.4,0,0,1,3.8-3.6,14.9,14.9,0,0,1,2.3-1.8A17,17,0,0,1,1328.3,619.3Z"/><path class="ai" d="M1336.2,624.6v.3a18,18,0,0,1-1.6,3.8,7.3,7.3,0,0,1-2.9,2.6,18,18,0,0,1-3.4,1.7l-9.1,3.5-6.7,2.7-10.8,4.2,1.4,4.1-3.7,6.1c11.8-5.7,17.5-8.1,20.4-9.1a58.9,58.9,0,0,0,6.3-2.9,14.4,14.4,0,0,0,4.2-2.7,13.8,13.8,0,0,0,2.8-4,29.2,29.2,0,0,0,1.9-4.9,16.3,16.3,0,0,0,.8-2.8A20.2,20.2,0,0,0,1336.2,624.6Z"/><path class="aa" d="M1297.6,842.1l31.1,4.3a4.3,4.3,0,0,1,3.6,4.8h0l-10,71a4.3,4.3,0,0,1-4.8,3.6h0l-31-4.4a4.2,4.2,0,0,1-3.6-4.8h0l9.9-71a4.2,4.2,0,0,1,4.8-3.5Z"/><path class="p" d="M1327.1,848.3l-4.6-.6v.5a2.6,2.6,0,0,1-3,2.2l-14.3-2a2.6,2.6,0,0,1-2.3-2.9h0v-.6l-4.2-.6a3.3,3.3,0,0,0-3.6,2.7l-9.7,69a3.1,3.1,0,0,0,2.7,3.5l28.3,4a3.2,3.2,0,0,0,3.6-2.7h0l9.7-68.9a3.4,3.4,0,0,0-.6-2.4A3.5,3.5,0,0,0,1327.1,848.3Z"/><path class="aj" d="M1302.9,872.4a9.4,9.4,0,0,1,4-2.8,6,6,0,0,1,3.5-.5,6.8,6.8,0,0,1,3.5,1.7,8.5,8.5,0,0,1,2.7,3.5c0-.3-.3-6-1.9-8.6a4.1,4.1,0,0,0-1.5-1.7,4.9,4.9,0,0,0-2.1-.8,5.8,5.8,0,0,0-2.3.3,6.4,6.4,0,0,0-1.9,1.3,6.1,6.1,0,0,0-1.5,2.4C1304.9,868.4,1304.1,870.1,1302.9,872.4Z"/><path class="ak" d="M1306.3,865.4c0,.1,0,.2-.1.2a16,16,0,0,0-1.2,3.7,7.4,7.4,0,0,0,.4,3.6,17.9,17.9,0,0,0,1.3,3.2c1.5,2.7,2.8,5.4,4.3,8s.8,1.8,3,6l5,9.6-3.5,2-1.2,6.5c-4.8-11.2-7.2-16.3-8.6-18.8a61.1,61.1,0,0,1-2.7-5.8,15.1,15.1,0,0,1-1.3-4.6,13.8,13.8,0,0,1,.5-4.5,34.7,34.7,0,0,1,1.7-4.5,14.7,14.7,0,0,1,1.2-2.5A22.5,22.5,0,0,1,1306.3,865.4Z"/><path class="al" d="M1315.1,866.6a.3.3,0,0,0,.1.2,25.6,25.6,0,0,1,.3,3.9,8.1,8.1,0,0,1-1.4,3.3,11.8,11.8,0,0,1-2.2,2.8c-2,2.2-4,4.5-6.1,6.6l-4.5,5-7.4,8,2.9,2.8-.6,6.6c7.6-9.6,11.3-13.8,13.3-15.9a62.6,62.6,0,0,0,4.1-4.9,15.2,15.2,0,0,0,2.4-4.1,13.1,13.1,0,0,0,.7-4.4,26.3,26.3,0,0,0-.4-4.9c-.2-1.3-.4-2.1-.5-2.6A21.7,21.7,0,0,0,1315.1,866.6Z"/><path class="l" d="M606.7,859.6c.5,3.8-6.8,7.9-16.2,9.1s-18-4.5-18-4.5,6.7-7.9,16.2-9.1,17.5.8,18,4.5"/><path class="l" d="M599.1,843.2c-.2,3.7-7.9,6.3-17.1,5.8s-16.4-7.6-16.4-7.6,7.8-6.3,17.1-5.8,16.6,3.9,16.4,7.6"/><path class="l" d="M594.9,826.3c-1,3-7.9,3.4-15.4.8s-11.7-10-11.7-10,7.9-3.4,15.4-.8,12.7,7,11.7,10"/><path class="l" d="M592.5,809.2c-1.4,2.4-7.4,1.3-13.3-2.3s-8-11-8-11,7.4-1.3,13.3,2.4,9.5,8.6,8,10.9"/><path class="l" d="M614.6,869.9c3,2.4,10.2-1.7,16.2-9.1s5.4-17.8,5.4-17.8-10.2,1.7-16.2,9.1-8.4,15.4-5.4,17.8"/><path class="l" d="M622.1,878.8c-.5-4.4-9.8-6.9-20.7-5.5s-18.8,10.3-18.8,10.3,9.8,6.8,20.7,5.5,19.4-5.9,18.8-10.3"/><path class="l" d="M640.3,895.2c-1.2-4.9-12.3-6.5-24.7-3.5s-20.2,14.5-20.2,14.5,12.2,6.5,24.6,3.5,21.5-9.5,20.3-14.5"/><path class="l" d="M632.3,887.6c3.7,2.3,11.4-3.5,17.1-12.9s3.4-21.2,3.4-21.2-11.4,3.5-17.1,13-7.2,18.9-3.4,21.1"/><path class="l" d="M603.4,852c2.5,2.7,10-.3,16.8-6.7s7.5-16.4,7.5-16.4-10.1.3-16.8,6.7-10.1,13.7-7.5,16.4"/><path class="l" d="M596.4,835.7c1.9,2.5,8.5.5,14.7-4.4s7.7-13.3,7.7-13.3-8.6-.5-14.8,4.4-9.6,10.8-7.6,13.3"/><path class="l" d="M594,816.6c1.6,2.2,7.5.8,13.2-3.2s7.4-11.3,7.4-11.3-7.5-.9-13.2,3.1-9,9.1-7.4,11.4"/><path class="l" d="M594.4,794.6c-2.7-.3-4.2-5.9-3.5-12.5s6.1-11.4,6.1-11.4,4.2,5.8,3.5,12.4-3.5,11.8-6.1,11.5"/><path class="l" d="M594.6,801.8c-1.6-2.1,1.5-7.1,6.8-11s12.5-3.3,12.5-3.3-1.4,7-6.7,11-11,5.5-12.6,3.3"/><path class="am" d="M594.7,794.1a94.8,94.8,0,0,0,.9,36c6.9,31.4,27.2,50,33.3,55.3a105.1,105.1,0,0,0,18.6,13"/><path class="j" d="M651.3,841.5c-1.1,2.9-7.8,2.9-15,.1s-11-10.2-11-10.2,7.9-2.9,15-.1,12.1,7.3,11,10.2"/><path class="j" d="M652.3,826.9c-1.6,2.5-8,1.4-14.4-2.5s-8.6-11.8-8.6-11.8,8-1.4,14.3,2.5,10.3,9.2,8.7,11.8"/><path class="j" d="M655.9,813.3c-1.9,1.7-6.9-.7-11.2-5.4s-4.4-11.6-4.4-11.6,6.9.7,11.2,5.4,6.3,9.9,4.4,11.6"/><path class="j" d="M660.9,800.3c-2,1.1-5.8-2-8.6-6.9s-1.4-10.8-1.4-10.8,5.8,2,8.5,6.9,3.4,9.7,1.5,10.8"/><path class="j" d="M652.9,851.8c1.2,2.9,7.9,2.8,15-.1s10.8-10.5,10.8-10.5-7.9-2.8-15,.2-12,7.6-10.8,10.4"/><path class="j" d="M654.8,861.1c1.3-3.3-4.3-8.7-12.5-12s-17.4,0-17.4,0,4.3,8.6,12.6,11.9,16,3.4,17.3.1"/><path class="j" d="M661.2,879.7c1.1-4-6.1-9.3-16-12s-20,2.4-20,2.4,6.1,9.3,16.1,12,18.9,1.6,19.9-2.4"/><path class="j" d="M658.5,871.3c1.8,3,9.5,1.9,17.2-2.6s10.6-13.6,10.6-13.6-9.4-2-17.1,2.5-12.5,10.6-10.7,13.7"/><path class="j" d="M651.9,834.8c.8,2.9,7.3,3.7,14.5,1.8s11.7-8.7,11.7-8.7-7.2-3.7-14.5-1.8-12.5,5.8-11.7,8.7"/><path class="j" d="M653.3,820.6c.4,2.5,5.9,3.7,12.1,2.6s10.7-6.5,10.7-6.5-5.9-3.7-12.2-2.6-11,3.9-10.6,6.5"/><path class="j" d="M659.1,806.1c.2,2.2,4.9,3.5,10.5,2.9s9.7-5.2,9.7-5.2-5-3.5-10.6-2.9-9.9,2.9-9.6,5.2"/><path class="j" d="M667.9,790.7c-1.8-1.3-.7-5.8,2.3-10.2s8.8-5.8,8.8-5.8.7,5.8-2.4,10.2-7,7-8.7,5.8"/><path class="j" d="M665.2,795.9c-.3-2.1,3.8-4.5,9.1-5.2s10.2,2.5,10.2,2.5-3.8,4.5-9.1,5.2-9.9-.4-10.2-2.5"/><path class="an" d="M668.3,790.5a76.1,76.1,0,0,0-13.4,25.7c-7.3,25-.1,46,2.1,52.1a84.2,84.2,0,0,0,8.1,16.5"/><path class="k" d="M1896.5,450.6h0a8.2,8.2,0,0,1-10.8-4.3h0a8.2,8.2,0,0,1,10.8,4.3Z"/><path class="k" d="M1888.2,457.3h0a8.3,8.3,0,0,1-3.4-11.2h0a8.3,8.3,0,0,1,3.4,11.2Z"/></svg>