<svg xmlns="http://www.w3.org/2000/svg" width="1081.557" height="1055.126" viewBox="0 0 1081.557 1055.126">
  <path id="Pfad_1074" data-name="Pfad 1074" d="M.915,130.853c1.1-12.1,2.765-26.3,6.755-39.931,4.513-15.405,9.87-27.822,16.376-37.96C28.53,45.989,32.689,39.525,37.959,33.7A123.3,123.3,0,0,1,54.423,18.846c5.356-4.107,11.54-7.014,17.52-9.825l.99-.465a75.275,75.275,0,0,1,14.155-5A120.984,120.984,0,0,1,116.138,0c1.553,0,3.118.03,4.671.1,12.9.5,25.714,3.11,36.546,5.593,18.414,4.221,37.62,10.935,60.441,21.13,39.84,17.78,78.156,41.471,115.21,64.383q8.787,5.434,17.579,10.844c18.3,11.233,40.077,24.286,62.769,35.929,12.071,5.844,23.412,10.729,34.67,14.936,12.522,4.668,25.188,8.709,34.824,11.707,15.163,4.726,30.658,9.177,45.642,13.48,10.362,2.976,20.724,5.952,31.063,9.038,32,9.555,56.15,17.787,78.3,26.691,29.667,11.938,54.252,24.743,75.159,39.148a268.809,268.809,0,0,1,32.9,27.262,182.035,182.035,0,0,1,24.051,28.34,186.881,186.881,0,0,1,20.351,37.359l.621,1.3.349.715c5.356,11.062,9.566,23.08,13.419,34.441a221.911,221.911,0,0,1,7.815,30.688,311.206,311.206,0,0,1,4.38,37.716,214.453,214.453,0,0,1-.555,31.975,290.05,290.05,0,0,1-5.479,37.641c-2.987,13.464-7.645,26.272-12.232,38.105a185.453,185.453,0,0,1-13.231,26.9,300.878,300.878,0,0,1-22.13,32.525A214.938,214.938,0,0,1,744.23,639a293.97,293.97,0,0,1-27.873,24.256c-18.751,14.3-39.136,24.4-54.8,31.6A308.255,308.255,0,0,1,608.2,713.232c-18.324,4.649-38.115,8.112-62.281,10.9a520.313,520.313,0,0,1-55.352,3.2c-1.985.02-3.976.029-5.961.029-41.534,0-80.877-4.417-116.937-13.128-40.277-9.709-79.363-26.785-116.172-50.752-16.683-10.864-33.357-24.266-54.065-43.455a403.86,403.86,0,0,1-44.523-49.243c-15.053-19.457-30.059-42.226-45.872-69.607a698.093,698.093,0,0,1-35.9-71.956C60.367,404.416,50.144,377,39.882,345.408c-7.317-22.521-13.6-45.861-19.931-69.785-6.989-26.382-11.51-46.983-14.656-66.8C3.1,195.082,1.489,180.743.511,166.208A224.045,224.045,0,0,1,.915,130.853Z" transform="matrix(0.839, -0.545, 0.545, 0.839, 0, 445.109)" fill="#f6f9ff"/>
</svg>
