<svg xmlns="http://www.w3.org/2000/svg" width="26" height="19.532" viewBox="0 0 26 19.532">
  <g id="email" transform="translate(0 -2)">
    <path id="Pfad_6618" data-name="Pfad 6618" d="M12.636,14.818a1,1,0,0,1-.666-.254L4.334,7.746A1,1,0,0,1,5.666,6.254l6.97,6.224,6.97-6.224a1,1,0,0,1,1.332,1.492L13.3,14.564A1,1,0,0,1,12.636,14.818Z" transform="translate(0.364 -0.104)" fill="#9aa9fb"/>
    <path id="Rechteck_1118" data-name="Rechteck 1118" d="M2-1H22a3,3,0,0,1,3,3V15.532a3,3,0,0,1-3,3H2a3,3,0,0,1-3-3V2A3,3,0,0,1,2-1ZM22,16.532a1,1,0,0,0,1-1V2a1,1,0,0,0-1-1H2A1,1,0,0,0,1,2V15.532a1,1,0,0,0,1,1Z" transform="translate(1 3)" fill="#9aa9fb"/>
    <path id="Linie_111" data-name="Linie 111" d="M0,2.948a1,1,0,0,1-.746-.334A1,1,0,0,1-.666,1.2L1.516-.746a1,1,0,0,1,1.412.08A1,1,0,0,1,2.848.746L.666,2.694A1,1,0,0,1,0,2.948Z" transform="translate(5.364 14.688)" fill="#9aa9fb"/>
    <path id="Linie_112" data-name="Linie 112" d="M2.181,2.948a1,1,0,0,1-.666-.254L-.666.746A1,1,0,0,1-.746-.666,1,1,0,0,1,.666-.746L2.848,1.2a1,1,0,0,1-.666,1.746Z" transform="translate(18.455 14.688)" fill="#9aa9fb"/>
  </g>
</svg>
