<svg xmlns="http://www.w3.org/2000/svg" xmlns:xlink="http://www.w3.org/1999/xlink" width="419.566" height="396.958" viewBox="0 0 419.566 396.958">
  <defs>
    <clipPath id="clip-path">
      <path id="Pfad_5371" data-name="Pfad 5371" d="M4.642,40.4,57.7,3.251A5.662,5.662,0,0,1,65.59,4.643L90.666,40.455a5.662,5.662,0,0,1-1.392,7.893L36.219,85.5a5.662,5.662,0,0,1-7.893-1.392L3.251,48.293A5.662,5.662,0,0,1,4.642,40.4Z" fill="#fff2c3"/>
    </clipPath>
    <clipPath id="clip-path-2">
      <path id="Pfad_5371-2" data-name="Pfad 5371" d="M14,.972l52.213,11.1a4.667,4.667,0,0,1,3.6,5.54L62.321,52.853a4.667,4.667,0,0,1-5.54,3.6L4.569,45.352a4.667,4.667,0,0,1-3.6-5.54L8.462,4.569A4.667,4.667,0,0,1,14,.972Z" fill="#c6d0fe"/>
    </clipPath>
  </defs>
  <g id="Gruppe_3563" data-name="Gruppe 3563" transform="translate(-164.855 -6754.96)">
    <path id="Pfad_2625" data-name="Pfad 2625" d="M96.006,5.64C89.391-4.97,62.538-.173,36.026,16.354S0,65.491,0,65.491s33.468,5.814,59.979-10.714S102.62,16.251,96.006,5.64Z" transform="translate(284.85 7007) rotate(60)" fill="#377e62"/>
    <path id="Pfad_2625-2" data-name="Pfad 2625" d="M96.005,5.64C89.391-4.97,62.538-.173,36.026,16.354S0,65.491,0,65.491,33.468,71.3,59.979,54.778,102.62,16.251,96.005,5.64Z" transform="translate(258.611 7042.287) rotate(34)" fill="#69b497"/>
    <path id="Pfad_2625-3" data-name="Pfad 2625" d="M62.646,3.681C58.331-3.243,40.808-.113,23.508,10.672S0,42.735,0,42.735s21.839,3.794,39.138-6.991S66.962,10.6,62.646,3.681Z" transform="translate(451.125 7075.142) rotate(167)" fill="#69b497"/>
    <path id="Pfad_2625-4" data-name="Pfad 2625" d="M50.122,2.945C46.669-2.595,32.65-.09,18.808,8.538S0,34.191,0,34.191,17.473,37.227,31.314,28.6,53.575,8.484,50.122,2.945Z" transform="matrix(-0.719, -0.695, 0.695, -0.719, 437.092, 7134.37)" fill="#69b497" opacity="0.4"/>
    <g id="Gruppe_3513" data-name="Gruppe 3513" transform="matrix(0.966, -0.259, 0.259, 0.966, 151.649, 6783.229)">
      <rect id="Rechteck_1181" data-name="Rechteck 1181" width="44.804" height="197.31" rx="8" transform="translate(86.162 184.386)" fill="#4c4981"/>
      <path id="Pfad_7116" data-name="Pfad 7116" d="M41.754,0H205.827a10.438,10.438,0,0,1,10.438,10.438V129.144a10.438,10.438,0,0,1-10.438,10.438H10.438A10.438,10.438,0,0,1,0,129.144V41.754A41.754,41.754,0,0,1,41.754,0Z" transform="translate(0 68.929)" fill="#c6d0fe"/>
      <g id="Pfad_7117" data-name="Pfad 7117" transform="translate(139.582 68.929)" fill="#4c4981" stroke-linecap="round">
        <path d="M 119.4343566894531 134.0823516845703 L 5.219155788421631 134.0823516845703 L 5.499996662139893 62.89839553833008 C 5.499996662139893 31.05537223815918 31.05536079406738 5.500009059906006 62.46717834472656 5.500009059906006 C 93.87899780273438 5.500009059906006 119.4343566894531 31.05537223815918 119.4343566894531 62.46716690063477 L 119.4343566894531 134.0823516845703 Z" stroke="none"/>
        <path d="M 113.9343566894531 128.5823516845703 L 113.9343566894531 62.46716690063477 C 113.9343566894531 34.08808135986328 90.84626770019531 10.99999141693115 62.46717834472656 10.99999141693115 C 34.08808898925781 10.99999141693115 11.00000190734863 34.08808135986328 11.00000190734863 62.89840316772461 L 11.00000190734863 128.5823516845703 L 113.9343566894531 128.5823516845703 M 119.7152099609375 139.5823516845703 L 5.219149112701416 139.5823516845703 C 2.336884260177612 139.5823516845703 1.874138320090424e-06 137.2454681396484 1.874138320090424e-06 134.3627319335938 L 0.00147246231790632 62.89840316772461 C 0.0005018741358071566 62.75543212890625 1.874138320090424e-06 62.61037445068359 1.874138320090424e-06 62.46716690063477 C 1.874138320090424e-06 27.96758079528809 27.96759033203125 -8.257698027591687e-06 62.46717834472656 -8.257698027591687e-06 C 96.966796875 -8.257698027591687e-06 124.9343566894531 27.96758079528809 124.9343566894531 62.46716690063477 C 124.9343566894531 62.61037445068359 124.9338531494141 62.75543212890625 124.9328842163086 62.89840316772461 L 124.9343566894531 62.89840316772461 L 124.9343566894531 134.3627319335938 C 124.9343566894531 137.2454681396484 122.5979461669922 139.5823516845703 119.7152099609375 139.5823516845703 Z" stroke="none" fill="#a1adf9"/>
      </g>
      <rect id="Rechteck_1185" data-name="Rechteck 1185" width="139.582" height="35.326" transform="translate(0 146.475)" fill="#9eadff" opacity="0.3"/>
      <g id="Rechteck_1183" data-name="Rechteck 1183" transform="translate(12.25 5.304)">
        <path id="Pfad_7108" data-name="Pfad 7108" d="M1.814,0H67.362a1.81,1.81,0,0,1,1.81,1.81V44.236a1.81,1.81,0,0,1-1.81,1.81H1.886A1.81,1.81,0,0,1,.593,42.969l18.04-18.416a1.811,1.811,0,0,0,.016-2.518L.505,3.061A1.81,1.81,0,0,1,1.814,0Z" transform="translate(0 0)" fill="#fc6681"/>
      </g>
      <ellipse id="Ellipse_710" data-name="Ellipse 710" cx="17.663" cy="17.663" rx="17.663" ry="17.663" transform="translate(63.76 99.086)" fill="#5d5cb0"/>
      <ellipse id="Ellipse_709" data-name="Ellipse 709" cx="9.909" cy="9.909" rx="9.909" ry="9.909" transform="translate(71.514 106.841)" fill="#4c4981"/>
      <rect id="Rechteck_1183-2" data-name="Rechteck 1183" width="6.031" height="117.18" rx="3.016" transform="translate(78.407 0)" fill="#4c4981"/>
      <rect id="Rechteck_1186" data-name="Rechteck 1186" width="11.201" height="184.817" rx="5.601" transform="translate(324.398 197.31) rotate(90)" fill="#5d5cb0"/>
    </g>
    <g id="Gruppe_3516" data-name="Gruppe 3516" transform="matrix(0.966, -0.259, 0.259, 0.966, 332.947, 6878.041)">
      <path id="Pfad_7123" data-name="Pfad 7123" d="M0,0H57.568a6,6,0,0,1,6,6V44.648a6,6,0,0,1-6,6H0Z" fill="#fff"/>
      <path id="Pfad_7111" data-name="Pfad 7111" d="M1.55,0H11.37a1.55,1.55,0,0,1,1.55,1.55V11.37a1.55,1.55,0,0,1-1.55,1.55H1.55A1.55,1.55,0,0,1,0,11.37V1.55A1.55,1.55,0,0,1,1.55,0Z" transform="translate(45.997 5.168)" fill="#fc6681"/>
      <g id="Gruppe_3517" data-name="Gruppe 3517" transform="translate(4.062 10.663)">
        <ellipse id="Ellipse_711" data-name="Ellipse 711" cx="12.229" cy="12.229" rx="12.229" ry="12.229" transform="translate(0 0)" fill="#fec2cc"/>
        <path id="Pfad_7113" data-name="Pfad 7113" d="M6.356,12.542l-.269-.3C2.391,8.113.938,6.489.9,6.447A3.93,3.93,0,0,1,0,3.954,4,4,0,0,1,4.037,0,4.178,4.178,0,0,1,7.008,1.556,4.178,4.178,0,0,1,9.979,0a4,4,0,0,1,4.037,3.954,3.914,3.914,0,0,1-.888,2.473L7.671,12.541a.884.884,0,0,1-.658.295A1.617,1.617,0,0,1,6.356,12.542Z" transform="translate(5.303 6.764)" fill="#ffeff2" opacity="0.3"/>
      </g>
      <path id="Pfad_7109" data-name="Pfad 7109" d="M2.353,6.665H25.879a1.568,1.568,0,1,1,0,3.137H2.353a1.568,1.568,0,1,1,0-3.137Z" transform="translate(30.224 35.683)" fill="#fc6681" opacity="0.4"/>
      <path id="Pfad_7110" data-name="Pfad 7110" d="M2.353,3.529H13.331a1.568,1.568,0,1,1,0,3.137H2.353a1.568,1.568,0,1,1,0-3.137Z" transform="translate(30.445 34.006)" fill="#fc6681"/>
    </g>
    <g id="Gruppe_2888" data-name="Gruppe 2888" transform="translate(383.883 6754.96)">
      <path id="Pfad_5366" data-name="Pfad 5366" d="M5.306,39.936,57.034,3.715a6.471,6.471,0,0,1,9.02,1.591L90.2,39.791a6.471,6.471,0,0,1-1.591,9.02L36.882,85.033a6.471,6.471,0,0,1-9.02-1.591L3.715,48.956a6.471,6.471,0,0,1,1.591-9.02Z" fill="#fec2cc"/>
      <path id="Pfad_1110" data-name="Pfad 1110" d="M48.647,54.566a3.263,3.263,0,0,1-.505,1.167,3.565,3.565,0,0,1-2.029,1.421,3.263,3.263,0,0,1-1.269.076L2.384,46.505c-.179-.682-.364-1.273-.505-1.8a5.7,5.7,0,0,1-.238-1.426,2.239,2.239,0,0,1,.336-1.222,4.218,4.218,0,0,1,1.216-1.19L61.441,3.477a3.007,3.007,0,0,1,1.415-.615,1.086,1.086,0,0,1,.826.248,1.459,1.459,0,0,1,.387.556,1.656,1.656,0,0,1,.1.309Z" transform="translate(0.708 1.146)" fill="#fc6681" opacity="0.2"/>
      <path id="Pfad_5369" data-name="Pfad 5369" d="M1.326,14.859,21.222.928a1.619,1.619,0,1,1,1.857,2.653L3.184,17.512a1.619,1.619,0,1,1-1.857-2.653Z" transform="translate(30.448 62.877)" fill="#ffd0d8" opacity="0.999"/>
      <path id="Pfad_5370" data-name="Pfad 5370" d="M1.326,7.43l9.285-6.5a1.619,1.619,0,1,1,1.857,2.653l-9.285,6.5A1.619,1.619,0,1,1,1.326,7.43Z" transform="translate(73.555 40.124)" fill="#fc6681" opacity="0.4"/>
      <path id="Pfad_5368" data-name="Pfad 5368" d="M1.326,7.43l9.285-6.5a1.619,1.619,0,1,1,1.857,2.653l-9.285,6.5A1.619,1.619,0,1,1,1.326,7.43Z" transform="translate(27.198 65.664)" fill="#fc6681"/>
      <g id="Gruppe_maskieren_8" data-name="Gruppe maskieren 8" clip-path="url(#clip-path)">
        <path id="Pfad_5367" data-name="Pfad 5367" d="M52.14,48.105a3.237,3.237,0,0,1-3.268,2.288L4.345,48.045a3.187,3.187,0,0,1-1.916-.74,3.317,3.317,0,0,1-1-3.5,3.187,3.187,0,0,1,1.233-1.642l57.55-40.3a3.187,3.187,0,0,1,1.965-.6,3.316,3.316,0,0,1,2.95,2.142,3.187,3.187,0,0,1,.04,2.053Z" transform="translate(-0.263 -0.185)" fill="#fc6681"/>
      </g>
    </g>
    <g id="Gruppe_2888-2" data-name="Gruppe 2888" transform="translate(513.637 6781.866)">
      <path id="Pfad_5366-2" data-name="Pfad 5366" d="M14.655,1.11,65.562,11.931a5.333,5.333,0,0,1,4.111,6.331L62.46,52.2a5.333,5.333,0,0,1-6.331,4.111L5.221,45.491A5.333,5.333,0,0,1,1.11,39.16L8.324,5.222A5.333,5.333,0,0,1,14.655,1.11Z" fill="#c6d0fe"/>
      <path id="Pfad_1110-2" data-name="Pfad 1110" d="M26.975,35.767a2.689,2.689,0,0,1-.987.351,2.938,2.938,0,0,1-2-.424,2.689,2.689,0,0,1-.759-.723L5.831,3.351c.311-.491.563-.935.8-1.317a4.7,4.7,0,0,1,.726-.945A1.845,1.845,0,0,1,8.284.6a3.476,3.476,0,0,1,1.4.064L64.961,14.763a2.478,2.478,0,0,1,1.166.507.9.9,0,0,1,.315.638,1.2,1.2,0,0,1-.118.546,1.366,1.366,0,0,1-.132.231Z" transform="translate(2.929 0.762)" fill="#5d5cb0" opacity="0.2"/>
      <path id="Pfad_5369-2" data-name="Pfad 5369" d="M1.86.277,21.44,4.439a1.334,1.334,0,1,1-.555,2.611L1.305,2.888A1.334,1.334,0,1,1,1.86.277Z" transform="translate(4.887 38.035)" fill="#fff" opacity="0.4"/>
      <path id="Pfad_5370-2" data-name="Pfad 5370" d="M1.86.277,11,2.22a1.334,1.334,0,1,1-.555,2.611L1.305,2.888A1.334,1.334,0,1,1,1.86.277Z" transform="translate(47.31 47.052)" fill="#fff" opacity="0.4"/>
      <path id="Pfad_5368-2" data-name="Pfad 5368" d="M1.86.278,11,2.22a1.334,1.334,0,1,1-.555,2.611L1.305,2.889A1.334,1.334,0,1,1,1.86.278Z" transform="translate(5.858 33.466)" fill="#fff"/>
      <g id="Gruppe_maskieren_8-2" data-name="Gruppe maskieren 8" clip-path="url(#clip-path-2)">
        <path id="Pfad_5367-2" data-name="Pfad 5367" d="M32.66,33.724a2.668,2.668,0,0,1-3.216-.684L5.832,4.881A2.626,2.626,0,0,1,5.2,3.311,2.733,2.733,0,0,1,6.749.736,2.626,2.626,0,0,1,8.432.556L65.068,12.594a2.626,2.626,0,0,1,1.464.849,2.733,2.733,0,0,1,.367,2.982A2.626,2.626,0,0,1,65.684,17.6Z" transform="translate(3.358 -0.054)" fill="#9eadff"/>
      </g>
    </g>
  </g>
</svg>
