<svg xmlns="http://www.w3.org/2000/svg" width="14.077" height="25.312" viewBox="0 0 14.077 25.312">
  <g id="Icon_24_Simple_Arrow_Down" data-name="Icon /24 /  Simple Arrow / Down" transform="translate(1.077 24.311) rotate(-90)">
    <path id="Fill_1_Copy_3" data-name="Fill 1 Copy 3" d="M11.3,23.311a.64.64,0,0,1-.459-.2L.246,12.258a.948.948,0,0,1,0-1.275L10.839.2a.63.63,0,0,1,.993.093.956.956,0,0,1-.078,1.184L1.787,11.623l9.968,10.211a.957.957,0,0,1,.075,1.185.661.661,0,0,1-.535.292" transform="translate(0 12) rotate(-90)" fill="#9aa9fb" stroke="#9aa9fb" stroke-miterlimit="10" stroke-width="2"/>
  </g>
</svg>
