<svg xmlns="http://www.w3.org/2000/svg" width="131.002" height="130.998" viewBox="0 0 131.002 130.998">
  <path id="Differenzmenge_4" data-name="Differenzmenge 4" d="M7832.5,23051a65.2,65.2,0,0,1-36.621-11.187,65.669,65.669,0,0,1-23.73-28.816,65.5,65.5,0,0,1,106.67-71.809,65.6,65.6,0,0,1,14.038,20.818,65.417,65.417,0,0,1-6.039,62.117,65.824,65.824,0,0,1-17.693,17.689A65.207,65.207,0,0,1,7832.5,23051Zm-15-94.346a3.008,3.008,0,0,0-3,3.006v51.682a3,3,0,0,0,4.53,2.582l43.526-25.842a3,3,0,0,0,0-5.162l-43.526-25.842A2.974,2.974,0,0,0,7817.493,22956.654Z" transform="translate(-7767 -22920.002)" fill="#f6f9ff"/>
</svg>
