<svg xmlns="http://www.w3.org/2000/svg" width="371.812" height="399.064" viewBox="0 0 371.812 399.064">
  <g id="Gruppe_2902" data-name="Gruppe 2902" transform="translate(-57.639 100.679)">
    <path id="Pfad_580" data-name="Pfad 580" d="M322.09,490.035c21.389.531,45.5,0,60.281-15.468,11.22-11.742,13.855-28.943,17.632-44.742,6.823-28.523,19.225-55.973,38.07-78.464s44.281-39.823,72.754-46.816c22.882-5.63,46.946-4.568,69.949-9.628s46.626-18.694,52.987-41.376" transform="translate(-261.889 -194.246)" fill="none" stroke="#9aa9fc" stroke-linecap="round" stroke-miterlimit="10" stroke-width="5" stroke-dasharray="0 11" opacity="0.5" style="isolation: isolate"/>
    <path id="Pfad_581" data-name="Pfad 581" d="M691.4,203.953l-68.864,25.1a1.35,1.35,0,0,0-.263,2.391l10.28,5.7a2.606,2.606,0,0,1,1.2,1.554l5.893,18.647c0,.789,1.435,1.2,1.566.43l.825-14.583a5.271,5.271,0,0,1,1.59-2.737l37.845-27.493a.85.85,0,0,1,.753-.1.764.764,0,0,1,.424.994.748.748,0,0,1-.185.273l-33.649,30.685a6.453,6.453,0,0,0-1.542,2.7L643.678,259.7c0,1.1.765,1.638,1.6.765l7.172-6.3a1.3,1.3,0,0,1,1.842-.011l.01.011,14.129,13.866a1.291,1.291,0,0,0,1.826-.007,1.275,1.275,0,0,0,.3-.483l22.365-61.824a1.3,1.3,0,0,0-1.649-1.709Z" transform="translate(-263.568 -203.936)" fill="#9aa9fb" style="isolation: isolate"/>
    <path id="Pfad_5391" data-name="Pfad 5391" d="M654.528,203.944l-32.456,11.831a.636.636,0,0,0-.124,1.127l4.845,2.687a1.228,1.228,0,0,1,.563.732l2.777,8.789c0,.372.676.563.738.2l.389-6.873a2.484,2.484,0,0,1,.749-1.29l17.837-12.958a.4.4,0,0,1,.355-.045.36.36,0,0,1,.2.469.352.352,0,0,1-.087.128l-15.859,14.462a3.042,3.042,0,0,0-.727,1.273l-1.69,5.741c0,.518.361.772.755.361l3.38-2.969a.614.614,0,0,1,.868-.005l0,.005,6.659,6.535a.609.609,0,0,0,.86,0,.6.6,0,0,0,.143-.228l10.541-29.138a.614.614,0,0,0-.777-.806Z" transform="translate(-389.568 -182.031)" fill="#9aa9fb" style="isolation: isolate"/>
    <path id="Pfad_5392" data-name="Pfad 5392" d="M677.933,203.95l-55.569,20.256a1.09,1.09,0,0,0-.212,1.929l8.3,4.6a2.1,2.1,0,0,1,.965,1.254l4.755,15.047c0,.637,1.158.965,1.264.347l.666-11.768a4.253,4.253,0,0,1,1.283-2.209l30.539-22.185a.686.686,0,0,1,.608-.077.616.616,0,0,1,.342.8.6.6,0,0,1-.149.22l-27.153,24.761a5.207,5.207,0,0,0-1.244,2.18l-2.894,9.829c0,.887.617,1.322,1.293.617l5.787-5.083a1.051,1.051,0,0,1,1.487-.009l.008.009,11.4,11.189a1.042,1.042,0,0,0,1.473-.006,1.029,1.029,0,0,0,.244-.39l18.047-49.888A1.052,1.052,0,0,0,677.837,204Z" transform="matrix(0.998, 0.07, -0.07, 0.998, -256.59, -347.483)" fill="#9aa9fb" style="isolation: isolate"/>
    <g id="Gruppe_417" data-name="Gruppe 417" transform="translate(299.873 187.27) rotate(25)">
      <rect id="Rechteck_348-2" data-name="Rechteck 348-2" width="8.981" height="8.923" transform="translate(70.161 23.101) rotate(-45)" fill="#4c4981"/>
      <rect id="Rechteck_349-2" data-name="Rechteck 349-2" width="8.981" height="8.923" transform="translate(62.227 6.351) rotate(-45)" fill="#9cb0fc"/>
      <rect id="Rechteck_350-2" data-name="Rechteck 350-2" width="10.909" height="10.839" transform="translate(0 20.024) rotate(-45)" fill="#fec2cc"/>
    </g>
  </g>
</svg>
