<svg width="208" height="152" viewBox="0 0 208 152" fill="none" xmlns="http://www.w3.org/2000/svg">
<path fill-rule="evenodd" clip-rule="evenodd" d="M200.899 109.426C200.899 113.905 200.038 118.384 198.315 122.863C196.593 127.342 194.009 131.39 190.563 135.008C187.118 138.625 182.898 141.554 177.902 143.793C172.906 146.033 167.308 147.152 161.106 147.152C154.215 147.152 147.583 145.86 141.209 143.276C134.835 140.692 129.409 136.989 124.93 132.165C121.14 127.686 118.212 122.346 116.145 116.145C114.077 109.943 113.044 103.397 113.044 96.5064C113.044 83.4142 115.369 71.3557 120.021 60.3307C124.672 49.3058 131.304 39.4867 139.917 30.8734C143.707 27.0836 148.014 23.5521 152.837 20.2791C157.661 17.006 162.226 14.2498 166.532 12.0104C170.839 9.77088 174.543 7.96209 177.643 6.58398C180.744 5.20584 182.639 4.34454 183.328 4L204 34.491C200.21 35.8691 195.99 37.6779 191.339 39.9173C186.687 42.1567 182.295 44.913 178.16 48.186C174.026 51.459 170.581 55.335 167.824 59.814C165.068 64.2928 163.518 69.4607 163.173 75.3178C173.165 75.3178 181.95 78.2463 189.53 84.1033C197.109 89.9603 200.899 98.4013 200.899 109.426H200.899ZM91.8552 109.426C91.8552 113.905 90.9939 118.384 89.2713 122.863C87.5486 127.342 84.9646 131.39 81.5194 135.008C78.0741 138.625 73.8536 141.554 68.8579 143.793C63.8622 146.033 58.2635 147.152 52.062 147.152C45.1714 147.152 38.5392 145.86 32.1654 143.276C25.7916 140.692 20.3652 136.989 15.8863 132.165C12.0965 127.686 9.16791 122.346 7.10077 116.145C5.03357 109.943 4 103.397 4 96.5064C4 83.4142 6.32555 71.3557 10.9767 60.3307C15.6279 49.3058 22.2601 39.4867 30.8733 30.8734C34.6632 27.0836 38.9698 23.5521 43.7933 20.2791C48.6167 17.006 53.1817 14.2498 57.4884 12.0104C61.795 9.77088 65.4987 7.96209 68.5994 6.58398C71.7002 5.20584 73.5951 4.34454 74.2842 4L94.9561 34.491C91.1662 35.8691 86.9457 37.6779 82.2945 39.9173C77.6434 42.1567 73.2506 44.913 69.1163 48.186C64.9819 51.459 61.5365 55.335 58.7803 59.814C56.0241 64.2928 54.4737 69.4607 54.1292 75.3178C64.1206 75.3178 72.9061 78.2463 80.4858 84.1033C88.0654 89.9603 91.8552 98.4013 91.8552 109.426Z" fill="#E1E6FF"/>
<path d="M200.899 109.426V105.426C198.69 105.426 196.899 107.217 196.899 109.426H200.899ZM198.315 122.863L202.049 124.299L202.049 124.299L198.315 122.863ZM190.563 135.008L187.667 132.249L187.667 132.249L190.563 135.008ZM177.902 143.793L179.538 147.443L179.538 147.443L177.902 143.793ZM141.209 143.276L142.712 139.569L142.712 139.569L141.209 143.276ZM124.93 132.165L121.877 134.749C121.916 134.796 121.957 134.842 121.999 134.887L124.93 132.165ZM116.145 116.145L112.35 117.41V117.41L116.145 116.145ZM120.021 60.3307L123.706 61.8855L123.706 61.8855L120.021 60.3307ZM139.917 30.8734L137.089 28.045V28.045L139.917 30.8734ZM152.837 20.2791L155.083 23.589L155.083 23.589L152.837 20.2791ZM166.532 12.0104L164.687 8.46148V8.46149L166.532 12.0104ZM177.643 6.58398L179.268 10.2392L179.268 10.2392L177.643 6.58398ZM183.328 4L186.639 1.75537C185.514 0.0954022 183.333 -0.474594 181.539 0.422354L183.328 4ZM204 34.491L205.367 38.2502C206.526 37.8287 207.426 36.8963 207.805 35.7231C208.185 34.5499 208.003 33.2671 207.311 32.2463L204 34.491ZM191.339 39.9174L193.074 43.5214L193.074 43.5213L191.339 39.9174ZM178.16 48.1861L180.643 51.3222L180.643 51.3222L178.16 48.1861ZM167.824 59.814L171.231 61.9104L171.231 61.9103L167.824 59.814ZM163.173 75.3178L159.18 75.0829C159.115 76.1827 159.507 77.2604 160.263 78.0619C161.019 78.8634 162.072 79.3178 163.173 79.3178V75.3178ZM189.53 84.1033L191.976 80.9382L191.976 80.9382L189.53 84.1033ZM200.899 109.426V113.426C203.108 113.426 204.899 111.635 204.899 109.426H200.899ZM89.2713 122.863L93.0047 124.299V124.299L89.2713 122.863ZM81.5194 135.008L78.6228 132.249L78.6228 132.249L81.5194 135.008ZM68.8579 143.793L70.4941 147.443L70.4941 147.443L68.8579 143.793ZM32.1654 143.276L33.6682 139.569L33.6682 139.569L32.1654 143.276ZM15.8863 132.165L12.8328 134.749C12.8725 134.796 12.9133 134.842 12.9551 134.887L15.8863 132.165ZM7.10077 116.145L10.8955 114.88L10.8955 114.88L7.10077 116.145ZM10.9767 60.3307L14.6622 61.8855L14.6622 61.8855L10.9767 60.3307ZM30.8733 30.8734L33.7018 33.7018L33.7018 33.7018L30.8733 30.8734ZM43.7933 20.2791L46.0392 23.589L46.0393 23.589L43.7933 20.2791ZM57.4883 12.0104L59.3338 15.5592L59.3338 15.5592L57.4883 12.0104ZM68.5994 6.58398L70.224 10.2392L70.224 10.2392L68.5994 6.58398ZM74.2842 4L77.5951 1.75537C76.4697 0.0954535 74.2891 -0.474566 72.4954 0.422281L74.2842 4ZM94.9561 34.491L96.323 38.2502C97.4819 37.8287 98.3817 36.8963 98.7616 35.7231C99.1414 34.5499 98.9589 33.2671 98.2669 32.2463L94.9561 34.491ZM82.2945 39.9174L84.0298 43.5214L84.0298 43.5214L82.2945 39.9174ZM69.1163 48.1861L71.5991 51.3223L71.5992 51.3222L69.1163 48.1861ZM58.7803 59.814L62.187 61.9104L62.187 61.9103L58.7803 59.814ZM54.1292 75.3178L50.1361 75.0829C50.0714 76.1826 50.4631 77.2604 51.2189 78.0619C51.9747 78.8634 53.0275 79.3178 54.1292 79.3178V75.3178ZM80.4858 84.1033L82.9316 80.9382L82.9316 80.9382L80.4858 84.1033ZM196.899 109.426C196.899 113.38 196.141 117.373 194.582 121.427L202.049 124.299C203.935 119.395 204.899 114.43 204.899 109.426H196.899ZM194.582 121.427C193.056 125.394 190.764 128.997 187.667 132.249L193.46 137.766C197.253 133.783 200.129 129.29 202.049 124.299L194.582 121.427ZM187.667 132.249C184.613 135.456 180.833 138.096 176.266 140.143L179.538 147.443C184.962 145.012 189.623 141.795 193.46 137.766L187.667 132.249ZM176.266 140.143C171.849 142.123 166.818 143.152 161.106 143.152V151.152C167.797 151.152 173.964 149.942 179.538 147.443L176.266 140.143ZM161.106 143.152C154.729 143.152 148.608 141.96 142.712 139.569L139.706 146.983C146.559 149.761 153.701 151.152 161.106 151.152V143.152ZM142.712 139.569C136.856 137.195 131.924 133.819 127.861 129.443L121.999 134.887C126.894 140.159 132.815 144.19 139.707 146.983L142.712 139.569ZM127.984 129.582C124.558 125.533 121.864 120.653 119.939 114.88L112.35 117.41C114.56 124.039 117.723 129.84 121.877 134.749L127.984 129.582ZM119.939 114.88C118.015 109.108 117.044 102.99 117.044 96.5064H109.044C109.044 103.804 110.14 110.778 112.35 117.41L119.939 114.88ZM117.044 96.5064C117.044 83.8977 119.281 72.3738 123.706 61.8855L116.335 58.7759C111.458 70.3375 109.044 82.9307 109.044 96.5064H117.044ZM123.706 61.8855C128.153 51.3451 134.491 41.9566 142.746 33.7018L137.089 28.045C128.117 37.0167 121.191 47.2664 116.335 58.7759L123.706 61.8855ZM142.746 33.7018C146.342 30.1053 150.451 26.7325 155.083 23.589L150.591 16.9692C145.577 20.3717 141.072 24.0619 137.089 28.045L142.746 33.7018ZM155.083 23.589C159.802 20.3866 164.233 17.7144 168.378 15.5592L164.687 8.46149C160.218 10.7853 155.519 13.6255 150.591 16.9692L155.083 23.589ZM168.378 15.5592C172.64 13.3429 176.266 11.5734 179.268 10.2392L176.019 2.92872C172.819 4.35076 169.038 6.19887 164.687 8.46148L168.378 15.5592ZM179.268 10.2392C182.332 8.8773 184.327 7.9727 185.117 7.57765L181.539 0.422354C180.951 0.716375 179.156 1.53438 176.019 2.92874L179.268 10.2392ZM180.017 6.24463L200.689 36.7356L207.311 32.2463L186.639 1.75537L180.017 6.24463ZM202.633 30.7318C198.689 32.166 194.343 34.0312 189.603 36.3134L193.074 43.5213C197.636 41.3246 201.731 39.5722 205.367 38.2502L202.633 30.7318ZM189.603 36.3133C184.681 38.6833 180.038 41.5977 175.677 45.0499L180.643 51.3222C184.551 48.2282 188.694 45.6301 193.074 43.5214L189.603 36.3133ZM175.677 45.0499C171.178 48.612 167.419 52.8396 164.418 57.7176L171.231 61.9103C173.742 57.8304 176.874 54.306 180.643 51.3222L175.677 45.0499ZM164.418 57.7175C161.277 62.8216 159.559 68.644 159.18 75.0829L167.166 75.5526C167.477 70.2775 168.859 65.764 171.231 61.9104L164.418 57.7175ZM163.173 79.3178C172.32 79.3178 180.236 81.9772 187.084 87.2684L191.976 80.9382C183.664 74.5153 174.009 71.3178 163.173 71.3178V79.3178ZM187.084 87.2684C193.527 92.2473 196.899 99.4283 196.899 109.426H204.899C204.899 97.3744 200.692 87.6734 191.976 80.9382L187.084 87.2684ZM200.899 105.426V113.426V105.426ZM87.8552 109.426C87.8552 113.38 87.097 117.373 85.5379 121.427L93.0047 124.299C94.8909 119.395 95.8552 114.43 95.8552 109.426H87.8552ZM85.5379 121.427C84.0121 125.394 81.7199 128.997 78.6228 132.249L84.4159 137.766C88.2093 133.783 91.0851 129.29 93.0047 124.299L85.5379 121.427ZM78.6228 132.249C75.5687 135.456 71.789 138.096 67.2216 140.143L70.4941 147.443C75.9181 145.012 80.5794 141.795 84.416 137.766L78.6228 132.249ZM67.2217 140.143C62.8048 142.123 57.7744 143.152 52.062 143.152V151.152C58.7527 151.152 64.9196 149.942 70.4941 147.443L67.2217 140.143ZM52.062 143.152C45.6855 143.152 39.5637 141.96 33.6682 139.569L30.6625 146.983C37.5147 149.761 44.6573 151.152 52.062 151.152V143.152ZM33.6682 139.569C27.8119 137.195 22.8801 133.819 18.8175 129.443L12.9551 134.887C17.8502 140.159 23.7712 144.19 30.6626 146.983L33.6682 139.569ZM18.9399 129.582C15.5142 125.533 12.8201 120.653 10.8955 114.88L3.30603 117.409C5.51576 124.039 8.67872 129.84 12.8328 134.749L18.9399 129.582ZM10.8955 114.88C8.97147 109.108 8 102.99 8 96.5064H0C0 103.804 1.09567 110.778 3.30604 117.41L10.8955 114.88ZM8 96.5064C8 83.8977 10.2374 72.3738 14.6622 61.8855L7.2913 58.7759C2.4137 70.3375 0 82.9307 0 96.5064H8ZM14.6622 61.8855C19.1089 51.3451 25.447 41.9566 33.7018 33.7018L28.0449 28.045C19.0731 37.0168 12.1469 47.2664 7.29129 58.7759L14.6622 61.8855ZM33.7018 33.7018C37.2983 30.1053 41.4067 26.7325 46.0392 23.589L41.5473 16.9692C36.5329 20.3717 32.028 24.0619 28.0449 28.045L33.7018 33.7018ZM46.0393 23.589C50.7585 20.3866 55.1893 17.7144 59.3338 15.5592L55.6429 8.46149C51.1741 10.7853 46.4748 13.6255 41.5473 16.9692L46.0393 23.589ZM59.3338 15.5592C63.5959 13.3429 67.222 11.5734 70.224 10.2392L66.9749 2.92873C63.7753 4.35076 59.9941 6.19886 55.6429 8.46149L59.3338 15.5592ZM70.224 10.2392C73.2884 8.87727 75.283 7.97272 76.0731 7.57772L72.4954 0.422281C71.9072 0.716356 70.1121 1.53441 66.9749 2.92874L70.224 10.2392ZM70.9734 6.24463L91.6452 36.7356L98.2669 32.2463L77.5951 1.75537L70.9734 6.24463ZM93.5891 30.7318C89.645 32.166 85.2992 34.0312 80.5593 36.3133L84.0298 43.5214C88.5923 41.3246 92.6874 39.5722 96.323 38.2502L93.5891 30.7318ZM80.5593 36.3133C75.6368 38.6834 70.994 41.5977 66.6335 45.0499L71.5992 51.3222C75.5073 48.2282 79.65 45.6301 84.0298 43.5214L80.5593 36.3133ZM66.6336 45.0498C62.1338 48.612 58.3754 52.8397 55.3737 57.7176L62.187 61.9103C64.6977 57.8304 67.83 54.306 71.5991 51.3223L66.6336 45.0498ZM55.3737 57.7175C52.2327 62.8216 50.5149 68.644 50.1361 75.0829L58.1223 75.5527C58.4326 70.2775 59.8155 65.764 62.187 61.9104L55.3737 57.7175ZM54.1292 79.3178C63.2764 79.3178 71.1925 81.9772 78.04 87.2684L82.9316 80.9382C74.6197 74.5153 64.9648 71.3178 54.1292 71.3178V79.3178ZM78.04 87.2684C84.4832 92.2473 87.8552 99.4283 87.8552 109.426H95.8552C95.8552 97.3744 91.6477 87.6734 82.9316 80.9382L78.04 87.2684Z" fill="#E1E6FF"/>
</svg>
