<svg width="108" height="80" viewBox="0 0 108 80" fill="none" xmlns="http://www.w3.org/2000/svg">
<path fill-rule="evenodd" clip-rule="evenodd" d="M102.449 56.7132C102.449 58.9526 102.018 61.192 101.157 63.4315C100.296 65.6709 99.0038 67.695 97.2812 69.5038C95.5585 71.3126 93.4483 72.7769 90.9504 73.8966C88.4526 75.0163 85.6533 75.5762 82.5525 75.5762C79.1072 75.5762 75.7911 74.9302 72.6042 73.6382C69.4172 72.3462 66.7041 70.4944 64.4646 68.0826C62.5697 65.8432 61.1054 63.1731 60.0718 60.0723C59.0382 56.9715 58.5215 53.6985 58.5215 50.2532C58.5215 43.7071 59.6842 37.6778 62.0098 32.1653C64.3354 26.6529 67.6515 21.7433 71.9582 17.4367C73.8531 15.5418 76.0064 13.7761 78.4181 12.1395C80.8298 10.503 83.1123 9.12491 85.2657 8.00518C87.419 6.88545 89.2708 5.98105 90.8212 5.292C92.3716 4.60293 93.3191 4.17228 93.6636 4.00001L103.999 19.2455C102.105 19.9346 99.9943 20.8389 97.6688 21.9587C95.3432 23.0784 93.1468 24.4565 91.0796 26.093C89.0124 27.7295 87.2898 29.6675 85.9116 31.907C84.5335 34.1464 83.7583 36.7304 83.5861 39.6589C88.5818 39.6589 92.9745 41.1231 96.7644 44.0517C100.554 46.9802 102.449 51.2007 102.449 56.7132H102.449ZM47.9276 56.7131C47.9276 58.9526 47.497 61.192 46.6356 63.4315C45.7743 65.6709 44.4823 67.695 42.7597 69.5038C41.037 71.3126 38.9268 72.7769 36.4289 73.8966C33.9311 75.0163 31.1318 75.5762 28.031 75.5762C24.5857 75.5762 21.2696 74.9302 18.0827 73.6382C14.8958 72.3462 12.1826 70.4943 9.94315 68.0826C8.04823 65.8432 6.58395 63.1731 5.55038 60.0723C4.51678 56.9715 4 53.6985 4 50.2532C4 43.7071 5.16277 37.6778 7.48837 32.1653C9.81394 26.6529 13.13 21.7433 17.4367 17.4367C19.3316 15.5418 21.4849 13.776 23.8966 12.1395C26.3083 10.503 28.5908 9.1249 30.7442 8.00517C32.8975 6.88544 34.7493 5.98104 36.2997 5.29199C37.8501 4.60292 38.7976 4.17227 39.1421 4L49.478 19.2455C47.5831 19.9345 45.4729 20.8389 43.1473 21.9587C40.8217 23.0784 38.6253 24.4565 36.5582 26.093C34.4909 27.7295 32.7683 29.6675 31.3902 31.907C30.0121 34.1464 29.2369 36.7304 29.0646 39.6589C34.0603 39.6589 38.4531 41.1231 42.2429 44.0516C46.0327 46.9802 47.9276 51.2007 47.9276 56.7131Z" fill="#5D5CB0"/>
<path d="M102.449 56.7132V52.7132C100.24 52.7132 98.4491 54.504 98.4491 56.7132H102.449ZM101.157 63.4315L104.89 64.8674L104.89 64.8674L101.157 63.4315ZM97.2812 69.5038L94.3846 66.7452L94.3846 66.7452L97.2812 69.5038ZM90.9504 73.8966L92.5866 77.5467L92.5867 77.5466L90.9504 73.8966ZM72.6042 73.6382L74.107 69.9313L74.107 69.9312L72.6042 73.6382ZM64.4646 68.0826L61.411 70.6664C61.4508 70.7133 61.4916 70.7594 61.5334 70.8045L64.4646 68.0826ZM60.0718 60.0723L56.2771 61.3372V61.3372L60.0718 60.0723ZM62.0098 32.1653L65.6953 33.7202L65.6953 33.7202L62.0098 32.1653ZM71.9582 17.4367L69.1297 14.6083L69.1297 14.6083L71.9582 17.4367ZM78.4181 12.1395L80.6641 15.4494L80.6642 15.4494L78.4181 12.1395ZM85.2657 8.00518L87.1111 11.5541L87.1111 11.554L85.2657 8.00518ZM90.8212 5.292L92.4457 8.94726L92.4458 8.94724L90.8212 5.292ZM93.6636 4.00001L96.9744 1.75538C95.849 0.0954123 93.6683 -0.474584 91.8746 0.422364L93.6636 4.00001ZM103.999 19.2455L105.366 23.0047C106.525 22.5833 107.425 21.6508 107.805 20.4776C108.185 19.3044 108.002 18.0216 107.31 17.0009L103.999 19.2455ZM97.6688 21.9587L99.404 25.5627L99.404 25.5627L97.6688 21.9587ZM91.0796 26.093L93.5624 29.2292L93.5624 29.2292L91.0796 26.093ZM85.9116 31.907L89.3183 34.0034L89.3183 34.0034L85.9116 31.907ZM83.5861 39.6589L79.593 39.424C79.5283 40.5238 79.9201 41.6015 80.6758 42.403C81.4316 43.2045 82.4845 43.6589 83.5861 43.6589V39.6589ZM96.7644 44.0517L99.2102 40.8865L99.2102 40.8865L96.7644 44.0517ZM102.449 56.7132V60.7132C104.658 60.7132 106.449 58.9223 106.449 56.7132H102.449ZM42.7597 69.5038L39.8631 66.7452L39.8631 66.7452L42.7597 69.5038ZM36.4289 73.8966L38.0651 77.5466L38.0652 77.5466L36.4289 73.8966ZM18.0827 73.6382L19.5855 69.9312L19.5855 69.9312L18.0827 73.6382ZM9.94315 68.0826L6.8896 70.6664C6.92932 70.7133 6.97013 70.7594 7.01197 70.8044L9.94315 68.0826ZM5.55038 60.0723L9.34512 58.8074L9.34511 58.8074L5.55038 60.0723ZM7.48837 32.1653L11.1738 33.7202L11.1738 33.7201L7.48837 32.1653ZM17.4367 17.4367L14.6082 14.6083L14.6082 14.6083L17.4367 17.4367ZM23.8966 12.1395L26.1426 15.4494L26.1426 15.4494L23.8966 12.1395ZM30.7442 8.00517L32.5896 11.554L32.5896 11.554L30.7442 8.00517ZM36.2997 5.29199L37.9243 8.94725L37.9243 8.94723L36.2997 5.29199ZM39.1421 4L42.4529 1.75537C41.3276 0.0954607 39.147 -0.474562 37.3533 0.422271L39.1421 4ZM49.478 19.2455L50.845 23.0047C52.0039 22.5832 52.9037 21.6508 53.2835 20.4776C53.6634 19.3044 53.4809 18.0216 52.7889 17.0009L49.478 19.2455ZM43.1473 21.9587L44.8825 25.5627L44.8825 25.5627L43.1473 21.9587ZM36.5582 26.093L39.0409 29.2292L39.041 29.2292L36.5582 26.093ZM31.3902 31.907L34.7968 34.0034L34.7968 34.0033L31.3902 31.907ZM29.0646 39.6589L25.0715 39.424C25.0068 40.5237 25.3985 41.6015 26.1543 42.403C26.9101 43.2045 27.963 43.6589 29.0646 43.6589V39.6589ZM42.2429 44.0516L44.6887 40.8865H44.6887L42.2429 44.0516ZM98.4491 56.7132C98.4491 58.4275 98.1215 60.1814 97.4237 61.9956L104.89 64.8674C105.915 62.2027 106.449 59.4777 106.449 56.7132H98.4491ZM97.4237 61.9955C96.7593 63.7232 95.7591 65.302 94.3846 66.7452L100.178 72.2624C102.248 70.0881 103.832 67.6187 104.89 64.8674L97.4237 61.9955ZM94.3846 66.7452C93.0531 68.1433 91.3837 69.3189 89.3142 70.2466L92.5867 77.5466C95.5129 76.2349 98.0639 74.482 100.178 72.2624L94.3846 66.7452ZM89.3142 70.2466C87.3952 71.1068 85.1641 71.5762 82.5525 71.5762V79.5762C86.1424 79.5762 89.51 78.9258 92.5866 77.5467L89.3142 70.2466ZM82.5525 71.5762C79.6213 71.5762 76.8156 71.0293 74.107 69.9313L71.1013 77.3451C74.7666 78.8311 78.593 79.5762 82.5525 79.5762V71.5762ZM74.107 69.9312C71.4376 68.8491 69.219 67.3243 67.3958 65.3608L61.5334 70.8045C64.1891 73.6644 67.3969 75.8434 71.1014 77.3452L74.107 69.9312ZM67.5182 65.4989C65.9875 63.6898 64.7576 61.4804 63.8666 58.8074L56.2771 61.3372C57.4533 64.8657 59.152 67.9965 61.411 70.6664L67.5182 65.4989ZM63.8666 58.8074C62.9761 56.1361 62.5215 53.292 62.5215 50.2532H54.5215C54.5215 54.105 55.1003 57.8069 56.2771 61.3372L63.8666 58.8074ZM62.5215 50.2532C62.5215 44.1906 63.5961 38.696 65.6953 33.7202L58.3244 30.6105C55.7724 36.6597 54.5215 43.2236 54.5215 50.2532H62.5215ZM65.6953 33.7202C67.8164 28.6923 70.8385 24.2133 74.7866 20.2651L69.1297 14.6083C64.4646 19.2734 60.8544 24.6135 58.3244 30.6105L65.6953 33.7202ZM74.7866 20.2651C76.4882 18.5635 78.4433 16.9564 80.6641 15.4494L76.1721 8.82963C73.5695 10.5957 71.2179 12.5201 69.1297 14.6083L74.7866 20.2651ZM80.6642 15.4494C82.9717 13.8836 85.1199 12.5894 87.1111 11.5541L83.4203 4.45631C81.1047 5.66037 78.6879 7.12246 76.1721 8.82965L80.6642 15.4494ZM87.1111 11.554C89.2199 10.4575 90.9942 9.59237 92.4457 8.94726L89.1967 1.63674C87.5474 2.36973 85.6181 3.31344 83.4202 4.45631L87.1111 11.554ZM92.4458 8.94724C93.9597 8.27439 95.007 7.80044 95.4526 7.57766L91.8746 0.422364C91.6311 0.544115 90.7835 0.931469 89.1966 1.63676L92.4458 8.94724ZM90.3527 6.24464L100.689 21.4901L107.31 17.0009L96.9744 1.75538L90.3527 6.24464ZM102.633 15.4863C100.583 16.2315 98.3478 17.1922 95.9335 18.3547L99.404 25.5627C101.641 24.4857 103.626 23.6377 105.366 23.0047L102.633 15.4863ZM95.9336 18.3546C93.3366 19.605 90.8902 21.1412 88.5968 22.9569L93.5624 29.2292C95.4034 27.7717 97.3497 26.5517 99.404 25.5627L95.9336 18.3546ZM88.5968 22.9568C86.1643 24.8825 84.1287 27.1721 82.505 29.8106L89.3183 34.0034C90.4509 32.1629 91.8605 30.5765 93.5624 29.2292L88.5968 22.9568ZM82.505 29.8106C80.7422 32.6752 79.7995 35.9136 79.593 39.424L87.5792 39.8937C87.7172 37.5471 88.3249 35.6176 89.3183 34.0034L82.505 29.8106ZM83.5861 43.6589C87.7376 43.6589 91.2609 44.854 94.3186 47.2168L99.2102 40.8865C94.6881 37.3922 89.426 35.6589 83.5861 35.6589V43.6589ZM94.3186 47.2168C96.9719 49.2671 98.4491 52.2277 98.4491 56.7132H106.449C106.449 50.1737 104.136 44.6932 99.2102 40.8865L94.3186 47.2168ZM102.449 52.7132H102.449V60.7132H102.449V52.7132ZM43.9276 56.7131C43.9276 58.4275 43.6 60.1814 42.9023 61.9955L50.369 64.8674C51.3939 62.2027 51.9276 59.4776 51.9276 56.7131H43.9276ZM42.9023 61.9955C42.2378 63.7231 41.2376 65.302 39.8631 66.7452L45.6562 72.2624C47.727 70.0881 49.3108 67.6187 50.369 64.8674L42.9023 61.9955ZM39.8631 66.7452C38.5317 68.1432 36.8622 69.3188 34.7927 70.2466L38.0652 77.5466C40.9913 76.2349 43.5424 74.482 45.6563 72.2624L39.8631 66.7452ZM34.7927 70.2466C32.8737 71.1068 30.6426 71.5762 28.031 71.5762V79.5762C31.6209 79.5762 34.9885 78.9258 38.0651 77.5466L34.7927 70.2466ZM28.031 71.5762C25.0998 71.5762 22.2941 71.0293 19.5855 69.9312L16.5798 77.3451C20.2451 78.8311 24.0716 79.5762 28.031 79.5762V71.5762ZM19.5855 69.9312C16.9161 68.8491 14.6975 67.3243 12.8743 65.3608L7.01197 70.8044C9.66764 73.6644 12.8754 75.8434 16.5799 77.3452L19.5855 69.9312ZM12.9967 65.4989C11.466 63.6898 10.2361 61.4804 9.34512 58.8074L1.75564 61.3372C2.9318 64.8657 4.63049 67.9965 6.8896 70.6664L12.9967 65.4989ZM9.34511 58.8074C8.45468 56.1361 8 53.292 8 50.2532H0C0 54.105 0.578883 57.8069 1.75565 61.3372L9.34511 58.8074ZM8 50.2532C8 44.1906 9.07462 38.696 11.1738 33.7202L3.80292 30.6105C1.25092 36.6597 0 43.2236 0 50.2532H8ZM11.1738 33.7201C13.295 28.6922 16.317 24.2132 20.2651 20.2651L14.6082 14.6083C9.94309 19.2734 6.33291 24.6135 3.80291 30.6105L11.1738 33.7201ZM20.2651 20.2651C21.9667 18.5635 23.9218 16.9564 26.1426 15.4494L21.6506 8.82962C19.048 10.5957 16.6964 12.5201 14.6082 14.6083L20.2651 20.2651ZM26.1426 15.4494C28.4502 13.8836 30.5984 12.5894 32.5896 11.554L28.8988 4.4563C26.5833 5.66036 24.1665 7.12245 21.6506 8.82963L26.1426 15.4494ZM32.5896 11.554C34.6984 10.4575 36.4727 9.59237 37.9243 8.94725L34.6752 1.63673C33.026 2.36971 31.0966 3.31343 28.8988 4.45631L32.5896 11.554ZM37.9243 8.94723C39.4383 8.27434 40.4855 7.80045 40.9309 7.57773L37.3533 0.422271C37.1097 0.544085 36.2619 0.931501 34.6751 1.63675L37.9243 8.94723ZM35.8313 6.24463L46.1672 21.4901L52.7889 17.0009L42.4529 1.75537L35.8313 6.24463ZM48.1111 15.4863C46.0619 16.2315 43.8263 17.1922 41.412 18.3547L44.8825 25.5627C47.1194 24.4857 49.1043 23.6376 50.845 23.0047L48.1111 15.4863ZM41.412 18.3546C38.8151 19.605 36.3687 21.1412 34.0753 22.9569L39.041 29.2292C40.882 27.7717 42.8283 26.5517 44.8825 25.5627L41.412 18.3546ZM34.0754 22.9568C31.6428 24.8825 29.6072 27.1721 27.9835 29.8106L34.7968 34.0033C35.9294 32.1629 37.339 30.5765 39.0409 29.2292L34.0754 22.9568ZM27.9835 29.8106C26.2207 32.6752 25.278 35.9136 25.0715 39.424L33.0577 39.8938C33.1957 37.5471 33.8034 35.6176 34.7968 34.0034L27.9835 29.8106ZM29.0646 43.6589C33.2161 43.6589 36.7394 44.854 39.7971 47.2168L44.6887 40.8865C40.1667 37.3922 34.9045 35.6589 29.0646 35.6589V43.6589ZM39.7971 47.2168C42.4504 49.2671 43.9276 52.2276 43.9276 56.7131H51.9276C51.9276 50.1737 49.615 44.6932 44.6887 40.8865L39.7971 47.2168Z" fill="#5D5CB1"/>
</svg>
