<svg xmlns="http://www.w3.org/2000/svg" width="1667.078" height="1193.297" viewBox="0 0 1667.078 1193.297">
  <path id="Pfad_259" data-name="Pfad 259" d="M621.486,1193.033c85.324,2.143,206.861-8.509,281.666-41.744,132.32-58.789,145.308-144.3,179.409-253.094,32.748-104.478,107.959-206.671,209.533-273.082,99.184-68.484,256.609-119.2,324.6-205.89,12.8-16.322,24.062-35.494,34.423-58.617,8.321-18.638,11.982-38.421,14.7-57.023,3.144-21.582-.2-43.155-3.587-61.682-2.889-15.64-8.826-31.979-18.15-49.95a299.924,299.924,0,0,0-40.833-60.212,333.636,333.636,0,0,0-43.959-42.01c-14.469-11.448-32-22.545-53.577-33.925a327.948,327.948,0,0,0-47.114-19.82,516.631,516.631,0,0,0-63.164-17.62c-15.532-3.21-32.494-5.745-53.385-7.978-25.181-2.68-82.325-8.434-103.478-9.164-202.118-6.979-371.817,15.8-591.183,71.149C427.423,129.282,237.535,234.92,244.862,424.148c1.9,49.05,20.272,98.826,5.215,146.422-25.575,80.849-134.068,123.618-203,186.5C21.575,780.328.432,808.729.007,839.558c-.532,38.391,31.812,73.271,72.266,94.317,72.181,37.55,162.912,34.281,237.713,66.162,55.282,23.561,70.491,63.492,101.806,102.9A221.807,221.807,0,0,0,496,1168.5c18.74,8.358,40.847,15.133,65.711,20.141C595.76,1192.292,589.6,1192.232,621.486,1193.033Z" transform="translate(1667.078 1193.297) rotate(180)" fill="#f6f9ff"/>
</svg>
