<svg xmlns="http://www.w3.org/2000/svg" xmlns:xlink="http://www.w3.org/1999/xlink" width="1511.039" height="921.435" viewBox="0 0 1511.039 921.435">
  <defs>
    <clipPath id="clip-path">
      <path id="Pfad_484" data-name="Pfad 484" d="M-396.36,608.452q2.962-.118,5.925-.278c70-3.789,116.928-30.314,171.3-72.226C-124,462.613-43.227,433.676,68.364,499.823c155.786,92.346,315.911-18.691,346.578-127.8,25.911-115.711-3.408-208.541,55.586-275.048C525.409,35.107,601.89,57.313,645.083-15.543,704.066-122.5,630.761-268.28,630.761-268.28H-602.709a.092.092,0,0,0-.039,0C-715.08-239.779-800.849-64-826.482,32.335c-55.1,207.088,29.188,443.619,229.735,535.862C-534.229,596.952-465.158,611.2-396.36,608.452Z" transform="translate(843 268.282)" fill="#f6f9ff"/>
    </clipPath>
    <clipPath id="clip-path-2">
      <rect id="Rechteck_524" data-name="Rechteck 524" width="1141.465" height="563.969" fill="none"/>
    </clipPath>
    <clipPath id="clip-path-3">
      <rect id="Rechteck_526" data-name="Rechteck 526" width="1020.429" height="563.969" fill="none"/>
    </clipPath>
    <linearGradient id="linear-gradient" x1="-0.418" y1="2.039" x2="0.617" y2="2.039" gradientUnits="objectBoundingBox">
      <stop offset="0" stop-color="#ff92aa"/>
      <stop offset="0.312" stop-color="#ff96ae"/>
      <stop offset="0.674" stop-color="#ffa4ba"/>
      <stop offset="1" stop-color="#ffb8cb"/>
    </linearGradient>
    <linearGradient id="linear-gradient-2" x1="0.436" y1="0.089" x2="0.913" y2="0.54" gradientUnits="objectBoundingBox">
      <stop offset="0" stop-color="#034bcb"/>
      <stop offset="0.312" stop-color="#095bce"/>
      <stop offset="0.674" stop-color="#0a7fe4"/>
      <stop offset="1" stop-color="#0f83e6"/>
    </linearGradient>
    <linearGradient id="linear-gradient-3" x1="0.468" y1="0.032" x2="0.908" y2="0.623" gradientUnits="objectBoundingBox">
      <stop offset="0" stop-color="#8695eb"/>
      <stop offset="1" stop-color="#9eadff"/>
    </linearGradient>
    <filter id="Pfad_2647" x="875.906" y="482.304" width="126.055" height="126.136" filterUnits="userSpaceOnUse">
      <feOffset dx="8" dy="8" input="SourceAlpha"/>
      <feGaussianBlur stdDeviation="20" result="blur"/>
      <feFlood flood-color="#6c63ff" flood-opacity="0.078"/>
      <feComposite operator="in" in2="blur"/>
      <feComposite in="SourceGraphic"/>
    </filter>
    <filter id="Pfad_2648" x="868.397" y="482.336" width="130.831" height="136.427" filterUnits="userSpaceOnUse">
      <feOffset dx="8" dy="8" input="SourceAlpha"/>
      <feGaussianBlur stdDeviation="20" result="blur-2"/>
      <feFlood flood-color="#6c63ff" flood-opacity="0.102"/>
      <feComposite operator="in" in2="blur-2"/>
      <feComposite in="SourceGraphic"/>
    </filter>
    <linearGradient id="linear-gradient-4" x1="0.5" y1="0" x2="0.5" y2="1" xlink:href="#linear-gradient-3"/>
    <filter id="Pfad_2649" x="863.255" y="485.482" width="138.466" height="126.793" filterUnits="userSpaceOnUse">
      <feOffset dx="8" dy="8" input="SourceAlpha"/>
      <feGaussianBlur stdDeviation="20" result="blur-3"/>
      <feFlood flood-color="#6c63ff" flood-opacity="0.078"/>
      <feComposite operator="in" in2="blur-3"/>
      <feComposite in="SourceGraphic"/>
    </filter>
    <linearGradient id="linear-gradient-5" x1="0.468" y1="0.032" x2="0.908" y2="0.623" gradientUnits="objectBoundingBox">
      <stop offset="0" stop-color="#3bb5ac"/>
      <stop offset="1" stop-color="#48c3b9"/>
    </linearGradient>
  </defs>
  <g id="Gruppe_2068" data-name="Gruppe 2068" transform="translate(365.561 0.004)">
    <g id="Gruppe_maskieren_5" data-name="Gruppe maskieren 5" transform="translate(-365.561 -0.004)" clip-path="url(#clip-path)">
      <g id="Gruppe_1985" data-name="Gruppe 1985" transform="translate(-7.575 -6.02)">
        <path id="Pfad_4415" data-name="Pfad 4415" d="M0-16.392,249.646-48.524H1521.92l6.319,880.73H0Z" transform="translate(0 54.546)" fill="#f9f9fc"/>
        <g id="Gruppe_826" data-name="Gruppe 826" transform="translate(23.377 0)">
          <g id="Gruppe_1986" data-name="Gruppe 1986">
            <g id="Gruppe_1997" data-name="Gruppe 1997" transform="translate(794.532 273.009)">
              <path id="Pfad_3865" data-name="Pfad 3865" d="M2681.7,1592.161l13.923-278.755c-20.092-15.264-52.354-29-63.913-31.952-35.987-9.184-69.656-1.541-93.986,4.2-6.729,1.588-12.164,3.084-17.182,4.532-88.115,25.431-91.03,80.575-138.564,96.753-16.374,5.191-68.977,3.178-85.777,14.462-40,26.868-33.654,50.493-55.147,71.46-27.429,26.758-165.568,18.111-164.345,35.425,4.228,59.867,76.174,73.209,88.526,83.876q113.662.247,227.3.276,144.573.037,289.165-.276" transform="translate(-2076.699 -1277.185)" fill="#e3eaff"/>
              <path id="Pfad_3866" data-name="Pfad 3866" d="M4392.57,1297.85l.406.062c4.05.626,16.729,2.585,18.426,5.916.659,1.295-.531,2.425-1.243,3.077-7.574,6.944-32.8,5-49.874,12.307-3.789,1.62-5.261,3.244-5.3,4.826-.236,9.573,60.958,18.906,119.874,25.869-.153,5.406-.165,11.027,0,16.847q.1,3.506.275,6.9a302.9,302.9,0,0,1-95.944-13.7,297.675,297.675,0,0,1-36.792-14.29s-17.346-8.444-17.5-17.142c-.042-2.33-.12-6.777,6.416-10.813,8.354-5.159,23.522-7.177,41.6-9.581,11.167-1.486,21.207-1.726,21.936-3.692.454-1.224-2.848-2.509-4.76-3.252-3.586-1.4-7.422-1.941-12.831-2.549-5.125-.577-11.905-1.237-20.073-1.758a154.4,154.4,0,0,1,35.388.967" transform="translate(-3869.86 -1292.61)" fill="#fff"/>
            </g>
            <path id="Pfad_3870" data-name="Pfad 3870" d="M4498.07,2249.27c-1.182,1.861,1.629,5.763,6.279,8.716s10.559,1.977,10.559,1.977-1.629-5.764-6.279-8.717-9.378-3.837-10.559-1.976" transform="translate(-3285.272 -1715.584)" fill="#9898ea"/>
            <path id="Pfad_3871" data-name="Pfad 3871" d="M4540.134,2211.825c-.8,1.993,2.588,5.23,7.566,7.229s10.464.013,10.464.013-2.587-5.229-7.565-7.229-9.665-2.005-10.465-.013" transform="translate(-3319.35 -1684.942)" fill="#9898ea"/>
            <path id="Pfad_3872" data-name="Pfad 3872" d="M4573.34,2166.8c-.2,1.819,3.326,3.693,7.868,4.188s8.585-2.4,8.585-2.4-3.326-3.693-7.869-4.187-8.387.58-8.584,2.4" transform="translate(-3346.242 -1647.769)" fill="#9898ea"/>
            <path id="Pfad_3873" data-name="Pfad 3873" d="M4601.291,2117.806c.2,1.6,3.59,2.5,7.582,2.007a4.224,4.224,0,1,0-.709-5.786c-3.991.489-7.068,2.181-6.873,3.779" transform="translate(-3368.803 -1607.15)" fill="#9898ea"/>
            <path id="Pfad_3874" data-name="Pfad 3874" d="M4436.862,2190.129c-2.139.533-4.954-3.367-6.287-8.712s1.459-10.643,1.459-10.643,4.954,3.367,6.287,8.712.68,10.11-1.459,10.643" transform="translate(-3230.716 -1653.008)" fill="#9898ea"/>
            <path id="Pfad_3875" data-name="Pfad 3875" d="M4431.622,2281.095c1.34-2.166,6.814-1.208,12.227,2.141s7.375,9.986,7.375,9.986-6.814,1.208-12.227-2.14-8.714-7.82-7.375-9.986" transform="translate(-3231.611 -1741.124)" fill="#9898ea"/>
            <path id="Pfad_3876" data-name="Pfad 3876" d="M4360.593,2303.615c1.843-2.308,8.015-.445,13.782,4.163s7.1,12.522,7.1,12.522-8.014.445-13.783-4.162-8.949-10.214-7.1-12.523" transform="translate(-3174.094 -1759.439)" fill="#9898ea"/>
            <path id="Pfad_3877" data-name="Pfad 3877" d="M4369.44,2201.31c-2.532.275-5.142-4.632-5.829-10.96s3.341-11.956,3.341-11.956,5.142,4.632,5.829,10.96-.809,11.68-3.342,11.956" transform="translate(-3176.891 -1659.159)" fill="#9898ea"/>
            <path id="Pfad_3878" data-name="Pfad 3878" d="M4484.091,2161.124c-2,.79-5.214-2.614-7.189-7.6s.042-10.464.042-10.464,5.214,2.614,7.189,7.6,1.955,9.674-.042,10.464" transform="translate(-3267.703 -1630.633)" fill="#9898ea"/>
            <path id="Pfad_3879" data-name="Pfad 3879" d="M4524.54,2139.332c-1.633.823-4.626-1.817-6.684-5.9s-.77-8.881-.77-8.881,4.626,1.817,6.685,5.9,2.4,8.057.769,8.881" transform="translate(-3300.518 -1615.698)" fill="#9898ea"/>
            <path id="Pfad_3880" data-name="Pfad 3880" d="M4556.749,2099.2c-1.4.8-4.152-1.369-6.162-4.853a4.224,4.224,0,1,1,5.049-2.911c2.009,3.485,2.506,6.96,1.112,7.764" transform="translate(-3326.823 -1585.045)" fill="#9898ea"/>
            <path id="Pfad_3881" data-name="Pfad 3881" d="M4609.651,2036.448c1.459.493,3.642-2.063,4.874-5.708a4.043,4.043,0,1,0-5.285-1.787c-1.232,3.645-1.048,7,.411,7.495" transform="translate(-3374.568 -1533.921)" fill="#9898ea"/>
            <path id="Pfad_3882" data-name="Pfad 3882" d="M4576.108,2059.855c1.354-.735.962-4.072-.873-7.455a4.043,4.043,0,1,0-4.9,2.661c1.835,3.383,4.421,5.529,5.775,4.794" transform="translate(-3342.913 -1553.585)" fill="#9898ea"/>
            <path id="Pfad_3883" data-name="Pfad 3883" d="M4392.208,2090.03a53.894,53.894,0,0,1-9.187,18.669c-11.26,14.81-26.48,19.6-30.948,20.913a61.02,61.02,0,0,1-12.934,2.313" transform="translate(-3157.199 -1587.831)" fill="none" stroke="#9898ea" stroke-miterlimit="10" stroke-width="8.868"/>
            <rect id="Rechteck_519" data-name="Rechteck 519" width="20.141" height="20.141" transform="translate(1166.205 529)" fill="#e1e6ff"/>
            <g id="Gruppe_2007" data-name="Gruppe 2007" transform="translate(739.445 312.658)">
              <path id="Pfad_3868" data-name="Pfad 3868" d="M3383.429,1900.537c-33.63-73.937-62.361-91.714-81.952-94.819-27.1-4.295-37.424,19.372-73.108,20.587-35.447,1.208-40.734-27.737-85.24-37.654-29.617-6.6-82.926.384-104.583,8.287-46.254,16.879-106.107,57.926-97.547,107.162,129.025-1.325,313.405-2.239,442.43-3.564" transform="translate(-2940.174 -1685.99)" fill="#e3eaff"/>
              <g id="Gruppe_2006" data-name="Gruppe 2006" transform="translate(182.006 33.929)">
                <rect id="Rechteck_492" data-name="Rechteck 492" width="22.838" height="127.331" transform="translate(0.009 32.597)" fill="#9898ea"/>
                <rect id="Rechteck_493" data-name="Rechteck 493" width="205.113" height="127.256" transform="translate(14.334 32.672)" fill="#fff"/>
                <path id="Pfad_3898" data-name="Pfad 3898" d="M3518.373,1654.172h-219.38V1642.8a7.886,7.886,0,0,1,7.886-7.886h202.346a9.148,9.148,0,0,1,9.147,9.148Z" transform="translate(-3298.993 -1621.567)" fill="#fff2cc"/>
                <path id="Pfad_3899" data-name="Pfad 3899" d="M3313.4,1654.46h-14.406v-12.151a7.2,7.2,0,1,1,14.406,0Z" transform="translate(-3298.994 -1621.718)" fill="#5d5cb0"/>
                <rect id="Rechteck_494" data-name="Rechteck 494" width="20.483" height="20.483" transform="translate(77.861 49.821)" fill="#e1e6ff"/>
                <rect id="Rechteck_495" data-name="Rechteck 495" width="20.483" height="20.483" transform="translate(105.379 49.821)" fill="#e1e6ff"/>
                <rect id="Rechteck_496" data-name="Rechteck 496" width="20.483" height="20.483" transform="translate(132.897 49.821)" fill="#e1e6ff"/>
                <rect id="Rechteck_497" data-name="Rechteck 497" width="20.483" height="20.483" transform="translate(160.415 49.821)" fill="#e1e6ff"/>
                <rect id="Rechteck_498" data-name="Rechteck 498" width="20.483" height="20.483" transform="translate(187.933 49.821)" fill="#fc6681"/>
                <rect id="Rechteck_499" data-name="Rechteck 499" width="20.483" height="20.483" transform="translate(22.825 75.551)" fill="#e1e6ff"/>
                <rect id="Rechteck_500" data-name="Rechteck 500" width="20.483" height="20.483" transform="translate(50.343 75.551)" fill="#e1e6ff"/>
                <rect id="Rechteck_501" data-name="Rechteck 501" width="20.483" height="20.483" transform="translate(77.861 75.551)" fill="#e1e6ff"/>
                <rect id="Rechteck_502" data-name="Rechteck 502" width="20.483" height="20.483" transform="translate(105.379 75.551)" fill="#e1e6ff"/>
                <rect id="Rechteck_503" data-name="Rechteck 503" width="20.483" height="20.483" transform="translate(132.897 75.551)" fill="#fc6681"/>
                <rect id="Rechteck_504" data-name="Rechteck 504" width="20.483" height="20.483" transform="translate(160.415 75.551)" fill="#e1e6ff"/>
                <rect id="Rechteck_505" data-name="Rechteck 505" width="20.483" height="20.483" transform="translate(187.933 75.551)" fill="#e1e6ff"/>
                <rect id="Rechteck_506" data-name="Rechteck 506" width="20.483" height="20.483" transform="translate(22.825 102.025)" fill="#e1e6ff"/>
                <rect id="Rechteck_507" data-name="Rechteck 507" width="20.483" height="20.483" transform="translate(50.343 102.025)" fill="#e1e6ff"/>
                <rect id="Rechteck_508" data-name="Rechteck 508" width="20.483" height="20.483" transform="translate(77.861 102.025)" fill="#fc6681"/>
                <rect id="Rechteck_509" data-name="Rechteck 509" width="20.483" height="20.483" transform="translate(105.379 102.025)" fill="#e1e6ff"/>
                <rect id="Rechteck_511" data-name="Rechteck 511" width="47.927" height="48.631" transform="translate(132.971 102.025)" fill="#e1e6ff"/>
                <rect id="Rechteck_512" data-name="Rechteck 512" width="20.483" height="20.483" transform="translate(187.933 102.025)" fill="#e1e6ff"/>
                <rect id="Rechteck_513" data-name="Rechteck 513" width="20.483" height="20.483" transform="translate(22.825 129.837)" fill="#e1e6ff"/>
                <rect id="Rechteck_514" data-name="Rechteck 514" width="20.483" height="20.483" transform="translate(50.343 129.837)" fill="#e1e6ff"/>
                <rect id="Rechteck_515" data-name="Rechteck 515" width="20.483" height="20.483" transform="translate(77.861 129.837)" fill="#e1e6ff"/>
                <rect id="Rechteck_516" data-name="Rechteck 516" width="20.483" height="20.483" transform="translate(105.379 129.837)" fill="#e1e6ff"/>
                <path id="Pfad_3900" data-name="Pfad 3900" d="M3427.022,1659.393a5.75,5.75,0,1,1-5.75-5.75,5.75,5.75,0,0,1,5.75,5.75" transform="translate(-3392.675 -1636.621)" fill="#5d5cb0"/>
                <path id="Pfad_3901" data-name="Pfad 3901" d="M3887.287,1660.949a5.75,5.75,0,1,1-5.75-5.75,5.75,5.75,0,0,1,5.75,5.75" transform="translate(-3762.699 -1637.872)" fill="#5d5cb0"/>
                <path id="Pfad_3902" data-name="Pfad 3902" d="M4133.783,1660.95a5.75,5.75,0,1,1-5.75-5.75,5.75,5.75,0,0,1,5.75,5.75" transform="translate(-3960.866 -1637.872)" fill="#5d5cb0"/>
                <path id="Pfad_3903" data-name="Pfad 3903" d="M3658.609,1660.95a5.75,5.75,0,1,1-5.75-5.75,5.75,5.75,0,0,1,5.75,5.75" transform="translate(-3578.856 -1637.872)" fill="#5d5cb0"/>
                <path id="Pfad_3904" data-name="Pfad 3904" d="M4345.389,1662.434a5.75,5.75,0,1,1-5.75-5.75,5.75,5.75,0,0,1,5.75,5.75" transform="translate(-4130.984 -1639.066)" fill="#5d5cb0"/>
                <path id="Pfad_3905" data-name="Pfad 3905" d="M3428.19,1590.978h-1.761a3.5,3.5,0,0,1-3.485-3.485v-17.187a3.5,3.5,0,0,1,3.485-3.485h1.761a3.5,3.5,0,0,1,3.485,3.485v17.187a3.5,3.5,0,0,1-3.485,3.485" transform="translate(-3398.642 -1566.822)" fill="#9898ea"/>
                <path id="Pfad_3906" data-name="Pfad 3906" d="M3659.763,1590.978H3658a3.5,3.5,0,0,1-3.485-3.485v-17.187a3.5,3.5,0,0,1,3.485-3.485h1.761a3.5,3.5,0,0,1,3.485,3.485v17.187a3.5,3.5,0,0,1-3.485,3.485" transform="translate(-3584.812 -1566.822)" fill="#9898ea"/>
                <path id="Pfad_3907" data-name="Pfad 3907" d="M3888.367,1590.978h-1.761a3.5,3.5,0,0,1-3.485-3.485v-17.187a3.5,3.5,0,0,1,3.485-3.485h1.761a3.5,3.5,0,0,1,3.485,3.485v17.187a3.5,3.5,0,0,1-3.485,3.485" transform="translate(-3768.594 -1566.822)" fill="#9898ea"/>
                <path id="Pfad_3908" data-name="Pfad 3908" d="M4134.782,1590.978h-1.761a3.5,3.5,0,0,1-3.485-3.485v-17.187a3.5,3.5,0,0,1,3.485-3.485h1.761a3.5,3.5,0,0,1,3.485,3.485v17.187a3.5,3.5,0,0,1-3.485,3.485" transform="translate(-3966.697 -1566.822)" fill="#9898ea"/>
                <path id="Pfad_3909" data-name="Pfad 3909" d="M4346.314,1590.978h-1.762a3.5,3.5,0,0,1-3.485-3.485v-17.187a3.5,3.5,0,0,1,3.485-3.485h1.762a3.5,3.5,0,0,1,3.485,3.485v17.187a3.5,3.5,0,0,1-3.485,3.485" transform="translate(-4136.755 -1566.822)" fill="#9898ea"/>
                <rect id="Rechteck_520" data-name="Rechteck 520" width="205.04" height="11.205" transform="translate(14.407 32.597)" fill="#fc6681"/>
              </g>
              <path id="Pfad_3910" data-name="Pfad 3910" d="M3284.127,1443.126l2.079,3.8,3.8,2.079a.836.836,0,0,1,0,1.466l-3.8,2.079-2.079,3.8a.836.836,0,0,1-1.466,0l-2.079-3.8-3.8-2.079a.836.836,0,0,1,0-1.466l3.8-2.079,2.079-3.8a.836.836,0,0,1,1.466,0" transform="translate(-3094.34 -1442.692)" fill="#fff"/>
              <path id="Pfad_3911" data-name="Pfad 3911" d="M3209.019,1736.171l1.446,2.644,2.644,1.446a.581.581,0,0,1,0,1.02l-2.644,1.446-1.446,2.644a.581.581,0,0,1-1.02,0l-1.446-2.644-2.644-1.446a.581.581,0,0,1,0-1.02l2.644-1.446,1.446-2.644a.581.581,0,0,1,1.02,0" transform="translate(-3052.513 -1679.347)" fill="#fff"/>
            </g>
            <path id="Pfad_3912" data-name="Pfad 3912" d="M4622.205,1897.975l1.446,2.644,2.643,1.446a.581.581,0,0,1,0,1.02l-2.643,1.446-1.446,2.643a.582.582,0,0,1-1.021,0l-1.446-2.643-2.644-1.446a.581.581,0,0,1,0-1.02l2.644-1.446,1.446-2.644a.582.582,0,0,1,1.021,0" transform="translate(-3381.324 -1432.558)" fill="#9eadff"/>
            <path id="Pfad_3913" data-name="Pfad 3913" d="M4497.2,1675.1l2.079,3.8,3.8,2.079a.835.835,0,0,1,0,1.466l-3.8,2.079-2.079,3.8a.836.836,0,0,1-1.466,0l-2.079-3.8-3.8-2.079a.835.835,0,0,1,0-1.466l3.8-2.079,2.079-3.8a.835.835,0,0,1,1.466,0" transform="translate(-3278.51 -1252.547)" fill="#f3f6ff"/>
            <path id="Pfad_3917" data-name="Pfad 3917" d="M3837.589,2910.808q-.994.828-1.966,1.645" transform="translate(-2750.757 -2250.37)" fill="#9eadff"/>
            <g id="Gruppe_1998" data-name="Gruppe 1998" transform="translate(806.545 361.554)">
              <path id="Pfad_3916" data-name="Pfad 3916" d="M3023.611,1963.889H2527.031V1861.945a152.121,152.121,0,0,1,23.91-48.455c9.583-13.049,32.987-43.967,80.589-62.3,23.864-9.191,43.26-11.565,58.449-13.152,27.18-2.84,35.349.083,56.92,1.192,11.128.572,19.185.426,28.292.192,36.6-.937,57.663-1.476,78.22-13.152,9.814-5.574,15.488-11.354,22.151-18,37.808-37.7,63.24-63.058,93.64-79.98,18.593-10.35,42.234-17.167,59.423-20.874Z" transform="translate(-2527.031 -1607.419)" fill="#b3c2ff"/>
              <path id="Pfad_3933" data-name="Pfad 3933" d="M2787.244,2289.056l-.684.1c-6.813,1.052-28.139,4.348-30.993,9.95-1.109,2.178.892,4.078,2.089,5.175,12.739,11.68,55.163,8.418,83.889,20.7,6.422,2.746,8.842,5.618,8.915,8.117.53,18.114-133.386,36.385-251.8,49.39a302.925,302.925,0,0,0,165.159,24.3c15.488-4.038,71.055-18.91,107.816-37.3,0,0,29.177-14.2,29.435-28.833.07-3.919.2-11.4-10.791-18.187-14.053-8.677-39.565-12.072-69.966-16.117-18.781-2.5-35.67-2.9-36.9-6.21-.764-2.059,4.792-4.22,8.006-5.471,6.032-2.347,12.485-3.265,21.581-4.288,8.623-.97,19.906-2.931,33.645-3.807a269.99,269.99,0,0,0-59.4,2.476" transform="translate(-2584.849 -2155.033)" fill="#fff"/>
            </g>
            <g id="Gruppe_1987" data-name="Gruppe 1987">
              <path id="Pfad_3931" data-name="Pfad 3931" d="M-709.677,2306.922c8.6-5.242,72.2-100.358,170.44-141.261s139.747,8.992,223.225-18.072,84.725-67.744,136.558-90.648c82.145-36.3,159.735-29.275,257.8,3.083,22.3,7.358,45.38,19.831,91.538,44.777,65.815,35.57,87.822,54.835,125.782,76.121,37.595,21.082,122.475,52.548,203.07,65.484v212.615H-239.731s-193.363,65.99-293.845,21.557S-709.677,2306.922-709.677,2306.922Z" transform="translate(709.677 -1571.048)" fill="#d7e0ff"/>
              <path id="Pfad_3932" data-name="Pfad 3932" d="M913.63,2452.368c-82.86-4.583-151.137-6.121-263.965-33.172-81.8-19.612-161.562-41.049-194.594-56.4-12.407-5.768-11.825-10.114-11.869-13.566-.036-2.786,4-7.341,11.869-10.707,34.6-14.794,85.7-10.865,101.044-24.934,1.441-1.321,3.852-3.61,2.516-6.233-3.437-6.748-29.124-10.717-37.33-11.985l-.824-.125c-30.019-4.55-57.113-3.188-71.695-1.959,16.548,1.055,30.283,2.394,40.669,3.562,10.957,1.233,18.729,2.338,25.994,5.165,3.871,1.506,10.564,4.11,9.643,6.59-1.478,3.983-21.821,4.47-44.443,7.48-36.617,4.872-67.347,8.961-84.273,19.413-13.241,8.176-13.081,17.185-13,21.906.333,18.834,27.869,31.463,35.455,34.729,3.679,1.376,105.3,55.593,229,97.471s265.8,70.042,265.8,70.042" transform="translate(180.999 -1788.176)" fill="#fbfdff"/>
              <rect id="Rechteck_521" data-name="Rechteck 521" width="1216.578" height="672.376" transform="translate(469.947)" fill="none"/>
            </g>
            <g id="Gruppe_2001" data-name="Gruppe 2001" transform="matrix(0.883, -0.469, 0.469, 0.883, 698.164, 279.958)">
              <g id="Gruppe_1994" data-name="Gruppe 1994" transform="translate(0 0)">
                <path id="Pfad_3858" data-name="Pfad 3858" d="M54.132,27.066A27.066,27.066,0,1,1,27.066,0,27.066,27.066,0,0,1,54.132,27.066" transform="translate(0 0)" fill="#fff2cc"/>
              </g>
            </g>
            <path id="Pfad_3918" data-name="Pfad 3918" d="M4260.241,2561.558l-5.074-255.143a630.8,630.8,0,0,0-137.612,32.592c-75.674,27.252-128.093,62.708-163.511,87a856.325,856.325,0,0,0-90.436,71.43l28.764,64.116Z" transform="translate(-2956.834 -1701.98)" fill="#9eadff"/>
          </g>
        </g>
        <g id="Gruppe_830" data-name="Gruppe 830" transform="translate(404.756 102.384)">
          <g id="Gruppe_829" data-name="Gruppe 829" clip-path="url(#clip-path-2)">
            <g id="Gruppe_1984" data-name="Gruppe 1984" transform="translate(162.102 224.164)">
              <path id="Pfad_3990" data-name="Pfad 3990" d="M4632.2,875.042a2.808,2.808,0,0,1,3.515,1.839,12.459,12.459,0,0,0,4.3,6.158c3.383,2.607,7.207,2.907,9.719,3.1a26.507,26.507,0,0,0,16.346-4.268c5.292-3.634,7.159-8.259,8.835-12.416a33.289,33.289,0,0,0,2.429-12.123,2.8,2.8,0,0,1,.357-1.338c.341-.609.888-1.56,1.484-2.481,1.133-1.753,1.957-2.678,2.625-2.643,1.71.089,2.646,6.8,2.823,8.886.351,4.126-.21,14.307-15.534,30.205a2.819,2.819,0,0,0-.795,2q.043,3.139.087,6.277a2.8,2.8,0,0,0,3.089,2.753,18.31,18.31,0,0,0,9.979-4.373,26.938,26.938,0,0,0,7.79-11.551,2.809,2.809,0,0,1,3.342-1.79l.056.014a2.8,2.8,0,0,1,1.91,3.757,37.994,37.994,0,0,1-2.019,4.26,36.051,36.051,0,0,1-10.069,11.609,22.926,22.926,0,0,1-11.368,4.255,2.8,2.8,0,0,0-2.546,2.83q.288,20.632.577,41.264a2.8,2.8,0,0,1-2.735,2.843l-10.13.247a2.8,2.8,0,0,1-2.87-2.925l2.4-55.423a2.806,2.806,0,0,0-2.68-2.922c-1.143-.053-2.429-.158-3.822-.347a39.345,39.345,0,0,1-9.277-2.328c-5.729-2.466-8.709-7.993-10.1-11.516a2.8,2.8,0,0,1,1.775-3.693l.51-.16" transform="translate(-4567.023 -773.554)" fill="#4c4981"/>
              <path id="Pfad_3991" data-name="Pfad 3991" d="M4408.458,449.922c6.3.233,18.859.7,30.43,8.615,12.478,8.539,11.593,17.385,23.869,21.842,7.923,2.877,11.7.429,16.917,4.834,5.309,4.482,7.771,12.389,6.57,19.356-1.375,7.985-7.217,12.74-9.818,14.858-7.02,5.714-10.732,3.606-17.391,9.3-5.422,4.638-3.76,6.72-9.34,12.941-7.2,8.029-15.955,11.235-22.325,13.568-8.583,3.143-14.042,5.143-20.891,3.744-7.5-1.531-8.442-5.458-15.287-5.649-5.726-.159-6.306,2.554-16.1,4.941-6.2,1.512-11.124,2.712-16.961,1.06-1.833-.519-9.638-2.727-12.941-9.34-3.037-6.077.4-10.521-3.743-16.818a20.123,20.123,0,0,0-5.225-5.173c-5.645-4.228-9.222-3.5-13.036-5.7-7.325-4.218-10.11-16.1-8.345-25.3.185-.968,2.229-10.845,10.728-16.87,3.84-2.723,7.665-3.714,14.613-5.515,6.5-1.686,8.949-1.55,12.6-2.352,11.449-2.513,13.39-9.543,24.1-15.773,12.512-7.28,25.533-6.8,31.575-6.575" transform="translate(-4312.439 -449.821)" fill="#d7e0ff"/>
              <path id="Pfad_3992" data-name="Pfad 3992" d="M4968.83,893.529c-3.355,10.877-19.075,13.539-22.518,14.122-10.688,1.81-11.987-2.526-29.093-1.723-7.484.351-10,1.311-14.03-.509-5.971-2.7-11.463-9.791-10.972-17.716.6-9.726,9.925-16,16.927-17.566,8.173-1.834,10.16,3.415,21.114,2.324,9.186-.915,10.344-4.86,18.072-4.3,2.442.178,10.292,1.154,15.852,7.809.574.687,7.3,8.973,4.649,17.556" transform="translate(-4778.89 -787.467)" fill="#d7e0ff"/>
              <path id="Pfad_3993" data-name="Pfad 3993" d="M4304.659,875.547a23.993,23.993,0,0,1,11.923-18,27.477,27.477,0,0,1,12.607-3.031c5.163-.2,6.118.81,13.188,1.095a55.59,55.59,0,0,0,11.2-.776c7.582-1.215,7.9-1.687,11.268-1.6a22.156,22.156,0,0,1,13.585,4.754c7.529,6.249,7.514,16.068,7.511,18.113a21.516,21.516,0,0,1-2.21,10.161c-3.907,7.648-11.692,10.409-13.694,11.044-9.584,3.042-12.479-2.683-21.481.711-5.682,2.141-6.239,5.065-12.874,6.513a22.372,22.372,0,0,1-11.147-.156,23.414,23.414,0,0,1-10.953-7.335c-3.236-3.482-10.095-10.861-8.922-21.5" transform="translate(-4304.526 -775.454)" fill="#9eadff"/>
              <path id="Pfad_3994" data-name="Pfad 3994" d="M4476.038,614.075c-5.422,4.638-3.76,6.72-9.339,12.941-7.2,8.029-15.955,11.235-22.326,13.568-8.583,3.144-14.042,5.143-20.891,3.744-7.5-1.531-8.443-5.458-15.287-5.649-5.726-.16-6.305,2.554-16.1,4.941-6.2,1.512-11.124,2.712-16.962,1.06-1.833-.519-9.636-2.727-12.941-9.339-3.037-6.077.4-10.521-3.743-16.818a20.13,20.13,0,0,0-5.225-5.173c-5.644-4.228-9.222-3.5-13.036-5.7-5.058-2.912-7.948-9.478-8.674-16.292a23.758,23.758,0,0,0-5.946,3.029c-8.5,6.025-10.542,15.9-10.728,16.87-1.765,9.2,1.021,21.08,8.346,25.3,3.813,2.2,7.391,1.47,13.036,5.7a20.136,20.136,0,0,1,5.224,5.173c4.144,6.3.706,10.741,3.743,16.818,3.3,6.613,11.108,8.821,12.941,9.34,5.838,1.652,10.76.452,16.962-1.06,9.793-2.387,10.373-5.1,16.1-4.941,6.845.191,7.787,4.118,15.287,5.649,6.848,1.4,12.307-.6,20.89-3.744,6.371-2.333,15.125-5.539,22.326-13.568,5.58-6.221,3.918-8.3,9.34-12.941,6.658-5.7,10.37-3.588,17.391-9.3,2.6-2.117,8.443-6.872,9.818-14.858a22.052,22.052,0,0,0-.614-9.745c-3.009,1.054-5.831,1.781-9.592,5" transform="translate(-4312.438 -564.072)" fill="#9eadff"/>
              <path id="Pfad_3995" data-name="Pfad 3995" d="M4959.914,904.989c-10.687,1.81-11.987-2.527-29.093-1.724-7.484.351-10,1.312-14.03-.509-5.97-2.7-11.463-9.791-10.972-17.716.027-.433.092-.852.152-1.271-6.36,2.488-13.239,8.263-13.754,16.574-.491,7.925,5,15.018,10.972,17.716,4.027,1.821,6.546.861,14.03.509,17.105-.8,18.405,3.534,29.093,1.724,3.442-.583,19.163-3.245,22.519-14.122a13.846,13.846,0,0,0,.589-3.654,50.782,50.782,0,0,1-9.506,2.473" transform="translate(-4778.891 -800.107)" fill="#9eadff"/>
            </g>
          </g>
        </g>
        <g id="Gruppe_832" data-name="Gruppe 832" transform="translate(404.756 102.384)">
          <g id="Gruppe_831" data-name="Gruppe 831" clip-path="url(#clip-path-3)">
            <g id="Gruppe_1988" data-name="Gruppe 1988" transform="translate(707.683 101.294)">
              <path id="Pfad_4070" data-name="Pfad 4070" d="M3842.11,324.086h-62.142a10.909,10.909,0,1,1,0-21.819h62.142a10.909,10.909,0,1,1,0,21.819" transform="translate(-3769.059 -292.048)" fill="#fff"/>
              <path id="Pfad_4071" data-name="Pfad 4071" d="M3891.709,266.386H3877.9a8.562,8.562,0,1,1,0-17.123h13.809a8.562,8.562,0,1,1,0,17.123" transform="translate(-3850.006 -249.263)" fill="#fff"/>
            </g>
          </g>
        </g>
        <rect id="Rechteck_527" data-name="Rechteck 527" width="1020.43" height="563.968" transform="translate(404.756 102.385)" fill="none"/>
        <path id="Pfad_4167" data-name="Pfad 4167" d="M7.142.452,8.358,3.794l2.826,2.159A.686.686,0,0,1,11,7.142L7.659,8.357,5.5,11.184A.686.686,0,0,1,4.311,11L3.1,7.659.27,5.5a.686.686,0,0,1,.182-1.19L3.794,3.1,5.952.27a.686.686,0,0,1,1.19.182" transform="matrix(0.883, -0.469, 0.469, 0.883, 798.166, 377.366)" fill="#fff"/>
        <path id="Pfad_4168" data-name="Pfad 4168" d="M8.515.539,9.964,4.523,13.333,7.1a.818.818,0,0,1-.217,1.419L9.132,9.964l-2.573,3.37a.818.818,0,0,1-1.419-.217L3.691,9.132.322,6.558A.818.818,0,0,1,.538,5.14L4.523,3.691,7.1.322A.818.818,0,0,1,8.515.539" transform="matrix(0.883, -0.469, 0.469, 0.883, 866.64, 328.33)" fill="#fff"/>
        <g id="Gruppe_2065" data-name="Gruppe 2065" transform="translate(298.128 335.455)">
          <path id="Pfad_4070-2" data-name="Pfad 4070" d="M3842.11,324.086h-62.142a10.909,10.909,0,1,1,0-21.819h62.142a10.909,10.909,0,1,1,0,21.819" transform="translate(-3769.059 -292.048)" fill="#fff"/>
          <path id="Pfad_4071-2" data-name="Pfad 4071" d="M3891.709,266.386H3877.9a8.562,8.562,0,1,1,0-17.123h13.809a8.562,8.562,0,1,1,0,17.123" transform="translate(-3850.006 -249.263)" fill="#fff"/>
        </g>
      </g>
    </g>
    <path id="Pfad_489" data-name="Pfad 489" d="M1139.87,1038.217a3.348,3.348,0,0,1-5.347,0,3.739,3.739,0,0,0-3.771,3.7,3.694,3.694,0,0,0,.845,2.332c.035.041,1.687,1.888,4.91,5.488a.936.936,0,0,0,.695.311h0a.936.936,0,0,0,.7-.312l4.914-5.507a3.661,3.661,0,0,0,.831-2.313,3.739,3.739,0,0,0-3.772-3.7m-5.347.832a3.2,3.2,0,0,1,2.345,1.4.439.439,0,0,0,.657,0,3.2,3.2,0,0,1,2.345-1.4,2.906,2.906,0,0,1,2.939,2.865,2.77,2.77,0,0,1-.63,1.772l-4.9,5.493a.1.1,0,0,1-.15,0c-3.191-3.565-4.84-5.408-4.9-5.478a2.79,2.79,0,0,1-.642-1.787,2.906,2.906,0,0,1,2.939-2.865" transform="translate(-232.944 -545.827)" fill="none" fill-rule="evenodd"/>
    <path id="Pfad_489-2" data-name="Pfad 489" d="M1139.332,1038.217a3.15,3.15,0,0,1-5.032,0,3.518,3.518,0,0,0-3.549,3.479,3.477,3.477,0,0,0,.8,2.194c.033.039,1.587,1.776,4.62,5.165a.88.88,0,0,0,.654.292h0a.88.88,0,0,0,.654-.293l4.624-5.182a3.445,3.445,0,0,0,.782-2.176,3.518,3.518,0,0,0-3.549-3.479m-5.032.783a3.01,3.01,0,0,1,2.207,1.314.414.414,0,0,0,.619,0,3.01,3.01,0,0,1,2.207-1.314,2.735,2.735,0,0,1,2.766,2.7,2.607,2.607,0,0,1-.593,1.667l-4.614,5.169a.1.1,0,0,1-.141,0c-3-3.354-4.555-5.09-4.611-5.156a2.626,2.626,0,0,1-.6-1.681,2.735,2.735,0,0,1,2.766-2.7" transform="translate(-226.568 -615.442)" fill="none" fill-rule="evenodd"/>
    <g id="Gruppe_1990" data-name="Gruppe 1990" transform="translate(8.952 723.684)">
      <path id="Pfad_4013" data-name="Pfad 4013" d="M2288.338,2373.137q-.715-5.455-1.643-10.559l-12.671-20.648a56.253,56.253,0,0,0-2.816,13.14c-.49,5.4-.18,10.8,2.112,21.587.427,2.009.334,6.725-.255,6.854-15.553,3.419-29.972,54.082-24.684,56.316,1.04.439,2.2-1.264,8.4-8.229,11.011-12.381,19.912-21.136,26.1-27.579,2.446-.439,6.03-26.542,5.462-30.882" transform="translate(-2247.267 -2253.057)" fill="#f2d899"/>
      <path id="Pfad_4014" data-name="Pfad 4014" d="M2395.261,2251.866a38.45,38.45,0,0,0-6.8,6.57,39.508,39.508,0,0,0-6.767,12.624c0,.011-.007.021-.01.032-.162.51-.787,2.781,1.38,6.351,3.237,5.333,7.933,5.708,9.855,10.559a10.519,10.519,0,0,1,.7,4.224,119.419,119.419,0,0,1,20.179-13.609,67.516,67.516,0,0,1,9.385-3.754c1.067-.319,1.962-.551,2.581-.7q-.187-2.482-.454-5.05c-.532-5.079-1.263-9.894-2.127-14.426l-27.923-2.816" transform="translate(-2355.597 -2180.356)" fill="#fff2cc"/>
      <path id="Pfad_4015" data-name="Pfad 4015" d="M2450.567,1992.756l3.432,8.581-11.8,1.717q-.751-6.115-1.5-12.229Z" transform="translate(-2403.406 -1969.642)" fill="#9898ea"/>
      <path id="Pfad_4016" data-name="Pfad 4016" d="M2300.351,2063.218a52.121,52.121,0,0,0-8.536,5.6c-8.763,7.05-17.352,17.972-15.151,20.922,1.425,1.91,7.044.041,17.054-3.289a132.041,132.041,0,0,0,13.14-5.162l-6.507-18.068" transform="translate(-2270.714 -2028.078)" fill="#9898ea"/>
      <path id="Pfad_4017" data-name="Pfad 4017" d="M2286.6,2168.614c2.741,1,3.345,3.522,6.1,8.916,5.769,11.292,11.106,15.864,9.675,17.561-.95,1.125-4.026-.024-5.878-.734-11.1-4.257-22.541-15.8-19.895-22.015,1.378-3.233,6.554-4.982,10-3.728" transform="translate(-2270.636 -2112.825)" fill="#9898ea"/>
      <path id="Pfad_4018" data-name="Pfad 4018" d="M2389.228,2038.911a26.4,26.4,0,0,0,1.877,12.9c3.915,9.093,12.353,12.607,11.5,18.772a8.051,8.051,0,0,1-2.112,4.223,46.244,46.244,0,0,0,18.068,5.4,45.62,45.62,0,0,0,11.263-.469q-.245-2.568-.469-5.162-.888-10.26-1.408-20.179a5.894,5.894,0,0,0,1.642-2.112c1.443-3.219-.7-7.046-1.877-9.151-1.54-2.752-2.413-2.941-4.224-6.1a30.287,30.287,0,0,1-2.346-5.162,54.062,54.062,0,0,0-24.168,3.285,51.787,51.787,0,0,0-7.744,3.754" transform="translate(-2361.766 -2002.598)" fill="#5d5cb0"/>
      <path id="Pfad_4019" data-name="Pfad 4019" d="M2411.693,1914.076a14.968,14.968,0,0,0,7.977,3.148c1.888.106,4.669.254,6.3-1.469,2.572-2.721.49-8.235-.839-11.755-1.226-3.246-1.961-5.194-3.989-6.718-3.705-2.785-10.511-3.24-13.855.84-2.772,3.383-1.86,8.113-.629,10.706,1.215,2.56,3.165,3.931,5.038,5.248" transform="translate(-2374.966 -1892.393)" fill="#9898ea"/>
      <path id="Pfad_4020" data-name="Pfad 4020" d="M2401.5,1892.594c-1.2-.768-3.016-.911-3.713-.119-.968,1.1.248,4.4,2.574,5.792a5.417,5.417,0,0,0,2.42.733,4.814,4.814,0,0,1-.274,3.987c-1.724,2.773-7.222,2.5-10.727.644-5.121-2.707-5.746-8.695-5.792-9.225a12.457,12.457,0,0,1,5.364-11.156c2.353-1.6,4.622-1.79,8.8-2.145a44.233,44.233,0,0,1,10.941.429,11.992,11.992,0,0,1-4.72,5.792,11.714,11.714,0,0,1-4.934,1.716l2.949,5.153-.641.321-.641.32a3.875,3.875,0,0,0-1.6-2.242" transform="translate(-2359.205 -1880.946)" fill="#fc6681"/>
      <path id="Pfad_4021" data-name="Pfad 4021" d="M2506.564,1928.716a6.3,6.3,0,0,0,1.105.728c3.307,1.775,6.983,1.107,12.317-.19a129.593,129.593,0,0,0,15.344-4.933c2.709-.985,4.417-1.653,5.356-3.485,1.282-2.5.365-5.684-.713-8.364-4.787-11.9-17.742-26.366-20.221-24.494-1.01.763.8,6.145,4.406,16.908.887,2.645,1.689,4.875,2.308,6.548-2.41.491-5.959,1.174-10.289,1.861-8.536,1.355-10.558,1.237-11.913,3.282-2.1,3.177-.974,9.368,2.3,12.138" transform="translate(-2453.856 -1886.49)" fill="#9898ea"/>
      <path id="Pfad_4022" data-name="Pfad 4022" d="M2492.858,1933.155h0a.8.8,0,0,0-.436,1.047l.611,1.482a.8.8,0,0,0,1.483-.611l-.611-1.482a.8.8,0,0,0-1.047-.436" transform="translate(-2445.11 -1923.041)" fill="#5d5cb0"/>
      <path id="Pfad_4023" data-name="Pfad 4023" d="M2450.216,2348.851c-.3-3.22-.468-4.851-1.643-5.866-4.818-4.164-23.417,2.8-30.034,16.19-1.264,2.558-1.379,29.271-2.766,30.615-11.436,11.081,2.918,61.763,8.591,60.885,1.115-.173,1.209-2.232,2.819-11.412,4.336-24.719,20.3-70.68,20.686-71.875a45.678,45.678,0,0,0,2.347-18.537" transform="translate(-2379.814 -2252.939)" fill="#fff2cc"/>
    </g>
    <g id="Gruppe_2009" data-name="Gruppe 2009" transform="translate(823.969 257.472)">
      <g id="Gruppe_2003" data-name="Gruppe 2003" transform="translate(0 0)">
        <path id="Pfad_4054" data-name="Pfad 4054" d="M4143.506,1273.094c-4.1,4.583-9.639,12.431-10.256,22.641-.19,3.155-.417,6.879,1.252,7.641,3.151,1.44,13.439-7.529,13.534-18.147a19.474,19.474,0,0,0-4.53-12.135" transform="translate(-4096.973 -1257.022)" fill="#9898ea"/>
        <path id="Pfad_4055" data-name="Pfad 4055" d="M4121.105,1271.165a25.188,25.188,0,0,0-3.166,3.814,10.707,10.707,0,0,0-2.1,4.157,8.245,8.245,0,0,0,1.338,5.718,17.225,17.225,0,0,1-12.341,12.345q3.538.114,7.313.427,1.509.128,2.974.284s5.523.638,8.651,2.26c.176.092.337.18.559.315.67.41,4.242,2.593,4.276,5.911.033,3.279-3.414,5.321-3.557,5.4,1.073,0,4.171-.122,6.191-2.361.681-.755,1.286-1.8,1.87-4.571a32.846,32.846,0,0,0,.685-8.289c-.178-3.214.441-8.035,4.185-14.831a7.133,7.133,0,0,0,.046-7.485,7.537,7.537,0,0,0-6.111-3.349q-9.617,8.5-11.621,6.975-1.364-1.037.8-6.724" transform="translate(-4074.146 -1255.261)" fill="#fff2cc"/>
        <path id="Pfad_4056" data-name="Pfad 4056" d="M4235.586,1287.418a4.224,4.224,0,0,1,2.215.115c2.724,1.045,3.09,6.219,4.032,15.244.575,5.505.862,8.258,1.049,9.444,2.024,12.788,8.146,21.285,7.093,21.914-.469.28-1.92-1.257-3.7-3.143a43.3,43.3,0,0,1-3.733-4.735c-.247-.344-1.95-2.729-2.969-4.351-4.116-6.552-6.214-15.237-7.14-19.162-1.553-6.594-1.573-9.524-.39-11.887.41-.819,1.477-2.951,3.542-3.437" transform="translate(-4176.15 -1268.506)" fill="#9898ea"/>
        <path id="Pfad_4057" data-name="Pfad 4057" d="M4232.245,1286.164c.639-5.485-2.5-9.714-5.349-10.063-3.062-.375-7.555,3.507-7.567,9.7a20.276,20.276,0,0,1,12.916.362" transform="translate(-4166.563 -1259.429)" fill="#fff2cc"/>
        <path id="Pfad_4058" data-name="Pfad 4058" d="M4024.891,1341.144c-2.1,3.388-15.219,2.151-23.292-4.6-6.009-5.021-9.852-13.62-7.225-16.219,2.962-2.93,13.987,1.922,20.812,7.222,4.206,3.265,11.653,10.456,9.706,13.594" transform="translate(-3984.298 -1294.436)" fill="#5d5cb0"/>
        <path id="Pfad_4059" data-name="Pfad 4059" d="M3957.511,1319.963c3.382-.013,7.572,8.438,6.418,15.372-.307,1.844-1.164,3.568-2.878,7.017a58.535,58.535,0,0,1-7.562,11.575c-3.865,4.614-5.8,6.921-6.725,6.616-4.043-1.326,3.47-40.552,10.747-40.58" transform="translate(-3945.629 -1294.855)" fill="#5d5cb0"/>
        <path id="Pfad_4060" data-name="Pfad 4060" d="M4104.9,1374.193c-2.126,3.611-15.236,2.112-23.264-5.238-5.974-5.47-9.759-14.751-7.114-17.508,2.982-3.108,13.975,2.246,20.764,8.024,4.184,3.561,11.584,11.379,9.614,14.722" transform="translate(-4048.977 -1319.532)" fill="#4c4981"/>
        <path id="Pfad_4061" data-name="Pfad 4061" d="M4037.591,1350.66c3.382.03,7.515,9.157,6.314,16.588-.319,1.976-1.188,3.816-2.926,7.5a62.856,62.856,0,0,1-7.641,12.329c-3.9,4.9-5.845,7.356-6.771,7.017-4.034-1.476,3.746-43.5,11.024-43.431" transform="translate(-4010.072 -1319.634)" fill="#4c4981"/>
        <path id="Pfad_4062" data-name="Pfad 4062" d="M4185.556,1200.985a5.214,5.214,0,0,1-1.9-1.041,3.342,3.342,0,0,1-1.1-1.637c-.863-3.15,3.807-7.774,8.628-8.4.974-.126,3.733-.485,5.682,1.409a5.8,5.8,0,0,1,1.063,6.821,8.354,8.354,0,0,1-2.537,2.746c-1.457.991-5.276,1.505-9.838.1" transform="translate(-4136.797 -1189.782)" fill="#9898ea"/>
        <path id="Pfad_4063" data-name="Pfad 4063" d="M4183.51,1232.543q-.464,1.989-.929,3.978c-.39.132-.8.287-1.23.471q-.385.166-.735.339-3.058,6.8-1.558,8.026,2.167,1.773,13.855-8.092l-2.346-.445q-.064-3.911-.127-7.821l-6.931,3.543" transform="translate(-4133.657 -1221.429)" fill="#9898ea"/>
        <path id="Pfad_4064" data-name="Pfad 4064" d="M4225.708,1200.967c2.021-1.606,2.574-2.24,2.985-3.159a6.04,6.04,0,0,0-.968-6.309c-1.839-2-4.614-1.8-5.594-1.73a9.842,9.842,0,0,0-1.811.309Z" transform="translate(-4167.363 -1189.729)" fill="#fc6681"/>
        <path id="Pfad_4065" data-name="Pfad 4065" d="M4243.1,1235.555a2.2,2.2,0,1,1-3.094.313,2.2,2.2,0,0,1,3.094-.313" transform="translate(-4182.853 -1226.321)" fill="#fc6681"/>
        <path id="Pfad_4066" data-name="Pfad 4066" d="M4252.62,1256.563a5.123,5.123,0,1,1-.465-3.762,5.98,5.98,0,0,1,.465,3.762" transform="translate(-4190.603 -1238.693)" fill="#fc6681"/>
        <path id="Pfad_4067" data-name="Pfad 4067" d="M4258.771,1246.515a5.124,5.124,0,1,1-2.286-3.025,5.98,5.98,0,0,1,2.286,3.025" transform="translate(-4193.536 -1232.563)" fill="#fc6681"/>
        <path id="Pfad_4068" data-name="Pfad 4068" d="M4230.615,1223.491c.512.963-.154,2.319-1.488,3.027s-2.829.5-3.341-.461.154-2.319,1.488-3.027,2.829-.5,3.341.461" transform="translate(-4171.635 -1216.27)" fill="#9898ea"/>
        <path id="Pfad_4069" data-name="Pfad 4069" d="M4206.539,1202.592a.763.763,0,0,1-.646-.372c-.259-.494.24-1.094.763-1.617a.363.363,0,1,1,.513.513,2.78,2.78,0,0,0-.6.75,5.136,5.136,0,0,0,2.009-.314.363.363,0,0,1,.189.7,6.581,6.581,0,0,1-2.228.34m.01-.66h0Z" transform="translate(-4155.659 -1198.421)" fill="#5d5cb0"/>
      </g>
    </g>
    <g id="Gruppe_1989" data-name="Gruppe 1989" transform="translate(480.009 680.076)">
      <path id="Pfad_4001" data-name="Pfad 4001" d="M2452.325,1221.616c-7.356,3.207-26-13.856-30.179-34.277-3.114-15.2,1.454-33.844,8.654-35.144,8.117-1.466,19.142,19.194,23.172,35.786,2.483,10.224,5.166,30.664-1.647,33.635" transform="translate(-2359.805 -1126.197)" fill="#5d5cb0"/>
      <path id="Pfad_4002" data-name="Pfad 4002" d="M2252.456,1150.9c5.209,3.85,1.355,22.648-8.862,32.817-2.717,2.7-6.133,4.581-12.964,8.334a120.409,120.409,0,0,1-25.709,10.525c-11.555,3.222-17.332,4.833-18.387,3.266-4.6-6.825,54.712-63.226,65.922-54.943" transform="translate(-2178.216 -1124.615)" fill="#5d5cb0"/>
      <path id="Pfad_4003" data-name="Pfad 4003" d="M2590.7,1101.2a55.143,55.143,0,0,1-16.749-16.813c-12.742-20.584-7.237-46.4-10.213-46.535-.337-.015-.95.293-2.72,4.9-2.426,6.311-5.12,13.318-5.088,23.094a58.213,58.213,0,0,0,8.77,29.384,64.373,64.373,0,0,0,15.292,17.037Z" transform="translate(-2464.007 -1037.848)" fill="#5d5cb0"/>
      <path id="Pfad_4004" data-name="Pfad 4004" d="M2727.843,1358.777a55.13,55.13,0,0,1,18.432,14.95c14.846,19.122,12.1,45.375,15.073,45.2.338-.02.914-.391,2.188-5.156,1.746-6.532,3.685-13.785,2.62-23.5-1.589-14.493-8.774-24.247-11.825-28.293a63.118,63.118,0,0,0-16.193-15.019,11.84,11.84,0,0,0-5.411,2.182c-4.483,3.329-4.84,8.776-4.883,9.644" transform="translate(-2596.92 -1276.828)" fill="#9898ea"/>
      <path id="Pfad_4005" data-name="Pfad 4005" d="M2439.1,1329.032c-5.136,6.166-29.449-.726-42.346-17.1-9.6-12.187-13.878-30.9-8.026-35.293,6.6-4.95,25.717,8.571,36.76,21.594,6.8,8.025,18.369,25.091,13.612,30.8" transform="translate(-2332.673 -1221.656)" fill="#9898ea"/>
      <path id="Pfad_4006" data-name="Pfad 4006" d="M2290.366,1274.75c6.383,1.1,11.368,19.635,6.8,33.306-1.215,3.635-3.427,6.845-7.85,13.263a120.4,120.4,0,0,1-18.259,20.937c-8.883,8.062-13.324,12.092-14.969,11.165-7.168-4.039,20.546-81.048,34.281-78.672" transform="translate(-2231.284 -1220.965)" fill="#9898ea"/>
      <path id="Pfad_4007" data-name="Pfad 4007" d="M2693.273,1248.851c-2.4-1.224-3.108-2.589-3.36-3.434-1.341-4.489,5.208-11.272,12.1-12.326,1.393-.213,5.338-.816,8.2,1.837a8.662,8.662,0,0,1,2.1,8.911c-.483,1.36-1.2,2.33-3.909,4.857-2.027,1.892-4.828,4.359-8.385,7.069q1.4.7,2.8,1.418,1.549.788,3.082,1.578c-1.161.214-2.88.49-4.977.67-5.753.494-11.131.956-13.564-2.064a6.131,6.131,0,0,1-1.258-3.65c.055-.216,2.163-3.8,2.163-3.8q.2.115.4.237c.487.293.943.595,1.368.9l3.238-2.2" transform="translate(-2564.647 -1188.635)" fill="#9898ea"/>
      <path id="Pfad_4008" data-name="Pfad 4008" d="M2727.162,1211.682c-4.15-.73-6.467-4.4-5.755-7.191.674-2.644,3.992-4.239,6.464-3.819,1.937.329,1.82,1.774,5.816,5.172,2.059,1.751,2.84,2.017,5.275,4.256,2.115,1.946,2.755,2.876,3.039,3.516.019.042.079.19.126.323,1.129,3.255-3.143,8.083-3.392,8.358a16.843,16.843,0,0,1-6.158,4.277,3.8,3.8,0,0,1-4.168-.27c.493.027,4.673.2,6.587-2.642.307-.456,1.441-2.14.7-3.663a3.158,3.158,0,0,0-2.812-1.613,3.521,3.521,0,0,0-3.161,2.112l-2.558-8.816" transform="translate(-2591.846 -1163.682)" fill="#4c4981"/>
      <path id="Pfad_4009" data-name="Pfad 4009" d="M2726.52,1259.645c-1,.99-1.135,1.464-1.011,1.7.151.292.826.522,3.528-.193" transform="translate(-2595.085 -1209.328)" fill="none" stroke="#5d5cb0" stroke-linecap="round" stroke-linejoin="round" stroke-width="1"/>
      <path id="Pfad_4010" data-name="Pfad 4010" d="M2262.864,1551.93c1.209.731,3.843,2.333,4.463,5.019a2.018,2.018,0,0,1,.047.365c.143,3.2-4.788,3.558-7.918,8.451-4.157,6.5-1.259,14.916-3.7,15.53-.189.047-.7.122-1.694-.647-3.143-2.443-3.573-7.568-3.256-14.341a109.589,109.589,0,0,1,3.2-21.431,53.079,53.079,0,0,0,8.859,7.054" transform="translate(-2228.037 -1429.851)" fill="#9898ea"/>
      <path id="Pfad_4011" data-name="Pfad 4011" d="M2171.42,1348.3c.8,1.167,2.527,3.719,1.976,6.419a1.938,1.938,0,0,1-.109.351c-1.2,2.966-5.832,1.249-10.712,4.4-6.479,4.185-7.338,13.047-9.813,12.592-.192-.035-.691-.182-1.272-1.292-1.844-3.528-.108-8.368,2.993-14.4a109.574,109.574,0,0,1,11.808-18.168,53.116,53.116,0,0,0,5.129,10.1" transform="translate(-2150.734 -1270.066)" fill="#5d5cb0"/>
      <path id="Pfad_4012" data-name="Pfad 4012" d="M2578.476,1306.7c-6.743-1.466-13.17.8-16.046,5.481a12.258,12.258,0,0,0-1.589,7.559q-4.482-.554-9.115-1.041-4-.419-7.909-.765c3.394,3.818,6.117,7.2,8.151,9.829,5.8,7.506,6.732,9.918,7.242,11.651.668,2.273,2.143,7.287-.422,11.844a11.737,11.737,0,0,1-3.3,3.678,49.271,49.271,0,0,0,10.712-2.427c14.351-5,22.752-15.475,26.462-20.892a11.305,11.305,0,0,1-2-9.665,10.982,10.982,0,0,1,5.237-6.458c-10.455,1.176-18-.4-19.05-3.888-.241-.8-.335-2.347,1.632-4.906" transform="translate(-2454.641 -1245.364)" fill="#fff2cc"/>
    </g>
    <g id="Gruppe_2021" data-name="Gruppe 2021" transform="translate(556.422 646.367) rotate(50)">
      <g id="Gruppe_2019" data-name="Gruppe 2019" transform="translate(4.921 0)">
        <g id="Group_22" data-name="Group 22" transform="translate(0 0)">
          <g id="Group_2" data-name="Group 2" transform="translate(0 0)">
            <path id="Rectangle_80" data-name="Rectangle 80" d="M1.768,0h13.14a1.768,1.768,0,0,1,1.768,1.768V31.8a1.768,1.768,0,0,1-1.768,1.768H1.768A1.768,1.768,0,0,1,0,31.8V1.768A1.768,1.768,0,0,1,1.768,0Z" fill="#edeffc"/>
            <path id="Path_176" data-name="Path 176" d="M13.294,0H11.381V.228A1.085,1.085,0,0,1,10.29,1.307H4.206A1.085,1.085,0,0,1,3.115.228V0H1.324A1.318,1.318,0,0,0,0,1.311V30.493A1.318,1.318,0,0,0,1.324,31.8H13.294a1.318,1.318,0,0,0,1.324-1.311V1.313a1.3,1.3,0,0,0-.387-.928A1.331,1.331,0,0,0,13.294,0Z" transform="translate(1.061 0.883)" fill="#fbfdff"/>
          </g>
        </g>
      </g>
      <g id="Gruppe_2020" data-name="Gruppe 2020" transform="translate(0 21.481) rotate(-53)" style="isolation: isolate">
        <g id="Gruppe_419" data-name="Gruppe 419" transform="matrix(0.999, 0.035, -0.035, 0.999, 0.619, 0)">
          <path id="Pfad_2647-2" data-name="Pfad 2647" d="M0,1.323a4.678,4.678,0,0,1,2.381.355,3.308,3.308,0,0,1,1.4,1.014,3.41,3.41,0,0,1,.631,1.79,4.885,4.885,0,0,1-.22,2.13A12.155,12.155,0,0,0,6.436,2.972a2.409,2.409,0,0,0,.037-1.127A2.356,2.356,0,0,0,6,.886,2.442,2.442,0,0,0,5.068.193,2.673,2.673,0,0,0,3.985,0,3.3,3.3,0,0,0,2.67.328C2.072.59,1.227.924,0,1.323Z" transform="translate(13.632 0)" fill="url(#linear-gradient)"/>
          <path id="Pfad_2648-2" data-name="Pfad 2648" d="M11.671,0a.578.578,0,0,1-.105.042A7.779,7.779,0,0,0,9.888.876,3.754,3.754,0,0,0,8.838,2.3,7.556,7.556,0,0,0,8.2,3.878C7.8,5.294,7.359,6.7,6.964,8.118,6.67,9.173,6.68,9.025,6,11.249c-.367,1.2-.883,2.925-1.485,5.052L2.6,15.825,0,17.7c2.113-5.55,2.974-8.184,3.34-9.536A24.05,24.05,0,0,1,4.385,5.238,6.874,6.874,0,0,1,5.461,3.2a6.6,6.6,0,0,1,1.693-1.4A13.085,13.085,0,0,1,9.286.761c.6-.253.988-.382,1.221-.455A9.74,9.74,0,0,1,11.671,0Z" transform="translate(5.54 0.035)" fill="#ff92aa"/>
          <path id="Pfad_2649-2" data-name="Pfad 2649" d="M19.9,0a.58.58,0,0,0-.065.093,7.777,7.777,0,0,1-1.193,1.443,3.754,3.754,0,0,1-1.627.7,7.554,7.554,0,0,1-1.681.256c-1.471.071-2.94.179-4.411.24-1.094.045-.947.069-3.268.222-1.253.083-3.049.192-5.258.292l.027,1.97L0,7.32c5.886-.789,8.647-1.026,10.047-1.074A24.052,24.052,0,0,0,13.135,5.9a6.875,6.875,0,0,0,2.229-.583,6.6,6.6,0,0,0,1.745-1.329,13.084,13.084,0,0,0,1.5-1.838c.383-.527.6-.875.721-1.085A9.743,9.743,0,0,0,19.9,0Z" transform="translate(0 3.424)" fill="#ffb8cb"/>
        </g>
      </g>
    </g>
    <g id="Gruppe_2026" data-name="Gruppe 2026" transform="matrix(0.921, -0.391, 0.391, 0.921, 546.714, 593.523)">
      <g id="Gruppe_2025" data-name="Gruppe 2025" transform="translate(3.263 0)">
        <g id="Gruppe_2022" data-name="Gruppe 2022" transform="translate(0 0)">
          <g id="Gruppe_2019-2" data-name="Gruppe 2019" transform="translate(0 0)">
            <path id="Rectangle_80-2" data-name="Rectangle 80" d="M1.768,0h13.14a1.768,1.768,0,0,1,1.768,1.768V31.8a1.768,1.768,0,0,1-1.768,1.768H1.768A1.768,1.768,0,0,1,0,31.8V1.768A1.768,1.768,0,0,1,1.768,0Z" fill="#edeffc"/>
            <path id="Path_176-2" data-name="Path 176" d="M13.294,0H11.381V.228A1.085,1.085,0,0,1,10.29,1.307H4.206A1.085,1.085,0,0,1,3.115.228V0H1.324A1.318,1.318,0,0,0,0,1.311V30.493A1.318,1.318,0,0,0,1.324,31.8H13.294a1.318,1.318,0,0,0,1.324-1.311V1.313a1.3,1.3,0,0,0-.387-.928A1.331,1.331,0,0,0,13.294,0Z" transform="translate(1.061 0.882)" fill="#fbfdff"/>
          </g>
        </g>
      </g>
      <g id="Gruppe_738" data-name="Gruppe 738" transform="translate(0 19.787) rotate(-54)" style="isolation: isolate">
        <g id="Gruppe_419-2" data-name="Gruppe 419" transform="matrix(0.999, 0.035, -0.035, 0.999, 0.56, 0)">
          <path id="Pfad_2647-3" data-name="Pfad 2647" d="M0,1.2a4.233,4.233,0,0,1,2.155.322,2.994,2.994,0,0,1,1.267.917,3.086,3.086,0,0,1,.571,1.62,4.421,4.421,0,0,1-.2,1.928A11,11,0,0,0,5.825,2.69a2.18,2.18,0,0,0,.034-1.02A2.132,2.132,0,0,0,5.429.8,2.21,2.21,0,0,0,4.586.174,2.419,2.419,0,0,0,3.607,0a2.991,2.991,0,0,0-1.19.3C1.875.534,1.11.836,0,1.2Z" transform="translate(12.336 0)" fill="url(#linear-gradient-2)"/>
          <path id="Pfad_2648-3" data-name="Pfad 2648" d="M10.562,0a.523.523,0,0,1-.1.038A7.04,7.04,0,0,0,8.949.792,3.4,3.4,0,0,0,8,2.082,6.838,6.838,0,0,0,7.425,3.51C7.058,4.791,6.66,6.063,6.3,7.347c-.266.955-.256.821-.871,2.834-.332,1.087-.8,2.647-1.344,4.572l-1.73-.431L0,16.018C1.912,11,2.692,8.612,3.023,7.388A21.765,21.765,0,0,1,3.968,4.74,6.221,6.221,0,0,1,4.942,2.9,5.968,5.968,0,0,1,6.474,1.634,11.842,11.842,0,0,1,8.4.689C8.948.46,9.3.343,9.509.277A8.814,8.814,0,0,1,10.562,0Z" transform="translate(5.014 0.031)" fill="#0654cc"/>
          <path id="Pfad_2649-3" data-name="Pfad 2649" d="M18.007,0a.525.525,0,0,0-.059.084,7.038,7.038,0,0,1-1.08,1.306,3.4,3.4,0,0,1-1.472.631,6.837,6.837,0,0,1-1.521.232c-1.331.065-2.661.162-3.992.217-.99.041-.857.062-2.958.2-1.134.075-2.76.174-4.758.264l.025,1.783L0,6.624C5.327,5.91,7.825,5.7,9.092,5.652a21.768,21.768,0,0,0,2.794-.315A6.222,6.222,0,0,0,13.9,4.81a5.968,5.968,0,0,0,1.579-1.2,11.841,11.841,0,0,0,1.361-1.663c.347-.477.54-.792.653-.982A8.817,8.817,0,0,0,18.007,0Z" transform="translate(0 3.099)" fill="#0f83e6"/>
        </g>
      </g>
    </g>
    <g id="Gruppe_2027" data-name="Gruppe 2027" transform="matrix(0.616, 0.788, -0.788, 0.616, 565.781, 521.303)">
      <g id="Gruppe_2025-2" data-name="Gruppe 2025" transform="translate(3.944 0)">
        <g id="Gruppe_2022-2" data-name="Gruppe 2022" transform="translate(0 0)">
          <g id="Gruppe_2019-3" data-name="Gruppe 2019" transform="translate(0 0)">
            <path id="Rectangle_80-3" data-name="Rectangle 80" d="M1.768,0h13.14a1.768,1.768,0,0,1,1.768,1.768V31.8a1.768,1.768,0,0,1-1.768,1.768H1.768A1.768,1.768,0,0,1,0,31.8V1.768A1.768,1.768,0,0,1,1.768,0Z" transform="translate(0 0)" fill="#edeffc"/>
            <path id="Path_176-3" data-name="Path 176" d="M13.294,0H11.381V.228A1.085,1.085,0,0,1,10.29,1.307H4.206A1.085,1.085,0,0,1,3.115.228V0H1.324A1.318,1.318,0,0,0,0,1.311V30.493A1.318,1.318,0,0,0,1.324,31.8H13.294a1.318,1.318,0,0,0,1.324-1.311V1.313a1.3,1.3,0,0,0-.387-.928A1.331,1.331,0,0,0,13.294,0Z" transform="translate(1.061 0.882)" fill="#fbfdff"/>
          </g>
        </g>
      </g>
      <g id="Gruppe_738-2" data-name="Gruppe 738" transform="translate(0 21.143) rotate(-54)" style="isolation: isolate">
        <g id="Gruppe_419-3" data-name="Gruppe 419" transform="matrix(0.999, 0.035, -0.035, 0.999, 0.574, 0)">
          <g transform="matrix(1, 0, 0, 1, -915.25, -534.3)" filter="url(#Pfad_2647)">
            <path id="Pfad_2647-4" data-name="Pfad 2647" d="M0,1.227a4.341,4.341,0,0,1,2.21.33,3.07,3.07,0,0,1,1.3.941,3.165,3.165,0,0,1,.586,1.661,4.534,4.534,0,0,1-.2,1.977A11.281,11.281,0,0,0,5.973,2.759a2.235,2.235,0,0,0,.035-1.046,2.186,2.186,0,0,0-.44-.891A2.266,2.266,0,0,0,4.7.179,2.481,2.481,0,0,0,3.7,0,3.067,3.067,0,0,0,2.478.3C1.923.547,1.139.857,0,1.227Z" transform="translate(927.91 534.3)" fill="url(#linear-gradient-3)"/>
          </g>
          <g transform="matrix(1, 0, 0, 1, -915.25, -534.3)" filter="url(#Pfad_2648)">
            <path id="Pfad_2648-4" data-name="Pfad 2648" d="M10.831,0a.536.536,0,0,1-.1.039A7.219,7.219,0,0,0,9.177.813,3.484,3.484,0,0,0,8.2,2.135,7.012,7.012,0,0,0,7.615,3.6C7.238,4.913,6.83,6.218,6.463,7.534c-.273.979-.263.841-.894,2.906-.341,1.115-.82,2.714-1.379,4.689l-1.774-.442L0,16.427c1.961-5.151,2.76-7.6,3.1-8.85a22.32,22.32,0,0,1,.969-2.716,6.38,6.38,0,0,1,1-1.891A6.12,6.12,0,0,1,6.639,1.675,12.144,12.144,0,0,1,8.618.706C9.176.472,9.535.352,9.751.284A9.039,9.039,0,0,1,10.831,0Z" transform="translate(920.4 534.34)" fill="#8695eb"/>
          </g>
          <g transform="matrix(1, 0, 0, 1, -915.25, -534.3)" filter="url(#Pfad_2649)">
            <path id="Pfad_2649-4" data-name="Pfad 2649" d="M18.466,0a.538.538,0,0,0-.061.086A7.218,7.218,0,0,1,17.3,1.425a3.484,3.484,0,0,1-1.51.647,7.011,7.011,0,0,1-1.56.237c-1.365.066-2.728.166-4.094.223-1.015.042-.879.064-3.033.206-1.163.077-2.83.178-4.88.271l.025,1.828L0,6.793c5.462-.732,8.025-.952,9.324-1a22.322,22.322,0,0,0,2.866-.323,6.38,6.38,0,0,0,2.069-.541A6.12,6.12,0,0,0,15.878,3.7a12.143,12.143,0,0,0,1.4-1.705c.355-.489.554-.812.67-1.007A9.042,9.042,0,0,0,18.466,0Z" transform="translate(915.25 537.48)" fill="url(#linear-gradient-4)"/>
          </g>
        </g>
      </g>
    </g>
    <g id="Gruppe_2028" data-name="Gruppe 2028" transform="translate(503.376 617.848) rotate(11)">
      <g id="Gruppe_2025-3" data-name="Gruppe 2025" transform="translate(0 0)">
        <g id="Gruppe_2022-3" data-name="Gruppe 2022" transform="translate(2.705 0)">
          <g id="Gruppe_2019-4" data-name="Gruppe 2019" transform="translate(0 0)">
            <path id="Rectangle_80-4" data-name="Rectangle 80" d="M1.768,0h13.14a1.768,1.768,0,0,1,1.768,1.768V31.8a1.768,1.768,0,0,1-1.768,1.768H1.768A1.768,1.768,0,0,1,0,31.8V1.768A1.768,1.768,0,0,1,1.768,0Z" transform="translate(0 0)" fill="#edeffc"/>
            <path id="Path_176-4" data-name="Path 176" d="M13.294,0H11.381V.228A1.085,1.085,0,0,1,10.29,1.307H4.206A1.085,1.085,0,0,1,3.115.228V0H1.324A1.318,1.318,0,0,0,0,1.311V30.493A1.318,1.318,0,0,0,1.324,31.8H13.294a1.318,1.318,0,0,0,1.324-1.311V1.313a1.3,1.3,0,0,0-.387-.928A1.331,1.331,0,0,0,13.294,0Z" transform="translate(1.061 0.882)" fill="#fbfdff"/>
          </g>
        </g>
        <g id="Gruppe_738-3" data-name="Gruppe 738" transform="translate(0 21.27) rotate(-54)" style="isolation: isolate">
          <g id="Gruppe_419-4" data-name="Gruppe 419" transform="matrix(0.999, 0.035, -0.035, 0.999, 0.533, 0)">
            <path id="Pfad_2647-5" data-name="Pfad 2647" d="M0,1.138a4.026,4.026,0,0,1,2.049.306,2.847,2.847,0,0,1,1.2.872A2.935,2.935,0,0,1,3.8,3.857a4.2,4.2,0,0,1-.189,1.834A10.463,10.463,0,0,0,5.54,2.558a2.073,2.073,0,0,0,.032-.97A2.028,2.028,0,0,0,5.164.762a2.1,2.1,0,0,0-.8-.6A2.3,2.3,0,0,0,3.43,0,2.845,2.845,0,0,0,2.3.282C1.783.507,1.056.8,0,1.138Z" transform="translate(11.733 0)" fill="url(#linear-gradient-5)"/>
            <path id="Pfad_2648-5" data-name="Pfad 2648" d="M10.046,0a.5.5,0,0,1-.091.037A6.7,6.7,0,0,0,8.511.754a3.231,3.231,0,0,0-.9,1.226,6.5,6.5,0,0,0-.545,1.358c-.349,1.218-.728,2.428-1.068,3.649-.253.908-.244.78-.829,2.7-.316,1.034-.76,2.518-1.279,4.349l-1.645-.41L0,15.235c1.818-4.777,2.56-7.044,2.875-8.208a20.7,20.7,0,0,1,.9-2.519A5.917,5.917,0,0,1,4.7,2.755a5.676,5.676,0,0,1,1.457-1.2,11.263,11.263,0,0,1,1.835-.9C8.51.438,8.843.327,9.044.264A8.383,8.383,0,0,1,10.046,0Z" transform="translate(4.769 0.03)" fill="rgba(49,178,168,0.95)"/>
            <path id="Pfad_2649-5" data-name="Pfad 2649" d="M17.126,0a.5.5,0,0,0-.056.08,6.694,6.694,0,0,1-1.027,1.242,3.232,3.232,0,0,1-1.4.6,6.5,6.5,0,0,1-1.447.22c-1.266.062-2.53.154-3.8.207-.942.039-.816.059-2.813.191-1.079.071-2.625.165-4.526.251l.023,1.7L0,6.3c5.066-.679,7.443-.883,8.648-.924a20.7,20.7,0,0,0,2.658-.3,5.917,5.917,0,0,0,1.919-.5,5.676,5.676,0,0,0,1.5-1.144,11.262,11.262,0,0,0,1.294-1.582c.33-.454.514-.753.621-.934A8.387,8.387,0,0,0,17.126,0Z" transform="translate(0 2.947)" fill="rgba(63,192,182,0.95)"/>
          </g>
        </g>
      </g>
    </g>
    <g id="Gruppe_2066" data-name="Gruppe 2066" transform="translate(8.952 510.317)">
      <path id="Pfad_4074" data-name="Pfad 4074" d="M3803.415,2583.022c.331,2.5-4.467,5.2-10.716,6.026s-11.914-3.03-11.914-3.03,4.466-5.2,10.715-6.026,11.583.53,11.915,3.03" transform="translate(-3776.193 -2524.091)" fill="#9eadff"/>
      <path id="Pfad_4075" data-name="Pfad 4075" d="M3774.306,2505.632c-.129,2.454-5.2,4.184-11.335,3.864s-10.87-5.024-10.87-5.024,5.2-4.183,11.334-3.863,11,2.57,10.87,5.024" transform="translate(-3752.101 -2457.606)" fill="#9eadff"/>
      <path id="Pfad_4076" data-name="Pfad 4076" d="M3779.32,2424.186c-.67,1.983-5.23,2.234-10.185.559s-7.759-6.622-7.759-6.622,5.23-2.234,10.185-.56,8.429,4.64,7.759,6.622" transform="translate(-3759.891 -2387.35)" fill="#9eadff"/>
      <path id="Pfad_4077" data-name="Pfad 4077" d="M3789.44,2344.739c-.972,1.564-4.929.863-8.838-1.567s-5.317-7.231-5.317-7.231,4.929-.864,8.837,1.566,6.289,5.667,5.317,7.231" transform="translate(-3771.573 -2319.194)" fill="#9eadff"/>
      <path id="Pfad_4078" data-name="Pfad 4078" d="M3950.537,2549.249c1.964,1.583,6.763-1.111,10.72-6.018s3.607-11.752,3.607-11.752-6.764,1.111-10.72,6.018-5.572,10.169-3.608,11.753" transform="translate(-3918.062 -2483.548)" fill="#9eadff"/>
      <path id="Pfad_4079" data-name="Pfad 4079" d="M3848.768,2658.945c-.349-2.894-6.494-4.534-13.726-3.664s-12.463,6.818-12.463,6.818,6.494,4.535,13.725,3.664,12.812-3.923,12.464-6.818" transform="translate(-3811.295 -2587.332)" fill="#9eadff"/>
      <path id="Pfad_4080" data-name="Pfad 4080" d="M3905.223,2729.781c-.8-3.285-8.107-4.32-16.313-2.313s-13.4,9.581-13.4,9.581,8.106,4.32,16.313,2.313,14.208-6.3,13.4-9.58" transform="translate(-3855.746 -2647.296)" fill="#9eadff"/>
      <path id="Pfad_4081" data-name="Pfad 4081" d="M4020.791,2597.431c2.5,1.5,7.568-2.333,11.327-8.572s2.286-14.022,2.286-14.022-7.569,2.334-11.328,8.573-4.781,12.517-2.285,14.021" transform="translate(-3976.623 -2519.964)" fill="#9eadff"/>
      <path id="Pfad_4082" data-name="Pfad 4082" d="M3905.478,2488.326c1.693,1.781,6.673-.2,11.125-4.433s4.993-10.884,4.993-10.884-6.673.2-11.124,4.433-6.687,9.1-4.993,10.884" transform="translate(-3880.445 -2434.44)" fill="#9eadff"/>
      <path id="Pfad_4083" data-name="Pfad 4083" d="M3877.642,2439.554c1.3,1.641,5.677.34,9.778-2.906s5.074-8.849,5.074-8.849-5.677-.341-9.778,2.905-6.373,7.208-5.074,8.85" transform="translate(-3857.233 -2396.461)" fill="#9eadff"/>
      <path id="Pfad_4084" data-name="Pfad 4084" d="M3868.393,2371.408c1.061,1.506,4.971.578,8.733-2.073s4.891-7.526,4.891-7.526-4.97-.577-8.732,2.073-5.952,6.02-4.892,7.526" transform="translate(-3849.548 -2341)" fill="#9eadff"/>
      <path id="Pfad_4085" data-name="Pfad 4085" d="M3858.566,2247.982c-1.752-.19-2.788-3.894-2.312-8.273s4.034-7.583,4.034-7.583,2.788,3.894,2.312,8.272-2.28,7.774-4.033,7.584" transform="translate(-3839.48 -2232.126)" fill="#9eadff"/>
      <path id="Pfad_4086" data-name="Pfad 4086" d="M3870.818,2311.045c-1.052-1.414.96-4.691,4.494-7.319s8.3-2.2,8.3-2.2-.961,4.691-4.5,7.319-7.253,3.611-8.3,2.2" transform="translate(-3851.574 -2290.396)" fill="#9eadff"/>
      <path id="Pfad_4087" data-name="Pfad 4087" d="M3868.033,2329.25a61.662,61.662,0,0,0,.552,23.8c4.561,20.8,18.056,33.1,22.064,36.609a69.85,69.85,0,0,0,12.315,8.628" transform="translate(-3848.714 -2313.699)" fill="none" stroke="#9eadff" stroke-linecap="round" stroke-linejoin="round" stroke-width="4"/>
    </g>
    <g id="Gruppe_2067" data-name="Gruppe 2067" transform="translate(80.675 507.971) rotate(56)">
      <g id="Gruppe_2005" data-name="Gruppe 2005" transform="translate(0 0)">
        <path id="Pfad_3884" data-name="Pfad 3884" d="M15.142.812C16.3,2.486,13.856,6.2,9.674,9.1S0,11.325,0,11.325,1.285,5.942,5.467,3.038,13.98-.862,15.142.812" transform="translate(17.328 39.134)" fill="#5d5cb0"/>
        <path id="Pfad_3885" data-name="Pfad 3885" d="M16.373,1.246c.815,1.81-2.19,4.927-6.712,6.963S0,8.618,0,8.618,2.19,3.691,6.711,1.655s8.847-2.219,9.662-.409" transform="translate(8.464 32.724)" fill="#5d5cb0"/>
        <path id="Pfad_3886" data-name="Pfad 3886" d="M15.125,2.1c.252,1.672-2.93,3.536-7.107,4.165A12.952,12.952,0,0,1,0,4.373,12.953,12.953,0,0,1,7.107.208c4.177-.629,7.767.216,8.018,1.888" transform="translate(3.583 24.865)" fill="#5d5cb0"/>
        <path id="Pfad_3887" data-name="Pfad 3887" d="M13.414,3.253c-.12,1.483-3.22,2.441-6.925,2.141A11.4,11.4,0,0,1,0,2.167,11.4,11.4,0,0,1,6.924.026c3.7.3,6.61,1.745,6.49,3.227" transform="translate(0 16.176)" fill="#5d5cb0"/>
        <path id="Pfad_3888" data-name="Pfad 3888" d="M2.2,18.054c2,.411,4.446-3.3,5.473-8.283S5.925,0,5.925,0,1.479,3.3.452,8.283.209,17.643,2.2,18.054" transform="translate(36.538 24.811)" fill="#5d5cb0"/>
        <path id="Pfad_3889" data-name="Pfad 3889" d="M17.639.966C16.319-.983,11.3.11,6.429,3.408S0,12.908,0,12.908s6.339.856,11.209-2.441,7.75-7.551,6.43-9.5" transform="translate(26.877 44.298)" fill="#5d5cb0"/>
        <path id="Pfad_3890" data-name="Pfad 3890" d="M18.653.821C16.863-1.241,11.236.714,6.085,5.188S0,17.021,0,17.021s7.417.107,12.568-4.367S20.443,2.882,18.653.821" transform="translate(38.499 47.813)" fill="#5d5cb0"/>
        <path id="Pfad_3891" data-name="Pfad 3891" d="M3.6,21.253c2.349.158,4.572-4.472,4.966-10.341S5.026,0,5.026,0,.454,4.473.06,10.342,1.251,21.1,3.6,21.253" transform="translate(47.887 25.739)" fill="#5d5cb0"/>
        <path id="Pfad_3892" data-name="Pfad 3892" d="M1.544,16.955c1.874.653,4.716-2.612,6.349-7.294S7.457,0,7.457,0,2.741,2.612,1.108,7.294-.33,16.3,1.544,16.955" transform="translate(27.489 20.178)" fill="#5d5cb0"/>
        <path id="Pfad_3893" data-name="Pfad 3893" d="M1.054,13.929c1.539.7,4.2-1.853,5.948-5.7A12.952,12.952,0,0,0,7.374,0,12.953,12.953,0,0,0,1.427,5.7C-.319,9.546-.486,13.23,1.054,13.929" transform="translate(20.67 17.163)" fill="#5d5cb0"/>
        <path id="Pfad_3894" data-name="Pfad 3894" d="M.809,11.927c1.318.689,3.783-1.422,5.5-4.715A11.4,11.4,0,0,0,7.045,0a11.4,11.4,0,0,0-5.5,4.716C-.182,8.009-.509,11.237.809,11.927" transform="translate(15.104 10.633)" fill="#5d5cb0"/>
        <path id="Pfad_3895" data-name="Pfad 3895" d="M5.261,12.022c-1.329.511-3.44-1.766-4.717-5.085A10.912,10.912,0,0,1,.638,0,10.9,10.9,0,0,1,5.355,5.085c1.276,3.32,1.235,6.426-.094,6.936" transform="translate(5.448)" fill="#5d5cb0"/>
        <path id="Pfad_3896" data-name="Pfad 3896" d="M.824,11.562c-1.278-.627-1.044-3.724.524-6.917A10.906,10.906,0,0,1,6.5,0a10.909,10.909,0,0,1-.523,6.917C4.408,10.109,2.1,12.189.824,11.562" transform="translate(11.769 3.845)" fill="#5d5cb0"/>
      </g>
      <path id="Pfad_3897" data-name="Pfad 3897" d="M0,0A49.8,49.8,0,0,0,9.193,16.889,55.59,55.59,0,0,0,38.564,35.023a56.42,56.42,0,0,0,12.031,1.645" transform="translate(10.764 11.717)" fill="none" stroke="#5d5cb0" stroke-linecap="round" stroke-linejoin="round" stroke-width="2"/>
    </g>
  </g>
</svg>
