<svg xmlns="http://www.w3.org/2000/svg" width="133" height="133" viewBox="0 0 133 133">
  <g id="Gruppe_184" data-name="Gruppe 184" transform="translate(-811 -6364)">
    <g id="Gruppe_183" data-name="Gruppe 183">
      <circle id="Ellipse_37" data-name="Ellipse 37" cx="66.5" cy="66.5" r="66.5" transform="translate(811 6364)" fill="#ff696e"/>
      <g id="Gruppe_169" data-name="Gruppe 169" transform="translate(827.36 6382.678)">
        <path id="Pfad_277" data-name="Pfad 277" d="M50.791,76.652H45.559V52.085l8.011-8.012a1.682,1.682,0,0,0-2.378-2.378l-5.633,5.633V32.5a8.764,8.764,0,1,0-3.364,0V66.853l-3.7-3.7a6.076,6.076,0,0,0,.716-2.82,6.158,6.158,0,1,0-6.157,6.157,6.1,6.1,0,0,0,3.135-.886l5.6,5.6a1.6,1.6,0,0,0,.405.269v5.178H36.963a1.682,1.682,0,1,0,0,3.364H50.791a1.682,1.682,0,1,0,0-3.364ZM38.477,23.905a5.4,5.4,0,1,1,5.4,5.4A5.406,5.406,0,0,1,38.477,23.905ZM30.256,60.331a2.794,2.794,0,1,1,2.8,2.794A2.8,2.8,0,0,1,30.256,60.331Z" transform="translate(7.672)" fill="#fbfdff"/>
        <path id="Pfad_278" data-name="Pfad 278" d="M26.062,51.714H17.322a1.682,1.682,0,0,0,0,3.364h8.741a1.682,1.682,0,0,0,0-3.364Z" transform="translate(0 24.938)" fill="#fbfdff"/>
        <path id="Pfad_279" data-name="Pfad 279" d="M29.538,51.714H26.556a1.682,1.682,0,1,0,0,3.364h2.982a1.682,1.682,0,1,0,0-3.364Z" transform="translate(6.296 24.938)" fill="#fbfdff"/>
        <path id="Pfad_280" data-name="Pfad 280" d="M63.655,51.8H45.725a1.682,1.682,0,0,0,0,3.364h17.93a1.682,1.682,0,0,0,0-3.364Z" transform="translate(19.367 24.998)" fill="#fbfdff"/>
        <circle id="Ellipse_39" data-name="Ellipse 39" cx="3.458" cy="3.458" r="3.458" transform="translate(56.007 56.873)" fill="#fbfdff"/>
        <path id="Pfad_281" data-name="Pfad 281" d="M52.446,27.268a3.458,3.458,0,1,0-3.458-3.458A3.459,3.459,0,0,0,52.446,27.268Z" transform="translate(22.739 3.553)" fill="#fbfdff"/>
        <path id="Pfad_282" data-name="Pfad 282" d="M22.1,41.553a3.458,3.458,0,1,0-3.458-3.458A3.458,3.458,0,0,0,22.1,41.553Z" transform="translate(2.05 13.293)" fill="#fbfdff"/>
        <path id="Pfad_283" data-name="Pfad 283" d="M49.574,38.274l4.778-2.76a.685.685,0,0,0,0-1.186L49.574,31.57a.685.685,0,0,0-1.028.594V37.68A.686.686,0,0,0,49.574,38.274Z" transform="translate(22.437 11.139)" fill="#fbfdff"/>
        <path id="Pfad_284" data-name="Pfad 284" d="M27.141,23.694l-4.778-2.76a.686.686,0,0,0-1.028.594v5.516a.686.686,0,0,0,1.028.594l4.778-2.758A.685.685,0,0,0,27.141,23.694Z" transform="translate(3.883 3.887)" fill="#fbfdff"/>
        <rect id="Rechteck_87" data-name="Rechteck 87" width="6.007" height="6.007" rx="1.178" transform="translate(35.625 37.889)" fill="#fbfdff"/>
      </g>
    </g>
  </g>
</svg>
