<svg xmlns="http://www.w3.org/2000/svg" width="260" height="260" viewBox="0 0 260 260">
  <g id="Gruppe_182" data-name="Gruppe 182" transform="translate(-278 -5907)">
    <circle id="Ellipse_36" data-name="Ellipse 36" cx="130" cy="130" r="130" transform="translate(278 5907)" fill="#ff696e"/>
    <path id="Pfad_285" data-name="Pfad 285" d="M153.633,76.574,119.794,16.811c-.033-.059-.082-.1-.119-.158s-.1-.122-.145-.188a3.281,3.281,0,0,0-.955-.879l0-.007-.03-.01a3.289,3.289,0,0,0-1.219-.376c-.079-.01-.152-.026-.231-.033-.056,0-.109-.02-.165-.02H49.1A3.3,3.3,0,0,0,46.233,16.8L12.239,76.567c-.026.043-.033.092-.059.138a2.133,2.133,0,0,0-.086.217,3.287,3.287,0,0,0-.264,1.084.7.7,0,0,0-.02.089l0,.03a3.23,3.23,0,0,0,.211,1.179,2.465,2.465,0,0,0,.1.24,2.168,2.168,0,0,0,.112.273l33.836,59.766a3.3,3.3,0,0,0,2.866,1.67h67.836a3.253,3.253,0,0,0,.876-.122c.066-.016.125-.056.191-.079a3.194,3.194,0,0,0,.616-.267l.03-.013c.026-.016.04-.043.063-.059a3.243,3.243,0,0,0,.817-.771c.056-.069.109-.132.158-.2.033-.053.079-.1.112-.151L153.63,79.825A3.289,3.289,0,0,0,153.633,76.574Zm-23.694,2.075L123.085,36l22.534,39.791Zm-9.24,3.716L62.2,115.073V46.585ZM66.326,41.391l47.993-18.426,8.515,52.987Zm56.353,47.417-8.466,44.949-46.9-14Zm-62.025-52.3L54.145,21.729H99.157ZM54.906,39.8,27.289,63.431,48.72,25.754Zm.7,8.067V112.9L19.99,78.349Zm4.845,76.723,33.763,10.076H54.642Zm69.582-39.261L144.413,82.7l-20.755,36.487ZM29.259,96.522l25.512,24.744-5.807,10.056Z" transform="translate(324.961 5958.404)" fill="#fbfdff"/>
  </g>
</svg>
