<svg xmlns="http://www.w3.org/2000/svg" width="32" height="30.802" viewBox="0 0 32 30.802">
  <path id="Pfad_4414" data-name="Pfad 4414" d="M42.292,14.178l-.036-.034a1,1,0,0,0-.186-.2A1.059,1.059,0,0,0,41,13.79L11.234,26.219a1.059,1.059,0,0,0,.01,1.958l11.239,4.577L22.37,43.439a1.059,1.059,0,0,0,1.9.652l5.338-7.035,6.5,4.042a1.059,1.059,0,0,0,1.6-.705s4.871-25.208,4.876-25.458A1.05,1.05,0,0,0,42.292,14.178Zm-5.286,3.574L23.308,30.8l-8.887-3.619Zm2.7.354-3.8,20.374-10.64-6.621ZM27.8,35.931l-3.283,4.327.067-6.328Z" transform="translate(-10.584 -13.708)" fill="#fff"/>
</svg>
