<svg xmlns="http://www.w3.org/2000/svg" width="520" height="517" viewBox="0 0 520 517">
  <g id="Gruppe_3003" data-name="Gruppe 3003" transform="translate(-223 -4974)">
    <rect id="Fritzi" width="520" height="517" rx="40" transform="translate(223 4974)" fill="#ff696e"/>
    <path id="Pfad_5390" data-name="Pfad 5390" d="M333.581,159.61,256.806,19.068c-.075-.139-.187-.24-.269-.372-.1-.155-.217-.287-.329-.442a7.552,7.552,0,0,0-2.167-2.068l-.007-.015-.067-.023a7.275,7.275,0,0,0-2.765-.883c-.179-.023-.344-.062-.523-.077-.127,0-.247-.046-.374-.046H96.4a7.44,7.44,0,0,0-6.494,3.912L12.783,159.595c-.06.1-.075.217-.135.325a5.131,5.131,0,0,0-.194.511,7.961,7.961,0,0,0-.6,2.549,1.707,1.707,0,0,0-.045.209l.007.07a7.843,7.843,0,0,0,.478,2.773,5.92,5.92,0,0,0,.224.565,5.2,5.2,0,0,0,.254.643L89.543,307.79a7.442,7.442,0,0,0,6.5,3.927H249.953a7.14,7.14,0,0,0,1.988-.287c.149-.039.284-.132.433-.186a7.119,7.119,0,0,0,1.4-.627l.067-.031c.06-.039.09-.1.142-.139a7.476,7.476,0,0,0,1.853-1.813c.127-.163.247-.31.359-.48.075-.124.179-.225.254-.356l77.126-140.542A7.98,7.98,0,0,0,333.581,159.61Zm-53.757,4.88L264.272,64.183,315.4,157.759Zm-20.963,8.738L126.133,250.15V89.088ZM135.5,76.872,244.385,33.539,263.7,158.146ZM263.353,188.38,244.146,294.087l-106.4-32.914ZM122.628,65.4,107.86,30.634H209.985ZM109.586,73.13,46.929,128.7,95.551,40.1Zm1.6,18.971V245.045L30.368,163.786Zm10.993,180.428,76.6,23.7H108.989ZM280.049,180.2l32.614-6.174-47.09,85.806ZM51.4,206.522l57.882,58.191L96.1,288.362Z" transform="translate(310.189 5068.859)" fill="#fbfdff"/>
  </g>
</svg>
