<svg xmlns="http://www.w3.org/2000/svg" xmlns:xlink="http://www.w3.org/1999/xlink" width="786.071" height="821.955" viewBox="0 0 786.071 821.955">
  <defs>
    <clipPath id="clip-path">
      <path id="Pfad_5371" data-name="Pfad 5371" d="M63.838,4.836,256.565,60.1a17.529,17.529,0,0,1,12.028,21.7l-37.3,130.091a17.529,17.529,0,0,1-21.7,12.028L16.864,168.654a17.529,17.529,0,0,1-12.028-21.7l37.3-130.091a17.529,17.529,0,0,1,21.7-12.028Z" fill="#9aa9fb"/>
    </clipPath>
    <clipPath id="clip-path-2">
      <path id="Pfad_5371-2" data-name="Pfad 5371" d="M10.426,25.189,129.586,2.027a10.613,10.613,0,0,1,12.453,8.4l15.635,80.433a10.613,10.613,0,0,1-8.4,12.453L30.114,126.475a10.613,10.613,0,0,1-12.453-8.4L2.027,37.642a10.613,10.613,0,0,1,8.4-12.453Z" fill="#9aa9fb"/>
    </clipPath>
  </defs>
  <g id="Gruppe_2889" data-name="Gruppe 2889" transform="translate(-152.861 -5449.684)">
    <path id="Pfad_5156" data-name="Pfad 5156" d="M389.466,0c215.1,0,389.466,174.37,389.466,389.466S604.563,778.933,389.466,778.933,0,604.563,0,389.466,174.37,0,389.466,0Z" transform="translate(160 5449.684)" fill="#f6f9ff"/>
    <g id="Gruppe_2886" data-name="Gruppe 2886" transform="translate(142.197 5701.859) rotate(-8)">
      <path id="Pfad_2552" data-name="Pfad 2552" d="M27.067,5.92c12.547,1.034,22.434.373,34.9-.751C87.229,2.895,100.166-.037,108.1,0c41.15.2,61.7.2,75.658,14.736,49.7,51.746-11.778,240.808-37.7,230.277a20.4,20.4,0,0,1-7.388-5.65c-8.586-10.348-5.29-27-3.411-40.45,2.736-19.591,1.453-39.543,2.749-59.282a479.12,479.12,0,0,0-1.077-74.753c-11.582,4.176-21.341,7.47-28.584,9.849-14.161,4.651-18.735,5.816-21.19,6.414C72.317,84.756,63.2,85.163,58.332,85.2c-4.687.038-8.166-.242-9.1-.32-7.746-.655-17.7-1.5-25.882-6.44C15.759,73.853,12.1,67.192,9.2,61.753-2.934,39-.151,12.432,1.487,1.732A162.19,162.19,0,0,0,27.067,5.92Z" transform="translate(26.63 285.72)" fill="#4c4981"/>
      <path id="Pfad_2554" data-name="Pfad 2554" d="M0,180.056c10.933-9.2,28.274-25.947,39.876-50.879C67.7,69.391,44.478,1.344,52.485.016c.909-.15,2.664.485,8.938,12.366,8.6,16.286,18.147,34.369,21.214,60.821.786,6.785,4.356,41.81-14.239,82.306a175.309,175.309,0,0,1-35.864,51.013Z" transform="translate(58.95 0)" fill="#f7c8bc"/>
      <path id="Pfad_2555" data-name="Pfad 2555" d="M61.481,82.109c-10.6,18.732-19.086,33.737-34,36.025-.682.1-16.244,2.212-23.521-6.937A19.92,19.92,0,0,1,.294,102.3C.049,100.837-.92,94.1,2.833,88.041,4.485,85.37,5.3,85.672,9.638,80.816c0,0,2.668-2.985,6.212-7.9,12.687-17.6,24.268-43.089,24.268-43.089,3.391-7.465,7.67-17.551,12-29.829l36.3,5.1A192.056,192.056,0,0,1,86.006,25.63C80.728,56.218,64.875,76.107,61.481,82.109Z" transform="translate(58.457 90.07)" fill="#c7cfdd"/>
      <path id="Pfad_2556" data-name="Pfad 2556" d="M.283,42.621a23.7,23.7,0,0,1,9.939-23.2l.143-.1a102.426,102.426,0,0,1,12.409-7.25C31.007,9.6,37.5,7.761,42.027,6.513c2.486-.684,5.653-1.545,10-2.89C56.637,2.194,60.387.9,62.894,0q7.933,7.714,16.839,15.669,9.373,8.345,18.4,15.638c-.758,4.983-1.815,11.987-3.055,20.38-3.737,25.306-4.048,28.8-3.826,33.035.4,7.69,2.578,19,11.365,32.645a51.3,51.3,0,0,1,1.908,12.742,50.311,50.311,0,0,1-3.074,16.136c-4.32,11.139-35.021,23.413-77.59,22.083q-4.886-30.3-11.325-62.386c-2.147-10.635-4.1-18.231-6.708-31.594C3.475,62.248,1.66,51.509.283,42.621Z" transform="translate(5.121 170.969)" fill="#d8dfeb"/>
      <path id="Pfad_2557" data-name="Pfad 2557" d="M33.141,1.9Q34.974,13.63,36.8,25.357a10.824,10.824,0,0,0,6.46-2.556A109.851,109.851,0,0,0,55.339,40.31c4.349,5.148,7.405,7.788,6.641,10.264-1.338,4.34-13.2,4.25-16.3,4.226C36.473,54.731,20.359,52.607,0,38.978l11.357-5.389Q7.578,16.794,3.8,0Z" transform="translate(28.977 143.339)" fill="#fad0c6"/>
      <path id="Pfad_2558" data-name="Pfad 2558" d="M5.471,15.78a26.286,26.286,0,0,0,7.62,8.071C21.968,29.609,32.513,26.724,34.909,26L31.252,3.626,0,0A34.671,34.671,0,0,0,5.471,15.78Z" transform="translate(30.39 140.048)" fill="#f6afa1"/>
      <path id="Pfad_2559" data-name="Pfad 2559" d="M0,0C7.729,1.628,10.42,4.394,11.386,6.731c.583,1.406.491,2.534,1.976,7.792.964,3.417,1.2,3.623,1.213,4.494.046,2.251-1.408,5.439-8.183,9.448Q3.195,14.232,0,0Z" transform="translate(60.75 148.411)" fill="#5d3e3e"/>
      <ellipse id="Ellipse_134" data-name="Ellipse 134" cx="19.027" cy="20.124" rx="19.027" ry="20.124" transform="translate(37.834 86.399) rotate(-19.124)" fill="#5d3e3e"/>
      <path id="Pfad_2560" data-name="Pfad 2560" d="M27.662.192a33.915,33.915,0,0,1,20.707,4.45c13.786,8.272,16.74,24.473,18.846,36.025,2.309,12.667,4.109,22.54-1.672,29.368-8.737,10.323-29.779,7.769-42.864-.206C4.918,59-5.7,33.62,3.225,15.935,10.048,2.419,26.875.28,27.662.192Z" transform="translate(11.899 80.435)" fill="#fad0c6"/>
      <path id="Pfad_2561" data-name="Pfad 2561" d="M70.163,4.724C56.073,42.015,43.829,50.584,35,51.074c-6.568.364-13.259-.5-14.55,2.318-1.858,4.05,9.623,12.2,19.8,20.669A265.954,265.954,0,0,1,78.178,113.03a58.446,58.446,0,0,0-33.113,8.713A125.923,125.923,0,0,1,20.086,92.117C13.649,81.479-11.793,39.44,6.508,15.7,17.914.9,42.844-2.315,59.959,1.435A56.218,56.218,0,0,1,70.163,4.724Z" transform="translate(0 76.625)" fill="#725454"/>
      <ellipse id="Ellipse_135" data-name="Ellipse 135" cx="9.845" cy="13.629" rx="9.845" ry="13.629" transform="translate(10.333 129.166) rotate(-40.487)" fill="#fad0c6"/>
      <path id="Pfad_2562" data-name="Pfad 2562" d="M43.183,1.715C57.379,3.757,84.57,8.008,116.8,29.388c33.164,21.995,49.765,32.89,54.591,53.485C188.576,156.191,54.922,295.209,38.65,271.906a23.589,23.589,0,0,1-3.46-9.046c-2.656-15.812,21.28-57.256,37.845-94.284a425.86,425.86,0,0,1,37.355-66.441c-1.611-1.6-44.713-10.82-72.329-22.829C26.4,74.237,19.051,63.757,17.192,61.268A63.651,63.651,0,0,1,5.655,33.6Q2.829,17.379,0,1.16A164.406,164.406,0,0,1,43.183,1.715Z" transform="translate(23.126 304.122)" fill="#5d5cb0"/>
      <g id="Gruppe_385" data-name="Gruppe 385" transform="translate(60.884 136.637)">
        <g id="Gruppe_384" data-name="Gruppe 384" transform="translate(0 0)">
          <path id="Pfad_2564" data-name="Pfad 2564" d="M16.205,5.609A1.286,1.286,0,0,0,15.182,3.3a16.831,16.831,0,0,1-8.9-.08A8.118,8.118,0,0,1,2.305.5,1.286,1.286,0,0,0,.266,2.069,10.793,10.793,0,0,0,5.459,5.657a19.48,19.48,0,0,0,10.3.148A1.285,1.285,0,0,0,16.205,5.609Z" transform="translate(0 0)" fill="#9eadff"/>
        </g>
      </g>
      <path id="Pfad_2574" data-name="Pfad 2574" d="M2.171,0h0A2.171,2.171,0,0,1,4.342,2.171V6.513A2.171,2.171,0,0,1,2.171,8.684h0A2.171,2.171,0,0,1,0,6.513V2.171A2.171,2.171,0,0,1,2.171,0Z" transform="translate(65.117 123.593) rotate(165.746)" fill="#6c7fbc"/>
      <path id="Pfad_2565" data-name="Pfad 2565" d="M5.475,92.324C21.454,93.42,48.53,93.608,77.6,83.9,147.294,60.628,183.235-4.439,190.623.24c.838.531,1.718,2.219-2.8,15.139-6.2,17.711-13.077,37.376-31.761,58.48-27.863,31.473-62.413,43.9-76.929,48.954A215.151,215.151,0,0,1,12.678,134.6a32.272,32.272,0,0,1-10.4-12.828C-3.845,107.6,4.164,94.4,5.475,92.324Z" transform="translate(20.177 99.186)" fill="#fad0c6"/>
      <path id="Pfad_2566" data-name="Pfad 2566" d="M79.068,64.32c-17.694,4.968-44.355,12.117-63.308,1.008C12.3,63.3.045,56.121,0,45.635a17.384,17.384,0,0,1,2.931-9.229C8.211,28.29,17.156,26.056,19.7,25.489a31.44,31.44,0,0,1,11.213-.406c17.042,2.241,40.034-4.438,59.711-10.153A264.985,264.985,0,0,0,130,0c8.409,8.022,18.516,19.469,26.925,27.49C127.114,52.2,96.534,59.417,79.068,64.32Z" transform="translate(5.565 164.187)" fill="#d9e0ec"/>
      <path id="Pfad_2573" data-name="Pfad 2573" d="M11.773,0A11.773,11.773,0,1,1,0,11.773,11.773,11.773,0,0,1,11.773,0Z" transform="translate(50.203 111.499)" fill="none" stroke="#fc6681" stroke-width="2"/>
    </g>
    <g id="Gruppe_2887" data-name="Gruppe 2887" transform="translate(367.566 5474.115)">
      <path id="Pfad_580" data-name="Pfad 580" d="M322.09,514.677c23.618.586,50.245,0,66.562-17.08,12.39-12.965,15.3-31.959,19.47-49.4,7.533-31.495,21.229-61.805,42.037-86.64s48.9-43.973,80.335-51.694c25.266-6.217,51.838-5.044,77.237-10.631s51.484-20.642,58.509-45.687" transform="translate(-322.09 -198.666)" fill="none" stroke="#9aa9fc" stroke-linecap="round" stroke-miterlimit="10" stroke-width="2" stroke-dasharray="0 6" opacity="0.997" style="isolation: isolate"/>
      <path id="Pfad_581" data-name="Pfad 581" d="M686.2,203.952l-63.73,23.231a1.25,1.25,0,0,0-.243,2.212l9.514,5.277a2.411,2.411,0,0,1,1.106,1.438l5.453,17.257c0,.73,1.328,1.106,1.449.4l.763-13.5a4.877,4.877,0,0,1,1.471-2.533L677,212.293a.787.787,0,0,1,.7-.088.707.707,0,0,1,.393.92.7.7,0,0,1-.171.252l-31.141,28.4a5.973,5.973,0,0,0-1.427,2.5l-3.319,11.273c0,1.018.708,1.516,1.483.708l6.637-5.83a1.206,1.206,0,0,1,1.7-.01l.01.01,13.076,12.832a1.2,1.2,0,0,0,1.69-.007,1.181,1.181,0,0,0,.28-.447l20.7-57.214a1.206,1.206,0,0,0-1.526-1.582Z" transform="translate(-290.266 -203.936)" fill="#6c63ff" opacity="0.5" style="isolation: isolate"/>
      <path id="Pfad_5387" data-name="Pfad 5387" d="M686.2,203.952l-63.73,23.231a1.25,1.25,0,0,0-.243,2.212l9.514,5.277a2.411,2.411,0,0,1,1.106,1.438l5.453,17.257c0,.73,1.328,1.106,1.449.4l.763-13.5a4.877,4.877,0,0,1,1.471-2.533L677,212.293a.787.787,0,0,1,.7-.088.707.707,0,0,1,.393.92.7.7,0,0,1-.171.252l-31.141,28.4a5.973,5.973,0,0,0-1.427,2.5l-3.319,11.273c0,1.018.708,1.516,1.483.708l6.637-5.83a1.206,1.206,0,0,1,1.7-.01l.01.01,13.076,12.832a1.2,1.2,0,0,0,1.69-.007,1.181,1.181,0,0,0,.28-.447l20.7-57.214a1.206,1.206,0,0,0-1.526-1.582Z" transform="translate(-434.266 -174.102)" fill="#6c63ff" opacity="0.5" style="isolation: isolate"/>
    </g>
    <path id="Pfad_5388" data-name="Pfad 5388" d="M686.2,203.952l-63.73,23.231a1.25,1.25,0,0,0-.243,2.212l9.514,5.277a2.411,2.411,0,0,1,1.106,1.438l5.453,17.257c0,.73,1.328,1.106,1.449.4l.763-13.5a4.877,4.877,0,0,1,1.471-2.533L677,212.293a.787.787,0,0,1,.7-.088.707.707,0,0,1,.393.92.7.7,0,0,1-.171.252l-31.141,28.4a5.973,5.973,0,0,0-1.427,2.5l-3.319,11.273c0,1.018.708,1.516,1.483.708l6.637-5.83a1.206,1.206,0,0,1,1.7-.01l.01.01,13.076,12.832a1.2,1.2,0,0,0,1.69-.007,1.181,1.181,0,0,0,.28-.447l20.7-57.214a1.206,1.206,0,0,0-1.526-1.582Z" transform="translate(-138.234 5849.855)" fill="#6c63ff" opacity="0.5" style="isolation: isolate"/>
    <g id="Gruppe_2858" data-name="Gruppe 2858" transform="translate(494.196 5677.266)">
      <path id="Pfad_5366" data-name="Pfad 5366" d="M66.247,5.526,254.156,59.408a20.033,20.033,0,0,1,13.746,24.8L231.981,209.48a20.033,20.033,0,0,1-24.8,13.746L19.273,169.344a20.033,20.033,0,0,1-13.746-24.8L41.448,19.273a20.033,20.033,0,0,1,24.8-13.746Z" fill="#9aa9fb"/>
      <path id="Pfad_1110" data-name="Pfad 1110" d="M99.767,139.368a10.1,10.1,0,0,1-3.792,1.058,11.037,11.037,0,0,1-7.372-2.114,10.1,10.1,0,0,1-2.655-2.907L29.033,12.37c1.293-1.759,2.353-3.357,3.35-4.726A17.641,17.641,0,0,1,35.35,4.292a6.93,6.93,0,0,1,3.594-1.574,13.057,13.057,0,0,1,5.233.607L247.6,70.619a9.308,9.308,0,0,1,4.236,2.206,3.363,3.363,0,0,1,1.014,2.471,4.516,4.516,0,0,1-.584,2.013,5.13,5.13,0,0,1-.556.832Z" transform="translate(14.339 2.863)" fill="#314355" opacity="0.2"/>
      <path id="Pfad_5369" data-name="Pfad 5369" d="M7.581,1.382,79.854,22.105a5.012,5.012,0,1,1-2.763,9.636L4.818,11.018A5.012,5.012,0,1,1,7.581,1.382Z" transform="translate(19.29 141.463)" fill="#fff" opacity="0.4"/>
      <path id="Pfad_5370" data-name="Pfad 5370" d="M7.581,1.381l33.727,9.671a5.012,5.012,0,1,1-2.763,9.636L4.818,11.017A5.012,5.012,0,1,1,7.581,1.381Z" transform="translate(175.881 186.364)" fill="#fff" opacity="0.4"/>
      <path id="Pfad_5368" data-name="Pfad 5368" d="M7.581,1.381l33.727,9.671a5.012,5.012,0,1,1-2.763,9.636L4.818,11.017A5.012,5.012,0,1,1,7.581,1.381Z" transform="translate(24.126 124.599)" fill="#fff"/>
      <g id="Gruppe_maskieren_8" data-name="Gruppe maskieren 8" clip-path="url(#clip-path)">
        <path id="Pfad_5367" data-name="Pfad 5367" d="M120.706,133.394a10.02,10.02,0,0,1-11.87-3.4l-81.1-111.7a9.864,9.864,0,0,1-1.952-6.05A10.266,10.266,0,0,1,32.263,3a9.864,9.864,0,0,1,6.353-.233L247.673,62.714a9.864,9.864,0,0,1,5.264,3.564,10.266,10.266,0,0,1,.593,11.27,9.864,9.864,0,0,1-4.861,4.1Z" transform="translate(17.057 -0.274)" fill="#b0bbf7"/>
      </g>
    </g>
    <g id="Gruppe_2888" data-name="Gruppe 2888" transform="translate(668.8 5955.124)">
      <path id="Pfad_5366-2" data-name="Pfad 5366" d="M11.916,24.9,128.1,2.316a12.129,12.129,0,0,1,14.232,9.6L157.384,89.37a12.129,12.129,0,0,1-9.6,14.232L31.6,126.185a12.129,12.129,0,0,1-14.232-9.6L2.316,39.132a12.129,12.129,0,0,1,9.6-14.232Z" transform="translate(0)" fill="#9aa9fb"/>
      <path id="Pfad_1110-2" data-name="Pfad 1110" d="M74.553,83.588A6.115,6.115,0,0,1,72.8,85.2a6.682,6.682,0,0,1-4.558.886,6.115,6.115,0,0,1-2.231-.838L1.487,34.52c.214-1.3.347-2.458.508-3.47a10.683,10.683,0,0,1,.679-2.624A4.2,4.2,0,0,1,4.18,26.589a7.906,7.906,0,0,1,2.99-1.111L135.4,5.867a5.636,5.636,0,0,1,2.892.026,2.036,2.036,0,0,1,1.226,1.055,2.734,2.734,0,0,1,.238,1.247,3.106,3.106,0,0,1-.071.6Z" transform="translate(0.758 1.902)" fill="#314355" opacity="0.2"/>
      <path id="Pfad_5369-2" data-name="Pfad 5369" d="M2.979,9.265,47.664.579a3.035,3.035,0,1,1,1.158,5.958L4.137,15.223A3.035,3.035,0,1,1,2.979,9.265Z" transform="translate(25.44 100.536)" fill="#fff" opacity="0.4"/>
      <path id="Pfad_5370-2" data-name="Pfad 5370" d="M2.979,4.632,23.832.579A3.035,3.035,0,1,1,24.99,6.537L4.137,10.59A3.035,3.035,0,1,1,2.979,4.632Z" transform="translate(122.257 86.349)" fill="#fff" opacity="0.4"/>
      <path id="Pfad_5368-2" data-name="Pfad 5368" d="M2.979,4.632,23.832.578A3.035,3.035,0,1,1,24.99,6.536L4.137,10.59A3.035,3.035,0,1,1,2.979,4.632Z" transform="translate(23.414 94.742)" fill="#fff"/>
      <g id="Gruppe_maskieren_8-2" data-name="Gruppe maskieren 8" transform="translate(0)" clip-path="url(#clip-path-2)">
        <path id="Pfad_5367-2" data-name="Pfad 5367" d="M86.16,74.189a6.067,6.067,0,0,1-7.339,1.427L4.371,37.651a5.973,5.973,0,0,1-2.716-2.727,6.216,6.216,0,0,1,.952-6.766A5.972,5.972,0,0,1,5.97,26.286L135.226,1.161a5.972,5.972,0,0,1,3.819.476,6.216,6.216,0,0,1,3.417,5.917,5.972,5.972,0,0,1-1.5,3.546Z" transform="translate(-0.592 -0.116)" fill="#b0bbf7"/>
      </g>
    </g>
  </g>
</svg>
