<svg xmlns="http://www.w3.org/2000/svg" xmlns:xlink="http://www.w3.org/1999/xlink" width="835.923" height="816.806" viewBox="0 0 835.923 816.806">
  <defs>
    <filter id="Pfad_2647" x="120.561" y="218.323" width="133.507" height="133.446" filterUnits="userSpaceOnUse">
      <feOffset dx="8" dy="8" input="SourceAlpha"/>
      <feGaussianBlur stdDeviation="20" result="blur"/>
      <feFlood flood-color="#6c63ff" flood-opacity="0.078"/>
      <feComposite operator="in" in2="blur"/>
      <feComposite in="SourceGraphic"/>
    </filter>
    <filter id="Pfad_2648" x="115.166" y="222.408" width="152.262" height="148.002" filterUnits="userSpaceOnUse">
      <feOffset dx="8" dy="8" input="SourceAlpha"/>
      <feGaussianBlur stdDeviation="20" result="blur-2"/>
      <feFlood flood-color="#6c63ff" flood-opacity="0.102"/>
      <feComposite operator="in" in2="blur-2"/>
      <feComposite in="SourceGraphic"/>
    </filter>
    <filter id="Pfad_2649" x="116.114" y="220.983" width="143.479" height="152.366" filterUnits="userSpaceOnUse">
      <feOffset dx="8" dy="8" input="SourceAlpha"/>
      <feGaussianBlur stdDeviation="20" result="blur-3"/>
      <feFlood flood-color="#6c63ff" flood-opacity="0.161"/>
      <feComposite operator="in" in2="blur-3"/>
      <feComposite in="SourceGraphic"/>
    </filter>
    <clipPath id="clip-path">
      <path id="Pfad_5371" data-name="Pfad 5371" d="M38.762,2.883,161.717,35.828a11.129,11.129,0,0,1,7.876,13.641l-22.238,82.994a11.129,11.129,0,0,1-13.641,7.876L10.758,107.394A11.129,11.129,0,0,1,2.883,93.753L25.121,10.759A11.129,11.129,0,0,1,38.762,2.883Z" fill="#9aa9fb"/>
    </clipPath>
    <clipPath id="clip-path-2">
      <path id="Pfad_5371-2" data-name="Pfad 5371" d="M14.691,105.416,182.585,8.482a16.949,16.949,0,0,1,23.173,6.209l65.43,113.329a16.949,16.949,0,0,1-6.209,23.173L97.085,248.126a16.949,16.949,0,0,1-23.172-6.209L8.482,128.588a16.949,16.949,0,0,1,6.209-23.173Z" fill="#fff2c3"/>
    </clipPath>
  </defs>
  <g id="Gruppe_2889" data-name="Gruppe 2889" transform="translate(-141.748 -5449.684)">
    <path id="Pfad_5156" data-name="Pfad 5156" d="M408.4,0c225.555,0,408.4,182.848,408.4,408.4s-182.848,408.4-408.4,408.4S0,633.957,0,408.4,182.848,0,408.4,0Z" transform="translate(160.866 5449.684)" fill="#fceef0"/>
    <g id="Gruppe_2887" data-name="Gruppe 2887" transform="translate(378.524 5475.303)">
      <path id="Pfad_580" data-name="Pfad 580" d="M251.945,483.481c49.163,37.266,98.323,20.855,113.32,5.158,11.387-11.916,23.393-40.168,27.226-56.2,6.924-28.945,19.51-56.8,38.634-79.627s44.938-40.414,73.832-47.51c23.221-5.714,47.642-4.636,70.985-9.77s47.317-18.971,53.773-41.989" transform="translate(-268.834 -195.998)" fill="none" stroke="#9aa9fc" stroke-linecap="round" stroke-miterlimit="10" stroke-width="3" stroke-dasharray="0 9" opacity="0.997" style="isolation: isolate"/>
      <path id="Pfad_581" data-name="Pfad 581" d="M689.335,203.952l-66.829,24.36a1.311,1.311,0,0,0-.255,2.32l9.976,5.533a2.528,2.528,0,0,1,1.16,1.508l5.719,18.1c0,.766,1.392,1.16,1.52.418l.8-14.152a5.114,5.114,0,0,1,1.543-2.656L679.7,212.7a.825.825,0,0,1,.731-.093.741.741,0,0,1,.412.965.728.728,0,0,1-.18.264L648,243.613a6.264,6.264,0,0,0-1.5,2.622l-3.48,11.821c0,1.067.743,1.589,1.555.742l6.96-6.113a1.264,1.264,0,0,1,1.788-.01l.01.01,13.711,13.456a1.253,1.253,0,0,0,1.772-.007,1.239,1.239,0,0,0,.293-.469l21.7-60a1.265,1.265,0,0,0-1.6-1.659Z" transform="translate(-274.153 -203.936)" fill="#6c63ff" opacity="0.5" style="isolation: isolate"/>
      <path id="Pfad_5387" data-name="Pfad 5387" d="M689.335,203.952l-66.829,24.36a1.311,1.311,0,0,0-.255,2.32l9.976,5.533a2.528,2.528,0,0,1,1.16,1.508l5.719,18.1c0,.766,1.392,1.16,1.52.418l.8-14.152a5.114,5.114,0,0,1,1.543-2.656L679.7,212.7a.825.825,0,0,1,.731-.093.741.741,0,0,1,.412.965.728.728,0,0,1-.18.264L648,243.613a6.264,6.264,0,0,0-1.5,2.622l-3.48,11.821c0,1.067.743,1.589,1.555.742l6.96-6.113a1.264,1.264,0,0,1,1.788-.01l.01.01,13.711,13.456a1.253,1.253,0,0,0,1.772-.007,1.239,1.239,0,0,0,.293-.469l21.7-60a1.265,1.265,0,0,0-1.6-1.659Z" transform="translate(-425.154 -172.651)" fill="#9aa9fb" opacity="0.5" style="isolation: isolate"/>
    </g>
    <path id="Pfad_5388" data-name="Pfad 5388" d="M689.335,203.952l-66.829,24.36a1.311,1.311,0,0,0-.255,2.32l9.976,5.533a2.528,2.528,0,0,1,1.16,1.508l5.719,18.1c0,.766,1.392,1.16,1.52.418l.8-14.152a5.114,5.114,0,0,1,1.543-2.656L679.7,212.7a.825.825,0,0,1,.731-.093.741.741,0,0,1,.412.965.728.728,0,0,1-.18.264L648,243.613a6.264,6.264,0,0,0-1.5,2.622l-3.48,11.821c0,1.067.743,1.589,1.555.742l6.96-6.113a1.264,1.264,0,0,1,1.788-.01l.01.01,13.711,13.456a1.253,1.253,0,0,0,1.772-.007,1.239,1.239,0,0,0,.293-.469l21.7-60a1.265,1.265,0,0,0-1.6-1.659Z" transform="translate(-11.991 5444.243)" fill="#5d5cb0" style="isolation: isolate"/>
    <g id="Gruppe_3582" data-name="Gruppe 3582" transform="translate(-1134.048 4852.935)">
      <g id="Gruppe_381" data-name="Gruppe 381" transform="matrix(0.934, 0.358, -0.358, 0.934, 1422.464, 593.455)">
        <path id="Pfad_2510" data-name="Pfad 2510" d="M30.141.058C8.492,2.442-11.233,78.868,7.479,142.381c13.927,47.265,50.6,92.32,69.222,84.848,21-8.426,17.926-83.156,4.194-135.732C72.433,59.1,50.19-2.15,30.141.058Z" transform="translate(177.553 323.727)" fill="#5d5cb0"/>
        <path id="Pfad_2511" data-name="Pfad 2511" d="M63.565.853C47.393-6.711,10.131,37.244,1.551,83.475c-2.283,12.294-1.687,25.052-.5,50.566a472.337,472.337,0,0,0,12.668,89.641c9.127,37.614,13.688,56.42,18.751,56.557C54.538,280.836,98.365,17.128,63.565.853Z" transform="translate(200.61 466.099)" fill="#5d5cb0"/>
        <path id="Pfad_2512" data-name="Pfad 2512" d="M0,204.9C12.44,194.434,32.174,175.37,45.377,147,77.037,78.964,50.614,1.527,59.726.019,60.76-.152,62.757.569,69.9,14.09,79.682,32.624,90.548,53.2,94.036,83.3c.9,7.722,4.957,47.578-16.2,93.662A199.5,199.5,0,0,1,37.02,235.018Z" transform="translate(162.589)" fill="#f6afa1"/>
        <path id="Pfad_2513" data-name="Pfad 2513" d="M81.958,94.129c-10.844,15.476-27.423,38.494-50.691,40.3-4.243.331-19.291,1.5-26.764-7.894a22.662,22.662,0,0,1-4.169-10.12c-.278-1.669-1.38-9.334,2.89-16.231,1.881-3.04,2.8-2.7,7.744-8.223,0,0,3.037-3.4,7.067-8.988C32.475,62.95,45.652,33.944,45.652,33.944c3.86-8.5,8.73-19.974,13.659-33.944l55.934,10.552C108.564,51.313,92.662,78.852,81.958,94.129Z" transform="translate(162.027 102.498)" fill="#3e3e6b"/>
        <path id="Pfad_2514" data-name="Pfad 2514" d="M134.47,39.832c-14.807,4.4-39.227,13.522-61.488,33.231C19.6,120.324,13.256,197.8,4.745,195.662c-.965-.243-2.431-1.63-3.523-16.115-1.5-19.857-3.159-41.9,5.217-69.449,12.492-41.08,38.6-65.4,49.633-75.449A185.862,185.862,0,0,1,111.118,0a34.842,34.842,0,0,1,14.47,9.262C136.752,21.339,134.818,37.3,134.47,39.832Z" transform="translate(0 213.558)" fill="#fad0c6"/>
        <path id="Pfad_2515" data-name="Pfad 2515" d="M51.766,23.288C65.521,12.368,86.381-3.756,107.592.787c3.866.828,17.585,3.764,21.758,14.113a19.777,19.777,0,0,1,1.035,10.118c-1.344,8.857-8.284,14.541-10.589,16.487C109.467,50.223,83.158,75.919,47.06,111.23L0,88.947C16.734,54.4,38.188,34.067,51.766,23.288Z" transform="translate(14.004 213.605)" fill="#4c4981"/>
        <path id="Pfad_2516" data-name="Pfad 2516" d="M0,30.146q5.1-3.054,10.455-6.087Q21.45,17.843,32,12.6A393.369,393.369,0,0,1,77.114,1.037Q79.912.494,82.686,0A150.644,150.644,0,0,0,96.811,16.691c3.479,3.55,6.937,6.728,10.29,9.565a24.8,24.8,0,0,1,8.488,22.6c-.412,2.755-.85,5.7-1.31,8.819-4.253,28.8-4.606,32.779-4.354,37.593.461,8.751,2.933,21.624,12.935,37.149a58.547,58.547,0,0,1,2.169,14.5,57.243,57.243,0,0,1-3.5,18.362c-4.918,12.676-39.854,26.644-88.295,25.13-3.708-22.985-14.115-45.647-19.024-69.97C7.929,89.325,7.217,58.524,0,30.146Z" transform="translate(95.255 195.7)" fill="#4c4981"/>
        <path id="Pfad_2517" data-name="Pfad 2517" d="M40.53,4.46q1.159,13.457,2.319,26.914,5.919-1.066,12.08-2.334,6.105-1.261,11.921-2.62C78.09,33.212,84.04,42.583,82.1,49.8c-1.3,4.846-6,7.653-7.773,8.605-5.144,2.764-10.136,2.2-20.812.273C38.745,56,31.356,54.668,21.81,51.762,16.181,50.049,8.687,47.541,0,43.953l13.315-5.229Q10.342,19.363,7.369,0Z" transform="translate(104.964 170.33)" fill="#fad0c6"/>
        <path id="Pfad_2518" data-name="Pfad 2518" d="M4.974,18.342a29.887,29.887,0,0,0,8.018,9.76c9.627,7.234,21.824,4.784,24.6,4.156q-1.2-12.845-2.4-25.692L0,0A39.431,39.431,0,0,0,4.974,18.342Z" transform="translate(109.881 166.406)" fill="#f6afa1"/>
        <path id="Pfad_2519" data-name="Pfad 2519" d="M14.583,0a43.925,43.925,0,0,0,7.669,6.274c5.537,3.566,9.047,4.042,9.487,6.377.6,3.191-5.112,6.75-6.83,7.819C21.162,22.8,13.118,26.729,0,25.437Z" transform="translate(151.944 148.657)" fill="#505072"/>
        <ellipse id="Ellipse_128" data-name="Ellipse 128" cx="22.901" cy="21.652" rx="22.901" ry="21.652" transform="translate(134.526 150.289) rotate(-105.174)" fill="#505072"/>
        <path id="Pfad_2520" data-name="Pfad 2520" d="M33.855.032A38.566,38.566,0,0,1,57.014,6.707c15,10.472,17.086,29.1,18.571,42.375,1.628,14.563,2.9,25.911-4.2,33.21C60.657,93.327,36.968,88.776,22.738,78.7,3.425,65.016-6.644,35.365,4.878,15.988,13.683,1.18,32.954.07,33.855.032Z" transform="translate(91.095 99.635)" fill="#fad0c6"/>
        <path id="Pfad_2521" data-name="Pfad 2521" d="M91.912,7.713c-18.92,41.23-33.492,50-43.554,49.863-7.487-.1-15.014-1.607-16.7,1.492-2.815,5.168,12.055,18.5,20.857,25.017A97.348,97.348,0,0,0,71.269,94.965a7.725,7.725,0,0,1-1.874,4.088c-2.476,2.646-5.325,1.174-10.411,3.42-4.187,1.849-4.58,3.874-7.329,3.778-2.825-.1-2.977-2.255-6.208-3.089-4.311-1.112-6.329,2.135-11.418,1.9-2.929-.134-3.64-1.271-8.027-3.193-10.176-4.459-12.392-.985-17.419-4.823,0,0-4.874-3.723-8.112-14.123a12.331,12.331,0,0,1-.47-2.4H0c2.053-.1,4.6-.584,5.831-2.418,1.979-2.954-1.295-6.7-.781-12.4.413-4.584,3.023-7.551,4.4-9.469,8.615-12.012,1.624-28.642,9.338-41.058C29-1.259,60.307-2.754,80.584,3.18A63.884,63.884,0,0,1,91.912,7.713Z" transform="translate(67.722 95.171)" fill="#725454"/>
        <ellipse id="Ellipse_129" data-name="Ellipse 129" cx="15.51" cy="11.204" rx="15.51" ry="11.204" transform="matrix(-0.595, -0.803, 0.803, -0.595, 106.431, 177.403)" fill="#fad0c6"/>
        <g id="Gruppe_378" data-name="Gruppe 378" transform="translate(144.518 143.566)">
          <path id="Pfad_2522" data-name="Pfad 2522" d="M9.26,9.61a3.5,3.5,0,0,0,3.409-.324c2.023-1.569,1.082-5.027-.105-8.2A1.664,1.664,0,1,0,9.446,2.247a12.661,12.661,0,0,1,1.071,4.275c-.732-.157-2.8-1-7.791-5.135A1.664,1.664,0,0,0,.6,3.948C4.417,7.112,7.2,8.952,9.26,9.61Zm1.218-2.775-.009,0Z" fill="#6c7fbc"/>
        </g>
        <path id="Pfad_2523" data-name="Pfad 2523" d="M55.213,2.563c16.5,2.373,47.778,13.839,85.253,38.694,38.556,25.57,57.854,38.236,63.465,62.177,19.975,85.236-135.406,246.85-154.32,219.76a27.413,27.413,0,0,1-4.024-10.516c-3.086-18.384,17.358-45.512,17.358-45.512s13.29-20.246,32.548-63.293c8.718-19.493,16.423-47.154,37.518-78.044C130.3,123.135,46.263,97.869,41.344,94.55,39.2,93.1,26.926,90.182,19.911,80.791c-5.569-7.456-12.35-11.466-17.34-29.817S.9,16.378,3.76.911C15.895-.551,34.41-.429,55.213,2.563Z" transform="translate(119.78 364.409) rotate(-3)" fill="#9eadff"/>
        <g id="Gruppe_380" data-name="Gruppe 380" transform="matrix(-0.995, 0.105, -0.105, -0.995, 163.809, 170.957)">
          <g id="Gruppe_379" data-name="Gruppe 379" transform="translate(0 0)">
            <path id="Pfad_2525" data-name="Pfad 2525" d="M.714.545a1.463,1.463,0,0,0,.98,2.7,19.166,19.166,0,0,1,10.1.789,9.256,9.256,0,0,1,4.3,3.4,1.463,1.463,0,1,0,2.437-1.618,12.285,12.285,0,0,0-5.615-4.481A22.162,22.162,0,0,0,1.232.357,1.457,1.457,0,0,0,.714.545Z" fill="#9eadff"/>
          </g>
        </g>
      </g>
      <g id="Alle_Krebsarten" data-name="Alle Krebsarten" transform="matrix(0.978, -0.208, 0.208, 0.978, 1434.119, 871.031)">
        <g id="Gruppe_419" data-name="Gruppe 419" transform="matrix(0.616, -0.788, 0.788, 0.616, 0, 24.372)">
          <g transform="matrix(0.44, 0.9, -0.9, 0.44, 196.32, -277.54)" filter="url(#Pfad_2647)">
            <path id="Pfad_2647-2" data-name="Pfad 2647" d="M0,2.029a7.178,7.178,0,0,1,3.653.545A5.076,5.076,0,0,1,5.8,4.13,5.233,5.233,0,0,1,6.77,6.876a7.5,7.5,0,0,1-.337,3.269c.154-.177,2.926-3.408,3.444-5.584a3.7,3.7,0,0,0,.057-1.729,3.615,3.615,0,0,0-.728-1.473A3.747,3.747,0,0,0,7.776.3,4.1,4.1,0,0,0,6.116,0,5.071,5.071,0,0,0,4.1.5C3.179.9,1.883,1.417,0,2.029Z" transform="translate(172.56 279.32) rotate(-64)" fill="#8695eb"/>
          </g>
          <g transform="matrix(0.44, 0.9, -0.9, 0.44, 196.32, -277.54)" filter="url(#Pfad_2648)">
            <path id="Pfad_2648-2" data-name="Pfad 2648" d="M17.909,0a.887.887,0,0,1-.162.065,11.936,11.936,0,0,0-2.573,1.277A5.761,5.761,0,0,0,13.561,3.53a11.594,11.594,0,0,0-.971,2.421c-.622,2.172-1.3,4.329-1.9,6.506-.451,1.619-.435,1.391-1.477,4.8-.563,1.843-1.356,4.488-2.279,7.752L4,24.283,0,27.16C3.242,18.644,4.564,14.6,5.126,12.527a36.9,36.9,0,0,1,1.6-4.491A10.549,10.549,0,0,1,8.38,4.911a10.119,10.119,0,0,1,2.6-2.141,20.078,20.078,0,0,1,3.272-1.6c.922-.387,1.516-.585,1.874-.7A14.945,14.945,0,0,1,17.909,0Z" transform="translate(167.17 290.5) rotate(-64)" fill="#9eadff"/>
          </g>
          <g transform="matrix(0.44, 0.9, -0.9, 0.44, 196.32, -277.54)" filter="url(#Pfad_2649)">
            <path id="Pfad_2649-2" data-name="Pfad 2649" d="M30.531,0a.89.89,0,0,0-.1.143A11.934,11.934,0,0,1,28.6,2.356a5.761,5.761,0,0,1-2.5,1.07,11.592,11.592,0,0,1-2.579.393c-2.257.11-4.511.275-6.769.368-1.679.069-1.454.105-5.015.341-1.923.127-4.679.295-8.068.448L3.714,8,0,11.232c9.031-1.211,13.269-1.575,15.417-1.648a36.908,36.908,0,0,0,4.738-.534,10.549,10.549,0,0,0,3.42-.894,10.119,10.119,0,0,0,2.678-2.04A20.077,20.077,0,0,0,28.56,3.3c.588-.809.916-1.342,1.107-1.665A14.95,14.95,0,0,0,30.531,0Z" transform="translate(168.11 300.42) rotate(-64)" fill="#9eadff"/>
          </g>
        </g>
      </g>
    </g>
    <g id="Gruppe_2888" data-name="Gruppe 2888" transform="translate(678.919 5930.083)">
      <path id="Pfad_5366" data-name="Pfad 5366" d="M40.3,3.295,160.18,35.416a12.719,12.719,0,0,1,9,15.59l-21.415,79.92a12.719,12.719,0,0,1-15.59,9L12.3,107.806a12.719,12.719,0,0,1-9-15.59L24.709,12.3a12.719,12.719,0,0,1,15.59-9Z" fill="#9aa9fb"/>
      <path id="Pfad_1110" data-name="Pfad 1110" d="M63.617,87.726a6.412,6.412,0,0,1-2.4.714,7.007,7.007,0,0,1-4.7-1.26A6.413,6.413,0,0,1,54.8,85.364L17.308,7.892c.8-1.131,1.457-2.157,2.074-3.037a11.2,11.2,0,0,1,1.846-2.161,4.4,4.4,0,0,1,2.264-1.039,8.29,8.29,0,0,1,3.329.327L156.7,42.447a5.91,5.91,0,0,1,2.714,1.353,2.135,2.135,0,0,1,.671,1.557,2.867,2.867,0,0,1-.348,1.284,3.256,3.256,0,0,1-.344.534Z" transform="translate(8.578 1.817)" fill="#314355" opacity="0.2"/>
      <path id="Pfad_5369" data-name="Pfad 5369" d="M4.721.824,50.829,13.178a3.182,3.182,0,1,1-1.647,6.148L3.074,6.971A3.182,3.182,0,1,1,4.721.824Z" transform="translate(12.104 90.076)" fill="#fff" opacity="0.4"/>
      <path id="Pfad_5370" data-name="Pfad 5370" d="M4.721.824,26.238,6.589a3.182,3.182,0,1,1-1.647,6.148L3.074,6.971A3.182,3.182,0,1,1,4.721.824Z" transform="translate(112.005 116.845)" fill="#fff" opacity="0.4"/>
      <path id="Pfad_5368" data-name="Pfad 5368" d="M4.721.824,26.238,6.59a3.182,3.182,0,1,1-1.647,6.148L3.074,6.972A3.182,3.182,0,1,1,4.721.824Z" transform="translate(14.987 79.317)" fill="#fff"/>
      <g id="Gruppe_maskieren_8" data-name="Gruppe maskieren 8" clip-path="url(#clip-path)">
        <path id="Pfad_5367" data-name="Pfad 5367" d="M76.982,83.661a6.362,6.362,0,0,1-7.573-2.029L16.693,11.627a6.263,6.263,0,0,1-1.306-3.819,6.518,6.518,0,0,1,4.008-5.94,6.263,6.263,0,0,1,4.03-.218L156.8,37.387a6.263,6.263,0,0,1,3.381,2.2,6.518,6.518,0,0,1,.5,7.148,6.263,6.263,0,0,1-3.04,2.654Z" transform="translate(10.129 -0.163)" fill="#b0bbf7"/>
      </g>
    </g>
    <g id="Gruppe_2888-2" data-name="Gruppe 2888" transform="translate(459.386 5726.178)">
      <path id="Pfad_5366-2" data-name="Pfad 5366" d="M16.79,104.2l163.7-94.511a19.371,19.371,0,0,1,26.483,7.1l63.007,109.132a19.371,19.371,0,0,1-7.1,26.483l-163.7,94.511a19.371,19.371,0,0,1-26.483-7.1L9.694,130.687a19.371,19.371,0,0,1,7.1-26.483Z" fill="#fec2cc"/>
      <path id="Pfad_1110-2" data-name="Pfad 1110" d="M142.07,159.343a9.766,9.766,0,0,1-1.811,3.348,10.672,10.672,0,0,1-6.422,3.708,9.766,9.766,0,0,1-3.805-.106L6.222,123.238c-.355-2.081-.754-3.892-1.037-5.5a17.059,17.059,0,0,1-.339-4.315,6.7,6.7,0,0,1,1.319-3.558,12.626,12.626,0,0,1,3.938-3.232l183.445-96.29a9,9,0,0,1,4.38-1.465,3.252,3.252,0,0,1,2.4.955,4.366,4.366,0,0,1,1.008,1.758,4.959,4.959,0,0,1,.205.945Z" transform="translate(1.955 3.397)" fill="#fc6681" opacity="0.2"/>
      <path id="Pfad_5369-2" data-name="Pfad 5369" d="M4.2,38.774l62.96-36.35A4.847,4.847,0,1,1,72,10.818L9.044,47.168A4.847,4.847,0,1,1,4.2,38.774Z" transform="translate(81.658 185.056)" fill="#ffd0d8" opacity="0.999"/>
      <path id="Pfad_5370-2" data-name="Pfad 5370" d="M4.2,19.387,33.579,2.423a4.847,4.847,0,1,1,4.847,8.395L9.044,27.782A4.847,4.847,0,1,1,4.2,19.387Z" transform="translate(218.072 125.684)" fill="#fc6681" opacity="0.4"/>
      <path id="Pfad_5368-2" data-name="Pfad 5368" d="M4.2,19.387,33.579,2.423a4.847,4.847,0,1,1,4.847,8.395L9.044,27.782A4.847,4.847,0,1,1,4.2,19.387Z" transform="translate(73.176 189.751)" fill="#fc6681"/>
      <g id="Gruppe_maskieren_8-2" data-name="Gruppe maskieren 8" clip-path="url(#clip-path-2)">
        <path id="Pfad_5367-2" data-name="Pfad 5367" d="M154.41,140.646a9.689,9.689,0,0,1-10.341,5.97L11.906,128a9.538,9.538,0,0,1-5.519-2.706,9.927,9.927,0,0,1-2.08-10.713A9.538,9.538,0,0,1,8.411,110L190.532,4.857a9.538,9.538,0,0,1,6.015-1.268,9.927,9.927,0,0,1,8.237,7.158,9.539,9.539,0,0,1-.416,6.133Z" transform="translate(-0.834 -0.481)" fill="#fc6681"/>
      </g>
    </g>
  </g>
</svg>
