<svg xmlns="http://www.w3.org/2000/svg" xmlns:xlink="http://www.w3.org/1999/xlink" width="1132.067" height="578.059" viewBox="0 0 1132.067 578.059">
  <defs>
    <clipPath id="clip-path">
      <path id="blob_2_" data-name="blob (2)" d="M599.108-2.418c68.184,39.554,131.5,75.576,179.117,126.077,47.079,50.148,77.383,114.423,54.114,169.869-22.728,55.093-94.3,119.014-177.633,155.742-83.336,36.375-178.978,45.91-274.76,50.5-95.241,4.591-196.434-13.42-278.687-50.5C19.548,412.542-43.766,356.743-71.364,294.587c-28.139-61.8-20.563-129.609,34.092-171.634C17.924,80.927,119.658,65.035,197.583,27.6,276.048-9.835,330.7-68.459,394.557-76.581,457.871-84.7,530.384-41.972,599.108-2.418Z" transform="translate(583.504 282.555)" fill="#fff5d6"/>
    </clipPath>
    <linearGradient id="linear-gradient" x1="0.525" y1="1.25" x2="0.529" gradientUnits="objectBoundingBox">
      <stop offset="0" stop-color="#a0adf9"/>
      <stop offset="0.862" stop-color="#8c99e9"/>
      <stop offset="1" stop-color="#7683d9"/>
    </linearGradient>
    <clipPath id="clip-path-2">
      <path id="Pfad_6628" data-name="Pfad 6628" d="M466.346,483.959l26.507,20.449V422.476H439.839v81.933Z" transform="translate(-439.839 -422.476)" fill="#6c63ff"/>
    </clipPath>
    <clipPath id="clip-path-3">
      <path id="Pfad_6628-2" data-name="Pfad 6628" d="M26.507,61.483,53.014,81.933V0H0V81.933Z" fill="#6c63ff"/>
    </clipPath>
  </defs>
  <g id="Gruppe_3656" data-name="Gruppe 3656" transform="translate(-417.949 -204.971)">
    <path id="blob_2_2" data-name="blob (2)" d="M599.108-2.418c68.184,39.554,131.5,75.576,179.117,126.077,47.079,50.148,77.383,114.423,54.114,169.869-22.728,55.093-94.3,119.014-177.633,155.742-83.336,36.375-178.978,45.91-274.76,50.5-95.241,4.591-196.434-13.42-278.687-50.5C19.548,412.542-43.766,356.743-71.364,294.587c-28.139-61.8-20.563-129.609,34.092-171.634C17.924,80.927,80.7,53.571,158.62,16.137,237.085-21.3,330.7-68.459,394.557-76.581,457.871-84.7,530.384-41.972,599.108-2.418Z" transform="translate(583.504 282.555)" fill="#5d5cb0"/>
    <g id="Gruppe_14" data-name="Gruppe 14" transform="translate(-0.149)" clip-path="url(#clip-path)">
      <g id="Pathly-Default" transform="translate(-2284.612 -6965.683)">
        <g id="Körper" transform="translate(3115.526 7602.787)">
          <path id="Fuß-Rechts" d="M-463.429,743.873l5.523,46.211a7.114,7.114,0,0,0,7.064,6.269h15.4a7.112,7.112,0,0,0,7.033-6.075l4.236-28.653A101.047,101.047,0,0,1-463.429,743.873Z" transform="translate(532.513 -535.471)" fill="#a0adf9"/>
          <path id="Fuß-Links" d="M-389.848,760.265l4.222,28.564a7.115,7.115,0,0,0,7.034,6.075h15.4a7.113,7.113,0,0,0,7.063-6.269l5.484-45.877A100.981,100.981,0,0,1-389.848,760.265Z" transform="translate(539.121 -534.022)" fill="#a0adf9"/>
          <path id="Körper-2" data-name="Körper" d="M-854.962,862.367c10.793.345,21.609.195,32.253-1.526,13.236-2.141,26.3-6.847,36.712-15.288,18.658-15.122,25.845-41.643,23.839-64.813-2.481-28.675-19.9-51.541-26.252-78.985a217.838,217.838,0,0,0-6.283-22.364s-111.263.493-111.277.363c-1.219,2.149-1.736,4.9-2.423,7.263-3.23,11.128-5.826,22.277-10.7,32.849-4.984,10.817-11.138,21.069-15.681,32.093-6.739,16.349-9.8,34.514-6.776,52.062,3.505,20.328,15.8,39.539,34.144,48.969,13.589,6.986,29.3,8.313,44.565,9.052Q-858.9,862.235-854.962,862.367Z" transform="translate(985.619 -628.187)" fill="url(#linear-gradient)"/>
          <path id="Arm-Rechts" d="M17.773.073A14.393,14.393,0,0,0,2.019,12.958c-.007.071-.014.142-.019.212L.061,89.509c-.032.347-.035.69-.043,1.033H0v15.932H0a4.865,4.865,0,0,0,4.816,4.895,4.865,4.865,0,0,0,4.815-4.895h0a4.816,4.816,0,1,0,9.63,0h0a4.816,4.816,0,1,0,9.631,0h0l-.142-15.932,1.9-74.715A14.392,14.392,0,0,0,17.773.073Z" transform="translate(95.128 88.687) rotate(140)" fill="#a0adf9"/>
          <path id="Arm-Links" d="M17.773,111.3A14.393,14.393,0,0,1,2.019,98.411c-.007-.071-.014-.142-.019-.212L.061,21.86c-.032-.347-.035-.69-.043-1.033H0V4.895H0A4.865,4.865,0,0,1,4.818,0,4.865,4.865,0,0,1,9.632,4.895h0a4.816,4.816,0,1,1,9.63,0h0a4.816,4.816,0,1,1,9.631,0h0l-.142,15.932,1.9,74.715A14.392,14.392,0,0,1,17.773,111.3Z" transform="translate(257.696 0) rotate(43)" fill="#a0adf9"/>
        </g>
        <g id="Kopf" transform="translate(3138.949 7437.155)">
          <ellipse id="Kopf-2" data-name="Kopf" cx="97.731" cy="84.4" rx="97.731" ry="84.4" transform="translate(14.477 63.703)" fill="#a0adf9"/>
          <path id="Pfad_6839" data-name="Pfad 6839" d="M-451.406,492.834" transform="translate(516.696 -376.068)" fill="#6965f6"/>
          <ellipse id="Auge-Rechts" cx="6.875" cy="7.71" rx="6.875" ry="7.71" transform="translate(72.527 101.345)" fill="#4a497d"/>
          <ellipse id="Auge-Links" cx="6.875" cy="7.71" rx="6.875" ry="7.71" transform="translate(131.47 101.345)" fill="#4a497d"/>
          <path id="Pfad_6842" data-name="Pfad 6842" d="M-376.344,492.834" transform="translate(521.637 -376.068)" fill="#6965f6"/>
          <g id="Ohr-Rechts" transform="matrix(0.951, -0.309, 0.309, 0.951, 0, 59.933)">
            <path id="Ohr-Rechts-Außen" d="M69,38.035S29.407-6.547,11.5.822,1.114,61.254,4.406,66.847" fill="#a0adf9"/>
            <path id="Ohr-Rechts-Innen" d="M41.177,29.3c-5.314.917-20.047,4.275-32.234,14.684a1.394,1.394,0,0,1-2.23-.565C4.335,37.5-2.5,18.574.958,4.173A5.331,5.331,0,0,1,6.161,0c6.295.107,19.421,3.73,35.811,27.21a1.341,1.341,0,0,1-.8,2.089Z" transform="translate(10.474 13.62)" fill="#e1e6fd"/>
          </g>
          <g id="Ohr-Links" transform="translate(150.193 35.211) rotate(14)">
            <path id="Ohr-Links-Außen" d="M0,38.032S39.589-6.55,57.5.823s10.383,60.432,7.091,66.024" fill="#a0adf9"/>
            <path id="Ohr-Links-Innen" d="M1.046,29.3c5.314.917,20.046,4.275,32.233,14.684a1.394,1.394,0,0,0,1.967-.125,1.369,1.369,0,0,0,.262-.44c2.379-5.921,9.214-24.844,5.755-39.246A5.329,5.329,0,0,0,36.061,0C29.767.107,16.64,3.73.25,27.21a1.341,1.341,0,0,0,.8,2.089Z" transform="translate(16.301 13.617)" fill="#e1e6fd"/>
          </g>
          <g id="Haare" transform="translate(91.734 0)">
            <path id="Haar" d="M-393.2,383.279c-1.4,1.569-2.781,3.164-4.117,4.814A135.563,135.563,0,0,0-426.6,455.427c2.427-2,4.975-4.068,7.556-6.165A135.469,135.469,0,0,1-393.2,383.279Z" transform="translate(426.595 -383.279)" fill="#a0adf9"/>
            <path id="Haar-2" data-name="Haar" d="M-384.857,402.675c-1.4,1.569-2.781,3.165-4.117,4.814a135.572,135.572,0,0,0-29.276,67.335c2.428-2,4.975-4.069,7.555-6.166A135.492,135.492,0,0,1-384.857,402.675Z" transform="translate(427.144 -382.002)" fill="#a0adf9"/>
          </g>
          <path id="Mund" d="M265.046,600.416a34.193,34.193,0,0,1-43.126,30.409c-14.01-3.617-23.824-16.171-24.907-30.45a2.567,2.567,0,0,1,2.571-2.742l62.895.054A2.564,2.564,0,0,1,265.046,600.416Z" transform="translate(-121.107 -425.754)" fill="#5c5daa"/>
          <path id="Pfad_7908" data-name="Pfad 7908" d="M1687.082,1038.331a5.921,5.921,0,0,1-9.458,0,6.613,6.613,0,0,0-6.671,6.539,6.531,6.531,0,0,0,1.5,4.124c.061.073,2.983,3.34,8.684,9.708a1.653,1.653,0,0,0,1.229.549h0a1.651,1.651,0,0,0,1.229-.551l8.693-9.739a6.476,6.476,0,0,0,1.469-4.091,6.613,6.613,0,0,0-6.67-6.539" transform="translate(-1602.505 -938.84)" fill="#4a497d" fill-rule="evenodd"/>
          <path id="Pfad_7909" data-name="Pfad 7909" d="M1687.082,1038.331a5.921,5.921,0,0,1-9.458,0,6.613,6.613,0,0,0-6.671,6.539,6.531,6.531,0,0,0,1.5,4.124c.061.073,2.983,3.34,8.684,9.708a1.653,1.653,0,0,0,1.229.549h0a1.651,1.651,0,0,0,1.229-.551l8.693-9.739a6.476,6.476,0,0,0,1.469-4.091,6.613,6.613,0,0,0-6.67-6.539" transform="translate(-1544.009 -938.84)" fill="#4a497d" fill-rule="evenodd"/>
        </g>
      </g>
    </g>
    <path id="Rechteck_350-2" data-name="Rechteck 350-2" d="M2.044,0H17.833a2.044,2.044,0,0,1,2.044,2.044V17.7a2.044,2.044,0,0,1-2.044,2.044H2.044A2.044,2.044,0,0,1,0,17.7V2.044A2.044,2.044,0,0,1,2.044,0Z" transform="translate(555.281 424.602) rotate(-45)" fill="#fec2cc"/>
    <path id="Rechteck_350-2-2" data-name="Rechteck 350-2" d="M2.044,0H17.833a2.044,2.044,0,0,1,2.044,2.044V17.7a2.044,2.044,0,0,1-2.044,2.044H2.044A2.044,2.044,0,0,1,0,17.7V2.044A2.044,2.044,0,0,1,2.044,0Z" transform="translate(461.685 638.619) rotate(-45)" fill="#fec2cc"/>
    <path id="Rechteck_350-2-3" data-name="Rechteck 350-2" d="M1.529,0h11.81a1.529,1.529,0,0,1,1.529,1.529V13.243a1.529,1.529,0,0,1-1.529,1.529H1.529A1.529,1.529,0,0,1,0,13.243V1.529A1.529,1.529,0,0,1,1.529,0Z" transform="translate(622.515 619.449) rotate(-45)" fill="#6c63ff"/>
    <path id="Rechteck_350-2-4" data-name="Rechteck 350-2" d="M2.044,0H17.833a2.044,2.044,0,0,1,2.044,2.044V17.7a2.044,2.044,0,0,1-2.044,2.044H2.044A2.044,2.044,0,0,1,0,17.7V2.044A2.044,2.044,0,0,1,2.044,0Z" transform="translate(632.982 298.602) rotate(-45)" fill="#5d5cb0"/>
    <path id="Rechteck_350-2-5" data-name="Rechteck 350-2" d="M1.423,0h11a1.423,1.423,0,0,1,1.423,1.423V12.33a1.423,1.423,0,0,1-1.423,1.423h-11A1.423,1.423,0,0,1,0,12.33V1.423A1.423,1.423,0,0,1,1.423,0Z" transform="translate(456.181 380.695) rotate(-45)" fill="#5d5cb0"/>
    <path id="Vereinigungsmenge_5" data-name="Vereinigungsmenge 5" d="M9.409,21.8V15.376H2.983a2.983,2.983,0,0,1,0-5.967H9.409V2.983a2.983,2.983,0,0,1,5.967,0V9.409H21.8a2.983,2.983,0,0,1,0,5.967H15.376V21.8a2.983,2.983,0,0,1-5.967,0Z" transform="translate(1486.178 352.215)" fill="#c6d0fe"/>
    <path id="Rechteck_349-2" data-name="Rechteck 349-2" d="M4,0H20.021a4,4,0,0,1,4,4V19.865a4,4,0,0,1-4,4H4a4,4,0,0,1-4-4V4A4,4,0,0,1,4,0Z" transform="translate(1510.963 590.551) rotate(-45)" fill="#9cb0fc"/>
    <path id="Rechteck_349-2-2" data-name="Rechteck 349-2" d="M2.443,0h9.785a2.443,2.443,0,0,1,2.443,2.443v9.69a2.443,2.443,0,0,1-2.443,2.443H2.443A2.443,2.443,0,0,1,0,12.133V2.443A2.443,2.443,0,0,1,2.443,0Z" transform="translate(417.949 494.033) rotate(-45)" fill="#9cb0fc"/>
    <path id="Rechteck_349-2-3" data-name="Rechteck 349-2" d="M2.443,0h9.785a2.443,2.443,0,0,1,2.443,2.443v9.69a2.443,2.443,0,0,1-2.443,2.443H2.443A2.443,2.443,0,0,1,0,12.133V2.443A2.443,2.443,0,0,1,2.443,0Z" transform="translate(719.347 514.266) rotate(-45)" fill="#9cb0fc"/>
    <path id="Rechteck_349-2-4" data-name="Rechteck 349-2" d="M2.443,0h9.785a2.443,2.443,0,0,1,2.443,2.443v9.69a2.443,2.443,0,0,1-2.443,2.443H2.443A2.443,2.443,0,0,1,0,12.133V2.443A2.443,2.443,0,0,1,2.443,0Z" transform="translate(835.347 477.373) rotate(-45)" fill="#9cb0fc"/>
    <path id="Rechteck_350-2-6" data-name="Rechteck 350-2" d="M2.164,0H18.885a2.164,2.164,0,0,1,2.164,2.164V18.749a2.164,2.164,0,0,1-2.164,2.164H2.164A2.164,2.164,0,0,1,0,18.749V2.164A2.164,2.164,0,0,1,2.164,0Z" transform="translate(1395.57 672.277) rotate(-45)" fill="#fec2cc"/>
    <path id="Rechteck_350-2-7" data-name="Rechteck 350-2" d="M1.225,0h9.464a1.225,1.225,0,0,1,1.225,1.225v9.387a1.225,1.225,0,0,1-1.225,1.225H1.225A1.225,1.225,0,0,1,0,10.612V1.225A1.225,1.225,0,0,1,1.225,0Z" transform="translate(738.434 711.076) rotate(-45)" fill="#fff5d6"/>
    <path id="Rechteck_350-2-8" data-name="Rechteck 350-2" d="M1.225,0h9.464a1.225,1.225,0,0,1,1.225,1.225v9.387a1.225,1.225,0,0,1-1.225,1.225H1.225A1.225,1.225,0,0,1,0,10.612V1.225A1.225,1.225,0,0,1,1.225,0Z" transform="translate(766.434 643.076) rotate(-45)" fill="#9aa9fb"/>
    <path id="Rechteck_350-2-9" data-name="Rechteck 350-2" d="M1.958,0H17.082a1.958,1.958,0,0,1,1.958,1.958v15a1.958,1.958,0,0,1-1.958,1.958H1.958A1.958,1.958,0,0,1,0,16.959v-15A1.958,1.958,0,0,1,1.958,0Z" transform="translate(1322.655 283.244) rotate(-45)" fill="#fec2cc"/>
    <path id="Rechteck_350-2-10" data-name="Rechteck 350-2" d="M1.349,0H11.772a1.349,1.349,0,0,1,1.349,1.349V11.687a1.349,1.349,0,0,1-1.349,1.349H1.349A1.349,1.349,0,0,1,0,11.687V1.349A1.349,1.349,0,0,1,1.349,0Z" transform="translate(1174.813 544.201) rotate(-45)" fill="#fec2cc"/>
    <path id="Rechteck_350-2-11" data-name="Rechteck 350-2" d="M1.958,0H17.082a1.958,1.958,0,0,1,1.958,1.958v15a1.958,1.958,0,0,1-1.958,1.958H1.958A1.958,1.958,0,0,1,0,16.959v-15A1.958,1.958,0,0,1,1.958,0Z" transform="translate(1277.655 438.609) rotate(-45)" fill="#fff5d6"/>
    <path id="Rechteck_350-2-12" data-name="Rechteck 350-2" d="M1.958,0H17.082a1.958,1.958,0,0,1,1.958,1.958v15a1.958,1.958,0,0,1-1.958,1.958H1.958A1.958,1.958,0,0,1,0,16.959v-15A1.958,1.958,0,0,1,1.958,0Z" transform="translate(1232.655 632.561) rotate(-45)" fill="#e1e6ff"/>
    <path id="Rechteck_350-2-13" data-name="Rechteck 350-2" d="M1.066,0H9.3a1.066,1.066,0,0,1,1.066,1.066V9.234A1.066,1.066,0,0,1,9.3,10.3H1.066A1.066,1.066,0,0,1,0,9.234V1.066A1.066,1.066,0,0,1,1.066,0Z" transform="translate(952.673 277.266) rotate(-45)" fill="#e1e6ff"/>
    <path id="Rechteck_350-2-14" data-name="Rechteck 350-2" d="M1.958,0H17.082a1.958,1.958,0,0,1,1.958,1.958v15a1.958,1.958,0,0,1-1.958,1.958H1.958A1.958,1.958,0,0,1,0,16.959v-15A1.958,1.958,0,0,1,1.958,0Z" transform="translate(1523.178 438.609) rotate(-45)" fill="#fec2cc"/>
    <path id="Rechteck_350-2-15" data-name="Rechteck 350-2" d="M1.284,0h9.923a1.284,1.284,0,0,1,1.284,1.284v9.842a1.284,1.284,0,0,1-1.284,1.284H1.284A1.284,1.284,0,0,1,0,11.127V1.284A1.284,1.284,0,0,1,1.284,0Z" transform="translate(1354.094 544.645) rotate(-45)" fill="#fec2cc"/>
    <path id="Rechteck_350-2-16" data-name="Rechteck 350-2" d="M1.958,0H17.082a1.958,1.958,0,0,1,1.958,1.958v15a1.958,1.958,0,0,1-1.958,1.958H1.958A1.958,1.958,0,0,1,0,16.959v-15A1.958,1.958,0,0,1,1.958,0Z" transform="translate(1093.661 287.607) rotate(-45)" fill="#fff5d6"/>
    <path id="Vereinigungsmenge_3" data-name="Vereinigungsmenge 3" d="M12.342,28.6V20.168H3.913a3.913,3.913,0,0,1,0-7.826h8.429V3.913a3.913,3.913,0,0,1,7.826,0v8.429H28.6a3.913,3.913,0,0,1,0,7.826H20.168V28.6a3.913,3.913,0,0,1-7.826,0Z" transform="translate(550.79 696.029)" fill="#c6d0fe"/>
    <path id="Pfad_7288" data-name="Pfad 7288" d="M1159.511,83.45c-4.345,25.7-11.358,51.467-25.556,73.3S1097.4,196.2,1071.6,199.987c-9.427,1.42-19.678.738-27.516-4.671s-12.182-16.583-7.624-24.946c3.237-5.935,10.137-9.2,16.9-9.569,10.677-.582,21.07,5.324,27.587,13.8s9.527,19.238,10.365,29.9c2.413,31.093-14.028,62.925-40.8,78.926" transform="translate(327.437 175.096)" fill="none" stroke="#a6b5ff" stroke-miterlimit="10" stroke-width="4"/>
    <g id="Gruppe_3654" data-name="Gruppe 3654" transform="matrix(1, -0.017, 0.017, 1, 6711.75, 23674.365)">
      <g id="Gruppe_3653" data-name="Gruppe 3653" transform="translate(-5532.622 -23444.801)">
        <path id="Pfad_6626" data-name="Pfad 6626" d="M198.65,348.069s206.888,150.292,414.728,1.9" transform="translate(-196.648 -347.748)" fill="none" stroke="#fff" stroke-linecap="round" stroke-miterlimit="10" stroke-width="5"/>
        <rect id="Rechteck_1120" data-name="Rechteck 1120" width="18.478" height="5.356" transform="translate(5 13.949) rotate(-49.018)" fill="#5d5bb3"/>
        <rect id="Rechteck_1121" data-name="Rechteck 1121" width="7.734" height="5.356" transform="translate(8.523 9.894) rotate(-49.018)" fill="#e0e5fd"/>
        <rect id="Rechteck_1122" data-name="Rechteck 1122" width="18.478" height="5.356" transform="translate(410.687 17.781) rotate(-130.982)" fill="#ffc6d2"/>
        <rect id="Rechteck_1123" data-name="Rechteck 1123" width="7.734" height="5.356" transform="translate(407.164 13.726) rotate(-130.982)" fill="#e0e5fd"/>
        <g id="Gruppe_3648" data-name="Gruppe 3648" transform="translate(182.766 59.084)">
          <g id="Gruppe_3315" data-name="Gruppe 3315">
            <path id="Pfad_6627" data-name="Pfad 6627" d="M466.346,483.959l26.507,20.449V422.476H439.839v81.933Z" transform="translate(-439.839 -422.476)" fill="#fec2cc"/>
          </g>
          <path id="Pfad_7905" data-name="Pfad 7905" d="M40.782-96l-7.381.884v20.689L9.177-97.09v37.947h7.381V-80.352L40.782-57.584Z" transform="translate(1.836 104.83)" fill="#fc6681"/>
        </g>
        <g id="Gruppe_3649" data-name="Gruppe 3649" transform="translate(110.282 45.983) rotate(14)">
          <g id="Gruppe_3315-2" data-name="Gruppe 3315" transform="translate(0 0)">
            <path id="Pfad_6627-2" data-name="Pfad 6627" d="M26.507,61.483,53.014,81.933V0H0V81.933Z" fill="#fec2cc"/>
          </g>
          <path id="Pfad_7904" data-name="Pfad 7904" d="M27.914,37.687h8.109L17.986,0,0,37.687H8.057L11.54,29.63H24.431ZM14.243,23.34l3.743-8.681,3.743,8.681Z" transform="translate(7.582 8)" fill="#fc6681"/>
        </g>
        <g id="Gruppe_3651" data-name="Gruppe 3651" transform="matrix(0.978, -0.208, 0.208, 0.978, 262.599, 57.218)">
          <g id="Gruppe_3315-3" data-name="Gruppe 3315" transform="translate(0 0)">
            <path id="Pfad_6627-3" data-name="Pfad 6627" d="M26.507,61.483,53.014,81.933V0H0V81.933Z" transform="translate(0 0)" fill="#fec2cc"/>
          </g>
          <path id="Pfad_7906" data-name="Pfad 7906" d="M27.6,36.855,14.5,18.038,27.031.468H18.4L7.381,16.634V0L0,.884V36.855H7.381V19.7l11.54,17.154Z" transform="translate(13.461 12.378)" fill="#fc6681"/>
        </g>
        <g id="Gruppe_3652" data-name="Gruppe 3652" transform="translate(337.183 39.396) rotate(-30)">
          <g id="Gruppe_3315-4" data-name="Gruppe 3315" transform="translate(0 0)">
            <path id="Pfad_6627-4" data-name="Pfad 6627" d="M26.507,61.483,53.014,81.933V0H0V81.933Z" transform="translate(0 0)" fill="#fec2cc"/>
          </g>
          <path id="Pfad_7907" data-name="Pfad 7907" d="M7.277,29.786V21.1H18.921V14.5H7.277V6.55H21.52L20.481,0H0V36.387H21.1l.988-6.6Z" transform="translate(13.578 10.33)" fill="#fc6681"/>
        </g>
        <g id="Gruppe_3650" data-name="Gruppe 3650" transform="matrix(0.891, 0.454, -0.454, 0.891, 37.197, 13.281)">
          <g id="Gruppe_3315-5" data-name="Gruppe 3315" transform="translate(0 0)">
            <path id="Pfad_6627-5" data-name="Pfad 6627" d="M26.507,61.483,53.014,81.933V0H0V81.933Z" fill="#fec2cc"/>
          </g>
          <path id="Pfad_7903" data-name="Pfad 7903" d="M0,36.387H10.344c10.812,0,18.921-7.8,18.921-18.194S21.157,0,10.344,0H0Zm7.381-6.914V6.914h2.7c6.81,0,11.592,4.678,11.592,11.28,0,6.55-4.782,11.28-11.592,11.28Z" transform="translate(13.612 10.096)" fill="#fc6681"/>
        </g>
      </g>
    </g>
    <g id="Gruppe_3647" data-name="Gruppe 3647" transform="translate(538.273 253.906) rotate(-23)">
      <path id="Pfad_7288-2" data-name="Pfad 7288" d="M13.389,142.917l-1.439-2.408c18.533-11.075,29.861-32.987,28.19-54.526q-.2-2.579-.64-5a55.03,55.03,0,0,1-11.7,3.086c-5.743.865-13.96.954-20.467-3.538C1.587,76.564-2.275,67.991,1.5,61.056c2.353-4.313,7.375-7.186,13.108-7.5,7.565-.412,15.5,3.538,20.705,10.309A36.465,36.465,0,0,1,41.524,77.1c11.2-5.058,21.349-13.982,29.013-25.77C79.015,38.291,84.694,21.981,88.41,0l2.766.468c-3.782,22.372-9.593,39.02-18.287,52.392-8.078,12.424-18.846,21.8-30.739,27.032a52.851,52.851,0,0,1,.787,5.874C44.689,108.342,32.815,131.309,13.389,142.917Zm2.316-86.585q-.471,0-.94.025c-4.77.261-8.908,2.575-10.8,6.041-2.937,5.39.193,12.533,4.959,15.823,5.753,3.971,13.215,3.862,18.461,3.072A52.381,52.381,0,0,0,38.91,78.2a33.892,33.892,0,0,0-5.816-12.627C28.662,59.811,22.074,56.332,15.705,56.332Z" transform="translate(20.659 153.888) rotate(22)" fill="#fafcff"/>
      <path id="Pfad_7902" data-name="Pfad 7902" d="M16.956,2.065q1.025,1.961,2.052,3.92a9.63,9.63,0,0,1,1.475,4.537c-.037,1.608-1.186,3.311-2.794,3.365-1.769.057-2.949-1.708-4.285-2.87C11.12,9.032,7.792,8.649,4.819,9.22c-1.333.256-2.859.643-3.935-.185a2.876,2.876,0,0,1-.591-3.4A8.4,8.4,0,0,1,2.709,2.854L6.041,0Z" transform="matrix(0.921, 0.391, -0.391, 0.921, 93.24, 181.258)" fill="#e1e6ff"/>
      <path id="Pfad_7901" data-name="Pfad 7901" d="M67.266,0c37.15,0,67.266,31.269,67.266,69.841S104.415,156.41,67.266,156.41,0,108.413,0,69.841,30.116,0,67.266,0Z" transform="matrix(0.755, 0.656, -0.656, 0.755, 152.133, 24.203)" fill="#9aa9fb"/>
      <path id="Pfad_7898" data-name="Pfad 7898" d="M2.339,57.43A2.338,2.338,0,0,1,.874,53.269c.122-.1,12.281-9.959,18.108-22.476S24.56,2.543,24.557,2.386a2.338,2.338,0,0,1,4.674-.1c.014.686.285,16.953-6.012,30.479S4.332,56.488,3.8,56.916A2.327,2.327,0,0,1,2.339,57.43Z" transform="translate(190.043 116.597) rotate(8)" fill="#e1e6ff"/>
    </g>
    <path id="Pfad_7908-2" data-name="Pfad 7908" d="M-5325.89-22239.756l-.315-2.984a105.908,105.908,0,0,0,21.81-5.41,102.047,102.047,0,0,0,19.638-9.4,77.142,77.142,0,0,0,18.718-16.143,101.665,101.665,0,0,0,13.965-23.436,189.563,189.563,0,0,0,9.015-25.387,233.4,233.4,0,0,0,6.22-28.6l2.973.4a236.836,236.836,0,0,1-6.305,29.016,192.577,192.577,0,0,1-9.162,25.791,104.6,104.6,0,0,1-14.394,24.127,80.114,80.114,0,0,1-19.484,16.8,105.128,105.128,0,0,1-20.252,9.678,119.2,119.2,0,0,1-15.915,4.453C-5323.366-22240.027-5325.789-22239.768-5325.89-22239.756Z" transform="translate(8658.334 22104.223) rotate(-7)" fill="#fff"/>
    <g id="Gruppe_3655" data-name="Gruppe 3655" transform="translate(601.023 468.365) rotate(-27)">
      <path id="Pfad_7902-2" data-name="Pfad 7902" d="M13.707,1.67q.829,1.585,1.659,3.169a7.785,7.785,0,0,1,1.192,3.668,2.674,2.674,0,0,1-2.258,2.72c-1.43.046-2.384-1.381-3.464-2.32A8.238,8.238,0,0,0,3.9,7.454c-1.077.207-2.312.52-3.181-.15A2.325,2.325,0,0,1,.237,4.558,6.791,6.791,0,0,1,2.19,2.307L4.884,0Z" transform="matrix(0.921, 0.391, -0.391, 0.921, 65.519, 151.17)" fill="#ffdf7c"/>
      <path id="Pfad_7901-2" data-name="Pfad 7901" d="M54.379,0c30.033,0,54.379,25.278,54.379,56.461s-24.346,69.984-54.379,69.984S0,87.643,0,56.461,24.346,0,54.379,0Z" transform="matrix(0.755, 0.656, -0.656, 0.755, 113.129, 24.203)" fill="#fff5d6"/>
      <path id="Pfad_7898-2" data-name="Pfad 7898" d="M1.891,46.428A1.89,1.89,0,0,1,.706,43.064c.1-.079,9.928-8.051,14.639-18.17s4.51-22.838,4.507-22.965a1.89,1.89,0,0,1,3.779-.08c.012.554.23,13.7-4.86,24.64S3.5,45.667,3.072,46.012A1.882,1.882,0,0,1,1.891,46.428Z" transform="translate(143.776 98.896) rotate(8)" fill="#ffdf7c"/>
    </g>
  </g>
</svg>
