<svg xmlns="http://www.w3.org/2000/svg" xmlns:xlink="http://www.w3.org/1999/xlink" width="912.83" height="931.84" viewBox="0 0 912.83 931.84">
  <defs>
    <linearGradient id="linear-gradient" x1="-12.653" y1="6.589" x2="-12.642" y2="6.589" gradientUnits="objectBoundingBox">
      <stop offset="0" stop-color="#ff92aa"/>
      <stop offset="0.312" stop-color="#ff96ae"/>
      <stop offset="0.674" stop-color="#ffa4ba"/>
      <stop offset="1" stop-color="#ffb8cb"/>
    </linearGradient>
    <linearGradient id="linear-gradient-2" x1="-19.186" y1="15.012" x2="-19.17" y2="15.012" gradientUnits="objectBoundingBox">
      <stop offset="0" stop-color="#034bcb"/>
      <stop offset="0.312" stop-color="#095bce"/>
      <stop offset="0.674" stop-color="#0a7fe4"/>
      <stop offset="1" stop-color="#0f83e6"/>
    </linearGradient>
    <linearGradient id="linear-gradient-3" x1="-17.902" y1="14.062" x2="-17.921" y2="14.039" gradientUnits="objectBoundingBox">
      <stop offset="0" stop-color="#193b66"/>
      <stop offset="1" stop-color="#0d1f35"/>
    </linearGradient>
    <linearGradient id="linear-gradient-4" x1="-19.228" y1="15.939" x2="-19.241" y2="15.958" gradientUnits="objectBoundingBox">
      <stop offset="0" stop-color="#112b48"/>
      <stop offset="1" stop-color="#112b48"/>
    </linearGradient>
  </defs>
  <g id="Gruppe_3060" data-name="Gruppe 3060" transform="translate(-937.963 -3528)">
    <circle id="Oval" cx="384.51" cy="384.51" r="384.51" transform="translate(1023.975 3581.33)" fill="#fff5d6"/>
    <g id="Gruppe_419" data-name="Gruppe 419" transform="translate(969.425 3824.197)">
      <path id="Pfad_2647-5" data-name="Pfad 2647-5" d="M500.606,115.681a64.81,64.81,0,0,1,11.132-31.44c3.239-4.649,8.154-11.7,17.489-16.355,9.979-4.973,19.268-4.323,26.013-3.851a67.693,67.693,0,0,1,28.393,8.628c-1.306-1.667-25.163-31.811-43.56-40.152a33.374,33.374,0,0,0-15.228-3.488,32.653,32.653,0,0,0-14.31,3.914,33.828,33.828,0,0,0-11.9,10.828,37.019,37.019,0,0,0-5.468,14.213,45.778,45.778,0,0,0,.964,18.754C496.116,85.563,498.427,97.939,500.606,115.681Z" transform="translate(-492.516 -29.02)" fill="#2cb1a6"/>
      <path id="Pfad_2648-5" data-name="Pfad 2648-5" d="M492.573,64.082a8.01,8.01,0,0,1,.3,1.547c.6,4.194,3.1,17.034,6.877,25.009,3.444,7.28,8.318,11.252,16.6,18.057a104.673,104.673,0,0,0,19.787,12.783c18.18,9.264,36.133,18.968,54.381,28.1,13.569,6.789,11.582,6.253,40.039,21.379,15.366,8.169,37.444,19.755,64.785,33.569L683.8,229.26l18.617,40.376c-69.895-43.416-103.442-62.1-120.862-70.659-12.685-6.231-20.8-11.469-37.04-21.945-13.728-8.857-19.4-13.377-24.859-20.03-7.669-9.345-11.228-18.394-14.5-26.714-4.109-10.445-5.915-19.089-8.562-31.764-1.847-8.837-2.578-14.447-2.959-17.8C492.756,72.771,492.353,64.1,492.573,64.082Z" transform="translate(-492.514 -29.514)" fill="#3ebfb5"/>
      <g id="Gruppe_3043" data-name="Gruppe 3043" transform="translate(50.51 6.857)">
        <path id="Pfad_2649-10" data-name="Pfad 2649-10" d="M545.933,35.979a8.018,8.018,0,0,0,1.086,1.131c3.069,2.9,12.084,12.318,16.408,19.975,3.948,6.988,4.38,13.239,5.166,23.89a104.283,104.283,0,0,1-.963,23.456c-2.912,20.122-5.323,40.317-8.375,60.418-2.271,14.95-1.567,13.022-5.6,44.881-2.181,17.2-5.434,41.836-9.906,72.03q13.39,2.412,26.771,4.826l22.172,38.356c4.821-81.851,8.886-119.9,11.931-139,2.216-13.907,2.617-23.526,3.42-42.766.678-16.265.261-23.48-2.02-31.747-3.2-11.613-8.523-19.713-13.415-27.156-6.144-9.349-12.144-15.785-20.94-25.224-6.13-6.58-10.281-10.4-12.8-12.639C552.9,41.121,546.077,35.81,545.933,35.979Z" transform="translate(-543.745 -35.975)" fill="#3ebfb5"/>
      </g>
    </g>
    <g id="Gruppe_419-2" data-name="Gruppe 419-2" transform="translate(1557.048 4098.073)">
      <path id="Pfad_2647-6" data-name="Pfad 2647-6" d="M1172.184,361.7a64.834,64.834,0,0,1,29.578-15.437c5.537-1.195,13.941-3.009,23.938-.046,10.688,3.169,17.034,9.981,21.641,14.931a67.717,67.717,0,0,1,14.869,25.691c.182-2.111,3.3-40.47-4.452-59.133a33.369,33.369,0,0,0-8.751-12.944,32.583,32.583,0,0,0-13.131-6.9,33.763,33.763,0,0,0-16.076-.177,37.036,37.036,0,0,0-13.695,6.673,45.886,45.886,0,0,0-12.086,14.4C1189.445,336.579,1182.691,347.221,1172.184,361.7Z" transform="translate(-1089.706 -306.807)" fill="url(#linear-gradient)"/>
      <path id="Pfad_2648-6" data-name="Pfad 2648-6" d="M1201.641,318.227a8.064,8.064,0,0,1-.835,1.338c-2.419,3.486-9.348,14.6-12.028,23.014-2.447,7.682-1.589,13.915-.184,24.549a104.9,104.9,0,0,0,5.746,22.866c6.973,19.186,13.475,38.548,20.584,57.685,5.288,14.232,4.2,12.483,14.685,42.978,5.662,16.467,13.9,40.017,24.46,68.789l-25.3,10.248-13.928,42.273c-21.479-79.491-33.256-116.067-40.154-134.22-5.022-13.219-7.382-22.593-12.105-41.343-3.994-15.853-5.057-23.033-4.511-31.631.766-12.08,4.334-21.138,7.617-29.463,4.122-10.456,8.7-18.018,15.41-29.11,4.678-7.731,7.973-12.342,9.99-15.057C1195.849,324.715,1201.467,318.091,1201.641,318.227Z" transform="translate(-1089.505 -306.968)" fill="#ff92aa"/>
      <path id="Pfad_2649-11" data-name="Pfad 2649-11" d="M1258.341,334.561a8.1,8.1,0,0,0,.023,1.576c.264,4.236.433,17.329-1.636,25.917-1.887,7.838-5.848,12.729-12.562,21.094a104.838,104.838,0,0,1-16.761,16.58c-15.906,12.8-31.5,25.989-47.494,38.675-11.9,9.432-10.061,8.5-34.829,29.151-13.373,11.155-32.619,27.029-56.556,46.165l16.333,21.874-9.994,43.379c59.556-56.863,88.58-82.046,103.885-94,11.143-8.706,18.022-15.5,31.777-29.093,11.627-11.494,16.26-17.081,20.247-24.718,5.6-10.727,7.239-20.325,8.746-29.144,1.891-11.079,1.9-19.918,1.9-32.879,0-9.037-.424-14.682-.741-18.055C1259.936,343.114,1258.561,334.537,1258.341,334.561Z" transform="translate(-1088.528 -307.198)" fill="#ffb8cb"/>
    </g>
    <g id="Gruppe_419-3" data-name="Gruppe 419-3" transform="translate(1268.1 3751.521)">
      <g id="Gruppe_3044" data-name="Gruppe 3044" transform="translate(57.772 0)">
        <path id="Pfad_2647-7" data-name="Pfad 2647-7" d="M854.051,63.877A101.665,101.665,0,0,1,892,27.871c7.835-4.189,19.73-10.545,36.089-10.4,17.485.162,30,7.682,39.092,13.146A106.16,106.16,0,0,1,1000.714,62.9c-.638-3.259-12.506-62.378-32.272-87.135-3.025-3.789-8.707-10.905-18.795-15.72a51.177,51.177,0,0,0-22.782-4.724,53.067,53.067,0,0,0-24.333,6.663,58.084,58.084,0,0,0-17.77,15.963c-7.99,10.7-10.536,21.141-12.01,26.895C869.232,18.594,863.644,37.534,854.051,63.877Z" transform="translate(-854.051 44.694)" fill="#8695eb"/>
      </g>
      <g id="Gruppe_3045" data-name="Gruppe 3045" transform="translate(53.425 29.699)">
        <path id="Pfad_2648-7" data-name="Pfad 2648-7" d="M880.627-14.57a12.52,12.52,0,0,1-.682,2.369c-2.143,6.3-7.794,26.018-8.2,39.852-.371,12.626,3.611,21.649,10.33,37.056a164.18,164.18,0,0,0,18.548,31.958c18.81,25.89,36.982,52.243,55.977,78,14.126,19.154,11.732,16.987,40.723,58.394,15.654,22.36,38.258,54.269,66.618,93.051L1030.2,352.462l-2.742,69.682C960.708,311.689,927.138,261.683,908.89,237.311c-13.286-17.743-20.9-30.845-36.129-57.048-12.875-22.154-17.579-32.509-20.472-45.695-4.061-18.52-2.585-33.706-1.234-47.657,1.7-17.525,5.337-30.887,10.664-50.487,3.716-13.663,6.69-22.022,8.559-26.99C874.692-2.3,880.3-14.7,880.627-14.57Z" transform="translate(-849.642 14.571)" fill="#9eadff"/>
      </g>
      <g id="Gruppe_3046" data-name="Gruppe 3046" transform="translate(0 28.511)">
        <path id="Pfad_2649-12" data-name="Pfad 2649-12" d="M974.2-15.775a12.6,12.6,0,0,0,.716,2.362c2.228,6.267,8.144,25.915,8.731,39.74.539,12.621-3.325,21.693-9.835,37.19A164.164,164.164,0,0,1,955.7,95.72c-18.462,26.14-36.281,52.733-54.931,78.74-13.869,19.341-11.5,17.137-39.939,58.932-15.355,22.567-37.523,54.782-65.373,93.936q17.046,12.946,34.088,25.9l3.674,69.642C898.483,311.529,931.381,261.079,949.3,236.471c13.049-17.918,20.486-31.122,35.365-57.527,12.576-22.323,17.144-32.74,19.858-45.965,3.814-18.572,2.136-33.735.6-47.669-1.933-17.5-5.745-30.815-11.335-50.339-3.9-13.613-6.984-21.932-8.919-26.873C980.3-3.578,974.52-15.905,974.2-15.775Z" transform="translate(-795.454 15.776)" fill="#9eadff"/>
      </g>
    </g>
    <g id="Gruppe_419-4" data-name="Gruppe 419-4" transform="translate(1543.249 3890.718)">
      <g id="Gruppe_3047" data-name="Gruppe 3047" transform="translate(0.152 0)">
        <path id="Pfad_2647-8" data-name="Pfad 2647-8" d="M1074.686,132.938a29.453,29.453,0,0,1,7.918-12.923,20.839,20.839,0,0,1,9.318-5.618c4.906-1.268,8.972-.1,11.926.745a30.743,30.743,0,0,1,11.8,6.516c-.422-.865-8.182-16.517-15.57-21.961a15.171,15.171,0,0,0-6.436-2.987,14.844,14.844,0,0,0-6.73.388,15.38,15.38,0,0,0-6.31,3.69,16.847,16.847,0,0,0-3.779,5.8,20.827,20.827,0,0,0-1.343,8.428C1075.537,119.127,1075.389,124.844,1074.686,132.938Z" transform="translate(-1074.686 -96.491)" fill="#fff"/>
      </g>
      <g id="Gruppe_3048" data-name="Gruppe 3048" transform="translate(0 12.566)">
        <path id="Pfad_2648-8" data-name="Pfad 2648-8" d="M1076,109.237a3.691,3.691,0,0,1-.014.716,48.961,48.961,0,0,0,.7,11.766c.843,3.56,2.635,5.787,5.672,9.593a47.571,47.571,0,0,0,7.585,7.551c7.207,5.833,14.27,11.844,21.517,17.624,5.391,4.3,4.562,3.875,15.778,13.284,6.058,5.082,14.781,12.318,25.625,21.04l-7.464,9.906,4.463,19.706c-26.969-25.9-40.113-37.373-47.048-42.823-5.052-3.963-8.164-7.062-14.392-13.253-5.269-5.232-7.359-7.778-9.157-11.25-2.53-4.879-3.249-9.235-3.921-13.243-.839-5.035-.826-9.045-.805-14.928.014-4.1.219-6.664.367-8.19A61.44,61.44,0,0,1,1076,109.237Z" transform="translate(-1074.532 -109.237)" fill="#fff"/>
      </g>
      <g id="Gruppe_3049" data-name="Gruppe 3049" transform="translate(3.433 5.365)">
        <path id="Pfad_2649-13" data-name="Pfad 2649-13" d="M1102.285,101.933a3.6,3.6,0,0,0,.378.607A48.959,48.959,0,0,1,1108.089,113c1.1,3.491.7,6.32.038,11.146a47.542,47.542,0,0,1-2.652,10.371c-3.2,8.7-6.2,17.478-9.464,26.158-2.43,6.453-1.932,5.66-6.754,19.488-2.6,7.467-6.391,18.145-11.243,31.192l11.482,4.688,6.256,19.209c9.909-36.052,15.328-52.639,18.5-60.87,2.307-5.993,3.4-10.246,5.579-18.751,1.844-7.19,2.341-10.449,2.108-14.353-.327-5.483-1.934-9.6-3.413-13.386-1.854-4.751-3.921-8.192-6.95-13.236-2.112-3.516-3.6-5.613-4.513-6.851A61.47,61.47,0,0,0,1102.285,101.933Z" transform="translate(-1078.014 -101.933)" fill="#fff"/>
      </g>
    </g>
    <g id="Gruppe_419-5" data-name="Gruppe 419-5" transform="translate(1040.049 4130.899)">
      <path id="Pfad_2647-9" data-name="Pfad 2647-9" d="M593.393,361.44a24.806,24.806,0,0,1,11.213-6.09,17.525,17.525,0,0,1,9.158-.174,18.072,18.072,0,0,1,8.38,5.562,25.9,25.9,0,0,1,5.864,9.719c.055-.808.987-15.484-2.109-22.564a12.756,12.756,0,0,0-3.437-4.888,12.473,12.473,0,0,0-5.07-2.551,12.936,12.936,0,0,0-6.153.036,14.172,14.172,0,0,0-5.2,2.638,17.531,17.531,0,0,0-4.525,5.579A150.623,150.623,0,0,1,593.393,361.44Z" transform="translate(-564.558 -340.102)" fill="#087b4f"/>
      <path id="Pfad_2648-9" data-name="Pfad 2648-9" d="M604.369,344.64a3,3,0,0,1-.311.516,41.213,41.213,0,0,0-4.445,8.872c-.883,2.951-.516,5.326.1,9.381a40.043,40.043,0,0,0,2.356,8.7c2.8,7.285,5.419,14.64,8.269,21.905,2.121,5.4,1.693,4.741,5.912,16.325,2.278,6.256,5.591,15.2,9.829,26.123l-9.611,4.082-5.041,16.245c-8.761-30.231-13.518-44.132-16.278-51.02a127.41,127.41,0,0,1-4.915-15.719c-1.636-6.031-2.092-8.768-1.94-12.057a34.935,34.935,0,0,1,2.715-11.3,69.265,69.265,0,0,1,5.693-11.223c1.737-2.984,2.965-4.766,3.718-5.819A51.693,51.693,0,0,1,604.369,344.64Z" transform="translate(-564.486 -340.166)" fill="#3f9d7f"/>
      <g id="Gruppe_3050" data-name="Gruppe 3050" transform="translate(0 9.863)">
        <path id="Pfad_2649-14" data-name="Pfad 2649-14" d="M627.733,350.106a3.078,3.078,0,0,0,.021.6,41.2,41.2,0,0,1-.424,9.912c-.662,3.009-2.139,4.907-4.644,8.152a40.067,40.067,0,0,1-6.284,6.459c-5.987,5.008-11.847,10.16-17.873,15.127-4.479,3.691-3.784,3.321-13.1,11.4-5.03,4.361-12.271,10.567-21.283,18.057l6.416,8.236-3.489,16.647c22.346-22.166,33.256-32,39.019-36.681a127.5,127.5,0,0,0,11.931-11.354c4.361-4.477,6.089-6.647,7.555-9.594a34.961,34.961,0,0,0,3.121-11.2,69.355,69.355,0,0,0,.475-12.575c-.067-3.452-.273-5.6-.421-6.893A51.808,51.808,0,0,0,627.733,350.106Z" transform="translate(-564.146 -350.106)" fill="#409e80"/>
      </g>
    </g>
    <g id="Gruppe_2128" data-name="Gruppe 2128" transform="translate(1327.211 4239.829)">
      <g id="Gruppe_3051" data-name="Gruppe 3051" transform="translate(0.267 0)">
        <path id="Pfad_2647-10" data-name="Pfad 2647-10" d="M857.679,511.38a47.122,47.122,0,0,1,10.508-21.851c2.7-3.106,6.809-7.82,13.92-10.451,7.6-2.814,14.265-1.615,19.1-.746a49.208,49.208,0,0,1,19.842,8.458c-.814-1.306-15.7-24.963-28.338-32.431a24.265,24.265,0,0,0-10.732-3.714,23.744,23.744,0,0,0-10.649,1.708,24.6,24.6,0,0,0-9.443,6.9,26.938,26.938,0,0,0-5.066,9.846,33.289,33.289,0,0,0-.771,13.629C856.794,489.261,857.5,498.385,857.679,511.38Z" transform="translate(-855.679 -450.587)" fill="#ef8c23"/>
      </g>
      <g id="Gruppe_3052" data-name="Gruppe 3052" transform="translate(0 22.513)">
        <path id="Pfad_2648-10" data-name="Pfad 2648-10" d="M855.953,473.421a5.748,5.748,0,0,1,.094,1.141c.109,3.08.911,12.556,3.015,18.615,1.92,5.53,5.131,8.784,10.581,14.347a76.116,76.116,0,0,0,13.3,10.8c12.415,8.116,24.629,16.538,37.1,24.565,9.275,5.975,7.881,5.427,27.265,18.588,10.467,7.107,25.518,17.209,44.192,29.334L981.224,607.78l10.294,30.64c-47.114-36.852-69.9-52.984-81.818-60.533-8.679-5.5-14.137-9.918-25.051-18.761-9.228-7.476-12.972-11.187-16.4-16.424-4.81-7.353-6.674-14.174-8.387-20.442-2.147-7.871-2.775-14.259-3.7-23.624-.641-6.532-.729-10.643-.738-13.1A98.013,98.013,0,0,1,855.953,473.421Z" transform="translate(-855.408 -473.421)" fill="#f9ba3d"/>
      </g>
      <g id="Gruppe_3053" data-name="Gruppe 3053" transform="translate(20.241 6.758)">
        <path id="Pfad_2649-15" data-name="Pfad 2649-15" d="M896.843,457.441a5.827,5.827,0,0,0,.7.906c2,2.347,7.8,9.884,10.333,15.777,2.313,5.378,2.135,9.946,1.862,17.73A76.09,76.09,0,0,1,907.2,508.79c-3.691,14.366-7.029,28.822-10.823,43.162-2.822,10.664-2.159,9.322-7.593,32.115-2.934,12.306-7.231,29.914-12.842,51.464q9.517,2.8,19.034,5.6l13.069,29.561c9.929-58.986,15.868-86.262,19.577-99.875,2.7-9.913,3.748-16.857,5.843-30.749,1.77-11.743,2.032-17.008,1.029-23.185-1.408-8.673-4.633-14.966-7.595-20.749-3.722-7.263-7.567-12.4-13.206-19.94-3.933-5.253-6.639-8.35-8.292-10.173A98.174,98.174,0,0,0,896.843,457.441Z" transform="translate(-875.938 -457.441)" fill="#f9ba3d"/>
      </g>
    </g>
    <g id="Gruppe_2124" data-name="Gruppe 2124" transform="translate(1179.506 4244.589)">
      <path id="Pfad_2647-11" data-name="Pfad 2647-11" d="M708.141,490.157a26.248,26.248,0,0,1,4.95-12.572,18.563,18.563,0,0,1,7.312-6.375c4.11-1.873,7.861-1.479,10.585-1.193a27.421,27.421,0,0,1,11.372,3.893c-.506-.693-9.735-13.232-17.069-16.869a13.526,13.526,0,0,0-6.116-1.627,13.227,13.227,0,0,0-5.847,1.382,13.7,13.7,0,0,0-4.963,4.219,14.988,14.988,0,0,0-2.423,5.675,18.555,18.555,0,0,0,.129,7.607C706.748,477.9,707.509,482.944,708.141,490.157Z" transform="translate(-705.595 -455.415)" fill="#ecc2c0"/>
      <path id="Pfad_2648-11" data-name="Pfad 2648-11" d="M705.624,469.148a3.236,3.236,0,0,1,.1.63A43.666,43.666,0,0,0,708.156,480c1.292,3,3.209,4.671,6.464,7.544a42.426,42.426,0,0,0,7.832,5.45c7.229,4.01,14.361,8.192,21.618,12.146,5.4,2.939,4.6,2.694,15.909,9.218,6.1,3.523,14.88,8.524,25.753,14.5l-5.018,9.852,6.969,16.609c-27.689-18.562-41-26.6-47.935-30.309-5.043-2.7-8.261-4.936-14.686-9.406-5.432-3.779-7.665-5.689-9.784-8.46a37,37,0,0,1-5.494-11.019,73.525,73.525,0,0,1-3.019-12.981c-.622-3.6-.839-5.884-.945-7.251A54.875,54.875,0,0,1,705.624,469.148Z" transform="translate(-705.595 -455.608)" fill="#ecc2c0"/>
      <g id="Gruppe_3054" data-name="Gruppe 3054" transform="translate(12.791 0)">
        <path id="Pfad_2649-16" data-name="Pfad 2649-16" d="M723.292,455.415a3.152,3.152,0,0,0,.421.473,43.422,43.422,0,0,1,6.317,8.327c1.486,2.886,1.564,5.417,1.713,9.732a42.131,42.131,0,0,1-.756,9.462c-1.489,8.085-2.779,16.206-4.327,24.28-1.151,6-.836,5.237-2.966,18.046-1.15,6.917-2.849,16.817-5.126,28.948l10.74,2.367,8.361,15.844c3.227-32.994,5.464-48.3,6.992-55.977,1.11-5.581,1.425-9.464,2.051-17.225.527-6.56.47-9.482-.32-12.858a36.842,36.842,0,0,0-5-11.178,73.01,73.01,0,0,0-8.067-10.518c-2.374-2.755-3.991-4.363-4.975-5.306A54.378,54.378,0,0,0,723.292,455.415Z" transform="translate(-718.568 -455.415)" fill="#ecc2c0"/>
      </g>
    </g>
    <rect id="Rechteck_348-2" data-name="Rechteck 348-2" width="12.394" height="12.314" transform="translate(1718.778 3855.678) rotate(-45)" fill="#9aa9fb"/>
    <rect id="Rechteck_349-2" data-name="Rechteck 349-2" width="12.394" height="12.314" transform="translate(1663.165 3806.575) rotate(-45)" fill="#9cb0fc"/>
    <rect id="Rechteck_350-2" data-name="Rechteck 350-2" width="15.055" height="14.958" transform="translate(1577.288 3825.445) rotate(-45)" fill="#fff"/>
    <rect id="Rechteck_351-2" data-name="Rechteck 351-2" width="15.055" height="14.958" transform="translate(1476.914 3741.495) rotate(-45)" fill="#fff"/>
    <g id="Gruppe_738" data-name="Gruppe 738" transform="translate(1122.002 3528)">
      <g id="Gruppe_419-6" data-name="Gruppe 419-6" transform="translate(0)">
        <path id="Pfad_2647-12" data-name="Pfad 2647-12" d="M730.62-219.031a63.045,63.045,0,0,1,29.037-14.476c5.407-1.065,13.614-2.679,23.29.375,10.347,3.262,16.4,10,20.8,14.884a65.853,65.853,0,0,1,14.037,25.224c.212-2.049,3.889-39.265-3.345-57.532a32.463,32.463,0,0,0-8.3-12.727,31.741,31.741,0,0,0-12.659-6.936,32.907,32.907,0,0,0-15.641-.458,36.022,36.022,0,0,0-13.433,6.247,44.545,44.545,0,0,0-12,13.776C747.833-243.139,741.085-232.918,730.62-219.031Z" transform="translate(-648.443 271.406)" fill="#03269a"/>
        <path id="Pfad_2648-12" data-name="Pfad 2648-12" d="M760-260.759a7.75,7.75,0,0,1-.836,1.284c-2.413,3.344-9.339,14.02-12.088,22.151-2.507,7.422-1.783,13.5-.59,23.851a101.808,101.808,0,0,0,5.207,22.318c6.463,18.766,12.461,37.694,19.063,56.41,4.906,13.921,3.882,12.206,13.568,42.017,5.231,16.1,12.851,39.125,22.645,67.268l-24.788,9.512-14.26,40.835C748.349-52.73,737.506-88.472,731.1-106.233c-4.665-12.932-6.807-22.086-11.089-40.389-3.621-15.474-4.535-22.469-3.858-30.814.945-11.718,4.574-20.459,7.906-28.49,4.185-10.086,8.763-17.354,15.477-28.012,4.68-7.43,7.96-11.849,9.969-14.457C754.254-254.556,759.831-260.894,760-260.759Z" transform="translate(-648.237 271.257)" fill="#03269a"/>
        <g id="Gruppe_3055" data-name="Gruppe 3055" transform="translate(0 25.823)">
          <path id="Pfad_2649-17" data-name="Pfad 2649-17" d="M814.674-245.215a7.844,7.844,0,0,0,0,1.529c.2,4.112.19,16.823-1.938,25.129-1.939,7.581-5.853,12.27-12.49,20.291a101.652,101.652,0,0,1-16.505,15.854c-15.627,12.195-30.953,24.773-46.666,36.856-11.686,8.985-9.891,8.1-34.231,27.794C689.7-107.135,670.788-92,647.27-73.772l15.576,21.458-10.287,41.95c58.63-54.332,87.167-78.358,102.2-89.742,10.944-8.288,17.721-14.783,31.267-27.778,11.454-10.985,16.026-16.345,20-23.7,5.586-10.33,7.307-19.62,8.888-28.158,1.987-10.723,2.11-19.3,2.29-31.879.125-8.769-.216-14.253-.478-17.531C816.108-236.894,814.888-245.237,814.674-245.215Z" transform="translate(-647.27 245.215)" fill="#002bb9"/>
        </g>
      </g>
    </g>
    <g id="Gruppe_3043-2" data-name="Gruppe 3043" transform="translate(1715.756 3840.107)">
      <g id="Gruppe_830" data-name="Gruppe 830" transform="translate(15.907 0)">
        <path id="Pfad_2650" data-name="Pfad 2650" d="M1277.293,97.747a45.558,45.558,0,0,1,14.872-18.126c3.252-2.3,8.187-5.789,15.471-6.635,7.786-.9,13.771,1.749,18.116,3.67a47.573,47.573,0,0,1,16.71,12.488c-.465-1.414-9.036-27.045-19.206-36.953a23.459,23.459,0,0,0-9.234-5.944,22.95,22.95,0,0,0-10.395-.833,23.79,23.79,0,0,0-10.451,4.319,26.025,26.025,0,0,0-7.013,8.089,32.21,32.21,0,0,0-3.843,12.631C1281.521,76.762,1280.091,85.5,1277.293,97.747Z" transform="translate(-1265.8 -45.157)" fill="url(#linear-gradient-2)"/>
        <path id="Pfad_2651" data-name="Pfad 2651" d="M1284.424,61.618a5.684,5.684,0,0,1-.172,1.093c-.6,2.918-2.016,12.006-1.427,18.18.538,5.636,2.812,9.426,6.658,15.9a73.65,73.65,0,0,0,10.028,13.18c9.808,10.467,19.358,21.174,29.24,31.57,7.348,7.732,6.163,6.9,21.362,23.7,8.208,9.071,20.036,22.006,34.811,37.672l-13.541,13.6,2.662,31.14c-35.836-45.4-53.551-65.773-63.024-75.594-6.895-7.149-11.011-12.552-19.238-23.358-6.964-9.134-9.633-13.477-11.654-19.18-2.837-8.008-3.028-14.844-3.2-21.126-.221-7.888.652-14.035,1.93-23.046.891-6.283,1.748-10.168,2.3-12.481A95,95,0,0,1,1284.424,61.618Z" transform="translate(-1265.794 -45.389)" fill="#0654cc"/>
        <path id="Pfad_2652" data-name="Pfad 2652" d="M1326.017,56.027a5.552,5.552,0,0,0,.448,1.013c1.34,2.663,5.064,11.07,6.1,17.187.943,5.582-.268,9.834-2.3,17.087A73.542,73.542,0,0,1,1324,106.644c-6.754,12.658-13.2,25.473-20.043,38.076-5.091,9.374-4.161,8.265-14.479,28.434-5.57,10.891-13.637,26.451-23.839,45.416l16.6,9.619,5.513,30.766c22.82-53.149,34.644-77.419,41.243-89.361,4.805-8.7,7.378-14.981,12.524-27.554,4.35-10.627,5.8-15.515,6.271-21.547.662-8.471-.925-15.122-2.389-21.233-1.833-7.672-4.272-13.384-7.845-21.756-2.493-5.837-4.328-9.364-5.464-11.454A94.877,94.877,0,0,0,1326.017,56.027Z" transform="translate(-1265.636 -45.31)" fill="#0f83e6"/>
      </g>
      <g id="Gruppe_824" data-name="Gruppe 824" transform="translate(0 82.508)">
        <path id="Pfad_3641" data-name="Pfad 3641" d="M1314,143.766l3.87,22.791c-8.179,10.686-26.271,18.927-39.914,18.085-10-.617-20.052-5.19-24.989-14.285-1.967-3.627-4.2-8.5-3.226-12.717,1.062-4.611,5.87-2.413,9.033-1.838,7.316,1.332,14.869-3.861,19.67-8.864,5.049-5.262,10.84-11.475,18.6-12.277,6.685-.691,12.81,3.5,16.646,8.694C1313.772,143.482,1313.906,143.633,1314,143.766Z" transform="translate(-1249.502 -128.924)" fill="url(#linear-gradient-3)"/>
        <path id="Pfad_3641-2" data-name="Pfad 3641-2" d="M1314.739,143.678l4.025,22.762c11.345,7.237,31.285,8.8,43.813,3.326,9.184-4.006,17.06-11.745,18.583-21.981.606-4.081,1.03-9.426-1.326-13.053-2.577-3.968-6.34-.255-9.115,1.368-6.417,3.757-15.292,1.467-21.518-1.589-6.546-3.213-14.115-7.067-21.676-5.162-6.517,1.641-10.837,7.672-12.66,13.871C1314.822,143.372,1314.776,143.523,1314.739,143.678Z" transform="translate(-1250.42 -128.843)" fill="url(#linear-gradient-4)"/>
      </g>
    </g>
    <g id="Gruppe_2123" data-name="Gruppe 2123" transform="translate(1566.311 3531.278)">
      <g id="Gruppe_3056" data-name="Gruppe 3056" transform="translate(0.303 0)">
        <path id="Pfad_2647-13" data-name="Pfad 2647-13" d="M1098.23-197.351a57.153,57.153,0,0,1,15.366-25.08c3.645-3.417,9.179-8.6,18.085-10.905,9.521-2.461,17.412-.2,23.143,1.445a59.694,59.694,0,0,1,22.912,12.648c-.822-1.677-15.876-32.054-30.216-42.62a29.425,29.425,0,0,0-12.5-5.8,28.791,28.791,0,0,0-13.06.753,29.831,29.831,0,0,0-12.243,7.163,32.663,32.663,0,0,0-7.324,11.253,40.388,40.388,0,0,0-2.606,16.355C1099.878-224.152,1099.6-213.055,1098.23-197.351Z" transform="translate(-1098.23 268.082)" fill="#f06e58"/>
      </g>
      <g id="Gruppe_3057" data-name="Gruppe 3057" transform="translate(0 24.372)">
        <path id="Pfad_2648-13" data-name="Pfad 2648-13" d="M1100.777-243.362a7.11,7.11,0,0,1-.027,1.388c-.247,3.731-.444,15.265,1.352,22.832,1.638,6.911,5.114,11.232,11.007,18.619a92.339,92.339,0,0,0,14.727,14.655c13.986,11.32,27.695,22.987,41.759,34.208,10.462,8.343,8.846,7.516,30.62,25.781,11.757,9.862,28.679,23.9,49.731,40.831l-14.488,19.227,8.66,38.241c-52.334-50.263-77.846-72.535-91.308-83.107-9.8-7.7-15.843-13.706-27.926-25.718-10.22-10.157-14.283-15.1-17.776-21.835-4.9-9.466-6.314-17.926-7.61-25.7-1.633-9.767-1.6-17.552-1.563-28.97.029-7.961.426-12.934.717-15.9C1099.341-235.833,1100.582-243.386,1100.777-243.362Z" transform="translate(-1097.922 243.362)" fill="#f47d67"/>
      </g>
      <g id="Gruppe_3058" data-name="Gruppe 3058" transform="translate(6.662 10.401)">
        <path id="Pfad_2649-18" data-name="Pfad 2649-18" d="M1151.777-257.53a7.1,7.1,0,0,0,.734,1.179c2.118,3.077,8.2,12.886,10.533,20.309,2.132,6.775,1.356,12.265.076,21.628a92.273,92.273,0,0,1-5.149,20.128c-6.218,16.885-12.023,33.922-18.363,50.761-4.716,12.523-3.751,10.984-13.107,37.82-5.053,14.492-12.4,35.215-21.82,60.533l22.284,9.1L1139.1,1.211c19.229-69.967,29.746-102.157,35.9-118.13,4.477-11.631,6.595-19.887,10.826-36.388,3.579-13.955,4.542-20.277,4.091-27.854-.634-10.641-3.753-18.632-6.618-25.974-3.6-9.223-7.608-15.9-13.487-25.687-4.1-6.825-6.987-10.893-8.758-13.3C1156.866-251.8,1151.935-257.648,1151.777-257.53Z" transform="translate(-1104.68 257.532)" fill="#f47d67"/>
      </g>
    </g>
    <g id="Gruppe_2124-2" data-name="Gruppe 2124-2" transform="translate(1384.124 3545.208)">
      <path id="Pfad_2647-14" data-name="Pfad 2647-14" d="M959.136-230.407a31.191,31.191,0,0,1,14.93-5.888,22.054,22.054,0,0,1,11.46,1.19c4.956,2.054,7.653,5.631,9.609,8.228a32.571,32.571,0,0,1,5.83,13.028c.192-1,3.606-19.18.825-28.491a16.059,16.059,0,0,0-3.54-6.63,15.713,15.713,0,0,0-5.938-3.959,16.274,16.274,0,0,0-7.69-.9,17.833,17.833,0,0,0-6.884,2.5,22.037,22.037,0,0,0-6.5,6.271A189.912,189.912,0,0,1,959.136-230.407Z" transform="translate(-913.782 253.953)" fill="#1c1c2d"/>
      <path id="Pfad_2648-14" data-name="Pfad 2648-14" d="M975.382-249.709a3.867,3.867,0,0,1-.469.6A51.9,51.9,0,0,0,968-238.718c-1.556,3.548-1.46,6.573-1.314,11.726a50.335,50.335,0,0,0,1.606,11.22c2.379,9.53,4.52,19.109,6.966,28.616,1.819,7.071,1.386,6.18,4.877,21.287,1.885,8.158,4.648,19.831,8.264,34.119l-12.625,3.618L967-108.624c-6.3-39.084-10.109-57.164-12.5-66.192-1.745-6.572-2.4-11.174-3.726-20.377-1.118-7.779-1.268-11.266-.576-15.349.971-5.733,3.134-9.883,5.121-13.7,2.5-4.791,5.065-8.174,8.831-13.136,2.625-3.46,4.432-5.5,5.534-6.7A64.93,64.93,0,0,1,975.382-249.709Z" transform="translate(-913.65 253.893)" fill="#393758"/>
      <g id="Gruppe_3059" data-name="Gruppe 3059" transform="translate(0 14.027)">
        <path id="Pfad_2649-19" data-name="Pfad 2649-19" d="M1003.7-239.726a3.818,3.818,0,0,0-.067.756,52.017,52.017,0,0,1-2.063,12.354c-1.292,3.667-3.436,5.816-7.073,9.5A50.525,50.525,0,0,1,985.633-210c-8.271,5.35-16.411,10.9-24.72,16.194-6.181,3.935-5.251,3.577-18.169,12.253-6.973,4.685-17,11.347-29.444,19.337l6.767,11.307-6.934,20.317c31.412-24.322,46.594-34.96,54.534-39.934,5.782-3.622,9.42-6.541,16.7-12.377,6.152-4.936,8.652-7.387,10.944-10.854,3.219-4.867,4.479-9.391,5.638-13.549,1.454-5.22,1.893-9.462,2.534-15.68.448-4.335.52-7.066.533-8.7A65.185,65.185,0,0,0,1003.7-239.726Z" transform="translate(-913.134 239.726)" fill="#393758"/>
      </g>
    </g>
    <g id="Gruppe_2127" data-name="Gruppe 2127" transform="translate(1196.68 3856.283)">
      <g id="Gruppe_419-7" data-name="Gruppe 419-7" transform="translate(0 0)">
        <path id="Pfad_2647-15" data-name="Pfad 2647-15" d="M758.691,84.946a27.654,27.654,0,0,1,12.62-6.57,19.551,19.551,0,0,1,10.214-.015c4.561,1.352,7.269,4.257,9.235,6.366a28.865,28.865,0,0,1,6.348,10.951c.077-.9,1.4-17.245-1.909-25.2a14.238,14.238,0,0,0-3.737-5.517,13.913,13.913,0,0,0-5.6-2.942A14.431,14.431,0,0,0,779,61.939a15.8,15.8,0,0,0-5.846,2.84A19.542,19.542,0,0,0,768,70.911C766.053,74.245,763.173,78.777,758.691,84.946Z" transform="translate(-723.516 -61.565)" fill="#fff"/>
        <path id="Pfad_2648-15" data-name="Pfad 2648-15" d="M771.256,66.426a3.335,3.335,0,0,1-.357.569,45.979,45.979,0,0,0-5.132,9.806c-1.041,3.271-.675,5.929-.075,10.462a44.667,44.667,0,0,0,2.451,9.748c2.978,8.178,5.755,16.429,8.791,24.586,2.258,6.065,1.793,5.321,6.271,18.317,2.417,7.016,5.934,17.056,10.447,29.32l-10.795,4.354L776.923,191.6c-9.175-33.878-14.2-49.468-17.15-57.205-2.141-5.632-3.153-9.63-5.171-17.622-1.707-6.757-2.161-9.817-1.928-13.481a38.971,38.971,0,0,1,3.245-12.55,77.347,77.347,0,0,1,6.573-12.4c1.994-3.292,3.4-5.256,4.26-6.415A57.749,57.749,0,0,1,771.256,66.426Z" transform="translate(-723.431 -61.633)" fill="#36b2c4"/>
        <path id="Pfad_2649-20" data-name="Pfad 2649-20" d="M795.451,73.4a3.471,3.471,0,0,0,.011.671,45.97,45.97,0,0,1-.7,11.043c-.8,3.34-2.493,5.424-5.358,8.987a44.648,44.648,0,0,1-7.149,7.063c-6.786,5.451-13.437,11.068-20.262,16.471-5.075,4.018-4.292,3.619-14.856,12.415-5.7,4.752-13.916,11.511-24.128,19.66q3.486,4.663,6.971,9.326l-4.256,18.482c25.406-24.219,37.786-34.943,44.315-40.034,4.754-3.706,7.688-6.6,13.556-12.389,4.959-4.9,6.931-7.276,8.635-10.532a38.974,38.974,0,0,0,3.725-12.421,77.288,77.288,0,0,0,.808-14.011c0-3.852-.183-6.257-.317-7.694A57.577,57.577,0,0,0,795.451,73.4Z" transform="translate(-723.014 -61.731)" fill="#06a7ba"/>
      </g>
    </g>
    <rect id="Rechteck_352" data-name="Rechteck 352" width="12.231" height="12.311" transform="translate(1509.314 4275.21) rotate(-45)" fill="#4c4981"/>
    <rect id="Rechteck_353" data-name="Rechteck 353" width="12.231" height="12.311" transform="translate(1520.19 4252.249) rotate(-45)" fill="#9cb0fc"/>
    <rect id="Rechteck_352-2" data-name="Rechteck 352-2" width="12.231" height="12.311" transform="matrix(0.966, -0.259, 0.259, 0.966, 1191.606, 4153.457)" fill="#4c4981"/>
    <rect id="Rechteck_353-2" data-name="Rechteck 353-2" width="12.231" height="12.311" transform="matrix(0.966, -0.259, 0.259, 0.966, 1166.283, 4151.396)" fill="#9aa9fb"/>
    <rect id="Rechteck_348-2-2" data-name="Rechteck 348-2-2" width="12.314" height="12.394" transform="translate(937.963 3755.967) rotate(-45)" fill="#ffb8cb"/>
    <rect id="Rechteck_349-2-2" data-name="Rechteck 349-2-2" width="12.314" height="12.394" transform="translate(948.913 3732.849) rotate(-45)" fill="#9cb0fc"/>
    <rect id="Rechteck_350-2-2" data-name="Rechteck 350-2-2" width="14.958" height="15.055" transform="translate(1031.037 3751.707) rotate(-45)" fill="#fff"/>
    <rect id="Rechteck_351-2-2" data-name="Rechteck 351-2-2" width="14.958" height="15.055" transform="translate(1131.413 3667.757) rotate(-45)" fill="#fff"/>
  </g>
</svg>
