<svg xmlns="http://www.w3.org/2000/svg" xmlns:xlink="http://www.w3.org/1999/xlink" width="1720.991" height="861.012" viewBox="0 0 1720.991 861.012">
  <defs>
    <filter id="Pfad_2647" x="994.519" y="332.176" width="221.797" height="221.082" filterUnits="userSpaceOnUse">
      <feOffset dx="8" dy="8" input="SourceAlpha"/>
      <feGaussianBlur stdDeviation="20" result="blur"/>
      <feFlood flood-color="#6c63ff" flood-opacity="0.078"/>
      <feComposite operator="in" in2="blur"/>
      <feComposite in="SourceGraphic"/>
    </filter>
    <filter id="Pfad_2648" x="965.671" y="367.132" width="371.561" height="322.05" filterUnits="userSpaceOnUse">
      <feOffset dx="8" dy="8" input="SourceAlpha"/>
      <feGaussianBlur stdDeviation="20" result="blur-2"/>
      <feFlood flood-color="#6c63ff" flood-opacity="0.102"/>
      <feComposite operator="in" in2="blur-2"/>
      <feComposite in="SourceGraphic"/>
    </filter>
    <filter id="Pfad_2649" x="985.727" y="347.619" width="278.53" height="381.816" filterUnits="userSpaceOnUse">
      <feOffset dx="8" dy="8" input="SourceAlpha"/>
      <feGaussianBlur stdDeviation="20" result="blur-3"/>
      <feFlood flood-color="#6c63ff" flood-opacity="0.078"/>
      <feComposite operator="in" in2="blur-3"/>
      <feComposite in="SourceGraphic"/>
    </filter>
    <filter id="Pfad_2649-2" x="208.834" y="11.224" width="235.3" height="404.944" filterUnits="userSpaceOnUse">
      <feOffset dy="3" input="SourceAlpha"/>
      <feGaussianBlur stdDeviation="8" result="blur-4"/>
      <feFlood flood-opacity="0.161"/>
      <feComposite operator="in" in2="blur-4"/>
      <feComposite in="SourceGraphic"/>
    </filter>
    <filter id="Pfad_2647-2" x="1172.78" y="0" width="250.058" height="249.364" filterUnits="userSpaceOnUse">
      <feOffset dx="8" dy="8" input="SourceAlpha"/>
      <feGaussianBlur stdDeviation="20" result="blur-5"/>
      <feFlood flood-color="#6c63ff" flood-opacity="0.078"/>
      <feComposite operator="in" in2="blur-5"/>
      <feComposite in="SourceGraphic"/>
    </filter>
    <filter id="Pfad_2648-2" x="1125.647" y="41.029" width="434.071" height="385.964" filterUnits="userSpaceOnUse">
      <feOffset dx="8" dy="8" input="SourceAlpha"/>
      <feGaussianBlur stdDeviation="20" result="blur-6"/>
      <feFlood flood-color="#6c63ff" flood-opacity="0.102"/>
      <feComposite operator="in" in2="blur-6"/>
      <feComposite in="SourceGraphic"/>
    </filter>
    <filter id="Pfad_2649-3" x="1140.034" y="23.738" width="338.571" height="438.928" filterUnits="userSpaceOnUse">
      <feOffset dx="8" dy="8" input="SourceAlpha"/>
      <feGaussianBlur stdDeviation="20" result="blur-7"/>
      <feFlood flood-color="#070433" flood-opacity="0.161"/>
      <feComposite operator="in" in2="blur-7"/>
      <feComposite in="SourceGraphic"/>
    </filter>
    <filter id="Pfad_2647-3" x="516.238" y="92.157" width="187.016" height="186.658" filterUnits="userSpaceOnUse">
      <feOffset dx="8" dy="8" input="SourceAlpha"/>
      <feGaussianBlur stdDeviation="20" result="blur-8"/>
      <feFlood flood-color="#6c63ff" flood-opacity="0.078"/>
      <feComposite operator="in" in2="blur-8"/>
      <feComposite in="SourceGraphic"/>
    </filter>
    <filter id="Pfad_2648-3" x="491.951" y="113.298" width="281.833" height="257.045" filterUnits="userSpaceOnUse">
      <feOffset dx="8" dy="8" input="SourceAlpha"/>
      <feGaussianBlur stdDeviation="20" result="blur-9"/>
      <feFlood flood-color="#6c63ff" flood-opacity="0.102"/>
      <feComposite operator="in" in2="blur-9"/>
      <feComposite in="SourceGraphic"/>
    </filter>
    <filter id="Pfad_2649-4" x="499.364" y="104.388" width="232.624" height="284.335" filterUnits="userSpaceOnUse">
      <feOffset dx="8" dy="8" input="SourceAlpha"/>
      <feGaussianBlur stdDeviation="20" result="blur-10"/>
      <feFlood flood-color="#6c63ff" flood-opacity="0.078"/>
      <feComposite operator="in" in2="blur-10"/>
      <feComposite in="SourceGraphic"/>
    </filter>
    <filter id="Pfad_2649-5" x="1456.486" y="136.155" width="264.505" height="226.711" filterUnits="userSpaceOnUse">
      <feOffset dy="3" input="SourceAlpha"/>
      <feGaussianBlur stdDeviation="15.5" result="blur-11"/>
      <feFlood flood-opacity="0.161"/>
      <feComposite operator="in" in2="blur-11"/>
      <feComposite in="SourceGraphic"/>
    </filter>
    <linearGradient id="linear-gradient" x1="0.071" y1="0.53" x2="1.078" y2="0.53" gradientUnits="objectBoundingBox">
      <stop offset="0" stop-color="#034bcb"/>
      <stop offset="0.312" stop-color="#095bce"/>
      <stop offset="0.674" stop-color="#0a7fe4"/>
      <stop offset="1" stop-color="#0f83e6"/>
    </linearGradient>
    <linearGradient id="linear-gradient-2" x1="1" y1="0.154" x2="-0.267" y2="1.293" gradientUnits="objectBoundingBox">
      <stop offset="0" stop-color="#193b66"/>
      <stop offset="1" stop-color="#0d1f35"/>
    </linearGradient>
    <linearGradient id="linear-gradient-3" x1="0.924" y1="1.071" x2="0" y2="0.213" gradientUnits="objectBoundingBox">
      <stop offset="0" stop-color="#112b48"/>
      <stop offset="1" stop-color="#112b48"/>
    </linearGradient>
    <filter id="Pfad_2649-6" x="958.648" y="99.494" width="179.925" height="182.071" filterUnits="userSpaceOnUse">
      <feOffset dy="3" input="SourceAlpha"/>
      <feGaussianBlur stdDeviation="8" result="blur-12"/>
      <feFlood flood-opacity="0.078"/>
      <feComposite operator="in" in2="blur-12"/>
      <feComposite in="SourceGraphic"/>
    </filter>
    <linearGradient id="linear-gradient-4" x1="-7.682" y1="9.597" x2="-7.673" y2="9.597" gradientUnits="objectBoundingBox">
      <stop offset="0" stop-color="#ff92aa"/>
      <stop offset="0.312" stop-color="#ff96ae"/>
      <stop offset="0.674" stop-color="#ffa4ba"/>
      <stop offset="1" stop-color="#ffb8cb"/>
    </linearGradient>
  </defs>
  <g id="Gruppe_3039" data-name="Gruppe 3039" transform="translate(-115 -177.961)">
    <path id="Pfad_1816" data-name="Pfad 1816" d="M-437.053,493.412c-9.667-36.637-15.269-75.172-23.349-107.7q-25.884-104.169-56.981-206.932c-11.154-36.865-37.823-93.528-15.6-130.074,7.772-12.783,21.164-20.163,34.285-26.283C-437.2-6.259-368.429-8.763-304.528-29.343-170.785-72.418-62.513-191.582,90.043-144.637c50.008,15.39,85.914,54.948,102.85,103.11C210.378,8.2,206.268,62.6,248.934,101.689c122.542,112.27,291.608-23.5,429.876-19.051a382.092,382.092,0,0,1,62.838,7.638,357.961,357.961,0,0,1,57.545,16.338c22.225,8.457,39.435,16.381,54.156,24.939A370.23,370.23,0,0,1,890.246,156a414.224,414.224,0,0,1,32.714,27.3q2.934,2.726,5.79,5.494a469.367,469.367,0,0,1,37.984,41.076,330.467,330.467,0,0,1,28.779,41.022c10.129,17.3,16.929,31.522,21.392,44.773a180.474,180.474,0,0,1,6.229,24.394,101.664,101.664,0,0,1,.044,41.43,63.071,63.071,0,0,1-6.141,18.159,49.625,49.625,0,0,1-9.55,13.176c-3.625,3.417-7.278,6.692-12.189,9.246a86.947,86.947,0,0,1-14.126,6.283,133.817,133.817,0,0,1-16.426,3.84c-16.9,3-35.319,2.674-53.141,2.356l-3.406-.051-5.381-.087c-6.954-.018-12.761.038-18.5.392a201.4,201.4,0,0,0-22.425,2.719,271.809,271.809,0,0,0-53.354,17.849c-21.111,10.424-40.388,23.01-59.034,35.183-5.6,3.65-11.219,7.309-16.869,10.917-12.418,7.922-25.895,16.232-40.281,23.329-8.979,4.418-15.925,7.784-23.538,10.795-73.342,28.991-159.267,13.738-232.64-8.391C373.372,508.256,307.665,475.579,241.9,472c-50.254-2.733-99.6,5.26-146.947,21.512-84.669,29.061-154.6,90.067-236.768,125.807-76.918,33.458-182.624,34.726-246.02-28.088C-413.1,566.2-427.193,530.791-437.053,493.412Z" transform="translate(718.566 356.813)" fill="#fff5d6"/>
    <g id="Gruppe_2128" data-name="Gruppe 2128" transform="translate(1112.266 800.533) rotate(-73)">
      <g transform="matrix(0.29, 0.96, -0.96, 0.29, 303.8, -1135.71)" filter="url(#Pfad_2647)">
        <path id="Pfad_2647-4" data-name="Pfad 2647" d="M0,16.35a57.855,57.855,0,0,1,29.446,4.4c4.625,2.045,11.644,5.15,17.312,12.537,6.058,7.9,7.071,16.146,7.807,22.136a60.421,60.421,0,0,1-2.72,26.349C53.08,80.339,75.428,54.3,79.6,36.756a29.791,29.791,0,0,0,.461-13.937,29.136,29.136,0,0,0-5.868-11.871A30.2,30.2,0,0,0,62.678,2.373,33.065,33.065,0,0,0,49.291,0,40.877,40.877,0,0,0,33.023,4.042C25.623,7.284,15.172,11.417,0,16.35Z" transform="translate(1046.53 461.35) rotate(-73)" fill="#ef8c23"/>
      </g>
      <g transform="matrix(0.29, 0.96, -0.96, 0.29, 303.8, -1135.71)" filter="url(#Pfad_2648)">
        <path id="Pfad_2648-4" data-name="Pfad 2648" d="M144.314-.01a7.149,7.149,0,0,1-1.3.525c-3.574,1.245-14.4,5.625-20.743,10.292-5.791,4.259-8.441,9.207-12.994,17.62a93.451,93.451,0,0,0-7.829,19.518c-5.016,17.509-10.463,34.894-15.353,52.438-3.637,13.047-3.5,11.214-11.909,38.727-4.539,14.857-10.927,36.176-18.372,62.487L32.17,195.7-.036,218.9c26.13-68.644,36.786-101.223,41.316-117.947,3.3-12.176,6.5-20.183,12.916-36.2,5.42-13.538,8.415-19.278,13.314-25.2,6.88-8.312,14.2-12.973,20.936-17.258,8.454-5.381,15.72-8.435,26.375-12.915,7.429-3.123,12.219-4.719,15.1-5.623C136.731,1.63,144.26-.2,144.314-.01Z" transform="translate(1017.7 557.15) rotate(-73)" fill="#f9ba3d"/>
      </g>
      <g transform="matrix(0.29, 0.96, -0.96, 0.29, 303.8, -1135.71)" filter="url(#Pfad_2649)">
        <path id="Pfad_2649-7" data-name="Pfad 2649" d="M246.079-.04a7.171,7.171,0,0,0-.809,1.149c-2.028,3.2-8.765,12.733-14.758,17.844-5.47,4.666-10.892,6.115-20.122,8.626a93.434,93.434,0,0,1-20.79,3.164c-18.192.884-36.361,2.215-54.559,2.969-13.533.56-11.719.85-40.423,2.748-15.5,1.025-37.716,2.374-65.031,3.614q.168,12.181.337,24.362L-.015,90.493c72.8-9.76,106.95-12.693,124.265-13.283,12.608-.43,21.135-1.722,38.19-4.307,14.418-2.185,20.69-3.789,27.571-7.207,9.664-4.8,15.875-10.866,21.584-16.44,7.169-7,11.8-13.377,18.6-22.727,4.738-6.519,7.386-10.819,8.924-13.419C242.749,6.968,246.251.057,246.079-.04Z" transform="translate(1037.77 634.96) rotate(-73)" fill="#f9ba3d"/>
      </g>
    </g>
    <g id="Gruppe_419" data-name="Gruppe 419" transform="matrix(0.191, -0.982, 0.982, 0.191, 290.505, 532.164)">
      <path id="Pfad_2647-5" data-name="Pfad 2647" d="M0,22.557a79.779,79.779,0,0,1,40.605,6.061c6.377,2.82,16.057,7.1,23.873,17.288,8.354,10.89,9.751,22.264,10.766,30.524a83.317,83.317,0,0,1-3.751,36.333c1.707-1.97,32.523-37.882,38.277-62.069a41.079,41.079,0,0,0,.635-19.218,40.177,40.177,0,0,0-8.092-16.369A41.644,41.644,0,0,0,86.433,3.283,45.6,45.6,0,0,0,67.974.012,56.367,56.367,0,0,0,45.54,5.586C35.336,10.055,20.925,15.755,0,22.557Z" transform="translate(232.491 0)" fill="#2cb1a6"/>
      <path id="Pfad_2648-5" data-name="Pfad 2648" d="M199.052.019a9.859,9.859,0,0,1-1.8.724C192.326,2.459,177.4,8.5,168.65,14.934c-7.986,5.873-11.64,12.7-17.918,24.3a128.864,128.864,0,0,0-10.8,26.914c-6.917,24.144-14.427,48.117-21.17,72.31-5.015,17.992-4.833,15.464-16.422,53.4-6.259,20.487-15.067,49.885-25.334,86.166L44.41,269.9,0,301.882C36.032,207.226,50.726,162.3,56.972,139.24c4.548-16.79,8.969-27.831,17.81-49.912,7.475-18.668,11.6-26.583,18.359-34.744,9.487-11.462,19.587-17.89,28.869-23.8,11.657-7.42,21.677-11.632,36.369-17.809,10.244-4.306,16.85-6.508,20.825-7.754C188.595,2.281,198.976-.243,199.052.019Z" transform="translate(94.496 0.592)" fill="#3ebfb5"/>
      <g transform="matrix(0.19, 0.98, -0.98, 0.19, 314.21, -239.87)" filter="url(#Pfad_2649-2)">
        <path id="Pfad_2649-8" data-name="Pfad 2649" d="M339.35,0a9.885,9.885,0,0,0-1.115,1.585c-2.8,4.406-12.087,17.558-20.35,24.606-7.542,6.434-15.019,8.432-27.748,11.895a128.84,128.84,0,0,1-28.668,4.363c-25.085,1.219-50.141,3.055-75.234,4.094-18.661.772-16.159,1.172-55.741,3.79-21.375,1.414-52.008,3.274-89.675,4.983q.232,16.8.464,33.594L0,124.841c100.384-13.459,147.478-17.5,171.355-18.316,17.385-.592,29.144-2.375,52.661-5.939,19.882-3.013,28.53-5.225,38.018-9.937,13.326-6.619,21.891-14.983,29.763-22.67,9.886-9.654,16.276-18.447,25.646-31.339,6.533-8.989,10.184-14.919,12.305-18.5C334.759,9.665,339.587.134,339.35,0Z" transform="matrix(0.19, -0.98, 0.98, 0.19, 232.83, 365.35)" fill="#3ebfb5"/>
      </g>
    </g>
    <g id="Gruppe_2123" data-name="Gruppe 2123" transform="matrix(0.391, -0.921, 0.921, 0.391, 1259.561, 509.4)">
      <g transform="matrix(0.39, 0.92, -0.92, 0.39, -142.12, -1183.08)" filter="url(#Pfad_2647-2)">
        <path id="Pfad_2647-6" data-name="Pfad 2647" d="M0,19.92a70.45,70.45,0,0,1,35.857,5.353c5.632,2.49,14.179,6.271,21.081,15.266,7.377,9.616,8.611,19.661,9.507,26.955a73.575,73.575,0,0,1-3.313,32.085c1.507-1.739,28.72-33.452,33.8-54.811A36.276,36.276,0,0,0,97.495,27.8a35.479,35.479,0,0,0-7.145-14.455A36.775,36.775,0,0,0,76.326,2.9,40.263,40.263,0,0,0,60.025.011a49.776,49.776,0,0,0-19.81,4.922C31.2,8.88,18.478,13.913,0,19.92Z" transform="matrix(0.39, -0.92, 0.92, 0.39, 1224.78, 142.46)" fill="#f06e58"/>
      </g>
      <g transform="matrix(0.39, 0.92, -0.92, 0.39, -142.12, -1183.08)" filter="url(#Pfad_2648-2)">
        <path id="Pfad_2648-6" data-name="Pfad 2648" d="M175.775.017a8.706,8.706,0,0,1-1.588.639c-4.352,1.516-17.532,6.85-25.259,12.532-7.052,5.186-10.279,11.211-15.823,21.456a113.8,113.8,0,0,0-9.534,23.767c-6.108,21.321-12.74,42.49-18.695,63.854-4.428,15.888-4.268,13.656-14.5,47.158C84.85,187.514,77.071,213.474,68,245.513l-28.787-7.176L0,266.582c31.819-83.588,44.794-123.26,50.31-143.624,4.016-14.827,7.92-24.577,15.728-44.076C72.638,62.4,76.284,55.408,82.25,48.2c8.378-10.121,17.3-15.8,25.493-21.015,10.294-6.552,19.142-10.272,32.116-15.727,9.046-3.8,14.879-5.747,18.39-6.847C166.542,2.014,175.709-.215,175.775.017Z" transform="matrix(0.39, -0.92, 0.92, 0.39, 1177.65, 254.83)" fill="#f47d67"/>
      </g>
      <g transform="matrix(0.39, 0.92, -0.92, 0.39, -142.12, -1183.08)" filter="url(#Pfad_2649-3)">
        <path id="Pfad_2649-9" data-name="Pfad 2649" d="M299.668,0a8.73,8.73,0,0,0-.985,1.4c-2.47,3.891-10.673,15.5-17.97,21.729-6.66,5.681-13.263,7.446-24.5,10.5a113.774,113.774,0,0,1-25.316,3.853c-22.152,1.077-44.277,2.7-66.437,3.615-16.479.682-14.27,1.035-49.223,3.347-18.876,1.248-45.927,2.891-79.189,4.4q.2,14.833.41,29.665L0,110.242C88.645,98.357,130.233,94.786,151.318,94.068c15.352-.523,25.736-2.1,46.5-5.244,17.557-2.661,25.194-4.614,33.573-8.775,11.768-5.845,19.331-13.231,26.283-20.019,8.73-8.525,14.373-16.29,22.647-27.675,5.769-7.938,8.993-13.174,10.866-16.34C295.614,8.535,299.877.119,299.668,0Z" transform="matrix(0.39, -0.92, 0.92, 0.39, 1192.03, 351.59)" fill="#f47d67"/>
      </g>
    </g>
    <g id="Gruppe_419-2" data-name="Gruppe 419" transform="matrix(0.391, -0.921, 0.921, 0.391, 641.902, 466.105)">
      <g transform="matrix(0.39, 0.92, -0.92, 0.39, 59.36, -597.6)" filter="url(#Pfad_2647-3)">
        <path id="Pfad_2647-7" data-name="Pfad 2647" d="M0,10.264a36.3,36.3,0,0,1,18.476,2.758,25.673,25.673,0,0,1,10.863,7.866c3.8,4.955,4.437,10.131,4.9,13.889A37.911,37.911,0,0,1,32.53,51.31c.777-.9,14.8-17.237,17.417-28.243a18.692,18.692,0,0,0,.289-8.745,18.282,18.282,0,0,0-3.682-7.448,18.949,18.949,0,0,0-7.226-5.38,20.747,20.747,0,0,0-8.4-1.489A25.648,25.648,0,0,0,20.722,2.542C16.079,4.575,9.521,7.169,0,10.264Z" transform="matrix(0.39, -0.92, 0.92, 0.39, 568.24, 190.77)" fill="#fff"/>
      </g>
      <g transform="matrix(0.39, 0.92, -0.92, 0.39, 59.36, -597.6)" filter="url(#Pfad_2648-3)">
        <path id="Pfad_2648-7" data-name="Pfad 2648" d="M90.573.009a4.486,4.486,0,0,1-.818.329c-2.242.781-9.034,3.53-13.015,6.458-3.634,2.672-5.3,5.777-8.153,11.056A58.636,58.636,0,0,0,63.674,30.1C60.527,41.083,57.109,51.992,54.041,63c-2.282,8.187-2.2,7.036-7.472,24.3-2.848,9.322-6.856,22.7-11.528,39.207l-14.833-3.7L0,137.363C16.4,94.292,23.081,73.85,25.923,63.357c2.069-7.64,4.081-12.664,8.1-22.711,3.4-8.494,5.28-12.1,8.354-15.809,4.317-5.215,8.912-8.14,13.136-10.828,5.3-3.376,9.863-5.293,16.549-8.1,4.661-1.96,7.667-2.961,9.476-3.528A75.585,75.585,0,0,1,90.573.009Z" transform="matrix(0.39, -0.92, 0.92, 0.39, 543.95, 248.67)" fill="#fff"/>
      </g>
      <g transform="matrix(0.39, 0.92, -0.92, 0.39, 59.36, -597.6)" filter="url(#Pfad_2649-4)">
        <path id="Pfad_2649-10" data-name="Pfad 2649" d="M154.411,0a4.5,4.5,0,0,0-.508.721c-1.273,2-5.5,7.989-9.26,11.2-3.432,2.927-6.834,3.837-12.626,5.412a58.625,58.625,0,0,1-13.045,1.985c-11.414.555-22.815,1.39-34.233,1.863-8.491.351-7.353.533-25.363,1.724-9.726.643-23.665,1.49-40.8,2.267q.106,7.643.211,15.286L0,56.805c45.677-6.124,67.106-7.964,77.97-8.334,7.911-.27,13.261-1.081,23.962-2.7,9.047-1.371,12.982-2.377,17.3-4.522,6.064-3.012,9.961-6.818,13.543-10.315,4.5-4.393,7.406-8.394,11.669-14.26,2.973-4.09,4.634-6.788,5.6-8.42A75.606,75.606,0,0,0,154.411,0Z" transform="matrix(0.39, -0.92, 0.92, 0.39, 551.36, 298.53)" fill="#fff"/>
      </g>
    </g>
    <g id="Gruppe_417" data-name="Gruppe 417" transform="translate(-6850.303 -11010.922)">
      <rect id="Rechteck_348-2" data-name="Rechteck 348-2" width="15.263" height="15.164" transform="translate(7887.964 11412.521) rotate(-45)" fill="#9aa9fb"/>
      <rect id="Rechteck_349-2" data-name="Rechteck 349-2" width="15.263" height="15.164" transform="translate(7819.48 11352.056) rotate(-45)" fill="#9cb0fc"/>
      <rect id="Rechteck_350-2" data-name="Rechteck 350-2" width="18.54" height="18.42" transform="translate(7713.73 11375.292) rotate(-45)" fill="#fff"/>
      <rect id="Rechteck_351-2" data-name="Rechteck 351-2" width="18.54" height="18.42" transform="translate(7590.127 11271.915) rotate(-45)" fill="#fff"/>
    </g>
    <g id="Gruppe_417-2" data-name="Gruppe 417" transform="translate(114.999 386.281)">
      <rect id="Rechteck_348-2-2" data-name="Rechteck 348-2" width="15.263" height="15.164" transform="translate(10.793 132.44) rotate(-135)" fill="#ffb8cb"/>
      <rect id="Rechteck_349-2-2" data-name="Rechteck 349-2" width="15.263" height="15.164" transform="translate(24.277 103.974) rotate(-135)" fill="#9cb0fc"/>
      <rect id="Rechteck_350-2-2" data-name="Rechteck 350-2" width="18.54" height="18.42" transform="translate(127.725 129.513) rotate(-135)" fill="#fff"/>
      <rect id="Rechteck_351-2-2" data-name="Rechteck 351-2" width="18.54" height="18.42" transform="translate(251.328 26.135) rotate(-135)" fill="#fff"/>
    </g>
    <g id="Gruppe_416" data-name="Gruppe 416" transform="translate(-5799.984 -10859.016)">
      <rect id="Rechteck_348" data-name="Rechteck 348" width="15.263" height="15.164" transform="translate(7398.491 11580.888) rotate(-45)" fill="#4c4981"/>
      <rect id="Rechteck_349" data-name="Rechteck 349" width="15.263" height="15.164" transform="translate(7385.008 11552.422) rotate(-45)" fill="#9cb0fc"/>
      <rect id="Rechteck_350" data-name="Rechteck 350" width="18.54" height="18.42" transform="translate(7279.259 11575.659) rotate(-45)" fill="#fff"/>
      <rect id="Rechteck_351" data-name="Rechteck 351" width="18.54" height="18.42" transform="translate(7155.654 11472.28) rotate(-45)" fill="#fff"/>
    </g>
    <g id="Gruppe_418" data-name="Gruppe 418" transform="translate(-5893.004 -10361.648)">
      <rect id="Rechteck_352" data-name="Rechteck 352" width="15.062" height="15.16" transform="translate(7070.985 11360.984) rotate(-45)" fill="#4c4981"/>
      <rect id="Rechteck_353" data-name="Rechteck 353" width="15.062" height="15.16" transform="translate(7084.379 11332.71) rotate(-45)" fill="#9cb0fc"/>
    </g>
    <g id="Gruppe_418-2" data-name="Gruppe 418" transform="translate(422.83 742.152) rotate(-60)">
      <rect id="Rechteck_352-2" data-name="Rechteck 352" width="15.062" height="15.16" transform="translate(24.043 49.646) rotate(-135)" fill="#4c4981"/>
      <rect id="Rechteck_353-2" data-name="Rechteck 353" width="15.062" height="15.16" transform="translate(10.649 21.371) rotate(-135)" fill="#9aa9fb"/>
    </g>
    <g id="Gruppe_2124" data-name="Gruppe 2124" transform="translate(1603.931 414.943) rotate(-30)">
      <path id="Pfad_2647-8" data-name="Pfad 2647" d="M0,10.858a38.4,38.4,0,0,1,19.544,2.917c3.07,1.357,7.729,3.418,11.491,8.321,4.021,5.241,4.694,10.716,5.182,14.692a40.1,40.1,0,0,1-1.806,17.488c.822-.948,15.654-18.234,18.424-29.876a19.773,19.773,0,0,0,.306-9.25,19.339,19.339,0,0,0-3.895-7.879A20.045,20.045,0,0,0,41.6,1.58,21.946,21.946,0,0,0,32.718.006a27.131,27.131,0,0,0-10.8,2.683C17.008,4.84,10.072,7.583,0,10.858Z" transform="translate(111.905 0)" fill="#1c1c2d"/>
      <path id="Pfad_2648-8" data-name="Pfad 2648" d="M95.81.009a4.745,4.745,0,0,1-.865.348c-2.372.826-9.556,3.734-13.768,6.831-3.844,2.827-5.6,6.111-8.624,11.695a62.027,62.027,0,0,0-5.2,12.955c-3.329,11.621-6.944,23.16-10.19,34.8-2.414,8.66-2.326,7.443-7.9,25.7-3.012,9.861-7.252,24.011-12.194,41.474L21.376,129.91,0,145.305C17.343,99.744,24.416,78.12,27.422,67.021c2.189-8.082,4.317-13.4,8.573-24.024,3.6-8.986,5.585-12.8,8.837-16.723,4.567-5.517,9.428-8.611,13.9-11.455,5.611-3.571,10.434-5.6,17.506-8.572,4.931-2.073,8.11-3.132,10.024-3.732A79.955,79.955,0,0,1,95.81.009Z" transform="translate(45.484 0.285)" fill="#393758"/>
      <g transform="matrix(0.87, 0.5, -0.5, 0.87, -1170.96, -949.7)" filter="url(#Pfad_2649-5)">
        <path id="Pfad_2649-11" data-name="Pfad 2649" d="M163.339,0a4.758,4.758,0,0,0-.537.763c-1.346,2.121-5.818,8.451-9.8,11.844-3.63,3.1-7.229,4.059-13.356,5.725a62.015,62.015,0,0,1-13.8,2.1c-12.074.587-24.134,1.47-36.213,1.971-8.982.372-7.778.564-26.83,1.824-10.289.68-25.033,1.576-43.163,2.4q.112,8.085.223,16.17L0,60.09c48.318-6.478,70.986-8.425,82.478-8.816,8.368-.285,14.028-1.143,25.348-2.858,9.57-1.45,13.732-2.515,18.3-4.783,6.414-3.186,10.537-7.212,14.326-10.912,4.758-4.647,7.834-8.879,12.344-15.085,3.144-4.327,4.9-7.181,5.923-8.906A79.982,79.982,0,0,0,163.339,0Z" transform="translate(1502.99 261.33) rotate(-30)" fill="#393758"/>
      </g>
    </g>
    <g id="Gruppe_830" data-name="Gruppe 830" transform="translate(526.806 633.51)">
      <path id="Pfad_2650" data-name="Pfad 2650" d="M0,54.814A56.112,56.112,0,0,1,23.169,37.586c4.57-1.779,11.506-4.478,20.462-3.318,9.572,1.24,15.933,6.188,20.554,9.781a58.593,58.593,0,0,1,16.246,19.9C80.3,62.12,77.69,28.942,68.491,14.072a28.892,28.892,0,0,0-9.262-9.853A28.256,28.256,0,0,0,47.056.129,29.288,29.288,0,0,0,33.283,2.176a32.056,32.056,0,0,0-10.79,7.576A39.636,39.636,0,0,0,14.14,23.7C11.3,31,6.993,41.011,0,54.814Z" transform="translate(49.68 0)" fill="url(#linear-gradient)"/>
      <path id="Pfad_2651" data-name="Pfad 2651" d="M25.65,0a6.948,6.948,0,0,1-.532,1.255C23.529,4.564,19.132,15,18,22.553c-1.036,6.894.551,12.1,3.218,20.986a90.635,90.635,0,0,0,8.056,18.735C37.871,77.7,46.091,93.34,54.8,108.706c6.478,11.427,5.309,10.082,18.464,34.683,7.1,13.285,17.384,32.263,30.37,55.382L83.411,210.985l-6.1,38c-29.293-64.926-44.39-94.542-52.783-109.1-6.111-10.6-9.419-18.281-16.036-33.644C2.9,93.26,1,87.275.289,79.858c-1-10.416.8-18.638,2.465-26.2C4.841,44.171,7.714,37.087,11.926,26.7c2.937-7.243,5.118-11.627,6.469-14.226C21.588,6.334,25.482-.092,25.65,0Z" transform="translate(43.39 13.496)" fill="#0654cc"/>
      <path id="Pfad_2652" data-name="Pfad 2652" d="M120.568,0a6.912,6.912,0,0,0,.237,1.342c.807,3.58,2.752,14.736,2.164,22.352-.536,6.951-3.25,11.669-7.841,19.73a90.618,90.618,0,0,1-12.051,16.452C91.237,72.983,79.719,86.381,67.785,99.4c-8.875,9.684-7.434,8.635-25.771,29.66C32.112,140.416,17.839,156.6,0,176.224l16.972,16.438q-1.289,19.2-2.579,38.4c43.1-56.706,64.458-82.182,75.9-94.485,8.332-8.958,13.279-15.7,23.172-29.191,8.364-11.4,11.553-16.81,13.913-23.878,3.314-9.925,3.4-18.344,3.471-26.082.094-9.717-1.117-17.265-2.893-28.332-1.238-7.717-2.381-12.479-3.115-15.315C123.106,7.084,120.753-.052,120.568,0Z" transform="translate(0 19.348)" fill="#0f83e6"/>
    </g>
    <g id="Gruppe_824" data-name="Gruppe 824" transform="matrix(0.998, 0.07, -0.07, 0.998, 520.942, 717.367)">
      <path id="Pfad_3641" data-name="Pfad 3641" d="M77.421,9.664,84.607,37.2C75.722,51.179,54.419,63.221,37.6,63.649c-12.33.314-25.144-4.216-32.172-14.841C2.623,44.572-.632,38.831.106,33.559c.808-5.768,6.939-3.587,10.88-3.221,9.114.846,17.82-6.327,23.173-12.977C39.786,10.367,46.223,2.128,55.643.314c8.123-1.564,16.082,2.911,21.345,8.878C77.117,9.34,77.3,9.511,77.421,9.664Z" transform="matrix(0.966, 0.259, -0.259, 0.966, 16.478, 0)" fill="url(#linear-gradient-2)"/>
      <path id="Pfad_3641-2" data-name="Pfad 3641" d="M7.364,9.639,0,37.123C8.885,51.1,30.316,63.221,47.137,63.649c12.33.314,25.144-4.216,32.172-14.841,2.8-4.236,6.058-9.977,5.319-15.249-.808-5.768-6.939-3.587-10.88-3.221-9.114.846-17.82-6.327-23.173-12.977C44.949,10.367,38.512,2.127,29.092.314,20.969-1.249,13.01,3.226,7.747,9.192,7.617,9.339,7.487,9.486,7.364,9.639Z" transform="matrix(0.966, -0.259, 0.259, 0.966, 78.942, 21.939)" fill="url(#linear-gradient-3)"/>
    </g>
    <g id="Gruppe_2127" data-name="Gruppe 2127" transform="matrix(0.719, -0.695, 0.695, 0.719, 1354.707, 874.006)" style="isolation: isolate">
      <g id="Gruppe_419-3" data-name="Gruppe 419" transform="matrix(0.999, 0.035, -0.035, 0.999, 4.507, 0)">
        <path id="Pfad_2647-9" data-name="Pfad 2647" d="M0,9.63a34.058,34.058,0,0,1,17.335,2.588A24.087,24.087,0,0,1,27.526,19.6c3.567,4.649,4.163,9.5,4.6,13.031a35.569,35.569,0,0,1-1.6,15.511c.729-.841,13.884-16.172,16.341-26.5a17.537,17.537,0,0,0,.271-8.2A17.152,17.152,0,0,0,43.678,6.45,17.778,17.778,0,0,0,36.9,1.4a19.465,19.465,0,0,0-7.88-1.4,24.064,24.064,0,0,0-9.577,2.379C15.085,4.293,8.933,6.726,0,9.63Z" transform="translate(99.253 0)" fill="#fff"/>
        <path id="Pfad_2648-9" data-name="Pfad 2648" d="M84.977.008a4.209,4.209,0,0,1-.768.309C82.106,1.05,75.734,3.628,72,6.376c-3.409,2.507-4.969,5.42-7.649,10.373a55.013,55.013,0,0,0-4.609,11.49C56.787,38.545,53.581,48.78,50.7,59.108c-2.141,7.681-2.063,6.6-7.011,22.8-2.672,8.746-6.432,21.3-10.815,36.785l-13.917-3.469L0,128.876c15.382-40.41,21.655-59.589,24.322-69.433,1.942-7.168,3.829-11.881,7.6-21.308,3.191-7.97,4.954-11.348,7.838-14.832,4.05-4.893,8.362-7.637,12.324-10.159,4.977-3.167,9.254-4.966,15.526-7.6C71.987,3.7,74.807,2.762,76.5,2.23A70.915,70.915,0,0,1,84.977.008Z" transform="translate(40.341 0.253)" fill="#36b2c4"/>
        <path id="Pfad_2649-12" data-name="Pfad 2649" d="M144.871,0a4.22,4.22,0,0,0-.476.676c-1.194,1.881-5.16,7.5-8.688,10.5-3.22,2.747-6.412,3.6-11.846,5.078a55,55,0,0,1-12.239,1.863c-10.709.521-21.405,1.3-32.118,1.748-7.967.33-6.9.5-23.8,1.618-9.125.6-22.2,1.4-38.283,2.127q.1,7.171.2,14.341L0,53.3c42.855-5.746,62.96-7.472,73.153-7.819,7.422-.253,12.442-1.014,22.482-2.535,8.488-1.286,12.18-2.23,16.23-4.242,5.689-2.826,9.345-6.4,12.706-9.678,4.22-4.121,6.948-7.875,10.948-13.379,2.789-3.838,4.348-6.369,5.253-7.9A70.936,70.936,0,0,0,144.871,0Z" transform="translate(0 24.932)" fill="#06a7ba"/>
      </g>
    </g>
    <g id="Gruppe_2124-2" data-name="Gruppe 2124" transform="translate(1080.623 380.941) rotate(-46)">
      <path id="Pfad_2647-10" data-name="Pfad 2647" d="M0,9.141A32.33,32.33,0,0,1,16.455,11.6,22.865,22.865,0,0,1,26.13,18.6c3.386,4.413,3.952,9.022,4.363,12.37A33.764,33.764,0,0,1,28.972,45.7c.692-.8,13.18-15.352,15.512-25.153a16.648,16.648,0,0,0,.258-7.788,16.282,16.282,0,0,0-3.279-6.634,16.876,16.876,0,0,0-6.436-4.792A18.477,18.477,0,0,0,27.546,0a22.843,22.843,0,0,0-9.091,2.259C14.32,4.075,8.48,6.385,0,9.141Z" transform="translate(94.217 0)" fill="#ecc2c0"/>
      <path id="Pfad_2648-10" data-name="Pfad 2648" d="M80.666.008A4,4,0,0,1,79.937.3c-2,.7-8.046,3.144-11.592,5.751-3.236,2.38-4.717,5.145-7.261,9.846a52.222,52.222,0,0,0-4.375,10.907c-2.8,9.784-5.847,19.5-8.579,29.3C46.1,63.4,46.171,62.376,41.475,77.75c-2.536,8.3-6.106,20.216-10.267,34.919L18,109.376,0,122.338C14.6,83.978,20.557,65.772,23.088,56.427c1.843-6.8,3.635-11.279,7.218-20.227,3.029-7.565,4.7-10.773,7.44-14.08,3.845-4.645,7.938-7.25,11.7-9.644,4.724-3.007,8.784-4.714,14.739-7.217,4.151-1.745,6.828-2.637,8.439-3.142A67.317,67.317,0,0,1,80.666.008Z" transform="translate(38.294 0.24)" fill="#ecc2c0"/>
      <g transform="matrix(0.69, 0.72, -0.72, 0.69, -524.77, -835.61)" filter="url(#Pfad_2649-6)">
        <path id="Pfad_2649-13" data-name="Pfad 2649" d="M137.521,0a4,4,0,0,0-.452.642c-1.134,1.786-4.9,7.115-8.247,9.972-3.056,2.607-6.087,3.417-11.245,4.82A52.212,52.212,0,0,1,105.96,17.2c-10.166.494-20.319,1.238-30.489,1.659-7.562.313-6.549.475-22.589,1.536-8.662.573-21.076,1.327-36.341,2.019q.094,6.807.188,13.614L0,50.592c40.68-5.454,59.765-7.093,69.442-7.423,7.045-.24,11.811-.962,21.341-2.407,8.057-1.221,11.562-2.117,15.407-4.027,5.4-2.682,8.871-6.072,12.061-9.187,4.006-3.912,6.6-7.475,10.393-12.7,2.647-3.643,4.127-6.046,4.987-7.5A67.339,67.339,0,0,0,137.521,0Z" transform="translate(982.65 219.42) rotate(-46)" fill="#ecc2c0"/>
      </g>
    </g>
    <g id="Gruppe_419-4" data-name="Gruppe 419" transform="translate(-711.84 531.551)">
      <path id="Pfad_2647-11" data-name="Pfad 2647" d="M889.454,102.413a79.845,79.845,0,0,1,29.789-28.306c6.15-3.293,15.486-8.292,28.328-8.175,13.727.125,23.551,6.04,30.684,10.336a83.391,83.391,0,0,1,26.32,25.376c-.5-2.562-9.817-49.038-25.331-68.5a41.121,41.121,0,0,0-14.753-12.358,40.144,40.144,0,0,0-17.883-3.713,41.6,41.6,0,0,0-19.1,5.237,45.621,45.621,0,0,0-13.948,12.55A56.5,56.5,0,0,0,904.135,56C901.369,66.812,896.983,81.7,889.454,102.413Z" fill="url(#linear-gradient-4)"/>
      <path id="Pfad_2648-11" data-name="Pfad 2648" d="M909.771,40.688a9.914,9.914,0,0,1-.538,1.865c-1.683,4.948-6.117,20.454-6.437,31.329-.293,9.927,2.834,17.019,8.109,29.131a129.139,129.139,0,0,0,14.559,25.125c14.762,20.357,29.028,41.071,43.942,61.322,11.088,15.058,9.209,13.355,31.965,45.906,12.285,17.577,30.027,42.668,52.293,73.153l-26.485,20.714-2.156,54.78c-52.394-86.835-78.743-126.147-93.068-145.3-10.426-13.946-16.405-24.25-28.359-44.848-10.1-17.42-13.8-25.558-16.071-35.923-3.187-14.558-2.032-26.5-.969-37.465,1.335-13.778,4.189-24.286,8.372-39.692,2.917-10.739,5.251-17.313,6.721-21.223C905.114,50.333,909.518,40.585,909.771,40.688Z" fill="#ff92aa"/>
      <path id="Pfad_2649-14" data-name="Pfad 2649" d="M983.524,40.194a9.9,9.9,0,0,0,.561,1.858c1.752,4.927,6.392,20.371,6.855,31.241.424,9.921-2.607,17.055-7.719,29.237A129.14,129.14,0,0,1,969,127.848c-14.491,20.55-28.479,41.456-43.118,61.9-10.887,15.205-9.031,13.477-31.353,46.332-12.055,17.744-29.456,43.065-51.312,73.846l26.758,20.359,2.885,54.744c51.231-87.526,77.055-127.188,91.122-146.535,10.241-14.084,16.08-24.467,27.76-45.224,9.871-17.548,13.458-25.74,15.589-36.136,2.994-14.6,1.678-26.52.469-37.475-1.519-13.757-4.51-24.226-8.9-39.575-3.06-10.7-5.483-17.241-7-21.126C988.312,49.779,983.774,40.091,983.524,40.194Z" fill="#ffb8cb"/>
    </g>
    <g id="Gruppe_419-5" data-name="Gruppe 419" transform="translate(728.26 611.758)">
      <path id="Pfad_2647-12" data-name="Pfad 2647" d="M943,83.385a77.649,77.649,0,0,1,35.749-17.849c6.658-1.315,16.764-3.31,28.684.443,12.743,4.015,20.209,12.3,25.632,18.315a81.1,81.1,0,0,1,17.3,31.054c.26-2.524,4.761-48.36-4.162-70.849a39.983,39.983,0,0,0-10.228-15.67,39.1,39.1,0,0,0-15.6-8.535,40.54,40.54,0,0,0-19.258-.547,44.382,44.382,0,0,0-16.542,7.7A54.869,54.869,0,0,0,969.813,44.42C964.177,53.683,955.874,66.275,943,83.385Z" fill="#03269a"/>
      <path id="Pfad_2648-12" data-name="Pfad 2648" d="M979.4,31.788a9.6,9.6,0,0,1-1.031,1.578c-2.973,4.123-11.491,17.273-14.87,27.289-3.085,9.142-2.186,16.621-.709,29.374a125.462,125.462,0,0,0,6.432,27.485c7.977,23.11,15.38,46.409,23.521,69.457,6.053,17.141,4.788,15.022,16.741,51.735,6.456,19.825,15.857,48.176,27.94,82.827L1006.9,333.267l-17.53,50.3c-24.156-95.57-37.54-139.585-45.446-161.456-5.754-15.923-8.4-27.192-13.686-49.73-4.47-19.054-5.6-27.668-4.775-37.946,1.161-14.433,5.618-25.2,9.718-35.091,5.148-12.426,10.78-21.38,19.039-34.51,5.759-9.155,9.8-14.6,12.267-17.812C972.331,39.432,979.2,31.621,979.4,31.788Z" fill="#03269a"/>
      <g id="Gruppe_3034" data-name="Gruppe 3034">
        <path id="Pfad_2649-2-2" data-name="Pfad 2649-2" d="M1048.224,52.319a9.617,9.617,0,0,0,0,1.881c.231,5.061.174,20.689-2.465,30.893-2.411,9.316-7.24,15.07-15.427,24.911a125.07,125.07,0,0,1-20.358,19.439c-19.26,14.945-38.153,30.361-57.52,45.166-14.4,11.01-12.192,9.935-42.2,34.065-16.2,13.031-39.516,31.576-68.5,53.917l19.083,26.444-12.8,51.563c72.293-66.622,107.475-96.07,126-110.018,13.489-10.156,21.843-18.123,38.551-34.057,14.125-13.47,19.767-20.046,24.685-29.08,6.9-12.684,9.051-24.1,11.028-34.6,2.477-13.185,2.661-23.73,2.925-39.2.185-10.784-.216-17.531-.527-21.563C1049.959,62.559,1048.488,52.294,1048.224,52.319Z" fill="#002bb9"/>
      </g>
    </g>
    <g id="Gruppe_419-6" data-name="Gruppe 419" transform="translate(-461.239 766.117)">
      <path id="Pfad_2647-13" data-name="Pfad 2647" d="M945.16,155.525a30.543,30.543,0,0,1,13.807-7.5,21.6,21.6,0,0,1,11.278-.214c5.063,1.4,8.108,4.558,10.32,6.849a31.9,31.9,0,0,1,7.218,11.966c.071-.992,1.214-19.062-2.594-27.783a15.72,15.72,0,0,0-4.232-6.02,15.392,15.392,0,0,0-6.246-3.137,15.923,15.923,0,0,0-7.576.044,17.439,17.439,0,0,0-6.4,3.246,21.574,21.574,0,0,0-5.573,6.87C953.081,143.567,949.989,148.628,945.16,155.525Z" fill="#087b4f"/>
      <path id="Pfad_2648-13" data-name="Pfad 2648" d="M958.767,134.757a3.83,3.83,0,0,1-.383.635,50.754,50.754,0,0,0-5.474,10.925c-1.088,3.634-.633,6.562.121,11.554a49.266,49.266,0,0,0,2.9,10.712c3.446,8.972,6.672,18.028,10.184,26.975,2.608,6.652,2.08,5.836,7.277,20.1,2.8,7.706,6.883,18.716,12.1,32.169l-11.83,5.022-6.21,20.006c-10.789-37.229-16.644-54.343-20.047-62.827-2.477-6.178-3.669-10.571-6.051-19.356-2.016-7.427-2.577-10.8-2.393-14.85.26-5.688,1.869-9.981,3.342-13.922,1.855-4.952,3.95-8.55,7.014-13.819,2.139-3.675,3.651-5.869,4.579-7.165A63.521,63.521,0,0,1,958.767,134.757Z" fill="#3f9d7f"/>
      <g id="Gruppe_3035" data-name="Gruppe 3035">
        <path id="Pfad_2649-2-3" data-name="Pfad 2649-2" d="M986.187,141.515a3.748,3.748,0,0,0,.026.741,50.766,50.766,0,0,1-.526,12.208c-.815,3.705-2.635,6.043-5.718,10.039a49.309,49.309,0,0,1-7.739,7.954c-7.372,6.167-14.592,12.514-22.008,18.628-5.513,4.55-4.66,4.091-16.132,14.032-6.2,5.369-15.109,13.012-26.208,22.236l7.9,10.142-4.295,20.5c27.519-27.3,40.951-39.409,48.049-45.171,5.168-4.2,8.344-7.457,14.7-13.977,5.369-5.511,7.5-8.185,9.3-11.812,2.538-5.1,3.218-9.628,3.845-13.791.786-5.229.7-9.388.585-15.486-.083-4.252-.337-6.906-.52-8.488A63.488,63.488,0,0,0,986.187,141.515Z" fill="#409e80"/>
      </g>
    </g>
    <g id="Gruppe_419-7" data-name="Gruppe 419" transform="translate(17.884 506.611)">
      <g id="Gruppe_3036" data-name="Gruppe 3036">
        <path id="Pfad_2647-2-2" data-name="Pfad 2647-2" d="M854.742,47.154C862.271,35.1,876.8,16.011,901.474,2.817,911.12-2.345,925.769-10.17,945.916-9.99,967.453-9.8,982.861-.529,994.053,6.2a130.726,130.726,0,0,1,41.291,39.748c-.785-4.013-15.4-76.812-39.74-107.3-3.726-4.666-10.721-13.429-23.148-19.36A63.032,63.032,0,0,0,944.4-86.524a65.339,65.339,0,0,0-29.961,8.2,71.543,71.543,0,0,0-21.884,19.661c-9.839,13.17-12.973,26.033-14.791,33.121C873.435-8.609,866.554,14.714,854.742,47.154Z" fill="#8695eb"/>
      </g>
      <g id="Gruppe_3037" data-name="Gruppe 3037">
        <path id="Pfad_2648-2-2" data-name="Pfad 2648-2" d="M887.549-49.967a15.476,15.476,0,0,1-.845,2.924c-2.64,7.751-9.6,32.039-10.1,49.074-.458,15.548,4.445,26.658,12.724,45.633A202.165,202.165,0,0,0,912.17,87.019c23.162,31.882,45.54,64.333,68.93,96.049,17.4,23.585,14.447,20.917,50.147,71.906,19.277,27.536,47.108,66.835,82.035,114.587l-41.547,32.446-3.38,85.8c-82.193-136.015-123.531-197.594-146-227.6-16.361-21.848-25.738-37.982-44.493-70.247-15.854-27.28-21.649-40.032-25.209-56.27-5-22.8-3.186-41.5-1.52-58.686,2.093-21.581,6.568-38.037,13.132-62.167C868.837-3.986,872.5-14.279,874.8-20.4,880.24-34.855,887.153-50.127,887.549-49.967Z" fill="#9eadff"/>
      </g>
      <g id="Gruppe_3038" data-name="Gruppe 3038">
        <path id="Pfad_2649-2-4" data-name="Pfad 2649-2" d="M1003.707-51.434a15.553,15.553,0,0,0,.881,2.91c2.744,7.716,10.026,31.908,10.752,48.935.665,15.541-4.09,26.716-12.112,45.8a202.2,202.2,0,0,1-22.314,39.66c-22.732,32.191-44.68,64.938-67.642,96.961-17.081,23.814-14.168,21.109-49.178,72.572-18.907,27.79-46.21,67.455-80.5,115.671l41.977,31.89,4.528,85.754c80.369-137.1,120.881-199.226,142.95-229.528,16.068-22.065,25.228-38.324,43.549-70.839,15.488-27.49,21.111-40.318,24.454-56.6,4.693-22.872,2.633-41.541.739-58.7-2.382-21.55-7.076-37.946-13.959-61.988-4.8-16.763-8.6-27.006-10.983-33.092C1011.218-36.418,1004.1-51.6,1003.707-51.434Z" fill="#9eadff"/>
      </g>
    </g>
  </g>
</svg>
