<svg xmlns="http://www.w3.org/2000/svg" xmlns:xlink="http://www.w3.org/1999/xlink" width="1089.645" height="522.049" viewBox="0 0 1089.645 522.049">
  <defs>
    <clipPath id="clip-path">
      <path id="Pfad_7158" data-name="Pfad 7158" d="M0,0H359.109V247.386a21.281,21.281,0,0,1-21.281,21.281H21.281A21.281,21.281,0,0,1,0,247.386Z" transform="translate(0 0)" fill="#c6d0fe"/>
    </clipPath>
    <clipPath id="clip-path-2">
      <path id="Pfad_7157" data-name="Pfad 7157" d="M21.281,0H336.5a21.281,21.281,0,0,1,21.281,21.281V247.386A21.281,21.281,0,0,1,336.5,268.667H21.281A21.281,21.281,0,0,1,0,247.386V21.281A21.281,21.281,0,0,1,21.281,0Z" transform="translate(0 0)" fill="#dde3ff"/>
    </clipPath>
    <clipPath id="clip-path-3">
      <path id="Pfad_5371" data-name="Pfad 5371" d="M5.286,37.93,65.7,3.052a6.1,6.1,0,0,1,8.338,2.234L97.576,46.063A6.1,6.1,0,0,1,95.342,54.4L34.932,89.278a6.1,6.1,0,0,1-8.338-2.234L3.052,46.267A6.1,6.1,0,0,1,5.286,37.93Z" fill="#fff2c3"/>
    </clipPath>
    <clipPath id="clip-path-4">
      <path id="Pfad_5371-2" data-name="Pfad 5371" d="M33.381,2.791l71.642,31.9a6.856,6.856,0,0,1,3.478,9.06L86.97,92.106a6.856,6.856,0,0,1-9.06,3.478L6.269,63.687a6.856,6.856,0,0,1-3.478-9.06L24.322,6.269a6.856,6.856,0,0,1,9.06-3.478Z" fill="#c6d0fe"/>
    </clipPath>
  </defs>
  <g id="Gruppe_3572" data-name="Gruppe 3572" transform="translate(-427 -242.939)">
    <path id="Vereinigungsmenge_3" data-name="Vereinigungsmenge 3" d="M14.046,32.546V22.954H4.454a4.454,4.454,0,0,1,0-8.907h9.593V4.454a4.454,4.454,0,0,1,8.907,0v9.593h9.593a4.454,4.454,0,0,1,0,8.907H22.954v9.593a4.454,4.454,0,0,1-8.907,0Z" transform="translate(521 669)" fill="#c6d0fe"/>
    <path id="Vereinigungsmenge_5" data-name="Vereinigungsmenge 5" d="M14.046,32.546V22.954H4.454a4.454,4.454,0,0,1,0-8.907h9.593V4.454a4.454,4.454,0,0,1,8.907,0v9.593h9.593a4.454,4.454,0,0,1,0,8.907H22.954v9.593a4.454,4.454,0,0,1-8.907,0Z" transform="translate(1435 370)" fill="#c6d0fe"/>
    <path id="Vereinigungsmenge_4" data-name="Vereinigungsmenge 4" d="M14.046,32.546V22.954H4.454a4.454,4.454,0,0,1,0-8.907h9.593V4.454a4.454,4.454,0,0,1,8.907,0v9.593h9.593a4.454,4.454,0,0,1,0,8.907H22.954v9.593a4.454,4.454,0,0,1-8.907,0Z" transform="translate(427 352)" fill="#c6d0fe"/>
    <g id="Gruppe_3571" data-name="Gruppe 3571">
      <path id="blob" d="M112.64,43.9C49.423,78.384-33.43,121.486-57.375,189.013-81.321,256.062-45.881,347.056,17.335,382.5c63.217,34.961,154.211,13.889,246.641,15.325,91.952.958,185.819,24.425,241.852-10.536s74.711-128.828,65.133-212.639c-9.1-84.289-46.455-159-102.967-193.482-56.033-34-130.744-27.777-189.651-11.973C218.959-15,175.856,9.9,112.64,43.9Z" transform="translate(696.491 358.576)" fill="#fff5d6"/>
      <path id="Pfad_2625" data-name="Pfad 2625" d="M169.049,9.932C157.4-8.751,110.118-.305,63.436,28.8S0,115.318,0,115.318s58.932,10.237,105.613-18.865S180.7,28.615,169.049,9.932Z" transform="translate(724.162 469.443) rotate(60)" fill="#377e62"/>
      <path id="Pfad_2625-2" data-name="Pfad 2625" d="M169.048,9.932C157.4-8.751,110.118-.305,63.435,28.8S0,115.318,0,115.318s58.932,10.237,105.613-18.864S180.695,28.615,169.048,9.932Z" transform="translate(677.961 531.579) rotate(34)" fill="#69b497"/>
      <path id="Pfad_2625-3" data-name="Pfad 2625" d="M135.383,7.954C126.056-7.008,88.189-.245,50.8,23.062S0,92.353,0,92.353s47.2,8.2,84.58-15.108S144.71,22.916,135.383,7.954Z" transform="translate(1250.754 584.239) rotate(167)" fill="#69b497"/>
      <path id="Pfad_2625-4" data-name="Pfad 2625" d="M108.317,6.364C100.855-5.607,70.558-.2,40.646,18.452S0,73.89,0,73.89,37.76,80.449,67.671,61.8,115.78,18.335,108.317,6.364Z" transform="matrix(-0.719, -0.695, 0.695, -0.719, 1186.741, 696.5)" fill="#c1e0d5"/>
      <g id="Gruppe_3570" data-name="Gruppe 3570" transform="translate(9290.445 9167.347)">
        <path id="Vereinigungsmenge_2" data-name="Vereinigungsmenge 2" d="M.3,342.934,0,128.857H.044a20.676,20.676,0,0,1,9.326-17.249L167.525,3.7a21.281,21.281,0,0,1,23.988,0L349.668,111.608a20.68,20.68,0,0,1,9.32,17.847l-.247,213.479Z" transform="translate(-8510 -8924.407)" fill="#9eadff"/>
        <g id="Gruppe_3569" data-name="Gruppe 3569" transform="translate(-8486.476 -8912.718)">
          <path id="Pfad_7147" data-name="Pfad 7147" d="M61.931-.167l246.637.111V369.029H0V62.591Z" transform="translate(2.162 2.252)" fill="#5d5cb0"/>
          <path id="Pfad_7156" data-name="Pfad 7156" d="M43.483,1.187a3.99,3.99,0,0,1,5.679,0L91.486,44.054a3.99,3.99,0,0,1-2.839,6.793H4a3.99,3.99,0,0,1-2.839-6.793Z" transform="translate(101.464 35.954) rotate(135)" fill="#c6d0fe"/>
        </g>
        <g id="Gruppe_maskieren_12" data-name="Gruppe maskieren 12" transform="translate(-8510 -8754.014)" clip-path="url(#clip-path)">
          <g id="Gruppe_3568" data-name="Gruppe 3568" transform="translate(0 1.878)">
            <g id="Gruppe_3567" data-name="Gruppe 3567" transform="translate(0)">
              <path id="Pfad_7154" data-name="Pfad 7154" d="M152.521,0,305.041,209.562H0Z" transform="translate(209.562) rotate(90)" fill="#c6d0fe"/>
              <path id="Pfad_7153" data-name="Pfad 7153" d="M152.521,0,305.041,209.562H0Z" transform="translate(149.547 305.042) rotate(-90)" fill="#c6d0fe"/>
            </g>
          </g>
        </g>
        <g id="Gruppe_maskieren_11" data-name="Gruppe maskieren 11" transform="translate(-8510 -8754.014)" clip-path="url(#clip-path-2)">
          <path id="Pfad_7152" data-name="Pfad 7152" d="M243.2,11.415a21.281,21.281,0,0,1,24.845,0L435.079,131.508c16.782,12.066,8.246,38.559-12.423,38.559H88.585c-20.669,0-29.2-26.493-12.423-38.559Z" transform="translate(-76.399 114.56)" fill="#dde3ff"/>
        </g>
        <path id="Pfad_1037" data-name="Pfad 1037" d="M804.457,279.785l40.576,40.573,81.147-81.149" transform="translate(-9186.572 -9047.436)" fill="none" stroke="#c6d0fe" stroke-linecap="round" stroke-linejoin="round" stroke-miterlimit="10" stroke-width="22" style="isolation: isolate"/>
      </g>
    </g>
    <path id="Rechteck_349-2" data-name="Rechteck 349-2" d="M4,0H20.021a4,4,0,0,1,4,4V19.865a4,4,0,0,1-4,4H4a4,4,0,0,1-4-4V4A4,4,0,0,1,4,0Z" transform="translate(1482.785 612.551) rotate(-45)" fill="#9cb0fc"/>
    <path id="Rechteck_350-2" data-name="Rechteck 350-2" d="M3,0H26.178a3,3,0,0,1,3,3V25.989a3,3,0,0,1-3,3H3a3,3,0,0,1-3-3V3A3,3,0,0,1,3,0Z" transform="translate(1338.682 696.566) rotate(-45)" fill="#fec2cc"/>
    <path id="Rechteck_350-2-2" data-name="Rechteck 350-2" d="M1.958,0H17.082a1.958,1.958,0,0,1,1.958,1.958v15a1.958,1.958,0,0,1-1.958,1.958H1.958A1.958,1.958,0,0,1,0,16.959v-15A1.958,1.958,0,0,1,1.958,0Z" transform="translate(1271.478 313.244) rotate(-45)" fill="#fec2cc"/>
    <path id="Rechteck_350-2-3" data-name="Rechteck 350-2" d="M2.044,0H17.833a2.044,2.044,0,0,1,2.044,2.044V17.7a2.044,2.044,0,0,1-2.044,2.044H2.044A2.044,2.044,0,0,1,0,17.7V2.044A2.044,2.044,0,0,1,2.044,0Z" transform="translate(486.404 546.602) rotate(-45)" fill="#fec2cc"/>
    <path id="Rechteck_350-2-4" data-name="Rechteck 350-2" d="M2.044,0H17.833a2.044,2.044,0,0,1,2.044,2.044V17.7a2.044,2.044,0,0,1-2.044,2.044H2.044A2.044,2.044,0,0,1,0,17.7V2.044A2.044,2.044,0,0,1,2.044,0Z" transform="translate(564.105 420.602) rotate(-45)" fill="#5d5cb0"/>
    <g id="Gruppe_3565" data-name="Gruppe 3565" transform="translate(592.123 253.332)">
      <path id="Pfad_5366" data-name="Pfad 5366" d="M6.041,37.494l58.9-34.006a6.97,6.97,0,0,1,9.529,2.553L97.14,45.307a6.97,6.97,0,0,1-2.553,9.529l-58.9,34.006a6.97,6.97,0,0,1-9.529-2.553L3.488,47.022a6.97,6.97,0,0,1,2.553-9.529Z" fill="#fec2cc"/>
      <path id="Pfad_1110" data-name="Pfad 1110" d="M51.118,57.333a3.514,3.514,0,0,1-.652,1.2,3.84,3.84,0,0,1-2.311,1.334,3.514,3.514,0,0,1-1.369-.038L2.239,44.342c-.128-.749-.271-1.4-.373-1.981a6.138,6.138,0,0,1-.122-1.553,2.411,2.411,0,0,1,.475-1.28,4.543,4.543,0,0,1,1.417-1.163L69.64,3.72a3.239,3.239,0,0,1,1.576-.527,1.17,1.17,0,0,1,.863.344,1.571,1.571,0,0,1,.363.633,1.784,1.784,0,0,1,.074.34Z" transform="translate(0.703 1.222)" fill="#fc6681" opacity="0.2"/>
      <path id="Pfad_5369" data-name="Pfad 5369" d="M1.51,13.951,24.164.872a1.744,1.744,0,1,1,1.744,3.02L3.254,16.972A1.744,1.744,0,1,1,1.51,13.951Z" transform="translate(29.381 66.585)" fill="#ffd0d8" opacity="0.999"/>
      <path id="Pfad_5370" data-name="Pfad 5370" d="M1.51,6.976,12.082.872a1.744,1.744,0,1,1,1.744,3.021L3.254,10A1.744,1.744,0,1,1,1.51,6.976Z" transform="translate(78.464 45.222)" fill="#fc6681" opacity="0.4"/>
      <path id="Pfad_5368" data-name="Pfad 5368" d="M1.51,6.976,12.082.872a1.744,1.744,0,1,1,1.744,3.021L3.254,10A1.744,1.744,0,1,1,1.51,6.976Z" transform="translate(26.329 68.274)" fill="#fc6681"/>
      <g id="Gruppe_maskieren_8" data-name="Gruppe maskieren 8" clip-path="url(#clip-path-3)">
        <path id="Pfad_5367" data-name="Pfad 5367" d="M55.558,50.606a3.486,3.486,0,0,1-3.721,2.148l-47.554-6.7A3.432,3.432,0,0,1,2.3,45.081a3.572,3.572,0,0,1-.749-3.854A3.432,3.432,0,0,1,3.026,39.58L68.555,1.747a3.432,3.432,0,0,1,2.164-.456,3.572,3.572,0,0,1,2.964,2.576,3.432,3.432,0,0,1-.15,2.207Z" transform="translate(-0.3 -0.173)" fill="#fc6681"/>
      </g>
    </g>
    <g id="Gruppe_2888" data-name="Gruppe 2888" transform="translate(1324.165 455.653)">
      <path id="Pfad_5366-2" data-name="Pfad 5366" d="M34.277,3.19l69.851,31.1A7.836,7.836,0,0,1,108.1,44.643L87.369,91.211a7.836,7.836,0,0,1-10.354,3.974L7.164,64.086A7.836,7.836,0,0,1,3.19,53.732L23.923,7.164A7.836,7.836,0,0,1,34.277,3.19Z" fill="#c6d0fe"/>
      <path id="Pfad_1110-2" data-name="Pfad 1110" d="M37.242,57.64a3.951,3.951,0,0,1-1.526.2,4.317,4.317,0,0,1-2.74-1.22,3.951,3.951,0,0,1-.87-1.27L16.758,4.6c.6-.611,1.094-1.172,1.555-1.648a6.9,6.9,0,0,1,1.332-1.137A2.711,2.711,0,0,1,21.122,1.4a5.107,5.107,0,0,1,1.994.52L98.245,39.059a3.641,3.641,0,0,1,1.521,1.085,1.316,1.316,0,0,1,.258,1.012,1.766,1.766,0,0,1-.336.748,2.006,2.006,0,0,1-.261.292Z" transform="translate(8.131 1.106)" fill="#5d5cb0" opacity="0.2"/>
      <path id="Pfad_5369-2" data-name="Pfad 5369" d="M3.386.8,30.252,12.759a1.961,1.961,0,1,1-1.595,3.582L1.791,4.38A1.961,1.961,0,1,1,3.386.8Z" transform="translate(8.164 53.437)" fill="#fff" opacity="0.4"/>
      <path id="Pfad_5370-2" data-name="Pfad 5370" d="M3.386.8,15.923,6.379a1.961,1.961,0,1,1-1.595,3.582L1.791,4.38A1.961,1.961,0,1,1,3.386.8Z" transform="translate(66.373 79.354)" fill="#fff" opacity="0.4"/>
      <path id="Pfad_5368-2" data-name="Pfad 5368" d="M3.386.8,15.923,6.379a1.961,1.961,0,1,1-1.595,3.582L1.791,4.38A1.961,1.961,0,1,1,3.386.8Z" transform="translate(10.955 47.169)" fill="#fff"/>
      <g id="Gruppe_maskieren_8-2" data-name="Gruppe maskieren 8" clip-path="url(#clip-path-4)">
        <path id="Pfad_5367-2" data-name="Pfad 5367" d="M44.99,56.663A3.919,3.919,0,0,1,40.578,54.7L15.247,7.02a3.858,3.858,0,0,1-.427-2.45,4.016,4.016,0,0,1,3.011-3.228A3.858,3.858,0,0,1,20.3,1.6L98.017,36.2a3.858,3.858,0,0,1,1.845,1.667,4.016,4.016,0,0,1-.384,4.4,3.858,3.858,0,0,1-2.106,1.322Z" transform="translate(10.042 -0.158)" fill="#9eadff"/>
      </g>
    </g>
  </g>
</svg>
