<svg xmlns="http://www.w3.org/2000/svg" width="786.008" height="683.745" viewBox="0 0 786.008 683.745">
  <g id="Gruppe_2859" data-name="Gruppe 2859" transform="translate(-58.077 -196)">
    <g id="Gruppe_1970" data-name="Gruppe 1970" transform="translate(221.323 293.377)">
      <g id="Gruppe_1883" data-name="Gruppe 1883" transform="translate(331.087 155.822)">
        <path id="Pfad_5398" data-name="Pfad 5398" d="M17.02,2.747A10.346,10.346,0,0,1,20.956,5a12.411,12.411,0,0,1,2.781,3.733,14.4,14.4,0,0,1,1.369,4.7,15.117,15.117,0,0,1-.3,5.16,14.086,14.086,0,0,1-1.987,4.64,12.028,12.028,0,0,1-3.233,3.288,10.172,10.172,0,0,1-4.034,1.637,9.46,9.46,0,0,1-4.391-.308,10.369,10.369,0,0,1-3.921-2.279,12.44,12.44,0,0,1-2.756-3.738A14.417,14.417,0,0,1,3.138,17.15a15.118,15.118,0,0,1,.3-5.13A14.091,14.091,0,0,1,5.412,7.4,12.046,12.046,0,0,1,8.62,4.121a10.189,10.189,0,0,1,4.013-1.653A9.459,9.459,0,0,1,17.02,2.747Z" transform="translate(-0.309 0.274)" fill="#6c63ff"/>
        <path id="Pfad_3884" data-name="Pfad 3884" d="M3.774,10.3a1.03,1.03,0,0,1-.175-.072,1.094,1.094,0,0,1-.161-.1A1.176,1.176,0,0,1,3.293,10a1.271,1.271,0,0,1-.125-.159l-.009-.014L1.178,6.791a1.438,1.438,0,0,1-.2-.481,1.58,1.58,0,0,1-.025-.518A1.536,1.536,0,0,1,1.1,5.3a1.333,1.333,0,0,1,.3-.407,1.109,1.109,0,0,1,.413-.239,1,1,0,0,1,.442-.035,1.033,1.033,0,0,1,.419.162,1.207,1.207,0,0,1,.344.351L4.3,7.094l5.22-4.709a1.113,1.113,0,0,1,.414-.24,1,1,0,0,1,.444-.035,1.039,1.039,0,0,1,.421.162,1.211,1.211,0,0,1,.346.351l-.033.031.033-.03a1.441,1.441,0,0,1,.2.482,1.582,1.582,0,0,1,.025.519,1.537,1.537,0,0,1-.143.494,1.337,1.337,0,0,1-.3.408L4.78,10.065a1.152,1.152,0,0,1-.23.161,1.05,1.05,0,0,1-.251.095.991.991,0,0,1-.526-.019Z" transform="translate(7.833 9.733)" fill="#fff"/>
      </g>
      <g id="Gruppe_1884" data-name="Gruppe 1884" transform="translate(315.563 202.527)">
        <path id="Pfad_5399" data-name="Pfad 5399" d="M17.02,2.747A10.346,10.346,0,0,1,20.956,5a12.411,12.411,0,0,1,2.781,3.733,14.4,14.4,0,0,1,1.369,4.7,15.117,15.117,0,0,1-.3,5.16,14.086,14.086,0,0,1-1.987,4.64,12.028,12.028,0,0,1-3.233,3.288,10.172,10.172,0,0,1-4.034,1.637,9.46,9.46,0,0,1-4.391-.308,10.369,10.369,0,0,1-3.921-2.279,12.44,12.44,0,0,1-2.756-3.738A14.417,14.417,0,0,1,3.138,17.15a15.118,15.118,0,0,1,.3-5.13A14.091,14.091,0,0,1,5.412,7.4,12.046,12.046,0,0,1,8.62,4.121a10.189,10.189,0,0,1,4.013-1.653A9.459,9.459,0,0,1,17.02,2.747Z" transform="translate(-0.309 0.275)" fill="#6c63ff"/>
        <path id="Pfad_3885" data-name="Pfad 3885" d="M3.774,10.3a1.031,1.031,0,0,1-.175-.072,1.094,1.094,0,0,1-.161-.1A1.177,1.177,0,0,1,3.293,10a1.271,1.271,0,0,1-.125-.159l-.009-.014L1.178,6.791a1.439,1.439,0,0,1-.2-.481,1.581,1.581,0,0,1-.025-.518A1.536,1.536,0,0,1,1.1,5.3a1.333,1.333,0,0,1,.3-.407,1.108,1.108,0,0,1,.413-.239,1,1,0,0,1,.442-.035,1.033,1.033,0,0,1,.419.162,1.207,1.207,0,0,1,.344.351L4.3,7.094l5.22-4.709a1.113,1.113,0,0,1,.414-.24,1,1,0,0,1,.444-.035,1.039,1.039,0,0,1,.421.162,1.211,1.211,0,0,1,.346.351l-.033.031.033-.03a1.441,1.441,0,0,1,.2.482,1.582,1.582,0,0,1,.025.519,1.537,1.537,0,0,1-.143.494,1.337,1.337,0,0,1-.3.408L4.78,10.065a1.152,1.152,0,0,1-.23.161,1.05,1.05,0,0,1-.251.095.991.991,0,0,1-.526-.019Z" transform="translate(7.832 9.734)" fill="#fff"/>
      </g>
      <g id="Gruppe_1638" data-name="Gruppe 1638" transform="translate(297.609 243.84)">
        <path id="Pfad_5400" data-name="Pfad 5400" d="M17.02,2.747A10.346,10.346,0,0,1,20.956,5a12.411,12.411,0,0,1,2.781,3.733,14.4,14.4,0,0,1,1.369,4.7,15.117,15.117,0,0,1-.3,5.16,14.086,14.086,0,0,1-1.987,4.64,12.028,12.028,0,0,1-3.233,3.288,10.172,10.172,0,0,1-4.034,1.637,9.46,9.46,0,0,1-4.391-.308,10.369,10.369,0,0,1-3.921-2.279,12.44,12.44,0,0,1-2.756-3.738A14.417,14.417,0,0,1,3.138,17.15a15.118,15.118,0,0,1,.3-5.13A14.091,14.091,0,0,1,5.412,7.4,12.046,12.046,0,0,1,8.62,4.121a10.189,10.189,0,0,1,4.013-1.653A9.459,9.459,0,0,1,17.02,2.747Z" transform="translate(-0.309 0.275)" fill="#6c63ff"/>
        <path id="Pfad_3886" data-name="Pfad 3886" d="M3.774,10.3a1.03,1.03,0,0,1-.175-.072,1.094,1.094,0,0,1-.161-.1A1.177,1.177,0,0,1,3.293,10a1.271,1.271,0,0,1-.125-.159l-.009-.014L1.178,6.791a1.438,1.438,0,0,1-.2-.481,1.58,1.58,0,0,1-.025-.518A1.536,1.536,0,0,1,1.1,5.3a1.333,1.333,0,0,1,.3-.407,1.108,1.108,0,0,1,.413-.239,1,1,0,0,1,.442-.035,1.033,1.033,0,0,1,.419.162,1.207,1.207,0,0,1,.344.351L4.3,7.094l5.22-4.709a1.114,1.114,0,0,1,.414-.24,1,1,0,0,1,.444-.035,1.039,1.039,0,0,1,.421.162,1.211,1.211,0,0,1,.346.351l-.033.031.033-.03a1.441,1.441,0,0,1,.2.482,1.582,1.582,0,0,1,.025.519,1.538,1.538,0,0,1-.143.494,1.337,1.337,0,0,1-.3.408L4.78,10.065a1.152,1.152,0,0,1-.23.161,1.05,1.05,0,0,1-.251.095.991.991,0,0,1-.526-.019Z" transform="translate(7.832 9.732)" fill="#fff"/>
      </g>
      <path id="Pfad_5401" data-name="Pfad 5401" d="M17.02,2.747A10.346,10.346,0,0,1,20.956,5a12.411,12.411,0,0,1,2.781,3.733,14.4,14.4,0,0,1,1.369,4.7,15.117,15.117,0,0,1-.3,5.16,14.086,14.086,0,0,1-1.987,4.64,12.028,12.028,0,0,1-3.233,3.288,10.172,10.172,0,0,1-4.034,1.637,9.46,9.46,0,0,1-4.391-.308,10.369,10.369,0,0,1-3.921-2.279,12.44,12.44,0,0,1-2.756-3.738A14.417,14.417,0,0,1,3.138,17.15a15.118,15.118,0,0,1,.3-5.13A14.091,14.091,0,0,1,5.412,7.4,12.046,12.046,0,0,1,8.62,4.121a10.189,10.189,0,0,1,4.013-1.653A9.459,9.459,0,0,1,17.02,2.747Z" transform="translate(275.861 291.571)" fill="#ccc"/>
      <path id="Pfad_793" data-name="Pfad 793" d="M294.229,498.829s-7.484-6.161-15.229-2.355c0,0,2.165,5.29,11.815,5.224Z" transform="translate(171.178 -201.574)" fill="#6c63ff"/>
      <path id="Pfad_868" data-name="Pfad 868" d="M215.09,679.278l72.4,32.181,105.823,46.99c3.991-8.516,9.881-20.166,17.17-34,25.059-47.72,66.531-121.94,103.441-187.164,41.6-73.491,77.4-135.547,77.4-135.547l-25.918-8.632L353.7,322.57Z" transform="translate(-79.79 -172.081)" opacity="0.07"/>
      <path id="Pfad_869" data-name="Pfad 869" d="M217.09,672.278l72.4,32.181,105.823,46.99c3.991-8.516,9.881-20.166,17.17-34,25.059-47.72,66.531-121.94,103.441-187.164,41.6-73.491,77.4-135.547,77.4-135.547l-25.918-8.632L355.7,315.57Z" transform="translate(-83.234 -170.886)" fill="#fafafa"/>
      <path id="Pfad_870" data-name="Pfad 870" d="M253,672.278l72.4,32.181a476.332,476.332,0,0,0,122.993,12.993c25.059-47.72,66.531-121.94,103.441-187.164l51.483-144.179-211.7-70.539Z" transform="translate(-119.144 -170.886)" opacity="0.1"/>
      <path id="Pfad_871" data-name="Pfad 871" d="M239,644.951s112.478,76.434,280.4,59.187l133.885-374.95-64.156-12.662L367.349,272.77,241.512,637.7Z" transform="translate(-159.008 -163.575)" fill="#8695eb"/>
      <path id="Pfad_872" data-name="Pfad 872" d="M327.93,637.7c26.488,1.492,57.119,1.352,87.953-2.869,33.359-4.494,66.877-13.8,95.675-30.829,24.049-14.237,44.611-29.7,62.547-48.267,46.632-48.192,75.5-117.131,101.413-239.212L453.738,272.77Z" transform="translate(-245.426 -163.575)" opacity="0.1"/>
      <path id="Pfad_873" data-name="Pfad 873" d="M307.08,594.247s82.944,18.673,167.287,7.172c33.359-4.519,66.914-13.8,95.675-30.829,24.049-14.237,44.611-29.7,62.547-48.267,57.74-59.7,88.205-151.094,119.63-335.746,0,0-137.854,38.217-274.056-45.5C478.164,141.08,432.224,470.491,307.08,594.247Z" transform="translate(-307.08 -141.08)" fill="#fafafa"/>
      <path id="Pfad_874" data-name="Pfad 874" d="M472.83,672.652c33.359-4.519,66.913-13.8,95.675-30.829,24.049-14.237,44.611-29.7,62.547-48.267-49.144-4.585-56.21-35.456-56.21-35.456C538.408,624.534,472.83,672.652,472.83,672.652Z" transform="translate(-305.542 -212.312)" opacity="0.1"/>
      <path id="Pfad_3890" data-name="Pfad 3890" d="M137.864,21.536s-34.192,5.622-66.464,5S8.776,19.063,8.776,19.063c-4.61-.149-8.469-4.5-8.618-9.727S3.625,0,8.236.15c0,0,30.025,8.436,62.3,9.054s66.791-6.581,66.791-6.581c4.61.149,8.469,4.5,8.618,9.727s-3.467,9.335-8.077,9.186Z" transform="translate(180.518 125.718) rotate(13)" fill="#ccc"/>
      <path id="Pfad_3896" data-name="Pfad 3896" d="M137.864,21.536s-34.192,5.622-66.464,5S8.776,19.063,8.776,19.063c-4.61-.149-8.469-4.5-8.618-9.727S3.625,0,8.236.15c0,0,30.025,8.436,62.3,9.054s66.791-6.581,66.791-6.581c4.61.149,8.469,4.5,8.618,9.727s-3.467,9.335-8.077,9.186Z" transform="translate(165.721 169.718) rotate(13)" fill="#ccc"/>
      <path id="Pfad_3897" data-name="Pfad 3897" d="M137.864,21.536s-34.192,5.622-66.464,5S8.776,19.063,8.776,19.063c-4.61-.149-8.469-4.5-8.618-9.727S3.625,0,8.236.15c0,0,30.025,8.436,62.3,9.054s66.791-6.581,66.791-6.581c4.61.149,8.469,4.5,8.618,9.727s-3.467,9.335-8.077,9.186Z" transform="translate(148.312 213.718) rotate(13)" fill="#ccc"/>
      <path id="Pfad_3898" data-name="Pfad 3898" d="M137.864,21.536s-34.192,5.622-66.464,5S8.776,19.063,8.776,19.063c-4.61-.149-8.469-4.5-8.618-9.727S3.625,0,8.236.15c0,0,30.025,8.436,62.3,9.054s66.791-6.581,66.791-6.581c4.61.149,8.469,4.5,8.618,9.727s-3.467,9.335-8.077,9.186Z" transform="translate(128.292 256.718) rotate(13)" fill="#ccc"/>
      <path id="Pfad_3894" data-name="Pfad 3894" d="M86.722,21.575s-21.2,3.539-40.7,3.045A196.864,196.864,0,0,1,8.727,19.738a10.6,10.6,0,0,1-8.6-10.35C.007,4.151,3.639,0,8.236.117A221.694,221.694,0,0,0,45.4,4.493c19.506.494,40.86-2.4,40.86-2.4,5.474-.3,8.417,4.456,8.534,9.693a9.334,9.334,0,0,1-8.073,9.788Z" transform="matrix(0.985, 0.174, -0.174, 0.985, 245.221, 69.816)" fill="#6c63ff"/>
    </g>
    <path id="Pfad_5156" data-name="Pfad 5156" d="M339,0c187.227,0,339,151.777,339,339s-151.777,339-339,339S0,526.231,0,339,151.777,0,339,0Z" transform="translate(143.042 196)" fill="#f6f9ff"/>
    <g id="undraw_my_documents_ym8x" transform="matrix(0.927, -0.375, 0.375, 0.927, 103.671, 464.565)">
      <g id="Gruppe_1919" data-name="Gruppe 1919" transform="translate(0 0)">
        <path id="Pfad_3852" data-name="Pfad 3852" d="M108.409,32.572a.977.977,0,0,1,.3,1.31L60.143,127.936a.91.91,0,0,1-1.221.465L-2.094,94.583a.977.977,0,0,1-.3-1.31L46.173-.781a.91.91,0,0,1,1.221-.465Z" fill="#9eadff"/>
        <path id="Pfad_3853" data-name="Pfad 3853" d="M96.313,28.81,51.866,114.878-2.285,84.866,42.162-1.2Zm3.431,1.9-.008,0,.008,0Z" transform="translate(6.144 6.739)" fill="#fff"/>
        <path id="Pfad_3854" data-name="Pfad 3854" d="M42.817,22.049c.841.466.957,1.946.259,3.3s-1.951,2.073-2.792,1.607L.624,4.973c-.841-.466-.957-1.946-.259-3.3S2.316-.4,3.157.068Z" transform="translate(45.184 23.447)" fill="#6c63ff"/>
        <path id="Pfad_3855" data-name="Pfad 3855" d="M42.817,22.05c.841.466.957,1.946.259,3.3s-1.951,2.073-2.792,1.607L.624,4.973c-.841-.466-.957-1.946-.259-3.3S2.316-.4,3.157.068Z" transform="translate(39.685 34.095)" fill="#6c63ff"/>
        <path id="Pfad_3856" data-name="Pfad 3856" d="M42.817,22.05c.841.466.957,1.946.259,3.3s-1.951,2.073-2.792,1.607L.624,4.973c-.841-.466-.957-1.946-.259-3.3S2.316-.4,3.157.068Z" transform="translate(34.187 44.743)" fill="#6c63ff"/>
        <path id="Pfad_3857" data-name="Pfad 3857" d="M42.817,22.05c.841.466.957,1.946.259,3.3s-1.951,2.073-2.792,1.607L.624,4.973c-.841-.466-.957-1.946-.259-3.3S2.316-.4,3.157.068Z" transform="translate(28.688 55.39)" fill="#6c63ff"/>
        <path id="Pfad_3858" data-name="Pfad 3858" d="M42.817,22.05c.841.466.957,1.946.259,3.3s-1.951,2.073-2.792,1.607L.624,4.973c-.841-.466-.957-1.946-.259-3.3S2.316-.4,3.157.068Z" transform="translate(23.189 66.038)" fill="#6c63ff"/>
        <path id="Pfad_3859" data-name="Pfad 3859" d="M42.817,22.05c.841.466.957,1.946.259,3.3s-1.951,2.073-2.792,1.607L.624,4.973c-.841-.466-.957-1.946-.259-3.3S2.316-.4,3.157.068Z" transform="translate(17.691 76.685)" fill="#6c63ff"/>
      </g>
    </g>
    <g id="Gruppe_1888" data-name="Gruppe 1888" transform="matrix(0.966, -0.259, 0.259, 0.966, 247.374, 235.09)">
      <path id="Pfad_3838" data-name="Pfad 3838" d="M.25,21.536a1.086,1.086,0,0,0-.663,1.236L20.261,123.426a.813.813,0,0,0,1.053.663l68.625-22.922a1.086,1.086,0,0,0,.663-1.236L69.928-.722a.813.813,0,0,0-1.053-.663Z" transform="translate(0 0)" fill="#c6d0fe"/>
      <path id="Pfad_3839" data-name="Pfad 3839" d="M.944,14.013C0,14.329-.53,15.764-.232,17.211s1.308,2.367,2.255,2.051l44.606-14.9c.946-.316,1.474-1.751,1.177-3.2S46.5-1.2,45.551-.886Z" transform="translate(15.457 23.677)" fill="#fff"/>
      <path id="Pfad_3840" data-name="Pfad 3840" d="M.944,14.013C0,14.329-.53,15.764-.232,17.211s1.308,2.367,2.255,2.051l44.606-14.9c.946-.316,1.474-1.751,1.177-3.2S46.5-1.2,45.551-.886Z" transform="translate(17.798 35.072)" fill="#fff"/>
      <path id="Pfad_3841" data-name="Pfad 3841" d="M.944,14.013C0,14.329-.53,15.764-.232,17.21s1.308,2.367,2.255,2.051l44.606-14.9c.946-.316,1.474-1.751,1.177-3.2S46.5-1.2,45.551-.886Z" transform="translate(20.138 46.467)" fill="#fff"/>
      <path id="Pfad_3842" data-name="Pfad 3842" d="M.944,14.013C0,14.329-.53,15.764-.232,17.211s1.308,2.367,2.255,2.051l44.606-14.9c.946-.316,1.474-1.751,1.177-3.2S46.5-1.2,45.551-.886Z" transform="translate(22.478 57.862)" fill="#fff"/>
      <path id="Pfad_3843" data-name="Pfad 3843" d="M.944,14.013C0,14.329-.53,15.764-.232,17.211s1.308,2.367,2.255,2.051l44.606-14.9c.946-.316,1.474-1.751,1.177-3.2S46.5-1.2,45.551-.886Z" transform="translate(24.819 69.256)" fill="#fff"/>
      <path id="Pfad_3844" data-name="Pfad 3844" d="M.944,14.013C0,14.329-.53,15.764-.232,17.21s1.308,2.367,2.255,2.051l44.606-14.9c.946-.316,1.474-1.751,1.177-3.2S46.5-1.2,45.551-.886Z" transform="translate(27.159 80.651)" fill="#fff"/>
    </g>
    <g id="Gruppe_1971" data-name="Gruppe 1971" transform="translate(837.809 645.024) rotate(87)">
      <path id="Pfad_3860" data-name="Pfad 3860" d="M69.215.4a1.1,1.1,0,0,1,1.372.316l54.527,79.83a.8.8,0,0,1-.343,1.19L56.2,116.708a1.1,1.1,0,0,1-1.372-.316L.3,36.562a.8.8,0,0,1,.343-1.19Z" transform="translate(0 0)" fill="#c6d0fe"/>
      <path id="Pfad_3861" data-name="Pfad 3861" d="M61,2.228,110.9,75.28,50.041,106.32.144,33.267ZM64.859.261l-.008,0L64.86.26Z" transform="translate(7.184 4.279)" fill="#fff"/>
      <path id="Pfad_3862" data-name="Pfad 3862" d="M45.483.362a2.662,2.662,0,0,1,3.136,1.207c.784,1.147.653,2.474-.293,2.956L3.754,27.258A2.663,2.663,0,0,1,.618,26.051C-.165,24.9-.035,23.577.911,23.1Z" transform="translate(22.655 22.149)" fill="#6c63ff"/>
      <path id="Pfad_3863" data-name="Pfad 3863" d="M45.483.362a2.663,2.663,0,0,1,3.136,1.207c.784,1.147.653,2.474-.293,2.956L3.754,27.258A2.663,2.663,0,0,1,.618,26.051C-.165,24.9-.035,23.577.911,23.1Z" transform="translate(28.828 31.187)" fill="#6c63ff"/>
      <path id="Pfad_3864" data-name="Pfad 3864" d="M45.483.362a2.662,2.662,0,0,1,3.136,1.207c.784,1.147.653,2.474-.293,2.956L3.754,27.258A2.662,2.662,0,0,1,.618,26.051C-.165,24.9-.035,23.577.911,23.1Z" transform="translate(35.001 40.224)" fill="#6c63ff"/>
      <path id="Pfad_3865" data-name="Pfad 3865" d="M45.483.362a2.662,2.662,0,0,1,3.136,1.207c.784,1.147.653,2.474-.293,2.956L3.754,27.258A2.662,2.662,0,0,1,.618,26.051C-.165,24.9-.035,23.577.911,23.1Z" transform="translate(41.173 49.261)" fill="#6c63ff"/>
      <path id="Pfad_3866" data-name="Pfad 3866" d="M45.483.362A2.663,2.663,0,0,1,48.62,1.569c.784,1.148.653,2.474-.293,2.956L3.754,27.258A2.662,2.662,0,0,1,.618,26.051C-.165,24.9-.035,23.577.911,23.1Z" transform="translate(47.346 58.299)" fill="#6c63ff"/>
      <path id="Pfad_3867" data-name="Pfad 3867" d="M45.483.362a2.662,2.662,0,0,1,3.136,1.207c.784,1.148.653,2.474-.293,2.956L3.754,27.258A2.663,2.663,0,0,1,.618,26.051C-.165,24.9-.035,23.577.911,23.1Z" transform="translate(53.519 67.336)" fill="#6c63ff"/>
    </g>
    <g id="Gruppe_1972" data-name="Gruppe 1972" transform="translate(61.278 571.437) rotate(-52)">
      <path id="Pfad_3838-2" data-name="Pfad 3838" d="M102.117,12.958a.8.8,0,0,1,.6,1.081l-32.388,95.9a1.1,1.1,0,0,1-1.208.729L-3.095,96.589a.8.8,0,0,1-.6-1.081L28.7-.393A1.1,1.1,0,0,1,29.9-1.121Z" fill="#c6d0fe"/>
      <path id="Pfad_3839-2" data-name="Pfad 3839" d="M49.654,9.084c1,.194,1.426,1.474.961,2.853s-1.654,2.343-2.65,2.149L1.027,4.933C.031,4.739-.4,3.459.066,2.08S1.72-.262,2.716-.068Z" transform="translate(33.337 20.624)" fill="#fff"/>
      <path id="Pfad_3840-2" data-name="Pfad 3840" d="M49.654,9.084c1,.194,1.426,1.474.961,2.853s-1.654,2.343-2.65,2.149L1.027,4.933C.031,4.739-.4,3.459.066,2.08S1.72-.262,2.716-.068Z" transform="translate(29.671 31.48)" fill="#fff"/>
      <path id="Pfad_3841-2" data-name="Pfad 3841" d="M49.654,9.084c1,.194,1.426,1.474.961,2.853s-1.654,2.343-2.65,2.149L1.027,4.933C.031,4.739-.4,3.459.066,2.08S1.72-.262,2.716-.068Z" transform="translate(26.004 42.337)" fill="#fff"/>
      <path id="Pfad_3842-2" data-name="Pfad 3842" d="M49.654,9.084c1,.194,1.426,1.474.961,2.853s-1.654,2.343-2.65,2.149L1.027,4.933C.031,4.739-.4,3.459.066,2.08S1.72-.262,2.716-.068Z" transform="translate(22.337 53.194)" fill="#fff"/>
      <path id="Pfad_3843-2" data-name="Pfad 3843" d="M49.654,9.084c1,.194,1.426,1.474.961,2.853s-1.654,2.343-2.65,2.149L1.027,4.933C.031,4.739-.4,3.459.066,2.08S1.72-.262,2.716-.068Z" transform="translate(18.671 64.051)" fill="#fff"/>
      <path id="Pfad_3844-2" data-name="Pfad 3844" d="M49.654,9.084c1,.194,1.426,1.474.961,2.853s-1.654,2.343-2.65,2.149L1.027,4.933C.031,4.739-.4,3.459.066,2.08S1.72-.262,2.716-.068Z" transform="translate(15.004 74.907)" fill="#fff"/>
    </g>
  </g>
</svg>
