<svg xmlns="http://www.w3.org/2000/svg" width="896.333" height="778.933" viewBox="0 0 896.333 778.933">
  <g id="Gruppe_3006" data-name="Gruppe 3006" transform="translate(-63.667 -196)">
    <path id="Pfad_5156" data-name="Pfad 5156" d="M389.466,0c215.1,0,389.466,174.37,389.466,389.466S604.563,778.933,389.466,778.933,0,604.563,0,389.466,174.37,0,389.466,0Z" transform="translate(155.068 196)" fill="#f6f9ff"/>
    <g id="undraw_my_documents_ym8x" transform="matrix(0.927, -0.375, 0.375, 0.927, -321.503, 619.123)">
      <g id="Gruppe_1919" data-name="Gruppe 1919" transform="translate(459.829 19.34)">
        <path id="Pfad_3852" data-name="Pfad 3852" d="M345.667,356.789a1,1,0,0,1,.411,1.353l-49.923,93.507a1,1,0,0,1-1.353.411L224.23,414.382a1,1,0,0,1-.411-1.353l49.923-93.508a1,1,0,0,1,1.353-.411Z" transform="translate(-223.701 -318.993)" fill="#9eadff"/>
        <path id="Pfad_3853" data-name="Pfad 3853" d="M335.137,359.521l-45.685,85.567L226.82,411.65,272.5,326.082Zm3.969,2.119-.009,0,.01,0Z" transform="translate(-219.731 -318.993)" fill="#fff"/>
        <path id="Pfad_3854" data-name="Pfad 3854" d="M295.057,368.928c.973.52,1.18,2.036.463,3.38s-2.093,2.016-3.066,1.5l-45.872-24.491c-.973-.52-1.18-2.036-.463-3.38s2.093-2.016,3.066-1.5Z" transform="translate(-195.442 -318.993)" fill="#6c63ff"/>
        <path id="Pfad_3855" data-name="Pfad 3855" d="M300.708,379.514c.973.52,1.18,2.036.463,3.38s-2.093,2.016-3.066,1.5L252.233,359.9c-.973-.52-1.18-2.036-.463-3.38s2.093-2.016,3.066-1.5Z" transform="translate(-206.746 -318.993)" fill="#6c63ff"/>
        <path id="Pfad_3856" data-name="Pfad 3856" d="M306.36,390.1c.973.52,1.18,2.036.463,3.38s-2.093,2.016-3.066,1.5l-45.872-24.491c-.973-.52-1.18-2.036-.463-3.38s2.093-2.016,3.066-1.5Z" transform="translate(-218.049 -318.993)" fill="#6c63ff"/>
        <path id="Pfad_3857" data-name="Pfad 3857" d="M312.012,400.686c.973.52,1.18,2.036.463,3.38s-2.093,2.016-3.066,1.5l-45.872-24.491c-.973-.52-1.18-2.036-.463-3.38s2.093-2.016,3.066-1.5Z" transform="translate(-229.353 -318.993)" fill="#6c63ff"/>
        <path id="Pfad_3858" data-name="Pfad 3858" d="M317.663,411.271c.973.52,1.18,2.036.463,3.38s-2.093,2.016-3.066,1.5l-45.872-24.491c-.973-.52-1.18-2.036-.463-3.38s2.093-2.016,3.066-1.5Z" transform="translate(-240.656 -318.993)" fill="#6c63ff"/>
        <path id="Pfad_3859" data-name="Pfad 3859" d="M323.315,421.857c.973.52,1.18,2.036.463,3.38s-2.093,2.016-3.066,1.5L274.84,402.243c-.973-.52-1.18-2.036-.463-3.38s2.093-2.016,3.066-1.5Z" transform="translate(-251.959 -318.993)" fill="#6c63ff"/>
      </g>
    </g>
    <g id="Gruppe_1970" data-name="Gruppe 1970" transform="translate(-189.32 -607.42)">
      <path id="Pfad_793" data-name="Pfad 793" d="M296.5,498.829s-8.6-6.161-17.5-2.355c0,0,2.488,5.29,13.574,5.224Z" transform="translate(672.511 699.223)" fill="#6c63ff"/>
      <path id="Pfad_868" data-name="Pfad 868" d="M215.09,679.278l83.176,32.181,121.575,46.99c4.585-8.516,11.352-20.166,19.726-34,28.789-47.72,76.434-121.94,118.839-187.164C606.2,463.8,647.329,401.741,647.329,401.741l-29.776-8.632L374.335,322.57Z" transform="translate(374.671 728.716)" opacity="0.07"/>
      <path id="Pfad_869" data-name="Pfad 869" d="M217.09,672.278l83.176,32.181,121.575,46.99c4.585-8.516,11.352-20.166,19.726-34,28.789-47.72,76.435-121.94,118.839-187.164C608.2,456.8,649.329,394.741,649.329,394.741l-29.776-8.632L376.335,315.57Z" transform="translate(371.013 729.911)" fill="#fafafa"/>
      <path id="Pfad_870" data-name="Pfad 870" d="M253,672.278l83.176,32.181a625.545,625.545,0,0,0,141.3,12.993c28.79-47.72,76.435-121.94,118.839-187.164l59.146-144.179L412.245,315.57Z" transform="translate(335.103 729.911)" opacity="0.1"/>
      <path id="Pfad_871" data-name="Pfad 871" d="M239,644.951s129.221,76.434,322.139,59.187l153.814-374.95-73.706-12.662L386.454,272.77,241.886,637.7Z" transform="translate(287.221 737.222)" fill="#8695eb"/>
      <path id="Pfad_872" data-name="Pfad 872" d="M327.93,637.7c30.431,1.492,65.622,1.352,101.045-2.869,38.325-4.494,76.833-13.8,109.917-30.829,27.629-14.237,51.252-29.7,71.857-48.267,53.574-48.192,86.733-117.131,116.509-239.212L472.466,272.77Z" transform="translate(201.176 737.222)" opacity="0.1"/>
      <path id="Pfad_873" data-name="Pfad 873" d="M307.08,594.247s95.29,18.673,192.189,7.172c38.325-4.519,76.874-13.8,109.917-30.829,27.629-14.237,51.252-29.7,71.857-48.267,66.335-59.7,101.335-151.094,137.438-335.746,0,0-158.375,38.217-314.851-45.5C503.631,141.08,450.853,470.491,307.08,594.247Z" transform="translate(127.241 759.717)" fill="#fafafa"/>
      <path id="Pfad_874" data-name="Pfad 874" d="M472.83,672.652c38.325-4.519,76.874-13.8,109.917-30.829,27.628-14.237,51.252-29.7,71.857-48.267-56.459-4.585-64.577-35.456-64.577-35.456C548.17,624.534,472.83,672.652,472.83,672.652Z" transform="translate(153.681 688.484)" opacity="0.1"/>
      <g id="Gruppe_1883" data-name="Gruppe 1883" transform="translate(23 428)">
        <path id="Ellipse_263" data-name="Ellipse 263" d="M18.959,3.238a12.436,12.436,0,0,1,4.527,2.254,12.723,12.723,0,0,1,3.2,3.735,13.039,13.039,0,0,1,1.576,4.707,13.311,13.311,0,0,1-2.628,9.806,13.039,13.039,0,0,1-3.718,3.288,12.723,12.723,0,0,1-4.638,1.635A12.5,12.5,0,0,1,7.724,26.07a12.727,12.727,0,0,1-3.167-3.739,13.042,13.042,0,0,1-1.55-4.687A13.312,13.312,0,0,1,5.618,7.9,13.042,13.042,0,0,1,9.3,4.615,12.727,12.727,0,0,1,13.916,2.96,12.439,12.439,0,0,1,18.959,3.238Z" transform="translate(791.933 628.397)" fill="#6c63ff"/>
        <path id="Pfad_3884" data-name="Pfad 3884" d="M4.16,10.657a1.3,1.3,0,0,1-.552-.307,1.309,1.309,0,0,1-.144-.159l-.011-.014L1.178,7.144a1.343,1.343,0,0,1-.229-.481,1.389,1.389,0,0,1,.135-1.011,1.363,1.363,0,0,1,.348-.407,1.331,1.331,0,0,1,.474-.239,1.3,1.3,0,0,1,1.385.477L4.766,7.448l6-4.709a1.337,1.337,0,0,1,.476-.24,1.307,1.307,0,0,1,1.391.478l-.038.031.038-.03a1.347,1.347,0,0,1,.23.482,1.383,1.383,0,0,1-.485,1.422L5.317,10.42a1.342,1.342,0,0,1-.264.161,1.327,1.327,0,0,1-.289.095,1.3,1.3,0,0,1-.6-.019Z" transform="translate(800.866 637.998)" fill="#fff"/>
      </g>
      <g id="Gruppe_1884" data-name="Gruppe 1884" transform="translate(15 438)">
        <path id="Ellipse_264" data-name="Ellipse 264" d="M18.959,3.238a12.436,12.436,0,0,1,4.527,2.254,12.723,12.723,0,0,1,3.2,3.735,13.039,13.039,0,0,1,1.576,4.707,13.311,13.311,0,0,1-2.628,9.806,13.039,13.039,0,0,1-3.718,3.288,12.723,12.723,0,0,1-4.638,1.635A12.5,12.5,0,0,1,7.724,26.07a12.727,12.727,0,0,1-3.167-3.739,13.042,13.042,0,0,1-1.55-4.687A13.312,13.312,0,0,1,5.618,7.9,13.042,13.042,0,0,1,9.3,4.615,12.727,12.727,0,0,1,13.916,2.96,12.439,12.439,0,0,1,18.959,3.238Z" transform="translate(782.098 665.102)" fill="#6c63ff"/>
        <path id="Pfad_3885" data-name="Pfad 3885" d="M4.16,10.657a1.3,1.3,0,0,1-.552-.307,1.323,1.323,0,0,1-.144-.159l-.011-.014L1.178,7.144a1.345,1.345,0,0,1-.229-.481,1.39,1.39,0,0,1,.135-1.011,1.364,1.364,0,0,1,.348-.407,1.329,1.329,0,0,1,.474-.239,1.3,1.3,0,0,1,1.385.477L4.766,7.448l6-4.709a1.338,1.338,0,0,1,.476-.24,1.307,1.307,0,0,1,1.391.478l-.038.031.038-.03a1.345,1.345,0,0,1,.23.482,1.382,1.382,0,0,1-.485,1.422L5.317,10.42a1.343,1.343,0,0,1-.264.161,1.321,1.321,0,0,1-.289.095,1.3,1.3,0,0,1-.6-.019Z" transform="translate(791.03 674.703)" fill="#fff"/>
      </g>
      <g id="Gruppe_1638" data-name="Gruppe 1638" transform="translate(-10919 10495)">
        <path id="Ellipse_265" data-name="Ellipse 265" d="M18.958,3.238a12.436,12.436,0,0,1,4.527,2.254,12.723,12.723,0,0,1,3.2,3.735,13.039,13.039,0,0,1,1.576,4.707,13.311,13.311,0,0,1-2.628,9.806,13.039,13.039,0,0,1-3.718,3.288,12.723,12.723,0,0,1-4.638,1.635A12.5,12.5,0,0,1,7.723,26.07a12.727,12.727,0,0,1-3.167-3.739,13.042,13.042,0,0,1-1.55-4.687A13.312,13.312,0,0,1,5.617,7.9,13.042,13.042,0,0,1,9.3,4.615,12.727,12.727,0,0,1,13.915,2.96,12.439,12.439,0,0,1,18.958,3.238Z" transform="translate(11695.472 -9350.585)" fill="#6c63ff"/>
        <path id="Pfad_3886" data-name="Pfad 3886" d="M4.16,10.657a1.293,1.293,0,0,1-.386-.175,1.307,1.307,0,0,1-.166-.132,1.323,1.323,0,0,1-.144-.159l-.011-.014L1.178,7.144a1.344,1.344,0,0,1-.229-.481,1.389,1.389,0,0,1,.135-1.011,1.364,1.364,0,0,1,.348-.407,1.33,1.33,0,0,1,.474-.239,1.3,1.3,0,0,1,1.385.477L4.766,7.448l6-4.709a1.337,1.337,0,0,1,.476-.24,1.307,1.307,0,0,1,1.391.478l-.038.031.038-.03a1.347,1.347,0,0,1,.23.482,1.382,1.382,0,0,1-.485,1.422L5.316,10.42a1.346,1.346,0,0,1-.264.161,1.326,1.326,0,0,1-.289.095,1.3,1.3,0,0,1-.6-.019Z" transform="translate(11704.405 -9340.984)" fill="#fff"/>
      </g>
      <path id="Pfad_3890" data-name="Pfad 3890" d="M738.988,413.959s-39.208,6.78-76.02,7.21a445.663,445.663,0,0,1-71.229-5.49,9.519,9.519,0,1,1,0-19.038s33.993,7.52,70.805,7.09,76.444-8.81,76.444-8.81a9.519,9.519,0,1,1,0,19.038Z" transform="translate(163.543 508.926) rotate(13)" fill="#ccc"/>
      <path id="Pfad_3896" data-name="Pfad 3896" d="M738.988,413.959s-39.208,6.78-76.02,7.21a445.663,445.663,0,0,1-71.229-5.49,9.519,9.519,0,1,1,0-19.038s33.993,7.52,70.805,7.09,76.444-8.81,76.444-8.81a9.519,9.519,0,1,1,0,19.038Z" transform="translate(146.543 552.926) rotate(13)" fill="#ccc"/>
      <path id="Pfad_3897" data-name="Pfad 3897" d="M738.988,413.959s-39.208,6.78-76.02,7.21a445.663,445.663,0,0,1-71.229-5.49,9.519,9.519,0,1,1,0-19.038s33.993,7.52,70.805,7.09,76.444-8.81,76.444-8.81a9.519,9.519,0,1,1,0,19.038Z" transform="translate(126.543 596.926) rotate(13)" fill="#ccc"/>
      <path id="Pfad_3898" data-name="Pfad 3898" d="M738.988,413.959s-39.208,6.78-76.02,7.21a445.663,445.663,0,0,1-71.229-5.49,9.519,9.519,0,1,1,0-19.038s33.993,7.52,70.805,7.09,76.444-8.81,76.444-8.81a9.519,9.519,0,1,1,0,19.038Z" transform="translate(103.543 639.926) rotate(13)" fill="#ccc"/>
      <path id="Pfad_3894" data-name="Pfad 3894" d="M733.009,342.287s-24.347,4.095-46.657,4.095a250.584,250.584,0,0,1-42.551-3.954c-5.75-1-9.581-4.92-9.581-10.177a9.519,9.519,0,0,1,9.519-9.519,283.093,283.093,0,0,0,42.419,3.449c22.31,0,46.82-3.449,46.82-3.449,6.272-.437,9.519,4.262,9.519,9.519s-3.965,9.124-9.487,10.037Z" transform="matrix(0.985, 0.174, -0.174, 0.985, 147.422, 542.546)" fill="#6c63ff"/>
      <path id="Ellipse_266" data-name="Ellipse 266" d="M18.959,3.238a12.436,12.436,0,0,1,4.527,2.254,12.723,12.723,0,0,1,3.2,3.735,13.039,13.039,0,0,1,1.576,4.707,13.311,13.311,0,0,1-2.628,9.806,13.039,13.039,0,0,1-3.718,3.288,12.723,12.723,0,0,1-4.638,1.635A12.5,12.5,0,0,1,7.724,26.07a12.727,12.727,0,0,1-3.167-3.739,13.042,13.042,0,0,1-1.55-4.687A13.312,13.312,0,0,1,5.618,7.9,13.042,13.042,0,0,1,9.3,4.615,12.727,12.727,0,0,1,13.916,2.96,12.439,12.439,0,0,1,18.959,3.238Z" transform="translate(751.841 1191.872)" fill="#ccc"/>
    </g>
    <g id="Gruppe_1888" data-name="Gruppe 1888" transform="matrix(0.966, -0.259, 0.259, 0.966, 197.416, -55.523)">
      <path id="Pfad_3838" data-name="Pfad 3838" d="M221.394,430.7a1,1,0,0,0-.709,1.224l27.29,102.427a1,1,0,0,0,1.224.709l77.3-20.6a1,1,0,0,0,.709-1.224l-27.29-102.427a1,1,0,0,0-1.224-.709Z" transform="translate(-220.651 -108.171)" fill="#c6d0fe"/>
      <path id="Pfad_3839" data-name="Pfad 3839" d="M240.39,447.62c-1.066.284-1.613,1.713-1.221,3.186s1.578,2.44,2.644,2.156l50.247-13.388c1.066-.284,1.613-1.713,1.221-3.186s-1.578-2.44-2.644-2.156Z" transform="translate(-220.651 -108.171)" fill="#fff"/>
      <path id="Pfad_3840" data-name="Pfad 3840" d="M243.479,459.215c-1.066.284-1.613,1.713-1.221,3.186s1.578,2.44,2.644,2.156l50.247-13.388c1.066-.284,1.613-1.713,1.221-3.186s-1.578-2.44-2.644-2.156Z" transform="translate(-220.651 -108.171)" fill="#fff"/>
      <path id="Pfad_3841" data-name="Pfad 3841" d="M246.568,470.811c-1.066.284-1.613,1.713-1.221,3.186s1.578,2.44,2.644,2.156l50.247-13.388c1.066-.284,1.613-1.713,1.221-3.186s-1.578-2.44-2.644-2.156Z" transform="translate(-220.651 -108.171)" fill="#fff"/>
      <path id="Pfad_3842" data-name="Pfad 3842" d="M249.658,482.406c-1.066.284-1.613,1.713-1.221,3.186s1.578,2.44,2.644,2.156l50.247-13.388c1.066-.284,1.613-1.713,1.221-3.186s-1.578-2.44-2.644-2.156Z" transform="translate(-220.651 -108.171)" fill="#fff"/>
      <path id="Pfad_3843" data-name="Pfad 3843" d="M252.747,494c-1.066.284-1.613,1.713-1.221,3.186s1.578,2.44,2.644,2.156l50.247-13.388c1.066-.284,1.613-1.713,1.221-3.186s-1.578-2.44-2.644-2.156Z" transform="translate(-220.651 -108.171)" fill="#fff"/>
      <path id="Pfad_3844" data-name="Pfad 3844" d="M255.837,505.6c-1.066.284-1.613,1.713-1.221,3.186s1.578,2.44,2.644,2.156l50.247-13.388c1.066-.284,1.613-1.713,1.221-3.186s-1.578-2.44-2.644-2.156Z" transform="translate(-220.651 -108.171)" fill="#fff"/>
    </g>
    <g id="Gruppe_1971" data-name="Gruppe 1971" transform="translate(953.469 644.889) rotate(87)">
      <path id="Pfad_3860" data-name="Pfad 3860" d="M923.912,595.746a1,1,0,0,1,1.37.352l53.928,91.257a1,1,0,0,1-.352,1.37l-68.873,40.7a1,1,0,0,1-1.37-.352l-53.928-91.257a1,1,0,0,1,.352-1.37Z" transform="translate(-854.548 -595.607)" fill="#c6d0fe"/>
      <path id="Pfad_3861" data-name="Pfad 3861" d="M922.837,602.77l49.348,83.509L911.061,722.4l-49.349-83.509Zm3.873-2.289-.008.005.009-.006Z" transform="translate(-854.549 -595.607)" fill="#fff"/>
      <path id="Pfad_3862" data-name="Pfad 3862" d="M953.189,621.151c.95-.561,2.353.05,3.128,1.362s.634,2.836-.316,3.4l-44.768,26.455c-.95.561-2.353-.05-3.128-1.362s-.634-2.836.316-3.4Z" transform="translate(-885.073 -595.607)" fill="#6c63ff"/>
      <path id="Pfad_3863" data-name="Pfad 3863" d="M947.083,631.482c.95-.561,2.353.05,3.128,1.362s.634,2.836-.316,3.4L905.128,662.7c-.95.561-2.353-.05-3.128-1.362s-.634-2.836.316-3.4Z" transform="translate(-872.863 -595.607)" fill="#6c63ff"/>
      <path id="Pfad_3864" data-name="Pfad 3864" d="M940.978,641.813c.95-.561,2.353.05,3.128,1.362s.634,2.836-.316,3.4l-44.768,26.455c-.95.561-2.353-.05-3.128-1.362s-.634-2.836.316-3.4Z" transform="translate(-860.653 -595.607)" fill="#6c63ff"/>
      <path id="Pfad_3865" data-name="Pfad 3865" d="M934.873,652.144c.95-.561,2.353.05,3.128,1.362s.634,2.836-.316,3.4l-44.768,26.455c-.95.561-2.353-.05-3.128-1.362s-.634-2.836.316-3.4Z" transform="translate(-848.443 -595.607)" fill="#6c63ff"/>
      <path id="Pfad_3866" data-name="Pfad 3866" d="M928.768,662.475c.95-.561,2.353.05,3.128,1.362s.634,2.836-.316,3.4l-44.768,26.455c-.95.561-2.353-.05-3.128-1.362s-.634-2.836.316-3.4Z" transform="translate(-836.233 -595.607)" fill="#6c63ff"/>
      <path id="Pfad_3867" data-name="Pfad 3867" d="M922.663,672.806c.95-.561,2.353.05,3.128,1.362s.634,2.836-.316,3.4L880.708,704.02c-.95.561-2.353-.05-3.128-1.362s-.634-2.836.316-3.4Z" transform="translate(-824.023 -595.607)" fill="#6c63ff"/>
    </g>
    <g id="Gruppe_1972" data-name="Gruppe 1972" transform="translate(63.667 569.656) rotate(-52)">
      <path id="Pfad_3838-2" data-name="Pfad 3838" d="M326.5,430.7a1,1,0,0,1,.709,1.224l-27.29,102.427a1,1,0,0,1-1.224.709l-77.3-20.6a1,1,0,0,1-.709-1.224l27.29-102.427a1,1,0,0,1,1.224-.709Z" transform="translate(-220.652 -410.074)" fill="#c6d0fe"/>
      <path id="Pfad_3839-2" data-name="Pfad 3839" d="M292.06,447.62c1.066.284,1.613,1.713,1.221,3.186s-1.578,2.44-2.644,2.156L240.39,439.574c-1.066-.284-1.613-1.713-1.221-3.186s1.578-2.44,2.644-2.156Z" transform="translate(-205.204 -410.074)" fill="#fff"/>
      <path id="Pfad_3840-2" data-name="Pfad 3840" d="M295.149,459.215c1.066.284,1.613,1.713,1.221,3.186s-1.578,2.44-2.644,2.156l-50.247-13.388c-1.066-.284-1.613-1.713-1.221-3.186s1.578-2.44,2.644-2.156Z" transform="translate(-211.383 -410.074)" fill="#fff"/>
      <path id="Pfad_3841-2" data-name="Pfad 3841" d="M298.239,470.811c1.066.284,1.613,1.713,1.221,3.186s-1.578,2.44-2.644,2.156l-50.247-13.388c-1.066-.284-1.613-1.713-1.221-3.186s1.578-2.44,2.644-2.156Z" transform="translate(-217.562 -410.074)" fill="#fff"/>
      <path id="Pfad_3842-2" data-name="Pfad 3842" d="M301.328,482.406c1.066.284,1.613,1.713,1.221,3.186s-1.578,2.44-2.644,2.156L249.658,474.36c-1.066-.284-1.613-1.713-1.221-3.186s1.578-2.44,2.644-2.156Z" transform="translate(-223.741 -410.074)" fill="#fff"/>
      <path id="Pfad_3843-2" data-name="Pfad 3843" d="M304.418,494c1.066.284,1.613,1.713,1.221,3.186s-1.578,2.44-2.644,2.156l-50.247-13.388c-1.066-.284-1.613-1.713-1.221-3.186s1.578-2.44,2.644-2.156Z" transform="translate(-229.92 -410.074)" fill="#fff"/>
      <path id="Pfad_3844-2" data-name="Pfad 3844" d="M307.507,505.6c1.066.284,1.613,1.713,1.221,3.186s-1.578,2.44-2.644,2.156l-50.247-13.388c-1.066-.284-1.613-1.713-1.221-3.186s1.578-2.44,2.644-2.156Z" transform="translate(-236.099 -410.074)" fill="#fff"/>
    </g>
  </g>
</svg>
