<svg xmlns="http://www.w3.org/2000/svg" width="845" height="500.999" viewBox="0 0 845 500.999">
  <g id="Gruppe_3072" data-name="Gruppe 3072" transform="translate(-115 -4184.424)">
    <path id="Pfad_5288" data-name="Pfad 5288" d="M502.733,945.508c-124.79,15.681-157.525-61.91-239.666-31.814-117.849,43.18-201.6,258.274-121.04,364.59,48.526,64.037,140.229,66.918,144.563,66.992,119.213,2.069,140.884-108.926,255.754-116.946,113.16-7.9,154.292,95.475,258.227,68.823,65.718-16.852,102.013-71.706,114.077-89.938,52.826-79.837,56.327-194.756-3.581-275.625-8.809-11.891-54.321-73.327-131.878-85.39C671.649,829.473,637.159,928.617,502.733,945.508Z" transform="translate(4.867 3340.117)" fill="#e1e6ff"/>
    <g id="Gruppe_2835" data-name="Gruppe 2835" transform="translate(0 1450.574)">
      <rect id="Rechteck_1050" data-name="Rechteck 1050" width="51.53" height="115.943" rx="18.166" transform="translate(556.905 3118.904)" fill="#ff92aa"/>
      <circle id="Ellipse_426" data-name="Ellipse 426" cx="192.345" cy="192.345" r="192.345" transform="translate(339.444 2810.023)" fill="#ff92aa"/>
      <path id="Pfad_5289" data-name="Pfad 5289" d="M595.387,1031.328a193.018,193.018,0,0,0-41.473,4.484c91.684,14.66,161.741,94.106,161.741,189.919,0,91.99-64.578,168.9-150.872,187.86a193.767,193.767,0,0,0,30.6,2.425c106.23,0,192.345-86.116,192.345-192.344S701.617,1031.328,595.387,1031.328Z" transform="translate(-62.362 1778.695)" fill="#fc6681"/>
      <rect id="Rechteck_1051" data-name="Rechteck 1051" width="112.853" height="88.965" rx="41.007" transform="translate(295.785 2981.363)" fill="#ff92aa"/>
      <path id="Pfad_5290" data-name="Pfad 5290" d="M448.062,1322.223H429.5c1.526-.954,24.49-15.865,24.712-44.071.226-28.733-23.361-44.051-24.712-44.894h18.561a43.189,43.189,0,0,1,43.209,42.661q0,.291.006.585.01,1.452,0,2.872A43.238,43.238,0,0,1,448.062,1322.223Z" transform="translate(-43.515 1748.105)" fill="#fc6681"/>
      <rect id="Rechteck_1052" data-name="Rechteck 1052" width="12.025" height="29.745" rx="6.012" transform="translate(397.85 2945.439)" fill="#6c7fbc"/>
      <rect id="Rechteck_1053" data-name="Rechteck 1053" width="12.025" height="29.745" rx="6.012" transform="translate(357.979 2945.439)" fill="#6c7fbc"/>
      <path id="Pfad_5291" data-name="Pfad 5291" d="M491.633,1075.534c55.958-22.917,98.983-23.268,126.034-20.182,18.332,2.092,50.465,8.173,50.249,13.592-.168,4.2-19.678,6.593-26.36,7.413-35.543,4.366-41.151-5.156-69.194-2.472-27.912,2.672-36.288,13.438-60.546,8.65A78.1,78.1,0,0,1,491.633,1075.534Z" transform="translate(-52.928 1775.266)" fill="#6c7fbc"/>
      <path id="Pfad_5292" data-name="Pfad 5292" d="M628.471,1073.724a55.628,55.628,0,1,0-106.969,5.393,81.328,81.328,0,0,0,31.687-3.016c10.721-3.308,12.915-6.648,22.98-8.121,3.962-.579,7.845-.68,27.14,1.952C610.081,1070.857,618.606,1072.1,628.471,1073.724Z" transform="translate(-57.012 1782.58)" fill="#fff2cc"/>
      <path id="Pfad_5293" data-name="Pfad 5293" d="M562.018,1008.979c1.788-.2,30.707-2.949,48.6,19.77,14.427,18.318,10.908,39.5,10.3,42.834l14,2.059c4.5-21.13-3.178-42.921-19.769-56.014C591.813,999.212,563.92,1008.32,562.018,1008.979Z" transform="translate(-63.591 1782.51)" fill="#ffe577"/>
      <path id="Pfad_5294" data-name="Pfad 5294" d="M418.635,1160.988A9.042,9.042,0,0,1,417,1148.345a207.639,207.639,0,0,1,45.5-59.023,9.236,9.236,0,0,1,5.984-3.426,9,9,0,0,1,8.3,14.433,146.99,146.99,0,0,0-45.5,59.023C427.289,1162.88,421.885,1163.493,418.635,1160.988Z" transform="translate(-41.339 1770.441)" fill="#fff"/>
      <path id="Pfad_5295" data-name="Pfad 5295" d="M367.388,1092.293l22.324,59.029,59.557-72.805-62.284-10.181A17.87,17.87,0,0,0,367.388,1092.293Z" transform="translate(-33.927 1773.127)" fill="#ff92aa"/>
      <path id="Pfad_5296" data-name="Pfad 5296" d="M601.231,1089.509l-12.662,61.826a96.107,96.107,0,0,0-20.118-33.7c-18.671-20.213-40.989-26.618-50.249-28.716l59.874-19.947A17.87,17.87,0,0,1,601.231,1089.509Z" transform="translate(-56.952 1773.137)" fill="#fc6681"/>
      <rect id="Rechteck_1054" data-name="Rechteck 1054" width="12.883" height="48.062" rx="6.441" transform="translate(318.082 3002.467)" fill="#6c7fbc"/>
      <rect id="Rechteck_1055" data-name="Rechteck 1055" width="12.883" height="48.062" rx="6.441" transform="translate(358.217 3002.467)" fill="#6c7fbc"/>
      <rect id="Rechteck_1056" data-name="Rechteck 1056" width="51.53" height="115.943" rx="18.166" transform="translate(416.684 3118.904)" fill="#ff92aa"/>
      <rect id="Rechteck_1057" data-name="Rechteck 1057" width="51.53" height="115.943" rx="18.166" transform="translate(491.502 3118.904)" fill="#ff92aa"/>
      <rect id="Rechteck_1058" data-name="Rechteck 1058" width="51.53" height="115.943" rx="18.166" transform="translate(623.3 3118.904)" fill="#fc6681"/>
      <path id="Pfad_5297" data-name="Pfad 5297" d="M593.363,1041.916a26.348,26.348,0,0,0-29.481-7.184,31.785,31.785,0,0,0-14.121,11.644c-8.472,12.924-3.636,27.359-2.973,29.233" transform="translate(-60.984 1778.461)" fill="none" stroke="#6c7fbc" stroke-miterlimit="10" stroke-width="12.263"/>
      <line id="Linie_98" data-name="Linie 98" y1="6.441" x2="36.17" transform="translate(485.804 2834.746)" fill="none" stroke="#6c7fbc" stroke-miterlimit="10" stroke-width="12.263"/>
    </g>
  </g>
</svg>
