<svg xmlns="http://www.w3.org/2000/svg" xmlns:xlink="http://www.w3.org/1999/xlink" width="701.678" height="651.077" viewBox="0 0 701.678 651.077">
  <defs>
    <clipPath id="clip-path">
      <path id="Pfad_5374" data-name="Pfad 5374" d="M111.619-28C127.269-28,140-15.52,140-.179a27.554,27.554,0,0,1-6.249,17.405h0L96.769,58.662a7.032,7.032,0,0,1-5.23,2.345h0a7.036,7.036,0,0,1-5.234-2.336C62.051,31.575,49.62,17.68,49.361,17.368A27.79,27.79,0,0,1,43-.179C43-15.52,55.731-28,71.381-28c9.13,0,16.274,5.933,20.119,10.032C95.344-22.067,102.488-28,111.619-28Z" transform="translate(0 0)" fill="none" clip-rule="evenodd"/>
    </clipPath>
    <clipPath id="clip-path-2">
      <path id="Pfad_5373" data-name="Pfad 5373" d="M-274,6640.444H1116.721V-417H-274Z" transform="translate(274 417)" fill="none"/>
    </clipPath>
    <clipPath id="clip-path-3">
      <path id="Pfad_5379" data-name="Pfad 5379" d="M93.539-28a20.723,20.723,0,0,1,20.9,20.491,20.294,20.294,0,0,1-4.6,12.819h0L82.6,35.828a5.179,5.179,0,0,1-3.852,1.727h0A5.182,5.182,0,0,1,74.9,35.834C57.031,15.878,47.876,5.644,47.685,5.415A20.468,20.468,0,0,1,43-7.509,20.723,20.723,0,0,1,63.9-28c6.724,0,11.986,4.37,14.818,7.388C81.552-23.63,86.814-28,93.539-28Z" transform="translate(0 0)" fill="none" clip-rule="evenodd"/>
    </clipPath>
    <clipPath id="clip-path-4">
      <path id="Pfad_5378" data-name="Pfad 5378" d="M-274,4780.91H750.286V-417H-274Z" transform="translate(274 417)" fill="none"/>
    </clipPath>
    <clipPath id="clip-path-5">
      <path id="Pfad_5382" data-name="Pfad 5382" d="M78.031-28A14.364,14.364,0,0,1,92.519-13.8a14.067,14.067,0,0,1-3.19,8.886h0L70.45,16.241a3.59,3.59,0,0,1-2.67,1.2h0a3.592,3.592,0,0,1-2.672-1.193C52.725,2.414,46.38-4.68,46.247-4.839A14.187,14.187,0,0,1,43-13.8,14.364,14.364,0,0,1,57.488-28c4.661,0,8.308,3.029,10.271,5.121C69.722-24.971,73.369-28,78.031-28Z" transform="translate(0 0)" fill="none" clip-rule="evenodd"/>
    </clipPath>
    <clipPath id="clip-path-6">
      <path id="Pfad_5381" data-name="Pfad 5381" d="M-274,3185.863H435.97V-417H-274Z" transform="translate(274 417)" fill="none"/>
    </clipPath>
  </defs>
  <g id="Gruppe_2882" data-name="Gruppe 2882" transform="translate(-151.461 -262.316)">
    <path id="Pfad_5156" data-name="Pfad 5156" d="M325.539,0c179.79,0,325.539,145.749,325.539,325.539S505.329,651.077,325.539,651.077,0,505.329,0,325.539,145.749,0,325.539,0Z" transform="translate(179.461 262.316)" fill="#e7f3f0"/>
    <g id="Gruppe_2873" data-name="Gruppe 2873" transform="translate(10487.572 5081.109)">
      <path id="Pfad_4727" data-name="Pfad 4727" d="M46.294,84.719C21.4,67.8,8.347,52.414,2.993,39.535-11.35,5.02,29.618-11.486,46.294,8.889,62.97-11.486,103.938,5.02,89.6,39.535,84.241,52.414,71.186,67.8,46.294,84.719Z" transform="translate(-10207.042 -4737.611) rotate(45)" fill="#9aa9fb"/>
      <path id="Pfad_4730" data-name="Pfad 4730" d="M46.294,84.719C21.4,67.8,8.347,52.414,2.993,39.535-11.35,5.02,29.618-11.486,46.294,8.889,62.97-11.486,103.938,5.02,89.6,39.535,84.241,52.414,71.186,67.8,46.294,84.719Z" transform="translate(-10141.572 -4608.542) rotate(135)" fill="#9aa9fb"/>
      <path id="Pfad_4728" data-name="Pfad 4728" d="M46.294,84.719C21.4,67.8,8.347,52.414,2.993,39.535-11.35,5.02,29.618-11.486,46.294,8.889,62.97-11.486,103.938,5.02,89.6,39.535,84.241,52.414,71.186,67.8,46.294,84.719Z" transform="translate(-10270.642 -4543.072) rotate(-135)" fill="#9aa9fb"/>
      <path id="Pfad_4729" data-name="Pfad 4729" d="M46.294,84.719C21.4,67.8,8.347,52.414,2.993,39.535-11.35,5.02,29.618-11.486,46.294,8.889,62.97-11.486,103.938,5.02,89.6,39.535,84.241,52.414,71.186,67.8,46.294,84.719Z" transform="translate(-10336.111 -4672.141) rotate(-45)" fill="#9aa9fb"/>
    </g>
    <g id="Gruppe_2877" data-name="Gruppe 2877" transform="matrix(0.819, 0.574, -0.574, 0.819, 6535.896, 10429.221)">
      <path id="Pfad_4727-2" data-name="Pfad 4727" d="M25.353,46.4C11.721,37.132,4.571,28.7,1.639,21.651-6.216,2.749,16.22-6.29,25.353,4.868,34.486-6.29,56.922,2.749,49.067,21.651,46.135,28.7,38.985,37.132,25.353,46.4Z" transform="translate(-10265.427 -4737.611) rotate(45)" fill="#9aa9fb"/>
      <path id="Pfad_4730-2" data-name="Pfad 4730" d="M25.353,46.4C11.721,37.132,4.571,28.7,1.639,21.651-6.216,2.749,16.22-6.29,25.353,4.868,34.486-6.29,56.922,2.749,49.067,21.651,46.135,28.7,38.985,37.132,25.353,46.4Z" transform="translate(-10229.572 -4666.927) rotate(135)" fill="#9aa9fb"/>
      <path id="Pfad_4728-2" data-name="Pfad 4728" d="M25.353,46.4C11.721,37.132,4.571,28.7,1.639,21.651-6.216,2.749,16.22-6.29,25.353,4.868,34.486-6.29,56.922,2.749,49.067,21.651,46.135,28.7,38.985,37.132,25.353,46.4Z" transform="translate(-10300.257 -4631.072) rotate(-135)" fill="#9aa9fb"/>
      <path id="Pfad_4729-2" data-name="Pfad 4729" d="M25.353,46.4C11.721,37.132,4.571,28.7,1.639,21.651-6.216,2.749,16.22-6.29,25.353,4.868,34.486-6.29,56.922,2.749,49.067,21.651,46.135,28.7,38.985,37.132,25.353,46.4Z" transform="translate(-10336.111 -4701.757) rotate(-45)" fill="#9aa9fb"/>
    </g>
    <g id="Gruppe_2875" data-name="Gruppe 2875" transform="matrix(0.891, 0.454, -0.454, 0.891, 611.465, 287.252)" clip-path="url(#clip-path)">
      <g id="Gruppe_2874" data-name="Gruppe 2874" transform="translate(-1132.622 -1470.641)" clip-path="url(#clip-path-2)">
        <path id="Pfad_5372" data-name="Pfad 5372" d="M38-33H172.086V93.092H38Z" transform="translate(1119.079 1457.098)" fill="#ff686d"/>
      </g>
    </g>
    <g id="Gruppe_2879" data-name="Gruppe 2879" transform="translate(599.503 446.637) rotate(-6)" clip-path="url(#clip-path-3)">
      <g id="Gruppe_2878" data-name="Gruppe 2878" transform="translate(-822.863 -1090.526)" clip-path="url(#clip-path-4)">
        <path id="Pfad_5377" data-name="Pfad 5377" d="M38-33h98.756V59.869H38Z" transform="translate(814.206 1081.869)" fill="#ff686d"/>
      </g>
    </g>
    <g id="Gruppe_2881" data-name="Gruppe 2881" transform="translate(544.847 483.133) rotate(29)" clip-path="url(#clip-path-5)">
      <g id="Gruppe_2880" data-name="Gruppe 2880" transform="translate(-557.162 -764.476)" clip-path="url(#clip-path-6)">
        <path id="Pfad_5380" data-name="Pfad 5380" d="M38-33h68.452V31.371H38Z" transform="translate(552.695 760.01)" fill="#ff686d"/>
      </g>
    </g>
    <g id="Gruppe_2876" data-name="Gruppe 2876" transform="translate(2731.218 21196.393) rotate(30)">
      <path id="Pfad_5375" data-name="Pfad 5375" d="M63.155,375.854c-1.048-1.474,2.626-12.582,3.1-14.994,1.16-5.917,2.251-11.848,3.306-17.785,1.871-10.522,2.515-21.672,6.424-31.695,3.349-8.586,9.912-15.826,16.318-22.261,8.912-8.953,17.205-18.283,25.717-27.494,14.56-15.756,29.181-31.587,44.862-46.245,14.042-13.125,37.664-27.787,57.873-24.366a34.666,34.666,0,0,1,10.748,3.909c20.327,11.1,29.991,36.432,27.523,59.461-.136,1.27-.387,2.684-1.425,3.429a4.135,4.135,0,0,1-3.148.39,17.532,17.532,0,0,1-12.064-9.408c-2.264-4.558-1.017-9.848-2.9-14.519-9.886-24.458-42.558,12.216-49.19,21.482-5.453,7.619-9.926,18.167-5.585,27.15,5.467,11.31,18.762,13.566,29.557,17.028,12.992,4.167,21.8,11.2,28.716,22.933,5.975,10.137,6.229,16.6,6.229,22.127s-6.229,0-6.229,0L219.83,328.358s-11.283-7.878-25.522-9.25c-12.534-1.208-24.561.627-35.808,6.959-11.744,6.612-23.826,7.229-37.112,6.033v53.734Z" transform="translate(-12455.401 -17006.883)" fill="#fad0c6"/>
      <path id="Pfad_5375-2" data-name="Pfad 5375" d="M196.249,185.342c1.048-1.474-2.626-12.582-3.1-14.994-1.16-5.917-2.251-11.848-3.306-17.785-1.871-10.522-2.514-21.672-6.424-31.695-3.349-8.586-9.912-15.826-16.318-22.261-8.912-8.953-17.205-18.283-25.717-27.494C126.825,55.359,112.2,39.527,96.522,24.87,82.48,11.744,58.858-2.918,38.649.5A34.666,34.666,0,0,0,27.9,4.413C7.574,15.513-2.09,40.845.378,63.874.514,65.144.765,66.558,1.8,67.3a4.135,4.135,0,0,0,3.148.39,17.532,17.532,0,0,0,12.064-9.408c2.264-4.558,1.017-9.848,2.9-14.519,9.886-24.458,42.558,12.216,49.19,21.482,5.453,7.619,9.926,18.167,5.585,27.15-5.467,11.31-18.762,13.566-29.557,17.028-12.992,4.167-21.8,11.2-28.716,22.933-5.975,10.137-7.7,17.989-7.7,23.52s6.229,0,6.229,0l24.624-18.032s11.283-7.878,25.522-9.25c12.534-1.208,24.561.627,35.808,6.959,11.744,6.612,23.826,7.229,37.112,6.033v53.734Z" transform="translate(-12196.009 -16817.328) rotate(7)" fill="#fad0c6"/>
      <path id="Pfad_5375-3" data-name="Pfad 5375" d="M13.4,0H89.639a13.4,13.4,0,0,1,13.4,13.4V122.73a13.4,13.4,0,0,1-13.4,13.4H13.4A13.4,13.4,0,0,1,0,122.73V13.4A13.4,13.4,0,0,1,13.4,0Z" transform="translate(-11998.452 -16502.607) rotate(176)" fill="#f68f95"/>
      <path id="Pfad_5376" data-name="Pfad 5376" d="M13.4,0H89.639a13.4,13.4,0,0,1,13.4,13.4V122.73a13.4,13.4,0,0,1-13.4,13.4H13.4A13.4,13.4,0,0,1,0,122.73V13.4A13.4,13.4,0,0,1,13.4,0Z" transform="matrix(0.996, 0.087, -0.087, 0.996, -12406.829, -16639.211)" fill="#f68f95"/>
    </g>
  </g>
</svg>
