<svg xmlns="http://www.w3.org/2000/svg" xmlns:xlink="http://www.w3.org/1999/xlink" width="701.678" height="734.029" viewBox="0 0 701.678 734.029">
  <defs>
    <clipPath id="clip-path">
      <path id="Pfad_5374" data-name="Pfad 5374" d="M111.619-28C127.269-28,140-15.52,140-.179a27.554,27.554,0,0,1-6.249,17.405h0L96.769,58.662a7.032,7.032,0,0,1-5.23,2.345h0a7.036,7.036,0,0,1-5.234-2.336C62.051,31.575,49.62,17.68,49.361,17.368A27.79,27.79,0,0,1,43-.179C43-15.52,55.731-28,71.381-28c9.13,0,16.274,5.933,20.119,10.032C95.344-22.067,102.488-28,111.619-28Z" transform="translate(0 0)" fill="none" clip-rule="evenodd"/>
    </clipPath>
    <clipPath id="clip-path-2">
      <path id="Pfad_5373" data-name="Pfad 5373" d="M-274,6640.444H1116.721V-417H-274Z" transform="translate(274 417)" fill="none"/>
    </clipPath>
    <clipPath id="clip-path-3">
      <path id="Pfad_5379" data-name="Pfad 5379" d="M93.539-28a20.723,20.723,0,0,1,20.9,20.491,20.294,20.294,0,0,1-4.6,12.819h0L82.6,35.828a5.179,5.179,0,0,1-3.852,1.727h0A5.182,5.182,0,0,1,74.9,35.834C57.031,15.878,47.876,5.644,47.685,5.415A20.468,20.468,0,0,1,43-7.509,20.723,20.723,0,0,1,63.9-28c6.724,0,11.986,4.37,14.818,7.388C81.552-23.63,86.814-28,93.539-28Z" transform="translate(0 0)" fill="none" clip-rule="evenodd"/>
    </clipPath>
    <clipPath id="clip-path-4">
      <path id="Pfad_5378" data-name="Pfad 5378" d="M-274,4780.91H750.286V-417H-274Z" transform="translate(274 417)" fill="none"/>
    </clipPath>
    <clipPath id="clip-path-5">
      <path id="Pfad_5382" data-name="Pfad 5382" d="M78.031-28A14.364,14.364,0,0,1,92.519-13.8a14.067,14.067,0,0,1-3.19,8.886h0L70.45,16.241a3.59,3.59,0,0,1-2.67,1.2h0a3.592,3.592,0,0,1-2.672-1.193C52.725,2.414,46.38-4.68,46.247-4.839A14.187,14.187,0,0,1,43-13.8,14.364,14.364,0,0,1,57.488-28c4.661,0,8.308,3.029,10.271,5.121C69.722-24.971,73.369-28,78.031-28Z" transform="translate(0 0)" fill="none" clip-rule="evenodd"/>
    </clipPath>
    <clipPath id="clip-path-6">
      <path id="Pfad_5381" data-name="Pfad 5381" d="M-274,3185.863H435.97V-417H-274Z" transform="translate(274 417)" fill="none"/>
    </clipPath>
  </defs>
  <g id="Gruppe_2882" data-name="Gruppe 2882" transform="translate(-151.461 -262.316)">
    <path id="Pfad_5156" data-name="Pfad 5156" d="M325.539,0c179.79,0,325.539,145.749,325.539,325.539S505.329,651.077,325.539,651.077,0,505.329,0,325.539,145.749,0,325.539,0Z" transform="translate(179.461 262.316)" fill="#f1f4fe"/>
    <g id="Gruppe_2873" data-name="Gruppe 2873" transform="translate(10487.572 5081.109)">
      <path id="Pfad_4727" data-name="Pfad 4727" d="M46.294,84.719C21.4,67.8,8.347,52.414,2.993,39.535-11.35,5.02,29.618-11.486,46.294,8.889,62.97-11.486,103.938,5.02,89.6,39.535,84.241,52.414,71.186,67.8,46.294,84.719Z" transform="translate(-10207.042 -4737.611) rotate(45)" fill="#9aa9fb"/>
      <path id="Pfad_4730" data-name="Pfad 4730" d="M46.294,84.719C21.4,67.8,8.347,52.414,2.993,39.535-11.35,5.02,29.618-11.486,46.294,8.889,62.97-11.486,103.938,5.02,89.6,39.535,84.241,52.414,71.186,67.8,46.294,84.719Z" transform="translate(-10141.572 -4608.542) rotate(135)" fill="#9aa9fb"/>
      <path id="Pfad_4728" data-name="Pfad 4728" d="M46.294,84.719C21.4,67.8,8.347,52.414,2.993,39.535-11.35,5.02,29.618-11.486,46.294,8.889,62.97-11.486,103.938,5.02,89.6,39.535,84.241,52.414,71.186,67.8,46.294,84.719Z" transform="translate(-10270.642 -4543.072) rotate(-135)" fill="#9aa9fb"/>
      <path id="Pfad_4729" data-name="Pfad 4729" d="M46.294,84.719C21.4,67.8,8.347,52.414,2.993,39.535-11.35,5.02,29.618-11.486,46.294,8.889,62.97-11.486,103.938,5.02,89.6,39.535,84.241,52.414,71.186,67.8,46.294,84.719Z" transform="translate(-10336.111 -4672.141) rotate(-45)" fill="#9aa9fb"/>
    </g>
    <g id="Gruppe_2877" data-name="Gruppe 2877" transform="matrix(0.819, 0.574, -0.574, 0.819, 6535.896, 10429.221)">
      <path id="Pfad_4727-2" data-name="Pfad 4727" d="M25.353,46.4C11.721,37.132,4.571,28.7,1.639,21.651-6.216,2.749,16.22-6.29,25.353,4.868,34.486-6.29,56.922,2.749,49.067,21.651,46.135,28.7,38.985,37.132,25.353,46.4Z" transform="translate(-10265.427 -4737.611) rotate(45)" fill="#9aa9fb"/>
      <path id="Pfad_4730-2" data-name="Pfad 4730" d="M25.353,46.4C11.721,37.132,4.571,28.7,1.639,21.651-6.216,2.749,16.22-6.29,25.353,4.868,34.486-6.29,56.922,2.749,49.067,21.651,46.135,28.7,38.985,37.132,25.353,46.4Z" transform="translate(-10229.572 -4666.927) rotate(135)" fill="#9aa9fb"/>
      <path id="Pfad_4728-2" data-name="Pfad 4728" d="M25.353,46.4C11.721,37.132,4.571,28.7,1.639,21.651-6.216,2.749,16.22-6.29,25.353,4.868,34.486-6.29,56.922,2.749,49.067,21.651,46.135,28.7,38.985,37.132,25.353,46.4Z" transform="translate(-10300.257 -4631.072) rotate(-135)" fill="#9aa9fb"/>
      <path id="Pfad_4729-2" data-name="Pfad 4729" d="M25.353,46.4C11.721,37.132,4.571,28.7,1.639,21.651-6.216,2.749,16.22-6.29,25.353,4.868,34.486-6.29,56.922,2.749,49.067,21.651,46.135,28.7,38.985,37.132,25.353,46.4Z" transform="translate(-10336.111 -4701.757) rotate(-45)" fill="#9aa9fb"/>
    </g>
    <g id="Gruppe_2875" data-name="Gruppe 2875" transform="matrix(0.891, 0.454, -0.454, 0.891, 611.465, 287.252)" clip-path="url(#clip-path)">
      <g id="Gruppe_2874" data-name="Gruppe 2874" transform="translate(-1132.622 -1470.641)" clip-path="url(#clip-path-2)">
        <path id="Pfad_5372" data-name="Pfad 5372" d="M38-33H172.086V93.092H38Z" transform="translate(1119.079 1457.098)" fill="#ff686d"/>
      </g>
    </g>
    <g id="Gruppe_2879" data-name="Gruppe 2879" transform="translate(595.162 462.621) rotate(-6)" clip-path="url(#clip-path-3)">
      <g id="Gruppe_2878" data-name="Gruppe 2878" transform="translate(-822.863 -1090.526)" clip-path="url(#clip-path-4)">
        <path id="Pfad_5377" data-name="Pfad 5377" d="M38-33h98.756V59.869H38Z" transform="translate(814.206 1081.869)" fill="#ff686d"/>
      </g>
    </g>
    <g id="Gruppe_2881" data-name="Gruppe 2881" transform="translate(580.175 555.994) rotate(10)" clip-path="url(#clip-path-5)">
      <g id="Gruppe_2880" data-name="Gruppe 2880" transform="translate(-557.162 -764.476)" clip-path="url(#clip-path-6)">
        <path id="Pfad_5380" data-name="Pfad 5380" d="M38-33h68.452V31.371H38Z" transform="translate(552.695 760.01)" fill="#ff686d"/>
      </g>
    </g>
    <g id="Gruppe_2876" data-name="Gruppe 2876" transform="matrix(0.921, 0.391, -0.391, 0.921, 5167.024, 20828.277)">
      <path id="Pfad_5375" data-name="Pfad 5375" d="M63.174,395.032c-1.156-1.626,2.9-13.884,3.42-16.546,1.28-6.529,2.483-13.074,3.648-19.625,2.065-11.611,2.775-23.915,7.089-34.974,3.7-9.474,10.937-17.464,18.006-24.564,9.834-9.879,18.986-20.175,28.378-30.339,16.066-17.386,32.2-34.855,49.5-51.03,15.495-14.484,41.562-30.663,63.862-26.888a38.253,38.253,0,0,1,11.86,4.314c22.431,12.249,33.094,40.2,30.371,65.614-.15,1.4-.427,2.962-1.572,3.784a4.563,4.563,0,0,1-3.474.43,19.346,19.346,0,0,1-13.312-10.381c-2.5-5.03-1.123-10.867-3.206-16.021-10.909-26.989-46.961,13.48-54.28,23.7-6.018,8.408-10.954,20.047-6.163,29.96,6.032,12.481,20.7,14.969,32.615,18.79,14.337,4.6,24.055,12.357,31.687,25.306,6.593,11.186,6.873,18.313,6.873,24.417s-6.873,0-6.873,0l-25.548-18.361s-12.45-8.693-28.162-10.208c-13.831-1.333-27.1.691-39.514,7.679-12.96,7.3-26.291,7.977-40.953,6.658v59.294Z" transform="translate(-12452.684 -17006.783)" fill="#fad0c6"/>
      <path id="Pfad_5375-2" data-name="Pfad 5375" d="M216.556,204.521c1.156-1.626-2.9-13.884-3.42-16.546-1.28-6.529-2.483-13.074-3.648-19.625-2.065-11.611-2.775-23.915-7.089-34.974-3.7-9.474-10.937-17.464-18.006-24.564-9.834-9.879-18.986-20.175-28.378-30.339-16.066-17.386-32.2-34.855-49.5-51.03C91.015,12.96,64.948-3.219,42.648.556a38.253,38.253,0,0,0-11.86,4.314C8.358,17.119-2.306,45.071.417,70.483c.15,1.4.427,2.962,1.572,3.784a4.563,4.563,0,0,0,3.474.43A19.346,19.346,0,0,0,18.775,64.316c2.5-5.03,1.123-10.867,3.205-16.021C32.89,21.306,68.942,61.775,76.26,72c6.018,8.408,10.954,20.047,6.163,29.96-6.032,12.481-20.7,14.969-32.615,18.79-14.337,4.6-24.055,12.356-31.687,25.306-6.593,11.186-8.5,19.85-8.5,25.954s6.873,0,6.873,0l27.172-19.9s12.45-8.693,28.162-10.208c13.831-1.333,27.1.691,39.514,7.679,12.96,7.3,26.291,7.977,40.953,6.658v59.294Z" transform="translate(-12172.967 -16817.328) rotate(7)" fill="#fad0c6"/>
      <path id="Pfad_5375-3" data-name="Pfad 5375" d="M14.791,0H98.914a14.791,14.791,0,0,1,14.791,14.791V135.43a14.791,14.791,0,0,1-14.791,14.791H14.791A14.791,14.791,0,0,1,0,135.43V14.791A14.791,14.791,0,0,1,14.791,0Z" transform="translate(-11954.968 -16470.041) rotate(176)" fill="#f68f95"/>
      <path id="Pfad_5376" data-name="Pfad 5376" d="M14.791,0H98.915a14.791,14.791,0,0,1,14.791,14.791V135.43a14.791,14.791,0,0,1-14.791,14.791H14.791A14.791,14.791,0,0,1,0,135.43V14.791A14.791,14.791,0,0,1,14.791,0Z" transform="matrix(0.996, 0.087, -0.087, 0.996, -12405.602, -16620.779)" fill="#f68f95"/>
    </g>
  </g>
</svg>
