<svg xmlns="http://www.w3.org/2000/svg" xmlns:xlink="http://www.w3.org/1999/xlink" width="877.857" height="778.933" viewBox="0 0 877.857 778.933">
  <defs>
    <clipPath id="clip-path">
      <path id="Pfad_5150" data-name="Pfad 5150" d="M.023.023,38.636,0l-.023,38.554L0,38.577Z" fill="none"/>
    </clipPath>
    <clipPath id="clip-path-2">
      <path id="Pfad_5151" data-name="Pfad 5151" d="M0,0,13.7.007,13.715,26.2l-13.7-.007Z" fill="none"/>
    </clipPath>
    <clipPath id="clip-path-3">
      <path id="Pfad_5130" data-name="Pfad 5130" d="M22.727,46.8c6.063-.52,11.476-2.369,13.011-3.467,0-5.74-1.112-7.443-10.612-7.293-2.334-1.233-4.128-3.355-6-6.138q1.239-17.283,6.563-17.283c5.323,0,11.6,4.051,13.933,4.051a35.762,35.762,0,0,0-1.1-5.167C37.59,10.2,32.6,9.731,32.6,7.71s4.186-.369,4.186-1.567A9.7,9.7,0,0,0,31.223.394,7.819,7.819,0,0,0,26.489.342c-3.793.836-7.254,3.287-8.3,6.439q-1.656,5-2.142,20.732a5.166,5.166,0,0,1-.644.039,5.4,5.4,0,0,1-3.775-9.266c-1.25-1.764-2.651-3.607-4.256-5.509C1.345,16.4-3.13,26.987,2.765,37.161c1.63,4.984,5.319,7.647,9.676,8.883A15.672,15.672,0,0,0,22.727,46.8Z" fill="#2f2e41" clip-rule="evenodd"/>
    </clipPath>
    <clipPath id="clip-path-4">
      <path id="Pfad_5134" data-name="Pfad 5134" d="M0,165.691,53.705,75.906,93.969,0h8.672L35.179,165.691Z" fill="none" clip-rule="evenodd"/>
    </clipPath>
    <filter id="Pfad_2647" x="83.917" y="339.401" width="126.576" height="126.543" filterUnits="userSpaceOnUse">
      <feOffset dx="8" dy="8" input="SourceAlpha"/>
      <feGaussianBlur stdDeviation="20" result="blur"/>
      <feFlood flood-color="#6c63ff" flood-opacity="0.078"/>
      <feComposite operator="in" in2="blur"/>
      <feComposite in="SourceGraphic"/>
    </filter>
    <filter id="Pfad_2648" x="81.297" y="341.389" width="135.697" height="133.616" filterUnits="userSpaceOnUse">
      <feOffset dx="8" dy="8" input="SourceAlpha"/>
      <feGaussianBlur stdDeviation="20" result="blur-2"/>
      <feFlood flood-color="#6c63ff" flood-opacity="0.102"/>
      <feComposite operator="in" in2="blur-2"/>
      <feComposite in="SourceGraphic"/>
    </filter>
    <filter id="Pfad_2649" x="81.76" y="340.696" width="131.415" height="135.738" filterUnits="userSpaceOnUse">
      <feOffset dx="8" dy="8" input="SourceAlpha"/>
      <feGaussianBlur stdDeviation="20" result="blur-3"/>
      <feFlood flood-color="#6c63ff" flood-opacity="0.161"/>
      <feComposite operator="in" in2="blur-3"/>
      <feComposite in="SourceGraphic"/>
    </filter>
    <filter id="Pfad_2647-2" x="395.919" y="276.223" width="126.32" height="126.289" filterUnits="userSpaceOnUse">
      <feOffset dx="8" dy="8" input="SourceAlpha"/>
      <feGaussianBlur stdDeviation="20" result="blur-4"/>
      <feFlood flood-color="#6c63ff" flood-opacity="0.078"/>
      <feComposite operator="in" in2="blur-4"/>
      <feComposite in="SourceGraphic"/>
    </filter>
    <filter id="Pfad_2648-2" x="393.401" y="278.133" width="135.086" height="133.086" filterUnits="userSpaceOnUse">
      <feOffset dx="8" dy="8" input="SourceAlpha"/>
      <feGaussianBlur stdDeviation="20" result="blur-5"/>
      <feFlood flood-color="#6c63ff" flood-opacity="0.102"/>
      <feComposite operator="in" in2="blur-5"/>
      <feComposite in="SourceGraphic"/>
    </filter>
    <filter id="Pfad_2649-2" x="393.846" y="277.468" width="130.971" height="135.125" filterUnits="userSpaceOnUse">
      <feOffset dx="8" dy="8" input="SourceAlpha"/>
      <feGaussianBlur stdDeviation="20" result="blur-6"/>
      <feFlood flood-color="#6c63ff" flood-opacity="0.161"/>
      <feComposite operator="in" in2="blur-6"/>
      <feComposite in="SourceGraphic"/>
    </filter>
  </defs>
  <g id="Gruppe_2825" data-name="Gruppe 2825" transform="translate(-110.933 -4501)">
    <path id="Pfad_5156" data-name="Pfad 5156" d="M389.466,0c215.1,0,389.466,174.37,389.466,389.467S604.563,778.933,389.466,778.933,0,604.563,0,389.467,174.37,0,389.466,0Z" transform="translate(160 4501)" fill="#f6f9ff"/>
    <g id="Gruppe_2824" data-name="Gruppe 2824" transform="translate(110.933 4501)">
      <g id="Gruppe_2280" data-name="Gruppe 2280" transform="translate(469.42 120.968)">
        <path id="Pfad_580" data-name="Pfad 580" d="M322.09,451.166c17.874.444,38.025,0,50.373-12.926,9.376-9.812,11.578-24.186,14.734-37.389,5.7-23.835,16.066-46.774,31.813-65.568s37-33.278,60.8-39.122c19.121-4.7,39.231-3.818,58.452-8.045s38.963-15.622,44.279-34.576" transform="translate(-322.09 -212.012)" fill="none" stroke="#9aa9fc" stroke-linecap="round" stroke-miterlimit="10" stroke-width="2" stroke-dasharray="0 6" opacity="0.997" style="isolation: isolate"/>
        <path id="Pfad_581" data-name="Pfad 581" d="M670.5,203.948l-48.23,17.581a.946.946,0,0,0-.184,1.674l7.2,3.993a1.825,1.825,0,0,1,.837,1.088l4.127,13.06c0,.553,1,.837,1.1.3l.578-10.214a3.691,3.691,0,0,1,1.113-1.917l26.505-19.255a.6.6,0,0,1,.527-.067.535.535,0,0,1,.3.7.524.524,0,0,1-.13.191l-23.567,21.491a4.519,4.519,0,0,0-1.08,1.892l-2.512,8.531c0,.77.536,1.147,1.122.536l5.023-4.412a.912.912,0,0,1,1.29-.008l.007.008,9.9,9.711a.9.9,0,0,0,1.279-.005.894.894,0,0,0,.212-.338l15.664-43.3a.913.913,0,0,0-1.155-1.2Z" transform="translate(-370.865 -203.936)" fill="#6c63ff" opacity="0.5" style="isolation: isolate"/>
      </g>
      <path id="Pfad_5144" data-name="Pfad 5144" d="M1.582,20.534c2.267,1.006,6.134-2.776,8.637-8.446S10.647,0,10.647,0,4.513,2.776,2.01,8.446-.685,19.529,1.582,20.534Z" transform="translate(166.355 135.786) rotate(-74)" fill="#5d5cb0"/>
      <path id="Pfad_5145" data-name="Pfad 5145" d="M1.325,17.141c1.9.84,5.137-2.317,7.234-7.05S8.918,0,8.918,0,3.78,2.317,1.684,7.05-.573,16.3,1.325,17.141Z" transform="matrix(0.966, -0.259, 0.259, 0.966, 195.298, 135.616)" fill="#5d5cb0"/>
      <path id="Pfad_5143" data-name="Pfad 5143" d="M.218,16.6C-1.378,12.327,5.956,5.634,16.6,1.648s22.164.511,22.164.511S33.026,13.12,22.383,17.107,1.815,20.864.218,16.6Z" transform="matrix(0.259, -0.966, 0.966, 0.259, 177.209, 118.37)" fill="#5d5cb0"/>
      <g id="Gruppe_381" data-name="Gruppe 381" transform="matrix(0.934, 0.358, -0.358, 0.934, 434.154, 199.689)">
        <path id="Pfad_2510" data-name="Pfad 2510" d="M14.136.027C4,1.148-5.256,36.879,3.485,66.562c6.5,22.089,23.656,43.139,32.377,39.64,9.83-3.945,8.416-38.876,2-63.448C33.915,27.613,23.522-1.011,14.136.027Z" transform="translate(83.101 151.327)" fill="#5d5cb0"/>
        <path id="Pfad_2511" data-name="Pfad 2511" d="M29.787.4C22.218-3.133,4.763,17.424.732,39.037c-1.072,5.747-.8,11.71-.247,23.637a220.37,220.37,0,0,0,5.9,41.9c4.261,17.579,6.39,26.369,8.76,26.431C25.476,131.275,46.072,7.995,29.787.4Z" transform="translate(93.847 217.861)" fill="#5d5cb0"/>
        <path id="Pfad_2512" data-name="Pfad 2512" d="M0,95.8A80.064,80.064,0,0,0,21.26,68.717c14.84-31.811,2.5-68,6.76-68.708.485-.08,1.42.257,4.757,6.574,4.576,8.661,9.656,18.276,11.28,32.346.416,3.609,2.306,22.238-7.613,43.786A93.44,93.44,0,0,1,17.32,109.864Z" transform="translate(76.159 0)" fill="#f6afa1"/>
        <path id="Pfad_2513" data-name="Pfad 2513" d="M38.371,43.993c-5.08,7.237-12.848,18-23.741,18.855C12.644,63,5.6,63.556,2.1,59.166A10.566,10.566,0,0,1,.156,54.437a11.366,11.366,0,0,1,1.357-7.588C2.394,45.427,2.826,45.588,5.14,43c0,0,1.423-1.589,3.311-4.2,6.765-9.366,12.943-22.928,12.943-22.928C23.2,11.9,25.487,6.532,27.8,0l26.18,4.916A93.785,93.785,0,0,1,38.371,43.993Z" transform="translate(75.893 47.912)" fill="#3e3e6b"/>
        <path id="Pfad_2514" data-name="Pfad 2514" d="M62.981,18.612A76.176,76.176,0,0,0,34.188,34.164c-25,22.108-28,58.327-31.979,57.328-.452-.113-1.137-.761-1.644-7.532C-.13,74.679-.9,64.374,3.028,51.5,8.888,32.29,21.115,20.914,26.284,16.213A87.175,87.175,0,0,1,52.062,0a16.293,16.293,0,0,1,6.771,4.325C64.055,9.968,63.145,17.428,62.981,18.612Z" transform="translate(0 99.859)" fill="#fad0c6"/>
        <path id="Pfad_2515" data-name="Pfad 2515" d="M24.252,10.9C30.695,5.792,40.464-1.751,50.392.366c1.81.386,8.231,1.754,10.181,6.59a9.229,9.229,0,0,1,.482,4.729c-.632,4.141-3.882,6.8-4.962,7.71-4.838,4.078-17.161,16.1-34.069,32.614L0,41.608A87.309,87.309,0,0,1,24.252,10.9Z" transform="translate(6.575 99.88)" fill="#4c4981"/>
        <path id="Pfad_2516" data-name="Pfad 2516" d="M0,14.116q2.387-1.43,4.9-2.848Q10.045,8.359,14.983,5.9A184.5,184.5,0,0,1,36.107.486Q37.417.232,38.715,0a70.219,70.219,0,0,0,6.607,7.8c1.627,1.658,3.245,3.143,4.814,4.468A11.57,11.57,0,0,1,54.1,22.829c-.194,1.288-.4,2.666-.615,4.122-2,13.462-2.166,15.324-2.049,17.574.213,4.09,1.366,10.107,6.043,17.361a27.307,27.307,0,0,1,1.011,6.777,26.746,26.746,0,0,1-1.643,8.584C54.543,83.175,38.185,89.714,15.51,89.021c-1.729-10.743-6.594-21.333-8.885-32.7C3.694,41.776,3.37,27.379,0,14.116Z" transform="translate(44.633 91.491)" fill="#4c4981"/>
        <path id="Pfad_2517" data-name="Pfad 2517" d="M18.985,2.075q.538,6.29,1.077,12.58,2.771-.5,5.655-1.095,2.859-.591,5.582-1.228c5.259,3.172,8.041,7.55,7.133,10.923-.61,2.265-2.811,3.579-3.641,4.025-2.409,1.294-4.745,1.034-9.742.134a120.967,120.967,0,0,1-14.842-3.222c-2.635-.8-6.141-1.97-10.207-3.644L6.235,18.1Q4.849,9.05,3.463,0Z" transform="translate(49.181 79.652)" fill="#fad0c6"/>
        <path id="Pfad_2518" data-name="Pfad 2518" d="M2.323,8.572a13.943,13.943,0,0,0,3.75,4.56c4.5,3.379,10.215,2.23,11.514,1.935q-.556-6-1.113-12.009L0,0A18.393,18.393,0,0,0,2.323,8.572Z" transform="translate(51.497 77.819)" fill="#f6afa1"/>
        <path id="Pfad_2519" data-name="Pfad 2519" d="M6.834,0a20.506,20.506,0,0,0,3.588,2.93c2.591,1.665,4.234,1.887,4.439,2.978.28,1.492-2.4,3.157-3.2,3.657C9.907,10.658,6.141,12.495,0,11.895Z" transform="translate(71.185 69.505)" fill="#505072"/>
        <path id="Pfad_5152" data-name="Pfad 5152" d="M10.694,0C16.6,0,21.4,4.543,21.4,10.14A10.416,10.416,0,0,1,10.7,20.269C4.8,20.266,0,15.726,0,10.129A10.416,10.416,0,0,1,10.694,0Z" transform="translate(63.042 70.271) rotate(-105.174)" fill="#505072"/>
        <path id="Pfad_2520" data-name="Pfad 2520" d="M15.859.016A18.055,18.055,0,0,1,26.7,3.129c7.02,4.891,7.99,13.6,8.681,19.8.758,6.807,1.349,12.111-1.976,15.525-5.026,5.161-16.113,3.042-22.771-1.665C1.594,30.4-3.11,16.544,2.289,7.483,6.415.558,15.436.034,15.859.016Z" transform="translate(42.713 46.602)" fill="#fad0c6"/>
        <path id="Pfad_2521" data-name="Pfad 2521" d="M43.047,3.6c-8.869,19.278-15.693,23.382-20.4,23.321-3.505-.045-7.027-.746-7.819.7-1.32,2.417,5.637,8.642,9.756,11.688a45.521,45.521,0,0,0,8.776,5.08,3.614,3.614,0,0,1-.879,1.912c-1.159,1.238-2.493.55-4.874,1.6-1.961.866-2.145,1.812-3.432,1.768-1.323-.045-1.393-1.053-2.905-1.442-2.017-.519-2.963,1-5.346.893-1.371-.062-1.7-.593-3.756-1.491-4.763-2.081-5.8-.456-8.153-2.249,0,0-2.281-1.739-3.793-6.6A5.792,5.792,0,0,1,0,37.656H0a3.425,3.425,0,0,0,2.731-1.132c.927-1.381-.6-3.133-.362-5.794A8.524,8.524,0,0,1,4.431,26.3c4.036-5.618.768-13.389,4.383-19.2C13.6-.579,28.256-1.288,37.746,1.48A29.887,29.887,0,0,1,43.047,3.6Z" transform="translate(31.76 44.516)" fill="#725454"/>
        <path id="Pfad_5146" data-name="Pfad 5146" d="M7.252,0c4,0,7.248,2.345,7.246,5.242S11.25,10.488,7.246,10.49,0,8.146,0,5.249,3.248,0,7.252,0Z" transform="matrix(-0.595, -0.803, 0.803, -0.595, 49.878, 82.964)" fill="#fad0c6"/>
        <g id="Gruppe_378" data-name="Gruppe 378" transform="translate(67.718 67.128)">
          <path id="Pfad_2522" data-name="Pfad 2522" d="M4.332,4.493a1.643,1.643,0,0,0,1.6-.153c.947-.734.508-2.35-.047-3.835a.779.779,0,0,0-1.46.545,5.923,5.923,0,0,1,.5,2c-.342-.073-1.311-.465-3.645-2.4a.779.779,0,0,0-1,1.2A14.131,14.131,0,0,0,4.332,4.493ZM4.9,3.2h0Z" transform="translate(0 0)" fill="#6c7fbc"/>
        </g>
        <path id="Pfad_2523" data-name="Pfad 2523" d="M25.854,1.189c7.727,1.1,22.364,6.456,39.9,18.063C83.8,31.194,92.829,37.109,95.448,48.3c9.329,39.835-63.454,115.416-72.3,102.759a12.807,12.807,0,0,1-1.881-4.914c-1.44-8.592,8.138-21.277,8.138-21.277s6.227-9.467,15.254-29.592c4.087-9.114,7.7-22.044,17.584-36.489-1.267-1.259-40.6-13.046-42.9-14.6-1-.675-6.748-2.037-10.03-6.426C6.7,34.279,3.53,32.407,1.2,23.83S.424,7.661,1.768.431A97.972,97.972,0,0,1,25.854,1.189Z" transform="translate(56.063 170.364) rotate(-3)" fill="#9eadff"/>
        <g id="Gruppe_380" data-name="Gruppe 380" transform="matrix(-0.995, 0.105, -0.105, -0.995, 76.741, 79.93)">
          <g id="Gruppe_379" data-name="Gruppe 379" transform="translate(0 0)">
            <path id="Pfad_2525" data-name="Pfad 2525" d="M.334.256A.684.684,0,0,0,.793,1.518a8.985,8.985,0,0,1,4.73.367A4.326,4.326,0,0,1,7.534,3.471a.685.685,0,0,0,1.142-.757A5.742,5.742,0,0,0,6.047.621,10.39,10.39,0,0,0,.577.168.684.684,0,0,0,.334.256Z" fill="#9eadff"/>
          </g>
        </g>
      </g>
      <g id="Gruppe_386" data-name="Gruppe 386" transform="translate(636.426 627.819) rotate(-172)">
        <path id="Pfad_2552" data-name="Pfad 2552" d="M14.986,132.405a104.615,104.615,0,0,1,19.328.41c13.986,1.253,21.15,2.872,25.541,2.85,22.787-.116,34.165-.12,41.9-8.156C129.286,98.9,95.268-5.59,80.91.234a11.3,11.3,0,0,0-4.092,3.124c-4.756,5.721-2.933,14.926-1.895,22.359,1.512,10.828.8,21.856,1.513,32.767A264.339,264.339,0,0,1,75.829,99.8C69.416,97.5,64.012,95.676,60,94.362c-7.841-2.569-10.374-3.212-11.733-3.542a67.9,67.9,0,0,0-15.958-2.241c-2.6-.02-4.522.135-5.037.178-4.29.363-9.8.829-14.333,3.564-4.207,2.538-6.233,6.22-7.839,9.227C-1.622,114.128-.085,128.81.82,134.724A89.991,89.991,0,0,1,14.986,132.405Z" transform="translate(14.775 26.224)" fill="#4c4981"/>
        <path id="Pfad_2554" data-name="Pfad 2554" d="M0,14.634A82.976,82.976,0,0,1,22.074,42.751c15.4,33.041,2.529,70.656,6.963,71.388.5.083,1.475-.268,4.951-6.837,4.764-9,10.054-19,11.756-33.621.436-3.75,2.418-23.11-7.873-45.49A96.83,96.83,0,0,0,18.019,0Z" transform="translate(32.654 205.67)" fill="#f7c8bc"/>
        <path id="Pfad_2555" data-name="Pfad 2555" d="M34.043,20.062C28.177,9.71,23.479,1.417,15.218.155,14.84.1,6.223-1.065,2.192,3.992A11,11,0,0,0,.163,8.908a11.8,11.8,0,0,0,1.4,7.883c.915,1.476,1.364,1.309,3.767,3.993,0,0,1.477,1.649,3.439,4.365C15.8,34.875,22.205,48.961,22.205,48.961c1.877,4.126,4.245,9.7,6.642,16.485l20.1-2.825a105.949,105.949,0,0,0-1.335-11.346C44.7,34.369,35.921,23.379,34.043,20.062Z" transform="translate(32.382 204.587)" fill="#c7cfdd"/>
        <path id="Pfad_2556" data-name="Pfad 2556" d="M.157,69.541a13.085,13.085,0,0,0,5.5,12.823l.079.054a56.705,56.705,0,0,0,6.87,4.005c4.558,1.367,8.153,2.38,10.66,3.069,1.376.378,3.13.853,5.536,1.6,2.554.789,4.63,1.506,6.018,2q4.394-4.265,9.327-8.663,5.191-4.614,10.193-8.646c-.419-2.754-1-6.625-1.688-11.264C50.588,50.53,50.416,48.6,50.54,46.257c.225-4.251,1.43-10.5,6.3-18.045A28.312,28.312,0,0,0,57.9,21.169a27.754,27.754,0,0,0-1.7-8.919C53.806,6.094,36.807-.686,13.234.056Q10.524,16.8,6.954,34.54C5.763,40.419,4.679,44.618,3.235,52,1.928,58.692.921,64.628.157,69.541Z" transform="translate(2.85 132.235)" fill="#d8dfeb"/>
        <path id="Pfad_2557" data-name="Pfad 2557" d="M18.347,29.242q1.016-6.482,2.032-12.964a6,6,0,0,1,3.577,1.412A60.76,60.76,0,0,1,30.644,8.01c2.409-2.846,4.1-4.306,3.679-5.674C33.583-.062,27.013-.011,25.3,0,20.2.042,11.276,1.219,0,8.755l6.288,2.977Q4.193,21.015,2.1,30.3Z" transform="translate(16.057 210.304)" fill="#fad0c6"/>
        <path id="Pfad_2558" data-name="Pfad 2558" d="M3.032,6.406A14.551,14.551,0,0,1,7.252,1.944C12.169-1.24,18.008.353,19.335.75L17.307,13.12,0,15.129A19.149,19.149,0,0,1,3.032,6.406Z" transform="translate(16.832 227.293)" fill="#f6afa1"/>
        <path id="Pfad_2559" data-name="Pfad 2559" d="M0,15.734c4.28-.9,5.771-2.43,6.306-3.722.323-.777.272-1.4,1.1-4.307a12.913,12.913,0,0,0,.672-2.484C8.1,3.977,7.295,2.215,3.543,0Q1.771,7.867,0,15.734Z" transform="translate(33.646 222.06)" fill="#5d3e3e"/>
        <path id="Pfad_5147" data-name="Pfad 5147" d="M10.541,0c5.817,0,10.528,4.974,10.524,11.119S16.34,22.25,10.524,22.255,0,17.281,0,11.136,4.724,0,10.541,0Z" transform="translate(28.248 251.042) rotate(19.124)" fill="#5d3e3e"/>
        <path id="Pfad_2560" data-name="Pfad 2560" d="M15.314,42.364A18.816,18.816,0,0,0,26.781,39.9c7.636-4.574,9.273-13.529,10.441-19.915,1.281-7,2.278-12.459-.921-16.232-4.836-5.7-16.489-4.29-23.736.12C2.728,9.861-3.158,23.893,1.784,33.667,5.56,41.136,14.878,42.316,15.314,42.364Z" transform="translate(6.589 232.899)" fill="#fad0c6"/>
        <path id="Pfad_2561" data-name="Pfad 2561" d="M38.848,64.676c-7.8-20.61-14.576-25.344-19.465-25.614-3.637-.2-7.342.279-8.057-1.279-1.028-2.239,5.331-6.746,10.966-11.428A147.247,147.247,0,0,0,43.3,4.811,32.556,32.556,0,0,1,32.659,3.462,32.422,32.422,0,0,1,24.967,0,69.69,69.69,0,0,0,11.131,16.379C7.565,22.26-6.53,45.5,3.6,58.621,9.915,66.8,23.719,68.571,33.2,66.5A31.185,31.185,0,0,0,38.848,64.676Z" transform="translate(0 210.184)" fill="#725454"/>
        <path id="Pfad_5148" data-name="Pfad 5148" d="M5.453,0C8.461,0,10.9,3.371,10.892,7.536s-2.446,7.543-5.453,7.546S0,11.711,0,7.546,2.446,0,5.453,0Z" transform="translate(15.526 236.969) rotate(40.487)" fill="#fad0c6"/>
        <path id="Pfad_2562" data-name="Pfad 2562" d="M23.913,150.78a93.691,93.691,0,0,0,40.773-15.307c18.368-12.162,27.563-18.187,30.238-29.57C104.448,65.375,30.457-11.444,21.443,1.438a13.032,13.032,0,0,0-1.917,5C18.053,15.179,31.3,38.083,40.468,58.547A235.1,235.1,0,0,0,61.144,95.265c-.893.886-24.762,5.987-40.056,12.629-6.456,2.8-10.53,8.6-11.559,9.973a35.168,35.168,0,0,0-6.393,15.3Q1.569,142.128,0,151.093A91.209,91.209,0,0,0,23.913,150.78Z" transform="translate(12.834 0)" fill="#5d5cb0"/>
        <g id="Gruppe_385" data-name="Gruppe 385" transform="translate(33.718 240.746)">
          <g id="Gruppe_384" data-name="Gruppe 384" transform="translate(0 0)">
            <path id="Pfad_2564" data-name="Pfad 2564" d="M8.974.454A.711.711,0,0,1,8.408,1.73a9.337,9.337,0,0,0-4.931.045,4.5,4.5,0,0,0-2.2,1.5A.711.711,0,1,1,.147,2.413,5.981,5.981,0,0,1,3.024.429,10.806,10.806,0,0,1,8.729.345.712.712,0,0,1,8.974.454Z" fill="#9eadff"/>
          </g>
        </g>
        <path id="Pfad_2574" data-name="Pfad 2574" d="M1.2,4.8h0A1.2,1.2,0,0,0,2.4,3.6l0-2.4A1.2,1.2,0,0,0,1.2,0h0A1.2,1.2,0,0,0,0,1.2L0,3.6A1.2,1.2,0,0,0,1.2,4.8Z" transform="translate(34.877 256.165) rotate(-165.746)" fill="#6c7fbc"/>
        <path id="Pfad_2565" data-name="Pfad 2565" d="M3.029,23.368c8.849-.608,23.842-.716,39.936,4.644,38.592,12.854,58.485,48.813,62.577,46.226.464-.293.952-1.227-1.549-8.367-3.429-9.789-7.236-20.657-17.579-32.319C70.989,16.161,51.858,9.3,43.82,6.505A119.31,119.31,0,0,0,7.024,0a17.859,17.859,0,0,0-5.76,7.092C-2.13,14.926,2.3,22.219,3.029,23.368Z" transform="translate(11.187 190.61)" fill="#fad0c6"/>
        <path id="Pfad_2566" data-name="Pfad 2566" d="M43.787,3.8c-9.8-2.743-24.56-6.691-35.057-.548C6.815,4.372.026,8.344,0,14.14a9.592,9.592,0,0,0,1.622,5.1c2.923,4.485,7.876,5.719,9.286,6.031a17.441,17.441,0,0,0,6.209.223c9.438-1.241,22.168,2.447,33.064,5.6a146.831,146.831,0,0,1,21.8,8.247c4.657-4.435,10.256-10.764,14.914-15.2C70.391,10.493,53.458,6.508,43.787,3.8Z" transform="translate(3.096 189.719)" fill="#d9e0ec"/>
        <path id="Pfad_2573" data-name="Pfad 2573" d="M6.518,13.015A6.507,6.507,0,1,0,0,6.509,6.518,6.518,0,0,0,6.518,13.015Z" transform="translate(27.802 245.182)" fill="none" stroke="#fc6681" stroke-width="2"/>
      </g>
      <g id="Gruppe_388" data-name="Gruppe 388" transform="translate(290.35 554.237) rotate(19)">
        <g id="Gruppe_387" data-name="Gruppe 387" transform="translate(0 0)" clip-path="url(#clip-path)">
          <path id="Pfad_5149" data-name="Pfad 5149" d="M17.863,0A17.812,17.812,0,0,1,35.7,17.813l0,2.569A17.851,17.851,0,0,1,0,20.4l0-2.569A17.863,17.863,0,0,1,17.863,0Z" transform="translate(0.992 0.08)" fill="#e1e6ff"/>
          <g id="Instagram" transform="translate(-0.03 -0.03)">
            <path id="Pfad_3" data-name="Pfad 3" d="M19.358,3.468a59.3,59.3,0,0,1,7.722.21,9.957,9.957,0,0,1,3.646.641A7.511,7.511,0,0,1,34.37,7.958a9.912,9.912,0,0,1,.642,3.64c0,1.928.213,2.571.21,7.711A59.079,59.079,0,0,1,35,27.02a9.926,9.926,0,0,1-.647,3.641A7.537,7.537,0,0,1,30.708,34.3a9.962,9.962,0,0,1-3.647.645c-1.93,0-2.575.216-7.723.219a59.307,59.307,0,0,1-7.722-.21,9.954,9.954,0,0,1-3.646-.641,7.514,7.514,0,0,1-3.644-3.639,9.923,9.923,0,0,1-.642-3.64c0-1.928-.213-2.57-.21-7.711a59.084,59.084,0,0,1,.219-7.711,9.935,9.935,0,0,1,.647-3.641,7.706,7.706,0,0,1,1.5-2.144,3.626,3.626,0,0,1,2.146-1.5,9.96,9.96,0,0,1,3.647-.645,59.326,59.326,0,0,1,7.723-.219m0-3.426A63.548,63.548,0,0,0,11.422.26,13.27,13.27,0,0,0,6.7,1.119,8.409,8.409,0,0,0,3.271,3.263a8.4,8.4,0,0,0-2.15,3.43A9.753,9.753,0,0,0,.261,11.4a63.287,63.287,0,0,0-.22,7.925,63.27,63.27,0,0,0,.211,7.925,13.191,13.191,0,0,0,.856,4.713,8.369,8.369,0,0,0,2.144,3.425,8.387,8.387,0,0,0,3.43,2.14,13.266,13.266,0,0,0,4.72.855,63.316,63.316,0,0,0,7.935.207,63.546,63.546,0,0,0,7.938-.219,13.275,13.275,0,0,0,4.721-.861,9.007,9.007,0,0,0,5.581-5.572,13.213,13.213,0,0,0,.862-4.714c0-2.14.214-2.783.217-7.924a63.173,63.173,0,0,0-.21-7.925,13.2,13.2,0,0,0-.857-4.713,8.367,8.367,0,0,0-2.143-3.425,8.383,8.383,0,0,0-3.43-2.14A13.252,13.252,0,0,0,27.3.251a63.441,63.441,0,0,0-7.937-.21m-.006,9.424A9.716,9.716,0,0,0,9.48,19q0,.161,0,.321a9.868,9.868,0,1,0,9.874-9.859h0m-.01,16.28a6.307,6.307,0,0,1-6.433-6.189c0-.078,0-.156,0-.234a6.324,6.324,0,0,1,6.206-6.43q.117,0,.234,0a6.307,6.307,0,0,1,6.433,6.189q0,.117,0,.233a6.326,6.326,0,0,1-6.206,6.431c-.078,0-.156,0-.234,0M29.653,6.677a2.356,2.356,0,1,0,2.359,2.355h0a2.374,2.374,0,0,0-2.359-2.355" fill="#7b75ff" fill-rule="evenodd"/>
          </g>
        </g>
      </g>
      <g id="Gruppe_391" data-name="Gruppe 391" transform="translate(343.566 504.17) rotate(-16)">
        <g id="Gruppe_390" data-name="Gruppe 390" transform="translate(0 0)" clip-path="url(#clip-path-2)">
          <g id="Facebook" transform="translate(0.005 -0.008)">
            <g id="Gruppe_389" data-name="Gruppe 389">
              <path id="Pfad_1" data-name="Pfad 1" d="M8.9,26.2,8.893,14.272l4.081,0,.582-4.656-4.665,0V6.706c0-1.31.437-2.328,2.33-2.327H13.7l0-4.22c-.582,0-2.04-.147-3.643-.147A5.613,5.613,0,0,0,4.079,6.12l0,3.493L0,9.612l0,4.656,4.081,0L4.089,26.2Z" fill="#7b75ff" fill-rule="evenodd"/>
            </g>
          </g>
        </g>
      </g>
      <g id="Gruppe_2821" data-name="Gruppe 2821" transform="translate(695.779 212.918) rotate(-9)">
        <path id="Pfad_2536" data-name="Pfad 2536" d="M12.336.053C2.312,1.6-5.31,37.566,4.69,66.739c7.442,21.709,25.421,41.927,33.936,38.071,9.6-4.348,6.648-39.058-.812-63.242C33.217,26.665,21.621-1.383,12.336.053Z" transform="matrix(0.998, 0.07, -0.07, 0.998, 106.435, 148.654)" fill="#423f77"/>
        <path id="Pfad_2537" data-name="Pfad 2537" d="M29.106.338C21-3.031,3.636,19.365.414,42.262c-.857,6.089-.29,12.344.844,24.853a232.2,232.2,0,0,0,8.151,43.766c5.291,18.283,7.937,27.425,10.428,27.383C30.689,138.083,46.551,7.585,29.106.338Z" transform="translate(112.536 212.825) rotate(9)" fill="#423f77"/>
        <path id="Pfad_2538" data-name="Pfad 2538" d="M0,96.562A79.614,79.614,0,0,0,19.936,68.7C33.282,36.395,19.41.9,23.62.014c.478-.1,1.421.195,5.018,6.341,4.932,8.425,10.406,17.778,12.643,31.714.574,3.574,3.275,22.038-5.633,43.911A92.93,92.93,0,0,1,17.84,109.822Z" transform="translate(96.533 0)" fill="#f7c8bc"/>
        <path id="Pfad_2539" data-name="Pfad 2539" d="M0,18.24A45.525,45.525,0,0,1,17.582,8.3Q27.795,4.733,38.08.96L40.689,0A70.051,70.051,0,0,0,47.6,7.479q1.167,1.091,2.32,2.076a19.142,19.142,0,0,1,6.656,16.506c0,.044-.01.089-.014.134-1.393,13.486-1.476,15.346-1.26,17.581.392,4.063,1.8,10,6.774,17.022a14.883,14.883,0,0,1,.643,2.563,18.387,18.387,0,0,1-.64,7.361c-1.316,4.4-5.876,10.383-10.24,13.76C37.576,95.52,10.14,90.47,8.96,90.241c.31-2.834.763-7.047,1.28-12.16.9-8.862,1.224-17.953,1.378-20.145.343-4.875.215-10.782-3.721-21.668A117.32,117.32,0,0,0,0,18.24Z" transform="translate(61.425 90.79)" fill="#3e3e6b"/>
        <path id="Pfad_2540" data-name="Pfad 2540" d="M19.118,1.743,20.39,13.282c.749-.077,1.545-.192,2.381-.36a25.586,25.586,0,0,0,5.12-1.6A71.062,71.062,0,0,0,32.053,22.97c1.438,3.12,2.51,4.806,1.781,6.243-1.251,2.468-6.474,2.071-9.072,1.939C19.7,30.9,10.88,29.344,0,21.361l6.378-2.7Q4.7,9.332,3.015,0Z" transform="translate(74.174 79.469)" fill="#fad0c6"/>
        <path id="Pfad_2541" data-name="Pfad 2541" d="M2.637,8.814a14.473,14.473,0,0,0,4,4.622c4.749,3.379,10.62,2.042,11.956,1.7q-.74-6.2-1.481-12.4L0,0A19.1,19.1,0,0,0,2.637,8.814Z" transform="translate(75.953 77.6)" fill="#f6afa1"/>
        <path id="Pfad_2542" data-name="Pfad 2542" d="M27.521.913C21.148-1.4,12.978.872,7.758,5.556c-17.86,16.022-.187,59.365,6.4,75.52,5.8,14.213,11.552,28.331,17.639,27.757,9.371-.885,13.762-36.052,12.158-62.068C43.017,31.529,41.441,5.966,27.521.913Z" transform="translate(67.059 163.613) rotate(-8)" fill="#4c4981"/>
        <path id="Pfad_2543" data-name="Pfad 2543" d="M115.455,28.806C113.443,21.767,106.74.4,95.935.007a8,8,0,0,0-1.892.155c-3.921.68-9.1,4.041-27.229,18.4-9.192,7.283-13.789,10.924-18.24,14.72A329.554,329.554,0,0,0,17.255,62.848C5.137,76.063-.2,80.279.005,84.587c5.054,9.561,81.705-28.858,95.289-36.9a58.647,58.647,0,0,0,18.88-16.959C114.73,29.932,115.166,29.26,115.455,28.806Z" transform="translate(0 248.765) rotate(-8)" fill="#4c4981"/>
        <path id="Pfad_2546" data-name="Pfad 2546" d="M.114,48.512c1.118-6.5,9.981-9.1,12.8-9.92,2.124-.621,3.525-.723,16-.96,5.564-.105,8.346-.158,10.181-.176C58.762,37.261,95.375-2.989,98.768.177c.365.341,1.6,2.388-1.427,9.011-4.156,9.08-8.2,20.781-18.551,30.843C63.28,55.1,45.836,59.436,38.712,61.121c-12.938,3.06-25.483-.02-32.518-.769C5.594,59.882-.936,54.623.114,48.512Z" transform="translate(61.31 60.519)" fill="#fad0c6"/>
        <ellipse id="Ellipse_132" data-name="Ellipse 132" cx="10.974" cy="10.375" rx="10.974" ry="10.375" transform="translate(86.553 68.397) rotate(-109.209)" fill="#4c4981"/>
        <path id="Pfad_2550" data-name="Pfad 2550" d="M15.06.108a18.49,18.49,0,0,1,11.295,2.41C33.88,7.018,35.5,15.85,36.662,22.147c1.27,6.906,2.259,12.288-.887,16.016C31.017,43.8,19.541,42.424,12.4,38.086,2.705,32.2-3.108,18.363,1.747,8.712,5.457,1.337,14.631.157,15.06.108Z" transform="translate(65.208 44.415)" fill="#fad0c6"/>
        <path id="Pfad_2551" data-name="Pfad 2551" d="M38.023,2.87C30.369,23.217,23.7,27.9,18.885,28.173c-3.049.174-7.013-.506-7.934,1.276-1.07,2.072,2.8,6.186,5.93,9.1-.523.36-5.606,3.735-10.928,1.6a9.657,9.657,0,0,1-4.761-4c-2.741-4.692.082-9.825.243-10.105a10.856,10.856,0,0,1,3.735-3.807C1.136,14.551,2.867,9.962,3.319,8.9,6.667,1.071,21.064-3.19,38.023,2.87Z" transform="translate(58.934 42.02)" fill="#935951"/>
        <ellipse id="Ellipse_133" data-name="Ellipse 133" cx="7.973" cy="5.76" rx="7.973" ry="5.76" transform="matrix(-0.65, -0.76, 0.76, -0.65, 74.981, 82.837)" fill="#fad0c6"/>
        <rect id="Rechteck_324" data-name="Rechteck 324" width="2.577" height="5.154" rx="1.288" transform="translate(94.784 67.579) rotate(158.618)" fill="#6c7fbc"/>
        <g id="Gruppe_393" data-name="Gruppe 393" transform="translate(91.793 73.992)">
          <g id="Gruppe_392" data-name="Gruppe 392" transform="translate(0)">
            <path id="Pfad_2572" data-name="Pfad 2572" d="M.158,1.154A.708.708,0,0,1,1.054.09,9.27,9.27,0,0,0,5.777,1.419,4.481,4.481,0,0,0,8.3.595a.708.708,0,1,1,.837,1.142,5.951,5.951,0,0,1-3.3,1.1A10.731,10.731,0,0,1,.362,1.326.715.715,0,0,1,.158,1.154Z" fill="#9eadff"/>
          </g>
        </g>
      </g>
      <g id="Gruppe_2822" data-name="Gruppe 2822" transform="translate(0 223.176)">
        <path id="Pfad_2526" data-name="Pfad 2526" d="M-5600.578-2919.975c-10.114.771-20.492,36.038-12.776,65.9,5.743,22.219,22.106,43.767,30.893,40.58,9.905-3.594,9.646-38.428,4.077-63.116C-5581.815-2891.83-5591.21-2920.689-5600.578-2919.975Z" transform="translate(5719.343 3125.605)" fill="#3e3e6b"/>
        <path id="Pfad_2527" data-name="Pfad 2527" d="M-5554.669-2532.317c-7.409-3.774-25.443,16.1-30.162,37.489-1.254,5.687-1.177,11.635-1.021,23.53a219.923,219.923,0,0,0,4.494,41.925c3.659,17.651,5.488,26.478,7.843,26.62C-5563.255-2402.13-5538.726-2524.2-5554.669-2532.317Z" transform="translate(5694.607 2807.393)" fill="#3e3e6b"/>
        <path id="Pfad_2528" data-name="Pfad 2528" d="M-5629.478-3662.826a79.6,79.6,0,0,0,22.03-26.241c15.8-31.174,4.714-67.633,8.98-68.193.483-.063,1.4.3,4.513,6.709,4.266,8.781,9,18.529,10.154,32.6.3,3.608,1.562,22.225-9.008,43.345a92.93,92.93,0,0,1-19.907,26.384Z" transform="translate(5730.389 3813.688)" fill="#f4c9be"/>
        <path id="Pfad_2529" data-name="Pfad 2529" d="M-5814.4-3244.394q2.42-1.342,4.962-2.669,5.216-2.722,10.206-5a183.22,183.22,0,0,1,21.183-4.674q1.311-.209,2.609-.4a70.137,70.137,0,0,0,6.315,7.991q1.079,1.179,2.153,2.249a19.142,19.142,0,0,1,5.359,16.971l-.024.133c-2.43,13.338-2.657,15.186-2.615,17.431.077,4.081,1.027,10.111,5.438,17.495a27.2,27.2,0,0,1,.783,6.783,26.665,26.665,0,0,1-1.916,8.493c-2.487,5.823-18.969,11.778-41.494,10.315-1.366-10.757-6.1-21.434-8-32.833C-5811.873-3216.687-5811.482-3231.071-5814.4-3244.394Z" transform="translate(5882.358 3402.673)" fill="#a15da8"/>
        <ellipse id="Ellipse_130" data-name="Ellipse 130" cx="10.084" cy="10.666" rx="10.084" ry="10.666" transform="translate(83.495 98.798) rotate(-13.248)" fill="#ffe577"/>
        <path id="Pfad_2530" data-name="Pfad 2530" d="M-5745.631-3316.146c.6,3.568,1.609,10.536,1.609,10.536l1.422-.152s1.744-.269,2.243-.28c2.146,3.854,4.746,8.439,6.953,11.052,2.4,2.836,4.079,4.29,3.658,5.654-.732,2.374-7.215,2.338-8.98,2.328-5.486-.031-15.65-1.414-29.419-11.073l8.319-3.52q-.984-7.8-1.969-15.593Z" transform="translate(5844.348 3452.033)" fill="#fad0c6"/>
        <path id="Pfad_2531" data-name="Pfad 2531" d="M-5736.868-3318.677a14.448,14.448,0,0,0,4.2,4.446c4.89,3.172,10.7,1.583,12.018,1.187l-2.014-12.327-17.216-2A19.1,19.1,0,0,0-5736.868-3318.677Z" transform="translate(5821.121 3460.394)" fill="#f4c9be"/>
        <path id="Pfad_2532" data-name="Pfad 2532" d="M-5799.765-3533.1a18.68,18.68,0,0,1,11.406,2.451c7.594,4.557,9.221,13.481,10.381,19.844,1.272,6.978,2.263,12.416-.921,16.177-4.812,5.687-16.4,4.28-23.611-.113-9.783-5.963-15.634-19.946-10.716-29.688C-5809.468-3531.872-5800.2-3533.051-5799.765-3533.1Z" transform="translate(5882.856 3629.552)" fill="#fad0c6"/>
        <path id="Pfad_2533" data-name="Pfad 2533" d="M-5813.138-3542.38c-7.762,20.542-14.506,25.262-19.37,25.531-3.62.2-7.3-.275-8.016,1.277-1.022,2.231,5.3,6.722,10.906,11.385a146.6,146.6,0,0,1,20.9,21.466,32.33,32.33,0,0,0-10.587,1.347,32.247,32.247,0,0,0-7.653,3.453,69.374,69.374,0,0,1-13.76-16.32c-3.546-5.859-17.56-29.016-7.479-42.1,6.283-8.152,20.015-9.921,29.443-7.855A30.939,30.939,0,0,1-5813.138-3542.38Z" transform="translate(5913.085 3639.231)" fill="#fff2cc"/>
        <ellipse id="Ellipse_131" data-name="Ellipse 131" cx="5.423" cy="7.508" rx="5.423" ry="7.508" transform="translate(66.99 123.191) rotate(-40.487)" fill="#fad0c6"/>
        <g id="Gruppe_383" data-name="Gruppe 383" transform="translate(94.206 127.367) rotate(-16)">
          <g id="Gruppe_382" data-name="Gruppe 382">
            <path id="Pfad_2534" data-name="Pfad 2534" d="M8.927,3.09a.708.708,0,0,0-.564-1.272,9.277,9.277,0,0,1-4.905-.044A4.478,4.478,0,0,1,1.27.278.708.708,0,1,0,.146,1.14,5.948,5.948,0,0,0,3.007,3.116,10.73,10.73,0,0,0,8.683,3.2.711.711,0,0,0,8.927,3.09Z" fill="#9eadff"/>
          </g>
        </g>
        <path id="Pfad_2535" data-name="Pfad 2535" d="M-6048.929-3192.745a11.387,11.387,0,0,1-5.107,17.709,78,78,0,0,0-22.725,12.909c-27.55,22.787-32.036,61.51-36.266,60.294-.479-.138-1.19-.858-1.494-8.136-.416-9.977-.877-21.054,3.785-34.719,6.953-20.378,20.446-32.126,26.146-36.977a93.211,93.211,0,0,1,28.172-16.438,17.475,17.475,0,0,1,7.1,4.886C-6049.186-3193.06-6049.056-3192.9-6048.929-3192.745Z" transform="translate(6129.206 3354.161)" fill="#fad0c6"/>
        <path id="Pfad_2544" data-name="Pfad 2544" d="M-5728.433-2886.412c-6.373-2.313-14.543-.041-19.763,4.643-17.86,16.023-.187,59.365,6.4,75.521,5.8,14.213,11.552,28.332,17.639,27.757,9.372-.885,13.762-36.052,12.159-62.068C-5712.937-2855.8-5714.512-2881.36-5728.433-2886.412Z" transform="translate(5834.329 3098.762)" fill="#4c4981"/>
        <path id="Pfad_2545" data-name="Pfad 2545" d="M-6080.221-2437.673c-2.012-7.039-8.714-28.405-19.52-28.8a8,8,0,0,0-1.893.155c-3.921.681-9.1,4.041-27.228,18.4-9.192,7.283-13.789,10.924-18.241,14.72a329.572,329.572,0,0,0-31.319,29.562c-12.119,13.215-18.344,19.669-17.25,21.74,5.054,9.561,81.706-28.858,95.29-36.9a58.657,58.657,0,0,0,18.881-16.96C-6080.946-2436.547-6080.509-2437.219-6080.221-2437.673Z" transform="translate(6195.794 2752.906)" fill="#4c4981"/>
        <path id="Pfad_2547" data-name="Pfad 2547" d="M-5347.559-3828.531c7.644-1.48,17.6-2.268,22.572,2.914,6.937,7.224-7.787,26.727,4.936,38.543s31.119,16.1,45.956,8.723c6.367-3.167,25.32-13.245,36.064-33.832,9.561-18.323,5.061-47.952,24.572-60.983" transform="translate(5498.706 3873.166)" fill="none" stroke="#9eadff" stroke-miterlimit="10" stroke-width="2"/>
        <g id="Gruppe_2278" data-name="Gruppe 2278" transform="translate(114.339 43.588)">
          <path id="Pfad_4815" data-name="Pfad 4815" d="M3.1,0H26.657a3.1,3.1,0,0,1,3.1,3.1V6.817a3.1,3.1,0,0,1-3.1,3.1H3.1A3.1,3.1,0,0,1,0,6.817V3.1A3.1,3.1,0,0,1,3.1,0Z" transform="matrix(-0.813, 0.582, -0.582, -0.813, 35.236, 8.418)" fill="#fc6681"/>
          <path id="Pfad_2548" data-name="Pfad 2548" d="M-5395.763-3828.95l-6.581,1.4a2.116,2.116,0,0,0-1.281,3.3l3.129,4.374a2.116,2.116,0,0,0,3.537-.146l3.453-5.775A2.116,2.116,0,0,0-5395.763-3828.95Z" transform="translate(5430.768 3829.051)" fill="#fff2cc"/>
          <path id="Pfad_2549" data-name="Pfad 2549" d="M-5363.4-3829.033l.982-.209a2.116,2.116,0,0,1,2.257,3.156l-.6,1.01Z" transform="translate(5397.384 3829.291)" fill="#5d5cb0"/>
          <path id="Pfad_4816" data-name="Pfad 4816" d="M2.355,0H7.731a2.355,2.355,0,0,1,2.355,2.355V7.731a2.355,2.355,0,0,1-2.355,2.355H2.355A2.355,2.355,0,0,1,0,7.731V2.355A2.355,2.355,0,0,1,2.355,0Z" transform="matrix(0.582, 0.813, -0.813, 0.582, 8.203, 15.428)" fill="#9eadff"/>
        </g>
        <rect id="Rechteck_328" data-name="Rechteck 328" width="2.577" height="5.154" rx="1.288" transform="matrix(0.866, -0.5, 0.5, 0.866, 93.04, 115.973)" fill="#6c7fbc"/>
      </g>
      <g id="Gruppe_2279" data-name="Gruppe 2279" transform="translate(473.108 0)">
        <path id="e24a4cac-c114-4ef1-b0f1-484d7a954399" d="M418.408,404.58a6.968,6.968,0,1,1-6.968,6.968h0a6.967,6.967,0,0,1,6.968-6.968Zm-.937,2.516h0a.6.6,0,0,0-.542.379,2,2,0,0,0,0,1.548,3.958,3.958,0,0,0,.333.774s.085.124-.194.124H415.28a.55.55,0,0,0-.516.581.433.433,0,0,0,0,.046.581.581,0,0,0,.379.565m0,.039h0a.658.658,0,0,0-.372.534.488.488,0,0,0,.426.542v.039h0a.543.543,0,0,0-.279.519.449.449,0,0,0,.356.449m0,.039h0a.472.472,0,0,0-.186.426.439.439,0,0,0,.1.286.457.457,0,0,0,.356.163h3.871s.2,0,.2-.271v-2.524a3.267,3.267,0,0,0-.5-1.757,7.742,7.742,0,0,0-.9-1.1c-.054-.062-.255-.232-.255-.333v-.689a.418.418,0,0,0-.448-.386.337.337,0,0,0-.047.006Zm6.6-2.493h-1.548a.225.225,0,0,0-.217.217v3.523a.209.209,0,0,0,.2.217h1.564a.216.216,0,0,0,.217-.217v-3.507a.225.225,0,0,0-.217-.232Z" transform="translate(-393.679 -179.522)" fill="#9aa9fb"/>
        <path id="Pfad_582" data-name="Pfad 582" d="M404.716,396.909a.774.774,0,0,0,1.095,0l0,0,.426-.379c3.445-3.167,5.42-5.218,5.42-7.781a3.413,3.413,0,0,0-3.4-3.708,3.965,3.965,0,0,0-3.012,1.417,3.965,3.965,0,0,0-3.012-1.417,3.418,3.418,0,0,0-3.4,3.708c0,2.563,1.99,4.645,5.42,7.781Z" transform="translate(-370.209 -175.11)" fill="#ff696e"/>
        <path id="b3207b66-b034-4ba3-87a2-1b15ea8d219a" d="M392.408,357.58a6.968,6.968,0,1,1-6.968,6.968h0A6.968,6.968,0,0,1,392.408,357.58Zm-.937,2.516h0a.6.6,0,0,0-.542.379,2,2,0,0,0,0,1.548,3.956,3.956,0,0,0,.333.774s.085.124-.194.124H389.28a.55.55,0,0,0-.516.581.448.448,0,0,0,0,.046.58.58,0,0,0,.379.565m0,.039h0a.658.658,0,0,0-.372.534.488.488,0,0,0,.426.542v.039h0a.543.543,0,0,0-.279.519.449.449,0,0,0,.356.449m0,.039h0a.472.472,0,0,0-.186.426.439.439,0,0,0,.1.287.457.457,0,0,0,.356.163h3.871s.2,0,.2-.271v-2.524a3.268,3.268,0,0,0-.5-1.758,7.748,7.748,0,0,0-.9-1.1c-.054-.062-.256-.232-.256-.333v-.689a.418.418,0,0,0-.448-.386.311.311,0,0,0-.047.006Zm6.6-2.493h-1.548a.225.225,0,0,0-.217.217v3.523a.209.209,0,0,0,.2.217h1.564a.216.216,0,0,0,.217-.217v-3.507a.225.225,0,0,0-.217-.232Z" transform="translate(-347.55 -168.91)" fill="#9aa9fb"/>
        <path id="Pfad_583" data-name="Pfad 583" d="M412.716,352.909a.774.774,0,0,0,1.095,0l0,0,.426-.379c3.445-3.167,5.42-5.218,5.42-7.781a3.413,3.413,0,0,0-3.4-3.708,3.965,3.965,0,0,0-3.012,1.417,3.965,3.965,0,0,0-3.012-1.417,3.418,3.418,0,0,0-3.4,3.708c0,2.563,1.99,4.645,5.42,7.781Z" transform="translate(-384.403 -165.176)" fill="#ff696e"/>
        <path id="feabcd7f-6126-41fb-ad46-089c31a748ff" d="M392.166,245.29a12.5,12.5,0,1,1-12.5,12.511v-.008h0a12.5,12.5,0,0,1,12.488-12.5Zm-1.672,4.5h0a1.083,1.083,0,0,0-.968.689,3.6,3.6,0,0,0-.039,2.749,7.692,7.692,0,0,0,.6,1.378s.155.232-.348.225h-3.2a1,1,0,0,0-.921,1.071c0,.022,0,.045.008.067a1.03,1.03,0,0,0,.674,1,.047.047,0,0,1,0,.066l0,0h0a1.184,1.184,0,0,0-.666.96.875.875,0,0,0,.771.968h0a.054.054,0,0,1,.039.062h0a.968.968,0,0,0-.511.914.844.844,0,0,0,.643.813.063.063,0,0,1,.039.07h0a.868.868,0,0,0,.44,1.55l.048,0h6.86s.372,0,.372-.5V257.36a6,6,0,0,0-.9-3.143,17.2,17.2,0,0,0-1.61-1.967c-.1-.1-.465-.418-.465-.588v-1.231a.774.774,0,0,0-.867-.643Zm7.874,6.6h-2.756a.4.4,0,0,0-.395.395h0v6.294a.4.4,0,0,0,.395.395h2.748a.387.387,0,0,0,.387-.387v-6.31a.387.387,0,0,0-.379-.387Z" transform="translate(-348.384 -143.558)" fill="#9aa9fb"/>
        <path id="bc5fd902-9ec8-4b40-b095-3159fb5c2e67" d="M375.4,113.89a20.13,20.13,0,1,1-20.13,20.13h0A20.13,20.13,0,0,1,375.4,113.89Zm-2.694,7.247h0a1.733,1.733,0,0,0-1.548,1.115,5.791,5.791,0,0,0-.07,4.429,12.9,12.9,0,0,0,.96,2.23s.263.372-.557.356h-5.149a1.6,1.6,0,0,0-1.491,1.706c0,.04.007.081.012.121a1.672,1.672,0,0,0,1.092,1.618.077.077,0,0,1,.051.1l0,.012a.048.048,0,0,1-.039.046,1.927,1.927,0,0,0-1.076,1.548,1.416,1.416,0,0,0,1.239,1.548.093.093,0,0,1,.062.108.07.07,0,0,1-.046.046,1.548,1.548,0,0,0-.774,1.487,1.371,1.371,0,0,0,1.03,1.308.085.085,0,0,1,.064.1l0,.006a.112.112,0,0,1-.039.046,1.347,1.347,0,0,0-.534,1.208,1.307,1.307,0,0,0,.294.844,1.325,1.325,0,0,0,1.038.472h11.048s.6,0,.6-.774v-7.27a9.6,9.6,0,0,0-1.448-5.071,25.8,25.8,0,0,0-2.6-3.159c-.155-.178-.774-.681-.774-.952s-.039-.929-.054-1.99a1.232,1.232,0,0,0-1.237-1.225l-.048,0Zm12.674,10.653h-4.428a.635.635,0,0,0-.635.627v10.158a.635.635,0,0,0,.635.635h4.428a.635.635,0,0,0,.635-.635h0V132.417A.635.635,0,0,0,385.379,131.79Z" transform="translate(-320.345 -113.89)" fill="#9aa9fb"/>
        <path id="Pfad_584" data-name="Pfad 584" d="M372.792,321.245a1.471,1.471,0,0,0,1.966,0l.774-.681c6.194-5.66,9.732-9.337,9.732-13.936,0-3.739-2.361-6.627-6.078-6.627a7.076,7.076,0,0,0-5.42,2.524,7.092,7.092,0,0,0-5.42-2.524c-3.716,0-6.078,2.888-6.078,6.627,0,4.576,3.561,8.253,9.732,13.936Z" transform="translate(-315.499 -155.91)" fill="#ff696e"/>
        <path id="Pfad_585" data-name="Pfad 585" d="M421.519,231.544a2.323,2.323,0,0,0,3.167,0l1.216-1.1c9.949-9.128,15.693-15.059,15.693-22.452,0-6.031-3.817-10.692-9.8-10.692a11.442,11.442,0,0,0-8.694,4.08,11.428,11.428,0,0,0-8.687-4.08c-5.992,0-9.8,4.645-9.8,10.692,0,7.378,5.745,13.309,15.693,22.452Z" transform="translate(-404.61 -132.722)" fill="#ff696e"/>
      </g>
      <ellipse id="Ellipse_195" data-name="Ellipse 195" cx="141.023" cy="14.27" rx="141.023" ry="14.27" transform="matrix(-1, -0.017, 0.017, -1, 572.23, 713.373)" fill="#9aa9fb" opacity="0.2"/>
      <g id="Gruppe_377" data-name="Gruppe 377" transform="translate(408.697 619.828) rotate(8)">
        <path id="Pfad_2506" data-name="Pfad 2506" d="M0,54.862l7.239,1.411Q12.691,28.136,18.145,0H12.688A2.393,2.393,0,0,0,10.34,1.934Z" transform="translate(12.685 0.296)" fill="#6c7fbc"/>
        <path id="Pfad_2507" data-name="Pfad 2507" d="M1.337,7.711l86.656-.023a1.7,1.7,0,0,0,1.524-2.462l-1.35-2.7A4.585,4.585,0,0,0,84.065,0L2.018.288A2.021,2.021,0,0,0,.066,2.815Z" transform="translate(23.989 0)" fill="#6c7fbc"/>
        <path id="Pfad_5153" data-name="Pfad 5153" d="M3.472.062,95.027,0a3.453,3.453,0,1,1,0,6.906L3.467,6.968a3.453,3.453,0,1,1,0-6.906Z" transform="translate(98.495 61.579) rotate(-180)" fill="#6c7fbc"/>
        <path id="Pfad_2508" data-name="Pfad 2508" d="M2.522,52.11l82.592-.022a2.522,2.522,0,0,0,2.478-2.048l8.96-47.054A2.517,2.517,0,0,0,94.075,0L11.483.022A2.523,2.523,0,0,0,9,2.071L.045,49.125A2.518,2.518,0,0,0,2.522,52.11Z" transform="translate(17.282 3.844)" fill="#9eadff"/>
        <path id="Pfad_5154" data-name="Pfad 5154" d="M5.419,0A5.4,5.4,0,1,1,0,5.409,5.4,5.4,0,0,1,5.419,0Z" transform="translate(61.908 24.664)" fill="#fff"/>
      </g>
      <g id="Gruppe_2820" data-name="Gruppe 2820" transform="translate(211.395 152.514)">
        <path id="Pfad_4104" data-name="Pfad 4104" d="M18.1,46.978c4.778-1.74,5.83-6.139,10.635-15.544C38.79,11.751,48.1,3.781,45.6.823,43.944-1.139,38.582.864,35.353,2.1,16,9.523-3.941,29.65.673,40.479c2.4,5.637,11.425,8.685,17.426,6.5" transform="matrix(-0.819, 0.574, -0.574, -0.819, 185.837, 111.94)" fill="#f7c8bc"/>
        <path id="Pfad_4107" data-name="Pfad 4107" d="M17.2,17.562C19.2,12.576,17.04,8.087,19.035,3.1,12.179,2.1,11.3,1,4.448,0L0,20.928l17.2-3.366" transform="matrix(-0.978, 0.208, -0.208, -0.978, 106.089, 66.26)" fill="#fad0c6"/>
        <path id="Pfad_4109" data-name="Pfad 4109" d="M10.854,5.589C13.685,3.6,18.265.464,24.759.1,28.05-.084,32.9-.343,35.737,2.662c4.482,4.744.853,14.355-1.464,20.492-2.136,5.658-3.419,9.054-6.953,11.71C20.862,39.718,9,40.512,3.169,33.4c-4.833-5.9-3.243-14.144-1.1-18.662,2.118-4.463,5.517-6.853,8.782-9.148" transform="matrix(-0.978, 0.208, -0.208, -0.978, 114.663, 49.646)" fill="#fad0c6"/>
        <path id="Pfad_4111" data-name="Pfad 4111" d="M399.589,80.4a11.025,11.025,0,0,1-1.927,1.268c-5.765,3.094-12.173,1.929-21.47-.331-9.323-2.266-15.132-4.377-26.749-8.6-4.723-1.716-7.7-2.883-9.337-6.076-2.234-4.361-.636-9.908,1.243-14.579,8.344-20.744,30.928-45.962,35.249-42.7,1.761,1.329-1.386,10.711-7.68,29.474-1.546,4.611-2.945,8.5-4.023,11.416,4.2.855,10.388,2.046,17.935,3.244,14.88,2.363,18.405,2.157,20.767,5.722,3.669,5.538,1.7,16.331-4.008,21.159" transform="translate(-317.344 16.152)" fill="#fad0c6"/>
        <path id="Pfad_4112" data-name="Pfad 4112" d="M.864,5.273h0A1.4,1.4,0,0,1,.1,3.448L1.171.864A1.4,1.4,0,0,1,3.755,1.93L2.689,4.514a1.4,1.4,0,0,1-1.825.759" transform="translate(85.531 30.615) rotate(171)" fill="#5d5cb0"/>
        <path id="Pfad_5128" data-name="Pfad 5128" d="M401.229,227.6a11.508,11.508,0,0,1-2.011,1.324c-6.016,3.229-12.7,2.013-22.408-.346-9.731-2.365-15.793-4.568-27.917-8.975-4.929-1.791-8.037-3.009-9.745-6.341-2.331-4.551,27-20.148,25.872-17.1,4.385.892,10.841,2.135,18.718,3.386,15.53,2.466,19.209,2.251,21.674,5.972,3.829,5.78,1.771,17.044-4.183,22.083" transform="translate(-316.381 -129.712)" fill="#d6ddea"/>
        <path id="Pfad_4103" data-name="Pfad 4103" d="M41.9,47.563a90.8,90.8,0,0,1-14.88-9.754C11.744,25.519-3.228,6.48.608,1.337c2.484-3.33,12.28-.072,29.73,5.732a230.491,230.491,0,0,1,22.906,9Z" transform="matrix(-0.819, 0.574, -0.574, -0.819, 165.5, 82.953)" fill="#c7cfdd"/>
        <g id="Gruppe_2810" data-name="Gruppe 2810" transform="matrix(-0.951, -0.309, 0.309, -0.951, 108.498, 64.391)">
          <g id="Gruppe_2809" data-name="Gruppe 2809" clip-path="url(#clip-path-3)">
            <path id="Pfad_5129" data-name="Pfad 5129" d="M0,56H48.032V0H0Z" transform="translate(-4.502 -4.157)" fill="#2f2e41"/>
          </g>
        </g>
        <path id="Pfad_5127" data-name="Pfad 5127" d="M29.363,18.619a11.7,11.7,0,0,1-2.969-1.542c-.9-.666-1.82-1.318-2.771-1.916a16.008,16.008,0,0,0-6.1-2.477l-.2-.027c-1.827-.236-3.9-.085-5.255-1.334a5.247,5.247,0,0,1-1.236-4.354A21.824,21.824,0,0,0,11.157,2.3C11.019,1.264,10.414.112,9.371.007A2.774,2.774,0,0,0,7.411.9,21.395,21.395,0,0,0,3.55,28.9c3.051,4.609,8.235,8.033,13.762,7.963,5.89-.074,11.094-3.9,16.908-4.855,1-.163,2.213-.4,2.525-1.36.088-.271.1-.6.326-.773.5-.393,1.037.414,1.542.8a1.774,1.774,0,0,0,2.243-.339,5.17,5.17,0,0,0,1.084-2.2l.822,1.127a7.259,7.259,0,0,0-6.433-10.587c-1.631,0-3.257.541-4.872.31a5.116,5.116,0,0,1-2.372-1.017,5.368,5.368,0,0,1-.948-.935c-.168-.213-.448-.938-.76-.869-.388.086.022,1.149.1,1.4s.359,1.243.815.993" transform="translate(110.656 50.498) rotate(-158)" fill="#2f2e41"/>
        <g id="Gruppe_2819" data-name="Gruppe 2819" transform="matrix(-1, -0.017, 0.017, -1, 191.634, 339.565)">
          <path id="Pfad_5139" data-name="Pfad 5139" d="M13.084,14.066S-.79,8.541.035,5.462,15.146,1.336,15.146,1.336C54.1-2.08,77.462,1.2,86.243,9.551s18.789,39.575,30.024,93.666H71.225Q60.548,36.777,59.286,33.988C58.446,32.128,44.2,25.223,13.084,14.066Z" transform="translate(0 68.267)" fill="#3c3976" fill-rule="evenodd"/>
          <path id="Pfad_5140" data-name="Pfad 5140" d="M91.717,11.238S102.023-1.174,106.2.09s-.538,17.414-.538,17.414S92.133,62.309,81.5,88.615s-22.055,51.693-34.262,76.16H0A742.836,742.836,0,0,1,43.164,80.411,571.013,571.013,0,0,1,91.717,11.238Z" transform="translate(61.849 15.021) rotate(-8)" fill="#4c4981" fill-rule="evenodd"/>
        </g>
        <path id="Pfad_5142" data-name="Pfad 5142" d="M76.548-1.354c-49.185,8.83-58.733,3.155-75.6,0-3.455,0-2.8-4.988-2.3-7.506C4.4-37.911,26.9-69.227,26.9-110.58a21.481,21.481,0,0,0,10.617,1.407c5.452-.855,11.19-4.826,11.19-4.826C66.748-84.99,79.327-55.533,76.548-1.354Z" transform="translate(55.22 175.41)" fill="#d6ddea" fill-rule="evenodd"/>
      </g>
      <g id="Alle_Krebsarten" data-name="Alle Krebsarten" transform="matrix(0.978, -0.208, 0.208, 0.978, 128.995, 393.326)">
        <g id="Gruppe_419" data-name="Gruppe 419" transform="matrix(0.616, -0.788, 0.788, 0.616, 0, 11.851)">
          <g transform="matrix(0.44, 0.9, -0.9, 0.44, 306.31, -295.66)" filter="url(#Pfad_2647)">
            <path id="Pfad_2647-3" data-name="Pfad 2647" d="M0,.986a3.49,3.49,0,0,1,1.777.267,2.474,2.474,0,0,1,1.045.758,2.554,2.554,0,0,1,.472,1.338,3.653,3.653,0,0,1-.163,1.592A9.066,9.066,0,0,0,4.8,2.223a1.8,1.8,0,0,0,.027-.842A1.764,1.764,0,0,0,4.477.663a1.827,1.827,0,0,0-.7-.519A2,2,0,0,0,2.974,0a2.462,2.462,0,0,0-.982.243C1.546.439.915.689,0,.986Z" transform="translate(135.92 395.78) rotate(-64)" fill="#8695eb"/>
          </g>
          <g transform="matrix(0.44, 0.9, -0.9, 0.44, 306.31, -295.66)" filter="url(#Pfad_2648)">
            <path id="Pfad_2648-3" data-name="Pfad 2648" d="M8.7,0a.431.431,0,0,1-.079.032A5.793,5.793,0,0,0,7.371.653a2.8,2.8,0,0,0-.783,1.064A5.641,5.641,0,0,0,6.116,2.9c-.3,1.058-.63,2.108-.924,3.168-.219.788-.211.677-.717,2.339-.273.9-.658,2.185-1.106,3.774L1.942,11.82,0,13.22C1.574,9.074,2.215,7.106,2.488,6.1A17.961,17.961,0,0,1,3.266,3.91a5.129,5.129,0,0,1,.8-1.522A4.912,4.912,0,0,1,5.33,1.346,9.744,9.744,0,0,1,6.922.567c.448-.188.737-.285.911-.339A7.255,7.255,0,0,1,8.7,0Z" transform="translate(133.3 401.21) rotate(-64)" fill="#9eadff"/>
          </g>
          <g transform="matrix(0.44, 0.9, -0.9, 0.44, 306.31, -295.66)" filter="url(#Pfad_2649)">
            <path id="Pfad_2649-3" data-name="Pfad 2649" d="M14.847,0A.432.432,0,0,0,14.8.069a5.8,5.8,0,0,1-.89,1.077,2.8,2.8,0,0,1-1.214.52,5.629,5.629,0,0,1-1.254.19c-1.1.053-2.194.132-3.292.177-.817.033-.707.051-2.439.164-.935.061-2.276.142-3.924.215l.021,1.472L0,5.459c4.393-.586,6.453-.762,7.5-.8A17.923,17.923,0,0,0,9.8,4.4a5.121,5.121,0,0,0,1.663-.434,4.912,4.912,0,0,0,1.3-.992A9.753,9.753,0,0,0,13.889,1.6c.286-.394.445-.653.538-.81A7.27,7.27,0,0,0,14.847,0Z" transform="translate(133.76 406.04) rotate(-64)" fill="#9eadff"/>
          </g>
        </g>
      </g>
      <g id="Alle_Krebsarten-2" data-name="Alle Krebsarten" transform="matrix(0.978, -0.208, 0.208, 0.978, 441.266, 330.073)">
        <g id="Gruppe_419-2" data-name="Gruppe 419" transform="matrix(0.616, -0.788, 0.788, 0.616, 0, 11.39)">
          <g transform="matrix(0.44, 0.9, -0.9, 0.44, 112.2, -548.31)" filter="url(#Pfad_2647-2)">
            <path id="Pfad_2647-4" data-name="Pfad 2647" d="M0,.948A3.354,3.354,0,0,1,1.708,1.2a2.378,2.378,0,0,1,1,.729,2.454,2.454,0,0,1,.454,1.286,3.511,3.511,0,0,1-.157,1.53A8.714,8.714,0,0,0,4.618,2.136a1.732,1.732,0,0,0,.026-.809A1.7,1.7,0,0,0,4.3.637a1.756,1.756,0,0,0-.668-.5A1.917,1.917,0,0,0,2.858,0a2.366,2.366,0,0,0-.943.234C1.486.422.88.662,0,.948Z" transform="translate(447.92 332.43) rotate(-64)" fill="#8695eb"/>
          </g>
          <g transform="matrix(0.44, 0.9, -0.9, 0.44, 112.2, -548.31)" filter="url(#Pfad_2648-2)">
            <path id="Pfad_2648-4" data-name="Pfad 2648" d="M8.363,0a.414.414,0,0,1-.076.03,5.567,5.567,0,0,0-1.2.6A2.69,2.69,0,0,0,6.331,1.65a5.422,5.422,0,0,0-.453,1.133C5.588,3.8,5.273,4.809,4.99,5.828c-.21.757-.2.651-.689,2.248-.263.863-.632,2.1-1.063,3.628l-1.371-.343L0,12.706C1.512,8.721,2.129,6.83,2.391,5.859a17.262,17.262,0,0,1,.748-2.1A4.93,4.93,0,0,1,3.91,2.3a4.721,4.721,0,0,1,1.213-1A9.365,9.365,0,0,1,6.652.545c.431-.181.708-.273.876-.326A6.972,6.972,0,0,1,8.363,0Z" transform="translate(445.4 337.65) rotate(-64)" fill="#9eadff"/>
          </g>
          <g transform="matrix(0.44, 0.9, -0.9, 0.44, 112.2, -548.31)" filter="url(#Pfad_2649-2)">
            <path id="Pfad_2649-4" data-name="Pfad 2649" d="M14.269,0a.415.415,0,0,0-.047.067A5.572,5.572,0,0,1,13.367,1.1a2.687,2.687,0,0,1-1.167.5,5.41,5.41,0,0,1-1.206.183c-1.055.051-2.109.127-3.164.17-.785.032-.68.049-2.344.158-.9.059-2.187.136-3.772.207l.021,1.415L0,5.246c4.222-.564,6.2-.732,7.207-.766a17.226,17.226,0,0,0,2.215-.248,4.921,4.921,0,0,0,1.6-.417,4.721,4.721,0,0,0,1.251-.954,9.374,9.374,0,0,0,1.078-1.319c.274-.378.428-.628.517-.779A6.987,6.987,0,0,0,14.269,0Z" transform="translate(445.85 342.29) rotate(-64)" fill="#9eadff"/>
          </g>
        </g>
      </g>
      <g id="Gruppe_2236" data-name="Gruppe 2236" transform="translate(359.518 40.577)">
        <g id="Group_22" data-name="Group 22">
          <g id="Group_2" data-name="Group 2">
            <path id="Rectangle_76" data-name="Rectangle 76" d="M3.189.112l.26.144a.225.225,0,0,1,.088.307L.764,5.554a.226.226,0,0,1-.307.088L.2,5.5a.225.225,0,0,1-.088-.307L2.881.2A.226.226,0,0,1,3.189.112Z" transform="translate(37.623 21.602)" fill="#4c4981"/>
            <path id="Rectangle_76-2" data-name="Rectangle 76" d="M1.9.111l.26.144a.225.225,0,0,1,.088.307L.764,3.235a.226.226,0,0,1-.307.088L.2,3.179a.225.225,0,0,1-.088-.307L1.594.2A.226.226,0,0,1,1.9.111Z" transform="translate(19.104 5.806)" fill="#4c4981"/>
            <path id="Rectangle_76-3" data-name="Rectangle 76" d="M1.9.111l.26.144a.225.225,0,0,1,.088.307L.764,3.234a.226.226,0,0,1-.307.088L.2,3.179a.225.225,0,0,1-.088-.307L1.594.2A.226.226,0,0,1,1.9.111Z" transform="translate(17.235 9.171)" fill="#4c4981"/>
            <path id="Rectangle_80" data-name="Rectangle 80" d="M27.888,1.943l15,8.3A3.93,3.93,0,0,1,44.428,15.6L23.813,52.716a3.947,3.947,0,0,1-5.364,1.535l-15-8.3A3.93,3.93,0,0,1,1.909,40.6L22.524,3.478a3.947,3.947,0,0,1,5.364-1.535Z" transform="translate(0 0)" fill="#5d5cb0"/>
            <path id="Path_176" data-name="Path 176" d="M40.617,9.694,38.1,8.3l-.166.3a1.6,1.6,0,0,1-.419.489,1.624,1.624,0,0,1-.557.28,1.644,1.644,0,0,1-1.243-.146L27.729,4.8a1.638,1.638,0,0,1-.783-.975,1.617,1.617,0,0,1-.057-.62,1.6,1.6,0,0,1,.193-.613l.166-.3L24.895,1a2,2,0,0,0-1.51-.177,1.973,1.973,0,0,0-.676.34,1.943,1.943,0,0,0-.508.593L.952,40.01a1.939,1.939,0,0,0-.235.745,1.964,1.964,0,0,0,.069.753,1.99,1.99,0,0,0,.951,1.184l15.722,8.7a2,2,0,0,0,1.51.177,1.973,1.973,0,0,0,.676-.34,1.943,1.943,0,0,0,.508-.593L41.4,12.378a1.949,1.949,0,0,0,.239-1.116,1.973,1.973,0,0,0-.217-.744,2,2,0,0,0-.805-.824Z" transform="translate(2.02 1.922)" fill="#4c4981"/>
            <path id="Ellipse_11" data-name="Ellipse 11" d="M8.732,2.3a4.731,4.731,0,1,1-1.793-.567A4.72,4.72,0,0,1,8.732,2.3Z" transform="translate(16.669 22.063)" fill="#4c4981"/>
            <path id="IMG_7505" d="M24.847.987,40.662,9.736a1.965,1.965,0,0,1,.769,2.677L20.22,50.605a1.974,1.974,0,0,1-2.682.768L1.723,42.624a1.965,1.965,0,0,1-.769-2.677L22.165,1.755A1.974,1.974,0,0,1,24.847.987Z" transform="translate(1.97 1.864)" fill="#fff"/>
            <g id="Gruppe_2237" data-name="Gruppe 2237" transform="translate(29.691 4.892)">
              <path id="Rectangle_76-4" data-name="Rectangle 76" d="M.477.632.824.008l8.493,4.7-.347.625a.987.987,0,0,1-1.341.384L.862,1.971A.983.983,0,0,1,.477.632Z" transform="translate(0 0)" fill="#5d5cb0"/>
              <path id="Rectangle_76-5" data-name="Rectangle 76" d="M2.864,1.772a.306.306,0,0,1-.416.119L.268.685a.306.306,0,0,1,.3-.535l2.18,1.206a.305.305,0,0,1,.119.416Z" transform="translate(3.104 2.033)" fill="#1c1c2d"/>
            </g>
          </g>
        </g>
      </g>
      <g id="Gruppe_2823" data-name="Gruppe 2823" transform="translate(588.624 123.66)">
        <g id="Group_22-2" data-name="Group 22">
          <g id="Group_2-2" data-name="Group 2">
            <path id="Rectangle_76-6" data-name="Rectangle 76" d="M.206.214.477.094a.226.226,0,0,1,.3.114L3.1,5.422a.225.225,0,0,1-.114.3l-.271.121a.226.226,0,0,1-.3-.114L.092.512a.225.225,0,0,1,.114-.3Z" transform="translate(26.993 9.976)" fill="#4c4981"/>
            <path id="Rectangle_76-7" data-name="Rectangle 76" d="M.206.214.477.093a.226.226,0,0,1,.3.114L2.021,3a.225.225,0,0,1-.114.3l-.271.121a.226.226,0,0,1-.3-.114L.092.511a.225.225,0,0,1,.114-.3Z" transform="translate(2.433 16.257)" fill="#4c4981"/>
            <path id="Rectangle_76-8" data-name="Rectangle 76" d="M.206.214.477.093a.226.226,0,0,1,.3.114L2.021,3a.225.225,0,0,1-.114.3l-.271.121a.226.226,0,0,1-.3-.114L.092.511a.225.225,0,0,1,.114-.3Z" transform="translate(4.001 19.772)" fill="#4c4981"/>
            <path id="Rectangle_80-2" data-name="Rectangle 80" d="M3.6,8.592l15.67-6.963a3.944,3.944,0,0,1,5.21,2L41.776,42.4a3.934,3.934,0,0,1-2,5.2l-15.67,6.963a3.944,3.944,0,0,1-5.21-2L1.6,13.792a3.934,3.934,0,0,1,2-5.2Z" transform="translate(0)" fill="#5d5cb0"/>
            <path id="Path_176-2" data-name="Path 176" d="M18.237.834,15.613,2l.139.312a1.6,1.6,0,0,1,.139.628,1.617,1.617,0,0,1-.111.612,1.639,1.639,0,0,1-.865.9L6.568,8.164A1.644,1.644,0,0,1,5.316,8.2a1.623,1.623,0,0,1-.53-.327,1.6,1.6,0,0,1-.374-.523l-.139-.312L1.815,8.131a1.991,1.991,0,0,0-1.05,1.1,1.964,1.964,0,0,0-.135.744,1.939,1.939,0,0,0,.169.762L18.625,50.7a1.942,1.942,0,0,0,.455.635,1.972,1.972,0,0,0,.644.4,2,2,0,0,0,1.519-.045l16.422-7.3a1.991,1.991,0,0,0,1.05-1.1,1.964,1.964,0,0,0,.135-.744,1.939,1.939,0,0,0-.169-.762L20.857,1.825a1.954,1.954,0,0,0-.749-.862,1.982,1.982,0,0,0-.726-.275,2.008,2.008,0,0,0-1.144.146Z" transform="translate(1.98 1.823)" fill="#4c4981"/>
            <path id="Ellipse_11-2" data-name="Ellipse 11" d="M4.324,1.928A4.718,4.718,0,1,1,2.79,3.016,4.731,4.731,0,0,1,4.324,1.928Z" transform="translate(15.72 22.138)" fill="#4c4981"/>
            <path id="IMG_7505-2" data-name="IMG_7505" d="M1.8,8.168,18.319.828a1.972,1.972,0,0,1,2.6,1l17.8,39.892a1.967,1.967,0,0,1-1,2.6L21.2,51.657a1.972,1.972,0,0,1-2.6-1L.8,10.768a1.967,1.967,0,0,1,1-2.6Z" transform="translate(1.883 1.824)" fill="#fff"/>
            <g id="Gruppe_2237-2" data-name="Gruppe 2237" transform="translate(7.548 4.329)">
              <path id="Rectangle_76-9" data-name="Rectangle 76" d="M.291,4.6,0,3.949,8.871.007l.291.652a.983.983,0,0,1-.5,1.3L1.593,5.1a.986.986,0,0,1-1.3-.5Z" fill="#5d5cb0"/>
              <path id="Rectangle_76-10" data-name="Rectangle 76" d="M2.961.281a.305.305,0,0,1-.155.4L.529,1.7A.306.306,0,1,1,.28,1.138L2.557.126a.306.306,0,0,1,.4.155Z" transform="translate(3.173 1.853)" fill="#1c1c2d"/>
            </g>
          </g>
        </g>
      </g>
    </g>
  </g>
</svg>
