<svg width="774" height="856" viewBox="0 0 774 856" fill="none" xmlns="http://www.w3.org/2000/svg">
<path fill-rule="evenodd" clip-rule="evenodd" d="M352.996 323.775C239.067 395.442 174.991 325.262 89.0975 391.716C17.3886 447.196 -26.0885 564.297 17.3236 633.458C55.2161 693.826 145.554 695.691 151.853 695.801C262.793 697.725 282.959 594.434 389.859 586.97C495.165 579.618 533.443 675.819 630.164 651.017C691.32 635.335 725.097 584.288 736.325 567.321C785.485 493.024 788.742 386.08 732.992 310.824C691.892 255.343 630.477 237.384 610.266 231.358C593.422 226.337 555.702 215.495 511.659 222.104C437.958 233.165 419.074 282.209 352.996 323.775V323.775Z" fill="#9EADFF"/>
<path fill-rule="evenodd" clip-rule="evenodd" d="M493.858 480.077C444.795 435.739 355.489 458.116 303.737 496.357C256.334 531.386 223.117 592.523 229.685 658.642C234.992 712.062 268.058 786.74 329.997 798.868C414.149 815.347 479.148 702.183 485.455 691.204C514.77 640.166 551.279 531.968 493.858 480.077V480.077Z" fill="#FF92AA"/>
<path fill-rule="evenodd" clip-rule="evenodd" d="M338.398 474.308C307.646 480.329 263.747 493.154 219.706 523.15C123.686 588.548 52.4393 718.228 88.4103 766.835C121.788 811.935 248.018 787.92 325.793 733.223C382.159 693.582 425.618 629.005 419.276 622.41C416.383 619.401 402.596 627.911 391.441 635.539C394.294 631.939 414.524 606.222 410.347 601.928C406.378 597.844 382.397 615.223 378.312 618.208C396.26 596.128 398.781 589.398 397.218 587.748C395.592 586.028 388.184 588.394 362.031 607.704C361.332 591.748 359.406 583.521 356.254 583.02C352.354 582.402 346.577 593.606 338.923 616.632C326.926 628.796 262.806 692.631 218.13 688.057C215.115 687.748 207.735 687.138 205.001 682.28C198.529 670.781 223.823 645.959 228.634 641.316C231.839 620.91 239.481 589.063 259.62 555.187C285.694 511.327 319.501 486.293 338.398 474.308L338.398 474.308Z" fill="#E1E6FF"/>
<path fill-rule="evenodd" clip-rule="evenodd" d="M339.449 472.732C328.013 470.197 309.762 467.879 289.556 473.782C279.837 476.622 270.351 481.164 237.036 506.344C225.313 515.205 209.602 527.406 191.345 542.581L246.49 604.027C277.477 560.262 308.463 516.497 339.449 472.732Z" fill="#FF92AA"/>
<path fill-rule="evenodd" clip-rule="evenodd" d="M272.609 323.985C270.381 335.11 270.752 346.405 282.096 382.803C293.589 419.678 299.568 438.246 310.937 444.657C326.427 453.389 344.203 448.505 352.681 446.175C382.083 438.094 407.339 412.009 415.295 380.147C422.589 350.934 417.711 307.366 383.798 285.28C351.444 264.209 305.278 270.905 285.132 295.145C276.243 305.841 273.734 318.372 272.609 323.985H272.609Z" fill="#E1E6FF"/>
<path fill-rule="evenodd" clip-rule="evenodd" d="M411.127 393.053C404.844 402.602 393.816 416.814 376.215 429.484C360.754 440.613 345.924 446.447 335.611 449.597C337.562 455.989 339.377 463.579 340.505 472.204C340.521 472.326 340.537 472.448 340.552 472.571C342.782 489.988 359.892 501.324 376.795 496.571C381.051 495.374 385.417 494.017 389.877 492.478C393.186 491.337 396.383 490.152 399.467 488.935C411.362 484.246 418.739 472.277 417.515 459.55C415.386 437.384 413.257 415.219 411.127 393.053L411.127 393.053Z" fill="#E1E6FF"/>
<path d="M311.32 368.009C311.838 373.449 314.427 377.814 318.152 379.012C321.921 380.225 325.551 377.775 328.779 375.597C335.671 370.946 339.351 364.407 341.303 359.661" stroke="#6C7FBC" stroke-width="5.91428" stroke-linecap="round" stroke-linejoin="round"/>
<path fill-rule="evenodd" clip-rule="evenodd" d="M388.236 352.684C390.02 344.782 395.977 338.919 403.036 337.885C412.355 336.519 418.778 344.274 419.734 345.475C427.229 354.866 423.077 367.624 422.011 370.898C417.63 384.36 406.067 390.625 403.036 392.148" fill="#E2E5F5"/>
<path d="M388.236 352.684C390.02 344.782 395.977 338.919 403.036 337.885C412.355 336.519 418.778 344.274 419.734 345.475C427.229 354.866 423.077 367.624 422.011 370.898C417.63 384.36 406.067 390.625 403.036 392.148" stroke="#6C7FBC" stroke-width="5.49183" stroke-linecap="round" stroke-linejoin="round"/>
<path fill-rule="evenodd" clip-rule="evenodd" d="M368.28 296.378C358.461 304.539 333.887 322.599 299.834 322.945C294.656 322.998 259.658 323.352 254.804 308.985C249.678 293.814 281.145 266.25 312.893 255.85C324.024 252.205 364.082 239.138 396.199 264.856C419.827 283.776 429.993 316.354 422.767 348.162C419.824 339.222 411.208 334.15 403.854 335.554C394.968 337.25 388.142 348.359 392.147 359.42C387.324 356.83 380.564 352.27 375.035 344.56C360.52 324.319 367.194 300.089 368.28 296.378Z" fill="#6C7FBC"/>
<path fill-rule="evenodd" clip-rule="evenodd" d="M363.089 463.276C369.621 459.937 375.296 456.122 378.32 453.823C394.414 441.588 398.069 412.745 398.803 406.033C390.569 416.316 376.865 430.405 356.262 440.694C349.199 444.22 342.44 446.744 336.304 448.571C337.879 456.273 339.455 463.977 341.03 471.679C346.654 470.208 354.433 467.701 363.089 463.276Z" fill="#6C7FBC"/>
<path fill-rule="evenodd" clip-rule="evenodd" d="M144.217 301.187C142.229 298.135 140.774 295.059 139.719 292.06C152.828 280.813 161.135 264.128 161.135 245.5C161.135 211.63 133.678 184.174 99.8063 184.174C65.9357 184.174 38.4782 211.63 38.4782 245.5C38.4782 279.369 65.9357 306.826 99.8063 306.826C104.428 306.826 108.929 306.311 113.258 305.342C116.686 308.867 120.85 312.308 125.889 315.285C149.131 329.013 172.755 322.128 176.643 320.924C174.167 320.664 155.405 318.364 144.217 301.187V301.187Z" fill="#9EADFF"/>
<path fill-rule="evenodd" clip-rule="evenodd" d="M235.482 237.227C234.992 233.618 234.993 230.215 235.324 227.053C251.986 222.499 266.635 210.975 274.609 194.141C289.107 163.531 276.046 126.964 245.435 112.466C214.824 97.9676 178.257 111.03 163.758 141.639C149.26 172.249 162.322 208.817 192.932 223.314C197.11 225.293 201.397 226.753 205.724 227.731C207.313 232.385 209.604 237.276 212.883 242.123C228.011 264.479 252.309 268.368 256.339 268.944C254.213 267.649 238.24 257.54 235.482 237.227L235.482 237.227Z" fill="#FFE577"/>
<path fill-rule="evenodd" clip-rule="evenodd" d="M123.318 130.676C122.828 127.068 122.83 123.665 123.16 120.503C139.82 115.949 154.468 104.425 162.441 87.591C176.938 56.9803 163.878 20.4143 133.27 5.91641C102.662 -8.58147 66.0973 4.4795 51.6003 35.0902C37.1033 65.6997 50.1635 102.266 80.7723 116.764C84.9485 118.742 89.2354 120.203 93.5618 121.181C95.1521 125.834 97.4416 130.725 100.721 135.572C115.848 157.928 140.143 161.817 144.173 162.393C142.046 161.098 126.075 150.989 123.318 130.676Z" fill="#E1E6FF"/>
<path fill-rule="evenodd" clip-rule="evenodd" d="M536.094 547.849C508.879 561.881 481.666 575.914 454.452 589.946C512.221 664.819 521.949 738.089 496.991 759.694C480.434 774.027 431.399 780.525 402.149 762.163C397.177 759.041 387.442 751.853 384.29 754.509C381 757.282 386.565 769.36 391.945 779.385C368.16 767.414 355.405 762.736 353.675 765.352C352.091 767.746 359.745 776.251 376.637 790.866C374.275 789.872 370.918 788.438 366.92 786.656C346.32 777.47 339.675 772.842 338.367 774.282C337.163 775.607 340.554 781.974 360.053 803.623C347.904 798.643 333.473 793.339 331.988 795.969C330.041 799.418 349.03 815.485 367.707 826.585C406 849.343 443.045 852.651 462.105 854.012C489.777 855.987 510.961 857.213 533.378 844.795C536.126 843.273 549.839 835.483 562.136 819.558C567.424 812.71 590.432 781.075 583.931 702.844C581.159 669.472 571.784 612.786 536.094 547.849H536.094Z" fill="#E1E6FF"/>
<path fill-rule="evenodd" clip-rule="evenodd" d="M541.188 555.505C530.996 564.98 517.059 576.272 499.093 586.758C469.684 603.925 445.518 609.719 445.518 609.719C445.518 609.719 415.905 473.146 450.62 461.748C472.367 454.608 506.425 492.121 520.779 512.773C532.218 529.233 538.075 544.958 541.188 555.505L541.188 555.505Z" fill="#FF92AA"/>
</svg>
