<svg xmlns="http://www.w3.org/2000/svg" xmlns:xlink="http://www.w3.org/1999/xlink" width="1690" height="789.44" viewBox="0 0 1690 789.44">
  <defs>
    <clipPath id="clip-path">
      <rect id="Rechteck_327" data-name="Rechteck 327" width="13.631" height="26.101" fill="none"/>
    </clipPath>
    <clipPath id="clip-path-2">
      <path id="Pfad_5130" data-name="Pfad 5130" d="M22.727,46.8c6.063-.52,11.476-2.369,13.011-3.467,0-5.74-1.112-7.443-10.612-7.293-2.334-1.233-4.128-3.355-6-6.138q1.239-17.283,6.563-17.283c5.323,0,11.6,4.051,13.933,4.051a35.762,35.762,0,0,0-1.1-5.167C37.59,10.2,32.6,9.731,32.6,7.71s4.186-.369,4.186-1.567A9.7,9.7,0,0,0,31.223.394,7.819,7.819,0,0,0,26.489.342c-3.793.836-7.254,3.287-8.3,6.439q-1.656,5-2.142,20.732a5.166,5.166,0,0,1-.644.039,5.4,5.4,0,0,1-3.775-9.266c-1.25-1.764-2.651-3.607-4.256-5.509C1.345,16.4-3.13,26.987,2.765,37.161c1.63,4.984,5.319,7.647,9.676,8.883A15.672,15.672,0,0,0,22.727,46.8Z" fill="#2f2e41" clip-rule="evenodd"/>
    </clipPath>
    <clipPath id="clip-path-3">
      <path id="Pfad_5134" data-name="Pfad 5134" d="M0,165.691,53.705,75.906,93.969,0h8.672L35.179,165.691Z" transform="translate(0)" fill="none" clip-rule="evenodd"/>
    </clipPath>
    <filter id="Pfad_2647" x="606.145" y="244.764" width="126.546" height="126.516" filterUnits="userSpaceOnUse">
      <feOffset dx="8" dy="8" input="SourceAlpha"/>
      <feGaussianBlur stdDeviation="20" result="blur"/>
      <feFlood flood-color="#6c63ff" flood-opacity="0.078"/>
      <feComposite operator="in" in2="blur"/>
      <feComposite in="SourceGraphic"/>
    </filter>
    <filter id="Pfad_2648" x="603.531" y="246.744" width="135.634" height="133.57" filterUnits="userSpaceOnUse">
      <feOffset dx="8" dy="8" input="SourceAlpha"/>
      <feGaussianBlur stdDeviation="20" result="blur-2"/>
      <feFlood flood-color="#6c63ff" flood-opacity="0.102"/>
      <feComposite operator="in" in2="blur-2"/>
      <feComposite in="SourceGraphic"/>
    </filter>
    <filter id="Pfad_2649" x="603.99" y="246.054" width="131.378" height="135.684" filterUnits="userSpaceOnUse">
      <feOffset dx="8" dy="8" input="SourceAlpha"/>
      <feGaussianBlur stdDeviation="20" result="blur-3"/>
      <feFlood flood-color="#6c63ff" flood-opacity="0.161"/>
      <feComposite operator="in" in2="blur-3"/>
      <feComposite in="SourceGraphic"/>
    </filter>
    <filter id="Pfad_2647-2" x="1154.631" y="368.864" width="126.291" height="126.263" filterUnits="userSpaceOnUse">
      <feOffset dx="8" dy="8" input="SourceAlpha"/>
      <feGaussianBlur stdDeviation="20" result="blur-4"/>
      <feFlood flood-color="#6c63ff" flood-opacity="0.078"/>
      <feComposite operator="in" in2="blur-4"/>
      <feComposite in="SourceGraphic"/>
    </filter>
    <filter id="Pfad_2648-2" x="1152.118" y="370.767" width="135.026" height="133.042" filterUnits="userSpaceOnUse">
      <feOffset dx="8" dy="8" input="SourceAlpha"/>
      <feGaussianBlur stdDeviation="20" result="blur-5"/>
      <feFlood flood-color="#6c63ff" flood-opacity="0.102"/>
      <feComposite operator="in" in2="blur-5"/>
      <feComposite in="SourceGraphic"/>
    </filter>
    <filter id="Pfad_2649-2" x="1152.56" y="370.103" width="130.936" height="135.074" filterUnits="userSpaceOnUse">
      <feOffset dx="8" dy="8" input="SourceAlpha"/>
      <feGaussianBlur stdDeviation="20" result="blur-6"/>
      <feFlood flood-color="#6c63ff" flood-opacity="0.161"/>
      <feComposite operator="in" in2="blur-6"/>
      <feComposite in="SourceGraphic"/>
    </filter>
    <clipPath id="clip-path-4">
      <rect id="Rechteck_528" data-name="Rechteck 528" width="161.194" height="364.48" fill="none"/>
    </clipPath>
    <clipPath id="clip-path-5">
      <rect id="Rechteck_326" data-name="Rechteck 326" width="38.417" height="38.417" fill="none"/>
    </clipPath>
    <filter id="Pfad_2647-3" x="748.972" y="307.474" width="158.71" height="158.312" filterUnits="userSpaceOnUse">
      <feOffset dx="8" dy="8" input="SourceAlpha"/>
      <feGaussianBlur stdDeviation="20" result="blur-7"/>
      <feFlood flood-color="#6c63ff" flood-opacity="0.078"/>
      <feComposite operator="in" in2="blur-7"/>
      <feComposite in="SourceGraphic"/>
    </filter>
    <filter id="Pfad_2648-3" x="743.966" y="322.874" width="219.915" height="192.296" filterUnits="userSpaceOnUse">
      <feOffset dx="8" dy="8" input="SourceAlpha"/>
      <feGaussianBlur stdDeviation="20" result="blur-8"/>
      <feFlood flood-color="#6c63ff" flood-opacity="0.102"/>
      <feComposite operator="in" in2="blur-8"/>
      <feComposite in="SourceGraphic"/>
    </filter>
    <filter id="Pfad_2649-3" x="758.113" y="311.021" width="170.982" height="228.6" filterUnits="userSpaceOnUse">
      <feOffset dx="8" dy="8" input="SourceAlpha"/>
      <feGaussianBlur stdDeviation="20" result="blur-9"/>
      <feFlood flood-color="#6c63ff" flood-opacity="0.161"/>
      <feComposite operator="in" in2="blur-9"/>
      <feComposite in="SourceGraphic"/>
    </filter>
  </defs>
  <g id="Gruppe_3004" data-name="Gruppe 3004" transform="translate(-115 -260.028)">
    <path id="Pfad_1815" data-name="Pfad 1815" d="M1396.33,410.364q1.205-1.444,2.489-2.84c11.476-12.469,27.746-22.185,33.351-37.651,8.959-24.728-13.4-53.815-32.409-69.334-63.043-51.47-147.592-92.623-235.107-76.926-87.974,15.78-141.834,90.44-218.43,127.128-159.369,76.335-457.919,111.906-563.816,0C338.25,304.077,301.5,273.452,252.9,230.7c-52.045-45.792-124.34-83.24-198.278-84.707C-34.723,144.22-78.794,194.965-84.023,272.023L-93.74,415.188c-4.658,68.632-10.475,158.649,71.63,189.741,93.492,35.4,196.894-26.305,293.956-9.171,122.908,21.7,326.814-1.105,332.275,113.009,2.651,55.379-45.791,174.732,35.507,200.22,67.188,21.061,134.753-18.32,179.252-63.2a308.4,308.4,0,0,0,54.964-75.348c14.255-27.578,19.808-59.633,44.292-81.925,34.726-31.615,105.462-40.891,149.633-26.939,46.961,14.833,95.047,32.252,143.861,42.133,32.479,6.574,68.746,8.835,101.023-1,66.2-20.174,68.88-99.536,65.689-152.205-1.754-28.958-6.065-57.976-2.938-87.057C1377.437,444.53,1383.72,425.472,1396.33,410.364Z" transform="translate(287.451 134.645)" fill="#fff5d6"/>
    <g id="Gruppe_2280" data-name="Gruppe 2280" transform="translate(1411.566 355.066)">
      <path id="Pfad_580" data-name="Pfad 580" d="M322.09,457.724c18.467.458,39.287,0,52.045-13.355,9.687-10.137,11.962-24.989,15.223-38.629,5.89-24.626,16.6-48.326,32.869-67.744s38.231-34.382,62.814-40.42c19.756-4.861,40.532-3.944,60.392-8.312s40.256-16.14,45.748-35.723" transform="translate(-322.09 -210.634)" fill="none" stroke="#9aa9fc" stroke-linecap="round" stroke-miterlimit="10" stroke-width="2" stroke-dasharray="0 6" opacity="0.997" style="isolation: isolate"/>
      <path id="Pfad_581" data-name="Pfad 581" d="M672.122,203.948l-49.831,18.164a.977.977,0,0,0-.19,1.73l7.439,4.126a1.885,1.885,0,0,1,.865,1.124l4.264,13.493c0,.571,1.038.865,1.133.311l.6-10.553a3.814,3.814,0,0,1,1.15-1.981l27.385-19.894a.615.615,0,0,1,.545-.069.553.553,0,0,1,.307.72.542.542,0,0,1-.134.2l-24.349,22.2a4.67,4.67,0,0,0-1.116,1.955l-2.595,8.814c0,.8.554,1.185,1.159.554l5.19-4.558a.943.943,0,0,1,1.333-.008l.008.008,10.224,10.034a.935.935,0,0,0,1.321-.005.923.923,0,0,0,.219-.349l16.183-44.736a.943.943,0,0,0-1.193-1.237Z" transform="translate(-362.542 -203.936)" fill="#6c63ff" opacity="0.5" style="isolation: isolate"/>
    </g>
    <g id="Gruppe_2839" data-name="Gruppe 2839" transform="translate(-454.988 -3.004)">
      <path id="Pfad_5144" data-name="Pfad 5144" d="M-3008.334-3670.942c2.258,1,6.113-2.764,8.611-8.407s.433-12.026.433-12.026-6.114,2.764-8.611,8.407S-3010.593-3671.941-3008.334-3670.942Z" transform="translate(5487.774 -1478.082) rotate(-74)" fill="#5d5cb0"/>
      <path id="Pfad_5145" data-name="Pfad 5145" d="M-3008.592-3674.29c1.888.836,5.112-2.311,7.2-7.029s.362-10.055.362-10.055-5.112,2.311-7.2,7.029S-3010.48-3675.126-3008.592-3674.29Z" transform="matrix(0.966, -0.259, 0.259, 0.966, 5001.291, 3184.141)" fill="#5d5cb0"/>
      <path id="Pfad_5143" data-name="Pfad 5143" d="M-2957.424-3164.89c-1.589-4.246,5.723-10.907,16.331-14.878s22.086.5,22.086.5-5.722,10.907-16.331,14.878S-2955.834-3160.644-2957.424-3164.89Z" transform="matrix(0.259, -0.966, 0.966, 0.259, 4959.045, -1653.064)" fill="#5d5cb0"/>
    </g>
    <g id="Gruppe_386" data-name="Gruppe 386" transform="translate(1577.282 858.1) rotate(-172)">
      <path id="Pfad_2552" data-name="Pfad 2552" d="M14.91,131.938a103.878,103.878,0,0,1,19.227.414c13.913,1.253,21.04,2.868,25.408,2.847,22.667-.11,33.985-.111,41.676-8.117C128.6,98.577,94.733-5.568,80.453.233a11.236,11.236,0,0,0-4.07,3.112c-4.729,5.7-2.914,14.874-1.879,22.282,1.507,10.792.8,21.782,1.514,32.656a263.924,263.924,0,0,1-.593,41.178c-6.38-2.3-11.756-4.115-15.746-5.425-7.8-2.562-10.32-3.2-11.672-3.533a67.438,67.438,0,0,0-15.875-2.238c-2.582-.021-4.5.133-5.01.177-4.267.361-9.748.824-14.257,3.548-4.184,2.528-6.2,6.2-7.8,9.193C-1.616,113.718-.083,128.35.819,134.244A89.342,89.342,0,0,1,14.91,131.938Z" transform="translate(14.669 26.15)" fill="#4c4981"/>
      <path id="Pfad_2554" data-name="Pfad 2554" d="M0,14.579A82.729,82.729,0,0,1,21.966,42.606c15.326,32.933,2.535,70.416,6.945,71.147.5.083,1.467-.267,4.923-6.812,4.736-8.971,10-18.932,11.686-33.5.433-3.737,2.4-23.031-7.844-45.338A96.569,96.569,0,0,0,17.92,0Z" transform="translate(32.473 204.974)" fill="#f7c8bc"/>
      <path id="Pfad_2555" data-name="Pfad 2555" d="M33.867,20C28.029,9.68,23.353,1.415,15.135.155,14.76.1,6.188-1.064,2.179,3.976a10.973,10.973,0,0,0-2.017,4.9,11.785,11.785,0,0,0,1.4,7.857c.91,1.471,1.357,1.3,3.749,3.98,0,0,1.47,1.644,3.422,4.351C15.72,34.757,22.1,48.8,22.1,48.8c1.868,4.112,4.225,9.668,6.611,16.431l20-2.81A105.794,105.794,0,0,0,47.377,51.11C44.469,34.261,35.736,23.3,33.867,20Z" transform="translate(32.201 203.894)" fill="#c7cfdd"/>
      <path id="Pfad_2556" data-name="Pfad 2556" d="M.156,69.3A13.058,13.058,0,0,0,5.631,82.081l.079.054a56.42,56.42,0,0,0,6.835,3.994c4.535,1.363,8.111,2.374,10.6,3.061,1.369.377,3.114.851,5.507,1.592,2.541.787,4.606,1.5,5.987,2q4.37-4.25,9.276-8.631,5.163-4.6,10.138-8.614c-.417-2.745-1-6.6-1.683-11.226-2.059-13.94-2.23-15.867-2.107-18.2.223-4.236,1.42-10.467,6.26-17.982a28.258,28.258,0,0,0,1.051-7.019,27.714,27.714,0,0,0-1.693-8.889C53.506,6.083,36.595-.678,13.146.055Q10.454,16.744,6.908,34.42c-1.183,5.858-2.26,10.043-3.695,17.4C1.915,58.489.915,64.4.156,69.3Z" transform="translate(2.821 131.781)" fill="#d8dfeb"/>
      <path id="Pfad_2557" data-name="Pfad 2557" d="M18.256,29.141q1.009-6.46,2.018-12.92a5.962,5.962,0,0,1,3.559,1.408,60.511,60.511,0,0,1,6.651-9.645c2.4-2.836,4.079-4.29,3.658-5.654C33.4-.06,26.869-.01,25.162,0,20.091.041,11.215,1.211,0,8.718l6.256,2.969q-2.082,9.251-4.162,18.5Z" transform="translate(15.962 209.59)" fill="#fad0c6"/>
      <path id="Pfad_2558" data-name="Pfad 2558" d="M3.014,6.381a14.479,14.479,0,0,1,4.2-4.446C12.1-1.237,17.91.353,19.229.749L17.215,13.076,0,15.073A19.1,19.1,0,0,1,3.014,6.381Z" transform="translate(16.74 226.518)" fill="#f6afa1"/>
      <path id="Pfad_2559" data-name="Pfad 2559" d="M0,15.68c4.257-.9,5.74-2.42,6.272-3.708.321-.774.271-1.4,1.088-4.292A12.884,12.884,0,0,0,8.028,5.2c.025-1.24-.775-3-4.508-5.2Q1.76,7.84,0,15.68Z" transform="translate(33.464 221.305)" fill="#5d3e3e"/>
      <ellipse id="Ellipse_134" data-name="Ellipse 134" cx="10.481" cy="11.085" rx="10.481" ry="11.085" transform="translate(28.104 250.197) rotate(19.124)" fill="#5d3e3e"/>
      <path id="Pfad_2560" data-name="Pfad 2560" d="M15.238,42.218a18.682,18.682,0,0,0,11.406-2.451c7.594-4.557,9.221-13.481,10.381-19.844C38.3,12.944,39.289,7.506,36.1,3.744c-4.812-5.687-16.4-4.279-23.612.114C2.709,9.821-3.142,23.8,1.776,33.546,5.535,40.99,14.8,42.169,15.238,42.218Z" transform="translate(6.555 232.106)" fill="#fad0c6"/>
      <path id="Pfad_2561" data-name="Pfad 2561" d="M38.649,64.46C30.888,43.918,24.144,39.2,19.279,38.928c-3.618-.2-7.3.276-8.015-1.277-1.023-2.231,5.3-6.722,10.905-11.386A146.5,146.5,0,0,0,43.064,4.8,32.334,32.334,0,0,1,32.477,3.453,32.243,32.243,0,0,1,24.824,0a69.364,69.364,0,0,0-13.76,16.32C7.519,22.18-6.5,45.337,3.585,58.417c6.283,8.152,20.016,9.921,29.443,7.855A30.967,30.967,0,0,0,38.649,64.46Z" transform="translate(0 209.466)" fill="#725454"/>
      <ellipse id="Ellipse_135" data-name="Ellipse 135" cx="5.423" cy="7.508" rx="5.423" ry="7.508" transform="translate(15.441 236.166) rotate(40.487)" fill="#fad0c6"/>
      <path id="Pfad_2562" data-name="Pfad 2562" d="M23.787,150.267a93.043,93.043,0,0,0,40.555-15.244c18.268-12.116,27.413-18.117,30.071-29.462C103.877,65.174,30.254-11.4,21.291,1.432a12.994,12.994,0,0,0-1.906,4.983c-1.463,8.71,11.722,31.54,20.847,51.936a234.583,234.583,0,0,0,20.577,36.6c-.888.883-24.63,5.96-39.842,12.575-6.422,2.792-10.472,8.565-11.5,9.936A35.062,35.062,0,0,0,3.115,132.7Q1.558,141.638,0,150.573A90.562,90.562,0,0,0,23.787,150.267Z" transform="translate(12.739 0)" fill="#5d5cb0"/>
      <g id="Gruppe_385" data-name="Gruppe 385" transform="translate(33.538 239.928)">
        <g id="Gruppe_384" data-name="Gruppe 384" transform="translate(0 0)">
          <path id="Pfad_2564" data-name="Pfad 2564" d="M8.927.453a.709.709,0,0,1-.563,1.272,9.271,9.271,0,0,0-4.905.044,4.472,4.472,0,0,0-2.188,1.5A.708.708,0,0,1,.146,2.4,5.945,5.945,0,0,1,3.007.426,10.73,10.73,0,0,1,8.683.345.708.708,0,0,1,8.927.453Z" fill="#9eadff"/>
        </g>
      </g>
      <path id="Pfad_2574" data-name="Pfad 2574" d="M1.2,4.784h0a1.2,1.2,0,0,0,1.2-1.2V1.2A1.2,1.2,0,0,0,1.2,0h0A1.2,1.2,0,0,0,0,1.2V3.588A1.2,1.2,0,0,0,1.2,4.784Z" transform="translate(34.692 255.292) rotate(-165.746)" fill="#6c7fbc"/>
      <path id="Pfad_2565" data-name="Pfad 2565" d="M3.016,23.288c8.8-.6,23.717-.708,39.728,4.639C81.137,40.747,100.935,76.59,105,74.012c.461-.292.946-1.222-1.543-8.339-3.414-9.756-7.2-20.588-17.5-32.214C70.617,16.123,51.585,9.277,43.589,6.493A118.516,118.516,0,0,0,6.984,0,17.777,17.777,0,0,0,1.256,7.066C-2.118,14.873,2.294,22.142,3.016,23.288Z" transform="translate(11.114 189.956)" fill="#fad0c6"/>
      <path id="Pfad_2566" data-name="Pfad 2566" d="M43.554,3.794C33.807,1.057,19.121-2.881,8.681,3.238,6.777,4.354.025,8.31,0,14.087A9.576,9.576,0,0,0,1.615,19.17c2.908,4.47,7.836,5.7,9.238,6.013a17.318,17.318,0,0,0,6.177.224C26.418,24.173,39.082,27.852,49.922,31a145.967,145.967,0,0,1,21.689,8.224c4.632-4.419,10.2-10.725,14.832-15.143C70.02,10.47,53.176,6.495,43.554,3.794Z" transform="translate(3.066 189.07)" fill="#d9e0ec"/>
      <path id="Pfad_2573" data-name="Pfad 2573" d="M6.485,12.971A6.485,6.485,0,1,0,0,6.485,6.485,6.485,0,0,0,6.485,12.971Z" transform="translate(27.654 244.347)" fill="none" stroke="#fc6681" stroke-width="2"/>
    </g>
    <g id="Gruppe_2842" data-name="Gruppe 2842" transform="translate(464.337 434.004) rotate(-8)">
      <path id="Pfad_2552-2" data-name="Pfad 2552" d="M15.336,3.354a106.847,106.847,0,0,0,19.777-.425C49.423,1.64,56.753-.021,61.247,0,84.562.113,96.2.114,104.114,8.349c28.162,29.319-6.673,136.44-21.362,130.473a11.557,11.557,0,0,1-4.186-3.2c-4.865-5.863-3-15.3-1.933-22.919,1.55-11.1.823-22.4,1.557-33.589a271.465,271.465,0,0,0-.61-42.355c-6.562,2.366-12.092,4.233-16.2,5.58-8.023,2.635-10.615,3.3-12.006,3.634a69.365,69.365,0,0,1-16.329,2.3c-2.656.022-4.627-.137-5.153-.182-4.389-.371-10.027-.847-14.664-3.649-4.3-2.6-6.376-6.374-8.019-9.456C-1.662,22.094-.085,7.044.842.981A91.9,91.9,0,0,0,15.336,3.354Z" transform="translate(15.088 161.886)" fill="#4c4981"/>
      <path id="Pfad_2554-2" data-name="Pfad 2554" d="M0,102.018A85.094,85.094,0,0,0,22.594,73.19C38.357,39.316,25.2.762,29.737.009c.515-.085,1.509.275,5.064,7.007,4.872,9.228,10.282,19.473,12.02,34.461.445,3.844,2.468,23.689-8.068,46.634a99.329,99.329,0,0,1-20.32,28.9Z" transform="translate(33.4 0)" fill="#f7c8bc"/>
      <path id="Pfad_2555-2" data-name="Pfad 2555" d="M34.834,46.522c-6,10.613-10.814,19.115-19.267,20.411-.386.059-9.2,1.253-13.327-3.931A11.286,11.286,0,0,1,.167,57.964,12.121,12.121,0,0,1,1.6,49.883c.936-1.513,1.4-1.342,3.856-4.094,0,0,1.512-1.691,3.52-4.475C16.169,31.343,22.73,16.9,22.73,16.9c1.922-4.23,4.346-9.944,6.8-16.9L50.1,2.891A108.818,108.818,0,0,1,48.73,14.522C45.74,31.853,36.757,43.121,34.834,46.522Z" transform="translate(33.121 51.033)" fill="#c7cfdd"/>
      <path id="Pfad_2556-2" data-name="Pfad 2556" d="M.161,24.149A13.431,13.431,0,0,1,5.792,11l.081-.056A58.034,58.034,0,0,1,12.9,6.839c4.664-1.4,8.343-2.442,10.908-3.149,1.408-.388,3.2-.875,5.665-1.638C32.09,1.243,34.215.508,35.635,0q4.495,4.371,9.541,8.878,5.31,4.728,10.427,8.86c-.429,2.823-1.029,6.791-1.731,11.547C51.755,43.623,51.579,45.606,51.705,48c.229,4.357,1.461,10.766,6.439,18.5a29.066,29.066,0,0,1,1.081,7.219,28.506,28.506,0,0,1-1.742,9.143C55.035,89.172,37.64,96.127,13.522,95.373Q10.753,78.207,7.1,60.026C5.889,54,4.781,49.7,3.3,42.125,1.969,35.269.941,29.185.161,24.149Z" transform="translate(2.901 96.87)" fill="#d8dfeb"/>
      <path id="Pfad_2557-2" data-name="Pfad 2557" d="M18.778,1.078q1.038,6.644,2.075,13.289a6.133,6.133,0,0,0,3.66-1.448,62.24,62.24,0,0,0,6.841,9.92c2.464,2.917,4.2,4.413,3.763,5.815-.758,2.459-7.48,2.408-9.236,2.395C20.665,31.01,11.535,29.806,0,22.085l6.435-3.054Q4.294,9.516,2.154,0Z" transform="translate(16.418 81.215)" fill="#fad0c6"/>
      <path id="Pfad_2558-2" data-name="Pfad 2558" d="M3.1,8.941a14.893,14.893,0,0,0,4.317,4.573c5.03,3.263,11,1.628,12.362,1.22L17.707,2.055,0,0A19.645,19.645,0,0,0,3.1,8.941Z" transform="translate(17.218 79.35)" fill="#f6afa1"/>
      <path id="Pfad_2559-2" data-name="Pfad 2559" d="M0,0C4.379.922,5.9,2.49,6.451,3.814c.33.8.278,1.436,1.119,4.415a13.252,13.252,0,0,1,.687,2.546c.026,1.275-.8,3.082-4.637,5.353Q1.81,8.064,0,0Z" transform="translate(34.421 84.088)" fill="#5d3e3e"/>
      <ellipse id="Ellipse_134-2" data-name="Ellipse 134" cx="10.78" cy="11.402" rx="10.78" ry="11.402" transform="translate(21.436 48.953) rotate(-19.124)" fill="#5d3e3e"/>
      <path id="Pfad_2560-2" data-name="Pfad 2560" d="M15.673.109A19.216,19.216,0,0,1,27.405,2.63C35.217,7.317,36.89,16.5,38.083,23.042c1.308,7.177,2.328,12.771-.947,16.64-4.95,5.849-16.873,4.4-24.287-.117C2.787,33.431-3.232,19.049,1.827,9.028,5.693,1.371,15.227.159,15.673.109Z" transform="translate(6.742 45.574)" fill="#fad0c6"/>
      <path id="Pfad_2561-2" data-name="Pfad 2561" d="M39.754,2.677C31.77,23.806,24.833,28.66,19.83,28.938c-3.722.206-7.512-.284-8.244,1.314-1.053,2.295,5.452,6.914,11.217,11.711A150.687,150.687,0,0,1,44.3,64.042a33.115,33.115,0,0,0-18.762,4.937A71.347,71.347,0,0,1,11.38,52.193C7.733,46.165-6.682,22.347,3.687,8.893,10.15.508,24.275-1.312,33.972.813A31.852,31.852,0,0,1,39.754,2.677Z" transform="translate(0 43.415)" fill="#725454"/>
      <ellipse id="Ellipse_135-2" data-name="Ellipse 135" cx="5.578" cy="7.722" rx="5.578" ry="7.722" transform="translate(5.854 73.184) rotate(-40.487)" fill="#fad0c6"/>
      <path id="Pfad_2562-2" data-name="Pfad 2562" d="M24.467.972A95.7,95.7,0,0,1,66.181,16.651c18.79,12.462,28.2,18.635,30.931,30.3C106.846,88.5,31.119,167.263,21.9,154.06a13.365,13.365,0,0,1-1.96-5.126c-1.5-8.959,12.057-32.441,21.442-53.421A241.288,241.288,0,0,1,62.547,57.869c-.913-.908-25.334-6.131-40.981-12.935-6.605-2.872-10.772-8.81-11.825-10.22A36.064,36.064,0,0,1,3.2,19.036Q1.6,9.847,0,.657A93.151,93.151,0,0,1,24.467.972Z" transform="translate(13.103 172.313)" fill="#5d5cb0"/>
      <g id="Gruppe_385-2" data-name="Gruppe 385" transform="translate(34.496 77.418)">
        <g id="Gruppe_384-2" data-name="Gruppe 384" transform="translate(0 0)">
          <path id="Pfad_2564-2" data-name="Pfad 2564" d="M9.182,3.178A.729.729,0,0,0,8.6,1.87a9.536,9.536,0,0,1-5.045-.045A4.6,4.6,0,0,1,1.306.285.728.728,0,0,0,.15,1.173,6.115,6.115,0,0,0,3.093,3.205a11.037,11.037,0,0,0,5.837.084A.728.728,0,0,0,9.182,3.178Z" transform="translate(0 0)" fill="#9eadff"/>
        </g>
      </g>
      <path id="Pfad_2574-2" data-name="Pfad 2574" d="M1.23,0h0A1.23,1.23,0,0,1,2.46,1.23V3.69A1.23,1.23,0,0,1,1.23,4.92h0A1.23,1.23,0,0,1,0,3.69V1.23A1.23,1.23,0,0,1,1.23,0Z" transform="translate(36.895 70.027) rotate(165.746)" fill="#6c7fbc"/>
      <path id="Pfad_2565-2" data-name="Pfad 2565" d="M3.1,52.31c9.054.621,24.395.728,40.863-4.772,39.49-13.187,59.855-50.053,64.04-47.4.475.3.973,1.257-1.588,8.578-3.512,10.035-7.41,21.177-18,33.134C72.635,59.68,53.06,66.722,44.834,69.585A121.9,121.9,0,0,1,7.183,76.263,18.285,18.285,0,0,1,1.292,69C-2.178,60.965,2.359,53.489,3.1,52.31Z" transform="translate(11.432 56.198)" fill="#fad0c6"/>
      <path id="Pfad_2566-2" data-name="Pfad 2566" d="M44.8,36.443c-10.025,2.815-25.131,6.865-35.87.571C6.971,35.867.025,31.8,0,25.856a9.85,9.85,0,0,1,1.661-5.229c2.992-4.6,8.06-5.864,9.5-6.185a17.813,17.813,0,0,1,6.353-.23C27.173,15.481,40.2,11.7,51.349,8.46A150.138,150.138,0,0,0,73.657,0c4.764,4.545,10.491,11.031,15.255,15.576C72.022,29.576,54.7,33.665,44.8,36.443Z" transform="translate(3.153 93.027)" fill="#d9e0ec"/>
      <path id="Pfad_2573-2" data-name="Pfad 2573" d="M6.671,0A6.671,6.671,0,1,1,0,6.671,6.671,6.671,0,0,1,6.671,0Z" transform="translate(28.445 63.174)" fill="none" stroke="#fc6681" stroke-width="2"/>
    </g>
    <g id="Gruppe_391" data-name="Gruppe 391" transform="translate(1016.435 299.258) rotate(-8)">
      <g id="Gruppe_390" data-name="Gruppe 390" transform="translate(0 0)" clip-path="url(#clip-path)">
        <g id="Facebook" transform="translate(0 -0.012)">
          <g id="Gruppe_389" data-name="Gruppe 389">
            <path id="Pfad_1" data-name="Pfad 1" d="M-3817.249-3553.342v-11.89h4.06l.581-4.64h-4.641v-2.9c0-1.305.436-2.32,2.32-2.32h2.465v-4.206c-.579,0-2.029-.145-3.625-.145a5.6,5.6,0,0,0-5.955,5.214,5.6,5.6,0,0,0,.01.875v3.481h-4.06v4.64h4.06v11.89Z" transform="translate(3826.094 3579.455)" fill="#7b75ff" fill-rule="evenodd"/>
          </g>
        </g>
      </g>
    </g>
    <g id="Gruppe_2821" data-name="Gruppe 2821" transform="translate(1542.362 444.248) rotate(-9)">
      <path id="Pfad_2536" data-name="Pfad 2536" d="M-3740.272-3026.365c-10.024,1.55-17.646,37.513-7.646,66.686,7.442,21.709,25.421,41.927,33.936,38.071,9.6-4.348,6.648-39.058-.812-63.242C-3719.391-2999.753-3730.987-3027.8-3740.272-3026.365Z" transform="matrix(0.998, 0.07, -0.07, 0.998, 3646.739, 3429.468)" fill="#423f77"/>
      <path id="Pfad_2537" data-name="Pfad 2537" d="M-3731.8-2648.187c-8.108-3.369-25.47,19.027-28.692,41.924-.857,6.089-.29,12.344.844,24.853a232.2,232.2,0,0,0,8.151,43.766c5.291,18.283,7.937,27.425,10.428,27.383C-3730.214-2510.442-3714.353-2640.939-3731.8-2648.187Z" transform="translate(3420.766 3417.077) rotate(9)" fill="#423f77"/>
      <path id="Pfad_2538" data-name="Pfad 2538" d="M-3683.71-3770.156a79.614,79.614,0,0,0,19.936-27.865c13.347-32.3-.525-67.8,3.684-68.683.478-.1,1.421.195,5.018,6.341,4.932,8.425,10.406,17.778,12.643,31.714.574,3.574,3.275,22.038-5.633,43.911a92.93,92.93,0,0,1-17.808,27.843Z" transform="translate(3788.193 3866.717)" fill="#f7c8bc"/>
      <path id="Pfad_2539" data-name="Pfad 2539" d="M-3603.027-3338.952a45.483,45.483,0,0,1,7.57-5.575,45.558,45.558,0,0,1,10.012-4.365q10.213-3.568,20.5-7.341l2.608-.96a70.051,70.051,0,0,0,6.913,7.479q1.167,1.091,2.32,2.076a19.142,19.142,0,0,1,6.656,16.506c0,.044-.01.089-.014.134-1.393,13.486-1.476,15.346-1.26,17.581.392,4.063,1.8,10,6.774,17.022a14.883,14.883,0,0,1,.643,2.563,18.387,18.387,0,0,1-.64,7.361c-1.316,4.4-5.876,10.383-10.24,13.76-14.265,11.039-41.7,5.989-42.88,5.76.31-2.834.763-7.047,1.28-12.16.9-8.862,1.224-17.953,1.378-20.145.343-4.875.215-10.782-3.721-21.668A117.32,117.32,0,0,0-3603.027-3338.952Z" transform="translate(3672.402 3447.983)" fill="#3e3e6b"/>
      <path id="Pfad_2540" data-name="Pfad 2540" d="M-3493.974-3418.99l1.272,11.539c.749-.077,1.545-.192,2.381-.36a25.586,25.586,0,0,0,5.12-1.6,71.062,71.062,0,0,0,4.162,11.647c1.438,3.12,2.51,4.806,1.781,6.243-1.251,2.468-6.474,2.071-9.072,1.939-5.064-.257-13.883-1.808-24.763-9.79l6.378-2.7q-1.682-9.333-3.363-18.665Z" transform="translate(3595.216 3500.202)" fill="#fad0c6"/>
      <path id="Pfad_2541" data-name="Pfad 2541" d="M-3433.6-3422.4a14.473,14.473,0,0,0,4,4.622c4.749,3.379,10.62,2.042,11.956,1.7q-.74-6.2-1.481-12.4l-17.114-2.736A19.1,19.1,0,0,0-3433.6-3422.4Z" transform="translate(3520.138 3508.815)" fill="#f6afa1"/>
      <path id="Pfad_2542" data-name="Pfad 2542" d="M-3521.172-3010.326c-6.373-2.312-14.542-.041-19.763,4.643-17.86,16.022-.187,59.365,6.4,75.52,5.8,14.213,11.552,28.331,17.639,27.757,9.371-.885,13.762-36.052,12.158-62.068C-3505.676-2979.711-3507.251-3005.274-3521.172-3010.326Z" transform="translate(4008.25 2651.665) rotate(-8)" fill="#4c4981"/>
      <path id="Pfad_2543" data-name="Pfad 2543" d="M-3393.5-2561.587c-2.012-7.039-8.715-28.405-19.52-28.8a8,8,0,0,0-1.892.155c-3.921.68-9.1,4.041-27.229,18.4-9.192,7.283-13.789,10.924-18.24,14.72a329.554,329.554,0,0,0-31.319,29.562c-12.119,13.215-17.451,17.431-17.25,21.739,5.054,9.561,81.705-28.858,95.289-36.9a58.647,58.647,0,0,0,18.88-16.959C-3394.221-2560.462-3393.785-2561.133-3393.5-2561.587Z" transform="translate(3843.265 2325.597) rotate(-8)" fill="#4c4981"/>
      <path id="Pfad_2546" data-name="Pfad 2546" d="M-3805.143-3478.565c1.118-6.5,9.981-9.1,12.8-9.92,2.124-.621,3.525-.723,16-.96,5.564-.105,8.346-.158,10.181-.176,19.667-.194,56.28-40.445,59.673-37.278.365.341,1.6,2.388-1.427,9.011-4.156,9.08-8.2,20.781-18.551,30.843-15.509,15.071-32.954,19.4-40.077,21.09-12.938,3.06-25.483-.02-32.518-.769C-3799.664-3467.2-3806.193-3472.454-3805.143-3478.565Z" transform="translate(3874.517 3587.596)" fill="#fad0c6"/>
      <ellipse id="Ellipse_132" data-name="Ellipse 132" cx="10.974" cy="10.375" rx="10.974" ry="10.375" transform="translate(94.503 68.397) rotate(-109.209)" fill="#4c4981"/>
      <path id="Pfad_2550" data-name="Pfad 2550" d="M-3469.069-3617.349a18.49,18.49,0,0,1,11.295,2.41c7.525,4.5,9.148,13.332,10.306,19.629,1.27,6.906,2.259,12.288-.887,16.016-4.757,5.637-16.233,4.261-23.375-.077-9.694-5.889-15.507-19.723-10.652-29.374C-3478.672-3616.12-3469.5-3617.3-3469.069-3617.349Z" transform="translate(3557.287 3661.872)" fill="#fad0c6"/>
      <path id="Pfad_2551" data-name="Pfad 2551" d="M-3411.73-3628.018c-7.654,20.346-14.323,25.03-19.138,25.3-3.049.174-7.013-.506-7.934,1.276-1.07,2.072,2.8,6.186,5.93,9.1-.523.36-5.606,3.735-10.928,1.6a9.657,9.657,0,0,1-4.761-4c-2.741-4.692.082-9.825.243-10.105a10.856,10.856,0,0,1,3.735-3.807c-4.033-7.686-2.3-12.275-1.85-13.332C-3443.086-3629.817-3428.688-3634.078-3411.73-3628.018Z" transform="translate(3516.637 3672.909)" fill="#935951"/>
      <ellipse id="Ellipse_133" data-name="Ellipse 133" cx="7.973" cy="5.76" rx="7.973" ry="5.76" transform="matrix(-0.65, -0.76, 0.76, -0.65, 82.93, 82.838)" fill="#fad0c6"/>
      <rect id="Rechteck_324" data-name="Rechteck 324" width="2.577" height="5.154" rx="1.288" transform="translate(102.734 67.579) rotate(158.618)" fill="#6c7fbc"/>
      <g id="Gruppe_393" data-name="Gruppe 393" transform="translate(99.742 73.992)">
        <g id="Gruppe_392" data-name="Gruppe 392" transform="translate(0 0)">
          <path id="Pfad_2572" data-name="Pfad 2572" d="M-3473.492-3450.312a.707.707,0,0,1-.067-.792.709.709,0,0,1,.964-.272,9.27,9.27,0,0,0,4.722,1.329,4.481,4.481,0,0,0,2.519-.824.707.707,0,0,1,.99.152.709.709,0,0,1-.152.99,5.951,5.951,0,0,1-3.3,1.1,10.731,10.731,0,0,1-5.472-1.509A.715.715,0,0,1-3473.492-3450.312Z" transform="translate(3473.65 3451.466)" fill="#9eadff"/>
        </g>
      </g>
    </g>
    <g id="Gruppe_2841" data-name="Gruppe 2841" transform="translate(434.855 1022.744) rotate(-171)">
      <path id="Pfad_2536-2" data-name="Pfad 2536" d="M13.491,115.082c-10.963-1.7-19.3-41.025-8.362-72.928C13.268,18.413,32.93-3.7,42.241.52c10.5,4.755,7.27,42.714-.888,69.162C36.326,85.979,23.645,116.652,13.491,115.082Z" transform="matrix(0.998, -0.07, 0.07, 0.998, 108.365, 110.972)" fill="#423f77"/>
      <path id="Pfad_2537-2" data-name="Pfad 2537" d="M31.83,150.837C22.963,154.521,3.976,130.029.453,104.988c-.937-6.659-.317-13.5.923-27.179A253.936,253.936,0,0,1,10.29,29.946C16.076,9.952,18.97-.046,21.694,0,33.561.2,50.908,142.911,31.83,150.837Z" transform="translate(99.416 6.309) rotate(-9)" fill="#423f77"/>
      <path id="Pfad_2538-2" data-name="Pfad 2538" d="M0,14.5c6.1,5.6,15.715,15.742,21.8,30.473,14.6,35.325-.574,74.141,4.029,75.112.522.11,1.554-.213,5.488-6.934C36.712,103.94,42.7,93.711,45.144,78.47c.627-3.909,3.581-24.1-6.16-48.021A101.622,101.622,0,0,0,19.509,0Z" transform="translate(105.569 268.297)" fill="#f7c8bc"/>
      <path id="Pfad_2539-2" data-name="Pfad 2539" d="M0,80.216a49.786,49.786,0,0,0,19.228,10.87q11.168,3.9,22.417,8.028,1.428.524,2.853,1.05a76.609,76.609,0,0,1,7.56-8.179q1.277-1.193,2.538-2.27a20.934,20.934,0,0,0,7.279-18.051c-.005-.048-.01-.1-.015-.146C60.336,56.768,60.244,54.735,60.48,52.29c.429-4.443,1.974-10.938,7.408-18.615a16.276,16.276,0,0,0,.7-2.8,20.108,20.108,0,0,0-.7-8.05c-1.44-4.807-6.427-11.355-11.2-15.048C41.093-4.3,11.089,1.225,9.8,1.476c.339,3.1.835,7.707,1.4,13.3.979,9.691,1.339,19.633,1.507,22.031.375,5.331.235,11.792-4.069,23.7A128.3,128.3,0,0,1,0,80.216Z" transform="translate(67.175 188.947)" fill="#3e3e6b"/>
      <path id="Pfad_2540-2" data-name="Pfad 2540" d="M20.907,32.277,22.3,19.658c.819.084,1.69.21,2.6.393a27.981,27.981,0,0,1,5.6,1.75A77.713,77.713,0,0,1,35.053,9.063C36.626,5.651,37.8,3.808,37,2.236c-1.368-2.7-7.08-2.265-9.921-2.12C21.543.4,11.9,2.092,0,10.822l6.975,2.949Q5.135,23.978,3.3,34.183Z" transform="translate(81.116 267.309)" fill="#fad0c6"/>
      <path id="Pfad_2541-2" data-name="Pfad 2541" d="M2.884,7.515A15.828,15.828,0,0,1,7.26,2.46C12.454-1.236,18.875.227,20.335.6q-.81,6.781-1.62,13.563L0,17.153A20.889,20.889,0,0,1,2.884,7.515Z" transform="translate(83.062 286.383)" fill="#f6afa1"/>
      <path id="Pfad_2542-2" data-name="Pfad 2542" d="M30.1,118.04c-6.969,2.529-15.9.045-21.613-5.078-19.532-17.522-.2-64.922,7-82.589C21.821,14.83,28.117-.61,34.774.019,45.022.986,49.824,39.445,48.07,67.9,47.043,84.559,45.32,112.515,30.1,118.04Z" transform="translate(89.903 91.592) rotate(8)" fill="#4c4981"/>
      <path id="Pfad_2543-2" data-name="Pfad 2543" d="M126.262,62.662c-2.2,7.7-9.531,31.064-21.347,31.5a8.75,8.75,0,0,1-2.069-.17c-4.288-.744-9.951-4.419-29.777-20.128-10.053-7.964-15.08-11.947-19.947-16.1C43.115,49.23,31.745,39.474,18.87,25.434,5.617,10.982-.214,6.371.006,1.66,5.533-8.8,89.359,33.219,104.214,42.015a64.132,64.132,0,0,1,20.647,18.547C125.469,61.431,125.946,62.165,126.262,62.662Z" transform="translate(13.105 23.101) rotate(8)" fill="#4c4981"/>
      <path id="Pfad_2546-2" data-name="Pfad 2546" d="M.125,15.242c1.223,7.111,10.915,9.947,14,10.849,2.322.679,3.855.791,17.5,1.05,6.085.115,9.127.173,11.134.193,21.508.212,61.548,44.23,65.258,40.767.4-.373,1.755-2.611-1.561-9.854-4.545-9.93-8.965-22.726-20.288-33.73C69.2,8.035,50.126,3.3,42.336,1.453c-14.149-3.346-27.869.022-35.561.841C6.117,2.809-1.024,8.56.125,15.242Z" transform="translate(67.049 253.921)" fill="#fad0c6"/>
      <ellipse id="Ellipse_132-2" data-name="Ellipse 132" cx="12.001" cy="11.347" rx="12.001" ry="11.347" transform="translate(116.084 321.066) rotate(109.209)" fill="#4c4981"/>
      <path id="Pfad_2550-2" data-name="Pfad 2550" d="M16.47,45.688a20.22,20.22,0,0,0,12.352-2.636c8.23-4.921,10-14.58,11.271-21.467,1.388-7.552,2.47-13.438-.971-17.515-5.2-6.164-17.753-4.66-25.563.085C2.958,10.594-3.4,25.723,1.91,36.278,5.967,44.344,16,45.634,16.47,45.688Z" transform="translate(71.312 294.022)" fill="#fad0c6"/>
      <path id="Pfad_2551-2" data-name="Pfad 2551" d="M41.582,41.538c-8.37-22.251-15.664-27.372-20.929-27.672-3.335-.19-7.669.554-8.676-1.4-1.17-2.266,3.065-6.765,6.485-9.952C17.889,2.124,12.33-1.566,6.51.769A10.56,10.56,0,0,0,1.3,5.143c-3,5.131.09,10.745.265,11.051a11.87,11.87,0,0,0,4.084,4.164c-4.41,8.405-2.518,13.424-2.023,14.58C7.291,43.505,23.036,48.164,41.582,41.538Z" transform="translate(64.45 297.77)" fill="#935951"/>
      <ellipse id="Ellipse_133-2" data-name="Ellipse 133" cx="8.72" cy="6.299" rx="8.72" ry="6.299" transform="matrix(-0.65, 0.76, -0.76, -0.65, 91.568, 306.002)" fill="#fad0c6"/>
      <rect id="Rechteck_324-2" data-name="Rechteck 324" width="2.818" height="5.636" rx="1.409" transform="translate(101.601 319.743) rotate(-158.618)" fill="#6c7fbc"/>
      <g id="Gruppe_393-2" data-name="Gruppe 393" transform="translate(100.385 304.375)">
        <g id="Gruppe_392-2" data-name="Gruppe 392" transform="translate(0 0)">
          <path id="Pfad_2572-2" data-name="Pfad 2572" d="M.173,1.845a.775.775,0,0,0,.98,1.163A10.138,10.138,0,0,1,6.318,1.554a4.9,4.9,0,0,1,2.755.9.774.774,0,1,0,.916-1.249A6.508,6.508,0,0,0,6.38.007,11.736,11.736,0,0,0,.4,1.656.782.782,0,0,0,.173,1.845Z" transform="translate(0 0)" fill="#9eadff"/>
        </g>
      </g>
    </g>
    <g id="Gruppe_2279" data-name="Gruppe 2279" transform="translate(1318 347.492)">
      <path id="e24a4cac-c114-4ef1-b0f1-484d7a954399" d="M418.408,404.58a6.968,6.968,0,1,1-6.968,6.968h0a6.967,6.967,0,0,1,6.968-6.968Zm-.937,2.516h0a.6.6,0,0,0-.542.379,2,2,0,0,0,0,1.548,3.958,3.958,0,0,0,.333.774s.085.124-.194.124H415.28a.55.55,0,0,0-.516.581.433.433,0,0,0,0,.046.581.581,0,0,0,.379.565m0,.039h0a.658.658,0,0,0-.372.534.488.488,0,0,0,.426.542v.039h0a.543.543,0,0,0-.279.519.449.449,0,0,0,.356.449m0,.039h0a.472.472,0,0,0-.186.426.439.439,0,0,0,.1.286.457.457,0,0,0,.356.163h3.871s.2,0,.2-.271v-2.524a3.267,3.267,0,0,0-.5-1.757,7.742,7.742,0,0,0-.9-1.1c-.054-.062-.255-.232-.255-.333v-.689a.418.418,0,0,0-.448-.386.337.337,0,0,0-.047.006Zm6.6-2.493h-1.548a.225.225,0,0,0-.217.217v3.523a.209.209,0,0,0,.2.217h1.564a.216.216,0,0,0,.217-.217v-3.507a.225.225,0,0,0-.217-.232Z" transform="translate(-393.679 -179.522)" fill="#9aa9fb"/>
      <path id="Pfad_582" data-name="Pfad 582" d="M404.716,396.909a.774.774,0,0,0,1.095,0l0,0,.426-.379c3.445-3.167,5.42-5.218,5.42-7.781a3.413,3.413,0,0,0-3.4-3.708,3.965,3.965,0,0,0-3.012,1.417,3.965,3.965,0,0,0-3.012-1.417,3.418,3.418,0,0,0-3.4,3.708c0,2.563,1.99,4.645,5.42,7.781Z" transform="translate(-370.209 -175.11)" fill="#ff696e"/>
      <path id="b3207b66-b034-4ba3-87a2-1b15ea8d219a" d="M392.408,357.58a6.968,6.968,0,1,1-6.968,6.968h0A6.968,6.968,0,0,1,392.408,357.58Zm-.937,2.516h0a.6.6,0,0,0-.542.379,2,2,0,0,0,0,1.548,3.956,3.956,0,0,0,.333.774s.085.124-.194.124H389.28a.55.55,0,0,0-.516.581.448.448,0,0,0,0,.046.58.58,0,0,0,.379.565m0,.039h0a.658.658,0,0,0-.372.534.488.488,0,0,0,.426.542v.039h0a.543.543,0,0,0-.279.519.449.449,0,0,0,.356.449m0,.039h0a.472.472,0,0,0-.186.426.439.439,0,0,0,.1.287.457.457,0,0,0,.356.163h3.871s.2,0,.2-.271v-2.524a3.268,3.268,0,0,0-.5-1.758,7.748,7.748,0,0,0-.9-1.1c-.054-.062-.256-.232-.256-.333v-.689a.418.418,0,0,0-.448-.386.311.311,0,0,0-.047.006Zm6.6-2.493h-1.548a.225.225,0,0,0-.217.217v3.523a.209.209,0,0,0,.2.217h1.564a.216.216,0,0,0,.217-.217v-3.507a.225.225,0,0,0-.217-.232Z" transform="translate(-347.55 -168.91)" fill="#9aa9fb"/>
      <path id="Pfad_583" data-name="Pfad 583" d="M412.716,352.909a.774.774,0,0,0,1.095,0l0,0,.426-.379c3.445-3.167,5.42-5.218,5.42-7.781a3.413,3.413,0,0,0-3.4-3.708,3.965,3.965,0,0,0-3.012,1.417,3.965,3.965,0,0,0-3.012-1.417,3.418,3.418,0,0,0-3.4,3.708c0,2.563,1.99,4.645,5.42,7.781Z" transform="translate(-384.403 -165.176)" fill="#ff696e"/>
      <path id="feabcd7f-6126-41fb-ad46-089c31a748ff" d="M392.166,245.29a12.5,12.5,0,1,1-12.5,12.511v-.008h0a12.5,12.5,0,0,1,12.488-12.5Zm-1.672,4.5h0a1.083,1.083,0,0,0-.968.689,3.6,3.6,0,0,0-.039,2.749,7.692,7.692,0,0,0,.6,1.378s.155.232-.348.225h-3.2a1,1,0,0,0-.921,1.071c0,.022,0,.045.008.067a1.03,1.03,0,0,0,.674,1,.047.047,0,0,1,0,.066l0,0h0a1.184,1.184,0,0,0-.666.96.875.875,0,0,0,.771.968h0a.054.054,0,0,1,.039.062h0a.968.968,0,0,0-.511.914.844.844,0,0,0,.643.813.063.063,0,0,1,.039.07h0a.868.868,0,0,0,.44,1.55l.048,0h6.86s.372,0,.372-.5V257.36a6,6,0,0,0-.9-3.143,17.2,17.2,0,0,0-1.61-1.967c-.1-.1-.465-.418-.465-.588v-1.231a.774.774,0,0,0-.867-.643Zm7.874,6.6h-2.756a.4.4,0,0,0-.395.395h0v6.294a.4.4,0,0,0,.395.395h2.748a.387.387,0,0,0,.387-.387v-6.31a.387.387,0,0,0-.379-.387Z" transform="translate(-348.384 -143.558)" fill="#9aa9fb"/>
      <path id="bc5fd902-9ec8-4b40-b095-3159fb5c2e67" d="M375.4,113.89a20.13,20.13,0,1,1-20.13,20.13h0A20.13,20.13,0,0,1,375.4,113.89Zm-2.694,7.247h0a1.733,1.733,0,0,0-1.548,1.115,5.791,5.791,0,0,0-.07,4.429,12.9,12.9,0,0,0,.96,2.23s.263.372-.557.356h-5.149a1.6,1.6,0,0,0-1.491,1.706c0,.04.007.081.012.121a1.672,1.672,0,0,0,1.092,1.618.077.077,0,0,1,.051.1l0,.012a.048.048,0,0,1-.039.046,1.927,1.927,0,0,0-1.076,1.548,1.416,1.416,0,0,0,1.239,1.548.093.093,0,0,1,.062.108.07.07,0,0,1-.046.046,1.548,1.548,0,0,0-.774,1.487,1.371,1.371,0,0,0,1.03,1.308.085.085,0,0,1,.064.1l0,.006a.112.112,0,0,1-.039.046,1.347,1.347,0,0,0-.534,1.208,1.307,1.307,0,0,0,.294.844,1.325,1.325,0,0,0,1.038.472h11.048s.6,0,.6-.774v-7.27a9.6,9.6,0,0,0-1.448-5.071,25.8,25.8,0,0,0-2.6-3.159c-.155-.178-.774-.681-.774-.952s-.039-.929-.054-1.99a1.232,1.232,0,0,0-1.237-1.225l-.048,0Zm12.674,10.653h-4.428a.635.635,0,0,0-.635.627v10.158a.635.635,0,0,0,.635.635h4.428a.635.635,0,0,0,.635-.635h0V132.417A.635.635,0,0,0,385.379,131.79Z" transform="translate(-320.345 -113.89)" fill="#9aa9fb"/>
      <path id="Pfad_584" data-name="Pfad 584" d="M372.792,321.245a1.471,1.471,0,0,0,1.966,0l.774-.681c6.194-5.66,9.732-9.337,9.732-13.936,0-3.739-2.361-6.627-6.078-6.627a7.076,7.076,0,0,0-5.42,2.524,7.092,7.092,0,0,0-5.42-2.524c-3.716,0-6.078,2.888-6.078,6.627,0,4.576,3.561,8.253,9.732,13.936Z" transform="translate(-315.499 -155.91)" fill="#ff696e"/>
      <path id="Pfad_585" data-name="Pfad 585" d="M421.519,231.544a2.323,2.323,0,0,0,3.167,0l1.216-1.1c9.949-9.128,15.693-15.059,15.693-22.452,0-6.031-3.817-10.692-9.8-10.692a11.442,11.442,0,0,0-8.694,4.08,11.428,11.428,0,0,0-8.687-4.08c-5.992,0-9.8,4.645-9.8,10.692,0,7.378,5.745,13.309,15.693,22.452Z" transform="translate(-404.61 -132.722)" fill="#ff696e"/>
    </g>
    <g id="Gruppe_2843" data-name="Gruppe 2843" transform="translate(331 271.125) rotate(-16)">
      <path id="e24a4cac-c114-4ef1-b0f1-484d7a954399-2" data-name="e24a4cac-c114-4ef1-b0f1-484d7a954399" d="M418.408,404.58a6.968,6.968,0,1,0,6.968,6.968h0a6.967,6.967,0,0,0-6.968-6.968Zm.937,2.516h0a.6.6,0,0,1,.542.379,2,2,0,0,1,0,1.548,3.958,3.958,0,0,1-.333.774s-.085.124.194.124h1.789a.55.55,0,0,1,.516.581.433.433,0,0,1,0,.046.581.581,0,0,1-.379.565m0,.039h0a.658.658,0,0,1,.372.534.488.488,0,0,1-.426.542v.039h0a.543.543,0,0,1,.279.519.449.449,0,0,1-.356.449m0,.039h0a.472.472,0,0,1,.186.426.439.439,0,0,1-.1.286.457.457,0,0,1-.356.163h-3.871s-.2,0-.2-.271v-2.524a3.267,3.267,0,0,1,.5-1.757,7.742,7.742,0,0,1,.9-1.1c.054-.062.255-.232.255-.333v-.689a.418.418,0,0,1,.448-.386.337.337,0,0,1,.047.006Zm-6.6-2.493h1.548a.225.225,0,0,1,.217.217v3.523a.209.209,0,0,1-.2.217h-1.564a.216.216,0,0,1-.217-.217v-3.507a.225.225,0,0,1,.217-.232Z" transform="translate(-367.952 -179.522)" fill="#9aa9fb"/>
      <path id="Pfad_582-2" data-name="Pfad 582" d="M405.785,396.909a.774.774,0,0,1-1.095,0l0,0-.426-.379c-3.445-3.167-5.42-5.218-5.42-7.781a3.413,3.413,0,0,1,3.4-3.708,3.965,3.965,0,0,1,3.012,1.417,3.965,3.965,0,0,1,3.012-1.417,3.418,3.418,0,0,1,3.4,3.708c0,2.563-1.99,4.645-5.42,7.781Z" transform="translate(-365.107 -175.11)" fill="#ff696e"/>
      <path id="b3207b66-b034-4ba3-87a2-1b15ea8d219a-2" data-name="b3207b66-b034-4ba3-87a2-1b15ea8d219a" d="M392.408,357.58a6.968,6.968,0,1,0,6.968,6.968h0A6.968,6.968,0,0,0,392.408,357.58Zm.937,2.516h0a.6.6,0,0,1,.542.379,2,2,0,0,1,0,1.548,3.956,3.956,0,0,1-.333.774s-.085.124.194.124h1.789a.55.55,0,0,1,.516.581.448.448,0,0,1,0,.046.58.58,0,0,1-.379.565m0,.039h0a.658.658,0,0,1,.372.534.488.488,0,0,1-.426.542v.039h0a.543.543,0,0,1,.279.519.449.449,0,0,1-.356.449m0,.039h0a.472.472,0,0,1,.186.426.439.439,0,0,1-.1.287.457.457,0,0,1-.356.163h-3.871s-.2,0-.2-.271v-2.524a3.268,3.268,0,0,1,.5-1.758,7.748,7.748,0,0,1,.9-1.1c.054-.062.256-.232.256-.333v-.689a.418.418,0,0,1,.448-.386.311.311,0,0,1,.047.006Zm-6.6-2.493h1.548a.225.225,0,0,1,.217.217v3.523a.209.209,0,0,1-.2.217h-1.564a.216.216,0,0,1-.217-.217v-3.507a.225.225,0,0,1,.217-.232Z" transform="translate(-362.082 -168.91)" fill="#9aa9fb"/>
      <path id="Pfad_583-2" data-name="Pfad 583" d="M413.785,352.909a.774.774,0,0,1-1.095,0l0,0-.426-.379c-3.445-3.167-5.42-5.218-5.42-7.781a3.413,3.413,0,0,1,3.4-3.708,3.965,3.965,0,0,1,3.012,1.417,3.965,3.965,0,0,1,3.012-1.417,3.418,3.418,0,0,1,3.4,3.708c0,2.563-1.99,4.645-5.42,7.781Z" transform="translate(-366.914 -165.176)" fill="#ff696e"/>
      <path id="feabcd7f-6126-41fb-ad46-089c31a748ff-2" data-name="feabcd7f-6126-41fb-ad46-089c31a748ff" d="M392.181,245.29a12.5,12.5,0,1,0,12.5,12.511v-.008h0a12.5,12.5,0,0,0-12.488-12.5Zm1.672,4.5h0a1.083,1.083,0,0,1,.968.689,3.6,3.6,0,0,1,.039,2.749,7.692,7.692,0,0,1-.6,1.378s-.155.232.348.225h3.2a1,1,0,0,1,.921,1.071c0,.022,0,.045-.008.067a1.03,1.03,0,0,1-.674,1,.047.047,0,0,0,0,.066l0,0h0a1.184,1.184,0,0,1,.666.96.875.875,0,0,1-.771.968h0a.054.054,0,0,0-.039.062h0a.968.968,0,0,1,.511.914.844.844,0,0,1-.643.813.063.063,0,0,0-.039.07h0a.868.868,0,0,1-.44,1.55l-.048,0h-6.86s-.372,0-.372-.5V257.36a6,6,0,0,1,.9-3.143,17.2,17.2,0,0,1,1.61-1.967c.1-.1.465-.418.465-.588v-1.231a.774.774,0,0,1,.867-.643Zm-7.874,6.6h2.756a.4.4,0,0,1,.395.395h0v6.294a.4.4,0,0,1-.395.395h-2.748a.387.387,0,0,1-.387-.387v-6.31a.387.387,0,0,1,.379-.387Z" transform="translate(-360.779 -143.557)" fill="#9aa9fb"/>
      <path id="bc5fd902-9ec8-4b40-b095-3159fb5c2e67-2" data-name="bc5fd902-9ec8-4b40-b095-3159fb5c2e67" d="M375.4,113.89a20.13,20.13,0,1,0,20.13,20.13h0A20.13,20.13,0,0,0,375.4,113.89Zm2.694,7.247h0a1.733,1.733,0,0,1,1.548,1.115,5.791,5.791,0,0,1,.07,4.429,12.9,12.9,0,0,1-.96,2.23s-.263.372.557.356h5.149a1.6,1.6,0,0,1,1.491,1.706c0,.04-.007.081-.012.121a1.672,1.672,0,0,1-1.092,1.618.077.077,0,0,0-.051.1l0,.012a.048.048,0,0,0,.039.046,1.927,1.927,0,0,1,1.076,1.548,1.416,1.416,0,0,1-1.239,1.548.093.093,0,0,0-.062.108.07.07,0,0,0,.046.046,1.548,1.548,0,0,1,.774,1.487,1.371,1.371,0,0,1-1.03,1.308.085.085,0,0,0-.064.1l0,.006a.112.112,0,0,0,.039.046,1.347,1.347,0,0,1,.534,1.208,1.307,1.307,0,0,1-.294.844,1.325,1.325,0,0,1-1.038.472H372.535s-.6,0-.6-.774v-7.27a9.6,9.6,0,0,1,1.448-5.071,25.8,25.8,0,0,1,2.6-3.159c.155-.178.774-.681.774-.952s.039-.929.054-1.99a1.232,1.232,0,0,1,1.237-1.225l.048,0ZM365.42,131.79h4.428a.635.635,0,0,1,.635.627v10.158a.635.635,0,0,1-.635.635H365.42a.635.635,0,0,1-.635-.635h0V132.417A.635.635,0,0,1,365.42,131.79Z" transform="translate(-355.27 -113.89)" fill="#9aa9fb"/>
      <path id="Pfad_584-2" data-name="Pfad 584" d="M374.743,321.245a1.471,1.471,0,0,1-1.966,0l-.774-.681c-6.194-5.66-9.732-9.337-9.732-13.936,0-3.739,2.361-6.627,6.078-6.627a7.076,7.076,0,0,1,5.42,2.524,7.092,7.092,0,0,1,5.42-2.524c3.716,0,6.078,2.888,6.078,6.627,0,4.576-3.561,8.253-9.732,13.936Z" transform="translate(-356.85 -155.91)" fill="#ff696e"/>
      <path id="Pfad_585-2" data-name="Pfad 585" d="M424.685,231.544a2.323,2.323,0,0,1-3.167,0l-1.216-1.1c-9.949-9.128-15.693-15.059-15.693-22.452,0-6.031,3.817-10.692,9.8-10.692a11.442,11.442,0,0,1,8.695,4.08,11.428,11.428,0,0,1,8.687-4.08c5.992,0,9.8,4.645,9.8,10.692,0,7.378-5.745,13.309-15.693,22.452Z" transform="translate(-366.41 -132.722)" fill="#ff696e"/>
    </g>
    <ellipse id="Ellipse_195" data-name="Ellipse 195" cx="141.023" cy="14.27" rx="141.023" ry="14.27" transform="matrix(-1, -0.017, 0.017, -1, 1804.502, 951.301)" fill="#9aa9fb" opacity="0.2"/>
    <g id="Gruppe_377" data-name="Gruppe 377" transform="translate(1641.08 858.102) rotate(8)">
      <path id="Pfad_2506" data-name="Pfad 2506" d="M-4657.458-4263.607l7.2,1.408,10.834-56.079h-5.428a2.38,2.38,0,0,0-2.336,1.926Z" transform="translate(4670.074 4318.552)" fill="#6c7fbc"/>
      <path id="Pfad_2507" data-name="Pfad 2507" d="M-4593.1-4312.15h86.2a1.7,1.7,0,0,0,1.516-2.453l-1.344-2.687a4.563,4.563,0,0,0-4.082-2.522l-81.615.265a2.013,2.013,0,0,0-1.942,2.518Z" transform="translate(4618.277 4319.813)" fill="#6c7fbc"/>
      <rect id="Rechteck_320" data-name="Rechteck 320" width="97.975" height="6.842" rx="3.421" transform="translate(97.975 61.303) rotate(-180)" fill="#6c7fbc"/>
      <path id="Pfad_2508" data-name="Pfad 2508" d="M-4629.283-4246.4h82.158a2.508,2.508,0,0,0,2.464-2.04l8.9-46.892a2.509,2.509,0,0,0-2.464-2.976h-82.159a2.509,2.509,0,0,0-2.465,2.041l-8.9,46.892A2.509,2.509,0,0,0-4629.283-4246.4Z" transform="translate(4648.981 4302.143)" fill="#9eadff"/>
      <circle id="Ellipse_127" data-name="Ellipse 127" cx="5.384" cy="5.384" r="5.384" transform="translate(61.576 24.571)" fill="#fff"/>
    </g>
    <g id="Gruppe_2820" data-name="Gruppe 2820" transform="translate(1025 338.254)">
      <path id="Pfad_4104" data-name="Pfad 4104" d="M18.1,46.978c4.778-1.74,5.83-6.139,10.635-15.544C38.79,11.751,48.1,3.781,45.6.823,43.944-1.139,38.582.864,35.353,2.1,16,9.523-3.941,29.65.673,40.479c2.4,5.637,11.425,8.685,17.426,6.5" transform="matrix(-0.819, 0.574, -0.574, -0.819, 185.837, 111.94)" fill="#f7c8bc"/>
      <path id="Pfad_4107" data-name="Pfad 4107" d="M17.2,17.562C19.2,12.576,17.04,8.087,19.035,3.1,12.179,2.1,11.3,1,4.448,0L0,20.928l17.2-3.366" transform="matrix(-0.978, 0.208, -0.208, -0.978, 106.089, 66.26)" fill="#fad0c6"/>
      <path id="Pfad_4109" data-name="Pfad 4109" d="M10.854,5.589C13.685,3.6,18.265.464,24.759.1,28.05-.084,32.9-.343,35.737,2.662c4.482,4.744.853,14.355-1.464,20.492-2.136,5.658-3.419,9.054-6.953,11.71C20.862,39.718,9,40.512,3.169,33.4c-4.833-5.9-3.243-14.144-1.1-18.662,2.118-4.463,5.517-6.853,8.782-9.148" transform="matrix(-0.978, 0.208, -0.208, -0.978, 114.662, 49.646)" fill="#fad0c6"/>
      <path id="Pfad_4111" data-name="Pfad 4111" d="M399.589,80.4a11.025,11.025,0,0,1-1.927,1.268c-5.765,3.094-12.173,1.929-21.47-.331-9.323-2.266-15.132-4.377-26.749-8.6-4.723-1.716-7.7-2.883-9.337-6.076-2.234-4.361-.636-9.908,1.243-14.579,8.344-20.744,30.928-45.962,35.249-42.7,1.761,1.329-1.386,10.711-7.68,29.474-1.546,4.611-2.945,8.5-4.023,11.416,4.2.855,10.388,2.046,17.935,3.244,14.88,2.363,18.405,2.157,20.767,5.722,3.669,5.538,1.7,16.331-4.008,21.159" transform="translate(-317.344 16.152)" fill="#fad0c6"/>
      <path id="Pfad_4112" data-name="Pfad 4112" d="M.864,5.273h0A1.4,1.4,0,0,1,.1,3.448L1.171.864A1.4,1.4,0,0,1,3.755,1.93L2.689,4.514a1.4,1.4,0,0,1-1.825.759" transform="translate(85.531 30.615) rotate(171)" fill="#5d5cb0"/>
      <path id="Pfad_5128" data-name="Pfad 5128" d="M401.229,227.6a11.508,11.508,0,0,1-2.011,1.324c-6.016,3.229-12.7,2.013-22.408-.346-9.731-2.365-15.793-4.568-27.917-8.975-4.929-1.791-8.037-3.009-9.745-6.341-2.331-4.551,27-20.148,25.872-17.1,4.385.892,10.841,2.135,18.718,3.386,15.53,2.466,19.209,2.251,21.674,5.972,3.829,5.78,1.771,17.044-4.183,22.083" transform="translate(-316.381 -129.712)" fill="#d6ddea"/>
      <path id="Pfad_4103" data-name="Pfad 4103" d="M41.9,47.563a90.8,90.8,0,0,1-14.88-9.754C11.744,25.519-3.228,6.48.608,1.337c2.484-3.33,12.28-.072,29.729,5.732a230.491,230.491,0,0,1,22.906,9Z" transform="matrix(-0.819, 0.574, -0.574, -0.819, 165.5, 82.953)" fill="#c7cfdd"/>
      <g id="Gruppe_2810" data-name="Gruppe 2810" transform="matrix(-0.951, -0.309, 0.309, -0.951, 108.498, 64.391)">
        <g id="Gruppe_2809" data-name="Gruppe 2809" transform="translate(0 0)" clip-path="url(#clip-path-2)">
          <path id="Pfad_5129" data-name="Pfad 5129" d="M0,56H48.032V0H0Z" transform="translate(-4.502 -4.157)" fill="#2f2e41"/>
        </g>
      </g>
      <path id="Pfad_5127" data-name="Pfad 5127" d="M29.363,18.619a11.7,11.7,0,0,1-2.969-1.542c-.9-.666-1.82-1.318-2.771-1.916a16.008,16.008,0,0,0-6.1-2.477l-.2-.027c-1.827-.236-3.9-.085-5.255-1.334a5.247,5.247,0,0,1-1.236-4.354A21.824,21.824,0,0,0,11.157,2.3C11.019,1.264,10.414.112,9.371.007A2.774,2.774,0,0,0,7.411.9,21.395,21.395,0,0,0,3.55,28.9c3.051,4.609,8.235,8.033,13.762,7.963,5.89-.074,11.094-3.9,16.908-4.855,1-.163,2.213-.4,2.525-1.36.088-.271.1-.6.326-.773.5-.393,1.037.414,1.542.8a1.774,1.774,0,0,0,2.243-.339,5.17,5.17,0,0,0,1.084-2.2l.822,1.127a7.259,7.259,0,0,0-6.433-10.587c-1.631,0-3.257.541-4.872.31a5.116,5.116,0,0,1-2.372-1.017,5.368,5.368,0,0,1-.948-.935c-.168-.213-.448-.938-.76-.869-.388.086.022,1.149.1,1.4s.359,1.243.815.993" transform="translate(110.656 50.498) rotate(-158)" fill="#2f2e41"/>
      <g id="Gruppe_2819" data-name="Gruppe 2819" transform="matrix(-1, -0.017, 0.017, -1, 191.634, 339.565)">
        <path id="Pfad_5139" data-name="Pfad 5139" d="M13.084,14.066S-.79,8.541.035,5.462,15.146,1.336,15.146,1.336C54.1-2.08,77.462,1.2,86.243,9.551s18.789,39.575,30.024,93.666H71.225Q60.548,36.777,59.286,33.988C58.446,32.128,44.2,25.223,13.084,14.066Z" transform="translate(0 68.267)" fill="#3c3976" fill-rule="evenodd"/>
        <path id="Pfad_5140" data-name="Pfad 5140" d="M91.717,11.238S102.022-1.174,106.2.09s-.538,17.414-.538,17.414S92.133,62.309,81.5,88.615s-22.055,51.693-34.262,76.16H0A742.836,742.836,0,0,1,43.164,80.411,571.012,571.012,0,0,1,91.717,11.238Z" transform="translate(61.849 15.021) rotate(-8)" fill="#4c4981" fill-rule="evenodd"/>
      </g>
      <path id="Pfad_5142" data-name="Pfad 5142" d="M76.548-1.354c-49.185,8.83-58.733,3.155-75.6,0-3.455,0-2.8-4.988-2.3-7.506C4.4-37.911,26.9-69.227,26.9-110.58a21.481,21.481,0,0,0,10.617,1.407c5.452-.855,11.19-4.826,11.19-4.826C66.748-84.99,79.327-55.533,76.548-1.354Z" transform="translate(55.22 175.41)" fill="#d6ddea" fill-rule="evenodd"/>
    </g>
    <g id="Gruppe_2838" data-name="Gruppe 2838" transform="translate(1.246 126.336)">
      <g id="Gruppe_2822" data-name="Gruppe 2822" transform="translate(425.558 -4438.031)">
        <path id="Pfad_2526" data-name="Pfad 2526" d="M-5599.216-2919.974c-11.005.839-22.3,39.214-13.9,71.7,6.249,24.177,24.054,47.623,33.615,44.156,10.778-3.91,10.5-41.814,4.437-68.678C-5578.8-2889.348-5589.022-2920.75-5599.216-2919.974Z" transform="translate(5977.644 7827.325)" fill="#3e3e6b"/>
        <path id="Pfad_2527" data-name="Pfad 2527" d="M-5551.914-2532.276c-8.062-4.106-27.685,17.522-32.819,40.793-1.365,6.188-1.28,12.66-1.111,25.6a239.331,239.331,0,0,0,4.89,45.62c3.981,19.207,5.973,28.811,8.534,28.966C-5561.256-2390.616-5534.565-2523.439-5551.914-2532.276Z" transform="translate(5953.38 7515.193)" fill="#3e3e6b"/>
        <path id="Pfad_2528" data-name="Pfad 2528" d="M-5629.477-3654.5c6.48-5.088,16.8-14.408,23.972-28.554,17.2-33.921,5.129-73.593,9.771-74.2.526-.069,1.525.331,4.911,7.3,4.642,9.554,9.794,20.162,11.048,35.468.322,3.927,1.7,24.184-9.8,47.165a101.122,101.122,0,0,1-21.661,28.709Z" transform="translate(5988.478 8502.261)" fill="#f4c9be"/>
        <path id="Pfad_2529" data-name="Pfad 2529" d="M-5814.4-3243.271q2.634-1.46,5.4-2.9,5.676-2.962,11.105-5.44a199.362,199.362,0,0,1,23.05-5.086q1.427-.227,2.839-.43a76.3,76.3,0,0,0,6.872,8.7q1.174,1.283,2.343,2.447a20.829,20.829,0,0,1,5.832,18.467l-.026.145c-2.644,14.514-2.891,16.524-2.845,18.967.084,4.44,1.118,11,5.918,19.036a29.615,29.615,0,0,1,.852,7.381,29.02,29.02,0,0,1-2.084,9.242c-2.707,6.336-20.641,12.816-45.15,11.225-1.487-11.705-6.633-23.323-8.705-35.727C-5811.649-3213.123-5811.225-3228.775-5814.4-3243.271Z" transform="translate(6137.543 8099.099)" fill="#a15da8"/>
        <ellipse id="Ellipse_130" data-name="Ellipse 130" cx="10.973" cy="11.606" rx="10.973" ry="11.606" transform="translate(340.049 4791.105) rotate(-13.248)" fill="#ffe577"/>
        <path id="Pfad_2530" data-name="Pfad 2530" d="M-5743.647-3316.054c.655,3.883,1.751,11.465,1.751,11.465l1.547-.166s1.9-.293,2.441-.3c2.336,4.194,5.164,9.183,7.566,12.026,2.606,3.086,4.438,4.668,3.98,6.153-.8,2.583-7.851,2.544-9.771,2.533-5.969-.033-17.03-1.539-32.012-12.049l9.052-3.83q-1.07-8.484-2.142-16.967Z" transform="translate(6100.259 8147.517)" fill="#fad0c6"/>
        <path id="Pfad_2531" data-name="Pfad 2531" d="M-5736.6-3317.911a15.721,15.721,0,0,0,4.567,4.838c5.321,3.452,11.641,1.722,13.077,1.291l-2.191-13.413-18.733-2.173A20.778,20.778,0,0,0-5736.6-3317.911Z" transform="translate(6077.477 8155.717)" fill="#f4c9be"/>
        <path id="Pfad_2532" data-name="Pfad 2532" d="M-5798.422-3533.09a20.325,20.325,0,0,1,12.412,2.667c8.263,4.959,10.034,14.669,11.3,21.593,1.384,7.593,2.463,13.51-1,17.6-5.236,6.188-17.85,4.657-25.692-.123-10.646-6.489-17.012-21.7-11.661-32.3C-5808.98-3531.755-5798.894-3533.037-5798.422-3533.09Z" transform="translate(6138.032 8321.643)" fill="#fad0c6"/>
        <path id="Pfad_2533" data-name="Pfad 2533" d="M-5809.731-3542.151c-8.446,22.352-15.785,27.489-21.077,27.781-3.939.218-7.948-.3-8.723,1.39-1.113,2.427,5.769,7.314,11.867,12.389a159.532,159.532,0,0,1,22.737,23.357,35.18,35.18,0,0,0-11.521,1.466,35.085,35.085,0,0,0-8.327,3.757,75.477,75.477,0,0,1-14.973-17.759c-3.859-6.376-19.107-31.573-8.138-45.806,6.836-8.87,21.779-10.8,32.038-8.547A33.659,33.659,0,0,1-5809.731-3542.151Z" transform="translate(6167.683 8331.138)" fill="#fff2cc"/>
        <ellipse id="Ellipse_131" data-name="Ellipse 131" cx="5.901" cy="8.169" rx="5.901" ry="8.169" transform="translate(322.09 4817.648) rotate(-40.487)" fill="#fad0c6"/>
        <g id="Gruppe_383" data-name="Gruppe 383" transform="translate(351.705 4822.192) rotate(-16)">
          <g id="Gruppe_382" data-name="Gruppe 382" transform="translate(0 0)">
            <path id="Pfad_2534" data-name="Pfad 2534" d="M9.714,3.362A.771.771,0,0,0,9.1,1.978,10.094,10.094,0,0,1,3.763,1.93,4.873,4.873,0,0,1,1.382.3.77.77,0,1,0,.159,1.24,6.472,6.472,0,0,0,3.272,3.391a11.676,11.676,0,0,0,6.175.089A.774.774,0,0,0,9.714,3.362Z" fill="#9eadff"/>
          </g>
        </g>
        <path id="Pfad_2535" data-name="Pfad 2535" d="M-6043.126-3192.273a12.391,12.391,0,0,1-5.558,19.27,84.878,84.878,0,0,0-24.727,14.047c-29.978,24.795-34.859,66.931-39.461,65.607-.522-.15-1.3-.934-1.626-8.853-.453-10.856-.954-22.91,4.119-37.778,7.566-22.174,22.248-34.957,28.451-40.235a101.418,101.418,0,0,1,30.655-17.886,19.011,19.011,0,0,1,7.721,5.317C-6043.406-3192.615-6043.265-3192.445-6043.126-3192.273Z" transform="translate(6379.675 8051.514)" fill="#fad0c6"/>
        <path id="Pfad_2544" data-name="Pfad 2544" d="M-5726.007-2886.332c-6.934-2.517-15.824-.044-21.5,5.052-19.435,17.435-.2,64.6,6.964,82.176,6.306,15.465,12.57,30.829,19.193,30.2,10.2-.962,14.975-39.229,13.23-67.538C-5709.146-2853.018-5710.859-2880.833-5726.007-2886.332Z" transform="translate(6090.431 7800.995)" fill="#4c4981"/>
        <path id="Pfad_2545" data-name="Pfad 2545" d="M-6070.036-2435.135c-2.189-7.659-9.482-30.908-21.24-31.338a8.7,8.7,0,0,0-2.059.169c-4.268.74-9.9,4.4-29.628,20.027-10,7.925-15,11.887-19.848,16.017-9.956,8.489-21.269,18.2-34.079,32.167-13.187,14.38-19.96,21.4-18.771,23.656,5.5,10.4,88.906-31.4,103.688-40.153a63.824,63.824,0,0,0,20.544-18.454C-6070.825-2433.909-6070.35-2434.641-6070.036-2435.135Z" transform="translate(6444.991 7461.748)" fill="#4c4981"/>
        <path id="Pfad_2547" data-name="Pfad 2547" d="M-5347.559-3824.6c8.318-1.611,19.147-2.468,24.561,3.171,7.548,7.861-8.473,29.082,5.371,41.94s33.861,17.521,50.005,9.491c6.928-3.446,27.552-14.412,39.242-36.813,10.4-19.937,5.506-52.178,26.738-66.357" transform="translate(5761.222 8556.767)" fill="none" stroke="#9eadff" stroke-miterlimit="10" stroke-width="2"/>
        <g id="Gruppe_2278" data-name="Gruppe 2278" transform="translate(373.612 4731.03)">
          <path id="Pfad_4815" data-name="Pfad 4815" d="M3.376,0h25.63a3.376,3.376,0,0,1,3.376,3.376V7.418a3.376,3.376,0,0,1-3.376,3.376H3.376A3.376,3.376,0,0,1,0,7.418V3.376A3.376,3.376,0,0,1,3.376,0Z" transform="matrix(-0.813, 0.582, -0.582, -0.813, 38.341, 9.16)" fill="#fc6681"/>
          <path id="Pfad_2548" data-name="Pfad 2548" d="M-5395.036-3828.945l-7.161,1.524a2.3,2.3,0,0,0-1.394,3.592l3.4,4.76a2.3,2.3,0,0,0,3.849-.158l3.757-6.284A2.3,2.3,0,0,0-5395.036-3828.945Z" transform="translate(5433.125 3829.055)" fill="#fff2cc"/>
          <path id="Pfad_2549" data-name="Pfad 2549" d="M-5363.4-3829.01l1.069-.227a2.3,2.3,0,0,1,2.456,3.434l-.657,1.1Z" transform="translate(5400.379 3829.291)" fill="#5d5cb0"/>
          <path id="Pfad_4816" data-name="Pfad 4816" d="M2.562,0h5.85a2.562,2.562,0,0,1,2.562,2.562v5.85a2.562,2.562,0,0,1-2.562,2.562H2.562A2.562,2.562,0,0,1,0,8.412V2.562A2.562,2.562,0,0,1,2.562,0Z" transform="matrix(0.582, 0.813, -0.813, 0.582, 8.926, 16.787)" fill="#9eadff"/>
        </g>
        <rect id="Rechteck_328" data-name="Rechteck 328" width="2.804" height="5.608" rx="1.402" transform="matrix(0.866, -0.5, 0.5, 0.866, 350.436, 4809.794)" fill="#6c7fbc"/>
      </g>
      <g id="Alle_Krebsarten" data-name="Alle Krebsarten" transform="matrix(0.978, -0.208, 0.208, 0.978, 765, 432.375)">
        <g id="Gruppe_419" data-name="Gruppe 419" transform="matrix(0.616, -0.788, 0.788, 0.616, 0, 11.811)">
          <g transform="matrix(0.44, 0.9, -0.9, 0.44, -7.73, -723.54)" filter="url(#Pfad_2647)">
            <path id="Pfad_2647-4" data-name="Pfad 2647" d="M0,.983a3.478,3.478,0,0,1,1.77.264A2.46,2.46,0,0,1,2.811,2a2.536,2.536,0,0,1,.469,1.331,3.633,3.633,0,0,1-.164,1.584A9.039,9.039,0,0,0,4.786,2.21a1.791,1.791,0,0,0,.028-.838A1.752,1.752,0,0,0,4.461.659,1.816,1.816,0,0,0,3.768.143,1.988,1.988,0,0,0,2.964,0a2.458,2.458,0,0,0-.978.243C1.541.438.912.687,0,.983Z" transform="translate(658.15 301.13) rotate(-64)" fill="#8695eb"/>
          </g>
          <g transform="matrix(0.44, 0.9, -0.9, 0.44, -7.73, -723.54)" filter="url(#Pfad_2648)">
            <path id="Pfad_2648-4" data-name="Pfad 2648" d="M8.679,0A.43.43,0,0,1,8.6.032,5.784,5.784,0,0,0,7.353.651,2.792,2.792,0,0,0,6.572,1.71,5.618,5.618,0,0,0,6.1,2.884c-.3,1.053-.629,2.1-.923,3.153-.219.784-.211.674-.716,2.328-.273.893-.657,2.175-1.1,3.757l-1.421-.354L0,13.162C1.571,9.035,2.212,7.076,2.484,6.071A17.884,17.884,0,0,1,3.26,3.895a5.112,5.112,0,0,1,.8-1.515A4.9,4.9,0,0,1,5.32,1.342,9.73,9.73,0,0,1,6.905.566c.447-.188.735-.284.908-.338A7.242,7.242,0,0,1,8.679,0Z" transform="translate(655.53 306.54) rotate(-64)" fill="#9eadff"/>
          </g>
          <g transform="matrix(0.44, 0.9, -0.9, 0.44, -7.73, -723.54)" filter="url(#Pfad_2649)">
            <path id="Pfad_2649-4" data-name="Pfad 2649" d="M14.8,0a.431.431,0,0,0-.049.069,5.783,5.783,0,0,1-.887,1.073,2.792,2.792,0,0,1-1.21.519,5.617,5.617,0,0,1-1.25.19c-1.094.053-2.186.133-3.28.179-.814.034-.7.051-2.43.165-.932.062-2.268.143-3.91.217L1.8,3.876,0,5.443c4.377-.587,6.43-.763,7.471-.8a17.886,17.886,0,0,0,2.3-.259,5.112,5.112,0,0,0,1.658-.433,4.9,4.9,0,0,0,1.3-.988A9.73,9.73,0,0,0,13.84,1.6c.285-.392.444-.65.536-.807A7.245,7.245,0,0,0,14.8,0Z" transform="translate(655.99 311.35) rotate(-64)" fill="#9eadff"/>
          </g>
        </g>
      </g>
    </g>
    <g id="Gruppe_2840" data-name="Gruppe 2840" transform="translate(30 -40)">
      <g id="Gruppe_381" data-name="Gruppe 381" transform="matrix(0.934, 0.358, -0.358, 0.934, 1279.571, 593.455)">
        <path id="Pfad_2510" data-name="Pfad 2510" d="M-4267.158-3245.823c-10.083,1.11-19.27,36.706-10.555,66.287,6.486,22.014,23.565,43,32.24,39.518,9.779-3.924,8.349-38.73,1.954-63.218C-4247.46-3218.324-4257.819-3246.852-4267.158-3245.823Z" transform="translate(4363.891 3396.627)" fill="#5d5cb0"/>
        <path id="Pfad_2511" data-name="Pfad 2511" d="M-4271.9-2873.322c-7.533-3.523-24.887,16.949-28.884,38.481-1.063,5.726-.786,11.668-.23,23.551a219.982,219.982,0,0,0,5.9,41.75c4.25,17.519,6.375,26.278,8.733,26.342C-4276.106-2742.92-4255.694-2865.742-4271.9-2873.322Z" transform="translate(4394.942 3090.805)" fill="#5d5cb0"/>
        <path id="Pfad_2512" data-name="Pfad 2512" d="M-4250.229-3996.582a79.6,79.6,0,0,0,21.135-26.967c14.746-31.687,2.439-67.753,6.683-68.456.482-.08,1.412.257,4.737,6.554,4.558,8.632,9.619,18.216,11.244,32.236.417,3.6,2.309,22.159-7.546,43.623a92.924,92.924,0,0,1-19.009,27.038Z" transform="translate(4325.955 4092.013)" fill="#f6afa1"/>
        <path id="Pfad_2513" data-name="Pfad 2513" d="M-4263.667-3780.263c-5.05,7.208-12.772,17.928-23.609,18.771-1.976.154-8.985.7-12.465-3.677a10.553,10.553,0,0,1-1.941-4.713,11.337,11.337,0,0,1,1.346-7.56c.876-1.416,1.306-1.256,3.607-3.83,0,0,1.415-1.582,3.292-4.186,6.725-9.328,12.863-22.837,12.863-22.837,1.8-3.957,4.066-9.3,6.362-15.81l26.051,4.915A93.388,93.388,0,0,1-4263.667-3780.263Z" transform="translate(4377.303 3871.842)" fill="#3e3e6b"/>
        <path id="Pfad_2514" data-name="Pfad 2514" d="M-3866.851-3515.261a75.637,75.637,0,0,0-28.638,15.477c-24.862,22.012-27.817,58.1-31.781,57.1-.449-.113-1.132-.759-1.641-7.506-.7-9.248-1.471-19.516,2.43-32.346,5.818-19.133,17.977-30.46,23.116-35.141a86.567,86.567,0,0,1,25.638-16.138,16.232,16.232,0,0,1,6.74,4.314C-3865.788-3523.874-3866.688-3516.441-3866.851-3515.261Z" transform="translate(3929.48 3633.278)" fill="#fad0c6"/>
        <path id="Pfad_2515" data-name="Pfad 2515" d="M-3931.022-3522.843c6.407-5.086,16.122-12.6,26-10.479,1.8.386,8.19,1.753,10.134,6.573a9.211,9.211,0,0,1,.482,4.712c-.626,4.125-3.859,6.772-4.932,7.679-4.811,4.06-17.064,16.028-33.877,32.475l-21.918-10.379A86.8,86.8,0,0,1-3931.022-3522.843Z" transform="translate(3961.655 3633.176)" fill="#4c4981"/>
        <path id="Pfad_2516" data-name="Pfad 2516" d="M-4152.88-3566.45q2.374-1.423,4.87-2.835,5.121-2.9,10.032-5.339a183.219,183.219,0,0,1,21.014-5.384q1.3-.253,2.595-.483a70.125,70.125,0,0,0,6.579,7.774c1.62,1.653,3.23,3.134,4.792,4.455a11.552,11.552,0,0,1,3.953,10.528c-.192,1.283-.4,2.656-.61,4.107-1.98,13.412-2.146,15.267-2.027,17.509.214,4.076,1.366,10.071,6.024,17.3a27.249,27.249,0,0,1,1.01,6.753,26.66,26.66,0,0,1-1.629,8.552c-2.291,5.9-18.562,12.41-41.124,11.7-1.727-10.705-6.574-21.26-8.861-32.589C-4149.187-3538.887-4149.519-3553.233-4152.88-3566.45Z" transform="translate(4197.245 3671.638)" fill="#4c4981"/>
        <path id="Pfad_2517" data-name="Pfad 2517" d="M-4048.125-3644.726q.54,6.268,1.08,12.535,2.758-.5,5.626-1.087,2.844-.587,5.552-1.22c5.235,3.164,8.006,7.528,7.1,10.888-.605,2.257-2.795,3.564-3.621,4.008-2.4,1.287-4.721,1.027-9.693.127a120.314,120.314,0,0,1-14.769-3.22c-2.622-.8-6.112-1.966-10.158-3.637l6.2-2.435q-1.385-9.018-2.77-18.036Z" transform="translate(4115.89 3726.135)" fill="#fad0c6"/>
        <path id="Pfad_2518" data-name="Pfad 2518" d="M-3960.248-3648.516a13.916,13.916,0,0,0,3.734,4.546c4.484,3.369,10.165,2.228,11.458,1.936q-.558-5.983-1.116-11.966l-16.393-3.058A18.367,18.367,0,0,0-3960.248-3648.516Z" transform="translate(4013.742 3734.563)" fill="#f6afa1"/>
        <path id="Pfad_2519" data-name="Pfad 2519" d="M-4050.535-3703.452a20.437,20.437,0,0,0,3.572,2.922c2.579,1.661,4.214,1.882,4.419,2.97.28,1.486-2.381,3.144-3.181,3.642-1.745,1.087-5.492,2.915-11.6,2.313Z" transform="translate(4128.095 3772.689)" fill="#505072"/>
        <ellipse id="Ellipse_128" data-name="Ellipse 128" cx="10.666" cy="10.084" rx="10.666" ry="10.084" transform="translate(62.656 69.997) rotate(-105.174)" fill="#505072"/>
        <path id="Pfad_2520" data-name="Pfad 2520" d="M-4000.321-3831.572a17.967,17.967,0,0,1,10.786,3.109c6.988,4.877,7.958,13.551,8.649,19.736.759,6.782,1.35,12.068-1.955,15.468-5,5.139-16.031,3.02-22.658-1.674-9-6.373-13.685-20.182-8.319-29.207C-4009.716-3831.038-4000.74-3831.554-4000.321-3831.572Z" transform="translate(4058.516 3877.993)" fill="#fad0c6"/>
        <path id="Pfad_2521" data-name="Pfad 2521" d="M-3951.547-3839.661c-8.812,19.2-15.6,23.287-20.285,23.224-3.487-.047-6.993-.749-7.779.695-1.311,2.407,5.615,8.615,9.714,11.652a45.341,45.341,0,0,0,8.735,5.067,3.6,3.6,0,0,1-.873,1.9c-1.153,1.232-2.48.547-4.849,1.593-1.951.861-2.133,1.8-3.414,1.76-1.316-.046-1.386-1.051-2.892-1.439-2.008-.518-2.948.994-5.318.886-1.364-.062-1.7-.592-3.739-1.487-4.74-2.077-5.772-.459-8.113-2.246,0,0-2.27-1.734-3.778-6.578a5.75,5.75,0,0,1-.219-1.119h0a3.4,3.4,0,0,0,2.716-1.126c.922-1.376-.6-3.122-.364-5.774a8.486,8.486,0,0,1,2.049-4.41c4.012-5.595.756-13.34,4.349-19.123,4.756-7.656,19.338-8.352,28.783-5.589A29.75,29.75,0,0,1-3951.547-3839.661Z" transform="translate(4025.897 3887.58)" fill="#725454"/>
        <ellipse id="Ellipse_129" data-name="Ellipse 129" cx="7.224" cy="5.218" rx="7.224" ry="5.218" transform="matrix(-0.595, -0.803, 0.803, -0.595, 49.57, 82.626)" fill="#fad0c6"/>
        <g id="Gruppe_378" data-name="Gruppe 378" transform="translate(67.309 66.866)">
          <path id="Pfad_2522" data-name="Pfad 2522" d="M-3986.732-3712.284a1.631,1.631,0,0,0,1.588-.151c.942-.731.5-2.342-.049-3.821a.775.775,0,0,0-1-.455.775.775,0,0,0-.455,1,5.9,5.9,0,0,1,.5,1.991c-.341-.073-1.3-.464-3.628-2.392a.775.775,0,0,0-1.091.1.775.775,0,0,0,.1,1.092A14.079,14.079,0,0,0-3986.732-3712.284Zm.567-1.293h0Z" transform="translate(3991.045 3716.76)" fill="#6c7fbc"/>
        </g>
        <path id="Pfad_2523" data-name="Pfad 2523" d="M-4386.271-3189.467c7.688,1.1,22.253,6.446,39.707,18.022,17.957,11.909,26.946,17.808,29.559,28.959,9.3,39.7-63.065,114.971-71.875,102.354a12.773,12.773,0,0,1-1.874-4.9c-1.437-8.562,8.084-21.2,8.084-21.2s6.19-9.43,15.159-29.479c4.061-9.079,7.649-21.962,17.474-36.349-1.261-1.255-40.4-13.022-42.694-14.568-1-.673-6.715-2.034-9.982-6.408-2.594-3.473-5.752-5.34-8.076-13.887s-.779-16.113.553-23.316A97.346,97.346,0,0,1-4386.271-3189.467Z" transform="translate(4628.714 3125.106) rotate(-3)" fill="#9eadff"/>
        <g id="Gruppe_380" data-name="Gruppe 380" transform="matrix(-0.995, 0.105, -0.105, -0.995, 76.294, 79.623)">
          <g id="Gruppe_379" data-name="Gruppe 379" transform="translate(0 0)">
            <path id="Pfad_2525" data-name="Pfad 2525" d="M.332.254A.681.681,0,0,0,.789,1.512a8.927,8.927,0,0,1,4.706.368,4.311,4.311,0,0,1,2,1.581.681.681,0,1,0,1.135-.753A5.722,5.722,0,0,0,6.016.621,10.322,10.322,0,0,0,.574.166.679.679,0,0,0,.332.254Z" fill="#9eadff"/>
          </g>
        </g>
      </g>
      <g id="Alle_Krebsarten-2" data-name="Alle Krebsarten" transform="matrix(0.978, -0.208, 0.208, 0.978, 1285, 722.736)">
        <g id="Gruppe_419-2" data-name="Gruppe 419" transform="matrix(0.616, -0.788, 0.788, 0.616, 0, 11.351)">
          <g transform="matrix(0.44, 0.9, -0.9, 0.44, -137.17, -1270.84)" filter="url(#Pfad_2647-2)">
            <path id="Pfad_2647-5" data-name="Pfad 2647" d="M0,.945A3.343,3.343,0,0,1,1.7,1.2a2.364,2.364,0,0,1,1,.724A2.437,2.437,0,0,1,3.153,3.2,3.491,3.491,0,0,1,3,4.725a8.687,8.687,0,0,0,1.6-2.6,1.721,1.721,0,0,0,.027-.805A1.684,1.684,0,0,0,4.287.633a1.745,1.745,0,0,0-.665-.5A1.911,1.911,0,0,0,2.848,0a2.362,2.362,0,0,0-.94.234C1.481.421.877.66,0,.945Z" transform="translate(1206.63 425.06) rotate(-64)" fill="#8695eb"/>
          </g>
          <g transform="matrix(0.44, 0.9, -0.9, 0.44, -137.17, -1270.84)" filter="url(#Pfad_2648-2)">
            <path id="Pfad_2648-5" data-name="Pfad 2648" d="M8.341,0a.413.413,0,0,1-.075.03,5.559,5.559,0,0,0-1.2.595,2.683,2.683,0,0,0-.751,1.018,5.4,5.4,0,0,0-.452,1.128c-.29,1.012-.6,2.016-.887,3.03-.21.754-.2.648-.688,2.238-.262.858-.631,2.09-1.062,3.611L1.861,11.31,0,12.65C1.51,8.683,2.126,6.8,2.387,5.835a17.188,17.188,0,0,1,.746-2.091A4.913,4.913,0,0,1,3.9,2.287a4.713,4.713,0,0,1,1.21-1A9.352,9.352,0,0,1,6.637.544c.429-.18.706-.273.873-.325A6.961,6.961,0,0,1,8.341,0Z" transform="translate(1204.12 430.26) rotate(-64)" fill="#9eadff"/>
          </g>
          <g transform="matrix(0.44, 0.9, -0.9, 0.44, -137.17, -1270.84)" filter="url(#Pfad_2649-2)">
            <path id="Pfad_2649-5" data-name="Pfad 2649" d="M14.22,0a.414.414,0,0,0-.047.066A5.558,5.558,0,0,1,13.32,1.1a2.683,2.683,0,0,1-1.163.5,5.4,5.4,0,0,1-1.2.183c-1.051.051-2.1.128-3.153.172-.782.032-.677.049-2.336.159-.9.059-2.179.137-3.758.209L1.73,3.726,0,5.231c4.206-.564,6.18-.733,7.18-.768a17.19,17.19,0,0,0,2.207-.249A4.913,4.913,0,0,0,10.98,3.8a4.713,4.713,0,0,0,1.247-.95A9.351,9.351,0,0,0,13.3,1.535c.274-.377.427-.625.516-.775A6.963,6.963,0,0,0,14.22,0Z" transform="translate(1204.56 434.88) rotate(-64)" fill="#9eadff"/>
          </g>
        </g>
      </g>
    </g>
    <g id="Gruppe_836" data-name="Gruppe 836" transform="translate(115 456.455)">
      <g id="Gruppe_835" data-name="Gruppe 835" clip-path="url(#clip-path-4)">
        <path id="Pfad_4103-2" data-name="Pfad 4103" d="M82.78,241.445a96.008,96.008,0,0,0-15.733,10.313C50.9,264.753,35.065,284.883,39.122,290.321c2.627,3.521,12.984.076,31.433-6.06a243.7,243.7,0,0,0,24.219-9.514Z" transform="translate(-28.157 -176.676)" fill="#f6afa1"/>
        <path id="Pfad_4104-2" data-name="Pfad 4104" d="M57.487,381.269c5.052,1.84,6.164,6.491,11.245,16.435,10.633,20.812,20.471,29.239,17.832,32.366-1.75,2.074-7.42-.044-10.834-1.353C55.266,420.87,34.184,399.59,39.062,388.14c2.539-5.96,12.08-9.183,18.425-6.872" transform="translate(-28.063 -278.441)" fill="#f6afa1"/>
        <path id="Pfad_4105" data-name="Pfad 4105" d="M75.7,668.159Q74.383,658.1,72.672,648.7L49.318,610.639a103.692,103.692,0,0,0-5.19,24.219c-.9,9.955-.332,19.905,3.892,39.789.787,3.7.615,12.394-.471,12.633-28.666,6.3-55.244,99.682-45.5,103.8,1.916.809,4.058-2.329,15.474-15.165,20.294-22.82,36.7-38.957,48.106-50.833,4.509-.809,11.114-48.921,10.067-56.921" transform="translate(0 -446.831)" fill="#f2d899"/>
        <path id="Pfad_4106" data-name="Pfad 4106" d="M203.189,491.336a70.844,70.844,0,0,0-12.542,12.11,72.819,72.819,0,0,0-12.472,23.266l-.019.06c-.3.941-1.45,5.125,2.544,11.7,5.965,9.829,14.622,10.521,18.164,19.462a19.4,19.4,0,0,1,1.3,7.785c16.115-13.05,29.786-21.431,37.193-25.084a124.539,124.539,0,0,1,17.3-6.92c1.967-.587,3.617-1.016,4.757-1.3q-.344-4.576-.837-9.307c-.98-9.362-2.328-18.236-3.92-26.588l-51.465-5.19" transform="translate(-130.084 -359.532)" fill="#fff2cc"/>
        <path id="Pfad_4107-2" data-name="Pfad 4107" d="M274.416,149.109l6.327,15.817L259,168.089l-2.768-22.539,18.189,3.559" transform="translate(-187.493 -106.505)" fill="#fad0c6"/>
        <path id="Pfad_4108" data-name="Pfad 4108" d="M188.108,213.011c-.906,10.925,1.258,18.673,3.46,23.787,7.216,16.758,22.768,23.237,21.191,34.6a14.823,14.823,0,0,1-3.892,7.785,85.226,85.226,0,0,0,33.3,9.947,84.043,84.043,0,0,0,20.759-.865q-.451-4.733-.865-9.515-1.638-18.91-2.6-37.193a10.861,10.861,0,0,0,3.028-3.892c2.659-5.934-1.289-12.988-3.46-16.867-2.839-5.073-4.447-5.421-7.785-11.245a55.869,55.869,0,0,1-4.325-9.514,99.649,99.649,0,0,0-44.546,6.055,95.434,95.434,0,0,0-14.272,6.92" transform="translate(-137.492 -146.08)" fill="#5d5cb0"/>
        <path id="Pfad_4109-2" data-name="Pfad 4109" d="M221.035,53.71c2.994,2.106,7.836,5.419,14.7,5.8,3.48.195,8.606.468,11.607-2.708,4.739-5.016.9-15.178-1.548-21.667-2.258-5.982-3.614-9.573-7.351-12.381-6.829-5.133-19.372-5.972-25.536,1.548-5.11,6.235-3.429,14.954-1.161,19.732,2.24,4.718,5.834,7.245,9.286,9.673" transform="translate(-153.344 -13.744)" fill="#fad0c6"/>
        <path id="Pfad_4110" data-name="Pfad 4110" d="M212.367,21.47c-2.212-1.415-5.559-1.68-6.844-.219-1.784,2.028.458,8.114,4.745,10.676a9.976,9.976,0,0,0,4.46,1.35c1.125,4.119.1,6.376-.506,7.349-3.178,5.11-13.311,4.6-19.771,1.186-9.439-4.989-10.591-16.025-10.676-17a22.961,22.961,0,0,1,9.885-20.562C198,1.305,202.179.949,209.873.294a81.525,81.525,0,0,1,20.166.791,22.1,22.1,0,0,1-8.7,10.676,21.6,21.6,0,0,1-9.095,3.164l5.435,9.5-1.181.59-1.181.59a7.143,7.143,0,0,0-2.952-4.132" transform="translate(-134.416 0)" fill="#fc819c"/>
        <path id="Pfad_4111-2" data-name="Pfad 4111" d="M345.222,84.487a11.654,11.654,0,0,0,2.037,1.341c6.1,3.271,12.87,2.04,22.7-.35,9.858-2.4,16-4.628,28.282-9.092,4.993-1.815,8.142-3.048,9.872-6.424,2.362-4.611.672-10.475-1.315-15.415C397.978,32.614,374.1,5.95,369.531,9.4c-1.861,1.406,1.466,11.325,8.12,31.163,1.635,4.875,3.113,8.985,4.254,12.07-4.443.9-10.983,2.163-18.963,3.43-15.733,2.5-19.46,2.281-21.957,6.05-3.879,5.855-1.795,17.267,4.238,22.372" transform="translate(-248.073 -6.657)" fill="#fad0c6"/>
        <path id="Pfad_4112-2" data-name="Pfad 4112" d="M325.577,69.189h0a1.482,1.482,0,0,0-.8,1.93l1.127,2.732a1.478,1.478,0,0,0,2.732-1.127l-1.127-2.732a1.482,1.482,0,0,0-1.93-.8" transform="translate(-237.57 -50.548)" fill="#5d5cb0"/>
        <path id="Pfad_4113" data-name="Pfad 4113" d="M288.925,623.471c-.545-5.935-.861-8.94-3.027-10.812-8.881-7.674-43.162,5.16-55.358,29.842-2.33,4.715-2.541,53.95-5.1,56.427-21.078,20.425,5.378,113.839,15.834,112.22,2.056-.318,2.228-4.114,5.2-21.034,7.991-45.56,37.418-130.275,38.128-132.476a84.167,84.167,0,0,0,4.325-34.166" transform="translate(-159.165 -446.689)" fill="#fff2cc"/>
      </g>
    </g>
    <g id="Menschen_Frau_sitzt_2" transform="translate(842.191 776.441)">
      <path id="Pfad_2224" data-name="Pfad 2224" d="M1959.782,487.819c-14.1,14.641-33.38,39.9-36.675,73.558-1.018,10.4-2.22,22.682,3.2,25.406,10.24,5.146,45.337-23.226,46.957-58.3C1974.164,508.943,1964.378,493.977,1959.782,487.819Z" transform="translate(-1800.402 -435.816)" fill="#f6afa1"/>
      <path id="Pfad_2225" data-name="Pfad 2225" d="M1949.214,486.976a83.261,83.261,0,0,0-10.932,12.214c-3.995,5.458-6.4,8.749-7.438,13.48-1.723,7.877,1.394,15.016,3.719,19.058a56.956,56.956,0,0,1-42.3,39.279q11.676.812,24.117,2.312,4.97.607,9.791,1.3s18.174,2.789,28.308,8.533c.573.324,1.094.636,1.81,1.112,2.165,1.436,13.7,9.09,13.4,20.058-.292,10.841-11.934,17.164-12.419,17.418,3.547.149,13.8.11,20.753-7.04,2.344-2.411,4.469-5.791,6.739-14.875a108.527,108.527,0,0,0,3.283-27.309c-.194-10.643,2.449-26.5,15.656-48.495a23.584,23.584,0,0,0,1.07-24.729c-6.333-11.18-19.091-11.8-19.784-11.82q-32.827,26.9-39.26,21.621Q1941.347,505.5,1949.214,486.976Z" transform="translate(-1788.403 -435.478)" fill="#d16682"/>
      <path id="Pfad_2226" data-name="Pfad 2226" d="M2045.094,505.976a13.977,13.977,0,0,1,7.308.654c8.87,3.787,9.445,20.933,11.448,50.87,1.223,18.265,1.833,27.4,2.308,31.338,5.114,42.508,24.3,71.341,20.743,73.289-1.583.866-6.19-4.391-11.843-10.843-1.563-1.783-4.855-5.668-11.754-16.107-.772-1.169-6.109-9.26-9.276-14.745-12.8-22.159-18.664-51.116-21.237-64.2-4.324-21.982-4.026-31.666.173-39.331C2034.419,514.241,2038.207,507.327,2045.094,505.976Z" transform="translate(-1843.422 -442.999)" fill="#fad0c6"/>
      <path id="Pfad_2227" data-name="Pfad 2227" d="M2059.736,527.774c2.786-18.048-7.056-32.409-16.437-33.913-10.071-1.615-25.4,10.66-26.2,31.129a67.054,67.054,0,0,1,42.636,2.784Z" transform="translate(-1838.385 -438.178)" fill="#d16682"/>
      <g id="Gruppe_305" data-name="Gruppe 305" transform="translate(0 77.377)">
        <path id="Pfad_2228" data-name="Pfad 2228" d="M1878.141,605.27c-7.365,10.938-50.559,5.237-76.409-18.054-19.237-17.333-30.88-46.219-21.879-54.485,10.147-9.319,45.985,8.072,67.886,26.423C1861.236,570.461,1884.964,595.139,1878.141,605.27Z" transform="translate(-1742.159 -530.135)" fill="#5d5cb0"/>
        <path id="Pfad_2229" data-name="Pfad 2229" d="M1762.813,530.508c11.177.374,23.984,28.814,19.318,51.587-1.241,6.056-4.285,11.649-10.372,22.834a193.592,193.592,0,0,1-26.412,37.32c-13.339,14.772-20.009,22.157-23.038,21.038C1709.112,658.409,1738.763,529.7,1762.813,530.508Z" transform="translate(-1719.056 -530.283)" fill="#5d5cb0"/>
      </g>
      <g id="Gruppe_306" data-name="Gruppe 306" transform="translate(49.797 99.076)">
        <path id="Pfad_2230" data-name="Pfad 2230" d="M1961.381,647.929c-7.47,11.67-50.608,5.1-76.234-20.171-19.07-18.81-30.437-49.949-21.357-58.732,10.236-9.9,45.906,9.139,67.632,29.069C1944.807,610.375,1968.3,637.12,1961.381,647.929Z" transform="translate(-1825.527 -566.323)" fill="#4c4981"/>
        <path id="Pfad_2231" data-name="Pfad 2231" d="M1847.013,566.329c11.173.516,23.709,31.186,18.825,55.594-1.3,6.49-4.4,12.465-10.589,24.414a207.921,207.921,0,0,1-26.768,39.8c-13.479,15.725-20.219,23.588-23.237,22.355C1792.094,703.123,1822.971,565.219,1847.013,566.329Z" transform="translate(-1802.102 -566.323)" fill="#4c4981"/>
      </g>
      <path id="Pfad_2232" data-name="Pfad 2232" d="M1991.56,437.322a17.22,17.22,0,0,1-6.154-3.673,11.008,11.008,0,0,1-3.423-5.546c-2.467-10.514,13.536-25.221,29.545-26.7,3.234-.3,12.4-1.144,18.6,5.355,5.5,5.752,6.208,14.672,3.613,20.794a19.9,19.9,0,0,1-.94,1.876,27.619,27.619,0,0,1-8.722,8.763C2019.146,441.289,2006.463,442.52,1991.56,437.322Z" transform="translate(-1824.225 -401.135)" fill="#fad0c6"/>
      <path id="Pfad_2233" data-name="Pfad 2233" d="M1992.315,453.929q-1.777,6.516-3.555,13.033c-1.307.387-2.687.85-4.123,1.406q-1.3.5-2.472,1.03-10.942,22.093-6.135,26.331,6.946,6.127,46.782-25.037l-7.7-1.759q.272-12.93.544-25.861Z" transform="translate(-1821.355 -417.9)" fill="#fad0c6"/>
      <path id="Pfad_2234" data-name="Pfad 2234" d="M2039.954,438.576c6.877-5.058,8.78-7.088,10.252-10.072,2.939-5.964,2.736-14.911-2.423-20.966-5.828-6.842-15.024-6.52-18.271-6.406a32.545,32.545,0,0,0-6.022.8Z" transform="translate(-1840.944 -401.092)" fill="#d16682"/>
      <circle id="Ellipse_39" data-name="Ellipse 39" cx="7.271" cy="7.271" r="7.271" transform="translate(193.464 29.283)" fill="#d16682"/>
      <path id="Pfad_2235" data-name="Pfad 2235" d="M2062.478,487s-6.484-2.581-9.369-8.331-1.078-12.491-1.078-12.491,6.484,2.581,9.369,8.331S2062.478,487,2062.478,487Z" transform="translate(-1852.148 -427.15)" fill="#d16682"/>
      <path id="Pfad_2236" data-name="Pfad 2236" d="M2075.361,471.332s-6.906,1.009-12.28-2.527-7.181-10.277-7.181-10.277,6.906-1.009,12.28,2.527S2075.361,471.332,2075.361,471.332Z" transform="translate(-1853.921 -424.035)" fill="#d16682"/>
      <ellipse id="Ellipse_40" data-name="Ellipse 40" cx="9.043" cy="6.532" rx="9.043" ry="6.532" transform="translate(182.478 26.294) rotate(-25.853)" fill="#fad0c6"/>
      <g id="Gruppe_307" data-name="Gruppe 307" transform="translate(172.918 6.332)">
        <path id="Pfad_2237" data-name="Pfad 2237" d="M2009.723,418.531a2.525,2.525,0,0,1-2.09-1.31c-.8-1.665.928-3.588,2.719-5.249a1.2,1.2,0,1,1,1.631,1.758,9.138,9.138,0,0,0-2.072,2.406c.523.135,2.125.263,6.676-.79a1.2,1.2,0,0,1,.541,2.337C2013.649,418.488,2011.265,418.774,2009.723,418.531Zm.113-2.181h0Z" transform="translate(-2007.434 -411.652)" fill="#9eadff"/>
      </g>
    </g>
    <g id="Gruppe_388" data-name="Gruppe 388" transform="translate(972.508 347.492) rotate(19)">
      <g id="Gruppe_387" data-name="Gruppe 387" clip-path="url(#clip-path-5)">
        <rect id="Rechteck_325" data-name="Rechteck 325" width="35.52" height="38.08" rx="17.76" transform="translate(0.977 0.068)" fill="#e1e6ff"/>
        <g id="Instagram" transform="translate(-0.04 -0.04)">
          <path id="Pfad_3" data-name="Pfad 3" d="M-3701.932-3991.876a58.874,58.874,0,0,1,7.683.214,9.9,9.9,0,0,1,3.628.641,7.5,7.5,0,0,1,3.628,3.628,9.9,9.9,0,0,1,.641,3.628c0,1.921.214,2.562.214,7.683a58.963,58.963,0,0,1-.214,7.683,9.9,9.9,0,0,1-.641,3.628,7.493,7.493,0,0,1-3.628,3.628,9.9,9.9,0,0,1-3.628.641c-1.921,0-2.562.214-7.683.214a58.92,58.92,0,0,1-7.683-.214,9.9,9.9,0,0,1-3.628-.641,7.5,7.5,0,0,1-3.628-3.628,9.9,9.9,0,0,1-.641-3.628c0-1.921-.214-2.562-.214-7.683a58.961,58.961,0,0,1,.214-7.683,9.9,9.9,0,0,1,.641-3.628,7.665,7.665,0,0,1,1.493-2.135,3.6,3.6,0,0,1,2.135-1.493,9.9,9.9,0,0,1,3.628-.641,58.877,58.877,0,0,1,7.683-.214m0-3.414a63.063,63.063,0,0,0-7.9.214,13.179,13.179,0,0,0-4.694.852,8.352,8.352,0,0,0-3.415,2.135,8.355,8.355,0,0,0-2.137,3.417,9.726,9.726,0,0,0-.852,4.694,63.152,63.152,0,0,0-.214,7.9,63.161,63.161,0,0,0,.214,7.9,13.177,13.177,0,0,0,.855,4.7,8.357,8.357,0,0,0,2.135,3.414,8.357,8.357,0,0,0,3.415,2.135,13.188,13.188,0,0,0,4.7.855,63.071,63.071,0,0,0,7.895.211,63.063,63.063,0,0,0,7.9-.213,13.174,13.174,0,0,0,4.7-.855,8.954,8.954,0,0,0,5.549-5.549,13.175,13.175,0,0,0,.855-4.7c0-2.132.211-2.773.211-7.895a63.059,63.059,0,0,0-.213-7.9,13.179,13.179,0,0,0-.855-4.7,8.354,8.354,0,0,0-2.135-3.414,8.354,8.354,0,0,0-3.414-2.135,13.181,13.181,0,0,0-4.694-.852,63.063,63.063,0,0,0-7.9-.214m0,9.39a9.66,9.66,0,0,0-9.818,9.5q0,.16,0,.32a9.818,9.818,0,0,0,9.818,9.818,9.818,9.818,0,0,0,9.818-9.818,9.818,9.818,0,0,0-9.818-9.818h0m0,16.222a6.289,6.289,0,0,1-6.4-6.171q0-.116,0-.233a6.289,6.289,0,0,1,6.171-6.4q.116,0,.233,0a6.289,6.289,0,0,1,6.4,6.171q0,.116,0,.233a6.289,6.289,0,0,1-6.171,6.4c-.078,0-.155,0-.233,0m10.246-18.995a2.348,2.348,0,0,0-2.348,2.348,2.348,2.348,0,0,0,2.348,2.348,2.348,2.348,0,0,0,2.348-2.348h0a2.367,2.367,0,0,0-2.348-2.348" transform="translate(3721.18 3995.33)" fill="#7b75ff" fill-rule="evenodd"/>
        </g>
      </g>
    </g>
    <g id="Alle_Krebsarten-3" data-name="Alle Krebsarten" transform="translate(864.191 653.129) rotate(-31)">
      <g id="Gruppe_419-3" data-name="Gruppe 419" transform="matrix(0.616, -0.788, 0.788, 0.616, 0, 83.567)">
        <g transform="matrix(0.12, 0.99, -0.99, 0.12, 364.72, -842.96)" filter="url(#Pfad_2647-3)">
          <path id="Pfad_2647-6" data-name="Pfad 2647" d="M0,6.959a24.611,24.611,0,0,1,12.526,1.87,17.405,17.405,0,0,1,7.364,5.333,17.941,17.941,0,0,1,3.321,9.416,25.7,25.7,0,0,1-1.157,11.208c.526-.608,10.033-11.686,11.808-19.147a12.672,12.672,0,0,0,.2-5.929,12.394,12.394,0,0,0-2.5-5.05,12.847,12.847,0,0,0-4.9-3.648A14.065,14.065,0,0,0,20.969,0a17.388,17.388,0,0,0-6.92,1.719C10.9,3.1,6.455,4.86,0,6.959Z" transform="translate(800.97 393.55) rotate(-83)" fill="#8695eb"/>
        </g>
        <g transform="matrix(0.12, 0.99, -0.99, 0.12, 364.72, -842.96)" filter="url(#Pfad_2648-3)">
          <path id="Pfad_2648-6" data-name="Pfad 2648" d="M61.4.006a3.041,3.041,0,0,1-.555.223,40.926,40.926,0,0,0-8.824,4.378c-2.464,1.812-3.591,3.917-5.527,7.5a39.752,39.752,0,0,0-3.33,8.3c-2.134,7.448-4.451,14.843-6.531,22.306-1.547,5.55-1.491,4.77-5.066,16.474-1.931,6.32-4.648,15.389-7.815,26.581L13.7,83.259,0,93.126c11.115-29.2,15.648-43.059,17.575-50.173a126.536,126.536,0,0,1,5.494-15.4c2.306-5.759,3.579-8.2,5.663-10.718A34.7,34.7,0,0,1,37.638,9.5,68.845,68.845,0,0,1,48.858,4c3.16-1.328,5.2-2.007,6.424-2.392A51.243,51.243,0,0,1,61.4.006Z" transform="translate(795.97 435.82) rotate(-83)" fill="#9eadff"/>
        </g>
        <g transform="matrix(0.12, 0.99, -0.99, 0.12, 364.72, -842.96)" filter="url(#Pfad_2649-3)">
          <path id="Pfad_2649-6" data-name="Pfad 2649" d="M104.684,0a3.05,3.05,0,0,0-.344.489A40.919,40.919,0,0,1,98.062,8.08c-2.327,1.985-4.633,2.6-8.56,3.669A39.745,39.745,0,0,1,80.659,13.1c-7.738.376-15.468.942-23.209,1.263-5.757.238-4.985.362-17.2,1.169-6.594.436-16.044,1.01-27.663,1.537q.072,5.182.143,10.363L0,38.511c30.967-4.152,45.495-5.4,52.86-5.65a126.549,126.549,0,0,0,16.245-1.832c6.133-.929,8.8-1.612,11.728-3.066a34.7,34.7,0,0,0,9.181-6.993A68.84,68.84,0,0,0,97.926,11.3c2.015-2.773,3.142-4.6,3.8-5.708A51.258,51.258,0,0,0,104.684,0Z" transform="translate(810.11 466.93) rotate(-83)" fill="#9eadff"/>
        </g>
      </g>
    </g>
    <g id="Gruppe_2236" data-name="Gruppe 2236" transform="translate(458.612 714.671)">
      <g id="Group_22" data-name="Group 22">
        <g id="Group_2" data-name="Group 2">
          <path id="Rectangle_76" data-name="Rectangle 76" d="M3.172.109,3.43.252a.225.225,0,0,1,.088.305L.76,5.532a.225.225,0,0,1-.305.088L.2,5.477a.225.225,0,0,1-.088-.305L2.866.2A.225.225,0,0,1,3.172.109Z" transform="translate(37.428 21.499)" fill="#4c4981"/>
          <path id="Rectangle_76-2" data-name="Rectangle 76" d="M1.891.109l.258.143a.225.225,0,0,1,.088.305L.76,3.222a.225.225,0,0,1-.305.088L.2,3.166a.225.225,0,0,1-.088-.305L1.586.2A.225.225,0,0,1,1.891.109Z" transform="translate(19.008 5.755)" fill="#4c4981"/>
          <path id="Rectangle_76-3" data-name="Rectangle 76" d="M1.891.109l.258.143a.225.225,0,0,1,.088.305L.76,3.222a.225.225,0,0,1-.305.088L.2,3.166a.225.225,0,0,1-.088-.305L1.586.2A.225.225,0,0,1,1.891.109Z" transform="translate(17.148 9.109)" fill="#4c4981"/>
          <path id="Rectangle_80" data-name="Rectangle 80" d="M27.745,1.9l14.923,8.272a3.922,3.922,0,0,1,1.53,5.336L23.692,52.5a3.922,3.922,0,0,1-5.336,1.53L3.433,45.763A3.922,3.922,0,0,1,1.9,40.427L22.409,3.433A3.922,3.922,0,0,1,27.745,1.9Z" transform="translate(0 0)" fill="#5d5cb0"/>
          <path id="Path_176" data-name="Path 176" d="M40.4,9.628l-2.5-1.385-.165.3a1.593,1.593,0,0,1-.416.487,1.614,1.614,0,0,1-.554.279,1.632,1.632,0,0,1-1.237-.146L27.584,4.754a1.632,1.632,0,0,1-.779-.971,1.614,1.614,0,0,1-.057-.618,1.593,1.593,0,0,1,.192-.611l.165-.3-2.34-1.3a1.982,1.982,0,0,0-1.5-.177,1.961,1.961,0,0,0-.673.339,1.936,1.936,0,0,0-.506.591L.95,39.843a1.935,1.935,0,0,0-.234.742,1.961,1.961,0,0,0,.069.75,1.982,1.982,0,0,0,.946,1.18L17.37,51.184a1.983,1.983,0,0,0,1.5.177,1.961,1.961,0,0,0,.673-.339,1.936,1.936,0,0,0,.506-.591L41.184,12.3a1.946,1.946,0,0,0,.238-1.112,1.969,1.969,0,0,0-.216-.742,1.994,1.994,0,0,0-.8-.821Z" transform="translate(2.012 1.915)" fill="#4c4981"/>
          <path id="Ellipse_11" data-name="Ellipse 11" d="M8.691,2.285a4.7,4.7,0,1,1-1.784-.565A4.7,4.7,0,0,1,8.691,2.285Z" transform="translate(16.58 21.961)" fill="#4c4981"/>
          <path id="IMG_7505" d="M24.718.951l15.731,8.72a1.961,1.961,0,0,1,.765,2.668L20.115,50.4a1.961,1.961,0,0,1-2.668.765L1.716,42.448A1.961,1.961,0,0,1,.951,39.78L22.05,1.716A1.961,1.961,0,0,1,24.718.951Z" transform="translate(1.962 1.856)" fill="#fff"/>
          <g id="Gruppe_2237" data-name="Gruppe 2237" transform="translate(29.538 4.849)">
            <path id="Rectangle_76-4" data-name="Rectangle 76" d="M.476.623.821,0,9.269,4.683l-.345.623a.98.98,0,0,1-1.334.383L.858,1.956A.98.98,0,0,1,.476.623Z" fill="#5d5cb0"/>
            <path id="Rectangle_76-5" data-name="Rectangle 76" d="M2.849,1.764a.3.3,0,0,1-.414.119L.266.681a.3.3,0,1,1,.3-.533l2.169,1.2a.3.3,0,0,1,.119.414Z" transform="translate(3.088 2.021)" fill="#1c1c2d"/>
          </g>
        </g>
      </g>
    </g>
    <g id="Gruppe_2823" data-name="Gruppe 2823" transform="translate(1198.184 347.626)">
      <g id="Group_22-2" data-name="Group 22">
        <g id="Group_2-2" data-name="Group 2">
          <path id="Rectangle_76-6" data-name="Rectangle 76" d="M.205.212l.27-.12a.225.225,0,0,1,.3.114L3.085,5.4a.225.225,0,0,1-.114.3l-.27.12A.225.225,0,0,1,2.4,5.7L.091.508a.225.225,0,0,1,.114-.3Z" transform="translate(26.854 9.917)" fill="#4c4981"/>
          <path id="Rectangle_76-7" data-name="Rectangle 76" d="M.205.212l.27-.12a.225.225,0,0,1,.3.114L2.011,2.988a.225.225,0,0,1-.114.3l-.27.12a.225.225,0,0,1-.3-.114L.091.508a.225.225,0,0,1,.114-.3Z" transform="translate(2.424 16.176)" fill="#4c4981"/>
          <path id="Rectangle_76-8" data-name="Rectangle 76" d="M.205.212l.27-.12a.225.225,0,0,1,.3.114L2.011,2.988a.225.225,0,0,1-.114.3l-.27.12a.225.225,0,0,1-.3-.114L.091.508a.225.225,0,0,1,.114-.3Z" transform="translate(3.984 19.68)" fill="#4c4981"/>
          <path id="Rectangle_80-2" data-name="Rectangle 80" d="M3.586,8.536,19.173,1.6a3.922,3.922,0,0,1,5.182,1.989l17.2,38.641a3.922,3.922,0,0,1-1.989,5.182l-15.587,6.94A3.922,3.922,0,0,1,18.8,52.359L1.6,13.719A3.922,3.922,0,0,1,3.586,8.536Z" fill="#5d5cb0"/>
          <path id="Path_176-2" data-name="Path 176" d="M18.143.8,15.532,1.967l.138.311a1.593,1.593,0,0,1,.138.626,1.614,1.614,0,0,1-.111.61,1.632,1.632,0,0,1-.861.9l-8.3,3.7a1.632,1.632,0,0,1-1.245.038,1.614,1.614,0,0,1-.528-.326A1.593,1.593,0,0,1,4.39,7.3l-.138-.311L1.807,8.078A1.982,1.982,0,0,0,.763,9.171a1.961,1.961,0,0,0-.134.741,1.935,1.935,0,0,0,.168.76L18.529,50.5a1.936,1.936,0,0,0,.452.633,1.961,1.961,0,0,0,.641.4,1.983,1.983,0,0,0,1.511-.045L37.468,44.21a1.983,1.983,0,0,0,1.045-1.093,1.961,1.961,0,0,0,.134-.741,1.936,1.936,0,0,0-.168-.76L20.748,1.792A1.946,1.946,0,0,0,20,.933a1.969,1.969,0,0,0-.722-.274A1.994,1.994,0,0,0,18.143.8Z" transform="translate(1.972 1.816)" fill="#4c4981"/>
          <path id="Ellipse_11-2" data-name="Ellipse 11" d="M4.305,1.917A4.7,4.7,0,1,1,2.78,3,4.7,4.7,0,0,1,4.305,1.917Z" transform="translate(15.636 22.041)" fill="#4c4981"/>
          <path id="IMG_7505-2" data-name="IMG_7505" d="M1.793,8.114,18.224.8a1.961,1.961,0,0,1,2.591.995l17.7,39.757a1.961,1.961,0,0,1-.995,2.591L21.091,51.457a1.961,1.961,0,0,1-2.591-.995L.8,10.7a1.961,1.961,0,0,1,.995-2.591Z" transform="translate(1.875 1.817)" fill="#fff"/>
          <g id="Gruppe_2237-2" data-name="Gruppe 2237" transform="translate(7.512 4.293)">
            <path id="Rectangle_76-9" data-name="Rectangle 76" d="M.29,4.579,0,3.929,8.825,0l.29.65a.98.98,0,0,1-.5,1.3L1.585,5.077a.98.98,0,0,1-1.3-.5Z" transform="translate(0 0)" fill="#5d5cb0"/>
            <path id="Rectangle_76-10" data-name="Rectangle 76" d="M2.946.278a.3.3,0,0,1-.154.4L.526,1.689a.3.3,0,1,1-.248-.557L2.544.124a.3.3,0,0,1,.4.154Z" transform="translate(3.156 1.842)" fill="#1c1c2d"/>
          </g>
        </g>
      </g>
    </g>
  </g>
</svg>
