<svg xmlns="http://www.w3.org/2000/svg" xmlns:xlink="http://www.w3.org/1999/xlink" width="326.97" height="611.871" viewBox="0 0 326.97 611.871">
  <defs>
    <clipPath id="clip-path">
      <rect id="Rechteck_1193" data-name="Rechteck 1193" width="91.445" height="206.767" fill="none"/>
    </clipPath>
    <clipPath id="clip-path-2">
      <rect id="Rechteck_1194" data-name="Rechteck 1194" width="31.096" height="31.096" transform="translate(0 30.035) rotate(-74.991)" fill="none"/>
    </clipPath>
    <clipPath id="clip-path-3">
      <rect id="Rechteck_1195" data-name="Rechteck 1195" width="24.501" height="12.795" transform="translate(0 23.665) rotate(-74.991)" fill="none"/>
    </clipPath>
    <clipPath id="clip-path-4">
      <path id="Pfad_7165" data-name="Pfad 7165" d="M297.412,98.767c-4-.008-7.654.894-8.722,1.525-.329,3.76.3,4.94,6.534,5.386a11.523,11.523,0,0,1,3.575,4.364q-1.8,11.256-5.286,10.952c-3.488-.305-7.366-3.319-8.9-3.453a23.548,23.548,0,0,0,.427,3.449c.535.907,3.78,1.5,3.663,2.826s-2.763,0-2.832.789a6.382,6.382,0,0,0,3.317,4.085,5.143,5.143,0,0,0,3.092.3c2.533-.33,4.941-1.734,5.805-3.743q1.371-3.182,2.59-13.46a3.367,3.367,0,0,1,.424.011,3.552,3.552,0,0,1,1.943,6.287c.717,1.228,1.529,2.515,2.472,3.853,4.158-2.024,7.7-8.706,4.417-15.71a8.772,8.772,0,0,0-5.829-6.374A10.3,10.3,0,0,0,297.412,98.767Z" transform="translate(-284.617 -98.611)" fill="none"/>
    </clipPath>
  </defs>
  <g id="Gruppe_3600" data-name="Gruppe 3600" transform="translate(-114.676 -95.492)">
    <path id="Fill_1" data-name="Fill 1" d="M167.287,246.72c51.211-69.714,161.359-83.367,231.1-33.305,49.911,35.829,60.925,101.005,16.575,150.809-13.545,15.212-30.928,28.262-41.653,44.867-26.831,41.536-10.07,91.04-7.29,133.2,2.03,30.792-1.428,63.87-22.039,91.274-29.255,38.9-74.11,34.093-104.516,6.883-73.9-66.131-103.372-160.568-106.316-253.949-1.2-38.095,3.04-80.035,20.573-117.037A138.587,138.587,0,0,1,167.287,246.72Z" transform="translate(-1.123 -5.402)" fill="#fef3d0"/>
    <g id="Gruppe_836" data-name="Gruppe 836" transform="translate(130.632 464.625)">
      <g id="Gruppe_3590" data-name="Gruppe 3590" transform="translate(0)">
        <g id="Gruppe_3589" data-name="Gruppe 3589" clip-path="url(#clip-path)">
          <g id="Gruppe_835" data-name="Gruppe 835" transform="translate(-0.002 0.001)">
            <path id="Pfad_4103" data-name="Pfad 4103" d="M163.047,527.933a54.382,54.382,0,0,0-8.925,5.851c-9.163,7.372-18.144,18.791-15.842,21.876,1.49,2,7.366.043,17.833-3.438a138.3,138.3,0,0,0,13.74-5.4Z" transform="translate(-132.058 -491.19)" fill="#f6afa1"/>
            <path id="Pfad_4104" data-name="Pfad 4104" d="M148.751,550.908c2.865,1.044,3.5,3.682,6.382,9.323,6.032,11.806,11.613,16.586,10.116,18.361-.993,1.177-4.209-.024-6.146-.768-11.609-4.452-23.569-16.519-20.8-23.018,1.44-3.379,6.852-5.209,10.453-3.9" transform="translate(-132.056 -492.575)" fill="#f6afa1"/>
            <path id="Pfad_4105" data-name="Pfad 4105" d="M174.62,620.426q-.75-5.7-1.718-11.04L159.654,587.8a58.811,58.811,0,0,0-2.944,13.74c-.513,5.647-.188,11.292,2.208,22.572.447,2.1.349,7.031-.267,7.167-16.262,3.575-31.34,56.549-25.811,58.885,1.087.459,2.3-1.322,8.778-8.6,11.514-12.95,20.821-22.105,27.292-28.842,2.558-.459,6.305-27.753,5.71-32.287" transform="translate(-131.674 -494.868)" fill="#f2d899"/>
            <path id="Pfad_4106" data-name="Pfad 4106" d="M174.919,568.45a40.155,40.155,0,0,0-7.115,6.869,41.316,41.316,0,0,0-7.075,13.2l-.011.034c-.169.534-.822,2.91,1.444,6.64,3.385,5.576,8.3,5.968,10.3,11.04a11,11,0,0,1,.736,4.416c9.142-7.4,16.894-12.157,21.1-14.23a70.645,70.645,0,0,1,9.814-3.925c1.116-.333,2.052-.576,2.7-.736q-.2-2.6-.475-5.28c-.556-5.311-1.321-10.345-2.224-15.084l-29.2-2.944" transform="translate(-133.445 -493.679)" fill="#fff2cc"/>
            <path id="Pfad_4107" data-name="Pfad 4107" d="M183.54,514.4l3.589,8.973-12.338,1.8-1.57-12.786L183.54,514.4" transform="translate(-134.226 -490.235)" fill="#fad0c6"/>
            <path id="Pfad_4108" data-name="Pfad 4108" d="M162.259,528.742a27.611,27.611,0,0,0,1.963,13.494c4.093,9.507,12.916,13.182,12.022,19.627a8.409,8.409,0,0,1-2.208,4.416,48.363,48.363,0,0,0,18.892,5.643,47.715,47.715,0,0,0,11.776-.491q-.255-2.686-.491-5.4-.929-10.728-1.473-21.1a6.165,6.165,0,0,0,1.718-2.208c1.508-3.367-.731-7.368-1.963-9.569-1.611-2.878-2.523-3.076-4.416-6.382a31.738,31.738,0,0,1-2.453-5.4,56.527,56.527,0,0,0-25.27,3.435,54.022,54.022,0,0,0-8.1,3.926" transform="translate(-133.544 -490.773)" fill="#5d5cb0"/>
            <path id="Pfad_4109" data-name="Pfad 4109" d="M172.169,511.645a15.657,15.657,0,0,0,8.341,3.293c1.971.111,4.881.266,6.585-1.536,2.689-2.846.512-8.61-.879-12.3-1.281-3.394-2.051-5.431-4.17-7.024-3.874-2.91-10.99-3.388-14.486.879-2.9,3.537-1.946,8.484-.657,11.194,1.271,2.677,3.309,4.11,5.268,5.487" transform="translate(-133.762 -488.972)" fill="#fad0c6"/>
            <path id="Pfad_4110" data-name="Pfad 4110" d="M177.727,500.965c-1.255-.8-3.154-.953-3.883-.124-1.012,1.151.26,4.6,2.692,6.057a5.67,5.67,0,0,0,2.534.766,5.031,5.031,0,0,1-.287,4.169c-1.8,2.9-7.552,2.61-11.216.673-5.355-2.83-6.007-9.091-6.057-9.646a13.027,13.027,0,0,1,5.608-11.665c2.46-1.67,4.833-1.872,9.2-2.243a46.232,46.232,0,0,1,11.44.449,12.545,12.545,0,0,1-4.935,6.057,12.267,12.267,0,0,1-5.162,1.795l3.083,5.387-.67.335-.67.335a4.05,4.05,0,0,0-1.674-2.346" transform="translate(-133.505 -488.785)" fill="#fc819c"/>
            <path id="Pfad_4111" data-name="Pfad 4111" d="M190.165,533.029a6.689,6.689,0,0,0,1.155.761c3.458,1.856,7.3,1.157,12.878-.2a135.538,135.538,0,0,0,16.044-5.162c2.833-1.032,4.619-1.729,5.6-3.644,1.34-2.616.381-5.943-.746-8.745-5-12.439-18.55-27.56-21.141-25.607-1.056.8.832,6.425,4.607,17.679.927,2.766,1.766,5.1,2.413,6.852-2.52.512-6.23,1.227-10.758,1.946-8.925,1.417-11.039,1.294-12.457,3.432-2.2,3.322-1.018,9.8,2.4,12.691" transform="translate(-135.051 -488.876)" fill="#fad0c6"/>
            <path id="Pfad_4112" data-name="Pfad 4112" d="M184.836,500.049h0a.845.845,0,0,0-.455,1.094l.639,1.551a.838.838,0,0,0,1.55-.639l-.639-1.551a.845.845,0,0,0-1.094-.455" transform="translate(-134.908 -489.474)" fill="#5d5cb0"/>
            <path id="Pfad_4113" data-name="Pfad 4113" d="M207.456,595.152c-.309-3.367-.489-5.068-1.718-6.134-5.038-4.354-24.485,2.927-31.4,16.929-1.322,2.675-1.442,30.606-2.892,32.011-11.957,11.587,3.051,64.58,8.983,63.662,1.166-.18,1.264-2.334,2.948-11.933,4.533-25.845,21.228-73.9,21.629-75.153a47.727,47.727,0,0,0,2.453-19.382" transform="translate(-133.841 -494.866)" fill="#fff2cc"/>
          </g>
        </g>
      </g>
    </g>
    <g id="Gruppe_2841" data-name="Gruppe 2841" transform="translate(348.509 243.681)">
      <path id="Pfad_2536" data-name="Pfad 2536" d="M395.376,375.678c7.648,1.876,11.116,30.206,1.413,52.094-7.221,16.288-22.5,30.716-28.817,27.155-7.129-4.016-2.508-30.657,4.9-48.858C377.43,394.855,388.293,373.942,395.376,375.678Z" transform="translate(-363.85 -260.887)" fill="#423f77"/>
      <path id="Pfad_2537" data-name="Pfad 2537" d="M369.843,428.446c6.292-2.614,19.765,14.766,22.266,32.535.665,4.725.227,9.578-.655,19.286a180.251,180.251,0,0,1-6.326,33.964c-4.105,14.188-6.159,21.282-8.09,21.249C368.615,535.339,356.306,434.071,369.843,428.446Z" transform="translate(-363.813 -264.118)" fill="#423f77"/>
      <path id="Pfad_2538" data-name="Pfad 2538" d="M420.618,330.277a61.769,61.769,0,0,1-11.9-23.775c-6.308-26.378,8.633-51.9,5.514-53.09-.354-.135-1.112-.023-4.616,4.252-4.8,5.859-10.13,12.364-13.54,22.773a65.224,65.224,0,0,0-1.014,34.34,72.108,72.108,0,0,0,10.27,23.5Z" transform="translate(-365.621 -253.38)" fill="#f7c8bc"/>
      <path id="Pfad_2539" data-name="Pfad 2539" d="M445.928,348.795a35.348,35.348,0,0,0-12.27-9.753q-7.394-3.974-14.82-8.115l-1.883-1.053a54.356,54.356,0,0,1-6.207,4.894q-1.026.693-2.03,1.309a14.856,14.856,0,0,0-7.1,11.844.978.978,0,0,0-.006.105c-.571,10.505-.731,11.941-1.168,13.628a27.062,27.062,0,0,1-7.258,12.224,11.589,11.589,0,0,0-.8,1.887,14.264,14.264,0,0,0-.4,5.72c.472,3.528,3.24,8.671,6.175,11.788,9.593,10.193,31.235,9.652,32.167,9.62.107-2.209.27-5.493.5-9.475.39-6.9,1.241-13.909,1.389-15.608.328-3.777,1.143-8.29,5.481-16.156A91,91,0,0,1,445.928,348.795Z" transform="translate(-365.536 -258.079)" fill="#3e3e6b"/>
      <path id="Pfad_2540" data-name="Pfad 2540" d="M426.08,323.2l-2.376,8.69c-.564-.15-1.161-.335-1.781-.567a19.974,19.974,0,0,1-3.731-1.848,55.106,55.106,0,0,1-4.6,8.422c-1.481,2.217-2.507,3.379-2.123,4.569.659,2.043,4.711,2.373,6.717,2.585,3.912.42,10.855.3,20.167-4.5l-4.561-2.841,4.843-13.9Z" transform="translate(-366.736 -257.669)" fill="#fad0c6"/>
      <path id="Pfad_2541" data-name="Pfad 2541" d="M437.524,328.923a11.241,11.241,0,0,1-3.629,3.058c-4.049,2.012-8.388.275-9.37-.147l2.64-9.326,13.45-.021A14.824,14.824,0,0,1,437.524,328.923Z" transform="translate(-367.543 -257.625)" fill="#f6afa1"/>
      <path id="Pfad_2542" data-name="Pfad 2542" d="M413.8,387.947c5.254-.27,10.8,3.269,13.613,7.93,9.618,15.943-13.331,44.1-21.885,54.592-7.527,9.232-15,18.4-19.388,16.6-6.753-2.783-2.032-29.878,5.061-48.82C395.356,407.151,402.325,388.538,413.8,387.947Z" transform="translate(-364.984 -261.646)" fill="#4c4981"/>
      <path id="Pfad_2543" data-name="Pfad 2543" d="M383.3,465.833c3.086-4.768,12.911-19.1,21.019-16.944a6.246,6.246,0,0,1,1.369.544c2.756,1.394,5.835,5.064,16.031,19.836,5.169,7.49,7.754,11.236,10.2,15.062a255.868,255.868,0,0,1,16.54,29.045c5.99,12.559,8.991,16.9,7.868,20.048-5.923,5.947-54.091-39.955-62.346-49.006a45.51,45.51,0,0,1-10.163-16.869C383.587,466.833,383.415,466.235,383.3,465.833Z" transform="translate(-365.01 -265.377)" fill="#4c4981"/>
      <path id="Pfad_2546" data-name="Pfad 2546" d="M444.853,346.82c-.068-5.119-6.546-8.182-8.606-9.155-1.552-.735-2.614-.985-12.147-2.679-4.252-.756-6.378-1.135-7.782-1.371-15.051-2.536-38.227-37.831-41.212-35.816-.319.217-1.52,1.635,0,7.079,2.083,7.464,3.761,16.923,10.474,25.891,10.058,13.434,22.9,18.873,28.158,21.029,9.547,3.916,19.535,3.078,25.017,3.358C439.273,354.869,444.916,351.632,444.853,346.82Z" transform="translate(-364.461 -256.104)" fill="#fad0c6"/>
      <ellipse id="Ellipse_132" data-name="Ellipse 132" cx="8.516" cy="8.051" rx="8.516" ry="8.051" transform="matrix(0.473, -0.881, 0.881, 0.473, 51.875, 48.91)" fill="#4c4981"/>
      <path id="Pfad_2550" data-name="Pfad 2550" d="M441.02,294.884a14.345,14.345,0,0,0-8.95.476c-6.314,2.536-8.63,9.108-10.282,13.8-1.811,5.139-3.222,9.144-1.263,12.383,2.961,4.9,11.925,5.237,17.925,2.778,8.146-3.337,14.28-13.234,11.73-21.22C448.232,296.992,441.34,294.974,441.02,294.884Z" transform="translate(-367.239 -255.899)" fill="#fad0c6"/>
      <path id="Pfad_2551" data-name="Pfad 2551" d="M428.746,293.017c3.4,16.521,7.94,20.92,11.6,21.714,2.315.5,5.438.464,5.926,1.942.569,1.718-2.9,4.4-5.647,6.255.357.342,3.843,3.543,8.182,2.553a7.5,7.5,0,0,0,4.132-2.487c2.67-3.264,1.13-7.541,1.041-7.775a8.42,8.42,0,0,0-2.4-3.371c4.024-5.4,3.254-9.129,3.035-9.995C453,295.441,442.48,290.429,428.746,293.017Z" transform="translate(-367.802 -255.772)" fill="#935951"/>
      <ellipse id="Ellipse_133" data-name="Ellipse 133" cx="6.187" cy="4.47" rx="6.187" ry="4.47" transform="translate(67.385 62.19) rotate(-40.461)" fill="#fad0c6"/>
      <rect id="Rechteck_324" data-name="Rechteck 324" width="3.999" height="2" rx="1" transform="translate(59.856 54.895) rotate(-59.618)" fill="#6c7fbc"/>
      <g id="Gruppe_393" data-name="Gruppe 393" transform="translate(54 59.46)">
        <g id="Gruppe_392" data-name="Gruppe 392">
          <path id="Pfad_2572" data-name="Pfad 2572" d="M428.456,318.311a.55.55,0,0,0-.558-.924,7.2,7.2,0,0,1-3.777.447,3.476,3.476,0,0,1-1.831-.938.55.55,0,0,0-.785.771,4.614,4.614,0,0,0,2.4,1.243,8.327,8.327,0,0,0,4.377-.492A.556.556,0,0,0,428.456,318.311Z" transform="translate(-421.348 -316.732)" fill="#9eadff"/>
        </g>
      </g>
    </g>
    <g id="Gruppe_2838" data-name="Gruppe 2838" transform="translate(114.676 132.495)">
      <g id="Gruppe_2822" data-name="Gruppe 2822">
        <path id="Pfad_2526" data-name="Pfad 2526" d="M206.342,294.906c-7.387.563-14.964,26.317-9.329,48.121,4.194,16.226,16.144,31.96,22.56,29.634,7.234-2.628,7.039-28.063,2.976-46.09C220.043,315.46,213.182,294.385,206.342,294.906Z" transform="translate(-119.614 -144.744)" fill="#3e3e6b"/>
        <path id="Pfad_2527" data-name="Pfad 2527" d="M222.06,348.917c-5.41-2.756-18.584,11.759-22.025,27.376-.917,4.153-.86,8.5-.746,17.183a160.717,160.717,0,0,0,3.285,30.616c2.672,12.889,4.009,19.335,5.725,19.44C215.79,443.987,233.706,354.849,222.06,348.917Z" transform="translate(-119.87 -148.042)" fill="#3e3e6b"/>
        <path id="Pfad_2528" data-name="Pfad 2528" d="M193.189,247.782a58.136,58.136,0,0,0,16.088-19.163c11.544-22.764,3.442-49.389,6.558-49.8.353-.046,1.024.222,3.3,4.9,3.114,6.412,6.57,13.531,7.415,23.8a61.364,61.364,0,0,1-6.577,31.653,67.868,67.868,0,0,1-14.538,19.267Z" transform="translate(-119.499 -137.614)" fill="#f4c9be"/>
        <path id="Pfad_2529" data-name="Pfad 2529" d="M167.549,257.457q1.768-.98,3.624-1.949,3.81-1.988,7.453-3.65a133.78,133.78,0,0,1,15.469-3.414q.957-.152,1.905-.289a51.244,51.244,0,0,0,4.612,5.835q.787.86,1.572,1.642a13.978,13.978,0,0,1,3.913,12.389l-.018.094c-1.775,9.741-1.939,11.089-1.909,12.729a25.479,25.479,0,0,0,3.971,12.776,19.839,19.839,0,0,1,.572,4.954,19.475,19.475,0,0,1-1.4,6.2c-1.817,4.253-13.852,8.6-30.3,7.533-1-7.856-4.453-15.653-5.843-23.977C169.4,277.69,169.681,267.186,167.549,257.457Z" transform="translate(-117.924 -141.873)" fill="#a15da8"/>
        <ellipse id="Ellipse_130" data-name="Ellipse 130" cx="7.364" cy="7.789" rx="7.364" ry="7.789" transform="translate(60.972 72.149) rotate(-13.248)" fill="#ffe577"/>
        <path id="Pfad_2530" data-name="Pfad 2530" d="M190.406,240.594c.441,2.605,1.175,7.7,1.175,7.7l1.038-.111s1.274-.2,1.639-.2a58.242,58.242,0,0,0,5.078,8.072c1.749,2.071,2.979,3.133,2.672,4.13-.535,1.734-5.269,1.707-6.557,1.7-4.007-.023-11.429-1.032-21.484-8.086l6.075-2.571q-.718-5.693-1.437-11.387Z" transform="translate(-118.318 -141.362)" fill="#fad0c6"/>
        <path id="Pfad_2531" data-name="Pfad 2531" d="M180.084,244.765a10.556,10.556,0,0,0,3.065,3.247c3.567,2.316,7.813,1.155,8.776.866q-.735-4.505-1.47-9l-12.572-1.459A13.953,13.953,0,0,0,180.084,244.765Z" transform="translate(-118.559 -141.275)" fill="#f4c9be"/>
        <path id="Pfad_2532" data-name="Pfad 2532" d="M178.6,209.957a13.642,13.642,0,0,1,8.33,1.79c5.545,3.328,6.733,9.845,7.581,14.492.929,5.1,1.653,9.066-.672,11.813-3.514,4.153-11.98,3.125-17.242-.083-7.144-4.355-11.418-14.566-7.826-21.681C171.507,210.853,178.279,209.993,178.6,209.957Z" transform="translate(-117.919 -139.522)" fill="#fad0c6"/>
        <path id="Pfad_2533" data-name="Pfad 2533" d="M190.593,210.148c-5.668,15-10.594,18.448-14.145,18.645-2.642.146-5.334-.2-5.853.933-.751,1.629,3.872,4.909,7.964,8.313a107.176,107.176,0,0,1,15.258,15.674,23.519,23.519,0,0,0-13.32,3.507,50.688,50.688,0,0,1-10.048-11.92c-2.589-4.279-12.823-21.189-5.461-30.741,4.588-5.952,14.616-7.245,21.5-5.736A22.589,22.589,0,0,1,190.593,210.148Z" transform="translate(-117.606 -139.421)" fill="#fff2cc"/>
        <ellipse id="Ellipse_131" data-name="Ellipse 131" cx="3.961" cy="5.482" rx="3.961" ry="5.482" transform="matrix(0.761, -0.649, 0.649, 0.761, 48.919, 89.961)" fill="#fad0c6"/>
        <g id="Gruppe_383" data-name="Gruppe 383" transform="translate(68.911 92.534)">
          <g id="Gruppe_382" data-name="Gruppe 382">
            <path id="Pfad_2534" data-name="Pfad 2534" d="M194.869,234.353a.517.517,0,0,0-.652-.779,6.785,6.785,0,0,1-3.452.96,3.27,3.27,0,0,1-1.837-.61.517.517,0,0,0-.627.822l.012.009a4.351,4.351,0,0,0,2.407.812,7.835,7.835,0,0,0,4-1.085A.519.519,0,0,0,194.869,234.353Z" transform="translate(-188.097 -233.507)" fill="#9eadff"/>
          </g>
        </g>
        <path id="Pfad_2535" data-name="Pfad 2535" d="M173.988,260.251a8.316,8.316,0,0,1-3.73,12.932,56.934,56.934,0,0,0-16.595,9.427c-20.118,16.64-23.395,44.918-26.483,44.03-.35-.1-.869-.627-1.092-5.941-.3-7.286-.64-15.376,2.764-25.354,5.078-14.881,14.931-23.464,19.093-27a68.038,68.038,0,0,1,20.572-12,12.751,12.751,0,0,1,5.182,3.567C173.8,260.021,173.9,260.136,173.988,260.251Z" transform="translate(-115.366 -142.376)" fill="#fad0c6"/>
        <path id="Pfad_2544" data-name="Pfad 2544" d="M195.753,300.092c-4.653-1.689-10.62-.029-14.431,3.39-13.046,11.7-.137,43.352,4.673,55.149,4.232,10.379,8.436,20.689,12.881,20.273,6.843-.646,10.05-26.327,8.879-45.326C207.068,322.45,205.918,303.782,195.753,300.092Z" transform="translate(-118.422 -145.023)" fill="#4c4981"/>
        <path id="Pfad_2545" data-name="Pfad 2545" d="M199.073,378.807c-1.469-5.141-6.364-20.742-14.254-21.031a5.832,5.832,0,0,0-1.382.114c-2.865.5-6.644,2.951-19.884,13.44-6.713,5.319-10.07,7.978-13.32,10.749a240.726,240.726,0,0,0-22.871,21.587c-8.85,9.65-13.4,14.36-12.6,15.876,3.69,6.982,59.666-21.074,69.586-26.947a42.834,42.834,0,0,0,13.787-12.389C198.544,379.629,198.86,379.139,199.073,378.807Z" transform="translate(-114.676 -148.607)" fill="#4c4981"/>
        <path id="Pfad_2547" data-name="Pfad 2547" d="M274.375,207.821a30.321,30.321,0,0,1-6.009-.612,33.54,33.54,0,0,1-8.824-3.141,35.9,35.9,0,0,1-7.859-5.548,13.114,13.114,0,0,1-4.21-9.119,38.069,38.069,0,0,1,.933-9.416c.773-4.169,1.44-7.769-.368-9.651-1.451-1.512-3.758-2.381-6.855-2.583a35,35,0,0,0-8.717.745l-.38-1.964a36.954,36.954,0,0,1,9.228-.777c3.611.236,6.359,1.311,8.167,3.194a7.028,7.028,0,0,1,1.71,5.162,37.237,37.237,0,0,1-.818,6.239,36.012,36.012,0,0,0-.9,8.911,12.456,12.456,0,0,0,.95,4.12,10.745,10.745,0,0,0,2.627,3.674,33.9,33.9,0,0,0,7.421,5.239,31.541,31.541,0,0,0,8.3,2.955,25.733,25.733,0,0,0,16.714-1.988,65.211,65.211,0,0,0,11.791-7.467,52.818,52.818,0,0,0,14.1-16.806c2.541-4.87,3.678-10.822,4.881-17.123,2.027-10.613,4.123-21.587,13.395-27.78l1.111,1.663a20.763,20.763,0,0,0-5.26,5.045,27.993,27.993,0,0,0-3.447,6.372c-1.842,4.643-2.855,9.946-3.834,15.075-1.178,6.166-2.4,12.542-5.073,17.673a54.8,54.8,0,0,1-14.629,17.444,67.185,67.185,0,0,1-12.148,7.694A26.784,26.784,0,0,1,274.375,207.821Z" transform="translate(-121.9 -134.917)" fill="#9eadff"/>
        <g id="Gruppe_2278" data-name="Gruppe 2278" transform="translate(84.179 31.834)">
          <path id="Pfad_4815" data-name="Pfad 4815" d="M227.837,176.374l-13.985,10.011a2.266,2.266,0,0,1-3.161-.524l-1.577-2.2a2.267,2.267,0,0,1,.524-3.161l13.985-10.011a2.266,2.266,0,0,1,3.161.524l1.576,2.2A2.266,2.266,0,0,1,227.837,176.374Z" transform="translate(-204.63 -168.91)" fill="#fc6681"/>
          <path id="Pfad_2548" data-name="Pfad 2548" d="M230.473,168.909l-4.805,1.023a1.544,1.544,0,0,0-.939,2.41l2.285,3.191a1.547,1.547,0,0,0,2.157.357,1.567,1.567,0,0,0,.426-.463l2.522-4.217a1.545,1.545,0,0,0-1.645-2.3Z" transform="translate(-205.598 -168.837)" fill="#fff2cc"/>
          <path id="Pfad_2549" data-name="Pfad 2549" d="M230.078,169.021l.718-.152a1.545,1.545,0,0,1,1.648,2.3l-.44.737Z" transform="translate(-205.944 -168.834)" fill="#5d5cb0"/>
          <path id="Pfad_4816" data-name="Pfad 4816" d="M210.673,182.277l2.285,3.192a1.72,1.72,0,0,1-.4,2.4h0l-3.192,2.284a1.72,1.72,0,0,1-2.4-.4h0l-2.284-3.192a1.719,1.719,0,0,1,.4-2.4h0l3.192-2.284a1.719,1.719,0,0,1,2.4.4Z" transform="translate(-204.364 -169.616)" fill="#9eadff"/>
        </g>
        <rect id="Rechteck_328" data-name="Rechteck 328" width="1.882" height="3.764" rx="0.941" transform="translate(67.943 84.691) rotate(-30.001)" fill="#6c7fbc"/>
      </g>
      <g id="Alle_Krebsarten" data-name="Alle Krebsarten" transform="translate(66.069 124.669)">
        <g id="Gruppe_419" data-name="Gruppe 419">
          <g id="Gruppe_3591" data-name="Gruppe 3591" transform="translate(0.063)">
            <path id="Pfad_2647-2" data-name="Pfad 2647-2" d="M185.136,270.569a2.338,2.338,0,0,1,.684-.991,1.65,1.65,0,0,1,.761-.407,1.7,1.7,0,0,1,.943.108,2.438,2.438,0,0,1,.91.565,6.091,6.091,0,0,0-1.146-1.806,1.211,1.211,0,0,0-.5-.264,1.18,1.18,0,0,0-.534,0,1.227,1.227,0,0,0-.517.266,1.34,1.34,0,0,0-.322.446,1.668,1.668,0,0,0-.141.664A13.975,13.975,0,0,1,185.136,270.569Z" transform="translate(-185.136 -267.745)" fill="#8695eb"/>
          </g>
          <g id="Gruppe_3592" data-name="Gruppe 3592" transform="translate(0.062 0.939)">
            <path id="Pfad_2648-2" data-name="Pfad 2648-2" d="M185.342,268.746a.236.236,0,0,1,0,.057,3.951,3.951,0,0,0,.007.936,1.9,1.9,0,0,0,.41.785,3.785,3.785,0,0,0,.571.63c.548.493,1.083,1,1.634,1.486.41.362.345.326,1.2,1.118.458.433,1.121,1.037,1.946,1.774l-.631.755.273,1.58c-2.033-2.163-3.028-3.127-3.555-3.588a11.9,11.9,0,0,1-1.088-1.109,3.458,3.458,0,0,1-.683-.927,3.313,3.313,0,0,1-.255-1.065,6.569,6.569,0,0,1,0-1.192c.018-.325.047-.527.062-.649A4.85,4.85,0,0,1,185.342,268.746Z" transform="translate(-185.135 -268.746)" fill="#9eadff"/>
          </g>
          <g id="Gruppe_3593" data-name="Gruppe 3593" transform="translate(0 0.476)">
            <path id="Pfad_2649-2" data-name="Pfad 2649-2" d="M187.443,268.252a.228.228,0,0,0,.026.05,3.9,3.9,0,0,1,.389.852,1.879,1.879,0,0,1-.042.884,3.768,3.768,0,0,1-.252.812c-.29.677-.559,1.363-.857,2.036-.22.5-.175.437-.616,1.518-.237.581-.583,1.412-1.021,2.431l.891.42.42,1.545c.932-2.819,1.431-4.115,1.716-4.752a12.11,12.11,0,0,0,.519-1.464,3.425,3.425,0,0,0,.225-1.13,3.28,3.28,0,0,0-.214-1.077,6.558,6.558,0,0,0-.5-1.078c-.155-.284-.263-.461-.33-.562A5,5,0,0,0,187.443,268.252Z" transform="translate(-185.069 -268.252)" fill="#9eadff"/>
          </g>
        </g>
      </g>
    </g>
    <g id="Gruppe_388" data-name="Gruppe 388" transform="translate(389.635 192.248)">
      <g id="Gruppe_3595" data-name="Gruppe 3595" transform="translate(0 0)">
        <g id="Gruppe_3594" data-name="Gruppe 3594" clip-path="url(#clip-path-2)">
          <g id="Gruppe_387" data-name="Gruppe 387" transform="translate(2.169 2.166)">
            <path id="Rechteck_325" data-name="Rechteck 325" d="M430.583,202.79h0A14.376,14.376,0,0,1,440.746,220.4l-.536,2A14.376,14.376,0,0,1,422.6,232.562h0a14.376,14.376,0,0,1-10.163-17.609l.537-2A14.375,14.375,0,0,1,430.583,202.79Z" transform="translate(-410.065 -200.975)" fill="#e1e6ff"/>
            <g id="Instagram">
              <path id="Pfad_3" data-name="Pfad 3" d="M430.128,205.419a47.685,47.685,0,0,1,5.962,1.777,8.013,8.013,0,0,1,2.7,1.262,6.063,6.063,0,0,1,2.076,3.6,8.01,8.01,0,0,1-.259,2.97c-.4,1.5-.369,2.048-1.443,6.052a47.63,47.63,0,0,1-1.779,5.962,8.015,8.015,0,0,1-1.261,2.7,6.07,6.07,0,0,1-3.6,2.076,8.03,8.03,0,0,1-2.97-.259c-1.5-.4-2.048-.371-6.052-1.444a47.63,47.63,0,0,1-5.962-1.777,8,8,0,0,1-2.7-1.262,6.069,6.069,0,0,1-2.076-3.6,8.032,8.032,0,0,1,.259-2.971c.4-1.5.371-2.048,1.444-6.051a47.759,47.759,0,0,1,1.778-5.963,8.015,8.015,0,0,1,1.261-2.7,6.243,6.243,0,0,1,1.615-1.356,2.917,2.917,0,0,1,1.983-.72,8.01,8.01,0,0,1,2.97.259,47.483,47.483,0,0,1,6.052,1.444m.715-2.669a50.839,50.839,0,0,0-6.219-1.489,10.669,10.669,0,0,0-3.849-.318,7.259,7.259,0,0,0-5.5,3.177,7.869,7.869,0,0,0-1.65,3.492,50.826,50.826,0,0,0-1.824,6.13,51.182,51.182,0,0,0-1.488,6.219A10.657,10.657,0,0,0,410,223.81a7.256,7.256,0,0,0,3.175,5.5,10.671,10.671,0,0,0,3.492,1.653,119.072,119.072,0,0,0,12.348,3.308,10.68,10.68,0,0,0,3.851.316,7.246,7.246,0,0,0,5.5-3.175,10.652,10.652,0,0,0,1.653-3.492c.447-1.668.746-2.125,1.82-6.129a51.015,51.015,0,0,0,1.489-6.219,10.678,10.678,0,0,0,.316-3.851,7.256,7.256,0,0,0-3.175-5.5,10.67,10.67,0,0,0-3.491-1.651,51.1,51.1,0,0,0-6.13-1.822m-1.969,7.343a7.82,7.82,0,0,0-9.667,5.369c-.023.084-.045.167-.067.251a7.946,7.946,0,0,0,5.617,9.733h0a7.948,7.948,0,0,0,9.734-5.618h0a7.947,7.947,0,0,0-5.617-9.734h0m-3.4,12.683a5.091,5.091,0,0,1-3.713-6.167l.049-.181a5.09,5.09,0,0,1,6.166-3.713l.181.049a5.089,5.089,0,0,1,3.713,6.166l-.049.181a5.09,5.09,0,0,1-6.167,3.713l-.181-.049m11.992-12.7a1.9,1.9,0,1,0,1.343,2.328h0a1.916,1.916,0,0,0-1.343-2.328" transform="translate(-409.942 -200.889)" fill="#7b75ff" fill-rule="evenodd"/>
            </g>
          </g>
        </g>
      </g>
    </g>
    <g id="Gruppe_391" data-name="Gruppe 391" transform="translate(367.147 152.71)">
      <g id="Gruppe_3597" data-name="Gruppe 3597" transform="translate(0 0)">
        <g id="Gruppe_3596" data-name="Gruppe 3596" clip-path="url(#clip-path-3)">
          <g id="Gruppe_390" data-name="Gruppe 390" transform="translate(2.891 2.151)">
            <g id="Facebook">
              <g id="Gruppe_389" data-name="Gruppe 389">
                <path id="Pfad_1" data-name="Pfad 1" d="M391.879,182.41l2.891-10.779,3.681.986,1.655-4.066-4.209-1.128.7-2.629a1.884,1.884,0,0,1,2.668-1.539l2.235.6,1.022-3.813c-.525-.141-1.8-.624-3.251-1.013a5.257,5.257,0,0,0-6.87,4.076l-.847,3.155-3.681-.986-1.127,4.207,3.681.986-2.891,10.78Z" transform="translate(-386.751 -158.747)" fill="#7b75ff" fill-rule="evenodd"/>
              </g>
            </g>
          </g>
        </g>
      </g>
    </g>
    <g id="Gruppe_2842" data-name="Gruppe 2842" transform="translate(238.612 351.021)">
      <path id="Pfad_2552" data-name="Pfad 2552" d="M275.739,479.353a66.864,66.864,0,0,0,12.211-1.986c8.757-2.044,13.153-3.712,15.939-4.089,14.453-1.961,21.666-2.973,27.282,1.44,20,15.711,7.745,85.105-1.873,82.687a7.227,7.227,0,0,1-2.872-1.619c-3.523-3.209-3.191-9.219-3.192-14.03-.007-7.013-1.441-13.951-1.96-20.944a169.872,169.872,0,0,0-4.066-26.185c-3.859,2.037-7.123,3.675-9.548,4.866-4.741,2.331-6.288,2.969-7.119,3.3a43.4,43.4,0,0,1-9.915,2.848c-1.643.244-2.879.318-3.209.336-2.751.152-6.285.348-9.4-.984a13.877,13.877,0,0,1-5.791-5.157c-5.384-7.389-5.717-16.846-5.671-20.687A57.507,57.507,0,0,0,275.739,479.353Z" transform="translate(-247.941 -374.125)" fill="#4c4981"/>
      <path id="Pfad_2554" data-name="Pfad 2554" d="M272.439,433.549a53.223,53.223,0,0,0,11.486-19.828c6.817-22.358-4.687-45.1-1.946-45.957.312-.1.959.038,3.747,3.9,3.822,5.292,8.065,11.168,10.446,20.3a56.2,56.2,0,0,1-.938,29.592,62.135,62.135,0,0,1-10.072,19.675Z" transform="translate(-248.303 -367.745)" fill="#f7c8bc"/>
      <path id="Pfad_2555" data-name="Pfad 2555" d="M293.469,429.846c-2.794,7.1-5.035,12.783-10.16,14.318-.234.07-5.592,1.578-8.6-1.275a7.074,7.074,0,0,1-1.722-2.936,7.586,7.586,0,0,1,.188-5.131c.449-1.019.749-.953,2.032-2.872,0,0,.79-1.18,1.791-3.079a106.994,106.994,0,0,0,6.393-16.321c.822-2.788,1.826-6.538,2.742-11.062h12.993a67.9,67.9,0,0,1,.165,7.326C298.948,419.81,294.365,427.573,293.469,429.846Z" transform="translate(-248.314 -369.817)" fill="#c7cfdd"/>
      <path id="Pfad_2556" data-name="Pfad 2556" d="M254.154,452.031a8.4,8.4,0,0,1,2.344-8.639l.046-.039a36.325,36.325,0,0,1,4-3.16c2.767-1.276,4.956-2.239,6.484-2.9.839-.362,1.908-.82,3.367-1.506,1.549-.728,2.8-1.369,3.637-1.807q3.169,2.314,6.684,4.668,3.7,2.467,7.231,4.581c-.02,1.787-.046,4.3-.067,7.308-.06,9.063,0,10.309.287,11.785a23.333,23.333,0,0,0,5.6,10.9,18.192,18.192,0,0,1,1.3,4.378,17.8,17.8,0,0,1-.283,5.815c-.967,4.124-11.137,9.946-26.143,11.579q-3.211-10.4-7.054-21.343c-1.278-3.627-2.34-6.2-3.916-10.759C256.241,458.759,255.075,455.079,254.154,452.031Z" transform="translate(-247.157 -371.813)" fill="#d8dfeb"/>
      <path id="Pfad_2557" data-name="Pfad 2557" d="M271.115,424.668q1.221,4.026,2.442,8.051A3.835,3.835,0,0,0,275.7,431.5a38.9,38.9,0,0,0,5.1,5.55c1.78,1.593,2.987,2.368,2.837,3.275-.255,1.59-4.425,2.139-5.513,2.292-3.235.426-9,.475-16.815-3.3l3.72-2.452-4.31-11.418Z" transform="translate(-247.583 -371.241)" fill="#fad0c6"/>
      <path id="Pfad_2558" data-name="Pfad 2558" d="M262.354,429.644a9.319,9.319,0,0,0,3.074,2.457c3.4,1.583,6.959.051,7.765-.321l-2.391-7.674-11.146.269A12.3,12.3,0,0,0,262.354,429.644Z" transform="translate(-247.518 -371.207)" fill="#f6afa1"/>
      <path id="Pfad_2559" data-name="Pfad 2559" d="M271.449,425.924c2.793.191,3.874,1.029,4.329,1.8.274.465.3.865,1.077,2.637a8.206,8.206,0,0,1,.648,1.52c.127.788-.226,1.979-2.406,3.72Z" transform="translate(-248.242 -371.319)" fill="#5d3e3e"/>
      <ellipse id="Ellipse_134" data-name="Ellipse 134" cx="6.744" cy="7.133" rx="6.744" ry="7.133" transform="translate(12.105 33.971) rotate(-27.124)" fill="#5d3e3e"/>
      <path id="Pfad_2560" data-name="Pfad 2560" d="M259.416,401.664a12.023,12.023,0,0,1,7.488.541c5.247,2.223,7.083,7.765,8.392,11.711,1.435,4.333,2.554,7.709.862,10.391-2.558,4.056-10.069,4.2-15.056,2.042-6.768-2.919-11.748-11.3-9.486-17.952C253.344,403.316,259.144,401.735,259.416,401.664Z" transform="translate(-246.99 -369.806)" fill="#fad0c6"/>
      <path id="Pfad_2561" data-name="Pfad 2561" d="M269.929,400.3c-3.107,13.784-6.981,17.4-10.057,18-2.288.451-4.679.478-4.993,1.532-.451,1.513,3.98,3.808,7.968,6.278a94.33,94.33,0,0,1,15.235,11.811,20.711,20.711,0,0,0-11.193,4.692,44.628,44.628,0,0,1-10.23-9.167c-2.784-3.416-13.788-16.917-8.535-26.155,3.274-5.757,11.865-8.113,18.057-7.641A19.9,19.9,0,0,1,269.929,400.3Z" transform="translate(-246.723 -369.701)" fill="#725454"/>
      <ellipse id="Ellipse_135" data-name="Ellipse 135" cx="3.49" cy="4.831" rx="3.49" ry="4.831" transform="matrix(0.663, -0.749, 0.749, 0.663, 4.561, 50.338)" fill="#fad0c6"/>
      <path id="Pfad_2562" data-name="Pfad 2562" d="M280.809,484.507a59.868,59.868,0,0,1,27.206,6.082c12.724,6.079,19.09,9.088,21.8,16.082,9.647,24.887-30.408,80.276-37.269,72.9a8.357,8.357,0,0,1-1.661-3c-1.709-5.42,4.645-21.147,8.633-34.961a150.9,150.9,0,0,1,9.834-25.168c-.646-.482-16.229-1.592-26.514-4.444a19.307,19.307,0,0,1-8.216-5.3,22.569,22.569,0,0,1-5.415-9.144q-1.791-5.554-3.584-11.107A58.271,58.271,0,0,1,280.809,484.507Z" transform="translate(-247.884 -374.917)" fill="#5d5cb0"/>
      <g id="Gruppe_385" data-name="Gruppe 385" transform="translate(22.732 50.399)">
        <g id="Gruppe_384" data-name="Gruppe 384">
          <path id="Pfad_2564" data-name="Pfad 2564" d="M276.849,422.679a.456.456,0,0,0-.473-.76,5.962,5.962,0,0,1-3.129.412,2.876,2.876,0,0,1-1.528-.758.456.456,0,0,0-.639.651h0a3.83,3.83,0,0,0,2,1,6.916,6.916,0,0,0,3.624-.456A.452.452,0,0,0,276.849,422.679Z" transform="translate(-270.943 -421.442)" fill="#9eadff"/>
        </g>
      </g>
      <path id="Pfad_2574" data-name="Pfad 2574" d="M270.911,416.535h0a.771.771,0,0,1-1-.421l-.583-1.425a.769.769,0,0,1,.421-1h0a.769.769,0,0,1,1,.42l.583,1.425A.77.77,0,0,1,270.911,416.535Z" transform="translate(-248.108 -370.563)" fill="#6c7fbc"/>
      <path id="Pfad_2565" data-name="Pfad 2565" d="M260.516,441.171a66.807,66.807,0,0,0,24.9-6.513c23.32-11.605,32.726-36.22,35.548-34.942.32.145.712.695-.237,5.452-1.3,6.525-2.746,13.763-8.263,22.093-8.228,12.421-19.741,18.488-24.588,20.977a76.246,76.246,0,0,1-22.747,7.416,11.439,11.439,0,0,1-4.278-3.99C258,446.992,260.157,441.966,260.516,441.171Z" transform="translate(-247.501 -369.706)" fill="#fad0c6"/>
      <path id="Pfad_2566" data-name="Pfad 2566" d="M282.712,452.981c-5.966,2.616-14.971,6.44-22.171,3.476-1.314-.54-5.97-2.456-6.5-6.135a6.159,6.159,0,0,1,.573-3.384,9.582,9.582,0,0,1,5.348-4.66,11.134,11.134,0,0,1,3.917-.695c6.092-.054,13.833-3.533,20.458-6.509a93.974,93.974,0,0,0,13.083-7.184c3.347,2.4,7.461,5.921,10.807,8.321C298.973,446.357,288.6,450.4,282.712,452.981Z" transform="translate(-247.17 -371.439)" fill="#d9e0ec"/>
      <path id="Pfad_2573" data-name="Pfad 2573" d="M270.319,411.013a5.173,5.173,0,0,1,.714,10.3,5.228,5.228,0,0,1-.726.051,5.173,5.173,0,0,1-.714-10.3A5.223,5.223,0,0,1,270.319,411.013Zm-.012,8.347a3.218,3.218,0,0,0,.447-.031,3.173,3.173,0,0,0-.435-6.315,3.223,3.223,0,0,0-.447.031,3.172,3.172,0,0,0-2.7,3.583A3.183,3.183,0,0,0,270.308,419.36Z" transform="translate(-247.916 -370.464)" fill="#fc6681"/>
    </g>
    <g id="Gruppe_2843" data-name="Gruppe 2843" transform="translate(227.208 212.336)">
      <path id="e24a4cac-c114-4ef1-b0f1-484d7a954399" d="M259.871,371.233a4.359,4.359,0,1,0,3.964,4.722h0a4.36,4.36,0,0,0-3.963-4.722Zm.447,1.619h0a.374.374,0,0,1,.316.266,1.249,1.249,0,0,1-.084.966,2.512,2.512,0,0,1-.25.464s-.06.073.114.088l1.116.1a.343.343,0,0,1,.29.389v0l0,.027a.363.363,0,0,1-.268.332m0,.024h0a.412.412,0,0,1,.2.353.306.306,0,0,1-.295.314l0,.024h0a.34.34,0,0,1,.146.339.281.281,0,0,1-.246.261m0,.024h0a.3.3,0,0,1,.093.276.275.275,0,0,1-.079.173.279.279,0,0,1-.23.082l-2.417-.211s-.126-.011-.111-.18l.138-1.575a2.046,2.046,0,0,1,.409-1.067,4.857,4.857,0,0,1,.621-.636c.037-.036.172-.131.177-.193l.038-.43a.261.261,0,0,1,.3-.216h0l.029,0Zm-3.979-1.914.965.084a.14.14,0,0,1,.123.147l-.191,2.193a.132.132,0,0,1-.137.124h0l-.974-.085a.135.135,0,0,1-.124-.145h0l.191-2.186a.14.14,0,0,1,.147-.133h0Z" transform="translate(-235.837 -229.273)" fill="#9aa9fb"/>
      <path id="Pfad_582" data-name="Pfad 582" d="M253.623,368a.485.485,0,0,1-.682-.059h0l-.245-.26c-1.977-2.163-3.1-3.548-2.956-5.145a2.135,2.135,0,0,1,2.136-2.133c.061,0,.123,0,.184.007a2.484,2.484,0,0,1,1.8,1.047,2.482,2.482,0,0,1,1.953-.719,2.138,2.138,0,0,1,1.94,2.319c0,.06-.013.119-.023.177-.139,1.6-1.493,2.79-3.8,4.554Z" transform="translate(-235.505 -228.609)" fill="#ff696e"/>
      <path id="b3207b66-b034-4ba3-87a2-1b15ea8d219a" d="M248.619,345.9a4.359,4.359,0,1,0,3.964,4.722h0a4.359,4.359,0,0,0-3.963-4.722Zm.446,1.619h0a.375.375,0,0,1,.317.266,1.247,1.247,0,0,1-.084.965,2.49,2.49,0,0,1-.25.465s-.06.073.114.088l1.116.1a.343.343,0,0,1,.29.39v0l0,.027a.365.365,0,0,1-.268.332m0,.024h0a.412.412,0,0,1,.2.353.306.306,0,0,1-.3.314l0,.024h0a.339.339,0,0,1,.145.339.281.281,0,0,1-.246.261m0,.024h0a.3.3,0,0,1,.093.276.276.276,0,0,1-.079.173.28.28,0,0,1-.23.082l-2.417-.211s-.126-.011-.111-.18l.138-1.575a2.046,2.046,0,0,1,.409-1.067,4.854,4.854,0,0,1,.621-.636c.037-.036.172-.131.177-.193l.038-.43a.261.261,0,0,1,.3-.216h0l.029,0Zm-3.979-1.914.965.084a.14.14,0,0,1,.123.147L247.016,352a.132.132,0,0,1-.137.124h0l-.975-.084a.135.135,0,0,1-.124-.146h0l.191-2.187a.14.14,0,0,1,.147-.132h0Z" transform="translate(-235.145 -227.717)" fill="#9aa9fb"/>
      <path id="Pfad_583" data-name="Pfad 583" d="M259.714,345.745a.484.484,0,0,1-.682-.059h0l-.245-.26c-1.977-2.162-3.1-3.548-2.956-5.144a2.135,2.135,0,0,1,2.136-2.134c.062,0,.123,0,.184.008a2.484,2.484,0,0,1,1.8,1.047,2.482,2.482,0,0,1,1.954-.719,2.138,2.138,0,0,1,1.939,2.32c0,.059-.013.118-.023.176-.14,1.6-1.494,2.79-3.8,4.554Z" transform="translate(-235.879 -227.242)" fill="#ff696e"/>
      <path id="feabcd7f-6126-41fb-ad46-089c31a748ff" d="M254.137,288.238a7.822,7.822,0,1,0,7.1,8.478v0h0a7.819,7.819,0,0,0-7.1-8.473h0Zm.8,2.9h0a.676.676,0,0,1,.565.482,2.253,2.253,0,0,1-.125,1.715,4.825,4.825,0,0,1-.45.827s-.106.137.2.16l1.993.174a.625.625,0,0,1,.515.718.135.135,0,0,1-.008.042.645.645,0,0,1-.475.586.03.03,0,0,0,0,.041h0a.74.74,0,0,1,.363.634.547.547,0,0,1-.533.561h0a.034.034,0,0,0-.028.036h0a.607.607,0,0,1,.269.6.526.526,0,0,1-.445.471.041.041,0,0,0-.028.041h0a.543.543,0,0,1-.359.941l-4.3-.375s-.232-.021-.2-.334l.245-2.8a3.755,3.755,0,0,1,.733-1.915,10.828,10.828,0,0,1,1.106-1.138c.069-.057.313-.236.322-.342l.068-.767A.484.484,0,0,1,254.934,291.134Zm-5.267,3.684,1.718.151a.246.246,0,0,1,.224.267h0l-.344,3.927a.247.247,0,0,1-.268.224l-1.713-.15a.242.242,0,0,1-.22-.263h0l.344-3.941a.244.244,0,0,1,.258-.221Z" transform="translate(-235.253 -224.174)" fill="#9aa9fb"/>
      <path id="bc5fd902-9ec8-4b40-b095-3159fb5c2e67" d="M252.223,220.032a12.593,12.593,0,1,0,11.448,13.642h0A12.594,12.594,0,0,0,252.223,220.032Zm1.288,4.664h0a1.085,1.085,0,0,1,.9.779,3.623,3.623,0,0,1-.2,2.763,8.05,8.05,0,0,1-.72,1.337s-.184.218.329.252l3.209.281a1,1,0,0,1,.836,1.144.246.246,0,0,1-.014.074,1.045,1.045,0,0,1-.769.949.05.05,0,0,0-.038.057v.008a.029.029,0,0,0,.022.031,1.205,1.205,0,0,1,.586,1.024.886.886,0,0,1-.857.9.059.059,0,0,0-.044.064.047.047,0,0,0,.026.032.968.968,0,0,1,.4.969.859.859,0,0,1-.712.759.054.054,0,0,0-.045.06h0a.071.071,0,0,0,.022.031.845.845,0,0,1,.267.782.812.812,0,0,1-.234.51.827.827,0,0,1-.673.238l-6.882-.6s-.374-.032-.331-.514l.4-4.529a6.007,6.007,0,0,1,1.179-3.081,16.168,16.168,0,0,1,1.787-1.826c.1-.1.519-.382.534-.551s.075-.577.143-1.237a.77.77,0,0,1,.838-.7l.029,0Zm-8.479,5.947,2.756.241a.4.4,0,0,1,.361.425l-.554,6.331a.4.4,0,0,1-.43.36h0l-2.76-.241a.4.4,0,0,1-.36-.43h0L244.6,231a.4.4,0,0,1,.429-.355Z" transform="translate(-234.817 -219.983)" fill="#9aa9fb"/>
      <path id="Pfad_584" data-name="Pfad 584" d="M241.57,328.8a.92.92,0,0,1-1.228-.108l-.445-.466c-3.55-3.864-5.554-6.348-5.3-9.216.2-2.33,1.833-4,4.148-3.8a4.425,4.425,0,0,1,3.24,1.869A4.432,4.432,0,0,1,245.5,315.8c2.316.2,3.63,2.131,3.427,4.461-.25,2.851-2.67,4.948-6.825,8.154Z" transform="translate(-234.574 -225.832)" fill="#ff696e"/>
      <path id="Pfad_585" data-name="Pfad 585" d="M271.97,286.433A1.453,1.453,0,0,1,270,286.26l-.7-.751c-5.7-6.231-8.96-10.241-8.556-14.848.329-3.759,2.961-6.456,6.691-6.13a7.163,7.163,0,0,1,5.2,3.018,7.148,7.148,0,0,1,5.631-2.07c3.735.327,5.855,3.433,5.525,7.2-.4,4.6-4.306,7.982-11,13.137Z" transform="translate(-236.179 -222.718)" fill="#ff696e"/>
    </g>
    <g id="Gruppe_2236" data-name="Gruppe 2236" transform="translate(223.158 525.418)">
      <g id="Group_22" data-name="Group 22">
        <g id="Group_2" data-name="Group 2">
          <path id="Rectangle_76" data-name="Rectangle 76" d="M256.254,567.019l.161.094a.14.14,0,0,1,.054.188l-1.724,3.11a.141.141,0,0,1-.188.055l-.161-.094a.14.14,0,0,1-.054-.188l1.721-3.11a.141.141,0,0,1,.188-.054Z" transform="translate(-231.736 -554.382)" fill="#4c4981"/>
          <path id="Rectangle_76-2" data-name="Rectangle 76-2" d="M243.175,556.526l.161.094a.14.14,0,0,1,.054.188l-.924,1.665a.141.141,0,0,1-.188.054l-.161-.094a.141.141,0,0,1-.054-.188l.92-1.665a.141.141,0,0,1,.188-.054Z" transform="translate(-230.982 -553.738)" fill="#4c4981"/>
          <path id="Rectangle_76-3" data-name="Rectangle 76-3" d="M241.936,558.762l.161.094a.14.14,0,0,1,.054.188l-.924,1.665a.141.141,0,0,1-.188.054l-.161-.094a.141.141,0,0,1-.054-.188l.92-1.665a.14.14,0,0,1,.188-.054Z" transform="translate(-230.906 -553.875)" fill="#4c4981"/>
          <path id="Rectangle_80" data-name="Rectangle 80" d="M246.734,553.866l9.336,5.175a2.454,2.454,0,0,1,.96,3.334l0,0L244.2,585.526a2.453,2.453,0,0,1-3.334.959l0,0-9.335-5.181a2.454,2.454,0,0,1-.959-3.335l0,0,12.828-23.14a2.454,2.454,0,0,1,3.335-.96Z" transform="translate(-230.258 -553.556)" fill="#5d5cb0"/>
          <path id="Path_176" data-name="Path 176" d="M255.966,559.947l-1.564-.866-.1.188a1,1,0,0,1-.261.305,1.012,1.012,0,0,1-1.12.081l-4.974-2.757a1.02,1.02,0,0,1-.523-.995.994.994,0,0,1,.12-.382l.1-.188-1.462-.809a1.236,1.236,0,0,0-.939-.111,1.217,1.217,0,0,0-.737.582L231.283,578.85a1.206,1.206,0,0,0-.146.465,1.239,1.239,0,0,0,.634,1.208l9.784,5.423a1.235,1.235,0,0,0,1.359-.1,1.208,1.208,0,0,0,.316-.37l13.223-23.854a1.215,1.215,0,0,0,.149-.7,1.231,1.231,0,0,0-.135-.464,1.246,1.246,0,0,0-.5-.513Z" transform="translate(-230.311 -553.606)" fill="#4c4981"/>
          <path id="Ellipse_11" data-name="Ellipse 11" d="M245.877,568.755a2.939,2.939,0,1,1-1.12-.354A2.938,2.938,0,0,1,245.877,568.755Z" transform="translate(-230.949 -554.467)" fill="#4c4981"/>
          <path id="IMG_7505" data-name="IMG 7505" d="M246.119,554.479l9.842,5.455a1.226,1.226,0,0,1,.48,1.667v0l-13.2,23.813a1.227,1.227,0,0,1-1.667.48h0l-9.842-5.455a1.228,1.228,0,0,1-.48-1.668h0l13.2-23.812a1.226,1.226,0,0,1,1.667-.48h0Z" transform="translate(-230.309 -553.604)" fill="#fff"/>
          <g id="Gruppe_2237" data-name="Gruppe 2237" transform="translate(17.82 2.153)">
            <path id="Rectangle_76-4" data-name="Rectangle 76-4" d="M249.319,556.24l.216-.39,5.285,2.929-.216.39a.614.614,0,0,1-.833.24h0l-4.211-2.338A.615.615,0,0,1,249.319,556.24Z" transform="translate(-249.244 -555.85)" fill="#5d5cb0"/>
            <path id="Rectangle_76-5" data-name="Rectangle 76-5" d="M252.853,558.305a.188.188,0,0,1-.254.077l0,0-1.357-.752a.19.19,0,1,1,.184-.332l1.357.751a.187.187,0,0,1,.077.253l0,.006Z" transform="translate(-249.36 -555.937)" fill="#1c1c2d"/>
          </g>
        </g>
      </g>
    </g>
    <g id="Menschen_Frau_sitzt_2" data-name="Menschen Frau sitzt 2" transform="translate(288.312 560.614)">
      <path id="Pfad_2224" data-name="Pfad 2224" d="M401.423,624.741c-8.574,8.9-20.294,24.255-22.3,44.721-.619,6.325-1.35,13.79,1.945,15.446,6.226,3.128,27.563-14.121,28.548-35.448C410.166,637.582,404.217,628.485,401.423,624.741Z" transform="translate(-304.523 -593.125)" fill="#f6afa1"/>
      <path id="Pfad_2225" data-name="Pfad 2225" d="M401.577,624.413a50.642,50.642,0,0,0-6.647,7.426c-2.429,3.319-3.892,5.319-4.522,8.2-1.047,4.787.845,9.129,2.261,11.587a34.627,34.627,0,0,1-25.717,23.88q7.1.493,14.662,1.408,3.023.369,5.952.792c2.93.423,11.049,1.7,17.211,5.188.348.2.664.387,1.1.676,1.314.873,8.329,5.526,8.15,12.195-.177,6.591-7.255,10.435-7.551,10.59,2.159.094,8.39.067,12.617-4.28,1.425-1.466,2.717-3.521,4.1-9.043a66.007,66.007,0,0,0,2-16.6c-.118-6.471,1.489-16.111,9.518-29.483a14.338,14.338,0,0,0,.65-15.035c-3.848-6.8-11.606-7.173-12.028-7.186q-19.958,16.352-23.869,13.145Q396.793,635.675,401.577,624.413Z" transform="translate(-303.809 -593.105)" fill="#d16682"/>
      <path id="Pfad_2226" data-name="Pfad 2226" d="M429.7,631.841a8.5,8.5,0,0,1,4.443.4c5.393,2.3,5.742,12.727,6.96,30.928.743,11.1,1.115,16.657,1.408,19.053,3.109,25.844,14.776,43.373,12.611,44.558-.962.527-3.764-2.669-7.2-6.593a86.92,86.92,0,0,1-7.146-9.793c-.469-.711-3.714-5.631-5.64-8.965-7.78-13.472-11.347-31.077-12.912-39.033-2.628-13.364-2.448-19.252.105-23.912C423.209,636.866,425.509,632.663,429.7,631.841Z" transform="translate(-307.087 -593.553)" fill="#fad0c6"/>
      <path id="Pfad_2227" data-name="Pfad 2227" d="M441.362,647.737c1.689-10.973-4.29-19.7-9.994-20.618-6.123-.982-15.44,6.481-15.928,18.926a40.76,40.76,0,0,1,25.921,1.689Z" transform="translate(-306.787 -593.266)" fill="#d16682"/>
      <g id="Gruppe_305" data-name="Gruppe 305" transform="translate(0 47.037)">
        <path id="Pfad_2228" data-name="Pfad 2228" d="M383.727,686.852c-4.478,6.65-30.738,3.184-46.455-10.977-11.7-10.538-18.771-28.1-13.3-33.126,6.169-5.665,27.958,4.908,41.273,16.065C373.449,665.693,387.874,680.7,383.727,686.852Z" transform="translate(-301.053 -641.172)" fill="#5d5cb0"/>
        <path id="Pfad_2229" data-name="Pfad 2229" d="M326.279,641.323c6.8.227,14.582,17.518,11.745,31.363-.751,3.682-2.605,7.082-6.305,13.882a117.679,117.679,0,0,1-16.058,22.69c-8.11,8.981-12.165,13.471-14.006,12.791C293.63,719.083,311.657,640.835,326.279,641.323Z" transform="translate(-299.676 -641.181)" fill="#5d5cb0"/>
      </g>
      <g id="Gruppe_306" data-name="Gruppe 306" transform="translate(30.276 60.234)">
        <path id="Pfad_2230" data-name="Pfad 2230" d="M415.924,704.847c-4.542,7.095-30.768,3.1-46.349-12.263-11.594-11.436-18.5-30.368-12.984-35.708,6.224-6.021,27.909,5.556,41.118,17.673C405.849,682.016,420.131,698.276,415.924,704.847Z" transform="translate(-333.329 -655.232)" fill="#4c4981"/>
        <path id="Pfad_2231" data-name="Pfad 2231" d="M359.238,655.237c6.793.313,14.414,18.959,11.445,33.8-.789,3.942-2.672,7.578-6.438,14.843a126.425,126.425,0,0,1-16.274,24.2c-8.195,9.56-12.3,14.34-14.127,13.591C325.848,738.4,344.622,654.562,359.238,655.237Z" transform="translate(-331.934 -655.232)" fill="#4c4981"/>
      </g>
      <path id="Pfad_2232" data-name="Pfad 2232" d="M407.681,613.06a10.467,10.467,0,0,1-3.741-2.233,6.7,6.7,0,0,1-2.081-3.371c-1.5-6.393,8.229-15.333,17.962-16.232,1.971-.181,7.537-.7,11.312,3.256a11.669,11.669,0,0,1,1.625,13.782,16.792,16.792,0,0,1-5.3,5.328C424.45,615.47,416.739,616.218,407.681,613.06Z" transform="translate(-305.943 -591.058)" fill="#fad0c6"/>
      <path id="Pfad_2233" data-name="Pfad 2233" d="M409.712,613.957l-2.159,7.924c-.795.236-1.633.516-2.507.855q-.787.3-1.5.626-6.652,13.431-3.731,16.008,4.224,3.725,28.439-15.222l-4.68-1.07.33-15.723Z" transform="translate(-305.772 -592.057)" fill="#fad0c6"/>
      <path id="Pfad_2234" data-name="Pfad 2234" d="M427.933,613.844c4.18-3.076,5.338-4.309,6.233-6.123a12.141,12.141,0,0,0-1.474-12.747c-3.543-4.16-9.134-3.964-11.108-3.894a19.72,19.72,0,0,0-3.66.485Z" transform="translate(-306.94 -591.056)" fill="#d16682"/>
      <circle id="Ellipse_39" data-name="Ellipse 39" cx="4.421" cy="4.421" r="4.421" transform="translate(117.621 17.802)" fill="#d16682"/>
      <path id="Pfad_2235" data-name="Pfad 2235" d="M435.474,628.993a10.3,10.3,0,0,1-6.351-12.659A10.3,10.3,0,0,1,435.474,628.993Z" transform="translate(-307.601 -592.608)" fill="#d16682"/>
      <path id="Pfad_2236" data-name="Pfad 2236" d="M442.343,621.172a10.3,10.3,0,0,1-11.832-7.785A10.3,10.3,0,0,1,442.343,621.172Z" transform="translate(-307.713 -592.418)" fill="#d16682"/>
      <ellipse id="Ellipse_40" data-name="Ellipse 40" cx="5.497" cy="3.971" rx="5.497" ry="3.971" transform="translate(110.942 15.985) rotate(-25.853)" fill="#fad0c6"/>
      <g id="Gruppe_307" data-name="Gruppe 307" transform="translate(105.129 3.842)">
        <path id="Pfad_2237" data-name="Pfad 2237" d="M413.078,599.338a1.536,1.536,0,0,1-1.271-.8c-.483-1.012.563-2.181,1.653-3.191a.729.729,0,1,1,1,1.058l-.012.011a5.548,5.548,0,0,0-1.26,1.462c.318.083,1.292.161,4.058-.481a.729.729,0,0,1,.329,1.421A13.266,13.266,0,0,1,413.078,599.338Zm.069-1.326" transform="translate(-411.686 -595.149)" fill="#9eadff"/>
      </g>
    </g>
    <g id="Gruppe_2839" data-name="Gruppe 2839" transform="translate(205.052 610.464)">
      <path id="Pfad_5144" data-name="Pfad 5144" d="M265.927,666.285c-1.334-1.9-6.255-.732-10.993,2.6s-6.164,9.466-6.164,9.466,6.255.733,10.993-2.6S267.262,668.181,265.927,666.285Z" transform="translate(-213.289 -645.471)" fill="#5d5cb0"/>
      <path id="Pfad_5145" data-name="Pfad 5145" d="M281.226,655.921c.785-1.772-2.17-4.8-6.6-6.759s-9.439-.341-9.439-.341,2.169,4.8,6.6,6.76S280.442,657.694,281.226,655.921Z" transform="translate(-214.298 -644.416)" fill="#5d5cb0"/>
      <path id="Pfad_5143" data-name="Pfad 5143" d="M248.947,655.261c-.7,4.2-9.774,6.179-20.263,4.424s-17.717-10.78-17.717-10.78,9.773-6.179,20.262-4.424S249.649,651.063,248.947,655.261Z" transform="translate(-210.967 -644.169)" fill="#5d5cb0"/>
    </g>
    <g id="Gruppe_2820" data-name="Gruppe 2820" transform="translate(245.259 95.492)">
      <path id="Pfad_4104-2" data-name="Pfad 4104-2" d="M338.567,140.132c-1.251,3.1.436,5.551,2.923,12.038,5.2,13.576,5.005,21.632,7.549,21.714,1.688.053,3.067-3.45,3.879-5.575,4.885-12.729,3.817-31.331-3.51-33.84-3.813-1.306-9.273,1.766-10.844,5.662" transform="translate(-258.987 -97.868)" fill="#f7c8bc"/>
      <path id="Pfad_4107-2" data-name="Pfad 4107-2" d="M293.779,127.994c.2,3.527,2.731,5.6,2.928,9.129,4.363-1.313,5.191-.9,9.556-2.208l-3.167-13.71-9.317,6.789" transform="translate(-256.261 -97.072)" fill="#fad0c6"/>
      <path id="Pfad_4109-2" data-name="Pfad 4109-2" d="M303.346,120.184a17.154,17.154,0,0,1-6.761,7.136c-1.91,1.025-4.725,2.526-7.255,1.526-3.99-1.581-4.5-8.318-4.823-12.619-.3-3.966-.476-6.348.888-8.913,2.5-4.686,9.349-8.459,14.8-5.841,4.519,2.171,5.864,7.528,5.842,10.817-.022,3.248-1.384,5.615-2.691,7.892" transform="translate(-255.679 -95.807)" fill="#fad0c6"/>
      <path id="Pfad_4111-2" data-name="Pfad 4111-2" d="M295.66,156.174a7.234,7.234,0,0,1-1.047,1.1c-3.236,2.835-7.515,3.038-13.808,2.965a148.745,148.745,0,0,1-18.414-1.553c-3.279-.4-5.365-.708-6.883-2.513-2.076-2.465-1.873-6.255-1.36-9.526,2.281-14.528,13.02-34.03,16.271-32.576,1.325.592.7,7.068-.56,20.023-.309,3.184-.629,5.882-.889,7.911,2.819-.072,6.96-.226,11.973-.574,9.886-.687,12.117-1.341,14.155.6,3.171,3.006,3.5,10.214.562,14.152" transform="translate(-253.806 -96.628)" fill="#fad0c6"/>
      <path id="Pfad_4112-2" data-name="Pfad 4112-2" d="M288.241,110.193h0a.922.922,0,0,1,.914.929h0l-.013,1.838a.919.919,0,0,1-1.839-.013l.014-1.838a.922.922,0,0,1,.924-.917" transform="translate(-255.864 -96.395)" fill="#5d5cb0"/>
      <path id="Pfad_5128" data-name="Pfad 5128" d="M297.631,158.379a7.578,7.578,0,0,1-1.092,1.15c-3.378,2.959-7.841,3.17-14.409,3.094-6.585-.076-10.8-.59-19.217-1.622-3.424-.419-5.6-.739-7.183-2.621-2.167-2.572,14.32-16.906,14.049-14.788,2.942-.077,7.267-.233,12.5-.6,10.317-.717,12.643-1.4,14.773.62,3.309,3.138,3.657,10.66.587,14.77" transform="translate(-253.912 -98.366)" fill="#d6ddea"/>
      <path id="Pfad_4103-2" data-name="Pfad 4103-2" d="M308.679,135.8A59.693,59.693,0,0,1,320,132.816c12.731-2.064,28.626-1.01,29.454,3.128.538,2.682-5.367,6.037-15.881,12.017a151.561,151.561,0,0,1-14.477,7.242Z" transform="translate(-257.177 -97.722)" fill="#c7cfdd"/>
      <g id="Gruppe_2810" data-name="Gruppe 2810" transform="translate(28.918 2.928)">
        <g id="Gruppe_3599" data-name="Gruppe 3599">
          <g id="Gruppe_3598" data-name="Gruppe 3598" clip-path="url(#clip-path-4)">
            <g id="Gruppe_2809" data-name="Gruppe 2809" transform="translate(-3.756 -4.336)">
              <path id="Pfad_5129" data-name="Pfad 5129" d="M315.292,96.745l-31.467-2.753-3.21,36.688,31.467,2.754Z" transform="translate(-280.615 -93.992)" fill="#2f2e41"/>
            </g>
          </g>
        </g>
      </g>
      <path id="Pfad_5127" data-name="Pfad 5127" d="M291.7,106.207a7.7,7.7,0,0,1,1.77,1.307c.519.526,1.047,1.044,1.6,1.53a10.538,10.538,0,0,0,3.708,2.237l.126.038c1.163.342,2.525.456,3.277,1.406a3.454,3.454,0,0,1,.355,2.956,14.341,14.341,0,0,0-.691,3c-.018.688.254,1.5.923,1.674a1.823,1.823,0,0,0,1.366-.375,14.073,14.073,0,0,0,5.389-17.8,11.13,11.13,0,0,0-8.121-6.588c-3.833-.558-7.608,1.395-11.482,1.412-.665,0-1.478.032-1.78.624-.085.167-.127.376-.291.468-.366.2-.632-.375-.919-.68a1.165,1.165,0,0,0-1.491-.009,3.4,3.4,0,0,0-.932,1.32l-.418-.817a4.773,4.773,0,0,0,3.09,7.54,23.257,23.257,0,0,1,3.2.3,3.371,3.371,0,0,1,1.436.9,3.5,3.5,0,0,1,.519.7c.087.156.2.655.4.643.261-.016.1-.744.079-.923s-.105-.845-.426-.733" transform="translate(-255.609 -95.492)" fill="#2f2e41"/>
      <g id="Gruppe_2819" data-name="Gruppe 2819" transform="translate(35.587 96.071)">
        <path id="Pfad_5139" data-name="Pfad 5139" d="M385.258,249.858s9.682,1.653,9.573,3.747-9.155,4.725-9.155,4.725c-24.591,7.537-40.072,8.63-46.866,4.46S321.3,239.9,306.658,206.645l28.977-6.173q15.975,41.28,17.168,42.9C353.6,244.453,363.709,246.943,385.258,249.858Z" transform="translate(-292.64 -198.012)" fill="#3c3976" fill-rule="evenodd"/>
        <path id="Pfad_5140" data-name="Pfad 5140" d="M302.98,313.4s-3.573,9.992-6.441,10.153-3.589-10.881-3.589-10.881-1.73-30.742-1.082-49.39,1.984-36.916,4.017-54.787l29.192-10.641a488.7,488.7,0,0,1-7.672,61.86A375.588,375.588,0,0,1,302.98,313.4Z" transform="translate(-291.722 -197.851)" fill="#4c4981" fill-rule="evenodd"/>
      </g>
      <path id="Pfad_5142" data-name="Pfad 5142" d="M341.087,199.591c-30.213,12.935-37.171,10.712-48.448,11.186-2.214.511-2.536-2.787-2.588-4.469-.6-19.47,9.176-42.865,3.059-69.366a14.135,14.135,0,0,0,7.012-.668,21.351,21.351,0,0,0,6.461-4.751C322.433,147.445,334.853,164.46,341.087,199.591Z" transform="translate(-256.031 -97.705)" fill="#d6ddea" fill-rule="evenodd"/>
    </g>
    <g id="Gruppe_377" data-name="Gruppe 377" transform="translate(182.125 665.538)">
      <path id="Pfad_2506" data-name="Pfad 2506" d="M194.467,732.994l3.99,1.378q5.33-15.538,10.661-31.077l-3.093-.434a1.369,1.369,0,0,0-1.485.909Z" transform="translate(-187.026 -702.847)" fill="#6c7fbc"/>
      <path id="Pfad_2507" data-name="Pfad 2507" d="M206.1,707.068l49.1,6.9a.975.975,0,0,0,1.1-.833.96.96,0,0,0-.04-.44l-.551-1.639a2.628,2.628,0,0,0-2.121-1.764l-46.511-6.381a1.158,1.158,0,0,0-1.3.99,1.139,1.139,0,0,0,0,.288Z" transform="translate(-187.72 -702.85)" fill="#6c7fbc"/>
      <path id="Rechteck_320" data-name="Rechteck 320" d="M240.145,745.079l-51.911-7.3a1.968,1.968,0,0,1-1.675-2.222h0a1.968,1.968,0,0,1,2.223-1.674l51.911,7.3a1.968,1.968,0,0,1,1.675,2.222h0A1.969,1.969,0,0,1,240.145,745.079Z" transform="translate(-186.539 -704.752)" fill="#6c7fbc"/>
      <path id="Pfad_2508" data-name="Pfad 2508" d="M198.618,734.161l46.8,6.577a1.441,1.441,0,0,0,1.567-.964l8.824-26a1.443,1.443,0,0,0-.9-1.83,1.49,1.49,0,0,0-.263-.063l-46.8-6.577a1.444,1.444,0,0,0-1.567.966l-8.824,26a1.443,1.443,0,0,0,.9,1.83A1.484,1.484,0,0,0,198.618,734.161Z" transform="translate(-187.205 -702.997)" fill="#9eadff"/>
      <circle id="Ellipse_127" data-name="Ellipse 127" cx="3.097" cy="3.097" r="3.097" transform="translate(37.3 17.165)" fill="#fff"/>
    </g>
  </g>
</svg>
