<svg xmlns="http://www.w3.org/2000/svg" width="1841.736" height="1908.427" viewBox="0 0 1841.736 1908.427">
  <path id="Differenzmenge_1" data-name="Differenzmenge 1" d="M2120.773,2079.316a490.334,490.334,0,0,1-53.526-2.949,502.272,502.272,0,0,1-53.464-8.863,523.4,523.4,0,0,1-53.158-14.8,554.108,554.108,0,0,1-52.611-20.763c-71.054-32.3-138.38-80.455-200.106-143.141-8.467-8.6-17.206-18.465-25.974-29.327-8.387-10.39-17.024-21.965-25.669-34.405-16.087-23.147-32.8-50.129-49.668-80.2-28.415-50.645-57.805-110.873-87.354-179.01-11.609-26.768-23.27-54.837-34.66-83.427-9.112-22.872-18.072-46.126-26.631-69.116-14.562-39.116-23.037-64.275-23.121-64.525-.059-.156-6.03-15.94-17.867-41.633-6.938-15.058-14.494-30.5-22.459-45.9-9.956-19.245-20.583-38.475-31.587-57.155a1079.782,1079.782,0,0,0-90.893-131.7,878.611,878.611,0,0,0-59.473-66.351c-10.9-10.948-22.1-21.549-33.28-31.509-11.688-10.41-23.684-20.407-35.656-29.714a431.982,431.982,0,0,1-32.837-28.178,339.591,339.591,0,0,1-28.221-30.275,271.827,271.827,0,0,1-22.952-32.444,227.122,227.122,0,0,1-17.027-34.687,201.533,201.533,0,0,1-13.665-76.4A226.371,226.371,0,0,1,1033.587,701a277.83,277.83,0,0,1,13.213-44.389,506.661,506.661,0,0,1,32.584-67.687,693.793,693.793,0,0,1,44.047-67.24c16.07-21.787,33.992-43.713,53.268-65.168,18.807-20.932,39.078-41.614,60.249-61.47,20.839-19.545,42.7-38.435,64.988-56.147,22.158-17.611,44.864-34.164,67.487-49.2,22.737-15.11,45.53-28.778,67.744-40.624a605.368,605.368,0,0,1,65.76-30.424,702.416,702.416,0,0,1,121.05-34.771,664,664,0,0,1,124.62-12,618.782,618.782,0,0,1,62.24,3.122,584.612,584.612,0,0,1,61.333,9.519A552.863,552.863,0,0,1,1932,200.676a526.733,526.733,0,0,1,57.723,23c11.976,5.622,23.974,11.827,35.659,18.442,11.482,6.5,22.969,13.571,34.141,21.016,10.979,7.316,21.945,15.187,32.593,23.395,10.469,8.07,20.9,16.676,31.015,25.579,39.067,34.4,75.3,74.869,107.686,120.283,6.835,9.584,13.477,19.6,20.3,30.634,6.082,9.825,12.175,20.236,18.627,31.828,11.981,21.523,23.4,43.942,34.45,65.623l.008.015c14.094,27.663,28.667,56.268,44.547,83.293,8.546,14.545,16.777,27.484,25.163,39.556a436.634,436.634,0,0,0,28.634,37.054,491.625,491.625,0,0,0,80.148,73.966c13.393,9.86,27.738,19.377,42.636,28.286,14.24,8.516,29.428,16.74,45.141,24.445,14.928,7.32,30.812,14.407,47.211,21.063,15.444,6.269,31.878,12.373,48.848,18.141,30.454,10.351,63.45,19.951,100.875,29.35,29.233,7.342,60.76,14.488,102.224,23.17v885.69c-32.16,3.125-60.852,6.671-87.716,10.843-14.9,2.314-29.5,4.869-43.382,7.593-14.7,2.884-29.156,6.065-42.971,9.456-14.491,3.557-28.786,7.47-42.487,11.63-14.281,4.336-28.389,9.086-41.932,14.115-14.06,5.222-27.958,10.912-41.306,16.912-13.809,6.207-27.472,12.943-40.609,20.02-28.72,15.474-56.7,33.5-83.75,50.933-26.341,16.973-53.578,34.523-81.482,49.706a549.434,549.434,0,0,1-59.091,27.769,516.67,516.67,0,0,1-60.49,19.881,496.1,496.1,0,0,1-61.5,11.957A487.477,487.477,0,0,1,2120.773,2079.316Z" transform="translate(-1028.392 -171.389)" fill="#f6f9ff" stroke="rgba(0,0,0,0)" stroke-miterlimit="10" stroke-width="1" opacity="0.998"/>
</svg>
