<svg xmlns="http://www.w3.org/2000/svg" width="842.931" height="601.216" viewBox="0 0 842.931 601.216">
  <path id="Differenzmenge_2" data-name="Differenzmenge 2" d="M3473.318,749.716c-25.217,0-52.44-4.538-80.912-13.491-29.605-9.309-60.279-23.313-91.17-41.625a372.4,372.4,0,0,0-41.885-21.46,318.942,318.942,0,0,0-40.24-14.341,286.364,286.364,0,0,0-38.44-8.019,267.374,267.374,0,0,0-86.54,2.237,286.327,286.327,0,0,0-44.963,12.479c-.56.205-1.121.413-1.667.617V148.5h836.768a180.124,180.124,0,0,1,4.81,68.472,175.044,175.044,0,0,1-9.894,39.756,189.988,189.988,0,0,1-9.292,20.743,210.615,210.615,0,0,1-12.672,21.122,136,136,0,0,1-8.845,13.149,121.382,121.382,0,0,1-9.512,11.023,119.976,119.976,0,0,1-20.7,16.912,172.4,172.4,0,0,1-22.409,12.13c-7.68,3.52-15.7,6.722-23.461,9.818l-.014.005,0,0c-26.845,10.714-54.605,21.793-78.979,49.271a228.065,228.065,0,0,0-28.053,38.988,249.035,249.035,0,0,0-18.667,41.65c-10.136,29.09-16.522,61.515-23.918,99.059l0,.011c-3.966,20.136-8.067,40.954-13.254,64.116a134.626,134.626,0,0,1-18.883,40.7,118.131,118.131,0,0,1-29.89,29.779,132.389,132.389,0,0,1-39.524,18.286A176.653,176.653,0,0,1,3473.318,749.716Z" transform="translate(-3047.5 -148.5)" fill="#f7f9fe"/>
</svg>
