<svg xmlns="http://www.w3.org/2000/svg" xmlns:xlink="http://www.w3.org/1999/xlink" width="500" height="500" viewBox="0 0 500 500">
  <defs>
    <clipPath id="clip-ASC_Oncology">
      <rect width="500" height="500"/>
    </clipPath>
  </defs>
  <g id="ASC_Oncology" data-name="ASC Oncology" clip-path="url(#clip-ASC_Oncology)">
    <g id="ASC_Oncology-2" data-name="ASC_Oncology" transform="translate(14.6 177.908)">
      <g id="Ebene_1" transform="translate(119.479 60.425)">
        <g id="Gruppe_3694" data-name="Gruppe 3694">
          <g id="Gruppe_3690" data-name="Gruppe 3690">
            <path id="Pfad_7918" data-name="Pfad 7918" d="M206.639,87.505H194.533l-2.5,5.7H188.7L199.007,70.4h3.246L212.6,93.207h-3.421Zm-1.14-2.632-4.912-11.14-4.912,11.184H205.5Z" transform="translate(-188.7 -70.137)" fill="#007db3"/>
            <path id="Pfad_7919" data-name="Pfad 7919" d="M249.1,90.239l1.184-2.544a11.784,11.784,0,0,0,7.544,2.632c3.947,0,5.614-1.535,5.614-3.509,0-5.57-13.816-2.061-13.816-10.526,0-3.509,2.719-6.491,8.728-6.491a13.272,13.272,0,0,1,7.325,2.018l-1.1,2.588a11.771,11.771,0,0,0-6.272-1.842c-3.86,0-5.526,1.623-5.526,3.6,0,5.57,13.816,2.105,13.816,10.439,0,3.465-2.807,6.491-8.816,6.491C254.319,93.133,250.942,91.949,249.1,90.239Z" transform="translate(-222.609 -69.8)" fill="#007db3"/>
            <path id="Pfad_7920" data-name="Pfad 7920" d="M298.7,81.467c0-6.754,5.132-11.667,12.061-11.667a11.275,11.275,0,0,1,8.684,3.553l-2.105,2.061a8.492,8.492,0,0,0-6.4-2.719,8.774,8.774,0,1,0,0,17.544,8.492,8.492,0,0,0,6.4-2.719l2.105,2.061a11.4,11.4,0,0,1-8.684,3.6C303.832,93.133,298.7,88.177,298.7,81.467Z" transform="translate(-250.454 -69.8)" fill="#007db3"/>
            <path id="Pfad_7921" data-name="Pfad 7921" d="M378.8,81.579C378.8,74.956,383.844,70,390.642,70c6.754,0,11.842,4.912,11.842,11.579S397.4,93.158,390.642,93.158C383.844,93.114,378.8,88.2,378.8,81.579Zm22.018,0a10.176,10.176,0,1,0-10.175,10.044A9.858,9.858,0,0,0,400.818,81.579Z" transform="translate(-295.423 -69.912)" fill="#007830"/>
            <path id="Pfad_7922" data-name="Pfad 7922" d="M467.553,70.4V93.207h-1.36L450.667,73.426V93.207H449V70.4h1.4l15.482,19.781V70.4Z" transform="translate(-334.833 -70.137)" fill="#007830"/>
            <path id="Pfad_7923" data-name="Pfad 7923" d="M507.4,81.579C507.4,74.956,512.444,70,519.242,70a10.87,10.87,0,0,1,8.114,3.158l-1.053,1.1a9.581,9.581,0,0,0-7.018-2.719,10.045,10.045,0,1,0,0,20.088A9.761,9.761,0,0,0,526.3,88.9l1.053,1.1a10.9,10.9,0,0,1-8.114,3.2C512.444,93.114,507.4,88.2,507.4,81.579Z" transform="translate(-367.619 -69.912)" fill="#007830"/>
            <path id="Pfad_7924" data-name="Pfad 7924" d="M562.4,81.579C562.4,74.956,567.444,70,574.242,70c6.754,0,11.842,4.912,11.842,11.579S581,93.158,574.242,93.158C567.444,93.114,562.4,88.2,562.4,81.579Zm22.018,0a10.176,10.176,0,1,0-10.175,10.044A9.858,9.858,0,0,0,584.418,81.579Z" transform="translate(-398.496 -69.912)" fill="#007830"/>
            <path id="Pfad_7925" data-name="Pfad 7925" d="M632.6,70.4h1.667V91.716h13.114v1.491H632.6Z" transform="translate(-437.907 -70.137)" fill="#007830"/>
            <path id="Pfad_7926" data-name="Pfad 7926" d="M673,81.579C673,74.956,678.044,70,684.842,70c6.754,0,11.842,4.912,11.842,11.579S691.6,93.158,684.842,93.158C678.044,93.114,673,88.2,673,81.579Zm22.018,0a10.176,10.176,0,1,0-10.175,10.044A9.858,9.858,0,0,0,695.018,81.579Z" transform="translate(-460.588 -69.912)" fill="#007830"/>
            <path id="Pfad_7927" data-name="Pfad 7927" d="M756.609,81.667h1.579v8.553a11.654,11.654,0,0,1-8.158,2.939c-6.886,0-11.93-4.912-11.93-11.579S743.188,70,750.074,70a11.216,11.216,0,0,1,8.2,3.114l-1.053,1.1a9.509,9.509,0,0,0-7.149-2.719,10.049,10.049,0,1,0,6.491,17.982V81.667Z" transform="translate(-497.135 -69.912)" fill="#007830"/>
            <path id="Pfad_7928" data-name="Pfad 7928" d="M805.733,85.356v7.851h-1.667V85.356L794.9,70.4h1.842l8.246,13.421L813.233,70.4h1.711Z" transform="translate(-529.023 -70.137)" fill="#007830"/>
          </g>
          <g id="Gruppe_3693" data-name="Gruppe 3693" transform="translate(92.851 9.342)">
            <g id="Gruppe_3692" data-name="Gruppe 3692">
              <g id="Gruppe_3691" data-name="Gruppe 3691">
                <path id="Pfad_7929" data-name="Pfad 7929" d="M400.4,93.425a2.281,2.281,0,0,1,2.412-2.325,2.333,2.333,0,0,1,2.412,2.325,2.281,2.281,0,0,1-2.412,2.325A2.307,2.307,0,0,1,400.4,93.425Z" transform="translate(-400.4 -91.1)" fill="#007db3"/>
              </g>
            </g>
          </g>
        </g>
      </g>
      <g id="Ebene_2" transform="translate(65.4 53.1)">
        <g id="Gruppe_3709" data-name="Gruppe 3709">
          <g id="Gruppe_3708" data-name="Gruppe 3708">
            <g id="Gruppe_3698" data-name="Gruppe 3698" transform="translate(9.912 7.105)">
              <g id="Gruppe_3695" data-name="Gruppe 3695" transform="translate(0 5.219)">
                <circle id="Ellipse_721" data-name="Ellipse 721" cx="2.675" cy="2.675" r="2.675" transform="translate(14.123 7.982)" fill="#008d4d"/>
                <circle id="Ellipse_722" data-name="Ellipse 722" cx="2.325" cy="2.325" r="2.325" fill="#3d9960"/>
              </g>
              <g id="Gruppe_3696" data-name="Gruppe 3696" transform="translate(6.228)">
                <circle id="Ellipse_723" data-name="Ellipse 723" cx="1.667" cy="1.667" r="1.667" transform="translate(1.667 18.421)" fill="#7eb48a"/>
                <circle id="Ellipse_724" data-name="Ellipse 724" cx="3.333" cy="3.333" r="3.333" fill="#007830"/>
              </g>
              <g id="Gruppe_3697" data-name="Gruppe 3697" transform="translate(0.307 4.518)">
                <circle id="Ellipse_725" data-name="Ellipse 725" cx="2.018" cy="2.018" r="2.018" transform="translate(0 9.342)" fill="#60a674"/>
                <circle id="Ellipse_726" data-name="Ellipse 726" cx="3.026" cy="3.026" r="3.026" transform="translate(13.465)" fill="#00823d"/>
              </g>
            </g>
            <g id="Gruppe_3707" data-name="Gruppe 3707">
              <g id="Gruppe_3699" data-name="Gruppe 3699" transform="translate(1.009 12.149)">
                <circle id="Ellipse_727" data-name="Ellipse 727" cx="3.333" cy="3.333" r="3.333" transform="translate(31.316 7.675)" fill="#007db3"/>
                <circle id="Ellipse_728" data-name="Ellipse 728" cx="2.325" cy="2.325" r="2.325" fill="#04a0cc"/>
              </g>
              <g id="Gruppe_3700" data-name="Gruppe 3700" transform="translate(5.965 5.307)">
                <circle id="Ellipse_729" data-name="Ellipse 729" cx="1.667" cy="1.667" r="1.667" transform="translate(23.684 23.684)" fill="#74bbdc"/>
                <circle id="Ellipse_730" data-name="Ellipse 730" cx="1.667" cy="1.667" r="1.667" fill="#74bbdc"/>
              </g>
              <g id="Gruppe_3701" data-name="Gruppe 3701" transform="translate(12.456)">
                <circle id="Ellipse_731" data-name="Ellipse 731" cx="3.026" cy="3.026" r="3.026" transform="translate(8.333 31.93)" fill="#0089bb"/>
                <circle id="Ellipse_732" data-name="Ellipse 732" cx="2.675" cy="2.675" r="2.675" fill="#0094c3"/>
              </g>
              <g id="Gruppe_3702" data-name="Gruppe 3702" transform="translate(12.456 0.658)">
                <circle id="Ellipse_733" data-name="Ellipse 733" cx="2.675" cy="2.675" r="2.675" transform="translate(0 31.623)" fill="#0094c3"/>
                <circle id="Ellipse_734" data-name="Ellipse 734" cx="2.018" cy="2.018" r="2.018" transform="translate(9.342)" fill="#4eadd3"/>
              </g>
              <g id="Gruppe_3703" data-name="Gruppe 3703" transform="translate(5.614 3.947)">
                <circle id="Ellipse_735" data-name="Ellipse 735" cx="2.018" cy="2.018" r="2.018" transform="translate(0 24.693)" fill="#4eadd3"/>
                <circle id="Ellipse_736" data-name="Ellipse 736" cx="3.026" cy="3.026" r="3.026" transform="translate(22.675)" fill="#0089bb"/>
              </g>
              <g id="Gruppe_3706" data-name="Gruppe 3706" transform="translate(0 12.149)">
                <g id="Gruppe_3705" data-name="Gruppe 3705">
                  <g id="Gruppe_3704" data-name="Gruppe 3704" transform="translate(0 7.675)">
                    <circle id="Ellipse_737" data-name="Ellipse 737" cx="3.333" cy="3.333" r="3.333" fill="#007db3"/>
                  </g>
                  <circle id="Ellipse_738" data-name="Ellipse 738" cx="2.325" cy="2.325" r="2.325" transform="translate(33.333)" fill="#04a0cc"/>
                </g>
              </g>
            </g>
          </g>
        </g>
      </g>
    </g>
  </g>
</svg>
