<svg width="500" height="500" viewBox="0 0 500 500" fill="none" xmlns="http://www.w3.org/2000/svg">
<path d="M101.331 312.066H86.9366L83.9638 318.847H80L92.2565 291.726H96.116L108.425 318.847H104.304L101.331 312.066ZM99.9755 308.989L94.1341 295.69L88.2927 308.989H99.9755Z" fill="#007DB3"/>
<path d="M111.502 315.769L112.91 312.744C114.944 314.57 118.386 315.874 121.881 315.874C126.575 315.874 128.556 314.048 128.556 311.701C128.556 305.077 112.128 309.25 112.128 299.184C112.128 295.011 115.361 291.465 122.506 291.465C125.688 291.465 128.974 292.299 131.216 293.864L129.913 296.941C127.566 295.429 124.853 294.751 122.454 294.751C117.865 294.751 115.883 296.68 115.883 299.027C115.883 305.651 132.312 301.531 132.312 311.44C132.312 315.561 128.974 319.159 121.828 319.159C117.708 319.159 113.64 317.803 111.502 315.769Z" fill="#007DB3"/>
<path d="M137.371 305.338C137.371 297.306 143.473 291.465 151.713 291.465C155.886 291.465 159.537 292.873 162.04 295.689L159.537 298.141C157.45 295.95 154.895 294.907 151.922 294.907C145.82 294.907 141.282 299.34 141.282 305.338C141.282 311.336 145.82 315.769 151.922 315.769C154.895 315.769 157.45 314.726 159.537 312.536L162.04 314.987C159.537 317.751 155.938 319.264 151.713 319.264C143.473 319.159 137.371 313.318 137.371 305.338Z" fill="#007DB3"/>
<path d="M179.147 305.338C179.147 297.463 185.145 291.569 193.229 291.569C201.261 291.569 207.311 297.411 207.311 305.338C207.311 313.266 201.261 319.107 193.229 319.107C185.145 319.055 179.147 313.162 179.147 305.338ZM205.329 305.338C205.329 298.506 200.166 293.395 193.229 293.395C186.292 293.395 181.129 298.454 181.129 305.338C181.129 312.171 186.292 317.282 193.229 317.282C200.114 317.23 205.329 312.171 205.329 305.338Z" fill="#007830"/>
<path d="M237.822 291.778V318.899H236.205L217.742 295.377V318.847H215.76V291.726H217.429L235.84 315.248V291.726H237.822V291.778Z" fill="#007830"/>
<path d="M246.219 305.338C246.219 297.463 252.217 291.569 260.301 291.569C264.16 291.569 267.602 292.821 269.949 295.325L268.698 296.628C266.351 294.334 263.534 293.395 260.353 293.395C253.416 293.395 248.201 298.506 248.201 305.338C248.201 312.171 253.416 317.282 260.353 317.282C263.534 317.282 266.351 316.291 268.698 314.048L269.949 315.352C267.602 317.856 264.16 319.159 260.301 319.159C252.217 319.055 246.219 313.214 246.219 305.338Z" fill="#007830"/>
<path d="M274.904 305.338C274.904 297.463 280.902 291.569 288.986 291.569C297.018 291.569 303.068 297.411 303.068 305.338C303.068 313.266 297.018 319.107 288.986 319.107C280.902 319.055 274.904 313.162 274.904 305.338ZM301.086 305.338C301.086 298.506 295.923 293.395 288.986 293.395C282.049 293.395 276.886 298.454 276.886 305.338C276.886 312.171 282.101 317.282 288.986 317.282C295.923 317.23 301.086 312.171 301.086 305.338Z" fill="#007830"/>
<path d="M311.517 291.778H313.499V317.125H329.093V318.899H311.517V291.778Z" fill="#007830"/>
<path d="M332.588 305.338C332.588 297.463 338.586 291.569 346.67 291.569C354.702 291.569 360.752 297.411 360.752 305.338C360.752 313.266 354.702 319.107 346.67 319.107C338.586 319.055 332.588 313.162 332.588 305.338ZM358.77 305.338C358.77 298.506 353.606 293.395 346.67 293.395C339.733 293.395 334.57 298.454 334.57 305.338C334.57 312.171 339.733 317.282 346.67 317.282C353.554 317.23 358.77 312.171 358.77 305.338Z" fill="#007830"/>
<path d="M388.55 305.443H390.428V315.613C387.977 317.96 384.482 319.107 380.727 319.107C372.539 319.107 366.541 313.266 366.541 305.338C366.541 297.411 372.539 291.569 380.727 291.569C384.639 291.569 388.081 292.821 390.48 295.272L389.228 296.576C386.881 294.229 384.065 293.343 380.727 293.343C373.686 293.343 368.471 298.454 368.471 305.286C368.471 312.066 373.686 317.23 380.727 317.23C383.596 317.23 386.203 316.552 388.446 314.726V305.443H388.55Z" fill="#007830"/>
<path d="M409.047 309.511V318.847H407.065V309.511L396.165 291.726H398.356L408.161 307.685L417.966 291.726H420L409.047 309.511Z" fill="#007830"/>
<path d="M190.413 305.338C190.413 303.722 191.612 302.574 193.281 302.574C194.898 302.574 196.15 303.774 196.15 305.338C196.15 306.955 194.95 308.103 193.281 308.103C191.612 308.103 190.413 306.903 190.413 305.338Z" fill="#007DB3"/>
<path d="M268.488 243.638C272.089 243.638 275.008 240.72 275.008 237.119C275.008 233.518 272.089 230.6 268.488 230.6C264.888 230.6 261.969 233.518 261.969 237.119C261.969 240.72 264.888 243.638 268.488 243.638Z" fill="#008D4D"/>
<path d="M233.179 222.463C236.348 222.463 238.917 219.895 238.917 216.726C238.917 213.558 236.348 210.989 233.179 210.989C230.011 210.989 227.442 213.558 227.442 216.726C227.442 219.895 230.011 222.463 233.179 222.463Z" fill="#3D9960"/>
<path d="M250.808 251.41C253.055 251.41 254.876 249.588 254.876 247.341C254.876 245.095 253.055 243.273 250.808 243.273C248.561 243.273 246.74 245.095 246.74 247.341C246.74 249.588 248.561 251.41 250.808 251.41Z" fill="#7EB48A"/>
<path d="M250.808 214.692C255.301 214.692 258.944 211.05 258.944 206.556C258.944 202.063 255.301 198.42 250.808 198.42C246.314 198.42 242.672 202.063 242.672 206.556C242.672 211.05 246.314 214.692 250.808 214.692Z" fill="#007830"/>
<path d="M233.179 242.022C235.887 242.022 238.082 239.827 238.082 237.119C238.082 234.412 235.887 232.217 233.179 232.217C230.472 232.217 228.277 234.412 228.277 237.119C228.277 239.827 230.472 242.022 233.179 242.022Z" fill="#60A674"/>
<path d="M268.488 224.08C272.55 224.08 275.842 220.788 275.842 216.726C275.842 212.665 272.55 209.372 268.488 209.372C264.427 209.372 261.135 212.665 261.135 216.726C261.135 220.788 264.427 224.08 268.488 224.08Z" fill="#00823D"/>
<path d="M298.24 238.798C298.96 234.362 295.948 230.183 291.512 229.463C287.077 228.743 282.898 231.755 282.178 236.191C281.458 240.626 284.47 244.806 288.906 245.526C293.341 246.245 297.52 243.233 298.24 238.798Z" fill="#007DB3"/>
<path d="M211.431 222.046C214.57 222.046 217.116 219.501 217.116 216.361C217.116 213.221 214.57 210.676 211.431 210.676C208.291 210.676 205.746 213.221 205.746 216.361C205.746 219.501 208.291 222.046 211.431 222.046Z" fill="#04A0CC"/>
<path d="M279.649 259.859C281.896 259.859 283.718 258.037 283.718 255.791C283.718 253.544 281.896 251.723 279.649 251.723C277.403 251.723 275.581 253.544 275.581 255.791C275.581 258.037 277.403 259.859 279.649 259.859Z" fill="#74BBDC"/>
<path d="M221.966 202.175C224.213 202.175 226.034 200.354 226.034 198.107C226.034 195.86 224.213 194.039 221.966 194.039C219.719 194.039 217.898 195.86 217.898 198.107C217.898 200.354 219.719 202.175 221.966 202.175Z" fill="#74BBDC"/>
<path d="M261.395 273.68C265.457 273.68 268.749 270.387 268.749 266.326C268.749 262.264 265.457 258.972 261.395 258.972C257.334 258.972 254.041 262.264 254.041 266.326C254.041 270.387 257.334 273.68 261.395 273.68Z" fill="#0089BB"/>
<path d="M240.272 194.039C243.873 194.039 246.792 191.12 246.792 187.519C246.792 183.919 243.873 181 240.272 181C236.672 181 233.753 183.919 233.753 187.519C233.753 191.12 236.672 194.039 240.272 194.039Z" fill="#0094C3"/>
<path d="M240.272 272.845C243.873 272.845 246.792 269.926 246.792 266.326C246.792 262.725 243.873 259.806 240.272 259.806C236.672 259.806 233.753 262.725 233.753 266.326C233.753 269.926 236.672 272.845 240.272 272.845Z" fill="#0094C3"/>
<path d="M261.396 192.422C264.103 192.422 266.298 190.227 266.298 187.519C266.298 184.812 264.103 182.617 261.396 182.617C258.688 182.617 256.493 184.812 256.493 187.519C256.493 190.227 258.688 192.422 261.396 192.422Z" fill="#4EADD3"/>
<path d="M221.966 260.693C224.673 260.693 226.868 258.498 226.868 255.791C226.868 253.083 224.673 250.888 221.966 250.888C219.258 250.888 217.063 253.083 217.063 255.791C217.063 258.498 219.258 260.693 221.966 260.693Z" fill="#4EADD3"/>
<path d="M279.65 205.461C283.711 205.461 287.003 202.168 287.003 198.107C287.003 194.045 283.711 190.753 279.65 190.753C275.588 190.753 272.296 194.045 272.296 198.107C272.296 202.168 275.588 205.461 279.65 205.461Z" fill="#0089BB"/>
<path d="M211.43 245.62C215.924 245.62 219.567 241.978 219.567 237.484C219.567 232.991 215.924 229.348 211.43 229.348C206.937 229.348 203.294 232.991 203.294 237.484C203.294 241.978 206.937 245.62 211.43 245.62Z" fill="#007DB3"/>
<path d="M290.237 222.046C293.377 222.046 295.922 219.501 295.922 216.361C295.922 213.222 293.377 210.676 290.237 210.676C287.097 210.676 284.552 213.222 284.552 216.361C284.552 219.501 287.097 222.046 290.237 222.046Z" fill="#04A0CC"/>
</svg>
