<svg xmlns="http://www.w3.org/2000/svg" xmlns:xlink="http://www.w3.org/1999/xlink" width="500" height="500" viewBox="0 0 500 500">
  <defs>
    <clipPath id="clip-HTW-Berln">
      <rect width="500" height="500"/>
    </clipPath>
  </defs>
  <g id="HTW-Berln" clip-path="url(#clip-HTW-Berln)">
    <g id="Gruppe_3617" data-name="Gruppe 3617" transform="translate(58.746 140.11)">
      <g id="Gruppe_3615" data-name="Gruppe 3615" transform="translate(85.737 106.308)">
        <g id="Gruppe_3613" data-name="Gruppe 3613">
          <path id="Pfad_7197" data-name="Pfad 7197" d="M42.517,42.48h3.707v7.762h5.733V42.48h3.7V61.391h-3.7V53.544H46.224v7.847H42.517Z" transform="translate(-42.228 -41.149)"/>
          <path id="Pfad_7198" data-name="Pfad 7198" d="M48.2,54.72a13.321,13.321,0,0,1-.262-3.36,13.193,13.193,0,0,1,.262-3.333,5.594,5.594,0,0,1,5.733-4.2,5.551,5.551,0,0,1,5.675,4.2,13.193,13.193,0,0,1,.262,3.333,13.321,13.321,0,0,1-.262,3.36,5.669,5.669,0,0,1-5.791,4.2A5.533,5.533,0,0,1,48.2,54.72Zm7.9-.755a11.058,11.058,0,0,0,.207-2.6,11.432,11.432,0,0,0-.207-2.635,2.189,2.189,0,0,0-2.227-1.739,2.16,2.16,0,0,0-2.23,1.825,14.857,14.857,0,0,0-.174,2.55,14.315,14.315,0,0,0,.174,2.519,2.16,2.16,0,0,0,2.23,1.825A2.186,2.186,0,0,0,56.1,53.965Z" transform="translate(-31.129 -38.386)"/>
          <path id="Pfad_7199" data-name="Pfad 7199" d="M53.066,54.72a13.11,13.11,0,0,1-.289-3.36,13.621,13.621,0,0,1,.289-3.39,5.228,5.228,0,0,1,5.447-4.14c2.778,0,4.716,1.188,5.3,3.881a9.47,9.47,0,0,1,.174,1.883v.436h-3.5v-.235a7.218,7.218,0,0,0-.03-.9,1.894,1.894,0,0,0-2.026-1.913c-1.246,0-1.8.755-2,2a19.309,19.309,0,0,0-.085,2.376,16.573,16.573,0,0,0,.085,2.227c.232,1.276.9,2.117,2.257,2.117a3.177,3.177,0,0,0,2.839-1.94L63.9,56.052a5.917,5.917,0,0,1-5.267,2.867A5.266,5.266,0,0,1,53.066,54.72Z" transform="translate(-21.233 -38.386)"/>
          <path id="Pfad_7200" data-name="Pfad 7200" d="M60.983,62.091H57.422V42.138h3.561v6.4a3.979,3.979,0,0,1,2.985-1.246c2.924,0,4.746,2,4.746,4.953v9.846H65.126V52.709a1.891,1.891,0,0,0-2.056-2.145,1.978,1.978,0,0,0-2.087,2.145Z" transform="translate(-11.728 -41.849)"/>
          <path id="Pfad_7201" data-name="Pfad 7201" d="M68.971,50.261c2.081.78,3.616,1.621,3.616,4.341,0,2.522-2.056,4.317-5.066,4.317-2.693,0-4.691-1.188-5.529-3.071l2.547-2.114a3.44,3.44,0,0,0,3.04,1.971c.752,0,1.362-.32,1.362-1.014,0-.81-.493-1.014-1.736-1.477l-1.133-.405c-2.662-.984-3.531-2.288-3.531-4.518,0-2.55,2.114-4.46,5.011-4.46,3.473,0,4.981,1.8,4.981,4.518a5.3,5.3,0,0,1-.03.695H68.941a2.2,2.2,0,0,0,.03-.433c0-1.334-.752-1.624-1.48-1.624A1.281,1.281,0,0,0,66.1,48.259c0,.755.606,1.161,1.794,1.593Z" transform="translate(-2.377 -38.386)"/>
          <path id="Pfad_7202" data-name="Pfad 7202" d="M66.672,54.72a13.088,13.088,0,0,1-.292-3.36,13.6,13.6,0,0,1,.292-3.39,5.224,5.224,0,0,1,5.444-4.14c2.778,0,4.719,1.188,5.3,3.881a9.46,9.46,0,0,1,.177,1.883v.436h-3.5v-.235a7.216,7.216,0,0,0-.03-.9,1.9,1.9,0,0,0-2.026-1.913c-1.246,0-1.8.755-2,2a18.645,18.645,0,0,0-.088,2.376,16,16,0,0,0,.088,2.227c.232,1.276.9,2.117,2.257,2.117a3.169,3.169,0,0,0,2.836-1.94L77.5,56.052a5.922,5.922,0,0,1-5.27,2.867A5.263,5.263,0,0,1,66.672,54.72Z" transform="translate(6.602 -38.386)"/>
          <path id="Pfad_7203" data-name="Pfad 7203" d="M74.54,62.091H70.979V42.138H74.54v6.4a3.976,3.976,0,0,1,2.982-1.246c2.924,0,4.749,2,4.749,4.953v9.846H78.68V52.709a1.889,1.889,0,0,0-2.056-2.145,1.977,1.977,0,0,0-2.084,2.145Z" transform="translate(16.013 -41.849)"/>
          <path id="Pfad_7204" data-name="Pfad 7204" d="M83.883,57.022a3.982,3.982,0,0,1-3.36,1.682c-2.924,0-4.691-2-4.691-4.981V43.935h3.561v9.41a1.883,1.883,0,0,0,2.026,2.114,2.006,2.006,0,0,0,2.117-2.114v-9.41H87.1V58.414H84.084Z" transform="translate(25.944 -38.171)"/>
          <path id="Pfad_7205" data-name="Pfad 7205" d="M84.528,58.442a1.247,1.247,0,0,0,1.161.521,3.058,3.058,0,0,0,.923-.143v3.214a8.882,8.882,0,0,1-1.59.143,3.957,3.957,0,0,1-3.908-2.23,5.924,5.924,0,0,1-.378-2.2V42.138h3.589V57.659A1.453,1.453,0,0,0,84.528,58.442Z" transform="translate(35.977 -41.849)"/>
          <path id="Pfad_7206" data-name="Pfad 7206" d="M94.46,48.028a10.2,10.2,0,0,1,.2,2.461c0,.64,0,1.392-.03,2.26H86.844a4.754,4.754,0,0,0,.085.984A2.167,2.167,0,0,0,89.248,55.7,3.111,3.111,0,0,0,92.2,54l2.315,2.23a6.157,6.157,0,0,1-5.328,2.693,5.433,5.433,0,0,1-5.645-4.2,13.18,13.18,0,0,1-.262-3.36,13.053,13.053,0,0,1,.262-3.333,5.335,5.335,0,0,1,5.529-4.2A5.232,5.232,0,0,1,94.46,48.028Zm-7.53.871a4.668,4.668,0,0,0-.085,1.011h4.283a6.11,6.11,0,0,0-.058-1.011,2.076,2.076,0,0,0-4.14,0Z" transform="translate(41.184 -38.386)"/>
          <path id="Pfad_7207" data-name="Pfad 7207" d="M95.036,50.932V62.285H91.475V50.932H89.854V47.807h1.621V46.588c0-2.836,1.736-4.545,4.286-4.545a5.52,5.52,0,0,1,3.129.81l-1.13,2.867a2.692,2.692,0,0,0-1.477-.375,1.256,1.256,0,0,0-1.246,1.42v1.042H97.9v3.125Z" transform="translate(54.637 -42.043)"/>
          <path id="Pfad_7208" data-name="Pfad 7208" d="M101.408,60.68a3.976,3.976,0,0,1-3.357,1.682c-2.927,0-4.691-2-4.691-4.981V47.594h3.561V57a1.881,1.881,0,0,0,2.026,2.114A2.005,2.005,0,0,0,101.061,57v-9.41h3.561V62.073h-3.01Zm-7.18-16.563a1.985,1.985,0,0,1,2.026-1.971,2.022,2.022,0,0,1,2.026,1.971,2.069,2.069,0,0,1-2.026,2.026A2.03,2.03,0,0,1,94.228,44.118Zm5.529,0a1.987,1.987,0,0,1,2.026-1.971,2.023,2.023,0,0,1,2.029,1.971,2.07,2.07,0,0,1-2.029,2.026A2.032,2.032,0,0,1,99.757,44.118Z" transform="translate(61.811 -41.83)"/>
          <path id="Pfad_7209" data-name="Pfad 7209" d="M101.871,58.59H98.31V44.111h3.01l.2,1.42a3.324,3.324,0,0,1,3.04-1.682,7.782,7.782,0,0,1,1.276.088v3.5a9.149,9.149,0,0,0-1.886-.174,1.955,1.955,0,0,0-2.084,2.172Z" transform="translate(71.94 -38.347)"/>
          <path id="Pfad_7210" data-name="Pfad 7210" d="M107.521,45.9H102.86V42.48h13V45.9h-4.63V61.391h-3.707Z" transform="translate(81.25 -41.149)"/>
          <path id="Pfad_7211" data-name="Pfad 7211" d="M118.334,48.028a10.2,10.2,0,0,1,.2,2.461c0,.64,0,1.392-.03,2.26h-7.786a4.752,4.752,0,0,0,.085.984,2.167,2.167,0,0,0,2.318,1.971A3.111,3.111,0,0,0,116.073,54l2.315,2.23a6.157,6.157,0,0,1-5.328,2.693,5.433,5.433,0,0,1-5.645-4.2,13.18,13.18,0,0,1-.262-3.36,13.053,13.053,0,0,1,.262-3.333,5.335,5.335,0,0,1,5.529-4.2A5.232,5.232,0,0,1,118.334,48.028Zm-7.53.871a4.667,4.667,0,0,0-.085,1.011H115a6.109,6.109,0,0,0-.058-1.011,2.076,2.076,0,0,0-4.14,0Z" transform="translate(90.037 -38.386)"/>
          <path id="Pfad_7212" data-name="Pfad 7212" d="M112.091,54.72a13.088,13.088,0,0,1-.292-3.36,13.6,13.6,0,0,1,.292-3.39,5.224,5.224,0,0,1,5.444-4.14c2.778,0,4.719,1.188,5.3,3.881a9.459,9.459,0,0,1,.177,1.883v.436h-3.5v-.235a7.216,7.216,0,0,0-.03-.9,1.9,1.9,0,0,0-2.026-1.913c-1.246,0-1.8.755-2,2a19.307,19.307,0,0,0-.085,2.376,16.571,16.571,0,0,0,.085,2.227c.235,1.276.9,2.117,2.26,2.117a3.169,3.169,0,0,0,2.836-1.94l2.376,2.288a5.925,5.925,0,0,1-5.27,2.867A5.263,5.263,0,0,1,112.091,54.72Z" transform="translate(99.542 -38.386)"/>
          <path id="Pfad_7213" data-name="Pfad 7213" d="M120.006,62.091h-3.561V42.138h3.561v6.4a3.977,3.977,0,0,1,2.982-1.246c2.924,0,4.749,2,4.749,4.953v9.846h-3.592V52.709a1.889,1.889,0,0,0-2.056-2.145,1.977,1.977,0,0,0-2.084,2.145Z" transform="translate(109.049 -41.849)"/>
          <path id="Pfad_7214" data-name="Pfad 7214" d="M124.9,58.629h-3.561V44.15h3.04l.174,1.3a3.952,3.952,0,0,1,3.333-1.624c2.924,0,4.746,2,4.746,4.953v9.846H129.04V49.246a1.891,1.891,0,0,0-2.056-2.145,1.978,1.978,0,0,0-2.087,2.145Z" transform="translate(119.057 -38.386)"/>
          <path id="Pfad_7215" data-name="Pfad 7215" d="M126.134,44.185a2.2,2.2,0,0,1,4.4,0,2.2,2.2,0,1,1-4.4,0Zm.436,18.1V47.807h3.588V62.285Z" transform="translate(128.875 -42.043)"/>
          <path id="Pfad_7216" data-name="Pfad 7216" d="M132.344,56.474v5.617h-3.616V42.138h3.616v11h.292c2.751,0,3.707-2.2,3.707-4.661a8.27,8.27,0,0,0-.03-.868h3.649c.027.347.058.695.058,1.042a7.7,7.7,0,0,1-3.186,6.69l4.259,6.747h-4.344l-3.3-5.648a5.971,5.971,0,0,1-.752.03Z" transform="translate(134.183 -41.849)"/>
          <path id="Pfad_7217" data-name="Pfad 7217" d="M50.473,66.825a3.987,3.987,0,0,1-3.36,1.678c-2.927,0-4.691-2-4.691-4.981V53.735h3.561v9.41a1.883,1.883,0,0,0,2.026,2.114,2.007,2.007,0,0,0,2.117-2.114v-9.41h3.561V68.214H50.674Z" transform="translate(-42.422 -18.118)"/>
          <path id="Pfad_7218" data-name="Pfad 7218" d="M50.9,68.427H47.343V53.948h3.04l.174,1.3a3.945,3.945,0,0,1,3.333-1.621c2.924,0,4.746,2,4.746,4.95v9.846H55.044V59.044A1.887,1.887,0,0,0,52.991,56.9,1.977,1.977,0,0,0,50.9,59.044Z" transform="translate(-32.352 -18.331)"/>
          <path id="Pfad_7219" data-name="Pfad 7219" d="M60.956,70.761a4.738,4.738,0,0,1-3.592,1.42,5.045,5.045,0,0,1-5.039-4.228,14.585,14.585,0,0,1-.262-3.33,15.449,15.449,0,0,1,.262-3.418A5.071,5.071,0,0,1,57.508,57.1a4.719,4.719,0,0,1,3.043.953V51.938h3.561V71.891H61.127ZM60.4,66.938a11.424,11.424,0,0,0,.146-2.343,11.637,11.637,0,0,0-.146-2.349,2.3,2.3,0,0,0-2.346-2.026,2.25,2.25,0,0,0-2.315,2.026,13.918,13.918,0,0,0-.116,2.349,13.841,13.841,0,0,0,.116,2.343A2.276,2.276,0,0,0,58.059,69,2.323,2.323,0,0,0,60.4,66.938Z" transform="translate(-22.692 -21.795)"/>
          <path id="Pfad_7220" data-name="Pfad 7220" d="M62.272,71.191,59.521,59.32a24.961,24.961,0,0,1-.551-4.953V52.28h3.707v2.087a27.058,27.058,0,0,0,.347,4.082l.49,2.662a48.911,48.911,0,0,1,.9,5.188h.116a27.423,27.423,0,0,1,.841-4.027l1.477-5.76h3.1l1.5,5.328A31.377,31.377,0,0,1,72.5,66.5h.116c.027-1.1.463-3.071.807-5.154l.466-2.9a31.279,31.279,0,0,0,.317-4.082V52.28h3.707v2.087a27.314,27.314,0,0,1-.521,4.953L74.811,71.191H70.756l-1.679-5.965a18.258,18.258,0,0,1-.695-3.619h-.116a18.731,18.731,0,0,1-.7,3.646l-1.59,5.937Z" transform="translate(-8.56 -21.095)"/>
          <path id="Pfad_7221" data-name="Pfad 7221" d="M66.068,53.986a2.2,2.2,0,0,1,4.4,0,2.2,2.2,0,0,1-4.4,0Zm.433,18.1V57.6h3.592V72.083Z" transform="translate(5.964 -21.988)"/>
          <path id="Pfad_7222" data-name="Pfad 7222" d="M72.175,68.39H68.614V53.911h3.01l.2,1.42a3.333,3.333,0,0,1,3.04-1.682,7.761,7.761,0,0,1,1.276.088v3.5a9.14,9.14,0,0,0-1.883-.174,1.957,1.957,0,0,0-2.084,2.172Z" transform="translate(11.174 -18.294)"/>
          <path id="Pfad_7223" data-name="Pfad 7223" d="M77.367,71.091c-2.428,0-4.2-1.682-4.2-4.545v-7.04H71.549V56.381H73.17V52.442h3.561v3.939h3.476v3.125H76.731v6.952a1.267,1.267,0,0,0,1.3,1.42,2.074,2.074,0,0,0,1.477-.579l1.042,2.894A4.788,4.788,0,0,1,77.367,71.091Z" transform="translate(17.18 -20.764)"/>
          <path id="Pfad_7224" data-name="Pfad 7224" d="M81.957,60.059c2.084.783,3.616,1.621,3.616,4.344,0,2.519-2.053,4.314-5.066,4.314-2.69,0-4.691-1.188-5.529-3.071l2.547-2.111a3.443,3.443,0,0,0,3.04,1.968c.752,0,1.362-.317,1.362-1.014,0-.81-.494-1.014-1.736-1.474l-1.13-.408c-2.662-.984-3.531-2.288-3.531-4.515,0-2.55,2.111-4.46,5.008-4.46,3.476,0,4.981,1.794,4.981,4.515a5.368,5.368,0,0,1-.03.7H81.927a2.25,2.25,0,0,0,.03-.436c0-1.334-.752-1.621-1.477-1.621A1.279,1.279,0,0,0,79.09,58.06c0,.752.606,1.158,1.791,1.59Z" transform="translate(24.196 -18.331)"/>
          <path id="Pfad_7225" data-name="Pfad 7225" d="M79.656,64.518a13.1,13.1,0,0,1-.289-3.36,13.61,13.61,0,0,1,.289-3.387,5.224,5.224,0,0,1,5.444-4.14c2.781,0,4.719,1.185,5.3,3.878a9.493,9.493,0,0,1,.174,1.883v.436h-3.5V59.6a7.276,7.276,0,0,0-.03-.9,1.9,1.9,0,0,0-2.026-1.91c-1.246,0-1.8.752-2,2a19.331,19.331,0,0,0-.085,2.376,16.643,16.643,0,0,0,.085,2.23A2.192,2.192,0,0,0,85.274,65.5a3.172,3.172,0,0,0,2.839-1.94l2.373,2.288a5.92,5.92,0,0,1-5.267,2.867A5.269,5.269,0,0,1,79.656,64.518Z" transform="translate(33.177 -18.331)"/>
          <path id="Pfad_7226" data-name="Pfad 7226" d="M87.526,71.891H83.965V51.938h3.561v6.4A3.977,3.977,0,0,1,90.511,57.1c2.924,0,4.746,2,4.746,4.95v9.846H91.669V62.509a1.89,1.89,0,0,0-2.056-2.142,1.977,1.977,0,0,0-2.087,2.142Z" transform="translate(42.586 -21.795)"/>
          <path id="Pfad_7227" data-name="Pfad 7227" d="M93.544,68.542a6.621,6.621,0,0,1-2.059-.232,3.982,3.982,0,0,1-2.894-4.14,3.866,3.866,0,0,1,2.894-3.911,8.228,8.228,0,0,1,2.263-.232,5.574,5.574,0,0,1,2.142.378V58.639a1.718,1.718,0,0,0-1.855-1.852c-.984,0-1.736.463-2.315,1.822l-2.781-1.822a5.168,5.168,0,0,1,5.273-3.156c3.357,0,5.267,2.257,5.267,4.862v9.934H96.642L96.5,67.412a5.637,5.637,0,0,1-.493.436A3.9,3.9,0,0,1,93.544,68.542Zm1.739-3.04a1.254,1.254,0,0,0,.893-1.273,1.3,1.3,0,0,0-.868-1.331,5.355,5.355,0,0,0-1.243-.088,5.126,5.126,0,0,0-1.215.088,1.411,1.411,0,0,0,0,2.6,5.563,5.563,0,0,0,1.215.085A5.212,5.212,0,0,0,95.284,65.5Z" transform="translate(52.052 -18.331)"/>
          <path id="Pfad_7228" data-name="Pfad 7228" d="M98.238,60.73V72.083H94.677V60.73H93.056V57.6h1.621V56.389c0-2.839,1.739-4.545,4.289-4.545a5.542,5.542,0,0,1,3.125.807l-1.13,2.87a2.661,2.661,0,0,0-1.477-.378,1.253,1.253,0,0,0-1.246,1.417V57.6h2.87V60.73Z" transform="translate(61.189 -21.988)"/>
          <path id="Pfad_7229" data-name="Pfad 7229" d="M102.041,71.091c-2.434,0-4.2-1.682-4.2-4.545v-7.04H96.22V56.381h1.621V52.442H101.4v3.939h3.476v3.125H101.4v6.952a1.267,1.267,0,0,0,1.3,1.42,2.074,2.074,0,0,0,1.477-.579l1.042,2.894A4.784,4.784,0,0,1,102.041,71.091Z" transform="translate(67.663 -20.764)"/>
          <path id="Pfad_7230" data-name="Pfad 7230" d="M102.1,71.191V52.28h6.05c3.418,0,5.767,2.087,5.767,5.5a4.669,4.669,0,0,1-2.114,3.878,4.694,4.694,0,0,1,2.346,4.085c0,3.387-2.23,5.444-5.562,5.444Zm3.707-15.579v4.722h2.114a2.285,2.285,0,0,0,2.315-2.379,2.258,2.258,0,0,0-2.315-2.343Zm0,7.847V67.8h2.55a2.058,2.058,0,0,0,2.056-2.23,1.994,1.994,0,0,0-2.056-2.114Z" transform="translate(79.695 -21.095)"/>
          <path id="Pfad_7231" data-name="Pfad 7231" d="M118.086,57.829a10.185,10.185,0,0,1,.2,2.461c0,.637,0,1.389-.03,2.257H110.47a4.8,4.8,0,0,0,.085.987,2.167,2.167,0,0,0,2.318,1.968,3.113,3.113,0,0,0,2.952-1.706l2.315,2.227a6.149,6.149,0,0,1-5.328,2.693,5.43,5.43,0,0,1-5.645-4.2,13.166,13.166,0,0,1-.262-3.36,13.026,13.026,0,0,1,.262-3.33,5.333,5.333,0,0,1,5.529-4.2A5.229,5.229,0,0,1,118.086,57.829Zm-7.53.868a4.717,4.717,0,0,0-.085,1.014h4.283A6.128,6.128,0,0,0,114.7,58.7a2.077,2.077,0,0,0-4.14,0Z" transform="translate(89.529 -18.331)"/>
          <path id="Pfad_7232" data-name="Pfad 7232" d="M115.227,68.39h-3.561V53.911h3.013l.2,1.42a3.33,3.33,0,0,1,3.04-1.682,7.78,7.78,0,0,1,1.276.088v3.5a9.14,9.14,0,0,0-1.883-.174,1.959,1.959,0,0,0-2.087,2.172Z" transform="translate(99.27 -18.294)"/>
          <path id="Pfad_7233" data-name="Pfad 7233" d="M118.71,68.242a1.247,1.247,0,0,0,1.158.524,3.144,3.144,0,0,0,.926-.146v3.217a8.924,8.924,0,0,1-1.59.14,3.967,3.967,0,0,1-3.911-2.227,6,6,0,0,1-.378-2.2V51.938h3.592V67.462A1.435,1.435,0,0,0,118.71,68.242Z" transform="translate(105.916 -21.795)"/>
          <path id="Pfad_7234" data-name="Pfad 7234" d="M117.528,53.986a2.2,2.2,0,0,1,4.4,0,2.2,2.2,0,0,1-4.4,0Zm.433,18.1V57.6h3.592V72.083Z" transform="translate(111.265 -21.988)"/>
          <path id="Pfad_7235" data-name="Pfad 7235" d="M123.635,68.427h-3.561V53.948h3.04l.171,1.3a3.949,3.949,0,0,1,3.333-1.621c2.924,0,4.749,2,4.749,4.95v9.846h-3.592V59.044a1.89,1.89,0,0,0-2.056-2.142,1.976,1.976,0,0,0-2.084,2.142Z" transform="translate(116.475 -18.331)"/>
        </g>
        <g id="Gruppe_3614" data-name="Gruppe 3614" transform="translate(0.238 83.078)">
          <path id="Pfad_7236" data-name="Pfad 7236" d="M50.436,69.655H53.3v7.71c0,2.458-.11,3.451-.472,4.353C52.1,83.546,50.411,84.6,47.91,84.6c-2.522,0-4.216-1.057-4.914-2.863a11.452,11.452,0,0,1-.5-4.374v-7.71h2.863V77.5a11.826,11.826,0,0,0,.134,2.705,2.213,2.213,0,0,0,2.413,1.712,2.131,2.131,0,0,0,2.367-1.688,11.216,11.216,0,0,0,.158-2.729Z" transform="translate(-42.5 -68.619)" fill="#76b900"/>
          <path id="Pfad_7237" data-name="Pfad 7237" d="M49.757,82.225H46.985V70.954h2.364l.137,1.014a3.069,3.069,0,0,1,2.592-1.261,3.544,3.544,0,0,1,3.7,3.85v7.667h-2.8v-7.3a1.472,1.472,0,0,0-1.6-1.669,1.539,1.539,0,0,0-1.621,1.669Z" transform="translate(-33.322 -66.467)" fill="#76b900"/>
          <path id="Pfad_7238" data-name="Pfad 7238" d="M50.64,70.984a1.714,1.714,0,0,1,3.427,0,1.714,1.714,0,1,1-3.427,0Zm.338,14.089V73.8h2.793V85.073Z" transform="translate(-25.843 -69.315)" fill="#76b900"/>
          <path id="Pfad_7239" data-name="Pfad 7239" d="M55.708,82.059c-.856-1.736-1.916-4.353-2.571-6.019a10.811,10.811,0,0,1-.743-3.7V70.788h2.751v1.557a10.726,10.726,0,0,0,.564,3.061,28.6,28.6,0,0,1,1.374,4.329h.091a28.659,28.659,0,0,1,1.4-4.329,11.239,11.239,0,0,0,.542-3.061V70.788h2.751v1.557a11.018,11.018,0,0,1-.7,3.7c-.655,1.666-1.782,4.283-2.617,6.019Z" transform="translate(-22.254 -66.301)" fill="#76b900"/>
          <path id="Pfad_7240" data-name="Pfad 7240" d="M64.772,73.973a7.743,7.743,0,0,1,.158,1.919c0,.493,0,1.078-.021,1.758H58.844a4.033,4.033,0,0,0,.067.765,1.691,1.691,0,0,0,1.8,1.535,2.418,2.418,0,0,0,2.3-1.334l1.8,1.739a4.792,4.792,0,0,1-4.149,2.1,4.227,4.227,0,0,1-4.4-3.269,10.384,10.384,0,0,1-.2-2.614,10.321,10.321,0,0,1,.2-2.6,4.152,4.152,0,0,1,4.307-3.266A4.062,4.062,0,0,1,64.772,73.973Zm-5.861.679a3.963,3.963,0,0,0-.067.789h3.339a5.012,5.012,0,0,0-.046-.789,1.618,1.618,0,0,0-3.226,0Z" transform="translate(-14.728 -66.467)" fill="#76b900"/>
          <path id="Pfad_7241" data-name="Pfad 7241" d="M62.508,82.2H59.736V70.925h2.343l.158,1.1A2.593,2.593,0,0,1,64.6,70.721a6.222,6.222,0,0,1,1,.067v2.726a7.345,7.345,0,0,0-1.468-.131,1.52,1.52,0,0,0-1.621,1.688Z" transform="translate(-7.231 -66.438)" fill="#76b900"/>
          <path id="Pfad_7242" data-name="Pfad 7242" d="M67.4,75.709c1.627.612,2.818,1.261,2.818,3.384,0,1.959-1.6,3.357-3.945,3.357a4.429,4.429,0,0,1-4.3-2.388l1.983-1.648a2.679,2.679,0,0,0,2.367,1.535c.585,0,1.06-.25,1.06-.792,0-.631-.381-.789-1.353-1.148l-.88-.314c-2.075-.768-2.748-1.782-2.748-3.518a3.6,3.6,0,0,1,3.9-3.47c2.705,0,3.875,1.4,3.875,3.515a5.4,5.4,0,0,1-.018.542H67.38a1.935,1.935,0,0,0,.021-.338c0-1.039-.585-1.264-1.148-1.264a1,1,0,0,0-1.081.993c0,.585.472.9,1.4,1.24Z" transform="translate(-2.659 -66.467)" fill="#76b900"/>
          <path id="Pfad_7243" data-name="Pfad 7243" d="M65.329,70.984a1.714,1.714,0,0,1,3.427,0,1.714,1.714,0,1,1-3.427,0Zm.341,14.089V73.8h2.793V85.073Z" transform="translate(4.214 -69.315)" fill="#76b900"/>
          <path id="Pfad_7244" data-name="Pfad 7244" d="M71.539,84.3a3.2,3.2,0,0,1-3.266-3.54v-5.48H67.009V72.849h1.264V69.781h2.772v3.068H73.75v2.434H71.045v5.41a.983.983,0,0,0,1.014,1.1,1.612,1.612,0,0,0,1.148-.448l.813,2.254A3.744,3.744,0,0,1,71.539,84.3Z" transform="translate(7.652 -68.361)" fill="#76b900"/>
          <path id="Pfad_7245" data-name="Pfad 7245" d="M70.267,86.254V83.7a6.4,6.4,0,0,0,.99.046c.676,0,1.106-.18,1.557-1.173l.317-.7c-.993-2.093-2.12-4.484-2.729-5.949a8.723,8.723,0,0,1-.7-3.54v-1.6h2.863v1.6a7.757,7.757,0,0,0,.493,2.684,22.672,22.672,0,0,1,1.444,4.3H74.6a21.765,21.765,0,0,1,1.42-4.3,7.321,7.321,0,0,0,.5-2.684v-1.6h2.842v1.6a9.2,9.2,0,0,1-.679,3.54c-.719,1.761-2.276,5.456-3.36,7.664-.832,1.712-1.825,2.8-3.765,2.8A5.858,5.858,0,0,1,70.267,86.254Z" transform="translate(13.165 -66.301)" fill="#76b900"/>
          <path id="Pfad_7246" data-name="Pfad 7246" d="M75.085,79.182a10.36,10.36,0,0,1-.2-2.614,10.3,10.3,0,0,1,.2-2.6,4.653,4.653,0,0,1,8.883,0,10.322,10.322,0,0,1,.2,2.6,10.385,10.385,0,0,1-.2,2.614,4.413,4.413,0,0,1-4.511,3.269A4.305,4.305,0,0,1,75.085,79.182Zm6.153-.585a8.784,8.784,0,0,0,.158-2.029,9.073,9.073,0,0,0-.158-2.053,1.7,1.7,0,0,0-1.733-1.353,1.678,1.678,0,0,0-1.736,1.42,11.16,11.16,0,0,0-.134,1.986,10.718,10.718,0,0,0,.134,1.959,1.678,1.678,0,0,0,1.736,1.423A1.7,1.7,0,0,0,81.239,78.6Z" transform="translate(23.76 -66.467)" fill="#76b900"/>
          <path id="Pfad_7247" data-name="Pfad 7247" d="M82.511,76.236v8.837H79.739V76.236H78.478V73.8h1.261v-.947a3.219,3.219,0,0,1,3.339-3.54,4.3,4.3,0,0,1,2.434.631l-.883,2.233a2.049,2.049,0,0,0-1.145-.292.977.977,0,0,0-.972,1.1V73.8h2.233v2.434Z" transform="translate(31.121 -69.315)" fill="#76b900"/>
          <path id="Pfad_7248" data-name="Pfad 7248" d="M85.248,84.378H82.363V82.754a13.757,13.757,0,0,1,.7-3.921l3.177-9.178h3.4l3.156,9.2a13.5,13.5,0,0,1,.7,3.9v1.624h-2.86V82.754a9.435,9.435,0,0,0-.137-1.508H85.382a9.772,9.772,0,0,0-.134,1.508ZM87.907,72.7l-1.828,5.949h3.674Z" transform="translate(39.07 -68.619)" fill="#76b900"/>
          <path id="Pfad_7249" data-name="Pfad 7249" d="M89.486,81.683v4.8H86.714V70.954h2.321l.137.9a3.614,3.614,0,0,1,2.839-1.148A3.865,3.865,0,0,1,95.889,74a11.317,11.317,0,0,1,.2,2.571,12.082,12.082,0,0,1-.2,2.659,3.982,3.982,0,0,1-4.058,3.223A3.518,3.518,0,0,1,89.486,81.683Zm.091-6.967a11.146,11.146,0,0,0-.091,1.852,10.336,10.336,0,0,0,.091,1.8,1.842,1.842,0,0,0,3.652,0,10.4,10.4,0,0,0,.11-1.8,11.255,11.255,0,0,0-.11-1.852,1.846,1.846,0,0,0-3.652,0Z" transform="translate(47.974 -66.467)" fill="#76b900"/>
          <path id="Pfad_7250" data-name="Pfad 7250" d="M93.342,81.683v4.8H90.57V70.954h2.318l.137.9a3.619,3.619,0,0,1,2.839-1.148A3.863,3.863,0,0,1,99.742,74a11.29,11.29,0,0,1,.2,2.571,12.053,12.053,0,0,1-.2,2.659,3.98,3.98,0,0,1-4.058,3.223A3.5,3.5,0,0,1,93.342,81.683Zm.088-6.967a11.525,11.525,0,0,0-.088,1.852,10.687,10.687,0,0,0,.088,1.8,1.842,1.842,0,0,0,3.652,0,10.071,10.071,0,0,0,.113-1.8,10.9,10.9,0,0,0-.113-1.852,1.846,1.846,0,0,0-3.652,0Z" transform="translate(55.864 -66.467)" fill="#76b900"/>
          <path id="Pfad_7251" data-name="Pfad 7251" d="M97.362,82.08a.972.972,0,0,0,.9.408,2.388,2.388,0,0,0,.725-.113v2.5a6.66,6.66,0,0,1-1.243.116A3.086,3.086,0,0,1,94.7,83.253a4.655,4.655,0,0,1-.292-1.712V69.389h2.8V81.474A1.105,1.105,0,0,0,97.362,82.08Z" transform="translate(63.722 -69.164)" fill="#76b900"/>
          <path id="Pfad_7252" data-name="Pfad 7252" d="M96.371,70.984a1.714,1.714,0,0,1,3.427,0,1.714,1.714,0,1,1-3.427,0Zm.338,14.089V73.8H99.5V85.073Z" transform="translate(67.734 -69.315)" fill="#76b900"/>
          <path id="Pfad_7253" data-name="Pfad 7253" d="M106.879,73.973a7.761,7.761,0,0,1,.155,1.919c0,.493,0,1.078-.018,1.758h-6.068a3.781,3.781,0,0,0,.07.765,1.689,1.689,0,0,0,1.8,1.535,2.414,2.414,0,0,0,2.3-1.334l1.8,1.739a4.79,4.79,0,0,1-4.146,2.1,4.227,4.227,0,0,1-4.4-3.269,10.361,10.361,0,0,1-.2-2.614,10.3,10.3,0,0,1,.2-2.6,4.152,4.152,0,0,1,4.307-3.266A4.064,4.064,0,0,1,106.879,73.973Zm-5.861.679a3.721,3.721,0,0,0-.07.789h3.339a5.012,5.012,0,0,0-.046-.789,1.616,1.616,0,0,0-3.223,0Z" transform="translate(71.428 -66.467)" fill="#76b900"/>
          <path id="Pfad_7254" data-name="Pfad 7254" d="M108.629,84.042a3.688,3.688,0,0,1-2.8,1.106,3.928,3.928,0,0,1-3.924-3.293,11.35,11.35,0,0,1-.2-2.589,12.018,12.018,0,0,1,.2-2.659,3.949,3.949,0,0,1,4.036-3.2,3.666,3.666,0,0,1,2.367.743V69.389h2.775V84.922h-2.324Zm-.43-2.976a8.977,8.977,0,0,0,.113-1.825,9.13,9.13,0,0,0-.113-1.828,1.789,1.789,0,0,0-1.825-1.575,1.748,1.748,0,0,0-1.8,1.575,18.287,18.287,0,0,0,0,3.652,1.767,1.767,0,0,0,1.8,1.6A1.808,1.808,0,0,0,108.2,81.065Z" transform="translate(78.649 -69.164)" fill="#76b900"/>
          <path id="Pfad_7255" data-name="Pfad 7255" d="M106.945,81.8l2.23-1.828a3.091,3.091,0,0,0,2.818,2.1c1.06,0,1.691-.539,1.691-1.487a2.012,2.012,0,0,0-1.42-1.712l-1.557-.7c-2.117-.969-3.089-2.23-3.089-4.195a4.238,4.238,0,0,1,4.487-4.393c2.434,0,4.53,1.328,4.53,4.713,0,.2,0,.4-.018.631h-2.888a5.844,5.844,0,0,0,.021-.609c0-1.286-.472-2.1-1.691-2.1a1.441,1.441,0,0,0-1.578,1.557,1.864,1.864,0,0,0,1.31,1.8l1.87.88c2.117.99,2.955,2.276,2.955,3.945,0,2.726-1.852,4.35-4.85,4.35A5.228,5.228,0,0,1,106.945,81.8Z" transform="translate(89.372 -68.769)" fill="#76b900"/>
          <path id="Pfad_7256" data-name="Pfad 7256" d="M111,79.182a10.058,10.058,0,0,1-.225-2.614A10.506,10.506,0,0,1,111,73.927a4.066,4.066,0,0,1,4.24-3.22c2.163,0,3.674.923,4.122,3.019a7.284,7.284,0,0,1,.137,1.465v.338h-2.729v-.18a6.233,6.233,0,0,0-.021-.7,1.476,1.476,0,0,0-1.578-1.49c-.969,0-1.4.588-1.557,1.554a14.957,14.957,0,0,0-.067,1.852,12.818,12.818,0,0,0,.067,1.733c.183.993.7,1.648,1.761,1.648a2.472,2.472,0,0,0,2.209-1.511l1.849,1.782a4.611,4.611,0,0,1-4.1,2.23A4.1,4.1,0,0,1,111,79.182Z" transform="translate(97.215 -66.467)" fill="#76b900"/>
          <path id="Pfad_7257" data-name="Pfad 7257" d="M114.2,70.984a1.714,1.714,0,0,1,3.427,0,1.714,1.714,0,1,1-3.427,0Zm.338,14.089V73.8h2.793V85.073Z" transform="translate(104.226 -69.315)" fill="#76b900"/>
          <path id="Pfad_7258" data-name="Pfad 7258" d="M124.712,73.973a7.761,7.761,0,0,1,.155,1.919c0,.493,0,1.078-.018,1.758h-6.068a3.781,3.781,0,0,0,.07.765,1.689,1.689,0,0,0,1.8,1.535,2.414,2.414,0,0,0,2.3-1.334l1.8,1.739a4.79,4.79,0,0,1-4.146,2.1,4.227,4.227,0,0,1-4.4-3.269,10.361,10.361,0,0,1-.2-2.614,10.3,10.3,0,0,1,.2-2.6,4.152,4.152,0,0,1,4.307-3.266A4.064,4.064,0,0,1,124.712,73.973Zm-5.861.679a3.721,3.721,0,0,0-.07.789h3.339a5.012,5.012,0,0,0-.046-.789,1.616,1.616,0,0,0-3.223,0Z" transform="translate(107.919 -66.467)" fill="#76b900"/>
          <path id="Pfad_7259" data-name="Pfad 7259" d="M122.444,82.225h-2.772V70.954h2.367l.137,1.014a3.064,3.064,0,0,1,2.589-1.261,3.544,3.544,0,0,1,3.7,3.85v7.667h-2.8v-7.3a1.471,1.471,0,0,0-1.6-1.669,1.54,1.54,0,0,0-1.624,1.669Z" transform="translate(115.415 -66.467)" fill="#76b900"/>
          <path id="Pfad_7260" data-name="Pfad 7260" d="M123.531,79.182a10.2,10.2,0,0,1-.225-2.614,10.653,10.653,0,0,1,.225-2.641,4.068,4.068,0,0,1,4.24-3.22c2.163,0,3.674.923,4.122,3.019a7.069,7.069,0,0,1,.137,1.465v.338H129.3v-.18a5.457,5.457,0,0,0-.024-.7,1.476,1.476,0,0,0-1.578-1.49c-.969,0-1.4.588-1.554,1.554a14.309,14.309,0,0,0-.07,1.852,12.264,12.264,0,0,0,.07,1.733c.18.993.7,1.648,1.758,1.648a2.472,2.472,0,0,0,2.209-1.511l1.849,1.782a4.611,4.611,0,0,1-4.1,2.23A4.1,4.1,0,0,1,123.531,79.182Z" transform="translate(122.851 -66.467)" fill="#76b900"/>
          <path id="Pfad_7261" data-name="Pfad 7261" d="M135.449,73.973a7.745,7.745,0,0,1,.158,1.919c0,.493,0,1.078-.021,1.758h-6.065a3.8,3.8,0,0,0,.067.765,1.691,1.691,0,0,0,1.8,1.535,2.418,2.418,0,0,0,2.3-1.334l1.8,1.739a4.8,4.8,0,0,1-4.149,2.1,4.227,4.227,0,0,1-4.4-3.269,10.361,10.361,0,0,1-.2-2.614,10.3,10.3,0,0,1,.2-2.6,4.152,4.152,0,0,1,4.307-3.266A4.064,4.064,0,0,1,135.449,73.973Zm-5.861.679a3.746,3.746,0,0,0-.067.789h3.336a5.167,5.167,0,0,0-.043-.789,1.618,1.618,0,0,0-3.226,0Z" transform="translate(129.89 -66.467)" fill="#76b900"/>
          <path id="Pfad_7262" data-name="Pfad 7262" d="M135.589,75.709c1.624.612,2.818,1.261,2.818,3.384,0,1.959-1.6,3.357-3.945,3.357a4.423,4.423,0,0,1-4.3-2.388l1.983-1.648a2.675,2.675,0,0,0,2.364,1.535c.588,0,1.063-.25,1.063-.792,0-.631-.384-.789-1.353-1.148l-.88-.314c-2.074-.768-2.751-1.782-2.751-3.518a3.6,3.6,0,0,1,3.9-3.47c2.7,0,3.875,1.4,3.875,3.515a4.635,4.635,0,0,1-.021.542h-2.772a1.937,1.937,0,0,0,.021-.338c0-1.039-.588-1.264-1.148-1.264a1,1,0,0,0-1.084.993c0,.585.475.9,1.4,1.24Z" transform="translate(136.872 -66.467)" fill="#76b900"/>
        </g>
      </g>
      <g id="Gruppe_3616" data-name="Gruppe 3616" transform="translate(21.254 10.637)">
        <path id="Pfad_7263" data-name="Pfad 7263" d="M79.718,15.952h16.19V48.333H79.718V15.952Z" transform="translate(98.38 0.239)" fill="#76b900"/>
        <path id="Pfad_7264" data-name="Pfad 7264" d="M101.224,26.582v16.19H85.033V26.582Z" transform="translate(109.255 21.991)" fill="#76b900"/>
        <path id="Pfad_7265" data-name="Pfad 7265" d="M42.514,10.637H58.7V26.828H74.9V43.019H58.7V59.21H74.9V75.4H58.7A16.19,16.19,0,0,1,42.514,59.21c.061.006,0-48.573,0-48.573Z" transform="translate(22.25 -10.637)" fill="#76b900"/>
        <path id="Pfad_7266" data-name="Pfad 7266" d="M58.458,15.952H74.649V48.334H90.84V15.952h16.191V48.334h16.191V64.525H74.649A16.192,16.192,0,0,1,58.458,48.334V15.952Z" transform="translate(54.875 0.239)" fill="#76b900"/>
        <path id="Pfad_7267" data-name="Pfad 7267" d="M37.444,21.267V53.648H21.254V21.267Z" transform="translate(-21.254 11.115)" fill="#76b900"/>
        <path id="Pfad_7268" data-name="Pfad 7268" d="M37.444,10.637V26.829H21.254V10.637Z" transform="translate(-21.254 -10.637)" fill="#76b900"/>
        <path id="Pfad_7269" data-name="Pfad 7269" d="M26.566,15.954l16.191,0a16.2,16.2,0,0,1,16.2,16.194V64.527H42.766V32.145H26.575l-.009-16.191Z" transform="translate(-10.384 0.237)" fill="#76b900"/>
      </g>
    </g>
  </g>
</svg>
