<?xml version="1.0" encoding="utf-8"?>
<!-- Generator: Adobe Illustrator 26.0.1, SVG Export Plug-In . SVG Version: 6.00 Build 0)  -->
<svg version="1.1" id="Ebene_1" xmlns="http://www.w3.org/2000/svg" xmlns:xlink="http://www.w3.org/1999/xlink" x="0px" y="0px"
	 viewBox="0 0 154.1 154.1" style="enable-background:new 0 0 154.1 154.1;" xml:space="preserve">
<style type="text/css">
	.st0{fill:#76B900;}
</style>
<path d="M42.5,77.1h1.2v2.5h1.9v-2.5h1.2v6.2h-1.2v-2.6h-1.9v2.6h-1.2V77.1z"/>
<path d="M48,82c0-0.3-0.1-0.6-0.1-1.1s0.1-0.8,0.1-1.1c0.3-1,1.5-1.6,2.5-1.3c0.6,0.2,1.1,0.7,1.3,1.3c0,0.3,0.1,0.6,0.1,1.1
	s-0.1,0.8-0.1,1.1c-0.3,1-1.5,1.6-2.5,1.3C48.7,83,48.2,82.6,48,82z M50.6,81.8c0.1-0.6,0.1-1.2,0-1.8c-0.1-0.3-0.4-0.5-0.7-0.5
	c-0.4,0-0.7,0.2-0.7,0.6c-0.1,0.5-0.1,1.1,0,1.6c0,0.4,0.3,0.6,0.7,0.6C50.2,82.3,50.5,82.1,50.6,81.8z"/>
<path d="M52.9,82c-0.1-0.4-0.1-0.7-0.1-1.1c0-0.4,0-0.7,0.1-1.1c0.2-0.8,0.9-1.4,1.8-1.4c0.8-0.1,1.5,0.5,1.7,1.3
	c0,0.2,0.1,0.4,0.1,0.6v0.2h-1.2v-0.3c-0.1-0.3-0.3-0.6-0.7-0.6c-0.3-0.1-0.5,0.1-0.6,0.4c0,0.1,0,0.2,0,0.2
	c-0.1,0.3-0.1,0.5-0.1,0.8c0,0.3,0,0.6,0.1,0.7c0.1,0.1,0.3,0.7,0.7,0.7c0.4,0.1,0.8-0.2,0.9-0.6l0.8,0.7c-0.5,0.9-1.7,1.3-2.6,0.8
	C53.4,83,53,82.5,52.9,82L52.9,82z"/>
<path d="M58.6,83.2h-1.2v-6.6h1.2v2.1c0.3-0.3,0.6-0.4,1-0.4c0.8,0,1.5,0.7,1.5,1.5c0,0.1,0,0.1,0,0.2v3.2H60v-3.1
	c0-0.4-0.3-0.7-0.7-0.7s-0.7,0.3-0.7,0.7l0,0V83.2z"/>
<path d="M64.3,80.5c0.7,0.3,1.2,0.6,1.2,1.5c0,0.8-0.8,1.5-1.6,1.4c0,0-0.1,0-0.1,0c-0.7,0-1.4-0.3-1.8-1l0.8-0.7
	c0.2,0.4,0.6,0.6,1,0.6c0.3,0,0.5-0.1,0.5-0.3c0-0.2-0.2-0.3-0.6-0.5h-0.4c-0.7-0.2-1.1-0.8-1.1-1.5c0.1-0.8,0.8-1.5,1.6-1.5
	c1.2,0,1.7,0.6,1.7,1.5s0,0.2-0.1,0.2h-1.1c0-0.3-0.2-0.5-0.5-0.5c-0.2,0-0.5,0.2-0.5,0.4c0,0.2,0.2,0.4,0.6,0.5L64.3,80.5z"/>
<path d="M66.5,82c-0.1-0.4-0.1-0.7-0.1-1.1c0-0.4,0-0.7,0.1-1.1c0.2-0.8,0.9-1.4,1.8-1.4c0.8-0.1,1.5,0.5,1.7,1.3
	c0,0.2,0.1,0.4,0.1,0.6v0.2h-1.2v-0.3c-0.1-0.3-0.3-0.6-0.7-0.6c-0.3-0.1-0.5,0.1-0.6,0.4c0,0.1,0,0.2,0,0.2v1.4
	c0.1,0.5,0.3,0.7,0.7,0.7c0.4,0,0.8-0.2,1-0.6l0.7,0.7c-0.5,0.9-1.7,1.3-2.6,0.8C67,82.9,66.6,82.4,66.5,82z"/>
<path d="M72.1,83.2H71v-6.6h1.1v2.1c0.3-0.2,0.6-0.4,1-0.4c0.9,0,1.6,0.7,1.6,1.6c0,0,0,0.1,0,0.1v3.2h-1.2v-3.1
	c0.1-0.3-0.2-0.6-0.5-0.7c-0.1,0-0.1,0-0.2,0c-0.4,0-0.7,0.3-0.7,0.7L72.1,83.2z"/>
<path d="M78.5,82.8c-0.3,0.4-0.7,0.6-1.1,0.6c-0.9,0-1.6-0.7-1.6-1.6c0,0,0-0.1,0-0.1v-3.2H77v3.1c-0.1,0.3,0.2,0.6,0.5,0.7
	c0.1,0,0.1,0,0.2,0c0.4,0,0.7-0.3,0.7-0.7v-3.1h1.1v4.8h-1L78.5,82.8z"/>
<path d="M82,82.1c0,0.1,0.2,0.2,0.4,0.2h0.3v1.1h-0.6c-0.5,0-1-0.2-1.2-0.7c-0.1-0.2-0.2-0.5-0.2-0.7v-5.3h1.2v5.1
	C81.9,81.9,81.9,82,82,82.1z"/>
<path d="M86.9,79.8C87,80,87,80.3,87,80.6v0.8h-2.6c0,0.1,0.1,0.2,0.1,0.3c0.1,0.3,0.3,0.6,0.7,0.6c0.4,0,0.8-0.2,1-0.5l0.8,0.7
	c-0.4,0.6-1.1,0.9-1.8,0.9c-0.9,0-1.6-0.6-1.8-1.4c-0.1-0.4-0.1-0.7-0.1-1.1c0-0.4,0-0.7,0.1-1.1c0.2-0.8,0.9-1.4,1.8-1.4
	C86,78.3,86.8,78.9,86.9,79.8z M84.5,80.1c0,0.1-0.1,0.2-0.1,0.3h1.5c0-0.2-0.1-0.2-0.1-0.3c0.1-0.3-0.1-0.5-0.4-0.6
	c-0.1,0-0.2,0-0.2,0C84.7,79.5,84.5,79.7,84.5,80.1z"/>
<path d="M91.6,79.6v3.7h-1.2v-3.7h-0.5v-1.1h0.5v-0.4c-0.1-0.8,0.5-1.4,1.3-1.5c0,0,0.1,0,0.1,0c0.4,0,0.7,0.1,1,0.3l-0.4,1
	c-0.1-0.1-0.2-0.2-0.4-0.2c-0.3,0-0.4,0.2-0.4,0.5v0.3h0.9v1.1H91.6z"/>
<path d="M96,82.8c-0.3,0.4-0.7,0.6-1.1,0.6c-1,0-1.5-0.7-1.5-1.7v-3.2h1.1v3.1c-0.1,0.3,0.2,0.6,0.5,0.7c0.1,0,0.1,0,0.2,0
	c0.4,0,0.7-0.3,0.7-0.7v-3.1h1.2v4.8h-1L96,82.8z M93.6,77.3c0-0.4,0.3-0.7,0.7-0.7c0.4,0,0.7,0.3,0.7,0.7c0,0.4-0.3,0.7-0.7,0.7
	C93.9,78.1,93.6,77.7,93.6,77.3z M95.5,77.3c0-0.4,0.2-0.7,0.6-0.7c0.4,0,0.7,0.3,0.7,0.7c0,0.4-0.3,0.7-0.7,0.7
	C95.8,78,95.5,77.7,95.5,77.3z"/>
<path d="M99.5,83.2h-1.2v-4.8h1V79c0.2-0.4,0.6-0.6,1-0.6h0.4v1.2h-0.6c-0.3-0.1-0.6,0.2-0.7,0.5c0,0.1,0,0.1,0,0.2L99.5,83.2z"/>
<path d="M104.4,78.2h-1.5v-1.1h4.2v1.1h-1.5v5.1h-1.2V78.2z"/>
<path d="M110.8,79.8c0.1,0.3,0.1,0.5,0.1,0.8v0.8h-2.6c0,0.1,0,0.2,0.1,0.3c0,0.4,0.3,0.6,0.7,0.6c0.4,0,0.8-0.2,1-0.5l0.7,0.7
	c-0.4,0.6-1,0.9-1.7,0.9c-0.9,0-1.7-0.5-1.9-1.4v-2.2c0.2-0.9,1-1.4,1.9-1.4C109.9,78.3,110.7,78.9,110.8,79.8z M108.4,80.1
	c-0.1,0.1-0.1,0.2-0.1,0.3h1.4v-0.3c0-0.4-0.3-0.6-0.7-0.6c-0.3-0.1-0.5,0.1-0.6,0.4C108.4,79.9,108.4,80,108.4,80.1z"/>
<path d="M111.9,82c-0.1-0.4-0.1-0.7-0.1-1.1c0-0.4,0-0.7,0.1-1.1c0.2-0.8,0.9-1.4,1.8-1.4c0.8-0.1,1.5,0.5,1.7,1.3
	c0.1,0.2,0.1,0.4,0.1,0.6v0.2h-1.2v-0.3c0-0.3-0.3-0.6-0.6-0.6c-0.5,0-0.6,0.2-0.7,0.6v1.4c0.1,0.5,0.3,0.7,0.7,0.7
	c0.4,0,0.8-0.2,1-0.6l0.7,0.7c-0.5,0.9-1.7,1.3-2.6,0.8C112.4,82.9,112,82.4,111.9,82z"/>
<path d="M117.6,83.2h-1.2v-6.6h1.2v2.1c0.3-0.3,0.6-0.4,1-0.4c0.9,0,1.6,0.7,1.6,1.6c0,0,0,0.1,0,0.1v3.2H119v-3.1
	c0-0.4-0.3-0.7-0.7-0.7c-0.4,0-0.7,0.3-0.7,0.7l0,0V83.2z"/>
<path d="M122.5,83.2h-1.2v-4.8h1V79c0.2-0.4,0.6-0.6,1.1-0.6c0.8,0,1.5,0.7,1.5,1.5c0,0.1,0,0.1,0,0.2v3.2h-1.1v-3.1
	c0-0.4-0.3-0.7-0.7-0.7c-0.4,0-0.7,0.3-0.7,0.7l0,0L122.5,83.2z"/>
<path d="M126.1,77.2c0.1-0.4,0.4-0.7,0.8-0.7c0.4,0,0.7,0.3,0.7,0.7c0,0.4-0.3,0.7-0.7,0.8C126.5,78.1,126.1,77.7,126.1,77.2
	C126.1,77.2,126.1,77.2,126.1,77.2z M126.3,83.2v-4.8h1.2v4.8H126.3z"/>
<path d="M129.9,81.3v1.9h-1.2v-6.6h1.2v3.7h0.1c0.9,0,1.2-0.8,1.2-1.6v-0.3h1.2v0.4c0,0.9-0.3,1.7-1,2.2l1.4,2.2h-1.4l-1.1-1.9
	C130.3,81.4,129.9,81.4,129.9,81.3z"/>
<path d="M45.1,92.6c-0.3,0.4-0.7,0.6-1.1,0.6c-0.9,0-1.6-0.7-1.6-1.6c0,0,0-0.1,0-0.1v-3.2h1.2v3.1c-0.1,0.3,0.2,0.6,0.5,0.7
	c0.1,0,0.1,0,0.2,0c0.4,0,0.7-0.3,0.7-0.7l0,0v-3.1h1.1v4.8h-1L45.1,92.6z"/>
<path d="M48.5,93.1h-1.2v-4.8h1v0.5c0.2-0.4,0.6-0.6,1.1-0.6c0.9,0,1.6,0.7,1.6,1.6c0,0,0,0.1,0,0.1v3.2h-1.1V90
	c0-0.4-0.3-0.7-0.7-0.7s-0.7,0.3-0.7,0.7V93.1z"/>
<path d="M55,92.7c-0.3,0.3-0.7,0.5-1.2,0.5c-0.8,0-1.6-0.6-1.7-1.4v-2.2c0.2-0.8,0.9-1.4,1.8-1.4c0.3,0,0.7,0.1,1,0.3v-2H56V93h-1
	V92.7z M54.8,91.4c0.1-0.5,0.1-1.1,0-1.6c-0.1-0.4-0.4-0.7-0.8-0.6c0,0,0,0,0,0c-0.4,0-0.7,0.2-0.7,0.6c-0.1,0.5-0.1,1.1,0,1.6
	c0,0.4,0.3,0.6,0.7,0.6C54.4,92.1,54.7,91.8,54.8,91.4C54.8,91.5,54.8,91.5,54.8,91.4z"/>
<path d="M60.1,93.1l-0.9-3.9C59,88.6,59,88.1,59,87.6v-0.7h1.2v0.7c0,0.4,0,0.9,0.1,1.3l0.2,0.9c0.1,0.7,0.2,1.3,0.3,1.7l0,0
	c0-0.4,0.1-0.9,0.3-1.3l0.5-1.9h1l0.5,1.7c0.1,0.5,0.2,1,0.3,1.5l0,0c0.1-0.5,0.2-1.1,0.3-1.6l0.2-1c0-0.4,0.1-1,0.1-1.3v-0.7h1.2
	v0.7c0,0.5-0.1,1.1-0.2,1.6l-0.8,3.9h-1.4l-0.5-2c-0.1-0.4-0.2-0.8-0.2-1.2H62c0,0.4-0.1,0.8-0.2,1.2l-0.5,2H60.1z"/>
<path d="M66.1,87.1c0-0.4,0.3-0.7,0.7-0.7c0.4,0,0.7,0.3,0.7,0.7l0,0c0,0.4-0.3,0.7-0.7,0.7C66.4,87.8,66.1,87.4,66.1,87.1z
	 M66.2,93.1v-4.8h1.2v4.8H66.2z"/>
<path d="M69.8,93.1h-1.2v-4.8h1v0.5c0.2-0.4,0.6-0.6,1-0.6H71v1.1h-0.6c-0.3-0.1-0.6,0.2-0.7,0.5c0,0.1,0,0.1,0,0.2L69.8,93.1z"/>
<path d="M73.5,93.2c-0.8,0-1.4-0.6-1.4-1.4c0,0,0-0.1,0-0.1v-2.3h-0.6v-1.1h0.6V87h1.2v1.3h1.1v1.1h-1.1v2.2c0,0.3,0.1,0.5,0.4,0.5
	c0.2,0,0.4-0.1,0.5-0.2l0.3,1C74.2,93.1,73.9,93.2,73.5,93.2z"/>
<path d="M77.3,90.2c0.7,0.3,1.2,0.6,1.2,1.5c0,0.8-0.8,1.5-1.6,1.4c0,0-0.1,0-0.1,0c-0.7,0-1.4-0.3-1.8-1l0.8-0.7
	c0.3,0.4,0.5,0.6,1,0.6s0.5-0.1,0.5-0.3c0-0.2-0.2-0.3-0.6-0.5h-0.4c-0.7-0.1-1.2-0.8-1.1-1.5c0.1-0.8,0.8-1.5,1.6-1.5
	c0.8-0.1,1.5,0.4,1.6,1.2c0,0.1,0,0.2,0,0.3V90h-1.1c0-0.3-0.2-0.5-0.5-0.5c-0.2,0-0.5,0.2-0.5,0.4c0,0.2,0.2,0.4,0.6,0.5L77.3,90.2
	z"/>
<path d="M79.5,91.8c-0.1-0.7-0.1-1.5,0-2.2c0.1-0.8,0.9-1.4,1.7-1.4c0.9-0.1,1.6,0.5,1.8,1.3v0.8h-1.1V90c-0.1-0.3-0.3-0.6-0.7-0.6
	c-0.3-0.1-0.5,0.1-0.6,0.4c0,0.1,0,0.2,0,0.2c-0.1,0.3-0.1,0.5-0.1,0.8c0,0.3,0,0.6,0.1,0.7c-0.1,0.3,0.2,0.6,0.5,0.7
	c0.1,0,0.1,0,0.2,0c0.4,0,0.8-0.2,0.9-0.6l0.8,0.7c-0.5,0.9-1.7,1.3-2.6,0.8c-0.5-0.2-0.8-0.7-0.9-1.2L79.5,91.8z"/>
<path d="M85.1,93.1H84v-6.6h1.1v2.1c0.3-0.3,0.6-0.4,1-0.4c0.9,0,1.6,0.7,1.6,1.6c0,0,0,0.1,0,0.1v3.2h-1.2V90
	c0.1-0.3-0.2-0.6-0.5-0.7c-0.1,0-0.1,0-0.2,0c-0.4,0-0.7,0.3-0.7,0.7L85.1,93.1z"/>
<path d="M90.2,93.1h-0.7c-0.6-0.1-0.9-0.6-0.9-1.3c0-0.6,0.3-1.1,0.9-1.3h0.8l0.7,0.2v-0.6c0-0.3-0.3-0.6-0.6-0.6
	c-0.4,0-0.7,0.2-0.8,0.6l-0.9-0.6c0.3-0.7,1-1.1,1.7-1.1c0.9-0.1,1.7,0.7,1.8,1.6c0,0,0,0,0,0v3.3h-1V93H91
	C90.8,93.1,90.5,93.1,90.2,93.1z M90.8,92.1c0.2,0,0.3-0.2,0.3-0.4c0-0.2-0.1-0.4-0.3-0.4H90c-0.2,0-0.3,0.2-0.3,0.4
	c0,0.2,0.1,0.4,0.3,0.4C90,92.1,90.8,92.1,90.8,92.1z"/>
<path d="M94.8,89.3v3.7h-1.2v-3.7h-0.5v-1.1h0.5v-0.4c-0.1-0.8,0.5-1.4,1.3-1.5c0,0,0.1,0,0.1,0c0.4,0,0.7,0.1,1,0.3l-0.3,1
	l-0.5-0.2c-0.3,0-0.4,0.2-0.4,0.5v0.3h0.9v1.1H94.8z"/>
<path d="M98.1,93.2c-0.7,0-1.3-0.6-1.3-1.3c0-0.1,0-0.1,0-0.2v-2.3h-0.6v-1.1h0.6V87h1.1v1.3h1.2v1.1h-1.2v2.2
	c0,0.2,0.2,0.5,0.4,0.5c0.2,0,0.4,0,0.5-0.2l0.4,1C98.9,93.1,98.5,93.2,98.1,93.2z"/>
<path d="M102.1,93.1v-6.2h2c1-0.1,1.8,0.7,1.9,1.7c0,0,0,0.1,0,0.1c0,0.5-0.3,1-0.7,1.3c0.5,0.3,0.8,0.8,0.8,1.3
	c0,1-0.8,1.8-1.8,1.8c0,0-0.1,0-0.1,0L102.1,93.1z M103.3,88v1.5h0.7c0.4,0,0.8-0.4,0.8-0.8c0,0,0,0,0,0c-0.1-0.4-0.4-0.7-0.8-0.7
	H103.3z M103.3,90.5V92h0.9c0.4,0,0.6-0.3,0.6-0.8s-0.2-0.7-0.6-0.7H103.3z"/>
<path d="M110.6,89.6v1.6h-2.5v0.3c0.1,0.4,0.4,0.7,0.8,0.6c0,0,0,0,0,0c0.4,0,0.7-0.2,0.9-0.5l0.8,0.7c-0.4,0.6-1.1,0.9-1.8,0.9
	c-0.9,0-1.6-0.6-1.8-1.4c-0.1-0.7-0.1-1.5,0-2.2c0.3-1,1.4-1.5,2.4-1.2C110,88.5,110.4,89,110.6,89.6z M108.1,89.8v0.3h1.4v-0.3
	c0-0.4-0.3-0.7-0.7-0.7C108.4,89.2,108.1,89.5,108.1,89.8z"/>
<path d="M112.8,93.1h-1.1v-4.8h1v0.5c0.2-0.4,0.6-0.6,1-0.6h0.4v1.1h-0.6c-0.3-0.1-0.6,0.2-0.7,0.5c0,0.1,0,0.1,0,0.2L112.8,93.1z"
	/>
<path d="M116.2,91.8c0,0.1,0.2,0.2,0.3,0.2h0.3v1.1h-0.5c-0.5,0-1-0.2-1.3-0.7c0-0.2-0.1-0.5-0.1-0.7v-5.3h1.2v5.1
	C116.1,91.7,116.1,91.8,116.2,91.8z"/>
<path d="M117.5,87.1c0-0.4,0.3-0.7,0.7-0.7c0.4-0.2,0.9,0.1,1,0.5c0.2,0.4-0.1,0.9-0.5,1c-0.2,0.1-0.4,0.1-0.6,0
	C117.8,87.8,117.5,87.5,117.5,87.1z M117.7,93.1v-4.8h1.1v4.8H117.7z"/>
<path d="M121.2,93.1h-1.1v-4.8h1v0.5c0.3-0.4,0.7-0.6,1.1-0.6c0.9,0,1.6,0.7,1.6,1.6c0,0,0,0.1,0,0.1v3.2h-1.2V90
	c0.1-0.3-0.2-0.6-0.5-0.7c-0.1,0-0.1,0-0.2,0c-0.4,0-0.7,0.3-0.7,0.7L121.2,93.1z"/>
<path class="st0" d="M45.1,104.2H46v2.5c0,0.5,0,0.9-0.1,1.4c-0.3,0.6-0.9,1.1-1.6,1c-0.7,0.1-1.4-0.3-1.6-1
	c-0.2-0.3-0.2-0.6-0.2-1.4v-2.5h0.9v2.5c0,0.6,0,0.8,0.1,0.9c0.1,0.4,0.4,0.6,0.8,0.6c0.4,0,0.7-0.2,0.8-0.6
	C45.1,107.7,45.1,104.2,45.1,104.2z"/>
<path class="st0" d="M47.9,109.1H47v-3.7h0.8v0.3c0.2-0.3,0.6-0.4,0.9-0.4c0.7,0,1.2,0.5,1.2,1.2c0,0,0,0.1,0,0.1v2.5H49v-2.4
	c0.1-0.3-0.1-0.5-0.4-0.6c-0.1,0-0.2,0-0.2,0c-0.3,0-0.5,0.2-0.5,0.6V109.1z"/>
<path class="st0" d="M50.6,104.5c0-0.3,0.3-0.6,0.6-0.6c0.3,0,0.6,0.3,0.6,0.6l0,0c0,0.3-0.3,0.6-0.6,0.6
	C50.9,105.1,50.6,104.8,50.6,104.5z M50.8,109.1v-3.7h0.9v3.7H50.8z"/>
<path class="st0" d="M53.5,109.1l-0.9-2c-0.1-0.4-0.2-0.8-0.2-1.2v-0.5h0.9v0.5c0,0.3,0.1,0.7,0.2,1c0.2,0.5,0.3,0.9,0.4,1.4H54
	c0.1-0.5,0.2-0.9,0.4-1.4c0.1-0.3,0.2-0.7,0.2-1v-0.5h0.9v0.5c0,0.4-0.1,0.8-0.2,1.2c-0.3,0.7-0.6,1.4-0.9,2H53.5z"/>
<path class="st0" d="M58.9,106.4c0.1,0.2,0.1,0.4,0.1,0.6v0.6h-2v0.2c0.1,0.4,0.3,0.5,0.6,0.5c0.3,0,0.6-0.1,0.8-0.4l0.5,0.6
	c-0.3,0.4-0.8,0.7-1.3,0.7c-0.7,0-1.3-0.4-1.5-1.1v-1.7c0.1-0.7,0.8-1.2,1.5-1.1C58.2,105.2,58.8,105.7,58.9,106.4z M57,106.6v0.3
	h1.1v-0.3c-0.1-0.3-0.2-0.5-0.6-0.5S57.1,106.2,57,106.6z"/>
<path class="st0" d="M60.6,109.1h-0.9v-3.7h0.8v0.4c0-0.3,0.4-0.6,0.7-0.5c0,0,0,0,0,0h0.4v0.9h-0.5c-0.3,0-0.6,0.2-0.6,0.5
	L60.6,109.1z"/>
<path class="st0" d="M63.8,106.9c0.5,0.1,0.9,0.6,0.9,1.2c-0.1,0.7-0.6,1.2-1.3,1.1c0,0,0,0,0,0c-0.6,0.1-1.1-0.3-1.4-0.8l0.6-0.6
	c0.2,0.3,0.5,0.5,0.8,0.5c0.2,0,0.3,0,0.3-0.2s-0.1-0.3-0.4-0.4H63c-0.7-0.3-0.9-0.6-0.9-1.2c0.1-0.7,0.6-1.2,1.3-1.1c0,0,0,0,0,0
	c0.6-0.1,1.2,0.3,1.3,0.9c0,0.1,0,0.2,0,0.3h-0.9c0-0.2-0.2-0.4-0.4-0.4h0c-0.3,0-0.4,0.2-0.4,0.3s0.2,0.3,0.5,0.4H63.8z"/>
<path class="st0" d="M65.3,104.5c0-0.3,0.3-0.6,0.6-0.6c0.3,0,0.6,0.3,0.6,0.6c0,0.3-0.3,0.6-0.6,0.6
	C65.6,105,65.3,104.8,65.3,104.5z M65.4,109.1v-3.7h1v3.7H65.4z"/>
<path class="st0" d="M68.5,109.1c-0.5,0.1-1-0.3-1.1-0.9c0-0.1,0-0.1,0-0.2v-1.8H67v-0.8h0.4v-1h0.9v1h0.9v0.8h-0.9v1.8
	c0,0.2,0.2,0.3,0.4,0.3H69l0.3,0.7C69.1,109.1,68.9,109.1,68.5,109.1z"/>
<path class="st0" d="M69.9,110.5v-0.9h0.3c0.2,0,0.4,0,0.5-0.3v-0.3l-0.9-1.9c-0.1-0.4-0.2-0.8-0.2-1.2v-0.5h0.9v0.5
	c0,0.3,0.1,0.6,0.2,0.9c0.2,0.4,0.4,0.9,0.5,1.4l0,0c0.1-0.5,0.3-1,0.5-1.4c0.1-0.3,0.1-0.6,0.1-0.9v-0.5h1v0.5
	c0,0.4-0.1,0.8-0.3,1.2c-0.3,0.9-0.6,1.7-1,2.5c-0.1,0.5-0.6,0.9-1.2,0.9H69.9z"/>
<path class="st0" d="M74.9,108.1v-1.7c0.2-0.6,0.8-1.1,1.5-1.1c0.7,0,1.3,0.4,1.5,1.1v1.7c-0.2,0.6-0.8,1.1-1.5,1.1
	C75.7,109.2,75.1,108.7,74.9,108.1z M77,107.9v-1.3c0-0.3-0.3-0.6-0.6-0.6c-0.3,0-0.6,0.3-0.6,0.6v1.3c0,0.3,0.3,0.6,0.6,0.6
	C76.7,108.4,77,108.2,77,107.9z"/>
<path class="st0" d="M79.8,106.2v2.9h-0.9v-2.9h-0.4v-0.8h0.4V105c-0.1-0.6,0.4-1.1,1-1.2c0,0,0.1,0,0.1,0c0.3,0,0.6,0.1,0.8,0.2
	l-0.3,0.8h-0.4c-0.2,0-0.3,0.1-0.3,0.3v0v0.3h0.7v0.8L79.8,106.2z"/>
<path class="st0" d="M83.3,109.1h-0.9v-0.5c0-0.4,0.1-0.9,0.2-1.3l1-3h1.2l1,3c0.1,0.4,0.2,0.9,0.2,1.3v0.5h-0.9v-0.5
	c0-0.2,0-0.4-0.1-0.5h-1.6c-0.1,0.1-0.1,0.3-0.1,0.5V109.1z M84.2,105.2l-0.6,1.9h1.2L84.2,105.2z"/>
<path class="st0" d="M87.6,108.9v1.6h-0.9v-5.1h0.8v0.3c0.3-0.3,0.6-0.4,1-0.4c0.6,0,1.1,0.5,1.2,1.1c0.1,0.3,0.1,0.5,0.1,0.8
	c0,0.3,0,0.6-0.1,0.9c-0.1,0.6-0.7,1.1-1.3,1.1C88.1,109.2,87.8,109.1,87.6,108.9z M87.7,106.6c-0.1,0.2-0.1,0.4-0.1,0.6
	c0,0.3,0,0.5,0.1,0.6s0.2,0.5,0.6,0.5c0.3,0,0.6-0.2,0.6-0.5v-1.2c0-0.3-0.3-0.5-0.6-0.5C87.9,106.1,87.7,106.2,87.7,106.6z"/>
<path class="st0" d="M91.5,108.9v1.6h-0.9v-5.1h0.7v0.3c0.2-0.2,0.6-0.4,0.9-0.4c0.6,0,1.2,0.5,1.3,1.1v1.7
	c-0.2,0.6-0.7,1.1-1.4,1.1C91.9,109.1,91.7,109,91.5,108.9z M91.5,106.6v1.2c0,0.3,0.3,0.6,0.6,0.6c0.3,0,0.6-0.3,0.6-0.6v-1.2
	c0-0.3-0.3-0.6-0.6-0.6C91.8,106,91.5,106.2,91.5,106.6z"/>
<path class="st0" d="M95.4,108.2h0.5v0.8h-0.4c-0.4,0-0.8-0.2-1-0.6c-0.1-0.1-0.1-0.3-0.1-0.5v-4h0.9L95.4,108.2L95.4,108.2z"/>
<path class="st0" d="M96.4,104.5c0-0.3,0.2-0.6,0.5-0.6c0.3,0,0.6,0.3,0.6,0.6c0,0.3-0.3,0.5-0.6,0.5
	C96.6,105,96.4,104.7,96.4,104.5z M96.5,109.1v-3.7h0.9v3.7H96.5z"/>
<path class="st0" d="M101,106.4c0.1,0.2,0.1,0.4,0.1,0.6v0.6h-2v0.2c0.1,0.4,0.3,0.5,0.6,0.5c0.3,0,0.6-0.1,0.8-0.4l0.5,0.6
	c-0.3,0.4-0.8,0.7-1.3,0.7c-0.7,0-1.3-0.4-1.5-1.1v-1.7c0.1-0.7,0.8-1.2,1.5-1.1C100.3,105.2,100.9,105.7,101,106.4z M99.1,106.6
	v0.3h1.1v-0.3c-0.1-0.3-0.2-0.5-0.6-0.5S99.2,106.2,99.1,106.6z"/>
<path class="st0" d="M104,108.8c-0.2,0.2-0.6,0.4-0.9,0.4c-0.6,0-1.2-0.5-1.3-1.1c-0.1-0.3-0.1-0.6-0.1-0.9c0-0.3,0-0.5,0.1-0.8
	c0.1-0.7,0.6-1.2,1.3-1.1c0,0,0,0,0,0c0.3,0,0.6,0.1,0.8,0.3V104h0.9v5.1H104V108.8z M103.8,107.8c0.1-0.1,0.1-0.3,0.1-0.6
	c0-0.2,0-0.4-0.1-0.6c0-0.3-0.2-0.5-0.6-0.5c-0.3,0-0.6,0.2-0.6,0.5v1.2c0,0.3,0.3,0.5,0.6,0.5C103.6,108.2,103.8,108.1,103.8,107.8
	z"/>
<path class="st0" d="M106.9,108.2l0.8-0.6c0.1,0.4,0.5,0.7,0.9,0.7c0.3,0,0.6-0.2,0.6-0.5c0-0.3-0.3-0.5-0.5-0.6l-0.5-0.2
	c-0.8-0.1-1.3-0.8-1.2-1.6c0.1-0.8,0.8-1.3,1.6-1.2l0,0c0.8-0.1,1.4,0.5,1.5,1.3c0,0.1,0,0.1,0,0.2v0.2h-0.9v-0.2
	c0-0.4-0.2-0.7-0.6-0.7s-0.5,0.2-0.5,0.6c0,0.2,0.2,0.5,0.4,0.5l0.6,0.3c0.7,0.4,1,0.8,1,1.3c0.1,0.8-0.5,1.4-1.3,1.5
	c-0.1,0-0.2,0-0.3,0C107.8,109.1,107.2,108.8,106.9,108.2z"/>
<path class="st0" d="M110.9,108.1c-0.1-0.3-0.1-0.6-0.1-0.9c0-0.3,0-0.5,0.1-0.8c0.1-0.7,0.6-1.2,1.3-1.1c0,0,0,0,0,0
	c0.7-0.1,1.3,0.3,1.4,1c0,0,0,0,0,0v0.5h-0.9v-0.2c0-0.3-0.2-0.5-0.5-0.5c-0.3,0-0.4,0.2-0.5,0.5v1.2c0.1,0.3,0.2,0.5,0.6,0.5
	c0.3,0,0.6-0.2,0.7-0.5l0.6,0.6c-0.3,0.5-0.8,0.8-1.3,0.8C111.6,109.2,111,108.7,110.9,108.1z"/>
<path class="st0" d="M114.2,104.5c0-0.3,0.3-0.6,0.6-0.6c0.3,0,0.5,0.3,0.5,0.6c0,0.3-0.2,0.5-0.5,0.5
	C114.4,105,114.2,104.8,114.2,104.5z M114.3,109.1v-3.7h0.9v3.7H114.3z"/>
<path class="st0" d="M118.9,106.4v1.2h-2v0.2c0.1,0.4,0.3,0.5,0.6,0.5c0.3,0.1,0.7-0.1,0.8-0.4l0.6,0.6c-0.3,0.5-0.8,0.7-1.4,0.7
	c-0.7,0.1-1.3-0.4-1.4-1.1c-0.1-0.3-0.1-0.6-0.1-0.9c0-0.3,0-0.5,0.1-0.8c0.1-0.7,0.7-1.2,1.4-1.1
	C118.2,105.3,118.7,105.7,118.9,106.4z M116.9,106.6v0.3h1.1v-0.3c0-0.3-0.2-0.5-0.5-0.5C117.1,106.1,117,106.2,116.9,106.6z"/>
<path class="st0" d="M120.6,109.1h-0.9v-3.7h0.7v0.3c0.2-0.3,0.5-0.4,0.8-0.4c0.7-0.1,1.2,0.4,1.3,1.1c0,0.1,0,0.1,0,0.2v2.5h-1
	v-2.4c0-0.4-0.1-0.6-0.5-0.6s-0.5,0.2-0.5,0.6L120.6,109.1z"/>
<path class="st0" d="M123.4,108.1c-0.1-0.3-0.1-0.6-0.1-0.9c0-0.3,0-0.5,0.1-0.8c0.1-0.7,0.7-1.2,1.4-1.1c0.6-0.1,1.2,0.3,1.3,0.9
	c0,0,0,0.1,0,0.1c0.1,0.1,0.1,0.3,0.1,0.5h-0.9v-0.2c-0.1-0.3-0.2-0.5-0.6-0.5s-0.4,0.2-0.5,0.5v1.2c0,0.3,0.3,0.5,0.6,0.5
	c0.3,0,0.6-0.2,0.7-0.5l0.6,0.6c-0.2,0.5-0.7,0.8-1.3,0.8C124.1,109.2,123.5,108.7,123.4,108.1z"/>
<path class="st0" d="M129.6,106.4c0,0.2,0.1,0.3,0.1,0.6c0,0.2,0,0.4-0.1,0.6h-1.9v0.2c0,0.4,0.2,0.5,0.6,0.5c0.3,0,0.6-0.1,0.7-0.4
	l0.6,0.6c-0.3,0.4-0.8,0.7-1.3,0.7c-0.7,0-1.3-0.4-1.5-1.1c0-0.3-0.1-0.5-0.1-0.9s0.1-0.6,0.1-0.8c0.1-0.7,0.7-1.1,1.4-1.1
	C128.9,105.2,129.5,105.7,129.6,106.4z M127.7,106.6v0.3h1.1c0-0.1,0-0.2-0.1-0.3c0-0.3-0.2-0.5-0.5-0.5
	C127.9,106.1,127.7,106.3,127.7,106.6z"/>
<path class="st0" d="M131.9,106.9c0.6,0.2,1,0.5,1,1.2c-0.1,0.7-0.6,1.2-1.3,1.1c0,0,0,0,0,0c-0.6,0.1-1.1-0.3-1.4-0.8l0.6-0.6
	c0.2,0.3,0.5,0.5,0.8,0.5c0.2,0,0.3,0,0.3-0.2s-0.1-0.3-0.4-0.4h-0.3c-0.7-0.3-0.9-0.6-0.9-1.2c0.1-0.7,0.6-1.2,1.3-1.1c0,0,0,0,0,0
	c0.6-0.1,1.2,0.3,1.3,0.9c0,0.1,0,0.2,0,0.3h-1c0-0.3-0.2-0.4-0.3-0.4s-0.4,0.2-0.4,0.3s0.2,0.3,0.5,0.4H131.9z"/>
<polygon class="st0" points="79.7,50.5 85,50.5 85,61.2 79.7,61.2 79.7,50.5 "/>
<polygon class="st0" points="90.3,61.2 90.3,66.4 85,66.4 85,61.2 90.3,61.2 "/>
<path class="st0" d="M42.5,45.2h5.3v5.4h5.3v5.3h-5.3v5.3h5.3v5.3h-5.3c-2.9,0-5.3-2.4-5.3-5.3C42.5,61.1,42.5,45.1,42.5,45.2z"/>
<path class="st0" d="M58.5,50.5h5.3v10.6h5.3V50.5h5.3v10.6h5.3v5.3H63.8c-2.9,0-5.3-2.4-5.3-5.3V50.5z"/>
<polygon class="st0" points="26.6,55.8 26.6,66.4 21.3,66.4 21.3,55.8 26.6,55.8 "/>
<polygon class="st0" points="26.6,45.2 26.6,50.5 21.3,50.5 21.3,45.2 26.6,45.2 "/>
<path class="st0" d="M26.6,50.5h5.3c2.9,0,5.3,2.4,5.3,5.3v10.6h-5.3V55.8h-5.3V50.5z"/>
</svg>
