<svg xmlns="http://www.w3.org/2000/svg" xmlns:xlink="http://www.w3.org/1999/xlink" width="500" height="500" viewBox="0 0 500 500">
  <defs>
    <linearGradient id="linear-gradient" x1="0.861" y1="0.892" x2="0.169" y2="0.122" gradientUnits="objectBoundingBox">
      <stop offset="0.001" stop-color="#0867df"/>
      <stop offset="0.454" stop-color="#0668e1"/>
      <stop offset="0.859" stop-color="#0064e0"/>
    </linearGradient>
    <linearGradient id="linear-gradient-2" x1="0.217" y1="0.817" x2="0.971" y2="0.181" gradientUnits="objectBoundingBox">
      <stop offset="0.132" stop-color="#0064df"/>
      <stop offset="0.999" stop-color="#0064e0"/>
    </linearGradient>
    <linearGradient id="linear-gradient-3" x1="0.309" y1="0.891" x2="0.678" y2="0.161" gradientUnits="objectBoundingBox">
      <stop offset="0.015" stop-color="#0072ec"/>
      <stop offset="0.688" stop-color="#0064df"/>
    </linearGradient>
    <linearGradient id="linear-gradient-4" x1="0.465" y1="0.902" x2="0.526" y2="0.157" gradientUnits="objectBoundingBox">
      <stop offset="0.073" stop-color="#007cf6"/>
      <stop offset="0.994" stop-color="#0072ec"/>
    </linearGradient>
    <linearGradient id="linear-gradient-5" x1="0.522" y1="0.712" x2="0.476" y2="0.167" gradientUnits="objectBoundingBox">
      <stop offset="0.073" stop-color="#007ff9"/>
      <stop offset="1" stop-color="#007cf6"/>
    </linearGradient>
    <linearGradient id="linear-gradient-6" x1="0.377" y1="0.117" x2="0.62" y2="0.639" gradientUnits="objectBoundingBox">
      <stop offset="0.073" stop-color="#007ff9"/>
      <stop offset="1" stop-color="#0082fb"/>
    </linearGradient>
    <linearGradient id="linear-gradient-7" x1="0.282" y1="0.689" x2="0.676" y2="0.232" gradientUnits="objectBoundingBox">
      <stop offset="0.28" stop-color="#007ff8"/>
      <stop offset="0.914" stop-color="#0082fb"/>
    </linearGradient>
    <linearGradient id="linear-gradient-8" x1="0.296" y1="0.062" x2="0.748" y2="0.985" gradientUnits="objectBoundingBox">
      <stop offset="0" stop-color="#0082fb"/>
      <stop offset="0.999" stop-color="#0081fa"/>
    </linearGradient>
    <linearGradient id="linear-gradient-9" x1="0.749" y1="0.047" x2="0.249" y2="0.691" gradientUnits="objectBoundingBox">
      <stop offset="0.062" stop-color="#0081fa"/>
      <stop offset="1" stop-color="#0080f9"/>
    </linearGradient>
    <linearGradient id="linear-gradient-10" x1="0.197" y1="0.593" x2="0.67" y2="0.332" gradientUnits="objectBoundingBox">
      <stop offset="0" stop-color="#027af3"/>
      <stop offset="1" stop-color="#0080f9"/>
    </linearGradient>
    <linearGradient id="linear-gradient-11" x1="0.204" y1="0.5" x2="0.821" y2="0.5" gradientUnits="objectBoundingBox">
      <stop offset="0" stop-color="#0377ef"/>
      <stop offset="0.999" stop-color="#0279f1"/>
    </linearGradient>
    <linearGradient id="linear-gradient-12" x1="0.363" y1="0.353" x2="0.816" y2="0.578" gradientUnits="objectBoundingBox">
      <stop offset="0.002" stop-color="#0471e9"/>
      <stop offset="1" stop-color="#0377ef"/>
    </linearGradient>
    <linearGradient id="linear-gradient-13" x1="0.129" y1="0.197" x2="0.876" y2="0.849" gradientUnits="objectBoundingBox">
      <stop offset="0.276" stop-color="#0867df"/>
      <stop offset="1" stop-color="#0471e9"/>
    </linearGradient>
    <clipPath id="clip-Meta">
      <rect width="500" height="500"/>
    </clipPath>
  </defs>
  <g id="Meta" clip-path="url(#clip-Meta)">
    <g id="Ellipse_719" data-name="Ellipse 719" transform="translate(203 195)" fill="#fff" stroke="#707070" stroke-width="1">
      <circle cx="0.5" cy="0.5" r="0.5" stroke="none"/>
      <circle cx="0.5" cy="0.5" fill="none"/>
    </g>
    <g id="Meta_lockup_positive_primary_RGB" data-name="Meta_lockup_positive primary_RGB" transform="translate(13.29 141.725)">
      <g id="Artboard_outline" data-name="Artboard outline" transform="translate(-0.005)">
        <rect id="Rechteck_1197" data-name="Rechteck 1197" width="473.429" height="203.995" transform="translate(0)" fill="none"/>
      </g>
      <g id="Wordmark" transform="translate(191.846 70.183)">
        <g id="Gruppe_3608" data-name="Gruppe 3608">
          <path id="Pfad_7172" data-name="Pfad 7172" d="M2821.41,1032.132H2834.2l21.746,39.336,21.745-39.336H2890.2v64.637h-10.434v-49.539l-19.068,34.3h-9.788l-19.068-34.3v49.539H2821.41Z" transform="translate(-2821.41 -1032.132)" fill="#1c2b33"/>
          <path id="Pfad_7173" data-name="Pfad 7173" d="M3993.919,1308.014a24.8,24.8,0,0,1-12.743-3.209,22.444,22.444,0,0,1-8.564-8.888,26.931,26.931,0,0,1-3.07-13.02,27.927,27.927,0,0,1,3-13.158,22.408,22.408,0,0,1,8.334-8.957,23.19,23.19,0,0,1,12.258-3.232,20.286,20.286,0,0,1,19.483,12.373,32.872,32.872,0,0,1,2.678,13.759v2.862h-35.412a15.31,15.31,0,0,0,4.779,9.3,13.931,13.931,0,0,0,9.626,3.393,21.093,21.093,0,0,0,8.034-1.385,20.444,20.444,0,0,0,6.325-4.2l5.54,6.787A28.9,28.9,0,0,1,3993.919,1308.014Zm7.618-38.344a11.486,11.486,0,0,0-8.587-3.347,11.876,11.876,0,0,0-8.656,3.417,15.974,15.974,0,0,0-4.41,9.188h25.393Q4004.814,1273.017,4001.537,1269.67Z" transform="translate(-3891.471 -1242.223)" fill="#1c2b33"/>
          <path id="Pfad_7174" data-name="Pfad 7174" d="M4696.833,1089.434h-9.6v-8.541h9.6v-14.128H4706.9v14.127h14.589v8.542H4706.9v21.653q0,5.4,1.847,7.71t6.325,2.308a29.74,29.74,0,0,0,3.371-.161q1.385-.161,3.047-.439v8.449a28.519,28.519,0,0,1-3.855.831,30.306,30.306,0,0,1-4.5.323q-16.3,0-16.3-17.821Z" transform="translate(-4560.357 -1064.41)" fill="#1c2b33"/>
          <path id="Pfad_7175" data-name="Pfad 7175" d="M5309.305,1306.86h-9.88v-6.741a17.847,17.847,0,0,1-6.694,5.841,20.2,20.2,0,0,1-9.234,2.055,19.98,19.98,0,0,1-11.289-3.255,22.348,22.348,0,0,1-7.733-8.957,29.077,29.077,0,0,1-2.816-13.043,28.656,28.656,0,0,1,2.862-13.066,22.168,22.168,0,0,1,7.918-8.911,21.1,21.1,0,0,1,11.611-3.232,19.94,19.94,0,0,1,8.864,1.916,17.527,17.527,0,0,1,6.51,5.425v-6.187h9.88Zm-10.065-31.3a13.723,13.723,0,0,0-5.1-6.487,13.954,13.954,0,0,0-8.057-2.377,13.044,13.044,0,0,0-10.295,4.339q-3.833,4.34-3.833,11.727,0,7.434,3.694,11.773a12.47,12.47,0,0,0,10.019,4.34,14.775,14.775,0,0,0,8.31-2.4,13.554,13.554,0,0,0,5.263-6.464Z" transform="translate(-5095.727 -1242.223)" fill="#1c2b33"/>
        </g>
      </g>
      <g id="Symbol" transform="translate(67.993 67.998)">
        <g id="Gruppe_3609" data-name="Gruppe 3609">
          <path id="Pfad_7176" data-name="Pfad 7176" d="M1429.211,1000h-.1l-.134,11.115h.092c7.316,0,12.99,5.768,25.324,26.543l.752,1.265.049.083,6.9-10.359-.048-.08h0q-2.437-3.964-4.683-7.294c-1.736-2.572-3.4-4.87-5.008-6.922C1444.2,1003.961,1437.376,1000,1429.211,1000Z" transform="translate(-1399.808 -1000)" fill="url(#linear-gradient)"/>
          <path id="Pfad_7177" data-name="Pfad 7177" d="M1146.645,1000c-8.205.042-15.459,5.348-20.7,13.467l-.046.071,9.615,5.233.047-.071c3.059-4.605,6.865-7.543,10.947-7.586h.093l.141-11.114Z" transform="translate(-1117.34 -1000)" fill="url(#linear-gradient-2)"/>
          <path id="Pfad_7178" data-name="Pfad 7178" d="M1024.351,1198.054l-.046.071a55.011,55.011,0,0,0-7.395,19.026l-.018.092,10.8,2.549.017-.092a45.236,45.236,0,0,1,6.208-16.341l.047-.071Z" transform="translate(-1015.744 -1184.586)" fill="url(#linear-gradient-3)"/>
          <path id="Pfad_7179" data-name="Pfad 7179" d="M1011.964,1481.452l-10.8-2.548-.018.092a62.881,62.881,0,0,0-1.149,11.838v.1l11.078.991c0-.032,0-.064,0-.1q-.008-.346-.008-.7a53.337,53.337,0,0,1,.884-9.58Z" transform="translate(-999.996 -1446.339)" fill="url(#linear-gradient-4)"/>
          <path id="Pfad_7180" data-name="Pfad 7180" d="M1011.411,1658.9a23.121,23.121,0,0,1-.337-3.456c0-.032,0-.064,0-.1l-11.075-.991v.1a37.666,37.666,0,0,0,.607,6.927l.017.092,10.807-2.486Z" transform="translate(-999.996 -1609.859)" fill="url(#linear-gradient-5)"/>
          <path id="Pfad_7181" data-name="Pfad 7181" d="M1022.254,1726.908a11.248,11.248,0,0,1-2.507-5.641l-.017-.093-10.808,2.486.017.092a22.683,22.683,0,0,0,4.713,10.568l.061.072,8.6-7.415Z" transform="translate(-1008.316 -1672.135)" fill="url(#linear-gradient-6)"/>
          <path id="Pfad_7182" data-name="Pfad 7182" d="M1119.113,1353.361c-6.513,9.99-10.458,16.255-10.458,16.255-8.676,13.6-11.677,16.648-16.507,16.648a6.6,6.6,0,0,1-4.989-2.089l-.064-.069-8.6,7.412.061.072a16.687,16.687,0,0,0,13.171,5.742c8.369,0,14.389-3.946,25.089-22.65,0,0,4.461-7.877,7.529-13.3C1122.443,1358.309,1120.713,1355.652,1119.113,1353.361Z" transform="translate(-1073.155 -1329.333)" fill="#0082fb"/>
          <path id="Pfad_7183" data-name="Pfad 7183" d="M1777.845,1121.48l-.066.07a67.114,67.114,0,0,0-4.948,6.016c1.611,2.052,3.275,4.354,5.011,6.927a52.636,52.636,0,0,1,5.829-7.677l.066-.069Z" transform="translate(-1720.278 -1113.219)" fill="url(#linear-gradient-7)"/>
          <path id="Pfad_7184" data-name="Pfad 7184" d="M1877.288,1007.283c-4.542-4.589-9.958-7.281-15.747-7.281-6.1,0-11.24,3.345-15.872,8.26l-.066.07,5.891,5.266.066-.069c3.051-3.174,6-4.758,9.277-4.758h0c3.523,0,6.822,1.659,9.678,4.566l.067.068,6.773-6.054Z" transform="translate(-1788.103 -1000.002)" fill="#0082fb"/>
          <path id="Pfad_7185" data-name="Pfad 7185" d="M2231.878,1142.83c-.255-14.733-5.41-27.9-13.063-35.683l-.068-.068-6.772,6.055.067.068c5.757,5.914,9.706,16.913,10.065,29.625,0,.032,0,.064,0,.1l9.77,0Z" transform="translate(-2129.563 -1099.798)" fill="url(#linear-gradient-8)"/>
          <path id="Pfad_7186" data-name="Pfad 7186" d="M2348.942,1632.9v-.1l-9.771,0c0,.032,0,.064,0,.1q.024.9.023,1.8a18.253,18.253,0,0,1-1.57,8.29l-.047.09,7.285,7.577.054-.083c2.645-4.081,4.033-9.75,4.033-16.624Q2348.95,1633.419,2348.942,1632.9Z" transform="translate(-2246.625 -1589.768)" fill="url(#linear-gradient-9)"/>
          <path id="Pfad_7187" data-name="Pfad 7187" d="M2284.013,1782.608l-.048.09a6.426,6.426,0,0,1-3.912,3.339l3.322,10.466q.66-.224,1.284-.5.187-.083.37-.171l.211-.1a15.157,15.157,0,0,0,5.553-4.789q.137-.19.271-.385.094-.138.186-.278l.054-.082Z" transform="translate(-2193.012 -1729.392)" fill="url(#linear-gradient-10)"/>
          <path id="Pfad_7188" data-name="Pfad 7188" d="M2160.441,1829.079a7.259,7.259,0,0,1-3.058-.6l-3.4,10.715a18.98,18.98,0,0,0,6.224.947,17.5,17.5,0,0,0,5.761-.918l-3.32-10.463A7.446,7.446,0,0,1,2160.441,1829.079Z" transform="translate(-2075.513 -1772.148)" fill="url(#linear-gradient-11)"/>
          <path id="Pfad_7189" data-name="Pfad 7189" d="M2040.783,1782.344l-.063-.073-7.824,8.138.066.07a19.913,19.913,0,0,0,8.259,5.681l3.4-10.708A10.968,10.968,0,0,1,2040.783,1782.344Z" transform="translate(-1962.661 -1729.078)" fill="url(#linear-gradient-12)"/>
          <path id="Pfad_7190" data-name="Pfad 7190" d="M1836.531,1444.716c-2.347-2.729-5.25-7.273-9.817-14.622l-5.951-9.926-.048-.08h0l-6.906,10.356h0l.049.083,4.217,7.094c4.088,6.84,7.418,11.789,10.631,15.233l.066.07,7.822-8.135Z" transform="translate(-1758.471 -1391.524)" fill="url(#linear-gradient-13)"/>
        </g>
      </g>
    </g>
  </g>
</svg>
