<svg id="Logo" xmlns="http://www.w3.org/2000/svg" viewBox="0 0 1000 1000"><defs><style>.cls-1{font-size:141.45px;font-family:CoolveticaBk-Regular, Coolvetica;}.cls-1,.cls-2,.cls-3{fill:#fb6204;}.cls-2{font-size:42.12px;font-family:Montserrat-Regular, Montserrat;letter-spacing:0.2em;}</style></defs><text class="cls-1" transform="translate(314.69 542.36)"><tspan xml:space="preserve">m[  ]nd</tspan></text><text class="cls-2" transform="translate(733.27 512.38)">studio</text><path class="cls-3" d="M183.32,430.32a24.81,24.81,0,0,0-19.53-24.21l-.06,0h0a24.74,24.74,0,0,0-28.1,15,23.6,23.6,0,0,0-2.89-.18,24.75,24.75,0,0,0-23.58,32.3,36.15,36.15,0,0,0-24.83,28.69l0,.05a1.09,1.09,0,0,0,0,.18,34.51,34.51,0,0,0-.42,5.4,36,36,0,0,0,18.09,31.19A30.67,30.67,0,0,0,97.86,534c0,.69,0,1.37.08,2,0,0,0,0,0,.05v.06a30.66,30.66,0,0,0,22.52,27.44,22.27,22.27,0,0,0,20.77,19,22.33,22.33,0,0,0,25.36,11.16l.09,0a22.37,22.37,0,0,0,16.64-21.61V430.32Zm-27.93,9.78-43.6,12.32,24.3-29.69Zm10.29,106.59-16.13-13.44L181.13,510ZM148.61,532.3l-21.12-27.61,53.35,3.89Zm-3.5-39.55L182,469.63v37.46ZM126.22,503l-9.79-12.8,25.3,3.08Zm55.43-34.72-37,23.15,12.37-49.71Zm.36-1.54-24.16-26.1L182,431.28ZM155.8,441.35l-12.48,50.14L111.12,454ZM142.05,492l-26.51-3.23-4.62-33.05Zm-26.93-1.34,10,13L104.23,516.8Zm28.6,2.93,34.63,13.46-50.26-3.67Zm3.49,39-23,1.3,2.38-28.3ZM146.9,534l-25,27.23,2.19-25.93Zm1.64.16,16.08,13.4-41.33,14.07Zm17,35.3-21.84,10.77,21.62-30.4Zm1.09-20.24,14.85,12.38-14.63,7.21Zm.12-1.61L182,511.3v49ZM182,429.87l-24.4,9.49,6.5-31.82A23.48,23.48,0,0,1,182,429.87Zm-23.44-23a23.85,23.85,0,0,1,4.26.39l-6.52,31.89L136.8,421.6A23.56,23.56,0,0,1,158.56,406.87ZM132.7,422.21q1,0,2,.09l-24.53,30a23.45,23.45,0,0,1,22.49-30.06Zm-23.29,32.27,4.76,34-28.5-6.93A34.83,34.83,0,0,1,109.41,454.48Zm-24.26,33a33.46,33.46,0,0,1,.32-4.61l28.58,7-11.54,27.67A34.66,34.66,0,0,1,85.15,487.51Zm18.17,31.42,22-13.75L122.84,534l-23.63,1.33c0-.45,0-.91,0-1.37A29.29,29.29,0,0,1,103.32,518.93Zm-4,17.73,23.43-1.33-2.26,26.87A29.35,29.35,0,0,1,99.3,536.66Zm22.49,26.83L164.23,549l-22.91,32.21A20.94,20.94,0,0,1,121.79,563.49Zm20.75,18.73,23-11.35.25,21.7a21.35,21.35,0,0,1-4.83.56A20.93,20.93,0,0,1,142.54,582.22ZM182,572.09a21.08,21.08,0,0,1-14.9,20.13l-.25-22L182,562.76v9.33Z"/><path class="cls-3" d="M191.17,571.88a.13.13,0,0,0,0,.06v.15a22.38,22.38,0,0,0,16.65,21.61l.09,0a22.33,22.33,0,0,0,25.36-11.16,22.26,22.26,0,0,0,20.76-19,30.66,30.66,0,0,0,22.52-27.44.11.11,0,0,0,0-.06V536c0-.68.07-1.36.07-2a30.66,30.66,0,0,0-4.06-15.27,35.81,35.81,0,0,0,17.67-36.59.55.55,0,0,0,0-.18s0,0,0-.05a36.15,36.15,0,0,0-24.83-28.69,24.78,24.78,0,0,0-23.59-32.3,23.85,23.85,0,0,0-2.89.18,24.73,24.73,0,0,0-28.09-15h0l-.07,0a24.81,24.81,0,0,0-19.53,24.21Zm47.24-149.15,24.3,29.69-43.6-12.32Zm-45,87.26L225,533.25l-16.13,13.44Zm.29-1.41L247,504.69,225.88,532.3Zm-1.16-1.49V469.63l36.89,23.12Zm40.27-13.78,25.31-3.08L248.28,503Zm-15.32-51.56,12.37,49.71-37-23.15Zm-24.95-10.47,24.15,9.39-24.15,26.1ZM263.37,454l-32.2,37.51-12.48-50.14Zm.21,1.77L259,488.8,232.44,492Zm6.68,61L249.4,503.73l10-13Zm-23.85-13.39-50.26,3.67,34.62-13.46Zm1.54,2.22,2.38,28.3-23-1.3Zm2.49,29.63,2.19,25.93L227.6,534Zm.77,26.33-41.33-14.07L226,534.12Zm-42-11.8,21.62,30.4L209,569.42Zm-1.53,19L193,561.56l14.85-12.38Zm-15.17-8.47v-49l15.27,36.27Zm17.9-152.76,6.51,31.82-24.4-9.49A23.47,23.47,0,0,1,210.39,407.54ZM237.7,421.6l-19.5,17.55-6.52-31.89a23.82,23.82,0,0,1,4.25-.39A23.57,23.57,0,0,1,237.7,421.6Zm27.54,24.06a23.13,23.13,0,0,1-1,6.61l-24.53-30q1-.09,2-.09A23.48,23.48,0,0,1,265.24,445.66Zm23.58,35.93-28.49,6.93,4.76-34A34.8,34.8,0,0,1,288.82,481.59ZM272,517.52l-11.54-27.67,28.59-7a35.11,35.11,0,0,1,.31,4.61A34.64,34.64,0,0,1,272,517.52ZM275.32,534c0,.46,0,.92,0,1.37L251.66,534l-2.43-28.83,22,13.75A29.29,29.29,0,0,1,275.32,534ZM254,562.2l-2.26-26.87,23.42,1.33A29.33,29.33,0,0,1,254,562.2Zm-20.85,19L210.27,549l42.44,14.45A21,21,0,0,1,233.18,581.25Zm-19.66,11.88a21.26,21.26,0,0,1-4.82-.56l.25-21.7,23,11.35A21,21,0,0,1,213.52,593.13Zm-21-21.25v-9.12l15.15,7.47-.25,22a21.08,21.08,0,0,1-14.9-20.13Z"/></svg>