<svg xmlns="http://www.w3.org/2000/svg" xmlns:xlink="http://www.w3.org/1999/xlink" width="500" height="500" viewBox="0 0 500 500"><defs><clipPath id="b"><rect width="500" height="500"/></clipPath></defs><g id="a" clip-path="url(#b)"><g transform="translate(129.98 129.98)"><path d="M22-6.5H218A28.532,28.532,0,0,1,246.5,22V218A28.532,28.532,0,0,1,218,246.5H22A28.532,28.532,0,0,1-6.5,218V22A28.532,28.532,0,0,1,22-6.5Zm196,240A15.518,15.518,0,0,0,233.5,218V22A15.518,15.518,0,0,0,218,6.5H22A15.518,15.518,0,0,0,6.5,22V218A15.518,15.518,0,0,0,22,233.5Z" transform="translate(0.02 0.02)"/><path d="M37.211,88.335c16.145,0,25.53-8.779,25.53-21.9,0-11.2-6.357-17.457-20.383-20.181L36.1,44.945c-7.568-1.514-11.2-4.036-11.2-9.889,0-6.155,4.642-9.485,12.714-9.485,7.77,0,12.815,3.027,16.448,7.77l7.972-7.064c-5.449-6.963-13.219-10.8-23.814-10.8C23.286,15.48,13.6,23.149,13.6,35.662c0,11.2,6.963,17.558,20.585,20.081l6.256,1.11c8.174,1.615,11,4.743,11,10.192,0,6.761-4.642,11.2-13.623,11.2-7.669,0-13.522-3.128-18.466-9.183L11.48,76.428c5.853,7.265,13.925,11.907,25.731,11.907Zm49.411-1.211v-33.5c0-5.449,4.844-8.375,13.522-8.375h4.339v-10.6h-2.926c-8.375,0-12.916,4.743-14.43,10.091h-.5V34.652h-11V87.124h11Zm52.834,0,18.062-52.472H147.033l-8.174,23.915-5.348,18.365h-.605l-5.348-18.365-7.972-23.915h-10.9L126.54,87.124h12.925Z" transform="translate(36.501 66.985)" fill="#111"/></g></g></svg>