<?xml version="1.0" encoding="utf-8"?>
<!-- Generator: Adobe Illustrator 26.0.1, SVG Export Plug-In . SVG Version: 6.00 Build 0)  -->
<svg version="1.1" id="Ebene_1" xmlns="http://www.w3.org/2000/svg" xmlns:xlink="http://www.w3.org/1999/xlink" x="0px" y="0px"
	 viewBox="0 0 283.5 283.5" style="enable-background:new 0 0 283.5 283.5;" xml:space="preserve">
<style type="text/css">
	.st0{fill:#78B74A;}
	.st1{fill:#FFFFFF;}
	.st2{fill:#231F20;}
</style>
<path class="st0" d="M70.9,212.6c39.2,0,70.9-31.7,70.9-70.9c0-39.2-31.7-70.9-70.9-70.9S0,102.5,0,141.7c0,0,0,0.1,0,0.1
	c0,39.1,31.7,70.8,70.8,70.8C70.8,212.6,70.9,212.6,70.9,212.6L70.9,212.6z"/>
<path class="st1" d="M68.9,145.4c0-2.9-2.2-4.9-5-5.4l-4.8-0.7c-1.6-0.2-2.7-0.9-2.7-2.5c0.1-1.2,0.9-2.3,2-2.7
	c0.7-0.3,1.5-0.4,2.3-0.4c1.2-0.1,2.4,0.3,3.3,1.1c0.7,0.6,1.1,1.5,1.1,2.4h3.3c0-1.4-0.5-2.8-1.4-3.8c-1.6-1.7-3.9-2.6-6.3-2.5
	c-2.1,0-4.2,0.7-5.8,2.2c-1,1.1-1.6,2.4-1.6,3.9c0,3,1.9,4.8,4.8,5.3l4.5,0.6c2,0.2,3,1.3,3,2.8c0,0.8-0.3,1.6-0.9,2.1
	c-1.1,0.8-2.4,1.2-3.7,1.1c-1.2,0.1-2.5-0.2-3.5-0.9c-1-0.7-1.6-1.9-1.6-3.1h-3.3c0,1.7,0.7,3.4,1.9,4.6c1.8,1.5,4.1,2.3,6.4,2.2
	c2.3,0.1,4.6-0.7,6.4-2.2C68.4,148.4,69,146.9,68.9,145.4z M84.6,150.9v-2.8c-1.1,0.2-2.3,0.3-3.4,0.3c-1.8,0-2.6-0.8-2.6-2.7v-11.4
	h5.8v-2.9h-5.8v-5.8l-3.4,0.8v5h-3.8v2.9h3.8v11.8c0,2.7,1.2,5.4,5.5,5.4C82,151.5,83.3,151.3,84.6,150.9z M105.9,151v-2.5h-0.8
	c-0.7,0-1.1-0.2-1.1-1.3v-9.4c0-1.1-0.2-2.1-0.6-3.1c-0.9-2.1-3.1-3.8-6.9-3.8s-4.8,0.7-6.1,2.1c-1.1,1.1-1.7,2.6-1.7,4.2h3.2
	c0-0.9,0.3-1.8,1-2.4c1-0.9,2.3-1.3,3.6-1.2c1.2-0.1,2.3,0.3,3.2,1c0.7,0.8,1.1,1.9,1,3v1.5l-6,0.3c-5.4,0.4-7,3.7-7,6.2
	s2.2,6.1,6.8,6.1c2.5,0.1,4.9-1.1,6.3-3.2h0.1c-0.1,1.5,1.1,2.9,2.6,3c0.1,0,0.1,0,0.2,0C104.5,151.5,105.2,151.3,105.9,151z
	 M100.7,142.8c0.1,1.7-0.6,3.3-1.7,4.5c-1.1,1.1-2.5,1.6-4,1.6c-2.8,0-3.9-1.6-3.9-3.4s2.3-3.4,4.3-3.5l5.3-0.3
	C100.7,141.7,100.7,142.8,100.7,142.8z M121.8,134.7v-3.3h-1.5c-2.5-0.1-4.8,1.3-5.9,3.6l-0.3-3.5h-2.9v19.7h3.3v-8.8
	c0-2.1,0.2-4.8,1.8-6.3c1-1,2.3-1.6,3.7-1.6C120,134.5,121.8,134.7,121.8,134.7z M136.8,150.9v-2.8c-1.1,0.2-2.3,0.3-3.4,0.3
	c-1.9,0-2.7-0.8-2.7-2.7v-11.4h5.9v-2.9h-5.9v-5.8l-3.3,0.8v5h-3.8v2.9h3.8v11.8c0,2.7,1.2,5.4,5.4,5.4
	C134.2,151.5,135.5,151.3,136.8,150.9z"/>
<path class="st2" d="M161.2,145.4c0-2.9-2.3-4.9-5.1-5.4l-4.7-0.7c-1.7-0.2-2.7-0.9-2.7-2.5c0.1-1.2,0.9-2.3,2-2.7
	c0.7-0.3,1.5-0.5,2.3-0.4c1.2-0.1,2.3,0.3,3.2,1.1c0.7,0.6,1.1,1.5,1.2,2.4h3.3c0-1.4-0.5-2.7-1.4-3.8c-3.4-3.2-8.6-3.3-12.1-0.3
	c-1,1.1-1.6,2.4-1.6,3.9c0,3,1.8,4.8,4.8,5.3l4.4,0.6c2.1,0.2,3.1,1.3,3.1,2.8c0,0.8-0.3,1.6-1,2.1c-1,0.8-2.3,1.2-3.6,1.1
	c-1.2,0.1-2.5-0.2-3.5-0.9c-1-0.7-1.6-1.9-1.6-3.1h-3.3c0,1.7,0.7,3.4,1.9,4.6c1.8,1.6,4.1,2.3,6.4,2.2c2.3,0.1,4.6-0.7,6.4-2.2
	C160.6,148.4,161.2,146.9,161.2,145.4L161.2,145.4z M182.9,141.3c0-3.1-0.7-6-2.8-8.1c-3.4-3.1-8.6-3.1-12,0c-2.1,2.1-2.8,5-2.8,8.1
	s0.7,6,2.8,8.1c3.4,3.1,8.6,3.1,12,0C182.2,147.3,182.9,144.4,182.9,141.3z M179.5,141.3c0,2.3-0.4,4.7-1.9,6.1c-2,1.9-5,1.9-7,0
	c-1.5-1.4-1.9-3.8-1.9-6.1s0.4-4.7,1.9-6.1c2-1.9,5-1.9,7,0C179.1,136.6,179.5,139,179.5,141.3z M203.9,144.6h-3.3
	c-0.1,1.1-0.6,2.1-1.3,2.9c-0.9,0.9-2.1,1.3-3.4,1.3c-1.3,0.1-2.5-0.4-3.4-1.3c-1.6-1.3-2-3.8-2-6.2s0.4-4.9,2-6.2
	c0.9-0.8,2.1-1.3,3.4-1.3c1.2,0,2.3,0.4,3.2,1.2c0.8,0.9,1.2,2,1.4,3.1h3.4c-0.2-1.9-1-3.7-2.4-5.1c-1.5-1.4-3.5-2.2-5.6-2.1
	c-2.9-0.1-5.6,1.3-7.2,3.7c-1.2,2-1.7,4.4-1.6,6.7c-0.1,2.3,0.4,4.7,1.6,6.7c1.6,2.4,4.3,3.8,7.2,3.7c2.1,0.1,4.2-0.7,5.7-2.2
	C203,148.3,203.9,146.5,203.9,144.6L203.9,144.6z M213,126.9V123h-3.9v3.9H213z M212.7,151.2v-19.8h-3.3v19.8H212.7z M236.5,151
	v-2.5h-0.8c-0.7,0-1.1-0.2-1.1-1.3v-9.4c0-1.1-0.2-2.1-0.6-3.1c-0.9-2.1-3.1-3.8-6.9-3.8s-4.8,0.7-6.1,2.1c-1.1,1.1-1.7,2.6-1.7,4.2
	h3.2c0-0.9,0.4-1.8,1-2.4c1-0.9,2.3-1.3,3.6-1.2c1.2-0.1,2.3,0.3,3.2,1c0.7,0.8,1.1,1.9,1,3v1.5l-6,0.3c-5.4,0.4-7,3.7-7,6.2
	s2.2,6.1,6.8,6.1c2.5,0.1,4.9-1.1,6.3-3.2h0.1c-0.1,1.6,1.2,2.9,2.8,3c0,0,0.1,0,0.1,0C235.1,151.5,235.8,151.3,236.5,151z
	 M231.3,142.8c0.1,1.7-0.6,3.3-1.7,4.5c-1.1,1.1-2.5,1.6-4,1.6c-2.8,0-3.9-1.6-3.9-3.4c0-1.8,2.3-3.4,4.3-3.5l5.3-0.3L231.3,142.8
	L231.3,142.8z M248.2,151.2v-2.8h-1.4c-1.4,0-1.8-0.7-1.8-2V123h-3.3v23.6c0,3.1,1.2,4.8,4.1,4.8
	C246.6,151.4,247.4,151.4,248.2,151.2z"/>
<path class="st2" d="M174.9,175.6v-6c0-2.1-1.1-3.3-3.1-3.3c-1.1,0-2.1,0.5-2.7,1.4v-5.1h-1.5v13h1.5v-4.2c-0.1-0.8,0-1.6,0.3-2.3
	c0.3-0.8,1.1-1.4,2-1.4c1.4,0,2,0.8,2,2.2v5.7L174.9,175.6z M179.8,164.4v-1.8H178v1.8H179.8z M179.7,175.6v-9.1h-1.6v9.1H179.7z
	 M186,175.6v-1.3h-0.6c-0.7,0-0.9-0.4-0.9-1v-10.7H183v10.9c0,1.5,0.6,2.2,1.9,2.2L186,175.6z M192.9,163.9v-1.3h-1.7
	c-1.3-0.1-2.5,0.9-2.6,2.2c0,0.1,0,0.1,0,0.2v1.6h-1.7v1.3h1.7v7.8h1.5v-7.9h2.7v-1.3h-2.7V165c0-0.7,0.5-1.2,1.2-1.2
	c0,0,0.1,0,0.1,0L192.9,163.9z M201.9,170.7c0.1-1.2-0.3-2.3-1.1-3.2c-0.7-0.8-1.7-1.2-2.8-1.2c-1.4,0-2.7,0.7-3.4,1.9
	c-0.5,0.9-0.7,1.9-0.7,2.9c0,1.2,0.4,2.4,1.1,3.4c0.8,0.9,1.8,1.4,3,1.4c0.8,0,1.7-0.3,2.4-0.7c0.7-0.6,1.2-1.4,1.4-2.3h-1.5
	c-0.2,0.5-0.3,0.8-0.6,1c-0.4,0.4-1.1,0.7-1.7,0.6c-0.6,0-1.2-0.2-1.6-0.6c-0.6-0.6-0.9-1.4-0.9-2.3h6.4L201.9,170.7L201.9,170.7z
	 M200.4,170.3h-4.9c-0.1-1.4,1.1-2.6,2.5-2.7c0,0,0,0,0,0c0.7,0,1.4,0.3,1.8,0.8C200.2,169,200.4,169.6,200.4,170.3L200.4,170.3z
	 M213.5,163.9v-1.3h-1.7c-1.4-0.1-2.6,0.9-2.7,2.3c0,0,0,0.1,0,0.1v1.6h-1.6v1.3h1.6v7.8h1.6v-7.9h2.6v-1.3h-2.6V165
	c0-0.7,0.5-1.2,1.2-1.2c0,0,0.1,0,0.1,0L213.5,163.9z M221,164.9v-1.7h-1.6v1.7H221z M217.8,164.9v-1.7h-1.6v1.7H217.8z
	 M222.2,175.6v-9.1h-1.5v4.8c0.1,0.9-0.2,1.8-0.8,2.5c-0.4,0.4-0.9,0.7-1.5,0.7c-1.4,0-1.9-0.8-1.9-2.2v-5.8h-1.6v6
	c0,2.1,1.1,3.4,3.1,3.4c1.2,0.1,2.2-0.6,2.7-1.7l0.2,1.4H222.2z M230.5,168v-1.5h-0.8c-1.1,0-2.2,0.6-2.7,1.6v-1.6h-1.4v9.1h1.6v-4
	c0-1,0-2.2,0.8-2.9c0.4-0.5,1.1-0.8,1.7-0.8L230.5,168z M244,175.6v-6c0-2.1-1.1-3.3-3.2-3.3c-1.1,0-2.1,0.5-2.7,1.4v-5.1h-1.5v13
	h1.5v-4.2c-0.1-0.8,0-1.6,0.3-2.3c0.3-0.8,1.1-1.4,2-1.4c1.5,0,2,0.8,2,2.2v5.7L244,175.6z M254.5,170.7c0-1.2-0.4-2.3-1.1-3.2
	c-0.7-0.8-1.7-1.2-2.8-1.2c-1.4,0-2.8,0.7-3.5,1.9c-0.5,0.9-0.7,1.9-0.7,2.9c0,1.2,0.4,2.5,1.2,3.4c0.7,0.9,1.8,1.4,3,1.4
	c0.8,0,1.6-0.2,2.3-0.7c0.8-0.5,1.3-1.4,1.4-2.3h-1.5c-0.1,0.4-0.2,0.7-0.5,1c-1,0.8-2.4,0.8-3.4,0c-0.5-0.6-0.9-1.5-0.9-2.3h6.5
	C254.5,171.6,254.5,170.7,254.5,170.7z M252.9,170.3h-4.8c-0.1-1.4,0.9-2.6,2.3-2.7c0.1,0,0.1,0,0.2,0c0.7,0,1.4,0.3,1.8,0.8
	C252.7,169,252.9,169.6,252.9,170.3z M260,175.6v-1.3h-0.6c-0.6,0-0.8-0.4-0.8-1v-10.7H257v10.9c0,1.5,0.6,2.2,1.9,2.2L260,175.6z
	 M267,163.9v-1.3h-1.7c-1.4-0.1-2.6,0.9-2.7,2.3c0,0,0,0.1,0,0.1v1.6H261v1.3h1.6v7.8h1.6v-7.9h2.6v-1.3h-2.6V165
	c-0.1-0.6,0.4-1.1,1-1.2c0.1,0,0.1,0,0.2,0L267,163.9z M276,170.7c0-1.2-0.4-2.3-1.2-3.2c-0.7-0.8-1.7-1.2-2.7-1.2
	c-1.4,0-2.8,0.7-3.5,1.9c-0.5,0.9-0.7,1.9-0.7,2.9c0,1.2,0.4,2.4,1.1,3.4c0.8,0.9,1.9,1.4,3.1,1.4c0.8,0,1.6-0.3,2.3-0.7
	c0.8-0.5,1.3-1.4,1.4-2.3h-1.5c-0.1,0.4-0.2,0.7-0.5,1c-1,0.8-2.4,0.8-3.4,0c-0.6-0.6-0.9-1.4-0.9-2.3h6.5
	C276,171.6,276,170.7,276,170.7z M274.4,170.3h-4.8c-0.1-1.4,0.9-2.6,2.3-2.7c0.1,0,0.1,0,0.2,0c0.7,0,1.4,0.3,1.8,0.8
	C274.2,169,274.4,169.6,274.4,170.3z M283.5,168v-1.5h-0.8c-1.1,0-2.2,0.6-2.7,1.6v-1.6h-1.3v9.1h1.5v-4c-0.1-1,0.2-2.1,0.8-2.9
	c0.4-0.5,1.1-0.8,1.7-0.8L283.5,168z"/>
</svg>
