<svg xmlns="http://www.w3.org/2000/svg" xmlns:xlink="http://www.w3.org/1999/xlink" width="500" height="500" viewBox="0 0 500 500">
  <defs>
    <clipPath id="clip-Startsocial">
      <rect width="500" height="500"/>
    </clipPath>
  </defs>
  <g id="Startsocial" clip-path="url(#clip-Startsocial)">
    <g id="Gruppe_3612" data-name="Gruppe 3612" transform="translate(80 165)">
      <path id="Pfad_7193" data-name="Pfad 7193" d="M85,170A85,85,0,1,0,0,85a85,85,0,0,0,85,85Z" fill="#78b74a"/>
      <path id="Pfad_7194" data-name="Pfad 7194" d="M72.136,78.5c0-3.555-2.666-5.988-6.034-6.549-2.526-.421-4.4-.608-5.707-.8-1.965-.281-3.181-1.123-3.181-3.087A3.549,3.549,0,0,1,59.6,64.886a6.127,6.127,0,0,1,2.76-.468,5.556,5.556,0,0,1,3.883,1.263A4.275,4.275,0,0,1,67.6,68.628h3.976a6.761,6.761,0,0,0-1.684-4.538c-1.59-2.011-4.4-2.994-7.531-2.994a9.644,9.644,0,0,0-6.97,2.62,6.807,6.807,0,0,0-1.965,4.631c0,3.6,2.245,5.8,5.8,6.362,1.637.234,4.3.561,5.333.7,2.432.327,3.7,1.59,3.7,3.368a3.357,3.357,0,0,1-1.169,2.573,6.422,6.422,0,0,1-4.35,1.31,7.506,7.506,0,0,1-4.257-1.076,4.615,4.615,0,0,1-1.918-3.7H52.583a7.65,7.65,0,0,0,2.292,5.426,10.567,10.567,0,0,0,7.672,2.666c3.087,0,5.894-.8,7.718-2.666A6.742,6.742,0,0,0,72.136,78.5Zm18.846,6.549V81.633a29.2,29.2,0,0,1-4.07.421c-2.2,0-3.181-.936-3.181-3.228V65.12h7.017V61.7H83.731v-6.97l-3.976.936V61.7H75.171V65.12h4.584V79.294c0,3.181,1.4,6.409,6.5,6.409a17.135,17.135,0,0,0,4.725-.655Zm25.587.094V82.194a5.761,5.761,0,0,1-1.029.14c-.8,0-1.31-.327-1.31-1.59V69.283a9.065,9.065,0,0,0-.7-3.649c-1.123-2.573-3.742-4.538-8.327-4.538-2.9,0-5.707.842-7.3,2.526a7.012,7.012,0,0,0-2.058,4.959h3.883a3.877,3.877,0,0,1,1.169-2.853,5.865,5.865,0,0,1,4.3-1.4,5.334,5.334,0,0,1,3.883,1.216,4.662,4.662,0,0,1,1.216,3.6v1.731l-7.2.421c-6.455.374-8.42,4.35-8.42,7.391,0,3.649,2.713,7.3,8.139,7.3,3.321,0,6.268-1.5,7.625-3.883h.094a3.366,3.366,0,0,0,3.415,3.6,5.506,5.506,0,0,0,2.62-.561ZM110.3,75.364a7.636,7.636,0,0,1-2.011,5.38,6.666,6.666,0,0,1-4.865,1.918c-3.368,0-4.678-1.965-4.678-4.07,0-2.994,2.807-4.117,5.192-4.257l6.362-.374v1.4Zm25.354-9.777V61.7a12.6,12.6,0,0,0-1.871-.14,7.342,7.342,0,0,0-7.064,4.3l-.327-4.163h-3.508v23.67h3.929V74.85c0-2.479.234-5.754,2.152-7.578a6.5,6.5,0,0,1,4.491-1.871,11.633,11.633,0,0,1,2.2.187Zm17.9,19.46V81.633a29.2,29.2,0,0,1-4.07.421c-2.2,0-3.181-.936-3.181-3.228V65.12h7.017V61.7h-7.017v-6.97l-3.976.936V61.7h-4.584V65.12h4.584V79.294c0,3.181,1.4,6.409,6.5,6.409a17.134,17.134,0,0,0,4.725-.655Z" transform="translate(10.488 10.917)" fill="#fff"/>
      <path id="Pfad_7195" data-name="Pfad 7195" d="M164.4,79.02c0-3.555-2.666-5.988-6.034-6.549-2.526-.421-4.4-.608-5.707-.8-1.965-.281-3.181-1.123-3.181-3.087a3.549,3.549,0,0,1,2.386-3.181,6.127,6.127,0,0,1,2.76-.468,5.556,5.556,0,0,1,3.883,1.263,4.275,4.275,0,0,1,1.357,2.947h3.976a6.761,6.761,0,0,0-1.684-4.538c-1.59-2.011-4.4-2.994-7.531-2.994a9.644,9.644,0,0,0-6.97,2.62,6.807,6.807,0,0,0-1.965,4.631c0,3.6,2.245,5.8,5.8,6.362,1.637.234,4.3.561,5.333.7,2.432.327,3.7,1.59,3.7,3.368a3.357,3.357,0,0,1-1.169,2.573,6.422,6.422,0,0,1-4.35,1.31,7.506,7.506,0,0,1-4.257-1.076,4.615,4.615,0,0,1-1.918-3.7H144.85a7.65,7.65,0,0,0,2.292,5.426,10.567,10.567,0,0,0,7.672,2.666c3.087,0,5.894-.8,7.718-2.666A6.742,6.742,0,0,0,164.4,79.02Zm26.056-4.959c0-3.742-.8-7.157-3.368-9.683a10.66,10.66,0,0,0-14.314,0c-2.573,2.526-3.368,5.941-3.368,9.683s.8,7.157,3.368,9.683a10.66,10.66,0,0,0,14.314,0c2.573-2.526,3.368-5.941,3.368-9.683Zm-4.07,0c0,2.76-.515,5.613-2.2,7.344a6.222,6.222,0,0,1-8.514,0c-1.684-1.731-2.2-4.584-2.2-7.344s.515-5.613,2.2-7.344a6.222,6.222,0,0,1,8.514,0c1.684,1.731,2.2,4.584,2.2,7.344Zm29.33,3.883H211.7a5.846,5.846,0,0,1-1.59,3.508,5.532,5.532,0,0,1-4.023,1.59,5.976,5.976,0,0,1-4.117-1.544c-1.871-1.59-2.386-4.538-2.386-7.438s.515-5.847,2.386-7.438a5.976,5.976,0,0,1,4.117-1.544,5.542,5.542,0,0,1,3.836,1.45,5.943,5.943,0,0,1,1.684,3.7h4.023a9.075,9.075,0,0,0-2.807-6.081,9.411,9.411,0,0,0-6.736-2.526,9.815,9.815,0,0,0-8.607,4.444c-1.263,1.871-1.965,4.444-1.965,8s.7,6.128,1.965,8A9.9,9.9,0,0,0,206.13,86.5a9.394,9.394,0,0,0,6.83-2.573,8.9,8.9,0,0,0,2.76-5.988ZM226.572,56.8V52.122h-4.631V56.8Zm-.281,29.1V62.226h-4.07V85.9Zm28.535-.234V82.715a5.761,5.761,0,0,1-1.029.14c-.8,0-1.31-.327-1.31-1.59V69.8a9.065,9.065,0,0,0-.7-3.649c-1.123-2.573-3.742-4.538-8.327-4.538-2.9,0-5.707.842-7.3,2.526A7.011,7.011,0,0,0,234.1,69.1h3.883a3.877,3.877,0,0,1,1.169-2.853,5.865,5.865,0,0,1,4.3-1.4,5.334,5.334,0,0,1,3.883,1.216,4.662,4.662,0,0,1,1.216,3.6v1.731l-7.2.421c-6.455.374-8.42,4.35-8.42,7.391,0,3.649,2.713,7.3,8.139,7.3,3.321,0,6.268-1.5,7.625-3.883h.094a3.366,3.366,0,0,0,3.415,3.6,5.506,5.506,0,0,0,2.62-.561Zm-6.268-9.777a7.636,7.636,0,0,1-2.011,5.38,6.666,6.666,0,0,1-4.865,1.918c-3.368,0-4.678-1.965-4.678-4.07,0-2.994,2.807-4.117,5.192-4.257l6.362-.374v1.4ZM268.765,85.9V82.528a15.33,15.33,0,0,1-1.637.047c-1.637,0-2.152-.842-2.152-2.432V52.122H261V80.376c0,3.742,1.5,5.8,4.959,5.8a10.379,10.379,0,0,0,2.807-.281Z" transform="translate(28.89 10.396)" fill="#231f20"/>
      <path id="Pfad_7196" data-name="Pfad 7196" d="M176.4,107.363v-7.189c0-2.526-1.317-4.016-3.8-4.016a3.714,3.714,0,0,0-3.2,1.727v-6.11h-1.835v15.588H169.4v-5.074a7.2,7.2,0,0,1,.389-2.785,2.676,2.676,0,0,1,2.375-1.684c1.727,0,2.4.972,2.4,2.612v6.93Zm5.851-13.429V91.775h-2.137v2.159Zm-.13,13.429V96.438h-1.878v10.925Zm7.535,0v-1.554a7.08,7.08,0,0,1-.756.022c-.756,0-.993-.389-.993-1.123V91.775h-1.835v13.04c0,1.727.691,2.677,2.289,2.677a4.79,4.79,0,0,0,1.3-.13Zm8.334-14.077V91.753a11.361,11.361,0,0,0-2.029-.194,2.962,2.962,0,0,0-3.174,2.936v1.943H190.8v1.554h1.986v9.37h1.835v-9.37h3.152V96.438h-3.152V94.6a1.423,1.423,0,0,1,1.554-1.49,13.28,13.28,0,0,1,1.814.173ZM208.8,101.4a5.631,5.631,0,0,0-1.382-3.843,4.4,4.4,0,0,0-3.325-1.4,4.678,4.678,0,0,0-4.124,2.289,6.669,6.669,0,0,0-.842,3.5A6.188,6.188,0,0,0,200.49,106a4.657,4.657,0,0,0,3.627,1.641,5.031,5.031,0,0,0,2.785-.82,4.022,4.022,0,0,0,1.684-2.7h-1.792a2.313,2.313,0,0,1-.648,1.187,3.108,3.108,0,0,1-4.037-.065,4.023,4.023,0,0,1-1.058-2.742h7.729l.022-1.1Zm-1.878-.475h-5.829a3.039,3.039,0,0,1,3-3.217,2.592,2.592,0,0,1,2.159.993,3.817,3.817,0,0,1,.669,2.224Zm15.718-7.643V91.753a11.361,11.361,0,0,0-2.029-.194,2.962,2.962,0,0,0-3.174,2.936v1.943h-1.986v1.554h1.986v9.37h1.835v-9.37h3.152V96.438h-3.152V94.6a1.424,1.424,0,0,1,1.554-1.49,13.28,13.28,0,0,1,1.814.173Zm9.025,1.144V92.444H229.68V94.43Zm-3.8,0V92.444H225.88V94.43Zm5.225,12.932V96.438h-1.835v5.678a4.4,4.4,0,0,1-.907,3.023,2.466,2.466,0,0,1-1.814.82c-1.727,0-2.332-.972-2.332-2.612V96.438h-1.835v7.168c0,2.526,1.252,4.016,3.735,4.016a3.551,3.551,0,0,0,3.239-1.922l.151,1.662ZM243,98.23V96.438a5.813,5.813,0,0,0-.864-.065,3.389,3.389,0,0,0-3.26,1.986l-.151-1.922h-1.619v10.925h1.814v-4.858c0-1.144.108-2.656.993-3.5a3,3,0,0,1,2.073-.864A5.368,5.368,0,0,1,243,98.23Zm16.191,9.133v-7.189c0-2.526-1.317-4.016-3.8-4.016a3.714,3.714,0,0,0-3.2,1.727v-6.11h-1.835v15.588H252.2v-5.074a7.2,7.2,0,0,1,.389-2.785,2.676,2.676,0,0,1,2.375-1.684c1.727,0,2.4.972,2.4,2.612v6.93Zm12.652-5.959a5.63,5.63,0,0,0-1.382-3.843,4.4,4.4,0,0,0-3.325-1.4,4.678,4.678,0,0,0-4.124,2.289,6.669,6.669,0,0,0-.842,3.5,6.188,6.188,0,0,0,1.36,4.059,4.657,4.657,0,0,0,3.627,1.641,5.031,5.031,0,0,0,2.785-.82,4.022,4.022,0,0,0,1.684-2.7h-1.792a2.313,2.313,0,0,1-.648,1.187,3.108,3.108,0,0,1-4.037-.065,4.024,4.024,0,0,1-1.058-2.742h7.729l.022-1.1Zm-1.878-.475h-5.829a3.039,3.039,0,0,1,3-3.217,2.592,2.592,0,0,1,2.159.993,3.817,3.817,0,0,1,.669,2.224Zm8.485,6.434v-1.554a7.08,7.08,0,0,1-.756.022c-.756,0-.993-.389-.993-1.123V91.775h-1.835v13.04c0,1.727.691,2.677,2.289,2.677a4.79,4.79,0,0,0,1.3-.13Zm8.334-14.077V91.753a11.361,11.361,0,0,0-2.029-.194,2.962,2.962,0,0,0-3.174,2.936v1.943h-1.986v1.554h1.986v9.37h1.835v-9.37h3.152V96.438h-3.152V94.6a1.423,1.423,0,0,1,1.554-1.49,13.28,13.28,0,0,1,1.814.173ZM297.6,101.4a5.631,5.631,0,0,0-1.382-3.843,4.4,4.4,0,0,0-3.325-1.4,4.677,4.677,0,0,0-4.124,2.289,6.668,6.668,0,0,0-.842,3.5,6.188,6.188,0,0,0,1.36,4.059,4.657,4.657,0,0,0,3.627,1.641,5.031,5.031,0,0,0,2.785-.82,4.022,4.022,0,0,0,1.684-2.7H295.59a2.313,2.313,0,0,1-.648,1.187,3.108,3.108,0,0,1-4.037-.065,4.024,4.024,0,0,1-1.058-2.742h7.729l.022-1.1Zm-1.878-.475H289.89a3.039,3.039,0,0,1,3-3.217,2.592,2.592,0,0,1,2.159.993,3.817,3.817,0,0,1,.669,2.224Zm10.86-2.7V96.438a5.813,5.813,0,0,0-.864-.065,3.389,3.389,0,0,0-3.26,1.986l-.151-1.922h-1.619v10.925H302.5v-4.858c0-1.144.108-2.656.993-3.5a3,3,0,0,1,2.073-.864,5.368,5.368,0,0,1,1.015.086Z" transform="translate(33.421 18.261)" fill="#231f20"/>
    </g>
  </g>
</svg>
