<svg xmlns="http://www.w3.org/2000/svg" xmlns:xlink="http://www.w3.org/1999/xlink" width="500" height="500" viewBox="0 0 500 500">
  <defs>
    <linearGradient id="linear-gradient" x1="-0.317" y1="0.979" x2="-0.317" y2="-0.021" gradientUnits="objectBoundingBox">
      <stop offset="0" stop-color="#da2fb6"/>
      <stop offset="1" stop-color="#fe1876"/>
    </linearGradient>
    <clipPath id="clip-Statamic">
      <rect width="500" height="500"/>
    </clipPath>
  </defs>
  <g id="Statamic" clip-path="url(#clip-Statamic)">
    <g id="Ellipse_719" data-name="Ellipse 719" transform="translate(203 195)" fill="#fff" stroke="#707070" stroke-width="1">
      <circle cx="0.5" cy="0.5" r="0.5" stroke="none"/>
      <circle cx="0.5" cy="0.5" fill="none"/>
    </g>
    <g id="Statamic-Logo-Rad" transform="translate(80.006 113.577)">
      <g id="Gruppe_3607" data-name="Gruppe 3607" transform="translate(-0.005)">
        <path id="Pfad_7171" data-name="Pfad 7171" d="M280.193,272.847c24.868,0,33.986-10.713,33.986-36.927V184.861c0-24.39,11.853-38.294,23.25-44.9a5.334,5.334,0,0,0,0-9.118,52.427,52.427,0,0,1-23.25-44.221V36.471C314.179,8.206,306.406,0,281.584,0H58.405C33.583,0,25.833,8.206,25.833,36.471V86.618A52.427,52.427,0,0,1,2.56,130.839a5.334,5.334,0,0,0,0,9.118c11.4,6.382,23.273,20.287,23.273,44.9V235.92c0,26.213,9.118,36.927,33.963,36.927ZM169.436,226.119c-26.669,0-46.044-7.978-64.075-23.706a12.628,12.628,0,0,1-4.1-9.574,11.648,11.648,0,0,1,2.758-7.978l5.4-7.066a11.4,11.4,0,0,1,9.118-5.015,21.176,21.176,0,0,1,11.4,4.1,75.4,75.4,0,0,0,42.4,12.537c12.537,0,22.566-5.243,22.566-15.956,0-27.809-92.567-12.537-92.567-74.993,0-33.507,27.353-52.2,62.935-52.2a104.078,104.078,0,0,1,57.213,15.956,14.018,14.018,0,0,1,5.7,11.4,12.719,12.719,0,0,1-2.279,7.522l-4.1,6.154a12.765,12.765,0,0,1-10.713,6.154,23.706,23.706,0,0,1-9.6-2.735,71.8,71.8,0,0,0-33.941-7.978c-13.449,0-21.427,7.294-21.427,14.816,0,28.493,92.522,12.993,92.522,73.625C238.708,205.148,211.355,226.119,169.436,226.119Z" transform="translate(0.005)" fill="url(#linear-gradient)"/>
      </g>
    </g>
  </g>
</svg>
