<?xml version="1.0" encoding="utf-8"?>
<!-- Generator: Adobe Illustrator 25.4.1, SVG Export Plug-In . SVG Version: 6.00 Build 0)  -->
<svg version="1.1" id="Ebene_1" xmlns="http://www.w3.org/2000/svg" xmlns:xlink="http://www.w3.org/1999/xlink" x="0px" y="0px"
	 viewBox="0 0 800 800" style="enable-background:new 0 0 800 800;" xml:space="preserve">
<style type="text/css">
	.st0{fill:url(#SVGID_1_);}
	.st1{fill:#FF269E;}
</style>
<linearGradient id="SVGID_1_" gradientUnits="userSpaceOnUse" x1="99.1731" y1="470.1839" x2="150.1117" y2="330.23" gradientTransform="matrix(1 0 0 -1 0 799.79)">
	<stop  offset="0" style="stop-color:#DA2FB6"/>
	<stop  offset="1" style="stop-color:#FE1876"/>
</linearGradient>
<path class="st0" d="M172.9,459.6c10.9,0,14.9-4.7,14.9-16.2V421c0-10.7,5.2-16.8,10.2-19.7c1.5-0.9,1.5-3,0-4
	c-5.2-3.3-10.2-10.2-10.2-19.4v-22c0-12.4-3.4-16-14.3-16H75.6c-10.9,0-14.3,3.6-14.3,16v22c0,9.2-5,16.1-10.2,19.4
	c-1.5,0.9-1.5,3.1,0,4c5,2.8,10.2,8.9,10.2,19.7v22.4c0,11.5,4,16.2,14.9,16.2L172.9,459.6L172.9,459.6z M124.3,439.1
	c-11.7,0-20.2-3.5-28.1-10.4c-1.3-1.2-1.8-2.7-1.8-4.2c0-1.2,0.3-2.5,1.2-3.5l2.4-3.1c1.2-1.5,2.5-2.2,4-2.2c1.7,0,3.3,0.7,5,1.8
	c5.4,3.5,11.4,5.5,18.6,5.5c5.5,0,9.9-2.3,9.9-7c0-12.2-40.6-5.5-40.6-32.9c0-14.7,12-22.9,27.6-22.9c11,0,19.1,3.2,25.1,7
	c1.5,1,2.5,3,2.5,5c0,1.2-0.3,2.3-1,3.3l-1.8,2.7c-1.3,1.8-2.8,2.7-4.7,2.7c-1.3,0-2.7-0.5-4.2-1.2c-4.5-2.3-9.2-3.5-14.9-3.5
	c-5.9,0-9.4,3.2-9.4,6.5c0,12.5,40.6,5.7,40.6,32.3C154.7,429.9,142.7,439.1,124.3,439.1L124.3,439.1z"/>
<path class="st1" d="M242.2,421.3c1-1.3,2.1-1.8,3.4-1.8s2.9,0.6,4.2,1.6c4.5,3,9.6,4.7,15.7,4.7c4.7,0,8.4-1.9,8.4-6
	c0-10.3-34.3-4.7-34.3-27.7c0-12.4,10.2-19.4,23.3-19.4c9.3,0,16.1,2.6,21.2,6c1.3,0.8,2.1,2.5,2.1,4.2c0,1-0.2,1.9-0.8,2.9
	l-1.6,2.3c-1.1,1.6-2.4,2.3-3.9,2.3c-1.1,0-2.3-0.5-3.6-1c-3.8-1.9-7.8-3-12.5-3c-4.9,0-7.9,2.6-7.9,5.5c0,10.5,34.3,4.8,34.3,27.2
	c0,12.5-10.2,20.3-25.7,20.3c-9.9,0-17.1-3-23.7-8.7c-1.1-1-1.6-2.3-1.6-3.6c0-1,0.2-2.1,1-3L242.2,421.3z M340.4,427.9
	c0.5,0.7,0.7,1.6,0.7,2.4c0,1.8-0.8,3.7-2.4,4.5c-4.8,2.9-9.6,4.2-15.9,4.2c-14.3,0-19.7-9.3-19.7-25.6v-51.6c0-2.9,2.4-5.3,5.3-5.3
	h5.7c2.9,0,5.3,2.4,5.3,5.3v12.4h15.3c2.9,0,5.3,2.4,5.3,5.3v4.8c0,2.9-2.4,5.3-5.3,5.3h-15.3v23.2c0,6.9,2.3,11.5,7.6,11.5
	c1.7,0,3.2-0.2,4.5-0.7s2.3-0.7,3.2-0.7c1.8,0,3.2,0.8,4.4,2.9L340.4,427.9L340.4,427.9z M350.3,419.1c0-14,10.3-20.6,23.2-20.6
	c5.6,0,11.2,1.8,14.3,4.1v-1.9c0-9.3-3-14.3-11.8-14.3c-4.8,0-7.9,0.7-10.9,1.7c-0.8,0.2-1.7,0.5-2.5,0.5c-2.1,0-3.8-1-4.8-3
	l-0.8-1.7c-0.2-0.7-0.6-1.4-0.6-2.3c0-1.8,1.3-3.7,3-4.5c5.5-2.5,11.8-4.2,18.3-4.2c18.8,0,25.3,9.6,25.3,26.4v33.4
	c0,2.9-2.4,5.3-5.3,5.3H394c-2.9,0-5.3-2.4-5.3-5.3v-2.1c-3.4,4.8-10.2,8.1-18.8,8.1C358.6,438.6,350.3,431.4,350.3,419.1
	L350.3,419.1z M387.8,412.5c-2.9-2.1-6.5-3.1-11.1-3.1c-5.4,0-10.2,2.5-10.2,7.9c0,4.8,3.9,7.5,9.1,7.5c6.8,0,10.3-3,12.3-5.7
	L387.8,412.5L387.8,412.5z M455.6,427.9c0.5,0.7,0.7,1.6,0.7,2.4c0,1.8-0.8,3.7-2.4,4.5c-4.8,2.9-9.6,4.2-15.9,4.2
	c-14.3,0-19.7-9.3-19.7-25.6v-51.6c0-2.9,2.4-5.3,5.3-5.3h5.7c2.9,0,5.3,2.4,5.3,5.3v12.4h15.3c2.9,0,5.3,2.4,5.3,5.3v4.8
	c0,2.9-2.4,5.3-5.3,5.3h-15.3v23.2c0,6.9,2.3,11.5,7.6,11.5c1.7,0,3.2-0.2,4.5-0.7s2.3-0.7,3.2-0.7c1.8,0,3.2,0.8,4.4,2.9
	L455.6,427.9L455.6,427.9z M465.5,419.1c0-14,10.3-20.6,23.2-20.6c5.6,0,11.2,1.8,14.3,4.1v-1.9c0-9.3-3-14.3-11.8-14.3
	c-4.8,0-7.9,0.7-10.9,1.7c-0.8,0.2-1.7,0.5-2.5,0.5c-2.1,0-3.8-1-4.8-3l-0.8-1.7c-0.2-0.7-0.6-1.4-0.6-2.3c0-1.8,1.3-3.7,3-4.5
	c5.5-2.5,11.8-4.2,18.3-4.2c18.8,0,25.3,9.6,25.3,26.4v33.4c0,2.9-2.4,5.3-5.3,5.3h-3.7c-2.9,0-5.3-2.4-5.3-5.3v-2.1
	c-3.4,4.8-10.2,8.1-18.8,8.1C473.9,438.6,465.5,431.4,465.5,419.1L465.5,419.1z M503,412.5c-2.9-2.1-6.5-3.1-11.1-3.1
	c-5.4,0-10.2,2.5-10.2,7.9c0,4.8,3.9,7.5,9.1,7.5c6.8,0,10.3-3,12.3-5.7L503,412.5L503,412.5z M551.2,381.2c4.5-5,12-8.1,19.8-8.1
	c9.7,0,16.2,4.4,18.5,10.2c4.5-6,11.6-10.2,21.4-10.2c11.6,0,20.3,5.7,20.3,23.2v36.2c0,2.9-2.4,5.3-5.3,5.3h-5.7
	c-2.9,0-5.3-2.4-5.3-5.3v-32.1c0-7.9-3.2-12.2-10.9-12.2c-6.1,0-10.9,3-13.1,7.3c0,1,0.1,3.2,0.1,4.7v32.1c0,2.9-2.4,5.3-5.3,5.3
	H580c-2.9,0-5.3-2.4-5.3-5.3v-33c0-6.7-3.7-11-10.5-11c-5.7,0-10.4,2.5-13.3,6.8v37.4c0,2.9-2.4,5.3-5.3,5.3h-5.7
	c-2.9,0-5.3-2.4-5.3-5.3v-53.1c0-2.9,2.4-5.3,5.3-5.3h5.7c2.9,0,5.3,2.4,5.3,5.3v1.8H551.2L551.2,381.2z M667.9,351.3
	c0,6.5-4.7,10.2-9.3,10.2c-5.5,0-10.2-3.7-10.2-10.2c0-5.7,4.7-9.4,10.2-9.4C663.2,341.9,667.9,345.6,667.9,351.3z M661.1,374.2
	c2.9,0,5.3,2.4,5.3,5.3v53c0,2.9-2.4,5.3-5.3,5.3h-5.7c-2.9,0-5.3-2.4-5.3-5.3v-53.1c0-2.9,2.4-5.3,5.3-5.3h5.7V374.2z M729.1,390.4
	c-3.8-1.8-7.1-2.5-11.2-2.5c-9.1,0-17.7,6.9-17.7,18c0,11.2,8.7,18.2,18.3,18.2c5,0,8.6-1.3,12.3-3.7c1.1-0.7,2.3-1.1,3.4-1.1
	c1.7,0,3.2,0.7,4.4,2.1l2.4,3c0.7,0.7,1,1.8,1,2.9c0,1.7-0.7,3.6-1.9,4.5c-7.6,6.1-14.3,7.5-22.2,7.5c-21,0-34.9-13.3-34.9-33.3
	c0-18.5,13.5-33.3,32.9-33.3c8.5,0,14.7,1.4,20.9,4.8c1.6,0.8,2.5,2.9,2.5,4.7c0,0.8-0.1,1.6-0.6,2.3l-2.1,3.7c-1.1,1.8-2.9,3-4.8,3
	C731,391,730,390.9,729.1,390.4L729.1,390.4z"/>
</svg>
