<svg xmlns="http://www.w3.org/2000/svg" xmlns:xlink="http://www.w3.org/1999/xlink" width="500" height="500" viewBox="0 0 500 500">
  <defs>
    <clipPath id="clip-Überdosis">
      <rect width="500" height="500"/>
    </clipPath>
  </defs>
  <g id="Überdosis" clip-path="url(#clip-Überdosis)">
    <g id="überdosis_logo" transform="translate(79.256 221.621)">
      <path id="Pfad_7270" data-name="Pfad 7270" d="M9.526.759a6.11,6.11,0,0,1,4.5,1.8,5.663,5.663,0,0,1,1.877,4.354,5.9,5.9,0,0,1-1.877,4.429,6.252,6.252,0,0,1-4.5,1.726,6.419,6.419,0,0,1-4.5-1.726,6.02,6.02,0,0,1-1.8-4.429,5.775,5.775,0,0,1,1.8-4.354A6.272,6.272,0,0,1,9.526.759Zm16.438,0a6.11,6.11,0,0,1,4.5,1.8,5.663,5.663,0,0,1,1.877,4.354,5.9,5.9,0,0,1-1.877,4.429,6.252,6.252,0,0,1-4.5,1.726,6.419,6.419,0,0,1-4.5-1.726,6.02,6.02,0,0,1-1.8-4.429,5.775,5.775,0,0,1,1.8-4.354A6.272,6.272,0,0,1,25.964.759Zm8.182,54.719H23.788l-.976-4.8A10.5,10.5,0,0,1,12.979,56.3q-6,0-9.157-3.753Q.744,48.8.744,42.118V17.2H12.979V39.115q0,5.254,3.978,5.254a4.27,4.27,0,0,0,3.528-1.726q1.426-1.726,1.426-5.4V17.2H34.146Z" transform="translate(0 0.411)"/>
      <path id="Pfad_7271" data-name="Pfad 7271" d="M40.133,20.678Q43.51,16.4,50.641,16.4a16.085,16.085,0,0,1,12.535,5.78,20.489,20.489,0,0,1,5.179,14.186,20.489,20.489,0,0,1-5.179,14.186,16.085,16.085,0,0,1-12.535,5.78q-7.581,0-11.409-5.629l-.976,4.8H27.9V.711H40.133Zm7.731,7.206a8.367,8.367,0,0,0-5.555,2.1,7.674,7.674,0,0,0-2.477,5.93v.525a7.978,7.978,0,0,0,2.4,6.23,8.115,8.115,0,0,0,5.63,2.177A7.458,7.458,0,0,0,53.343,42.6a8.419,8.419,0,0,0,2.327-6.23,8.166,8.166,0,0,0-2.327-6.155A7.338,7.338,0,0,0,47.864,27.883Z" transform="translate(15.591 0.383)"/>
      <path id="Pfad_7272" data-name="Pfad 7272" d="M94.187,30.943v3H69.417a6.689,6.689,0,0,0,7.131,6.53q4.729,0,5.78-3.078H94.112Q90.359,50.609,76.248,50.609q-8.782,0-14.186-5.4-5.329-5.479-5.329-14.487,0-8.782,5.4-14.412t14.036-5.629q8.107,0,13.061,5.1T94.187,30.943Zm-24.77-4.429h12.46a6.51,6.51,0,0,0-1.8-4.429A5.507,5.507,0,0,0,75.8,20.36a6.091,6.091,0,0,0-4.5,1.726A6.343,6.343,0,0,0,69.417,26.515Z" transform="translate(32.148 6.105)"/>
      <path id="Pfad_7273" data-name="Pfad 7273" d="M107.579,23.273a13.008,13.008,0,0,0-7.506,1.877Q97.446,26.8,97.221,30.7V49.619H84.986V11.339H95.344l1.2,5.78q2.552-6.155,11.034-6.155Z" transform="translate(48.371 6.27)"/>
      <path id="Pfad_7274" data-name="Pfad 7274" d="M141.985,55.506H131.627l-.976-4.8q-3.828,5.63-11.41,5.629a16.306,16.306,0,0,1-12.609-5.78,20.665,20.665,0,0,1-5.105-14.186,20.665,20.665,0,0,1,5.105-14.186,16.306,16.306,0,0,1,12.609-5.78q7.131,0,10.509,4.278V.711h12.235ZM122.018,27.883a7.578,7.578,0,0,0-5.554,2.327,8.315,8.315,0,0,0-2.253,6.155,8.576,8.576,0,0,0,2.253,6.23,7.706,7.706,0,0,0,5.554,2.252,8.12,8.12,0,0,0,5.631-2.177,7.979,7.979,0,0,0,2.4-6.23v-.525a7.555,7.555,0,0,0-2.552-5.93A8.086,8.086,0,0,0,122.018,27.883Z" transform="translate(57.869 0.383)"/>
      <path id="Pfad_7275" data-name="Pfad 7275" d="M152.1,10.677a20.533,20.533,0,0,1,14.712,5.554,18.849,18.849,0,0,1,5.93,14.412,18.849,18.849,0,0,1-5.93,14.412,22.162,22.162,0,0,1-29.349,0q-5.854-5.555-5.854-14.412t5.854-14.412A20.435,20.435,0,0,1,152.1,10.677Zm5.7,13.586a7.147,7.147,0,0,0-5.629-2.477,7.377,7.377,0,0,0-5.7,2.477,9.2,9.2,0,0,0-2.177,6.305,9.487,9.487,0,0,0,2.177,6.38,7.279,7.279,0,0,0,5.7,2.552,7.056,7.056,0,0,0,5.629-2.552,9.288,9.288,0,0,0,2.251-6.38A9.01,9.01,0,0,0,157.8,24.263Z" transform="translate(75.141 6.105)"/>
      <path id="Pfad_7276" data-name="Pfad 7276" d="M176.311,10.677a16.053,16.053,0,0,1,10.509,3.378,11.462,11.462,0,0,1,4.5,8.782H179.389q-.149-3.153-3.152-3.153t-3,2.627a2.62,2.62,0,0,0,1.275,2.327,13.878,13.878,0,0,0,5.03,1.276q6.756.826,9.607,3.753A10.913,10.913,0,0,1,192,37.624q0,6.681-4.579,9.833a19.159,19.159,0,0,1-11.259,3.152q-7.28,0-11.334-3.3a11.934,11.934,0,0,1-4.353-9.082h11.934a3.4,3.4,0,0,0,1.126,2.552,4.832,4.832,0,0,0,2.928.826q3.377,0,3.378-2.477a2.559,2.559,0,0,0-1.277-2.252q-1.2-.9-4.878-1.426-12.536-1.727-12.535-11.71a12.238,12.238,0,0,1,3.9-9.307Q168.956,10.677,176.311,10.677Z" transform="translate(91.716 6.105)"/>
      <path id="Pfad_7277" data-name="Pfad 7277" d="M186.136,2a7.264,7.264,0,0,1,9.908,0,6.381,6.381,0,0,1,2.1,4.879,6.381,6.381,0,0,1-2.1,4.879,7.264,7.264,0,0,1-9.908,0,6.5,6.5,0,0,1-2.028-4.879A6.5,6.5,0,0,1,186.136,2Zm11.109,53.893H185.01V17.608h12.235Z" transform="translate(105.286)"/>
      <path id="Pfad_7278" data-name="Pfad 7278" d="M212.54,10.677a16.049,16.049,0,0,1,10.508,3.378,11.462,11.462,0,0,1,4.5,8.782H215.617q-.151-3.153-3.153-3.153t-3,2.627a2.62,2.62,0,0,0,1.275,2.327,13.888,13.888,0,0,0,5.03,1.276q6.756.826,9.607,3.753a10.913,10.913,0,0,1,2.852,7.956q0,6.681-4.578,9.833a19.167,19.167,0,0,1-11.26,3.152q-7.28,0-11.334-3.3a11.934,11.934,0,0,1-4.353-9.082h11.934a3.4,3.4,0,0,0,1.126,2.552,4.832,4.832,0,0,0,2.928.826q3.379,0,3.378-2.477a2.556,2.556,0,0,0-1.277-2.252q-1.2-.9-4.878-1.426-12.536-1.727-12.535-11.71a12.238,12.238,0,0,1,3.9-9.307Q205.183,10.677,212.54,10.677Z" transform="translate(112.517 6.105)"/>
    </g>
  </g>
</svg>
