<svg id="Gruppe_3611" data-name="Gruppe 3611" xmlns="http://www.w3.org/2000/svg" xmlns:xlink="http://www.w3.org/1999/xlink" width="340" height="310.529" viewBox="0 0 340 310.529">
  <defs>
    <clipPath id="clip-path">
      <rect id="Rechteck_1198" data-name="Rechteck 1198" width="340" height="310.529" fill="none"/>
    </clipPath>
  </defs>
  <g id="Gruppe_3610" data-name="Gruppe 3610" clip-path="url(#clip-path)">
    <path id="Pfad_7191" data-name="Pfad 7191" d="M163.551,40.707A40.769,40.769,0,0,0,131.438.923c-.033-.012-.069-.026-.105-.036s-.044,0-.067-.007A40.717,40.717,0,0,0,85.082,25.5,40.669,40.669,0,0,0,39.626,65.925a40.622,40.622,0,0,0,1.93,12.384A59.424,59.424,0,0,0,.741,125.483c-.007.026-.021.049-.026.077a1.071,1.071,0,0,0-.025.288A58.064,58.064,0,0,0,0,134.732a59.109,59.109,0,0,0,29.736,51.276A50.381,50.381,0,0,0,23.055,211.1c0,1.136.049,2.262.125,3.383a.715.715,0,0,0,0,.084c0,.033.01.066.013.1a50.387,50.387,0,0,0,37.023,45.1A36.593,36.593,0,0,0,94.352,291a36.745,36.745,0,0,0,41.682,18.355.93.93,0,0,0,.155-.044,36.809,36.809,0,0,0,27.362-35.526l-.007-.255a.756.756,0,0,0,.007-.105ZM117.622,56.794,45.947,77.049,85.9,28.242Zm16.919,175.229-26.518-22.1,51.927-38.228Zm-28.056-23.653-34.73-45.4,87.716,6.39Zm-5.755-65.029,60.658-38v61.575ZM69.672,160.249l-16.1-21.044,41.6,5.068Zm91.119-57.083-60.76,38.062,20.34-81.724Zm.6-2.535-39.714-42.9,39.714-15.445ZM118.306,58.846,97.792,141.278,44.855,79.6ZM95.7,142.159l-43.591-5.31-7.6-54.324Zm-44.271-2.195,16.4,21.437-34.3,21.485Zm47.02,4.809L155.366,166.9l-82.626-6.02Zm5.723,64.133L66.3,211.049l3.919-46.53Zm-.5,2.193L62.526,255.851l3.59-42.627Zm2.7.26L132.8,233.386,64.85,256.517ZM134.3,269.384,98.387,287.089l35.544-49.964Zm1.777-33.265L160.5,256.467l-24.049,11.856Zm.2-2.648,25.111-59.622v80.547Zm25.091-193.5-40.112,15.6L131.951,3.258a38.6,38.6,0,0,1,29.418,36.716M122.844,2.163a38.318,38.318,0,0,1,6.993.648L119.122,55.234,87.065,26.383a38.744,38.744,0,0,1,35.779-24.22M80.335,27.379c1.1,0,2.218.056,3.35.155L43.359,76.8A38.532,38.532,0,0,1,80.335,27.379M42.042,80.434,49.864,136.4,3.017,125.006A57.235,57.235,0,0,1,42.042,80.434M2.16,134.732a56.24,56.24,0,0,1,.523-7.582L49.67,138.574,30.7,184.06A56.95,56.95,0,0,1,2.16,134.732m29.864,51.646,36.086-22.6-3.991,47.395-38.845,2.2c-.035-.751-.056-1.506-.056-2.265a48.242,48.242,0,0,1,6.806-24.725m-6.6,29.147,38.513-2.178-3.72,44.168a48.225,48.225,0,0,1-34.792-41.99m36.964,44.114,69.771-23.75L94.492,288.835a34.421,34.421,0,0,1-32.1-29.2M96.5,290.43l37.83-18.651.411,35.659A34.525,34.525,0,0,1,96.5,290.43m64.888-16.645A34.643,34.643,0,0,1,136.9,306.862l-.416-36.142,24.909-12.28V273.3a1.121,1.121,0,0,0-.007.128Z" transform="translate(0 0.001)" fill="#fb6204"/>
    <path id="Pfad_7192" data-name="Pfad 7192" d="M107.334,273.424c0,.036,0,.071,0,.105l0,.255a36.806,36.806,0,0,0,27.36,35.526,1,1,0,0,0,.156.044A36.742,36.742,0,0,0,176.531,291a36.593,36.593,0,0,0,34.141-31.232,50.389,50.389,0,0,0,37.022-45.1.962.962,0,0,0,.015-.1c0-.028,0-.056,0-.084.074-1.121.123-2.247.123-3.383a50.4,50.4,0,0,0-6.679-25.095,59.115,59.115,0,0,0,29.734-51.276,58.484,58.484,0,0,0-.689-8.884,1.011,1.011,0,0,0-.026-.288c-.007-.028-.018-.051-.026-.077a59.424,59.424,0,0,0-40.814-47.175A40.668,40.668,0,0,0,185.8,25.5,40.708,40.708,0,0,0,139.618.881c-.021,0-.044,0-.066.008a.826.826,0,0,0-.109.033,40.771,40.771,0,0,0-32.109,39.785Zm77.65-245.182,39.953,48.807L153.261,56.793ZM110.933,171.693l51.927,38.23-26.52,22.1Zm.48-2.331,87.716-6.39-34.73,45.4Zm-1.917-2.445V105.342l60.657,38Zm66.211-22.645,41.6-5.068-16.1,21.044ZM150.514,59.506l20.337,81.722-60.757-38.062ZM109.5,42.285l39.713,15.446-39.713,42.9ZM226.028,79.6l-52.937,61.674L152.577,58.847Zm.34,2.923-7.6,54.324-43.591,5.31Zm10.983,100.359-34.3-21.485,16.4-21.437Zm-39.208-22.009-82.628,6.02,56.918-22.124Zm2.523,3.641,3.917,46.53-37.875-2.142Zm4.1,48.705,3.59,42.627L167.21,211.1Zm1.266,43.293-67.952-23.13,26.431-22.027Zm-69.082-19.392,35.542,49.966-35.914-17.707Zm-2.522,31.2-24.048-11.856L134.8,236.118ZM109.5,254.393V173.847L134.6,233.469ZM138.932,3.258l10.694,52.317-40.112-15.6A38.6,38.6,0,0,1,138.932,3.258m44.886,23.124L151.762,55.235,141.046,2.809a38.481,38.481,0,0,1,42.772,23.572M229.1,65.924A38.493,38.493,0,0,1,227.524,76.8L187.2,27.536c1.131-.1,2.252-.158,3.349-.158A38.591,38.591,0,0,1,229.1,65.924m38.772,59.082L221.019,136.4l7.824-55.963a57.238,57.238,0,0,1,39.026,44.572m-27.684,59.054-18.971-45.486L268.2,127.149a56.277,56.277,0,0,1,.521,7.582,56.945,56.945,0,0,1-28.537,49.328m5.483,27.043c0,.759-.021,1.514-.058,2.267l-38.845-2.2-3.99-47.395,36.083,22.6a48.219,48.219,0,0,1,6.809,24.723m-35,46.412-3.719-44.168,38.511,2.178a48.221,48.221,0,0,1-34.792,41.99m-34.276,31.322-37.664-52.948,69.771,23.75a34.429,34.429,0,0,1-32.106,29.2m-32.313,19.532a34.505,34.505,0,0,1-7.935-.93l.411-35.659,37.829,18.651a34.428,34.428,0,0,1-30.3,17.939M109.5,273.424a1.073,1.073,0,0,0-.007-.127V258.439l24.907,12.28-.416,36.142A34.642,34.642,0,0,1,109.5,273.784Z" transform="translate(69.117)" fill="#fb6204"/>
  </g>
</svg>
