<svg xmlns="http://www.w3.org/2000/svg" width="80" height="80" viewBox="0 0 80 80">
  <g id="Gruppe_3074" data-name="Gruppe 3074" transform="translate(-1245 -241)">
    <circle id="Ellipse_189" data-name="Ellipse 189" cx="40" cy="40" r="40" transform="translate(1245 241)" fill="#f6f9ff"/>
    <g id="Gruppe_2835" data-name="Gruppe 2835" transform="translate(963 -2535.346)">
      <rect id="Rechteck_1050" data-name="Rechteck 1050" width="6.278" height="14.125" rx="3.139" transform="translate(327.596 2828.554)" fill="#ff92aa"/>
      <circle id="Ellipse_426" data-name="Ellipse 426" cx="23.432" cy="23.432" r="23.432" transform="translate(301.104 2790.925)" fill="#ff92aa"/>
      <path id="Pfad_5289" data-name="Pfad 5289" d="M558.966,1031.328a23.514,23.514,0,0,0-5.052.546,23.437,23.437,0,0,1,1.324,46.023,23.434,23.434,0,1,0,3.728-46.569Z" transform="translate(-234.28 1759.597)" fill="#fc6681"/>
      <rect id="Rechteck_1051" data-name="Rechteck 1051" width="13.748" height="10.838" rx="5.419" transform="translate(295.785 2811.799)" fill="#ff92aa"/>
      <path id="Pfad_5290" data-name="Pfad 5290" d="M431.762,1244.1H429.5a6.382,6.382,0,0,0,0-10.838h2.261a5.261,5.261,0,0,1,5.264,5.2q0,.036,0,.071,0,.177,0,.35A5.267,5.267,0,0,1,431.762,1244.1Z" transform="translate(-122.727 1578.541)" fill="#fc6681"/>
      <rect id="Rechteck_1052" data-name="Rechteck 1052" width="1.465" height="3.624" rx="0.732" transform="translate(308.219 2807.422)" fill="#6c7fbc"/>
      <rect id="Rechteck_1053" data-name="Rechteck 1053" width="1.465" height="3.624" rx="0.732" transform="translate(303.362 2807.422)" fill="#6c7fbc"/>
      <path id="Pfad_5291" data-name="Pfad 5291" d="M491.633,1056.6a30.712,30.712,0,0,1,15.354-2.459c2.233.255,6.148,1,6.122,1.656-.021.511-2.4.8-3.211.9-4.33.532-5.013-.628-8.43-.3-3.4.325-4.421,1.637-7.376,1.054A9.511,9.511,0,0,1,491.633,1056.6Z" transform="translate(-178.437 1739.288)" fill="#6c7fbc"/>
      <path id="Pfad_5292" data-name="Pfad 5292" d="M531.979,1013.983a6.777,6.777,0,1,0-13.031.657,9.908,9.908,0,0,0,3.86-.367,15.975,15.975,0,0,1,2.8-.989,11.749,11.749,0,0,1,3.306.238C529.738,1013.634,530.777,1013.785,531.979,1013.983Z" transform="translate(-202.61 1782.58)" fill="#fff2cc"/>
      <path id="Pfad_5293" data-name="Pfad 5293" d="M562.018,1006.494a6.967,6.967,0,0,1,5.921,2.409,6.721,6.721,0,0,1,1.254,5.218l1.706.251a6.865,6.865,0,0,0-2.408-6.824A7.215,7.215,0,0,0,562.018,1006.494Z" transform="translate(-241.546 1782.173)" fill="#ffe577"/>
      <path id="Pfad_5294" data-name="Pfad 5294" d="M415.56,1094.978a1.1,1.1,0,0,1-.2-1.54,25.3,25.3,0,0,1,5.543-7.19,1.125,1.125,0,0,1,.729-.417,1.1,1.1,0,0,1,1.011,1.758,17.908,17.908,0,0,0-5.542,7.19A1.249,1.249,0,0,1,415.56,1094.978Z" transform="translate(-109.845 1710.738)" fill="#fff"/>
      <path id="Pfad_5295" data-name="Pfad 5295" d="M366.351,1071.04l2.72,7.191,7.255-8.87-7.588-1.24A2.177,2.177,0,0,0,366.351,1071.04Z" transform="translate(-65.976 1726.634)" fill="#ff92aa"/>
      <path id="Pfad_5296" data-name="Pfad 5296" d="M528.317,1070.647l-1.543,7.532a11.709,11.709,0,0,0-2.451-4.106,11.971,11.971,0,0,0-6.122-3.5l7.294-2.43A2.177,2.177,0,0,1,528.317,1070.647Z" transform="translate(-202.259 1726.689)" fill="#fc6681"/>
      <rect id="Rechteck_1054" data-name="Rechteck 1054" width="1.569" height="5.855" rx="0.785" transform="translate(298.501 2814.37)" fill="#6c7fbc"/>
      <rect id="Rechteck_1055" data-name="Rechteck 1055" width="1.569" height="5.855" rx="0.785" transform="translate(303.391 2814.37)" fill="#6c7fbc"/>
      <rect id="Rechteck_1056" data-name="Rechteck 1056" width="6.278" height="14.125" rx="3.139" transform="translate(310.514 2828.554)" fill="#ff92aa"/>
      <rect id="Rechteck_1057" data-name="Rechteck 1057" width="6.278" height="14.125" rx="3.139" transform="translate(319.628 2828.554)" fill="#ff92aa"/>
      <rect id="Rechteck_1058" data-name="Rechteck 1058" width="6.278" height="16.125" rx="3.139" transform="translate(335.684 2826.554)" fill="#fc6681"/>
      <path id="Pfad_5297" data-name="Pfad 5297" d="M550.729,1033.987a3.21,3.21,0,0,0-3.592-.875,3.873,3.873,0,0,0-1.72,1.419,4.21,4.21,0,0,0-.362,3.561" transform="translate(-226.121 1758.199)" fill="none" stroke="#6c7fbc" stroke-miterlimit="10" stroke-width="1"/>
      <line id="Linie_98" data-name="Linie 98" y1="0.785" x2="4.406" transform="translate(318.934 2793.937)" fill="none" stroke="#6c7fbc" stroke-miterlimit="10" stroke-width="1"/>
    </g>
  </g>
</svg>
