<svg xmlns="http://www.w3.org/2000/svg" width="80" height="81" viewBox="0 0 80 81">
  <g id="Gruppe_3016" data-name="Gruppe 3016" transform="translate(-708 -252)">
    <circle id="Ellipse_184" data-name="Ellipse 184" cx="40" cy="40" r="40" transform="translate(708 253)" fill="#f6f9ff"/>
    <g id="Gruppe_1886" data-name="Gruppe 1886" transform="translate(720.969 274.941)">
      <path id="Pfad_3838" data-name="Pfad 3838" d="M220.918,417.475a.359.359,0,0,0-.254.439l9.79,36.745a.359.359,0,0,0,.439.254l27.732-7.389a.359.359,0,0,0,.254-.439l-9.79-36.745a.359.359,0,0,0-.439-.254Z" transform="translate(-220.652 -410.074)" fill="#c6d0fe"/>
      <path id="Pfad_3839" data-name="Pfad 3839" d="M239.525,439a.89.89,0,0,0-.438,1.143c.141.528.566.875.949.773l18.026-4.8a.89.89,0,0,0,.438-1.143c-.141-.528-.566-.875-.949-.773Z" transform="translate(-232.444 -425.534)" fill="#fff"/>
      <path id="Pfad_3840" data-name="Pfad 3840" d="M242.615,450.6a.89.89,0,0,0-.438,1.143c.141.528.566.875.949.773l18.026-4.8a.89.89,0,0,0,.438-1.143c-.141-.528-.566-.875-.949-.773Z" transform="translate(-234.425 -432.97)" fill="#fff"/>
      <path id="Pfad_3841" data-name="Pfad 3841" d="M245.7,462.194a.89.89,0,0,0-.438,1.143c.141.528.566.875.949.773l18.026-4.8a.89.89,0,0,0,.438-1.143c-.141-.528-.566-.875-.949-.773Z" transform="translate(-236.407 -440.405)" fill="#fff"/>
      <path id="Pfad_3842" data-name="Pfad 3842" d="M248.794,473.79a.89.89,0,0,0-.438,1.143c.141.528.566.875.949.773l18.026-4.8a.89.89,0,0,0,.438-1.143c-.141-.528-.566-.875-.949-.773Z" transform="translate(-238.388 -447.841)" fill="#fff"/>
      <path id="Pfad_3843" data-name="Pfad 3843" d="M251.883,485.385a.89.89,0,0,0-.438,1.143c.141.528.566.875.949.773l18.026-4.8a.89.89,0,0,0,.438-1.143c-.141-.528-.566-.875-.949-.773Z" transform="translate(-240.369 -455.277)" fill="#fff"/>
      <path id="Pfad_3844" data-name="Pfad 3844" d="M254.972,496.981a.89.89,0,0,0-.438,1.143c.141.528.566.875.949.773l18.026-4.8a.89.89,0,0,0,.438-1.143c-.141-.528-.566-.875-.949-.773Z" transform="translate(-242.35 -462.712)" fill="#fff"/>
    </g>
    <g id="Gruppe_2856" data-name="Gruppe 2856" transform="translate(722.969 284.139) rotate(-47)">
      <path id="Pfad_3852" data-name="Pfad 3852" d="M.19,13.559a.359.359,0,0,0-.148.485L17.952,47.59a.359.359,0,0,0,.485.147L43.754,34.22a.359.359,0,0,0,.147-.485L25.992.19a.359.359,0,0,0-.485-.147Z" transform="translate(0 0)" fill="#9eadff"/>
      <path id="Pfad_3853" data-name="Pfad 3853" d="M1.424,12l16.389,30.7,22.469-12L23.893,0ZM0,12.756l0,0,0,0Z" transform="translate(1.119 2.543)" fill="#fff"/>
      <path id="Pfad_3854" data-name="Pfad 3854" d="M.319,8.849a.89.89,0,0,0-.166,1.213c.257.482.751.723,1.1.537L17.709,1.812A.89.89,0,0,0,17.875.6c-.257-.482-.751-.723-1.1-.537Z" transform="translate(7.889 9.065)" fill="#6c63ff"/>
      <path id="Pfad_3855" data-name="Pfad 3855" d="M.319,8.849a.89.89,0,0,0-.166,1.213c.257.482.751.723,1.1.537L17.709,1.812A.89.89,0,0,0,17.875.6c-.257-.482-.751-.723-1.1-.537Z" transform="translate(9.917 12.863)" fill="#6c63ff"/>
      <path id="Pfad_3856" data-name="Pfad 3856" d="M.319,8.849a.89.89,0,0,0-.166,1.213c.257.482.751.723,1.1.537L17.709,1.812A.89.89,0,0,0,17.875.6c-.257-.482-.751-.723-1.1-.537Z" transform="translate(11.944 16.66)" fill="#6c63ff"/>
      <path id="Pfad_3857" data-name="Pfad 3857" d="M.319,8.849a.89.89,0,0,0-.166,1.213c.257.482.751.723,1.1.537L17.709,1.812A.89.89,0,0,0,17.875.6c-.257-.482-.751-.723-1.1-.537Z" transform="translate(13.972 20.458)" fill="#6c63ff"/>
      <path id="Pfad_3858" data-name="Pfad 3858" d="M.319,8.849a.89.89,0,0,0-.166,1.213c.257.482.751.723,1.1.537L17.709,1.812A.89.89,0,0,0,17.875.6c-.257-.482-.751-.723-1.1-.537Z" transform="translate(15.999 24.255)" fill="#6c63ff"/>
      <path id="Pfad_3859" data-name="Pfad 3859" d="M.319,8.849a.89.89,0,0,0-.166,1.213c.257.482.751.723,1.1.537L17.709,1.812A.89.89,0,0,0,17.875.6c-.257-.482-.751-.723-1.1-.537Z" transform="translate(18.027 28.053)" fill="#6c63ff"/>
    </g>
  </g>
</svg>
