<svg xmlns="http://www.w3.org/2000/svg" xmlns:xlink="http://www.w3.org/1999/xlink" width="80" height="80" viewBox="0 0 80 80">
  <defs>
    <clipPath id="clip-path">
      <circle id="Ellipse_440" data-name="Ellipse 440" cx="40" cy="40" r="40" transform="translate(172 401)" fill="#f6f9ff"/>
    </clipPath>
  </defs>
  <g id="Gruppe_3015" data-name="Gruppe 3015" transform="translate(-172 -401)">
    <circle id="Ellipse_185" data-name="Ellipse 185" cx="40" cy="40" r="40" transform="translate(172 401)" fill="#f6f9ff"/>
    <g id="Gruppe_maskieren_7" data-name="Gruppe maskieren 7" clip-path="url(#clip-path)">
      <g id="Gruppe_2857" data-name="Gruppe 2857" transform="translate(-140.446 367.287)">
        <path id="Pfad_2303" data-name="Pfad 2303" d="M215.028-1693.187c-.283-1.843-2.212-14.578-1.749-21a7.039,7.039,0,0,1,1.15-3.623,7.845,7.845,0,0,1,5.969-3.116c6.19.3,9.844,23.587,10.444,27.545a20.813,20.813,0,0,1-4.478.717c-2.6.125-3.967-.314-7.681-.481C217.128-1693.214,215.854-1693.2,215.028-1693.187Z" transform="translate(148.59 1807.007)" fill="#f6afa1"/>
        <path id="Pfad_2304" data-name="Pfad 2304" d="M156.115-1737.338a26.621,26.621,0,0,0-2.179-6.694c-1.146-2.387-2.03-4.228-3.949-5.741-2.114-1.667-6.166-3.569-8.955-2.07-1.827.982-1.29,2.443-4.249,8.573-1.876,3.888-2.577,4.3-3.161,6.607a16.216,16.216,0,0,0,.01,7.666c3.81-1.8,8.044-3.592,12.691-5.25C149.735-1735.464,153.011-1736.483,156.115-1737.338Z" transform="translate(219.893 1835.031)" fill="#fa5f64"/>
        <path id="Pfad_2305" data-name="Pfad 2305" d="M-47.851-1727.659c-.247-3.535-.657-7.724-1.358-12.417-1.021-6.834-1.834-9.228-1.159-12.832.51-2.719,1.928-6.449,6.029-10.472q19.791,16.848,24.363,13.417,2.863-2.149-.242-12.249a60.748,60.748,0,0,1,4.864,6.1c2.567,3.682,4.032,5.7,4.615,8.365,1.07,4.888-.865,9.318-2.308,11.827.245.661.484,1.364.708,2.108.338,1.122.6,2.189.8,3.184a68.258,68.258,0,0,0-16.855.282c-3.19.465-7.4,1.547-14.289,2.258C-44.867-1727.859-46.668-1727.731-47.851-1727.659Z" transform="translate(383.604 1844.823)" fill="#ff696e"/>
        <path id="Pfad_2309" data-name="Pfad 2309" d="M23.614-1887.192l2.215,8.273a15.925,15.925,0,0,0,4.126,1.031q.294.032.581.053,4.792,11.436,2.054,13.679-4.211,3.45-26.23-14.841l4.654-1.642q-.132-6.269-.264-12.537Z" transform="translate(332.852 1960.446)" fill="#fad0c6"/>
        <path id="Pfad_2310" data-name="Pfad 2310" d="M55.114-1898.221a13.99,13.99,0,0,0,2.736,8.427c3.978,5.275,10.339,5.486,11.175,5.5l-1.812-6.769Z" transform="translate(289.421 1964.94)" fill="#f6afa1"/>
        <path id="Pfad_2311" data-name="Pfad 2311" d="M28.977-2106.837a13.592,13.592,0,0,1,7.256,4.4c4.134,4.943,3.125,11.465,2.406,16.116-.789,5.1-1.4,9.073-4.489,10.9-4.664,2.762-12.3-.968-16.2-5.706-5.3-6.431-5.993-17.437-.29-22.962C22.015-2108.306,28.667-2106.906,28.977-2106.837Z" transform="translate(326.343 2151.024)" fill="#fad0c6"/>
        <path id="Pfad_2312" data-name="Pfad 2312" d="M11.074-2119.108c-8.076-1.031-11.3.789-12.753,2.613-2.329,2.918-1.257,7.281-3.737,8.278-2.3.925-5.044-2-5.815-1.033-.69.867.984,2.776,1.78,7.408.156.906.237,1.675.282,2.233a17.679,17.679,0,0,1-6.788-12.01c-.021-.212-.061-.6-.09-1.115-.087-1.592-.094-8.189,4.712-12.285,4.45-3.792,10.954-3.66,15.556-1.33A15.394,15.394,0,0,1,11.074-2119.108Z" transform="translate(352.827 2169.63)" fill="#864e6c"/>
        <path id="Pfad_2313" data-name="Pfad 2313" d="M-67.825-1701.869c-.27-1.724-2.96-19.065-2.8-26.562a6.42,6.42,0,0,1,1.309-4.123,7.141,7.141,0,0,1,6.7-2.078c5.153,1.288,7.3,10.2,10.529,23.594.716,2.97,1.215,5.406,1.513,6.93-2.319.463-4.766.885-7.335,1.244C-61.4-1702.377-64.718-1702.06-67.825-1701.869Z" transform="translate(401.436 1819.367)" fill="#fad0c6"/>
        <path id="Pfad_2314" data-name="Pfad 2314" d="M-71.866-1743.959c-.14-.861-.336-2.142-.531-3.7-.13-1.041-.293-2.48-.345-3.176-.116-1.538-.4-5.291,1.607-8.284a10.707,10.707,0,0,1,6.957-4.2,48.574,48.574,0,0,0,7.61,6.139,28,28,0,0,1,4.652,3.744,10.414,10.414,0,0,1,.905,1.027,16.215,16.215,0,0,1,3.082,7.019c-4.213-.112-8.81-.042-13.731.314C-65.272-1744.817-68.68-1744.428-71.866-1743.959Z" transform="translate(403.388 1844.771)" fill="#ff696e"/>
        <path id="Pfad_2315" data-name="Pfad 2315" d="M36.894-1903.734a2.625,2.625,0,0,0,3.082,2.187,2.372,2.372,0,0,0,1.367-2.06Z" transform="translate(305.651 1969.852)" fill="#f6afa1"/>
        <ellipse id="Ellipse_47" data-name="Ellipse 47" cx="3.946" cy="5.462" rx="3.946" ry="5.462" transform="matrix(0.931, -0.364, 0.364, 0.931, 337.879, 58.729)" fill="#fad0c6"/>
        <path id="Pfad_2316" data-name="Pfad 2316" d="M23.208-1968.948a3.462,3.462,0,0,0-2.456-2.733,2.672,2.672,0,0,0-2.263.469,2.852,2.852,0,0,0-.773,2.346,4.031,4.031,0,0,0,.828,2.263Z" transform="translate(322.741 2030.444)" fill="#f6afa1"/>
      </g>
    </g>
  </g>
</svg>
