<svg xmlns="http://www.w3.org/2000/svg" width="80" height="80" viewBox="0 0 80 80">
  <g id="Gruppe_3025" data-name="Gruppe 3025" transform="translate(-1244 -413)">
    <circle id="Ellipse_186" data-name="Ellipse 186" cx="40" cy="40" r="40" transform="translate(1244 413)" fill="#f6f9ff"/>
    <path id="Pfad_585" data-name="Pfad 585" d="M429.649,240.01a2.9,2.9,0,0,1-3.949,0l-1.516-1.371c-12.408-11.385-19.573-18.782-19.573-28,0-7.522,4.761-13.335,12.225-13.335a14.271,14.271,0,0,1,10.844,5.089,14.253,14.253,0,0,1,10.834-5.089c7.474,0,12.225,5.794,12.225,13.335,0,9.2-7.165,16.6-19.573,28Z" transform="translate(813.469 362.469) rotate(-16)" fill="#ff696e"/>
  </g>
</svg>
