<svg xmlns="http://www.w3.org/2000/svg" viewBox="0 0 154.1 85"><defs><style>.a{fill:#76b900;}</style></defs><path d="M42.5,42.5h1.2V45h1.9V42.5h1.2v6.2H45.6V46.1H43.7v2.6H42.5Z"/><path d="M48,47.4c0-.3-.1-.6-.1-1.1s.1-.8.1-1.1a2,2,0,0,1,3.8,0c0,.3.1.6.1,1.1s-.1.8-.1,1.1a2,2,0,0,1-3.8,0Zm2.6-.2a4.1,4.1,0,0,0,0-1.8.7.7,0,0,0-.7-.5c-.4,0-.7.2-.7.6a3.3,3.3,0,0,0,0,1.6c0,.4.3.6.7.6A.7.7,0,0,0,50.6,47.2Z"/><path d="M52.9,47.4a3.4,3.4,0,0,1-.1-1.1,3.4,3.4,0,0,1,.1-1.1,1.8,1.8,0,0,1,1.8-1.4,1.6,1.6,0,0,1,1.7,1.3c0,.2.1.4.1.6v.2H55.3v-.3a.7.7,0,0,0-.7-.6.5.5,0,0,0-.6.6,1.9,1.9,0,0,0-.1.8c0,.3,0,.6.1.7s.3.7.7.7a.8.8,0,0,0,.9-.6l.8.7a1.9,1.9,0,0,1-3.5-.4Z"/><path d="M58.6,48.7H57.4V42.1h1.2v2.1a1.3,1.3,0,0,1,1-.4,1.5,1.5,0,0,1,1.5,1.7v3.2H60V45.6a.7.7,0,1,0-1.4,0Z"/><path d="M64.3,45.9c.7.3,1.2.6,1.2,1.5a1.5,1.5,0,0,1-1.7,1.4,1.9,1.9,0,0,1-1.8-1l.8-.7a1.2,1.2,0,0,0,1,.6c.3,0,.5-.1.5-.3s-.2-.3-.6-.5h-.4a1.5,1.5,0,0,1-1.1-1.5,1.6,1.6,0,0,1,1.6-1.5c1.2,0,1.7.6,1.7,1.5s0,.2-.1.2H64.3a.5.5,0,0,0-.5-.5.5.5,0,0,0-.5.4c0,.2.2.4.6.5Z"/><path d="M66.5,47.4a3.4,3.4,0,0,1-.1-1.1,3.4,3.4,0,0,1,.1-1.1,1.8,1.8,0,0,1,1.8-1.4A1.6,1.6,0,0,1,70,45.1c0,.2.1.4.1.6v.2H68.9v-.3a.7.7,0,0,0-.7-.6.5.5,0,0,0-.6.6V47c.1.5.3.7.7.7a1,1,0,0,0,1-.6l.7.7a1.9,1.9,0,0,1-3.5-.4Z"/><path d="M72.1,48.7H71V42.1h1.1v2.1a1.8,1.8,0,0,1,1-.4,1.6,1.6,0,0,1,1.6,1.7v3.2H73.5V45.6a.6.6,0,0,0-.7-.7.7.7,0,0,0-.7.7Z"/><path d="M78.5,48.2a1.4,1.4,0,0,1-1.1.6,1.6,1.6,0,0,1-1.6-1.7V43.9H77V47a.6.6,0,0,0,.7.7.7.7,0,0,0,.7-.7V43.9h1.1v4.8h-1Z"/><path d="M82,47.5c0,.1.2.2.4.2h.3v1.1h-.6a1.2,1.2,0,0,1-1.2-.7,1.9,1.9,0,0,1-.2-.7V42.1h1.2v5.1A.4.4,0,0,0,82,47.5Z"/><path d="M86.9,45.2a1.9,1.9,0,0,1,.1.8v.8H84.4c0,.1.1.2.1.3a.7.7,0,0,0,.7.6,1.1,1.1,0,0,0,1-.5l.8.7a2.3,2.3,0,0,1-1.8.9,1.8,1.8,0,0,1-1.8-1.4,3.4,3.4,0,0,1-.1-1.1,3.4,3.4,0,0,1,.1-1.1,1.8,1.8,0,0,1,1.8-1.4A1.6,1.6,0,0,1,86.9,45.2Zm-2.4.3c0,.1-.1.2-.1.3h1.5c0-.2-.1-.2-.1-.3a.5.5,0,0,0-.6-.6C84.7,44.9,84.5,45.1,84.5,45.5Z"/><path d="M91.6,45v3.7H90.4V45h-.5V43.9h.5v-.4A1.4,1.4,0,0,1,91.8,42a1.3,1.3,0,0,1,1,.3l-.4,1a.5.5,0,0,0-.4-.2c-.3,0-.4.2-.4.5v.3h.9V45Z"/><path d="M96,48.2a1.4,1.4,0,0,1-1.1.6c-1,0-1.5-.7-1.5-1.7V43.9h1.1V47a.6.6,0,0,0,.7.7.7.7,0,0,0,.7-.7V43.9h1.2v4.8h-1Zm-2.4-5.4a.7.7,0,0,1,1.4,0,.7.7,0,0,1-1.4,0Zm1.9,0c0-.4.2-.7.6-.7a.7.7,0,0,1,.7.7.8.8,0,0,1-.7.7A.7.7,0,0,1,95.5,42.8Z"/><path d="M99.5,48.7H98.3V43.9h1v.5a1.1,1.1,0,0,1,1-.6h.4V45h-.6a.6.6,0,0,0-.7.7Z"/><path d="M104.4,43.6h-1.5V42.5h4.2v1.1h-1.5v5.1h-1.2Z"/><path d="M110.8,45.2a1.9,1.9,0,0,1,.1.8v.8h-2.6a.4.4,0,0,0,.1.3c0,.4.3.6.7.6a1.1,1.1,0,0,0,1-.5l.7.7a2,2,0,0,1-1.7.9,1.9,1.9,0,0,1-1.9-1.4V45.2a1.9,1.9,0,0,1,1.9-1.4A1.7,1.7,0,0,1,110.8,45.2Zm-2.4.3a.4.4,0,0,0-.1.3h1.4v-.3c0-.4-.3-.6-.7-.6A.5.5,0,0,0,108.4,45.5Z"/><path d="M111.9,47.4a3.4,3.4,0,0,1-.1-1.1,3.4,3.4,0,0,1,.1-1.1,1.8,1.8,0,0,1,1.8-1.4,1.6,1.6,0,0,1,1.7,1.3,1.3,1.3,0,0,1,.1.6v.2h-1.2v-.3a.6.6,0,0,0-.6-.6c-.5,0-.6.2-.7.6V47c.1.5.3.7.7.7a1,1,0,0,0,1-.6l.7.7a1.9,1.9,0,0,1-3.5-.4Z"/><path d="M117.6,48.7h-1.2V42.1h1.2v2.1a1.5,1.5,0,0,1,1-.4,1.6,1.6,0,0,1,1.6,1.7v3.2H119V45.6a.7.7,0,0,0-1.4,0Z"/><path d="M122.5,48.7h-1.2V43.9h1v.5a1.1,1.1,0,0,1,1.1-.6,1.5,1.5,0,0,1,1.5,1.7v3.2h-1.1V45.6a.7.7,0,0,0-1.4,0Z"/><path d="M126.1,42.7a.8.8,0,0,1,.8-.7.8.8,0,0,1,.7.7.8.8,0,0,1-.7.8A.8.8,0,0,1,126.1,42.7Zm.2,6V43.9h1.2v4.8Z"/><path d="M129.9,46.8v1.9h-1.2V42.1h1.2v3.7h.1c.9,0,1.2-.8,1.2-1.6v-.3h1.2v.4a2.6,2.6,0,0,1-1,2.2l1.4,2.2h-1.4l-1.1-1.9h-.4Z"/><path d="M45.1,58a1.4,1.4,0,0,1-1.1.6,1.6,1.6,0,0,1-1.6-1.7V53.7h1.2v3.1a.6.6,0,0,0,.7.7.7.7,0,0,0,.7-.7V53.7h1.1v4.8h-1Z"/><path d="M48.5,58.5H47.3V53.7h1v.5a1.1,1.1,0,0,1,1.1-.6,1.6,1.6,0,0,1,1.6,1.7v3.2H49.9V55.4a.7.7,0,0,0-1.4,0Z"/><path d="M55,58.1a1.5,1.5,0,0,1-1.2.5,1.7,1.7,0,0,1-1.7-1.4V55a1.8,1.8,0,0,1,1.8-1.4,2.9,2.9,0,0,1,1,.3v-2H56v6.6H55Zm-.2-1.2a3.2,3.2,0,0,0,0-1.6.7.7,0,0,0-.8-.6c-.4,0-.7.2-.7.6a3.3,3.3,0,0,0,0,1.6c0,.4.3.6.7.6A.7.7,0,0,0,54.8,56.9Z"/><path d="M60.1,58.5l-.9-3.9A4.7,4.7,0,0,1,59,53v-.7h1.2V53a6.2,6.2,0,0,0,.1,1.3l.2.9c.1.7.2,1.3.3,1.7h0a5,5,0,0,1,.3-1.3l.5-1.9h1l.5,1.7a13.1,13.1,0,0,1,.3,1.5h0a15.7,15.7,0,0,0,.3-1.6l.2-1c0-.4.1-1,.1-1.3v-.7h1.2V53a10,10,0,0,1-.2,1.6l-.8,3.9H62.8l-.5-2a3.2,3.2,0,0,1-.2-1.2H62a3.2,3.2,0,0,1-.2,1.2l-.5,2Z"/><path d="M66.1,52.5a.7.7,0,0,1,1.4,0,.7.7,0,1,1-1.4,0Zm.1,6V53.7h1.2v4.8Z"/><path d="M69.8,58.5H68.6V53.7h1v.5a1.1,1.1,0,0,1,1-.6h.4v1.1h-.6a.6.6,0,0,0-.7.7Z"/><path d="M73.5,58.6a1.4,1.4,0,0,1-1.4-1.5V54.8h-.6V53.7h.6V52.4h1.2v1.3h1.1v1.1H73.3V57c0,.3.1.5.4.5a.6.6,0,0,0,.5-.2l.3,1A1.3,1.3,0,0,1,73.5,58.6Z"/><path d="M77.3,55.7c.7.3,1.2.6,1.2,1.5a1.5,1.5,0,0,1-1.7,1.4,1.9,1.9,0,0,1-1.8-1l.8-.7c.3.4.5.6,1,.6s.5-.1.5-.3-.2-.3-.6-.5h-.4a1.4,1.4,0,0,1-1.1-1.5,1.6,1.6,0,0,1,1.6-1.5,1.4,1.4,0,0,1,1.6,1.5v.2H77.3a.5.5,0,0,0-.5-.5.5.5,0,0,0-.5.4c0,.2.2.4.6.5Z"/><path d="M79.5,57.2a6.1,6.1,0,0,1,0-2.2,1.7,1.7,0,0,1,1.7-1.4A1.6,1.6,0,0,1,83,54.9v.8H81.9v-.3a.7.7,0,0,0-.7-.6.5.5,0,0,0-.6.6,1.9,1.9,0,0,0-.1.8c0,.3,0,.6.1.7a.6.6,0,0,0,.7.7.9.9,0,0,0,.9-.6l.8.7a1.9,1.9,0,0,1-3.5-.4Z"/><path d="M85.1,58.5H84V51.9h1.1V54a1.5,1.5,0,0,1,1-.4,1.6,1.6,0,0,1,1.6,1.7v3.2H86.5V55.4a.6.6,0,0,0-.7-.7.7.7,0,0,0-.7.7Z"/><path d="M90.2,58.5h-.7c-.6-.1-.9-.6-.9-1.3a1.3,1.3,0,0,1,.9-1.3h.8l.7.2v-.6a.6.6,0,0,0-.6-.6.8.8,0,0,0-.8.6l-.9-.6a1.8,1.8,0,0,1,1.7-1.1,1.7,1.7,0,0,1,1.8,1.6v3.3h-1v-.3H91A1.3,1.3,0,0,1,90.2,58.5Zm.6-1a.4.4,0,0,0,.3-.4c0-.2-.1-.4-.3-.4H90c-.2,0-.3.2-.3.4s.1.4.3.4h.8Z"/><path d="M94.8,54.8v3.7H93.6V54.8h-.5V53.7h.5v-.4A1.4,1.4,0,0,1,95,51.8a1.3,1.3,0,0,1,1,.3l-.3,1-.5-.2c-.3,0-.4.2-.4.5v.3h.9v1.1Z"/><path d="M98.1,58.6a1.3,1.3,0,0,1-1.3-1.5V54.8h-.6V53.7h.6V52.4h1.1v1.3h1.2v1.1H97.9V57a.5.5,0,0,0,.4.5c.2,0,.4,0,.5-.2l.4,1A1.8,1.8,0,0,1,98.1,58.6Z"/><path d="M102.1,58.5V52.3h2a1.8,1.8,0,0,1,1.9,1.8,1.7,1.7,0,0,1-.7,1.3,1.6,1.6,0,0,1,.8,1.3,1.8,1.8,0,0,1-1.9,1.8Zm1.2-5.1v1.5h.7a.8.8,0,0,0,.8-.8.8.8,0,0,0-.8-.7Zm0,2.5v1.5h.9c.4,0,.6-.3.6-.8s-.2-.7-.6-.7Z"/><path d="M110.6,55v1.6h-2.5v.3a.7.7,0,0,0,.8.6,1.1,1.1,0,0,0,.9-.5l.8.7a2.1,2.1,0,0,1-1.8.9,1.8,1.8,0,0,1-1.8-1.4,6.1,6.1,0,0,1,0-2.2,1.9,1.9,0,0,1,3.6,0Zm-2.5.3v.3h1.4v-.3a.7.7,0,0,0-1.4,0Z"/><path d="M112.8,58.5h-1.1V53.7h1v.5a1.2,1.2,0,0,1,1-.6h.4v1.1h-.6a.6.6,0,0,0-.7.7Z"/><path d="M116.2,57.3c0,.1.2.2.3.2h.3v1.1h-.5a1.4,1.4,0,0,1-1.3-.7c0-.2-.1-.5-.1-.7V51.9h1.2V57A.4.4,0,0,0,116.2,57.3Z"/><path d="M117.5,52.5a.8.8,0,0,1,.7-.7.8.8,0,1,1,0,1.5A.8.8,0,0,1,117.5,52.5Zm.2,6V53.7h1.1v4.8Z"/><path d="M121.2,58.5h-1.1V53.7h1v.5a1.4,1.4,0,0,1,1.1-.6,1.6,1.6,0,0,1,1.6,1.7v3.2h-1.2V55.4a.6.6,0,0,0-.7-.7.7.7,0,0,0-.7.7Z"/><path class="a" d="M45.1,69.7H46v2.5a4.5,4.5,0,0,1-.1,1.4,1.6,1.6,0,0,1-1.6,1,1.5,1.5,0,0,1-1.6-1c-.2-.3-.2-.6-.2-1.4V69.7h.9v2.5c0,.6,0,.8.1.9a.8.8,0,0,0,.8.6.8.8,0,0,0,.8-.6V69.7Z"/><path class="a" d="M47.9,74.5H47V70.8h.8v.3a1,1,0,0,1,.9-.4A1.2,1.2,0,0,1,49.9,72v2.5H49V72.1a.5.5,0,0,0-.6-.6c-.3,0-.5.2-.5.6Z"/><path class="a" d="M50.6,69.9a.6.6,0,0,1,1.2,0,.6.6,0,0,1-1.2,0Zm.2,4.6V70.8h.9v3.7Z"/><path class="a" d="M53.5,74.5l-.9-2a5,5,0,0,1-.2-1.2v-.5h.9v.5a4.4,4.4,0,0,0,.2,1,8.4,8.4,0,0,1,.4,1.4H54a8.4,8.4,0,0,1,.4-1.4,3.6,3.6,0,0,0,.2-1v-.5h.9v.5a5,5,0,0,1-.2,1.2,17.6,17.6,0,0,1-.9,2Z"/><path class="a" d="M58.9,71.8a1.1,1.1,0,0,1,.1.6V73H57v.2c.1.4.3.5.6.5a.8.8,0,0,0,.8-.4l.5.6a1.5,1.5,0,0,1-1.3.7,1.5,1.5,0,0,1-1.5-1.1V71.8a1.4,1.4,0,0,1,1.5-1.1A1.3,1.3,0,0,1,58.9,71.8ZM57,72v.3h1.1V72c-.1-.3-.2-.5-.6-.5S57.1,71.7,57,72Z"/><path class="a" d="M60.6,74.5h-.9V70.8h.8v.4a.6.6,0,0,1,.7-.5h.4v.9h-.5a.6.6,0,0,0-.6.5Z"/><path class="a" d="M63.8,72.3a1.2,1.2,0,0,1,.9,1.2,1.2,1.2,0,0,1-1.3,1.1,1.4,1.4,0,0,1-1.4-.8l.6-.6a.9.9,0,0,0,.8.5c.2,0,.3,0,.3-.2s-.1-.3-.4-.4H63c-.7-.3-.9-.6-.9-1.2a1.2,1.2,0,0,1,1.3-1.1,1.1,1.1,0,0,1,1.3,1.2h-.9a.4.4,0,0,0-.4-.4c-.3,0-.4.2-.4.3s.2.3.5.4Z"/><path class="a" d="M65.3,69.9a.6.6,0,0,1,1.2,0,.6.6,0,0,1-1.2,0Zm.1,4.6V70.8h1v3.7Z"/><path class="a" d="M68.5,74.5a1,1,0,0,1-1.1-1.1V71.6H67v-.8h.4v-1h.9v1h.9v.8h-.9v1.8c0,.2.2.3.4.3H69l.3.7C69.1,74.5,68.9,74.5,68.5,74.5Z"/><path class="a" d="M69.9,75.9V75h.3c.2,0,.4,0,.5-.3v-.3l-.9-1.9a5,5,0,0,1-.2-1.2v-.5h.9v.5a2.9,2.9,0,0,0,.2.9,7.2,7.2,0,0,1,.5,1.4h0a7.2,7.2,0,0,1,.5-1.4,2.8,2.8,0,0,0,.1-.9v-.5h1v.5a2.7,2.7,0,0,1-.3,1.2A17.4,17.4,0,0,1,71.5,75a1.2,1.2,0,0,1-1.2.9Z"/><path class="a" d="M74.9,73.5V71.8a1.6,1.6,0,0,1,1.5-1.1,1.5,1.5,0,0,1,1.5,1.1v1.7a1.6,1.6,0,0,1-1.5,1.1A1.5,1.5,0,0,1,74.9,73.5Zm2.1-.2V72a.6.6,0,0,0-1.2,0v1.3a.6.6,0,0,0,1.2,0Z"/><path class="a" d="M79.8,71.6v2.9h-.9V71.6h-.4v-.8h.4v-.3A1.1,1.1,0,0,1,80,69.3a1.5,1.5,0,0,1,.8.2l-.3.8h-.4a.3.3,0,0,0-.3.3v.3h.7v.8Z"/><path class="a" d="M83.3,74.5h-.9V74a5.9,5.9,0,0,1,.2-1.3l1-3h1.2l1,3A5.9,5.9,0,0,1,86,74v.5h-.9V74a.7.7,0,0,0-.1-.5H83.4a.7.7,0,0,0-.1.5Zm.9-3.8-.6,1.9h1.2Z"/><path class="a" d="M87.6,74.3v1.6h-.9V70.8h.8v.3a1.3,1.3,0,0,1,1-.4,1.2,1.2,0,0,1,1.2,1.1,1.7,1.7,0,0,1,.1.8,2.2,2.2,0,0,1-.1.9,1.3,1.3,0,0,1-1.3,1.1A1.1,1.1,0,0,1,87.6,74.3Zm.1-2.3a1.3,1.3,0,0,0-.1.6c0,.3,0,.5.1.6s.2.5.6.5a.6.6,0,0,0,.6-.5V72a.6.6,0,0,0-.6-.5C87.9,71.5,87.7,71.7,87.7,72Z"/><path class="a" d="M91.5,74.3v1.6h-.9V70.8h.7v.3a1.3,1.3,0,0,1,.9-.4,1.3,1.3,0,0,1,1.3,1.1v1.7a1.5,1.5,0,0,1-1.4,1.1A.9.9,0,0,1,91.5,74.3Zm0-2.3v1.2a.6.6,0,0,0,1.2,0V72a.6.6,0,0,0-1.2,0Z"/><path class="a" d="M95.4,73.6h.5v.8h-.4a1,1,0,0,1-1-.6.7.7,0,0,1-.1-.5v-4h.9v4.2Z"/><path class="a" d="M96.4,69.9a.6.6,0,0,1,.5-.6.6.6,0,0,1,.6.6.6.6,0,0,1-.6.5A.5.5,0,0,1,96.4,69.9Zm.1,4.6V70.8h.9v3.7Z"/><path class="a" d="M101,71.8a1.1,1.1,0,0,1,.1.6V73h-2v.2c.1.4.3.5.6.5a.8.8,0,0,0,.8-.4l.5.6a1.5,1.5,0,0,1-1.3.7,1.5,1.5,0,0,1-1.5-1.1V71.8a1.4,1.4,0,0,1,1.5-1.1A1.3,1.3,0,0,1,101,71.8Zm-1.9.2v.3h1.1V72c-.1-.3-.2-.5-.6-.5S99.2,71.7,99.1,72Z"/><path class="a" d="M104,74.2a1.3,1.3,0,0,1-.9.4,1.3,1.3,0,0,1-1.3-1.1,2.5,2.5,0,0,1-.1-.9,1.7,1.7,0,0,1,.1-.8,1.2,1.2,0,0,1,1.3-1.1,1.1,1.1,0,0,1,.8.3V69.4h.9v5.1H104Zm-.2-1c.1-.1.1-.3.1-.6a1.3,1.3,0,0,0-.1-.6c0-.3-.2-.5-.6-.5a.6.6,0,0,0-.6.5v1.2a.6.6,0,0,0,.6.5C103.6,73.7,103.8,73.5,103.8,73.2Z"/><path class="a" d="M106.9,73.6l.8-.6a.9.9,0,0,0,.9.7.6.6,0,0,0,.6-.5c0-.3-.3-.5-.5-.6l-.5-.2a1.4,1.4,0,0,1,.4-2.8,1.4,1.4,0,0,1,1.5,1.5v.2h-.9v-.2c0-.4-.2-.7-.6-.7s-.5.2-.5.6a.5.5,0,0,0,.4.5l.6.3c.7.4,1,.8,1,1.3a1.4,1.4,0,0,1-1.6,1.5A1.8,1.8,0,0,1,106.9,73.6Z"/><path class="a" d="M110.9,73.5a2.5,2.5,0,0,1-.1-.9,1.7,1.7,0,0,1,.1-.8,1.2,1.2,0,0,1,1.3-1.1,1.2,1.2,0,0,1,1.4,1v.5h-.9V72a.5.5,0,0,0-.5-.5c-.3,0-.4.2-.5.5v1.2c.1.3.2.5.6.5a.8.8,0,0,0,.7-.5l.6.6a1.6,1.6,0,0,1-1.3.8A1.3,1.3,0,0,1,110.9,73.5Z"/><path class="a" d="M114.2,69.9a.6.6,0,0,1,.6-.6.6.6,0,0,1,.5.6.5.5,0,0,1-.5.5C114.4,70.4,114.2,70.2,114.2,69.9Zm.1,4.6V70.8h.9v3.7Z"/><path class="a" d="M118.9,71.8V73h-2v.2c.1.4.3.5.6.5a.7.7,0,0,0,.8-.4l.6.6a1.6,1.6,0,0,1-1.4.7,1.3,1.3,0,0,1-1.4-1.1,2.5,2.5,0,0,1-.1-.9,1.7,1.7,0,0,1,.1-.8,1.3,1.3,0,0,1,1.4-1.1A1.5,1.5,0,0,1,118.9,71.8Zm-2,.2v.3H118V72a.5.5,0,0,0-.5-.5C117.1,71.5,117,71.7,116.9,72Z"/><path class="a" d="M120.6,74.5h-.9V70.8h.7v.3a.9.9,0,0,1,.8-.4,1.2,1.2,0,0,1,1.3,1.3v2.5h-1V72.1c0-.4-.1-.6-.5-.6s-.5.2-.5.6Z"/><path class="a" d="M123.4,73.5a2.5,2.5,0,0,1-.1-.9,1.7,1.7,0,0,1,.1-.8,1.3,1.3,0,0,1,1.4-1.1,1.1,1.1,0,0,1,1.3,1,.7.7,0,0,1,.1.5h-.9V72c-.1-.3-.2-.5-.6-.5s-.4.2-.5.5v1.2a.6.6,0,0,0,.6.5.7.7,0,0,0,.7-.5l.6.6a1.4,1.4,0,0,1-1.3.8A1.3,1.3,0,0,1,123.4,73.5Z"/><path class="a" d="M129.6,71.8c0,.2.1.3.1.6a1.3,1.3,0,0,1-.1.6h-1.9v.2c0,.4.2.5.6.5a.7.7,0,0,0,.7-.4l.6.6a1.5,1.5,0,0,1-1.3.7,1.5,1.5,0,0,1-1.5-1.1c0-.3-.1-.5-.1-.9s.1-.6.1-.8a1.4,1.4,0,0,1,1.4-1.1A1.3,1.3,0,0,1,129.6,71.8Zm-1.9.2v.3h1.1a.4.4,0,0,0-.1-.3.5.5,0,0,0-1,0Z"/><path class="a" d="M131.9,72.3c.6.2,1,.5,1,1.2a1.2,1.2,0,0,1-1.3,1.1,1.4,1.4,0,0,1-1.4-.8l.6-.6a.9.9,0,0,0,.8.5c.2,0,.3,0,.3-.2s-.1-.3-.4-.4h-.3c-.7-.3-.9-.6-.9-1.2a1.2,1.2,0,0,1,1.3-1.1,1.1,1.1,0,0,1,1.3,1.2h-1c0-.3-.2-.4-.3-.4s-.4.2-.4.3.2.3.5.4Z"/><polygon class="a" points="79.7 16 85 16 85 26.6 79.7 26.6 79.7 16 79.7 16"/><polygon class="a" points="90.3 26.6 90.3 31.9 85 31.9 85 26.6 90.3 26.6 90.3 26.6"/><path class="a" d="M42.5,10.6h5.3V16h5.3v5.3H47.8v5.3h5.3v5.3H47.8a5.3,5.3,0,0,1-5.3-5.3v-16Z"/><path class="a" d="M58.5,16h5.3V26.6h5.3V16h5.3V26.6h5.3v5.3H63.8a5.3,5.3,0,0,1-5.3-5.3V16Z"/><polygon class="a" points="26.6 21.3 26.6 31.9 21.3 31.9 21.3 21.3 26.6 21.3 26.6 21.3"/><polygon class="a" points="26.6 10.6 26.6 16 21.3 16 21.3 10.6 26.6 10.6 26.6 10.6"/><path class="a" d="M26.6,16h5.3a5.3,5.3,0,0,1,5.3,5.3V31.9H31.9V21.3H26.6V16Z"/></svg>