<?xml version="1.0" standalone="no"?>
<!DOCTYPE svg PUBLIC "-//W3C//DTD SVG 20010904//EN"
 "http://www.w3.org/TR/2001/REC-SVG-20010904/DTD/svg10.dtd">
<svg version="1.0" xmlns="http://www.w3.org/2000/svg"
 width="700.000000pt" height="700.000000pt" viewBox="0 0 700.000000 700.000000"
 preserveAspectRatio="xMidYMid meet">
<metadata>
Created by potrace 1.14, written by Peter Selinger 2001-2017
</metadata>
<g transform="translate(0.000000,700.000000) scale(0.100000,-0.100000)"
fill="#000000" stroke="none">
<path d="M3276 6762 c-3 -5 1 -9 9 -9 8 0 12 4 9 9 -3 4 -7 8 -9 8 -2 0 -6 -4
-9 -8z"/>
<path d="M3436 6533 c-2 -2 -32 -5 -67 -7 -88 -6 -175 -15 -234 -26 -27 -5
-62 -12 -78 -14 -15 -3 -37 -8 -48 -11 -22 -7 -62 -15 -91 -18 -10 -1 -18 -5
-18 -10 0 -4 -5 -5 -10 -2 -6 4 -16 2 -23 -3 -7 -5 -43 -19 -82 -31 -38 -12
-84 -29 -102 -37 -17 -7 -34 -14 -37 -14 -3 0 -43 -18 -88 -40 -45 -21 -86
-36 -91 -33 -6 3 -7 1 -3 -5 4 -7 2 -12 -4 -12 -7 0 -24 -9 -39 -19 -15 -11
-34 -21 -42 -23 -8 -2 -16 -5 -19 -8 -11 -11 -70 -50 -76 -50 -3 0 -16 -8 -29
-17 -12 -10 -33 -25 -45 -33 -12 -8 -29 -21 -36 -28 -8 -7 -18 -10 -24 -7 -6
4 -9 1 -8 -7 2 -7 -5 -12 -14 -12 -10 1 -16 -2 -13 -6 2 -4 -30 -37 -73 -73
-67 -57 -111 -99 -223 -215 -52 -55 -167 -210 -231 -312 -176 -282 -279 -572
-314 -882 -3 -29 -8 -64 -11 -78 -11 -49 -14 -3932 -3 -3998 48 -287 350 -458
621 -352 105 42 191 120 243 223 15 30 29 61 30 69 15 75 19 139 19 305 0 131
4 193 11 193 7 0 8 3 1 8 -15 11 -17 74 -2 66 8 -5 8 -3 0 7 -16 17 -17 43 -1
33 8 -5 8 -3 2 7 -13 21 -13 83 0 91 7 5 7 8 1 8 -12 0 -13 108 -2 127 4 6 4
14 -1 17 -10 6 -9 207 1 223 4 6 3 14 -2 17 -5 4 -9 20 -9 36 1 17 5 27 11 23
6 -4 7 -1 1 8 -12 20 -12 179 1 179 6 0 7 3 0 8 -15 11 -18 55 -2 46 9 -5 9
-4 0 6 -8 9 -9 19 -3 31 6 11 6 20 1 24 -10 6 -9 44 2 62 4 6 3 14 -2 17 -10
7 -9 45 2 63 3 5 3 13 -1 17 -10 11 -11 66 0 66 5 0 6 6 1 13 -12 19 -11 127
2 119 5 -3 5 1 -2 9 -10 12 -9 20 4 40 12 17 13 21 2 12 -12 -10 -14 -1 -15
68 0 80 9 96 36 64 7 -9 28 -23 46 -31 19 -9 34 -20 34 -25 0 -5 4 -9 9 -9 5
0 35 -16 67 -36 196 -118 493 -225 744 -268 244 -42 548 -40 776 5 28 5 64 12
80 15 114 20 343 100 489 169 97 47 255 139 321 189 23 17 55 40 70 51 145
103 353 321 395 415 9 19 33 57 53 83 21 27 42 60 48 73 6 13 15 24 20 24 4 0
8 4 8 9 0 5 20 44 45 87 99 174 209 466 231 614 3 19 7 42 10 50 3 8 7 33 10
55 2 22 7 51 10 65 6 27 10 69 14 145 2 28 8 56 14 64 7 9 7 13 1 9 -14 -8
-14 134 0 144 7 5 7 8 0 8 -6 0 -11 36 -13 81 -2 44 -5 90 -8 102 -2 12 -7 40
-9 62 -3 22 -12 73 -20 113 -9 40 -13 77 -10 82 3 4 2 10 -3 12 -6 2 -26 68
-56 183 -2 6 -8 21 -13 35 -6 14 -19 45 -28 70 -9 25 -26 65 -37 89 -11 24
-20 52 -21 62 -1 10 -4 16 -8 13 -4 -2 -13 11 -20 29 -12 28 -40 81 -90 167
-8 13 -31 48 -52 77 -21 30 -35 58 -32 63 4 6 2 9 -3 8 -10 -3 -62 55 -62 70
0 5 -7 13 -16 16 -9 4 -14 13 -10 21 3 8 1 14 -3 12 -14 -4 -92 83 -85 95 4 6
3 8 -3 5 -6 -4 -26 10 -45 31 -42 45 -173 164 -194 175 -8 5 -11 13 -8 19 4 7
2 8 -4 4 -12 -7 -21 -2 -73 46 -16 15 -29 25 -29 21 0 -3 -15 6 -32 19 -82 61
-341 199 -418 223 -14 4 -29 11 -35 14 -5 4 -29 13 -52 21 -24 7 -43 16 -43
19 0 3 -10 7 -22 7 -34 2 -209 50 -203 56 3 2 -5 4 -18 3 -12 -1 -38 2 -58 6
-38 9 -115 21 -139 21 -8 1 -18 6 -22 12 -6 8 -8 8 -8 -1 0 -7 -11 -9 -32 -6
-18 3 -43 6 -55 7 -13 0 -23 4 -23 8 0 5 -7 5 -15 1 -8 -5 -42 -6 -75 -3 -34
3 -62 4 -64 3z m244 -938 c14 -3 36 -8 50 -10 52 -8 88 -17 175 -47 85 -28
252 -107 278 -132 7 -6 25 -18 39 -26 55 -31 168 -132 162 -143 -4 -7 -3 -9 1
-4 11 9 86 -63 79 -75 -3 -5 -1 -7 4 -6 21 7 139 -165 201 -293 24 -48 44 -93
45 -100 2 -8 6 -21 9 -29 9 -24 44 -152 52 -190 26 -135 26 -357 0 -492 -3
-16 -7 -38 -9 -50 -2 -13 -6 -30 -9 -38 -3 -8 -8 -27 -11 -42 -4 -17 -13 -28
-24 -28 -13 0 -14 -2 -4 -8 10 -7 10 -16 2 -38 -33 -91 -106 -230 -120 -226
-6 1 -9 -2 -5 -8 6 -9 -10 -49 -24 -60 -4 -3 -14 -18 -24 -33 -10 -15 -22 -25
-27 -22 -6 3 -7 -1 -4 -9 3 -9 1 -16 -5 -16 -6 0 -17 -11 -23 -25 -7 -15 -17
-24 -25 -21 -8 3 -11 2 -8 -3 9 -15 -101 -124 -116 -115 -7 4 -10 3 -5 -4 6
-10 -90 -92 -108 -92 -7 0 -20 -10 -51 -38 -8 -7 -15 -10 -15 -5 0 4 -4 3 -8
-3 -24 -35 -318 -154 -343 -138 -8 5 -9 3 -4 -6 6 -10 0 -12 -23 -8 -17 2 -29
1 -27 -2 6 -10 -170 -34 -189 -27 -8 3 -18 3 -20 -2 -5 -8 -183 -5 -221 3 -11
2 -30 5 -43 5 -16 1 -21 5 -16 14 6 9 4 9 -8 -1 -11 -9 -18 -10 -23 -2 -4 6
-12 10 -18 9 -39 -5 -59 2 -53 17 5 14 4 15 -9 4 -12 -10 -29 -8 -93 14 -91
32 -263 115 -282 137 -3 3 -13 8 -23 12 -9 4 -16 12 -15 19 2 7 -4 12 -14 13
-9 0 -28 10 -42 23 -14 12 -29 22 -34 22 -7 0 -174 170 -203 206 -65 84 -132
198 -122 208 4 3 2 6 -4 6 -11 0 -40 59 -35 73 1 4 -2 7 -7 7 -11 0 -43 89
-35 101 3 5 1 9 -4 9 -11 0 -36 79 -28 88 3 3 1 11 -5 18 -11 14 -18 46 -23
109 -2 24 -6 47 -10 53 -6 10 0 217 7 277 3 17 7 53 11 80 15 116 61 269 78
259 7 -4 8 -2 4 5 -15 23 122 266 194 345 10 11 31 36 46 54 28 35 159 152
209 187 16 11 35 19 42 19 7 -1 10 2 8 7 -6 9 98 72 185 113 103 47 232 84
390 109 37 6 301 0 330 -8z"/>
<path d="M2346 4842 c-3 -5 1 -9 9 -9 8 0 15 4 15 9 0 4 -4 8 -9 8 -6 0 -12
-4 -15 -8z"/>
<path d="M2275 4720 c3 -5 8 -10 11 -10 2 0 4 5 4 10 0 6 -5 10 -11 10 -5 0
-7 -4 -4 -10z"/>
<path d="M4740 4486 c0 -2 8 -10 18 -17 15 -13 16 -12 3 4 -13 16 -21 21 -21
13z"/>
<path d="M4625 3720 c-3 -6 1 -7 9 -4 18 7 21 14 7 14 -6 0 -13 -4 -16 -10z"/>
<path d="M4475 3689 c-4 -6 -5 -12 -2 -15 2 -3 7 2 10 11 7 17 1 20 -8 4z"/>
<path d="M2375 3631 c-3 -5 -2 -12 3 -15 5 -3 9 1 9 9 0 17 -3 19 -12 6z"/>
<path d="M2411 3567 c2 -1 13 -9 24 -17 19 -14 19 -14 6 3 -7 9 -18 17 -24 17
-6 0 -8 -1 -6 -3z"/>
<path d="M2476 3558 c3 -5 10 -6 15 -3 13 9 11 12 -6 12 -8 0 -12 -4 -9 -9z"/>
<path d="M2494 3456 c1 -8 5 -18 8 -22 4 -3 5 1 4 10 -1 8 -5 18 -8 22 -4 3
-5 -1 -4 -10z"/>
<path d="M4340 3360 c-9 -6 -10 -10 -3 -10 6 0 15 5 18 10 8 12 4 12 -15 0z"/>
<path d="M3675 3160 c-3 -5 -1 -10 4 -10 6 0 11 5 11 10 0 6 -2 10 -4 10 -3 0
-8 -4 -11 -10z"/>
<path d="M3993 3125 c0 -8 4 -12 9 -9 5 3 6 10 3 15 -9 13 -12 11 -12 -6z"/>
<path d="M2930 3119 c0 -5 5 -7 10 -4 6 3 10 8 10 11 0 2 -4 4 -10 4 -5 0 -10
-5 -10 -11z"/>
<path d="M3953 3105 c0 -8 4 -12 9 -9 5 3 6 10 3 15 -9 13 -12 11 -12 -6z"/>
<path d="M3030 3101 c0 -6 4 -13 10 -16 6 -3 7 1 4 9 -7 18 -14 21 -14 7z"/>
<path d="M3160 3080 c8 -5 20 -10 25 -10 6 0 3 5 -5 10 -8 5 -19 10 -25 10 -5
0 -3 -5 5 -10z"/>
<path d="M3796 3078 c3 -5 10 -6 15 -3 13 9 11 12 -6 12 -8 0 -12 -4 -9 -9z"/>
<path d="M3080 3060 c-12 -7 -10 -9 7 -7 12 0 19 5 17 9 -6 10 -6 10 -24 -2z"/>
<path d="M3406 3022 c-3 -5 1 -9 9 -9 8 0 12 4 9 9 -3 4 -7 8 -9 8 -2 0 -6 -4
-9 -8z"/>
<path d="M2800 6440 c-9 -6 -10 -10 -3 -10 6 0 15 5 18 10 8 12 4 12 -15 0z"/>
<path d="M2316 2247 c3 -10 9 -15 12 -12 3 3 0 11 -7 18 -10 9 -11 8 -5 -6z"/>
</g>
</svg>
